<?xml version="1.0" encoding="utf-8"?>
<!-- Generator: Adobe Illustrator 15.1.0, SVG Export Plug-In . SVG Version: 6.00 Build 0)  -->
<!DOCTYPE svg PUBLIC "-//W3C//DTD SVG 1.1//EN" "http://www.w3.org/Graphics/SVG/1.1/DTD/svg11.dtd">
<svg version="1.1" id="Layer_1" xmlns="http://www.w3.org/2000/svg" xmlns:xlink="http://www.w3.org/1999/xlink" x="0px" y="0px"
	 width="128px" height="128px" viewBox="0 0 128 128" enable-background="new 0 0 128 128" xml:space="preserve">
<g id="LINE_79_">
	<g id="XMLID_1_">
		<g>
			<path d="M7.86,4.63V13h11.17V4.63H7.86z M108.41,4.63V13h11.17V4.63H108.41z M102.82,1.83h22.35v122.9h-5.59v-2.801h-11.17v2.801
				h-5.59V102.38c0-3.08-2.5-5.58-5.58-5.58H30.2c-3.08,0-5.58,2.5-5.58,5.58v22.351h-5.59v-2.801H7.86v2.801H2.27V1.83h22.35v22.35
				c0,3.08,2.5,5.58,5.58,5.58h67.04c3.08,0,5.58-2.5,5.58-5.58V1.83z M119.58,113.55v-8.38h-11.17v8.38H119.58z M119.58,96.8v-8.38
				h-11.17v8.38H119.58z M119.58,80.04v-8.38h-11.17v8.38H119.58z M119.58,63.28V54.9h-11.17v8.38H119.58z M119.58,46.52v-8.38
				h-11.17v8.38H119.58z M119.58,29.76v-8.38h-11.17v8.38H119.58z M102.82,85.62V40.94c0-3.09-2.5-5.59-5.58-5.59H30.2
				c-3.08,0-5.58,2.5-5.58,5.59v44.68c0,3.09,2.5,5.59,5.58,5.59h67.04C100.32,91.21,102.82,88.71,102.82,85.62z M19.03,113.55
				v-8.38H7.86v8.38H19.03z M19.03,96.8v-8.38H7.86v8.38H19.03z M19.03,80.04v-8.38H7.86v8.38H19.03z M19.03,63.28V54.9H7.86v8.38
				H19.03z M19.03,46.52v-8.38H7.86v8.38H19.03z M19.03,29.76v-8.38H7.86v8.38H19.03z"/>
		</g>
		<g>
		</g>
	</g>
</g>
</svg>
