<?xml version="1.0" encoding="utf-8"?>
<!-- Generator: Adobe Illustrator 16.0.0, SVG Export Plug-In . SVG Version: 6.00 Build 0)  -->
<!DOCTYPE svg PUBLIC "-//W3C//DTD SVG 1.1//EN" "http://www.w3.org/Graphics/SVG/1.1/DTD/svg11.dtd">
<svg version="1.1" id="Layer_1" xmlns="http://www.w3.org/2000/svg" xmlns:xlink="http://www.w3.org/1999/xlink" x="0px" y="0px"
	 width="64px" height="64px" viewBox="0 0 64 64" enable-background="new 0 0 64 64" xml:space="preserve">
<g id="LINE_47_">
	<g id="XMLID_1_">
		<g>
			<polygon points="54.889648,7.819824 55.860352,10.109863 53.570313,11.080078 			"/>
			<polygon points="52.929688,3.240234 48.990234,13.040039 44.419922,14.990234 48.360352,5.189941 			"/>
			<polygon points="43.780273,7.149902 39.839844,16.939941 35.259766,18.890137 39.200195,9.100098 			"/>
			<polygon points="34.620117,11.049805 30.680176,20.839844 26.100098,22.799805 30.040039,13 			"/>
			<polygon points="25.459961,14.950195 21.52002,24.75 16.939941,26.700195 20.879883,16.899902 			"/>
			<path d="M12.089844,27.02002c0-1.370117-1.109863-2.490234-2.489746-2.490234c-1.370117,0-2.490234,1.120117-2.490234,2.490234
				c0,1.379883,1.120117,2.489746,2.490234,2.489746C10.97998,29.509766,12.089844,28.399902,12.089844,27.02002z
				 M14.580078,23.149902v6.359863v4.980469l2.489746,2.490234h4.97998l-7.469727-7.470703h4.97998l7.459961,7.470703H32
				l-7.470215-7.470703h4.97998l7.470703,7.470703h4.979492l-7.469727-7.470703h4.979492l7.459961,7.470703h4.980469
				l-7.469727-7.470703h4.979492l7.469727,7.470703h2.490234v22.399414H4.620117V22.049805h6.609863l0.5-1.239746l4.569824-1.950195
				L14.580078,23.149902z"/>
		</g>
		<g>
		</g>
	</g>
</g>
</svg>
