<?xml version="1.0" encoding="utf-8"?>
<!-- Generator: Adobe Illustrator 15.1.0, SVG Export Plug-In . SVG Version: 6.00 Build 0)  -->
<!DOCTYPE svg PUBLIC "-//W3C//DTD SVG 1.1//EN" "http://www.w3.org/Graphics/SVG/1.1/DTD/svg11.dtd">
<svg version="1.1" id="Layer_1" xmlns="http://www.w3.org/2000/svg" xmlns:xlink="http://www.w3.org/1999/xlink" x="0px" y="0px"
	 width="128px" height="128px" viewBox="0 0 128 128" enable-background="new 0 0 128 128" xml:space="preserve">
<g id="LINE_4_">
	<g id="XMLID_1_">
		<g>
			<path d="M98.35,57.33c1.4,1.6,2.101,3.52,2.101,5.77c0,2.25-0.71,4.169-2.141,5.77c-1.43,1.59-3.119,2.39-5.09,2.39
				c-2,0-3.71-0.8-5.14-2.39c-1.43-1.601-2.14-3.521-2.14-5.77c0-2.25,0.71-4.17,2.14-5.77c1.43-1.59,3.14-2.39,5.14-2.39
				C95.25,54.94,96.96,55.74,98.35,57.33z"/>
			<path d="M64.46,63.18c0.38,7.5,3.23,13.75,8.56,18.74c5.33,4.98,11.801,7.48,19.41,7.48c7.9,0,14.53-2.7,19.91-8.08
				c5.37-5.391,8.061-12.04,8.061-19.98c0-14.58-5.53-27.16-16.58-37.72C92.77,13.06,79.63,7.78,64.4,7.78
				c-15.62,0-28.63,5.09-39.03,15.28C14.97,33.24,9.3,46.43,8.38,62.62c1.19-9.05,4.16-15.92,8.91-20.61
				c4.75-4.68,11.13-7.02,19.14-7.02c7.62,0,14.07,2.5,19.37,7.52c5.3,5.02,8.17,11.27,8.6,18.77L64.46,63.18z M106.51,21.4
				c11.681,11.49,17.521,25.39,17.521,41.7c0,16.3-5.84,30.2-17.521,41.7c-11.67,11.49-25.779,17.24-42.33,17.24
				s-30.66-5.75-42.34-17.24C10.16,93.3,4.33,79.4,4.33,63.1c0-16.31,5.83-30.21,17.51-41.7C33.52,9.9,47.63,4.15,64.18,4.15
				S94.84,9.9,106.51,21.4z M44.23,62.19c0-2-0.7-3.71-2.1-5.13c-1.4-1.41-3.11-2.12-5.13-2.12c-2,0-3.72,0.71-5.14,2.12
				c-1.43,1.42-2.14,3.13-2.14,5.13s0.71,3.71,2.14,5.13c1.42,1.42,3.14,2.13,5.14,2.13c1.97,0,3.66-0.73,5.09-2.17
				C43.51,65.83,44.23,64.14,44.23,62.19z"/>
		</g>
		<g>
		</g>
	</g>
</g>
</svg>
