<?xml version="1.0" encoding="utf-8"?>
<!-- Generator: Adobe Illustrator 15.1.0, SVG Export Plug-In . SVG Version: 6.00 Build 0)  -->
<!DOCTYPE svg PUBLIC "-//W3C//DTD SVG 1.1//EN" "http://www.w3.org/Graphics/SVG/1.1/DTD/svg11.dtd">
<svg version="1.1" id="Layer_1" xmlns="http://www.w3.org/2000/svg" xmlns:xlink="http://www.w3.org/1999/xlink" x="0px" y="0px"
	 width="128px" height="128px" viewBox="0 0 128 128" enable-background="new 0 0 128 128" xml:space="preserve">
<g id="ARC_20_">
	<g id="XMLID_1_">
		<g>
			<path d="M73.74,94.26c0.35,10.29-6.29,19.88-16.63,22.83l-25.43,7.3C19.5,127.87,6.8,120.82,3.32,108.64
				C-0.16,96.45,6.89,83.76,19.07,80.28l15.96-4.58c-0.15,1.8-0.1,3.609,0.13,5.39c0.26,2.08,0.78,4.12,1.55,6.09l-14.48,4.16
				c-6.07,1.73-9.59,8.061-7.85,14.141c1.73,6.069,8.06,9.59,14.14,7.85l25.43-7.3c5.21-1.49,8.54-6.36,8.27-11.561
				c-0.04-0.859-0.18-1.72-0.42-2.58c-0.9-3.149-3.11-5.77-6.07-7.18c-0.14-0.1-0.28-0.21-0.42-0.32c-3.64-3-4.16-8.399-1.16-12.05
				c8.92,1.32,16.23,7.73,18.71,16.391C73.38,90.58,73.67,92.43,73.74,94.26z"/>
			<path d="M61.28,53.69L50.82,72.13c-3.13,5.49-1.21,12.47,4.28,15.601c0.24,0.13,0.49,0.26,0.73,0.38
				c0.15,0.1,0.28,0.21,0.42,0.319c1.93,1.59,2.98,3.84,3.11,6.15c0.11,2.06-0.53,4.18-1.95,5.9c-2.81-0.41-5.52-1.351-7.99-2.75
				c-6.51-3.7-10.51-10.101-11.41-16.98c-0.62-4.78,0.25-9.79,2.81-14.3L53.6,43.91c1.5,3.36,3.71,6.34,6.47,8.78
				C60.46,53.03,60.86,53.37,61.28,53.69z"/>
			<path d="M95.04,46.09c2.57,6.29,2.33,13.66-1.29,20.03L80.7,89.13c-1.101,1.93-2.48,3.7-4.09,5.24c0-0.08,0-0.16-0.011-0.24
				c-0.17-4.8-1.659-9.46-4.34-13.45l11.49-20.25c3.11-5.46,1.22-12.41-4.22-15.56c-4.61-3.18-8.36-7.45-10.91-12.44
				c5.62-1.3,11.52-0.44,16.53,2.41C89.79,37.48,93.16,41.5,95.04,46.09z"/>
			<path d="M124.62,19.72c3.479,12.18-3.57,24.87-15.75,28.35l-9.55,2.75c-0.301-1.93-0.82-3.81-1.54-5.61
				c-0.721-1.81-1.641-3.53-2.75-5.13l10.68-3.07c6.07-1.73,9.59-8.06,7.85-14.13c-1.729-6.08-8.06-9.59-14.14-7.86L74,22.32
				c-4.72,1.35-7.88,5.46-8.26,10.07c-0.11,1.33,0.01,2.71,0.399,4.07c0.88,3.08,3.021,5.65,5.88,7.09
				c4.641,2.84,8.24,7.08,10.301,12.11c-7.46,1.73-14.94-0.39-20.32-5.11c-3.21-2.81-5.66-6.54-6.92-10.93
				c-3.48-12.18,3.57-24.88,15.76-28.36l25.42-7.3C108.45,0.48,121.14,7.54,124.62,19.72z"/>
		</g>
		<g>
		</g>
	</g>
</g>
</svg>
