<?xml version="1.0" encoding="utf-8"?>
<!-- Generator: Adobe Illustrator 15.1.0, SVG Export Plug-In . SVG Version: 6.00 Build 0)  -->
<!DOCTYPE svg PUBLIC "-//W3C//DTD SVG 1.1//EN" "http://www.w3.org/Graphics/SVG/1.1/DTD/svg11.dtd">
<svg version="1.1" id="Layer_1" xmlns="http://www.w3.org/2000/svg" xmlns:xlink="http://www.w3.org/1999/xlink" x="0px" y="0px"
	 width="128px" height="128px" viewBox="0 0 128 128" enable-background="new 0 0 128 128" xml:space="preserve">
<g id="LINE_127_">
	<g id="XMLID_1_">
		<g>
			<rect x="118.13" y="3.34" width="5.521" height="11.04"/>
			<rect x="101.58" y="3.34" width="11.04" height="5.52"/>
			<rect x="86.04" y="3.34" width="11.03" height="5.52"/>
			<rect x="69.48" y="3.34" width="11.039" height="5.52"/>
			<rect x="52.93" y="3.34" width="11.04" height="5.52"/>
			<rect x="36.38" y="3.34" width="11.03" height="5.52"/>
			<rect x="19.83" y="3.34" width="11.03" height="5.52"/>
			<rect x="3.27" y="3.34" width="11.04" height="5.52"/>
			<rect x="3.27" y="14.38" width="5.52" height="11.03"/>
			<rect x="3.27" y="30.93" width="5.52" height="11.03"/>
			<rect x="3.27" y="47.48" width="5.52" height="11.04"/>
			<rect x="3.27" y="64.03" width="5.52" height="11.041"/>
			<rect x="3.27" y="80.59" width="5.52" height="11.03"/>
			<rect x="3.27" y="97.14" width="5.52" height="11.03"/>
			<rect x="3.27" y="113.69" width="5.52" height="11.04"/>
			<rect x="14.31" y="119.21" width="11.03" height="5.521"/>
			<rect x="30.86" y="119.21" width="11.04" height="5.521"/>
			<rect x="47.41" y="119.21" width="11.04" height="5.521"/>
			<rect x="63.97" y="119.21" width="11.03" height="5.521"/>
			<rect x="80.52" y="119.21" width="11.03" height="5.521"/>
			<rect x="97.07" y="119.21" width="11.04" height="5.521"/>
			<rect x="113.62" y="119.21" width="11.04" height="5.521"/>
			<rect x="118.13" y="102.66" width="5.521" height="11.03"/>
			<rect x="118.13" y="86.1" width="5.521" height="11.04"/>
			<rect x="118.13" y="69.55" width="5.521" height="11.04"/>
			<rect x="118.13" y="53" width="5.521" height="11.03"/>
			<rect x="118.13" y="36.45" width="5.521" height="11.03"/>
			<rect x="118.13" y="19.89" width="5.521" height="11.04"/>
			<path d="M110.13,52.45c1.73,7.26,1.73,14.819,0,22.069h-9.149c-0.761,2.54-1.78,5-3.04,7.341l6.47,6.47
				c-3.9,6.35-9.25,11.7-15.61,15.6l-6.47-6.47C80,98.72,77.54,99.74,75,100.5v9.15c-7.25,1.729-14.81,1.729-22.07,0v-9.15
				c-2.54-0.76-5-1.78-7.33-3.04l-6.47,6.47c-6.36-3.899-11.71-9.25-15.61-15.6l6.47-6.47c-1.26-2.341-2.28-4.801-3.04-7.341H17.8
				c-1.73-7.25-1.73-14.81,0-22.069h9.15c0.76-2.54,1.78-5,3.04-7.33l-6.47-6.47c3.9-6.36,9.25-11.7,15.61-15.61l6.47,6.47
				c2.33-1.26,4.79-2.28,7.33-3.04v-9.15c7.26-1.73,14.82-1.73,22.07,0v9.15c2.54,0.76,5,1.78,7.33,3.04l6.47-6.47
				c6.36,3.91,11.71,9.25,15.61,15.61l-6.47,6.47c1.26,2.33,2.279,4.79,3.04,7.33H110.13z M80.52,63.49
				c0-9.15-7.409-16.56-16.549-16.56c-9.15,0-16.56,7.41-16.56,16.56c0,9.14,7.41,16.55,16.56,16.55
				C73.11,80.04,80.52,72.63,80.52,63.49z"/>
		</g>
		<g>
		</g>
	</g>
</g>
</svg>
