<?xml version="1.0" encoding="utf-8"?>
<!-- Generator: Adobe Illustrator 16.0.0, SVG Export Plug-In . SVG Version: 6.00 Build 0)  -->
<!DOCTYPE svg PUBLIC "-//W3C//DTD SVG 1.1//EN" "http://www.w3.org/Graphics/SVG/1.1/DTD/svg11.dtd">
<svg version="1.1" id="Layer_1" xmlns="http://www.w3.org/2000/svg" xmlns:xlink="http://www.w3.org/1999/xlink" x="0px" y="0px"
	 width="32px" height="32px" viewBox="0 0 32 32" enable-background="new 0 0 32 32" xml:space="preserve">
<g id="LINE_24_">
	<g id="XMLID_1_">
		<g>
			<path d="M10.569824,9.359863V5.740234H6.950195v3.619629H10.569824z M19.019531,28.669922v-3.620117h-3.619629v3.620117
				H19.019531z M27.459961,9.359863V5.740234h-3.620117v3.619629H27.459961z M28.669922,4.540039v6.029785h-6.030273V5.220215
				C19.219727,3.5,15.189941,3.5,11.779785,5.220215v5.349609H6.430176c-3,5.950195-0.600098,13.210449,5.349609,16.210449
				c0.77002,0.379883,1.580078,0.689453,2.410156,0.899414v-3.839844h6.029785v6.040039h-6.029785v-0.950195
				c-1.290039-0.30957-2.529785-0.799805-3.669922-1.469727c-6.339844-3.69043-8.470215-11.819824-4.779785-18.149902v-4.77002
				h4.779785c4.129883-2.419922,9.239746-2.419922,13.380371,0H28.669922z"/>
		</g>
		<g>
		</g>
	</g>
</g>
</svg>
