<?xml version="1.0" encoding="utf-8"?>
<!-- Generator: Adobe Illustrator 15.1.0, SVG Export Plug-In . SVG Version: 6.00 Build 0)  -->
<!DOCTYPE svg PUBLIC "-//W3C//DTD SVG 1.1//EN" "http://www.w3.org/Graphics/SVG/1.1/DTD/svg11.dtd">
<svg version="1.1" id="Layer_1" xmlns="http://www.w3.org/2000/svg" xmlns:xlink="http://www.w3.org/1999/xlink" x="0px" y="0px"
	 width="128px" height="128px" viewBox="0 0 128 128" enable-background="new 0 0 128 128" xml:space="preserve">
<g id="ARC_3_">
	<g id="XMLID_1_">
		<g>
			<path d="M78.01,50.24v27.31H50.7V50.24H78.01z M72.55,72.08V55.7H56.17v16.38H72.55z"/>
			<path d="M116.25,33.6c5.37,9.19,8.19,19.65,8.19,30.29c0,10.65-2.82,21.1-8.19,30.29c-16.73,28.66-53.52,38.33-82.18,21.601
				C5.41,99.05-4.26,62.26,12.47,33.6C29.2,4.94,65.99-4.73,94.65,12h21.6V33.6z M118.98,63.89c0-8.54-2-16.95-5.841-24.58H88.94
				v-24.2C62,1.54,29.15,12.37,15.58,39.31C2,66.25,12.84,99.09,39.78,112.67s59.78,2.74,73.36-24.2
				C116.98,80.85,118.98,72.43,118.98,63.89z M110.79,33.85V17.46H94.4v16.39H110.79z"/>
		</g>
		<g>
		</g>
	</g>
</g>
</svg>
