<?xml version="1.0" encoding="utf-8"?>
<!-- Generator: Adobe Illustrator 16.0.0, SVG Export Plug-In . SVG Version: 6.00 Build 0)  -->
<!DOCTYPE svg PUBLIC "-//W3C//DTD SVG 1.1//EN" "http://www.w3.org/Graphics/SVG/1.1/DTD/svg11.dtd">
<svg version="1.1" id="Layer_1" xmlns="http://www.w3.org/2000/svg" xmlns:xlink="http://www.w3.org/1999/xlink" x="0px" y="0px"
	 width="32px" height="32px" viewBox="0 0 32 32" enable-background="new 0 0 32 32" xml:space="preserve">
<g id="LINE_25_">
	<g id="XMLID_1_">
		<g>
			<path d="M17.80957,17.80957v-3.619629h-3.619629v3.619629H17.80957z M19.019531,19.019531H12.97998V12.97998h6.039551V19.019531z
				"/>
			<path d="M27.459961,8.160156V4.540039h-3.620117v3.620117H27.459961z M10.569824,10.569824V6.950195H6.950195v3.619629H10.569824
				z M26.259766,20.540039c-4.25,6.620117-12.279785,9.950195-17.939941,7.44043
				C2.649902,25.469727,1.5,18.070313,5.740234,11.459961V5.740234h5.719727
				c3.680176-2.360352,7.799805-3.140137,11.179688-2.110352V3.330078h6.030273v6.029785h-0.299805
				C29.400391,12.72998,28.620117,16.859863,26.259766,20.540039z M22.639648,4.890137
				C19.459961,3.75,15.379883,4.529785,11.779785,6.970215v4.80957h-4.80957C2.930176,17.759766,3.700195,24.5,8.680176,26.830078
				c4.989746,2.330078,12.310059-0.629883,16.350098-6.610352c2.439453-3.599609,3.219727-7.679688,2.080078-10.859863h-4.470703
				V4.890137z"/>
		</g>
		<g>
		</g>
	</g>
</g>
</svg>
