<?xml version="1.0" encoding="utf-8"?>
<!-- Generator: Adobe Illustrator 15.1.0, SVG Export Plug-In . SVG Version: 6.00 Build 0)  -->
<!DOCTYPE svg PUBLIC "-//W3C//DTD SVG 1.1//EN" "http://www.w3.org/Graphics/SVG/1.1/DTD/svg11.dtd">
<svg version="1.1" id="Layer_1" xmlns="http://www.w3.org/2000/svg" xmlns:xlink="http://www.w3.org/1999/xlink" x="0px" y="0px"
	 width="128px" height="128px" viewBox="0 0 128 128" enable-background="new 0 0 128 128" xml:space="preserve">
<g id="ARC_22_">
	<g id="XMLID_1_">
		<g>
			<path d="M47.53,8.11v5.64C19.06,22.7,3.25,53.03,12.2,81.5c2.64,8.38,7.28,16,13.53,22.18l-1.89,5.66
				C15.59,101.86,9.6,92.21,6.56,81.5C-2.39,49.92,15.95,17.07,47.53,8.11z"/>
			<path d="M87.17,113.97l1.72,5.17c-16.439,7.681-35.5,7.42-51.729-0.689l2.42-4.84C54.53,121.09,72.1,121.22,87.17,113.97z"/>
			<path d="M111.28,29.63c19.689,26.26,14.37,63.51-11.891,83.2l-1.81-5.43c23.26-18.69,26.96-52.7,8.27-75.96
				c-7.89-9.81-18.97-16.57-31.31-19.09v-5.5C89.21,9.56,102.33,17.7,111.28,29.63z"/>
			<path d="M82.38,80.92l15.19,43.01l-6.15-12.939l-1.21,0.75l-8.06-10.24l-3.58-10.12l-0.011-0.04l2.061-0.8l-3.03-7.75
				c-10.76,3.34-22.3,3.13-32.93-0.59l-2.51,7.18l1.23,0.54l-3.16,9.37l-7.6,16.68l-0.93-0.359l-3.94,9.12l2.68-9.57l-0.95-0.3
				l4.6-17.75l3.46-9.271l1.29,0.36l2.66-7.4c-1.53-1.08-2.51-2.77-2.69-4.64c-0.33-3.53,2.26-6.65,5.78-6.98l9.99-27.6
				c-2.4-1.73-4.08-4.27-4.72-7.15c-1.44-6.48,2.64-12.89,9.11-14.33c0.37-0.08,0.75-0.15,1.12-0.2v-1.33h-2.07V2.88h7.08v15.69
				h-1.57v1.4c3.17,0.52,6,2.3,7.86,4.92c3.82,5.42,2.53,12.91-2.88,16.74l9.68,27.41c3.7-1.62,7.141-3.79,10.19-6.44l3.3,3.81
				c-3.53,3.06-7.51,5.55-11.81,7.39l0.689,1.95c4.54-1.93,8.75-4.56,12.47-7.79l3.591,4.13C92.37,75.78,87.56,78.76,82.38,80.92z
				 M75.54,77.54l-0.75-1.92c-8.88,2.59-18.34,2.39-27.09-0.59c-0.27-1.28-1.46-2.15-2.76-2.03c-1.42,0.13-2.46,1.39-2.32,2.8
				c0.13,1.42,1.38,2.46,2.8,2.32c0.74-0.07,1.42-0.45,1.85-1.061C56.42,80.12,66.29,80.29,75.54,77.54z M71.47,71.29l-9.7-27.46
				c-0.23,0-0.45,0-0.68-0.01l-9.78,27.06C57.88,72.74,64.83,72.88,71.47,71.29z M63.05,38.26c3.561-0.82,5.771-4.37,4.95-7.93
				c-0.52-2.29-2.23-4.13-4.48-4.82v1.96h-3.44v-2.09c-3.55,0.82-5.77,4.37-4.95,7.93C55.95,36.86,59.5,39.08,63.05,38.26z"/>
		</g>
		<g>
		</g>
	</g>
</g>
</svg>
