<?xml version="1.0" encoding="utf-8"?>
<!-- Generator: Adobe Illustrator 15.1.0, SVG Export Plug-In . SVG Version: 6.00 Build 0)  -->
<!DOCTYPE svg PUBLIC "-//W3C//DTD SVG 1.1//EN" "http://www.w3.org/Graphics/SVG/1.1/DTD/svg11.dtd">
<svg version="1.1" id="Layer_1" xmlns="http://www.w3.org/2000/svg" xmlns:xlink="http://www.w3.org/1999/xlink" x="0px" y="0px"
	 width="128px" height="128px" viewBox="0 0 128 128" enable-background="new 0 0 128 128" xml:space="preserve">
<g id="LINE_25_">
	<g id="XMLID_1_">
		<g>
			<path d="M114.84,33.14c5.271,9.04,8.061,19.33,8.061,29.8c0,27.46-18.931,51.31-45.681,57.55v4.24H50.36v-4.24
				c-5.75-1.34-11.26-3.53-16.36-6.51C5.81,97.52-3.71,61.33,12.75,33.14V11.89H34c18.41-10.74,41.18-10.74,59.59,0h21.25V33.14z
				 M117.52,62.94c0-8.4-1.97-16.68-5.739-24.18H87.97V14.95c-15.21-7.66-33.15-7.66-48.36,0v23.81h-23.8
				c-13.35,26.5-2.7,58.811,23.8,72.16c3.43,1.73,7.03,3.08,10.75,4.04v-17.1h26.86v17.1C100.95,108.83,117.52,87.44,117.52,62.94z
				 M109.46,33.39V17.27H93.34v16.12H109.46z M71.85,119.35V103.23H55.73v16.119H71.85z M34.24,33.39V17.27H18.12v16.12H34.24z"/>
		</g>
		<g>
		</g>
	</g>
</g>
</svg>
