<?xml version="1.0" encoding="utf-8"?>
<!-- Generator: Adobe Illustrator 15.1.0, SVG Export Plug-In . SVG Version: 6.00 Build 0)  -->
<!DOCTYPE svg PUBLIC "-//W3C//DTD SVG 1.1//EN" "http://www.w3.org/Graphics/SVG/1.1/DTD/svg11.dtd">
<svg version="1.1" id="Layer_1" xmlns="http://www.w3.org/2000/svg" xmlns:xlink="http://www.w3.org/1999/xlink" x="0px" y="0px"
	 width="128px" height="128px" viewBox="0 0 128 128" enable-background="new 0 0 128 128" xml:space="preserve">
<g id="ARC_5_">
	<g id="XMLID_1_">
		<g>
			<path d="M116.57,33.29c5.43,9.3,8.29,19.87,8.29,30.64s-2.86,21.35-8.29,30.65c-16.931,29-54.15,38.78-83.15,21.86H11.56V94.58
				c-11.05-18.94-11.05-42.36,0-61.29c16.93-29,54.16-38.78,83.15-21.86h21.86V33.29z M119.33,63.93c0-8.63-2.021-17.15-5.91-24.87
				H88.94V14.58C61.68,0.84,28.45,11.81,14.71,39.06c-7.88,15.65-7.88,34.1,0,49.74H39.2v24.49c27.26,13.729,60.49,2.77,74.22-24.49
				C117.31,81.09,119.33,72.57,119.33,63.93z M111.04,33.54V16.96H94.46v16.58H111.04z M33.67,110.91V94.33H17.09v16.58H33.67z"/>
		</g>
		<g>
		</g>
	</g>
</g>
</svg>
