<?xml version="1.0" encoding="utf-8"?>
<!-- Generator: Adobe Illustrator 16.0.0, SVG Export Plug-In . SVG Version: 6.00 Build 0)  -->
<!DOCTYPE svg PUBLIC "-//W3C//DTD SVG 1.1//EN" "http://www.w3.org/Graphics/SVG/1.1/DTD/svg11.dtd">
<svg version="1.1" id="Layer_1" xmlns="http://www.w3.org/2000/svg" xmlns:xlink="http://www.w3.org/1999/xlink" x="0px" y="0px"
	 width="32px" height="32px" viewBox="0 0 32 32" enable-background="new 0 0 32 32" xml:space="preserve">
<g id="LINE_7_">
	<g id="XMLID_1_">
		<g>
			<path d="M17.80957,17.80957v-3.619629h-3.619629v3.619629H17.80957z M19.019531,12.97998v6.039551H12.97998V12.97998H19.019531z"
				/>
			<path d="M25.389648,6.609863c-3.790039-3.779785-11.05957-2.649902-16.239746,2.540039
				c-5.189941,5.180176-6.319824,12.449707-2.540039,16.239746c3.790039,3.780273,11.060059,2.650391,16.239746-2.540039
				C28.040039,17.669922,29.169922,10.399902,25.389648,6.609863z M26.240234,5.759766
				c4.25,4.260254,3.120117,12.290039-2.530273,17.950195c-5.660156,5.650391-13.689941,6.780273-17.950195,2.530273
				c-4.25-4.259766-3.119629-12.290039,2.530273-17.950195C13.950195,2.640137,21.980469,1.509766,26.240234,5.759766z"/>
		</g>
		<g>
		</g>
	</g>
</g>
</svg>
