<?xml version="1.0" encoding="utf-8"?>
<!-- Generator: Adobe Illustrator 15.1.0, SVG Export Plug-In . SVG Version: 6.00 Build 0)  -->
<!DOCTYPE svg PUBLIC "-//W3C//DTD SVG 1.1//EN" "http://www.w3.org/Graphics/SVG/1.1/DTD/svg11.dtd">
<svg version="1.1" id="Layer_1" xmlns="http://www.w3.org/2000/svg" xmlns:xlink="http://www.w3.org/1999/xlink" x="0px" y="0px"
	 width="128px" height="128px" viewBox="0 0 128 128" enable-background="new 0 0 128 128" xml:space="preserve">
<g id="LINE_37_">
	<g id="XMLID_1_">
		<g>
			<rect x="118.88" y="39.77" width="5.78" height="5.78"/>
			<rect x="118.88" y="22.43" width="5.78" height="5.78"/>
			<rect x="118.88" y="5.09" width="5.78" height="5.78"/>
			<rect x="101.54" y="5.09" width="5.78" height="5.78"/>
			<rect x="84.2" y="5.09" width="5.78" height="5.78"/>
			<path d="M124.66,99.93v20.761h-5.78V99.93c0-49.189-39.88-89.06-89.07-89.06H3.27V5.09h26.54
				C82.19,5.09,124.66,47.55,124.66,99.93z"/>
			<polygon points="43.74,97.57 43.74,103.35 32.17,103.35 32.17,114.91 26.39,114.91 26.39,103.35 14.83,103.35 14.83,97.57 
				26.39,97.57 26.39,86.01 32.17,86.01 32.17,97.57 			"/>
		</g>
		<g>
		</g>
	</g>
</g>
</svg>
