<?xml version="1.0" encoding="utf-8"?>
<!-- Generator: Adobe Illustrator 15.1.0, SVG Export Plug-In . SVG Version: 6.00 Build 0)  -->
<!DOCTYPE svg PUBLIC "-//W3C//DTD SVG 1.1//EN" "http://www.w3.org/Graphics/SVG/1.1/DTD/svg11.dtd">
<svg version="1.1" id="Layer_1" xmlns="http://www.w3.org/2000/svg" xmlns:xlink="http://www.w3.org/1999/xlink" x="0px" y="0px"
	 width="128px" height="128px" viewBox="0 0 128 128" enable-background="new 0 0 128 128" xml:space="preserve">
<g id="ARC_3_">
	<g id="XMLID_1_">
		<g>
			<path d="M85.7,51.7v28.91H56.79V51.7H85.7z M79.92,74.82V57.48H62.57v17.34H79.92z"/>
			<path d="M119.11,24.27l-4.351,3.81C97.39,8.22,68.78,2.65,45.23,14.52v25.61H19.61c-14.37,28.521-2.9,63.29,25.62,77.66
				c0.83,0.42,1.68,0.82,2.53,1.2l-2.35,5.279c-2.13-0.949-4.21-2.01-6.23-3.189C8.85,103.37-1.39,64.42,16.32,34.09V11.22h22.86
				C65.51-4.15,99.04,1.33,119.11,24.27z M39.44,34.35V17H22.1v17.35H39.44z"/>
		</g>
		<g>
		</g>
	</g>
</g>
</svg>
