<?xml version="1.0" encoding="utf-8"?>
<!-- Generator: Adobe Illustrator 15.1.0, SVG Export Plug-In . SVG Version: 6.00 Build 0)  -->
<!DOCTYPE svg PUBLIC "-//W3C//DTD SVG 1.1//EN" "http://www.w3.org/Graphics/SVG/1.1/DTD/svg11.dtd">
<svg version="1.1" id="Layer_1" xmlns="http://www.w3.org/2000/svg" xmlns:xlink="http://www.w3.org/1999/xlink" x="0px" y="0px"
	 width="128px" height="128px" viewBox="0 0 128 128" enable-background="new 0 0 128 128" xml:space="preserve">
<g id="ARC_4_">
	<g id="XMLID_1_">
		<g>
			<path fill="#010101" d="M125,28.24h-20.49v28.97L98.72,63l5.79,5.79l-5.79,5.79l5.79,5.8l-5.79,5.79l5.79,5.79l-5.79,5.79
				l5.79,5.8l-5.79,5.79l5.79,5.79l-5.79,5.79v5.8H70.57l-5.791-5.8l5.791-5.79l-5.791-5.79l5.791-5.79l-5.791-5.8l5.791-5.79
				l-5.791-5.79l5.791-5.79l-5.791-5.8l5.791-5.79L64.78,63V28.24H44.29C50.11,13.69,63.31,3.39,78.85,1.3v15.36H90.44V1.3
				C105.97,3.39,119.18,13.69,125,28.24z"/>
			<path fill="#010101" d="M29.21,122.37v2.899H15.13l-2.89-2.899l2.89-2.89l-2.89-2.9l2.89-2.9l-2.89-2.89l2.89-2.9l-2.89-2.899
				l2.89-2.891L12.24,99.2l2.89-2.891l-2.89-2.899V76.03H1.99c2.91-7.28,9.52-12.42,17.28-13.47v7.68h5.8v-7.68
				c7.76,1.05,14.37,6.19,17.28,13.47H32.1V90.51l-2.89,2.9l2.89,2.899L29.21,99.2l2.89,2.899l-2.89,2.891l2.89,2.899l-2.89,2.9
				l2.89,2.89l-2.89,2.9l2.89,2.9L29.21,122.37z"/>
		</g>
		<g>
		</g>
	</g>
</g>
</svg>
