<?xml version="1.0" encoding="utf-8"?>
<!-- Generator: Adobe Illustrator 16.0.0, SVG Export Plug-In . SVG Version: 6.00 Build 0)  -->
<!DOCTYPE svg PUBLIC "-//W3C//DTD SVG 1.1//EN" "http://www.w3.org/Graphics/SVG/1.1/DTD/svg11.dtd">
<svg version="1.1" id="Layer_1" xmlns="http://www.w3.org/2000/svg" xmlns:xlink="http://www.w3.org/1999/xlink" x="0px" y="0px"
	 width="32px" height="32px" viewBox="0 0 32 32" enable-background="new 0 0 32 32" xml:space="preserve">
<g id="LINE_38_">
	<g id="XMLID_1_">
		<g>
			<path d="M22.030273,7.069824c0-1.32959-1.080078-2.409668-2.410156-2.409668h-0.480469V3.450195h0.480469
				c1.979492,0,3.580078,1.57959,3.620117,3.549805c0.040039-1.970215,1.639648-3.549805,3.620117-3.549805h0.479492v1.209961
				h-0.479492c-1.330078,0-2.410156,1.080078-2.410156,2.409668v6.52002v6.509766c0,1.34082,1.080078,2.419922,2.410156,2.419922
				h0.479492v1.200195h-0.479492c-1.980469,0-3.580078-1.580078-3.620117-3.549805
				c-0.040039,1.969727-1.640625,3.549805-3.620117,3.549805h-0.480469v-1.200195h0.480469
				c1.330078,0,2.410156-1.079102,2.410156-2.419922v-6.509766V7.069824z"/>
			<path d="M12.379883,25.650391v-3.200195c3.240234,0.439453,5.990234,2.580078,7.200195,5.620117h-4.790039v1.199219H7.549805
				v-1.199219H2.77002c1.209961-3.040039,3.959961-5.180664,7.200195-5.620117v3.200195H12.379883z"/>
			<path d="M12.859863,14.52002l-2.330078-5.689941L8,14.52002H12.859863z M18.379883,19.580078v0.25h-5.540039v-0.25
				c0.560059-0.030273,0.939941-0.129883,1.140137-0.310547c0.189941-0.169922,0.290039-0.389648,0.290039-0.639648
				c0-0.339844-0.140137-0.879883-0.410156-1.610352l-0.709961-1.779297H7.689941l-0.899902,2.099609
				c-0.240234,0.580078-0.350098,1.020508-0.350098,1.299805c0,0.230469,0.100098,0.430664,0.300293,0.610352
				c0.209961,0.169922,0.649902,0.280273,1.319824,0.330078v0.25H3.609863v-0.25c0.590332-0.110352,0.970215-0.25,1.140137-0.429688
				c0.359863-0.360352,0.75-1.09082,1.169922-2.19043l4.910156-11.370117h0.52002l4.609863,11.549805
				c0.390137,1,0.75,1.650391,1.070313,1.94043C17.349609,19.379883,17.799805,19.549805,18.379883,19.580078z"/>
		</g>
		<g>
		</g>
	</g>
</g>
</svg>
