<?xml version="1.0" encoding="utf-8"?>
<!-- Generator: Adobe Illustrator 15.1.0, SVG Export Plug-In . SVG Version: 6.00 Build 0)  -->
<!DOCTYPE svg PUBLIC "-//W3C//DTD SVG 1.1//EN" "http://www.w3.org/Graphics/SVG/1.1/DTD/svg11.dtd">
<svg version="1.1" id="Layer_1" xmlns="http://www.w3.org/2000/svg" xmlns:xlink="http://www.w3.org/1999/xlink" x="0px" y="0px"
	 width="128px" height="128px" viewBox="0 0 128 128" enable-background="new 0 0 128 128" xml:space="preserve">
<g id="ARC_1_">
	<g id="XMLID_1_">
		<g>
			<path d="M43.57,97.22v28.511H15.06V97.22H43.57z M37.87,120.02v-17.1H20.76v17.1H37.87z"/>
			<polygon points="91.63,34.5 91.63,57.3 85.93,63 91.63,68.71 85.93,74.41 91.63,80.11 85.93,85.81 91.63,91.51 85.93,97.22 
				91.63,102.92 85.93,108.62 91.63,114.32 85.93,120.02 85.93,125.73 58.23,125.73 52.53,120.02 58.23,114.32 52.53,108.62 
				58.23,102.92 52.53,97.22 58.23,91.51 52.53,85.81 58.23,80.11 52.53,74.41 58.23,68.71 52.53,63 52.53,57.3 52.53,34.5 			"/>
			<path d="M111.8,28.79H32.35C38.08,14.46,51.08,4.33,66.38,2.27v15.12h11.4V2.27C93.08,4.33,106.08,14.46,111.8,28.79z"/>
		</g>
		<g>
		</g>
	</g>
</g>
</svg>
