<?xml version="1.0" encoding="utf-8"?>
<!-- Generator: Adobe Illustrator 15.1.0, SVG Export Plug-In . SVG Version: 6.00 Build 0)  -->
<!DOCTYPE svg PUBLIC "-//W3C//DTD SVG 1.1//EN" "http://www.w3.org/Graphics/SVG/1.1/DTD/svg11.dtd">
<svg version="1.1" id="Layer_1" xmlns="http://www.w3.org/2000/svg" xmlns:xlink="http://www.w3.org/1999/xlink" x="0px" y="0px"
	 width="128px" height="128px" viewBox="0 0 128 128" enable-background="new 0 0 128 128" xml:space="preserve">
<g id="LINE_30_">
	<g id="XMLID_1_">
		<g>
			<rect x="47.59" y="93.51" fill="#010101" width="10.89" height="27.2"/>
			<polygon fill="#010101" points="96.97,1 70.91,22.77 69.98,23.54 85.37,33.57 48.91,66.9 65.12,34.88 51.61,28.58 53.74,22.77 
				61.72,1 			"/>
			<path fill="#010101" d="M118.33,22.77v103.38H96.57V95.1c0-3.96-3.21-7.17-7.17-7.17H43.88c-3.96,0-7.17,3.21-7.17,7.17v31.051
				H24.9L9.5,110.76V22.77h16.33v46.05c0,3.96,3.21,7.17,7.17,7.17h61.84c3.96,0,7.17-3.21,7.17-7.17V22.77H118.33z M114.25,35.01
				v-8.16h-8.16v8.16H114.25z"/>
		</g>
		<g>
		</g>
	</g>
</g>
</svg>
