<?xml version="1.0" encoding="utf-8"?>
<!-- Generator: Adobe Illustrator 16.0.0, SVG Export Plug-In . SVG Version: 6.00 Build 0)  -->
<!DOCTYPE svg PUBLIC "-//W3C//DTD SVG 1.1//EN" "http://www.w3.org/Graphics/SVG/1.1/DTD/svg11.dtd">
<svg version="1.1" id="Layer_1" xmlns="http://www.w3.org/2000/svg" xmlns:xlink="http://www.w3.org/1999/xlink" x="0px" y="0px"
	 width="32px" height="32px" viewBox="0 0 32 32" enable-background="new 0 0 32 32" xml:space="preserve">
<g id="LINE_22_">
	<g id="XMLID_1_">
		<g>
			<path d="M24.410156,24.450195h-4.790039v4.819336h-7.240234v-4.819336H7.589844
				c1.220215-3.040039,3.970215-5.180664,7.200195-5.620117v3.200195h2.419922v-3.200195
				C20.44043,19.269531,23.19043,21.410156,24.410156,24.450195z"/>
			<path d="M23.200195,15.959961v0.25h-5.530273v-0.25c0.560547-0.029785,0.94043-0.129883,1.129883-0.310059
				C19,15.47998,19.099609,15.259766,19.099609,15.009766c0-0.339844-0.139648-0.879883-0.419922-1.609863l-0.709961-1.779785
				H12.52002l-0.910156,2.100098c-0.22998,0.57959-0.350098,1.02002-0.350098,1.299805
				c0,0.22998,0.100098,0.430176,0.310059,0.609863c0.200195,0.169922,0.640137,0.280273,1.320313,0.330078v0.25H8.439941v-0.25
				c0.589844-0.109863,0.970215-0.25,1.140137-0.430176c0.350098-0.359863,0.739746-1.089844,1.169922-2.189941l4.910156-11.369629
				h0.52002l4.600098,11.549805c0.399414,1,0.759766,1.649902,1.080078,1.939941
				C22.179688,15.759766,22.629883,15.930176,23.200195,15.959961z M17.679688,10.899902l-2.32959-5.689941l-2.52002,5.689941
				H17.679688z"/>
		</g>
		<g>
		</g>
	</g>
</g>
</svg>
