<?xml version="1.0" encoding="utf-8"?>
<!-- Generator: Adobe Illustrator 15.1.0, SVG Export Plug-In . SVG Version: 6.00 Build 0)  -->
<!DOCTYPE svg PUBLIC "-//W3C//DTD SVG 1.1//EN" "http://www.w3.org/Graphics/SVG/1.1/DTD/svg11.dtd">
<svg version="1.1" id="Layer_1" xmlns="http://www.w3.org/2000/svg" xmlns:xlink="http://www.w3.org/1999/xlink" x="0px" y="0px"
	 width="128px" height="128px" viewBox="0 0 128 128" enable-background="new 0 0 128 128" xml:space="preserve">
<g id="LINE_50_">
	<g id="XMLID_1_">
		<g>
			<path fill="#010101" d="M114.39,39.11H98.98L81.46,53.12h11.48c2.55,0,5.02-0.86,7-2.45L114.39,39.11z M102.48,36.31h15.409
				l7-5.6v67.24L99.94,117.92c-1.98,1.58-4.45,2.45-7,2.45H77.26c-1.55,0-2.8-1.25-2.8-2.8V55.82c0-1.71,0.771-3.32,2.1-4.38
				l25.921-20.73V36.31z M91.27,109.16V81.14H80.06v28.021H91.27z"/>
			<path fill="#010101" d="M80.76,27.91H59.75L42.24,41.92h17.08c2.54,0,5.01-0.87,7-2.46L80.76,27.91z M63.25,25.1h21.01l7.01-5.6
				v13L73.06,47.06c-2.659,2.13-4.21,5.35-4.21,8.76v65.67l-2.529,2.029c-1.99,1.591-4.46,2.45-7,2.45H38.03
				c-1.55,0-2.8-1.25-2.8-2.8V44.61c0-1.7,0.77-3.31,2.1-4.38L63.25,19.5V25.1z M57.65,114.77V86.75H40.83v28.02H57.65z"/>
			<path fill="#010101" d="M52.74,11.09H31.73L14.22,25.1H31.3c2.54,0,5.01-0.86,7-2.45L52.74,11.09z M35.23,8.29h21.02l7-5.6v9.63
				L33.83,35.86c-2.66,2.12-4.2,5.34-4.2,8.75v75.76H10.01c-1.55,0-2.8-1.25-2.8-2.8V27.8c0-1.71,0.77-3.32,2.1-4.38L35.23,2.69
				V8.29z M24.02,109.16V81.14H12.81v28.021H24.02z"/>
		</g>
		<g>
		</g>
	</g>
</g>
</svg>
