<?xml version="1.0" encoding="utf-8"?>
<!-- Generator: Adobe Illustrator 15.1.0, SVG Export Plug-In . SVG Version: 6.00 Build 0)  -->
<!DOCTYPE svg PUBLIC "-//W3C//DTD SVG 1.1//EN" "http://www.w3.org/Graphics/SVG/1.1/DTD/svg11.dtd">
<svg version="1.1" id="Layer_1" xmlns="http://www.w3.org/2000/svg" xmlns:xlink="http://www.w3.org/1999/xlink" x="0px" y="0px"
	 width="128px" height="128px" viewBox="0 0 128 128" enable-background="new 0 0 128 128" xml:space="preserve">
<g id="LINE_52_">
	<g id="XMLID_1_">
		<g>
			<path d="M30.86,96.14v27.591H3.27V96.14H30.86z M25.34,118.21v-16.55H8.79v16.55H25.34z"/>
			<path d="M113.68,86.4v8.22L93.61,114.33l-5.48-5.48h-5.11v-7.8h-7.8v-7.81h-7.8v-7.8h-7.81V77.64h-7.8L28.4,54.23l-13.8,13.8
				c-5.88-13.72-3.92-29.55,5.13-41.42l10.35,10.34l7.8-7.8L27.54,18.8c11.87-9.05,27.7-11.01,41.42-5.13l-13.8,13.8l19.51,19.51
				v7.8h7.8v7.8h7.8v7.81h7.801v7.801h7.81v8.21H113.68z"/>
			<path d="M121.9,5.1v27.59H94.31V5.1H121.9z M116.38,27.17V10.62H99.83v16.55H116.38z"/>
		</g>
		<g>
		</g>
	</g>
</g>
</svg>
