<?xml version="1.0" encoding="utf-8"?>
<!-- Generator: Adobe Illustrator 15.1.0, SVG Export Plug-In . SVG Version: 6.00 Build 0)  -->
<!DOCTYPE svg PUBLIC "-//W3C//DTD SVG 1.1//EN" "http://www.w3.org/Graphics/SVG/1.1/DTD/svg11.dtd">
<svg version="1.1" id="Layer_1" xmlns="http://www.w3.org/2000/svg" xmlns:xlink="http://www.w3.org/1999/xlink" x="0px" y="0px"
	 width="128px" height="128px" viewBox="0 0 128 128" enable-background="new 0 0 128 128" xml:space="preserve">
<g id="LINE_69_">
	<g id="XMLID_1_">
		<g>
			<path d="M123.35,3.33v28.59H98.81L77.59,53.15V58h8.08l20.22,20.22l14.301-14.31c6.1,14.229,4.069,30.63-5.32,42.939
				l-10.72-10.72l-8.08,8.08l10.72,10.72c-12.31,9.391-28.71,11.42-42.94,5.32l14.31-14.3L53.9,81.69v-4.86L31.87,98.87v24.54H3.27
				V94.82h24.55L49.04,73.6h-3.23v-8.08h-8.08V57.43h-8.09v-8.09h-8.09v-5.29l-5.68-5.68l6.34-6.45H3.27V3.33h28.6v18.76l4.43-4.52
				h8.52v8.08h8.51v8.09h8.08v8.09h8.09v8.08h3.23L94.76,27.88V3.33H123.35z M117.64,26.21V9.05H100.48v17.16H117.64z M26.15,117.7
				v-17.16H8.99v17.16H26.15z M26.15,26.21V9.05H8.99v17.16H26.15z"/>
		</g>
		<g>
		</g>
	</g>
</g>
</svg>
