<?xml version="1.0" encoding="utf-8"?>
<!-- Generator: Adobe Illustrator 15.1.0, SVG Export Plug-In . SVG Version: 6.00 Build 0)  -->
<!DOCTYPE svg PUBLIC "-//W3C//DTD SVG 1.1//EN" "http://www.w3.org/Graphics/SVG/1.1/DTD/svg11.dtd">
<svg version="1.1" id="Layer_1" xmlns="http://www.w3.org/2000/svg" xmlns:xlink="http://www.w3.org/1999/xlink" x="0px" y="0px"
	 width="128px" height="128px" viewBox="0 0 128 128" enable-background="new 0 0 128 128" xml:space="preserve">
<g id="ARC_4_">
	<g id="XMLID_1_">
		<g>
			<path d="M28.39,95.22l1.38-1.37l-2.75-2.75V74.61h-9.73c2.76-6.91,9.03-11.8,16.4-12.791v7.291h5.5V61.82
				c7.38,0.99,13.64,5.88,16.41,12.791h-9.73V88.35l-2.75,2.75l2.75,2.75l-2.75,2.75l2.75,2.75l-2.75,2.75l2.75,2.75l-2.75,2.74
				l2.75,2.75l-2.75,2.75l2.75,2.75l-2.75,2.75v4.12H2.27V95.22H28.39z M24.27,117.22v-16.5H7.77v16.5H24.27z"/>
			<path d="M123.24,95.22v27.49H71.39l-5.5-5.49l5.5-5.5l-5.5-5.5l5.5-5.5l-5.5-5.5l5.5-5.489l-5.5-5.5l5.5-5.5l-5.5-5.5l5.5-5.5
				l-5.5-5.5V29.25H46.44C51.96,15.43,64.5,5.66,79.25,3.67v14.58h11V3.67c14.74,1.99,27.28,11.76,32.8,25.58H103.6v27.49l-5.5,5.49
				l5.5,5.5l-5.5,5.5l5.5,5.5l-5.5,5.5l5.5,5.5l-5.5,5.489H123.24z M117.74,117.22v-16.5h-16.5v16.5H117.74z"/>
		</g>
		<g>
		</g>
	</g>
</g>
</svg>
