<?xml version="1.0" encoding="utf-8"?>
<!-- Generator: Adobe Illustrator 15.1.0, SVG Export Plug-In . SVG Version: 6.00 Build 0)  -->
<!DOCTYPE svg PUBLIC "-//W3C//DTD SVG 1.1//EN" "http://www.w3.org/Graphics/SVG/1.1/DTD/svg11.dtd">
<svg version="1.1" id="Layer_1" xmlns="http://www.w3.org/2000/svg" xmlns:xlink="http://www.w3.org/1999/xlink" x="0px" y="0px"
	 width="128px" height="128px" viewBox="0 0 128 128" enable-background="new 0 0 128 128" xml:space="preserve">
<g id="LINE_3_">
	<g id="XMLID_1_">
		<g>
			<path d="M66.68,3.28c33.03,0,59.801,26.77,59.801,59.79c0,33.03-26.771,59.8-59.801,59.8H1.27v-5.96h65.41
				c29.73,0,53.83-24.101,53.83-53.84c0-29.73-24.1-53.83-53.83-53.83c-29.729,0-53.83,24.1-53.83,53.83c0,2.06,0.11,4.1,0.35,6.14
				l-5.92,0.68c-0.26-2.26-0.39-4.54-0.39-6.82C6.89,30.05,33.66,3.28,66.68,3.28z"/>
		</g>
		<g>
			
				<line fill="none" stroke="#FFFFFF" stroke-width="0.3685" stroke-linecap="round" stroke-linejoin="round" stroke-miterlimit="10" x1="1.27" y1="122.87" x2="66.68" y2="122.87"/>
			
				<path fill="none" stroke="#FFFFFF" stroke-width="0.3685" stroke-linecap="round" stroke-linejoin="round" stroke-miterlimit="10" d="
				M66.68,122.87c33.03,0,59.801-26.771,59.801-59.8c0-33.02-26.771-59.79-59.801-59.79c-33.02,0-59.79,26.77-59.79,59.79
				c0,2.28,0.13,4.56,0.39,6.82"/>
			
				<line fill="none" stroke="#FFFFFF" stroke-width="0.3685" stroke-linecap="round" stroke-linejoin="round" stroke-miterlimit="10" x1="1.27" y1="122.87" x2="1.27" y2="116.91"/>
			
				<line fill="none" stroke="#FFFFFF" stroke-width="0.3685" stroke-linecap="round" stroke-linejoin="round" stroke-miterlimit="10" x1="13.2" y1="69.21" x2="7.28" y2="69.89"/>
			
				<path fill="none" stroke="#FFFFFF" stroke-width="0.3685" stroke-linecap="round" stroke-linejoin="round" stroke-miterlimit="10" d="
				M66.68,116.91c29.73,0,53.83-24.101,53.83-53.84c0-29.73-24.1-53.83-53.83-53.83c-29.729,0-53.83,24.1-53.83,53.83
				c0,2.06,0.11,4.1,0.35,6.14"/>
			
				<line fill="none" stroke="#FFFFFF" stroke-width="0.3685" stroke-linecap="round" stroke-linejoin="round" stroke-miterlimit="10" x1="1.27" y1="116.91" x2="66.68" y2="116.91"/>
		</g>
	</g>
</g>
</svg>
