<?xml version="1.0" encoding="utf-8"?>
<!-- Generator: Adobe Illustrator 15.1.0, SVG Export Plug-In . SVG Version: 6.00 Build 0)  -->
<!DOCTYPE svg PUBLIC "-//W3C//DTD SVG 1.1//EN" "http://www.w3.org/Graphics/SVG/1.1/DTD/svg11.dtd">
<svg version="1.1" id="Layer_1" xmlns="http://www.w3.org/2000/svg" xmlns:xlink="http://www.w3.org/1999/xlink" x="0px" y="0px"
	 width="128px" height="128px" viewBox="0 0 128 128" enable-background="new 0 0 128 128" xml:space="preserve">
<g id="LINE_17_">
	<g id="XMLID_1_">
		<g>
			<path d="M121.85,94.43v27.54H94.31V94.43H121.85z M116.34,116.46V99.94H99.82v16.52H116.34z"/>
			<path d="M120.04,43.6c0.229,2.89,0.24,5.8-0.12,8.66c-0.37,2.86-1.1,5.67-2.08,8.39c-0.979,2.72-2.2,5.36-3.76,7.791
				c-1.55,2.43-3.44,4.659-5.67,6.5c-2.22,1.84-4.79,3.29-7.521,4.229c-2.72,0.95-5.609,1.38-8.5,1.48
				c-2.89,0.09-5.779-0.16-8.62-0.71c-2.84-0.551-5.609-1.4-8.25-2.561c-2.64-1.17-5.149-2.64-7.47-4.38
				c-2.3-1.73-4.42-3.73-6.35-5.87c-1.93-2.14-3.69-4.44-5.79-6.43c-2.09-1.99-4.52-3.67-7.13-4.9c-2.6-1.23-5.38-2.01-8.26-2.42
				c-2.87-0.4-5.83-0.43-8.62,0.26c-2.8,0.7-5.41,2.12-7.57,4.03s-3.86,4.3-5.3,6.82c-1.44,2.52-2.61,5.149-3.53,7.88
				c-0.91,2.74-1.56,5.58-2.04,8.43c-0.48,2.851-0.79,5.72-0.98,8.601c-0.19,2.88-0.25,5.77-0.23,8.659
				c0.02,2.891,0.14,5.771,0.32,8.66c0.18,2.88,0.43,5.761,0.74,8.63c0.31,2.87,0.67,5.74,1.14,9.381H8.94
				C5.27,99.02,6.19,79.75,11.69,66.89c5.51-12.85,13.77-19.27,24.79-19.27c11.01,0,20.19,4.59,27.54,13.77
				c7.34,9.18,16.52,13.77,27.54,13.77c11.011,0,18.36-6.43,22.03-19.28c3.4-11.92-1.09-29.37-13.47-52.34l6.229-0.02
				c1.23,2.36,2.41,4.73,3.551,7.13c1.239,2.61,2.42,5.25,3.51,7.93c1.09,2.67,2.1,5.38,3,8.12c0.899,2.75,1.689,5.53,2.32,8.35
				C119.35,37.87,119.81,40.72,120.04,43.6z"/>
			<path d="M33.73,11.81v27.54H6.19V11.81H33.73z M28.22,33.85V17.32H11.69v16.53H28.22z"/>
		</g>
		<g>
		</g>
	</g>
</g>
</svg>
