<?xml version="1.0" encoding="utf-8"?>
<!-- Generator: Adobe Illustrator 15.1.0, SVG Export Plug-In . SVG Version: 6.00 Build 0)  -->
<!DOCTYPE svg PUBLIC "-//W3C//DTD SVG 1.1//EN" "http://www.w3.org/Graphics/SVG/1.1/DTD/svg11.dtd">
<svg version="1.1" id="Layer_1" xmlns="http://www.w3.org/2000/svg" xmlns:xlink="http://www.w3.org/1999/xlink" x="0px" y="0px"
	 width="128px" height="128px" viewBox="0 0 128 128" enable-background="new 0 0 128 128" xml:space="preserve">
<g id="LINE_23_">
	<g id="XMLID_1_">
		<g>
			<polygon points="110,79.99 110,96.01 88.63,96.01 88.63,117.38 72.6,117.38 72.6,96.01 51.23,96.01 51.23,79.99 72.6,79.99 
				72.6,58.62 88.63,58.62 88.63,79.99 			"/>
			<path d="M104.66,5.19H110c0,24.93-13.36,38.29-40.07,40.07c-4.76,0.32-9.209,1.4-13.35,3.25v10.11H42.87
				c-11.48,12.56-19.38,33.93-23.69,64.11l-5.29-0.761c0.59-4.149,1.27-8.29,2.06-12.41c0.79-4.119,1.69-8.22,2.73-12.279
				c1.04-4.061,2.22-8.09,3.57-12.061c1.36-3.97,2.9-7.88,4.68-11.68c1.78-3.79,3.79-7.48,6.12-10.97c0.9-1.35,1.85-2.67,2.84-3.95
				h-6.03V31.9h26.72v10.81c2.01-0.77,4.08-1.39,6.19-1.82c4.1-0.85,8.32-1,12.47-1.58c4.16-0.57,8.26-1.57,12.1-3.27
				s7.42-4.11,10.15-7.27c2.72-3.17,4.58-7.08,5.68-11.13C104.28,13.59,104.62,9.4,104.66,5.19z M51.23,53.27V37.25H35.21v16.02
				H51.23z"/>
		</g>
		<g>
		</g>
	</g>
</g>
</svg>
