<?xml version="1.0" encoding="utf-8"?>
<!-- Generator: Adobe Illustrator 15.1.0, SVG Export Plug-In . SVG Version: 6.00 Build 0)  -->
<!DOCTYPE svg PUBLIC "-//W3C//DTD SVG 1.1//EN" "http://www.w3.org/Graphics/SVG/1.1/DTD/svg11.dtd">
<svg version="1.1" id="Layer_1" xmlns="http://www.w3.org/2000/svg" xmlns:xlink="http://www.w3.org/1999/xlink" x="0px" y="0px"
	 width="128px" height="128px" viewBox="0 0 128 128" enable-background="new 0 0 128 128" xml:space="preserve">
<g id="LINE_22_">
	<g id="XMLID_1_">
		<g>
			<path d="M78.62,49.53v29.69h-12.2C56.9,99.45,41.16,116.09,21.5,126.73H7.36c22.75-8.811,41.44-25.74,52.45-47.511H48.93V49.53
				h21.44c9.36-21.44,33.81-31.85,55.75-23.75v6.39c-18.4-8.03-39.89-0.45-49.17,17.36H78.62z M72.68,73.28V55.47H54.87v17.81H72.68
				z"/>
			<polygon points="47.19,39.39 38.79,47.79 26.91,35.91 35.31,27.52 			"/>
			<polygon points="34.59,1.6 22,14.2 29.37,21.58 20.98,29.97 13.6,22.6 1,35.19 1,1.6 			"/>
		</g>
		<g>
			
				<line fill="none" stroke="#000000" stroke-width="0.5" stroke-linecap="round" stroke-linejoin="round" x1="7.36" y1="126.73" x2="21.5" y2="126.73"/>
			
				<line fill="none" stroke="#000000" stroke-width="0.5" stroke-linecap="round" stroke-linejoin="round" x1="126.12" y1="25.78" x2="126.12" y2="32.17"/>
			
				<line fill="none" stroke="#000000" stroke-width="0.5" stroke-linecap="round" stroke-linejoin="round" x1="70.37" y1="49.53" x2="48.93" y2="49.53"/>
			
				<line fill="none" stroke="#000000" stroke-width="0.5" stroke-linecap="round" stroke-linejoin="round" x1="66.42" y1="79.22" x2="78.62" y2="79.22"/>
			<path fill="none" stroke="#000000" stroke-width="0.5" stroke-linecap="round" stroke-linejoin="round" d="M126.12,32.17
				c-18.4-8.03-39.89-0.45-49.17,17.36"/>
			<path fill="none" stroke="#000000" stroke-width="0.5" stroke-linecap="round" stroke-linejoin="round" d="M66.42,79.22
				C56.9,99.45,41.16,116.09,21.5,126.73"/>
			<path fill="none" stroke="#000000" stroke-width="0.5" stroke-linecap="round" stroke-linejoin="round" d="M126.12,25.78
				c-21.94-8.1-46.39,2.31-55.75,23.75"/>
			<path fill="none" stroke="#000000" stroke-width="0.5" stroke-linecap="round" stroke-linejoin="round" d="M59.81,79.22
				c-11.01,21.771-29.7,38.7-52.45,47.511"/>
			
				<line fill="none" stroke="#000000" stroke-width="0.5" stroke-linecap="round" stroke-linejoin="round" x1="78.62" y1="49.53" x2="76.95" y2="49.53"/>
			
				<line fill="none" stroke="#000000" stroke-width="0.5" stroke-linecap="round" stroke-linejoin="round" x1="1" y1="1.6" x2="1" y2="35.19"/>
			
				<line fill="none" stroke="#000000" stroke-width="0.5" stroke-linecap="round" stroke-linejoin="round" x1="1" y1="35.19" x2="13.6" y2="22.6"/>
			
				<line fill="none" stroke="#000000" stroke-width="0.5" stroke-linecap="round" stroke-linejoin="round" x1="13.6" y1="22.6" x2="20.98" y2="29.97"/>
			
				<line fill="none" stroke="#000000" stroke-width="0.5" stroke-linecap="round" stroke-linejoin="round" x1="20.98" y1="29.97" x2="29.37" y2="21.58"/>
			
				<line fill="none" stroke="#000000" stroke-width="0.5" stroke-linecap="round" stroke-linejoin="round" x1="22" y1="14.2" x2="29.37" y2="21.58"/>
			
				<line fill="none" stroke="#000000" stroke-width="0.5" stroke-linecap="round" stroke-linejoin="round" x1="22" y1="14.2" x2="34.59" y2="1.6"/>
			
				<line fill="none" stroke="#000000" stroke-width="0.5" stroke-linecap="round" stroke-linejoin="round" x1="34.59" y1="1.6" x2="1" y2="1.6"/>
			
				<line fill="none" stroke="#000000" stroke-width="0.5" stroke-linecap="round" stroke-linejoin="round" x1="26.91" y1="35.91" x2="35.31" y2="27.52"/>
			
				<line fill="none" stroke="#000000" stroke-width="0.5" stroke-linecap="round" stroke-linejoin="round" x1="35.31" y1="27.52" x2="47.19" y2="39.39"/>
			
				<line fill="none" stroke="#000000" stroke-width="0.5" stroke-linecap="round" stroke-linejoin="round" x1="38.79" y1="47.79" x2="47.19" y2="39.39"/>
			
				<line fill="none" stroke="#000000" stroke-width="0.5" stroke-linecap="round" stroke-linejoin="round" x1="26.91" y1="35.91" x2="38.79" y2="47.79"/>
			
				<line fill="none" stroke="#000000" stroke-width="0.5" stroke-linecap="round" stroke-linejoin="round" x1="48.93" y1="49.53" x2="48.93" y2="79.22"/>
			
				<line fill="none" stroke="#000000" stroke-width="0.5" stroke-linecap="round" stroke-linejoin="round" x1="48.93" y1="79.22" x2="59.81" y2="79.22"/>
			
				<line fill="none" stroke="#000000" stroke-width="0.5" stroke-linecap="round" stroke-linejoin="round" x1="78.62" y1="79.22" x2="78.62" y2="49.53"/>
			
				<line fill="none" stroke="#000000" stroke-width="0.5" stroke-linecap="round" stroke-linejoin="round" x1="54.87" y1="55.47" x2="72.68" y2="55.47"/>
			
				<line fill="none" stroke="#000000" stroke-width="0.5" stroke-linecap="round" stroke-linejoin="round" x1="72.68" y1="55.47" x2="72.68" y2="73.28"/>
			
				<line fill="none" stroke="#000000" stroke-width="0.5" stroke-linecap="round" stroke-linejoin="round" x1="72.68" y1="73.28" x2="54.87" y2="73.28"/>
			
				<line fill="none" stroke="#000000" stroke-width="0.5" stroke-linecap="round" stroke-linejoin="round" x1="54.87" y1="73.28" x2="54.87" y2="55.47"/>
		</g>
	</g>
</g>
</svg>
