<?xml version="1.0" encoding="utf-8"?>
<!-- Generator: Adobe Illustrator 15.1.0, SVG Export Plug-In . SVG Version: 6.00 Build 0)  -->
<!DOCTYPE svg PUBLIC "-//W3C//DTD SVG 1.1//EN" "http://www.w3.org/Graphics/SVG/1.1/DTD/svg11.dtd">
<svg version="1.1" id="Layer_1" xmlns="http://www.w3.org/2000/svg" xmlns:xlink="http://www.w3.org/1999/xlink" x="0px" y="0px"
	 width="128px" height="128px" viewBox="0 0 128 128" enable-background="new 0 0 128 128" xml:space="preserve">
<g id="LINE_15_">
	<g id="XMLID_1_">
		<g>
			<path d="M108.18,2.33h5.61c0,26.18-14.021,40.2-42.06,42.07c-5.011,0.33-9.681,1.47-14.03,3.41v10.61H43.31
				C31.26,71.61,22.97,94.05,18.44,125.73l-5.55-0.801c0.62-4.359,1.34-8.699,2.17-13.029c0.83-4.32,1.77-8.62,2.86-12.891
				c1.09-4.26,2.33-8.49,3.75-12.66c1.43-4.17,3.04-8.27,4.91-12.26c1.87-3.979,3.98-7.85,6.43-11.52c0.94-1.42,1.93-2.8,2.98-4.15
				h-6.33V30.38H57.7v11.34c2.12-0.81,4.3-1.46,6.51-1.91c4.3-0.89,8.73-1.05,13.09-1.65c4.37-0.61,8.67-1.65,12.7-3.44
				c4.03-1.79,7.79-4.32,10.65-7.64c2.859-3.32,4.819-7.43,5.97-11.68C107.78,11.15,108.15,6.75,108.18,2.33z M52.09,52.81V35.99
				H35.27v16.82H52.09z"/>
			<rect x="52.09" y="80.86" width="61.7" height="16.819"/>
		</g>
		<g>
		</g>
	</g>
</g>
</svg>
