<?xml version="1.0" encoding="utf-8"?>
<!-- Generator: Adobe Illustrator 15.1.0, SVG Export Plug-In . SVG Version: 6.00 Build 0)  -->
<!DOCTYPE svg PUBLIC "-//W3C//DTD SVG 1.1//EN" "http://www.w3.org/Graphics/SVG/1.1/DTD/svg11.dtd">
<svg version="1.1" id="Layer_1" xmlns="http://www.w3.org/2000/svg" xmlns:xlink="http://www.w3.org/1999/xlink" x="0px" y="0px"
	 width="128px" height="128px" viewBox="0 0 128 128" enable-background="new 0 0 128 128" xml:space="preserve">
<g id="LINE_29_">
	<g id="XMLID_1_">
		<g>
			<path d="M118.87,43.87c0.229,2.84,0.24,5.7-0.12,8.52c-0.36,2.82-1.08,5.58-2.04,8.26c-0.1,0.27-0.19,0.53-0.29,0.79l-4.67-3.04
				c0.27-0.79,0.53-1.6,0.77-2.45c3.351-11.73-1.069-28.9-13.26-51.51l6.13-0.02c1.21,2.31,2.38,4.65,3.5,7.01
				c1.221,2.57,2.38,5.17,3.45,7.8c1.08,2.64,2.07,5.3,2.96,8c0.891,2.7,1.66,5.45,2.28,8.22
				C118.19,38.23,118.64,41.03,118.87,43.87z"/>
			<polygon points="114.77,67.26 107.1,74.93 114.77,82.6 110.93,86.43 103.27,78.76 95.6,86.43 91.76,82.6 99.43,74.93 
				91.76,67.26 95.6,63.43 103.27,71.09 110.93,63.43 			"/>
			<path d="M90.83,74.93l-5.12,5.12c-0.85-0.109-1.7-0.24-2.54-0.41c-2.79-0.54-5.53-1.38-8.13-2.52
				c-2.6-1.15-5.07-2.601-7.34-4.311c-2.28-1.71-4.35-3.67-6.26-5.779c-1.9-2.11-3.63-4.37-5.69-6.33
				c-2.06-1.95-4.46-3.61-7.02-4.82c-2.16-1.02-4.43-1.73-6.78-2.17l5.02-4.35c6.38,2.02,11.96,6.03,16.75,12.01
				C70.95,70.41,79.99,74.93,90.83,74.93z"/>
			<polygon points="38.86,45.57 31.19,53.24 38.86,60.91 35.03,64.74 27.36,57.08 19.69,64.74 15.86,60.91 23.53,53.24 15.86,45.57 
				19.69,41.74 27.36,49.41 35.03,41.74 			"/>
			<path d="M12.76,65.57l3.93,4.62c-0.26,0.659-0.5,1.329-0.72,2c-0.9,2.689-1.54,5.489-2.01,8.29c-0.47,2.81-0.78,5.63-0.97,8.47
				c-0.18,2.83-0.25,5.68-0.23,8.53c0.03,2.84,0.14,5.68,0.32,8.52c0.18,2.83,0.43,5.67,0.73,8.5c0.3,2.82,0.66,5.64,1.12,9.23H9.51
				C5.89,98.42,6.8,79.45,12.22,66.8C12.4,66.38,12.58,65.97,12.76,65.57z"/>
		</g>
		<g>
		</g>
	</g>
</g>
</svg>
