<?xml version="1.0" encoding="utf-8"?>
<!-- Generator: Adobe Illustrator 15.1.0, SVG Export Plug-In . SVG Version: 6.00 Build 0)  -->
<!DOCTYPE svg PUBLIC "-//W3C//DTD SVG 1.1//EN" "http://www.w3.org/Graphics/SVG/1.1/DTD/svg11.dtd">
<svg version="1.1" id="Layer_1" xmlns="http://www.w3.org/2000/svg" xmlns:xlink="http://www.w3.org/1999/xlink" x="0px" y="0px"
	 width="128px" height="128px" viewBox="0 0 128 128" enable-background="new 0 0 128 128" xml:space="preserve">
<g id="ARC_3_">
	<g id="XMLID_1_">
		<g>
			<path d="M68.09,92.43c0.2,0.58,0.21,1.53,0.04,2.84l34.18-50.339c-0.979-1.44-1.92-2.66-2.819-3.66L65.1,91.03
				c0.801-0.221,1.44-0.21,1.931,0.029C67.52,91.3,67.87,91.76,68.09,92.43z M91.41,35.5c-1.521-0.52-2.95-0.84-4.29-0.97
				L52.83,84.42c0.6-0.4,1.11-0.67,1.54-0.81c1.54-0.511,2.57-0.021,3.06,1.479l0.13,0.601L91.41,35.5z M47.23,88.38l54.09-79.7
				c1.01-2.01,3.16-3.18,5.39-2.95c6.771,0.68,11.91,4.17,15.43,10.46c1,1.79,0.91,4-0.25,5.7L67.74,101.91l-1.09,0.729L65.14,100.4
				c1-2.69,1.33-4.551,0.99-5.58c-0.14-0.431-0.35-0.7-0.64-0.82s-0.67-0.1-1.15,0.06c-1.01,0.33-2.53,1.521-4.58,3.57
				c1.86-3.57,2.5-6.229,1.92-8c-0.29-0.88-0.72-1.47-1.3-1.77c-0.57-0.311-1.31-0.311-2.21-0.011c-0.94,0.311-2.58,1.801-4.9,4.471
				c1.77-2.301,2.46-4.051,2.07-5.24c-0.1-0.3-0.29-0.5-0.56-0.59s-0.64-0.061-1.11,0.09c-1.64,0.54-3.25,1.51-4.84,2.89
				L47.23,88.38z M97.49,39.24c-0.95-1.03-2.09-1.86-3.391-2.48L60.11,86.11c2.02-0.25,3.29,0.43,3.82,2.029L97.49,39.24z
				 M94.41,23.79c6.54,1.11,11.54,4.64,15,10.6l8.56-12.45l-0.029-0.02c1.35-1.97,1.26-4.6-0.23-6.47
				c-2.39-2.99-5.26-5.01-8.64-6.08c-2.271-0.72-4.75,0.12-6.11,2.08l0.021,0.01L94.41,23.79z"/>
			<path d="M48.95,111.17L65.14,100.4l1.511,2.239L38,121.98c-3.28-0.931-5.25-1.801-7.18-2.721c-1.92-0.92-3.81-1.899-5.66-2.939
				c-1.85-1.04-3.66-2.15-5.39-3.38c-1.73-1.23-3.38-2.57-4.93-4.03c-1.54-1.46-2.98-3.03-4.24-4.73c-1.27-1.71-2.37-3.54-3.26-5.46
				c-0.89-1.93-1.58-3.939-2.13-5.989c-0.55-2.051-0.98-4.141-1.27-6.24c-0.3-2.101-0.46-4.21-0.59-6.33s-0.23-4.25-0.08-6.36
				c0.15-2.12,0.56-4.22,1.26-6.22c0.71-2,1.73-3.89,2.93-5.64c1.2-1.76,2.59-3.37,4.11-4.84c1.52-1.48,3.17-2.83,4.9-4.06
				c1.72-1.24,3.52-2.38,5.37-3.42c1.84-1.05,3.73-2,5.66-2.9c1.92-0.9,3.89-1.75,5.86-2.52c1.97-0.77,3.95-1.46,5.93-2.26
				c1.97-0.79,3.95-1.68,5.81-2.68c1.85-1,3.59-2.1,5.25-3.47c1.67-1.36,3.27-2.98,4.05-4.91c0.77-1.93,0.72-4.16,0.16-6.22
				c-0.55-2.06-1.61-3.95-2.91-5.63c-1.31-1.69-2.87-3.19-4.74-4.15c-1.87-0.96-4.04-1.39-6.17-1.5c-2.13-0.12-4.23,0.08-6.31,0.45
				c-2.08,0.37-4.16,0.91-6.18,1.56c-2.03,0.65-4,1.4-5.95,2.23c-1.96,0.83-3.9,1.73-5.78,2.67c-0.86-1.66-1.67-3.28-2.44-4.86
				c21.75-10.87,36.24-9.96,43.49,2.72c7.25,12.68,0.91,22.65-19.02,29.9C18.61,55.3,8.65,64.36,8.65,75.23
				c0,10.869,1.81,19.02,5.43,24.46c3.63,5.43,9.55,10.09,17.76,13.949c1.49,0.7,4.04,1.61,7.67,2.73l7.43-27.561l0.29-0.43
				l1.6,1.09l-4.24,18.891L48.95,111.17z"/>
		</g>
		<g>
		</g>
	</g>
</g>
</svg>
