<?xml version="1.0" encoding="utf-8"?>
<!-- Generator: Adobe Illustrator 15.1.0, SVG Export Plug-In . SVG Version: 6.00 Build 0)  -->
<!DOCTYPE svg PUBLIC "-//W3C//DTD SVG 1.1//EN" "http://www.w3.org/Graphics/SVG/1.1/DTD/svg11.dtd">
<svg version="1.1" id="Layer_1" xmlns="http://www.w3.org/2000/svg" xmlns:xlink="http://www.w3.org/1999/xlink" x="0px" y="0px"
	 width="128px" height="128px" viewBox="0 0 128 128" enable-background="new 0 0 128 128" xml:space="preserve">
<g id="ARC_12_">
	<g id="XMLID_1_">
		<g>
			<path d="M111.91,34.65l-3.38,10.11l-6.37-1.99L16.87,16.12L20.25,6l30.37,9.5C53.26,7.07,62.22,2.37,70.65,5
				c8.43,2.64,13.13,11.61,10.5,20.04L111.91,34.65z M76.06,23.44c1.761-5.61-1.38-11.59-7-13.35c-5.62-1.76-11.6,1.38-13.35,7
				L76.06,23.44z"/>
			<path d="M102.16,42.77v63.96c0,8.84-7.16,16-15.99,16H38.2c-8.84,0-15.99-7.16-15.99-16V42.77H102.16z M91.5,106.73v-53.3
				c0-2.94-2.39-5.33-5.33-5.33c-2.939,0-5.33,2.39-5.33,5.33v53.3c0,2.949,2.391,5.329,5.33,5.329
				C89.11,112.06,91.5,109.68,91.5,106.73z M67.51,106.73v-53.3c0-2.94-2.38-5.33-5.33-5.33c-2.94,0-5.33,2.39-5.33,5.33v53.3
				c0,2.949,2.39,5.329,5.33,5.329C65.13,112.06,67.51,109.68,67.51,106.73z M43.53,106.73v-53.3c0-2.94-2.39-5.33-5.33-5.33
				c-2.95,0-5.33,2.39-5.33,5.33v53.3c0,2.949,2.38,5.329,5.33,5.329C41.14,112.06,43.53,109.68,43.53,106.73z"/>
		</g>
		<g>
		</g>
	</g>
</g>
</svg>
