<?xml version="1.0" encoding="utf-8"?>
<!-- Generator: Adobe Illustrator 16.0.0, SVG Export Plug-In . SVG Version: 6.00 Build 0)  -->
<!DOCTYPE svg PUBLIC "-//W3C//DTD SVG 1.1//EN" "http://www.w3.org/Graphics/SVG/1.1/DTD/svg11.dtd">
<svg version="1.1" id="Layer_1" xmlns="http://www.w3.org/2000/svg" xmlns:xlink="http://www.w3.org/1999/xlink" x="0px" y="0px"
	 width="32px" height="32px" viewBox="0 0 32 32" enable-background="new 0 0 32 32" xml:space="preserve">
<g id="LINE_21_">
	<g id="XMLID_1_">
		<g>
			<path d="M26.259766,5.790039c0-0.25-0.080078-0.439941-0.219727-0.589844
				c-0.139648-0.140137-0.339844-0.240234-0.610352-0.280273c-0.129883-0.009766-0.519531-0.02002-1.169922-0.02002H23v1.810059
				h1.19043c0.769531,0,1.259766-0.029785,1.449219-0.089844c0.19043-0.060059,0.34082-0.160156,0.450195-0.300293
				C26.200195,6.180176,26.259766,6,26.259766,5.790039z M27.379883,9.700195l0.929688,1.469727h-1.689453l-1.100586-1.72998
				c-0.429688-0.549805-0.709961-0.890137-0.869141-1.029785C24.5,8.27002,24.330078,8.169922,24.160156,8.120117
				c-0.179688-0.060059-0.450195-0.080078-0.830078-0.080078H23v3.129883h-1.450195V3.569824H24.75
				c0.799805,0,1.389648,0.070313,1.75,0.209961c0.370117,0.130371,0.660156,0.380371,0.879883,0.72998
				c0.209961,0.350098,0.320313,0.75,0.320313,1.200195c0,0.580078-0.150391,1.049805-0.469727,1.419922
				c-0.320313,0.379883-0.790039,0.610352-1.420898,0.709961c0.310547,0.189941,0.560547,0.400391,0.760742,0.630371
				C26.769531,8.700195,27.040039,9.109863,27.379883,9.700195z"/>
			<polygon points="12,6.350098 19.620117,6.350098 19.620117,7.549805 12.959961,7.549805 11.649902,13.040039 14.529785,13.72998 
				9.890137,17.589844 7.430176,12.040039 10.470215,12.759766 			"/>
			<path d="M5.830078,17.030273c6.850098-0.090332,12.490234,5.389648,12.580078,12.239258l-1.200195,0.020508
				c-0.089844-6.19043-5.180176-11.129883-11.359863-11.049805C5.02002,18.25,4.189941,18.360352,3.390137,18.549805
				l-0.280273-1.169922C4,17.160156,4.910156,17.049805,5.830078,17.030273z"/>
		</g>
		<g>
		</g>
	</g>
</g>
</svg>
