<?xml version="1.0" encoding="utf-8"?>
<!-- Generator: Adobe Illustrator 15.1.0, SVG Export Plug-In . SVG Version: 6.00 Build 0)  -->
<!DOCTYPE svg PUBLIC "-//W3C//DTD SVG 1.1//EN" "http://www.w3.org/Graphics/SVG/1.1/DTD/svg11.dtd">
<svg version="1.1" id="Layer_1" xmlns="http://www.w3.org/2000/svg" xmlns:xlink="http://www.w3.org/1999/xlink" x="0px" y="0px"
	 width="128px" height="128px" viewBox="0 0 128 128" enable-background="new 0 0 128 128" xml:space="preserve">
<g id="LINE_17_">
	<g id="XMLID_1_">
		<g>
			<polygon fill="#010101" points="124.49,2.61 124.49,8.14 8.32,8.14 8.32,124.31 2.79,124.31 2.79,2.61 			"/>
			<path fill="#010101" d="M107.9,72.85c5.5,0,9.97,4.46,9.97,9.971c0,5.51-4.47,9.97-9.97,9.97c-5.511,0-9.98-4.46-9.98-9.97
				C97.92,77.31,102.39,72.85,107.9,72.85z M114.08,82.82c0-3.41-2.771-6.181-6.18-6.181c-3.42,0-6.19,2.771-6.19,6.181
				c0,3.42,2.771,6.189,6.19,6.189C111.31,89.01,114.08,86.24,114.08,82.82z"/>
			<rect x="69.17" y="96.65" fill="#010101" width="33.19" height="16.6"/>
			<path fill="#010101" d="M102.36,13.67l16.89,22.13h-14.11c-2.31,36.3-32.8,64.34-69.16,63.62v13.83l-22.13-16.6L35.98,79.76
				v14.12c33.31,0.73,61.31-24.84,63.61-58.08H85.77L102.36,13.67z"/>
		</g>
		<g>
		</g>
	</g>
</g>
</svg>
