<?xml version="1.0" encoding="utf-8"?>
<!-- Generator: Adobe Illustrator 15.1.0, SVG Export Plug-In . SVG Version: 6.00 Build 0)  -->
<!DOCTYPE svg PUBLIC "-//W3C//DTD SVG 1.1//EN" "http://www.w3.org/Graphics/SVG/1.1/DTD/svg11.dtd">
<svg version="1.1" id="Layer_1" xmlns="http://www.w3.org/2000/svg" xmlns:xlink="http://www.w3.org/1999/xlink" x="0px" y="0px"
	 width="128px" height="128px" viewBox="0 0 128 128" enable-background="new 0 0 128 128" xml:space="preserve">
<g id="LINE_16_">
	<g id="XMLID_1_">
		<g>
			<path fill="#010101" d="M118.11,64.2L95.78,80.96V67H69.18c-0.52,0.93-1.29,1.7-2.22,2.22c-2.77,1.54-6.27,0.55-7.81-2.22
				c-1.54-2.77-0.55-6.27,2.22-7.81s6.27-0.55,7.81,2.22H95.78V47.16L118.11,64.2z"/>
			<path fill="#010101" d="M87.57,46.21l4.3,6.83h-7.82L78.95,45c-1.95-2.52-3.28-4.11-4-4.77c-0.72-0.65-1.48-1.1-2.28-1.34
				c-0.81-0.25-2.08-0.37-3.83-0.37H67.3v14.52h-6.7V17.86h14.8c3.72,0,6.43,0.32,8.109,0.95c1.69,0.63,3.04,1.76,4.05,3.39
				c1.021,1.62,1.521,3.48,1.521,5.57c0,2.65-0.73,4.84-2.19,6.57c-1.47,1.73-3.649,2.82-6.569,3.26c1.42,0.89,2.59,1.87,3.52,2.94
				C84.76,41.6,86.01,43.49,87.57,46.21z M81.63,30.58c0.5-0.66,0.75-1.49,0.75-2.48c0-1.11-0.33-2.01-0.99-2.69
				c-0.67-0.68-1.6-1.11-2.81-1.29C77.97,24.04,76.16,24,73.13,24H67.3v8.38h5.53c3.58,0,5.81-0.14,6.7-0.41
				C80.42,31.7,81.12,31.24,81.63,30.58z"/>
			<path fill="#010101" d="M64.17,2.4c34.13,0,61.8,27.67,61.8,61.8c0,34.14-27.67,61.81-61.8,61.81
				c-34.14,0-61.81-27.67-61.81-61.81C2.36,30.07,30.03,2.4,64.17,2.4z M120.39,64.2c0-31.05-25.17-56.22-56.22-56.22
				C33.11,7.98,7.94,33.15,7.94,64.2c0,31.06,25.17,56.229,56.23,56.229C95.22,120.43,120.39,95.26,120.39,64.2z"/>
		</g>
		<g>
		</g>
	</g>
</g>
</svg>
