<?xml version="1.0" encoding="utf-8"?>
<!-- Generator: Adobe Illustrator 15.1.0, SVG Export Plug-In . SVG Version: 6.00 Build 0)  -->
<!DOCTYPE svg PUBLIC "-//W3C//DTD SVG 1.1//EN" "http://www.w3.org/Graphics/SVG/1.1/DTD/svg11.dtd">
<svg version="1.1" id="Layer_1" xmlns="http://www.w3.org/2000/svg" xmlns:xlink="http://www.w3.org/1999/xlink" x="0px" y="0px"
	 width="128px" height="128px" viewBox="0 0 128 128" enable-background="new 0 0 128 128" xml:space="preserve">
<g id="LINE_35_">
	<g id="XMLID_1_">
		<g>
			<polygon fill="#010101" points="86.47,96.27 64.07,118.67 64.07,99.07 30.48,99.07 30.48,118.67 8.08,96.27 30.48,73.87 
				30.48,93.47 64.07,93.47 64.07,73.87 			"/>
			<polygon fill="#010101" points="92.07,62.68 92.07,120.69 86.47,120.69 86.47,96.27 86.47,62.68 			"/>
			<polygon fill="#010101" points="125.67,17.88 125.67,120.69 120.07,120.69 120.07,40.28 120.07,17.88 			"/>
			<rect x="47.28" y="6.68" fill="#010101" width="33.59" height="16.8"/>
			<polygon fill="#010101" points="8.08,96.27 8.08,120.69 2.48,120.69 2.48,17.88 8.08,17.88 8.08,40.28 			"/>
			<polygon fill="#010101" points="120.07,40.28 97.67,62.68 97.67,43.08 30.48,43.08 30.48,62.68 8.08,40.28 30.48,17.88 
				30.48,37.48 97.67,37.48 97.67,17.88 			"/>
		</g>
		<g>
		</g>
	</g>
</g>
</svg>
