<?xml version="1.0" encoding="utf-8"?>
<!-- Generator: Adobe Illustrator 16.0.0, SVG Export Plug-In . SVG Version: 6.00 Build 0)  -->
<!DOCTYPE svg PUBLIC "-//W3C//DTD SVG 1.1//EN" "http://www.w3.org/Graphics/SVG/1.1/DTD/svg11.dtd">
<svg version="1.1" id="Layer_1" xmlns="http://www.w3.org/2000/svg" xmlns:xlink="http://www.w3.org/1999/xlink" x="0px" y="0px"
	 width="32px" height="32px" viewBox="0 0 32 32" enable-background="new 0 0 32 32" xml:space="preserve">
<g id="LINE_37_">
	<g id="XMLID_1_">
		<g>
			
				<rect x="13.279429" y="17.660152" transform="matrix(0.707129 -0.707084 0.707084 0.707129 -8.287483 18.931774)" width="10.861063" height="3.620124"/>
			<polygon points="26.889648,3.959961 27.740234,4.819824 4.819824,27.740234 3.970215,26.889648 			"/>
			<polygon points="21.879883,3.370117 21.110352,2.75 20.519531,2.089844 21.280273,1.419922 21.870117,2.080078 
				22.400391,2.910156 			"/>
			<polygon points="20.660156,3.290039 21.19043,4.120117 20.669922,4.569824 19.900391,3.959961 19.30957,3.290039 
				20.080078,2.620117 			"/>
			<polygon points="21.269531,7.410156 18.55957,10.109863 16,7.549805 18.709961,4.850098 			"/>
			<polygon points="13.419922,9.319824 13.950195,10.149902 13.430176,10.609863 12.660156,9.990234 12.069824,9.330078 
				12.839844,8.660156 			"/>
			<polygon points="14.939941,13.72998 12.529785,16.149902 9.970215,13.589844 12.379883,11.169922 			"/>
			<path d="M6.160156,14.240234c0.290039-0.260254,0.599609-0.370117,0.929688-0.340332
				c0.330078,0.02002,0.640137,0.200195,0.919922,0.52002c0.280273,0.310059,0.410156,0.640137,0.400391,0.970215
				c-0.02002,0.330078-0.169922,0.619629-0.459961,0.879883c-0.290039,0.25-0.600098,0.359863-0.930176,0.339844
				c-0.330078-0.029785-0.629883-0.199707-0.910156-0.52002c-0.290039-0.319824-0.419922-0.649902-0.399902-0.97998
				C5.720215,14.779785,5.870117,14.490234,6.160156,14.240234z M6.549805,14.680176
				c-0.129883,0.119629-0.199707,0.25-0.199707,0.409668C6.339844,15.25,6.430176,15.430176,6.609863,15.640137
				c0.180176,0.209961,0.350098,0.319824,0.510254,0.330078c0.159668,0.02002,0.310059-0.030273,0.439941-0.150391
				c0.129883-0.109863,0.199707-0.25,0.199707-0.409668C7.77002,15.25,7.680176,15.069824,7.5,14.859863
				s-0.350098-0.319824-0.509766-0.330078C6.830078,14.52002,6.680176,14.569824,6.549805,14.680176z"/>
			<polygon points="9.200195,19.469727 5.290039,23.389648 2.72998,20.830078 6.640137,16.910156 			"/>
		</g>
		<g>
		</g>
	</g>
</g>
</svg>
