<?xml version="1.0" encoding="utf-8"?>
<!-- Generator: Adobe Illustrator 16.0.0, SVG Export Plug-In . SVG Version: 6.00 Build 0)  -->
<!DOCTYPE svg PUBLIC "-//W3C//DTD SVG 1.1//EN" "http://www.w3.org/Graphics/SVG/1.1/DTD/svg11.dtd">
<svg version="1.1" id="Layer_1" xmlns="http://www.w3.org/2000/svg" xmlns:xlink="http://www.w3.org/1999/xlink" x="0px" y="0px"
	 width="32px" height="32px" viewBox="0 0 32 32" enable-background="new 0 0 32 32" xml:space="preserve">
<g id="CIRCLE_1_">
	<g id="XMLID_1_">
		<g>
			<path d="M26.879883,3.060059C25.730469,2.379883,24.25,2.77002,23.570313,3.910156
				c-0.44043,0.759766-0.44043,1.699707,0,2.459961L26.879883,3.060059z M28.070313,5.140137
				c0-0.430176-0.120117-0.850098-0.339844-1.22998l-3.300781,3.310059c1.150391,0.679688,2.620117,0.289551,3.300781-0.850098
				C27.950195,5.990234,28.070313,5.569824,28.070313,5.140137z M22.700195,7.240234
				c-0.430664-0.620117-0.669922-1.350098-0.669922-2.100098h-4.950195L16.75,6.540039
				c-0.310059-0.100098-0.620117-0.169922-0.939941-0.22998c-0.069824-0.02002-0.149902-0.040039-0.22998-0.050293l0.549805-2.32959
				h6.110352c0.109375-0.310059,0.269531-0.610352,0.459961-0.890137C23.860352,1.410156,26.120117,1.029785,27.75,2.189941
				l1.099609-1.089844l0.850586,0.850098l-1.100586,1.089844c0.44043,0.620117,0.669922,1.350098,0.669922,2.100098
				s-0.229492,1.47998-0.669922,2.100098C27.450195,8.870117,25.19043,9.25,23.55957,8.089844l-1.099609,1.100098
				l-0.849609-0.859863L22.700195,7.240234z"/>
			<polygon points="11.810059,22.049805 14.189941,12.080078 11.189941,11.370117 15.899902,7.529785 18.299805,13.060059 
				15.359863,12.359863 12.97998,22.330078 15.919922,23.030273 11.279785,26.889648 8.810059,21.339844 			"/>
			<path d="M2.459961,17.209961c0-6.149902,4.97998-11.129883,11.129883-11.129883c0.680176,0,1.350098,0.060059,1.990234,0.179688
				c0.080078,0.010254,0.160156,0.030273,0.22998,0.050293L16.75,6.540039c4.599609,1.359863,7.959961,5.620117,7.959961,10.669922
				c0,6.139648-4.979492,11.120117-11.120117,11.120117C7.439941,28.330078,2.459961,23.349609,2.459961,17.209961z
				 M11.279785,26.889648c0.740234,0.180664,1.52002,0.270508,2.310059,0.270508c5.490234,0,9.950195-4.459961,9.950195-9.950195
				c0-4.709961-3.259766-8.640137-7.640137-9.680176c-0.739746-0.179688-1.52002-0.27002-2.310059-0.27002
				c-5.5,0-9.949707,4.450195-9.949707,9.950195C3.640137,21.910156,6.899902,25.849609,11.279785,26.889648z"/>
		</g>
		<g>
		</g>
	</g>
</g>
</svg>
