<?xml version="1.0" encoding="utf-8"?>
<!-- Generator: Adobe Illustrator 15.1.0, SVG Export Plug-In . SVG Version: 6.00 Build 0)  -->
<!DOCTYPE svg PUBLIC "-//W3C//DTD SVG 1.1//EN" "http://www.w3.org/Graphics/SVG/1.1/DTD/svg11.dtd">
<svg version="1.1" id="Layer_1" xmlns="http://www.w3.org/2000/svg" xmlns:xlink="http://www.w3.org/1999/xlink" x="0px" y="0px"
	 width="128px" height="128px" viewBox="0 0 128 128" enable-background="new 0 0 128 128" xml:space="preserve">
<g id="CIRCLE_1_">
	<g id="XMLID_1_">
		<g>
			<path fill="#010101" d="M88.69,16.46l3.93,3.94l-5.05,5.06c2.01,2.82,3.09,6.21,3.09,9.67c0,3.47-1.08,6.86-3.09,9.68
				c-5.351,7.52-15.78,9.29-23.3,3.94l-5.06,5.06l-3.94-3.94l5.06-5.06c-4.12-5.79-4.12-13.56,0-19.35
				c5.35-7.52,15.78-9.29,23.3-3.94L88.69,16.46z M85.09,35.13c0-1.98-0.54-3.94-1.55-5.65L68.29,44.73
				c5.3,3.12,12.13,1.36,15.25-3.94C84.55,39.08,85.09,37.12,85.09,35.13z M64.35,40.79l15.26-15.25
				c-5.301-3.12-12.13-1.36-15.26,3.94C62.3,32.97,62.3,37.3,64.35,40.79z"/>
			<polygon fill="#010101" points="119.91,63.51 97.63,80.22 97.63,66.3 31.93,66.3 31.93,80.22 9.65,63.51 31.93,46.51 
				31.93,60.73 97.63,60.73 97.63,46.51 			"/>
			<path fill="#010101" d="M64.78,2.37c33.77,0,61.14,27.38,61.14,61.14c0,33.771-27.37,61.15-61.14,61.15S3.64,97.28,3.64,63.51
				C3.64,29.75,31.01,2.37,64.78,2.37z M120.47,63.51c0-30.75-24.93-55.68-55.69-55.68c-30.76,0-55.69,24.93-55.69,55.68
				c0,30.76,24.93,55.69,55.69,55.69C95.54,119.2,120.47,94.27,120.47,63.51z"/>
		</g>
		<g>
		</g>
	</g>
</g>
</svg>
