<?xml version="1.0" encoding="utf-8"?>
<!-- Generator: Adobe Illustrator 15.1.0, SVG Export Plug-In . SVG Version: 6.00 Build 0)  -->
<!DOCTYPE svg PUBLIC "-//W3C//DTD SVG 1.1//EN" "http://www.w3.org/Graphics/SVG/1.1/DTD/svg11.dtd">
<svg version="1.1" id="Layer_1" xmlns="http://www.w3.org/2000/svg" xmlns:xlink="http://www.w3.org/1999/xlink" x="0px" y="0px"
	 width="128px" height="128px" viewBox="0 0 128 128" enable-background="new 0 0 128 128" xml:space="preserve">
<g id="SPLINE_11_">
	<g id="XMLID_1_">
		<g>
			<path d="M106.37,92.65l7.32-2.131c-0.58,5.66-1.57,10.44-2.99,14.351c-1.41,3.91-3.91,8.02-7.5,12.33
				c-1.41-4.51-2.74-8.021-4.01-10.521c-1.261-2.489-3.36-5.859-6.29-10.1l8.449-2.47c-0.55-1.99-1.109-3.92-1.67-5.761
				c1.061-0.439,2.12-0.909,3.19-1.399c0.7-0.32,1.38-0.65,2.04-1C105.42,88.1,105.9,90.33,106.37,92.65z"/>
			<path d="M30.03,84.37c-0.15,1.14-0.28,2.29-0.39,3.46c-0.07,0.76-0.13,1.52-0.16,2.27c-2.11-0.63-4.29-1.33-6.53-2.09l-1.82,7.41
				c-4.61-3.33-8.26-6.59-10.93-9.77c-2.68-3.17-4.99-7.4-6.93-12.66c4.62,1.04,8.32,1.63,11.11,1.79c2.79,0.149,6.76,0.02,11.9-0.4
				l-2.09,8.55C26.2,83.45,28.14,83.93,30.03,84.37z"/>
			<path d="M47.54,16.41c5.5,0.84,10.85,2.93,16.06,6.29c-4.11,3.85-7.68,7.56-10.71,11.1c-2.03-0.38-4.08-0.49-6.15-0.35
				c-5.76,0.41-9.54,2.94-11.34,7.59c-1.76,4.58-1.45,11.67,0.93,21.28c-0.91,2.1-1.7,4.06-2.38,5.88
				c-3.39-6.11-5.81-12.18-7.26-18.22c-1.49-6.16-1.8-11.9-0.94-17.22c0.87-5.33,3.18-9.62,6.93-12.87
				C36.43,16.63,41.38,15.47,47.54,16.41z"/>
			<path d="M79.89,37.51l3.87,4.87c0.16,0.04,0.311,0.09,0.471,0.14c2.899,3.9,6.079,8.54,9.529,13.92
				c2.53,3.95,4.83,8.84,6.891,14.68c-1.511,1.78-3.29,3.37-5.351,4.78c-1.21-2.92-2.439-5.551-3.7-7.87
				c-3.58-6.6-7.779-12.31-12.59-17.12c-4.81-4.81-9.95-9.03-15.42-12.64c-1.28-0.85-2.58-1.59-3.88-2.22
				c2.43-3.14,5.29-6.48,8.58-10.02c4.58,3.51,8.52,7.23,11.79,11.18c0.08,0.1,0.17,0.21,0.25,0.31
				C80.19,37.51,80.04,37.51,79.89,37.51z"/>
			<path d="M122.8,60.57c0.95,4.88-0.52,9.75-4.42,14.61c-3.47,4.351-7.96,7.931-13.47,10.771c-1.28-5.48-2.7-10.431-4.26-14.83
				c1.34-1.57,2.47-3.29,3.369-5.15c2.54-5.2,2.24-9.74-0.89-13.61c-3.08-3.82-9.38-7.1-18.899-9.84c-1.36-1.83-2.66-3.5-3.9-5
				c6.979,0.12,13.46,1.06,19.41,2.81c6.08,1.8,11.21,4.4,15.38,7.81C119.3,51.56,121.86,55.7,122.8,60.57z"/>
			<path d="M83.94,92.65l-6.16,0.92c-0.12,0.109-0.24,0.229-0.351,0.34C72.61,94.47,67,94.9,60.61,95.2
				c-4.69,0.22-10.07-0.24-16.16-1.37c-0.79-2.2-1.28-4.561-1.46-7.05c3.13,0.43,6.02,0.68,8.67,0.75
				c7.5,0.2,14.54-0.58,21.109-2.34c6.58-1.771,12.801-4.11,18.66-7.03c1.38-0.69,2.67-1.44,3.87-2.26
				c1.5,3.68,2.97,7.83,4.38,12.449c-5.34,2.21-10.52,3.75-15.58,4.62c-0.13,0.021-0.26,0.04-0.39,0.061
				C83.79,92.91,83.86,92.78,83.94,92.65z"/>
			<path d="M83.71,93.03c-3.6,5.989-7.65,11.12-12.14,15.399c-4.59,4.36-9.41,7.5-14.46,9.42c-5.04,1.91-9.91,2.051-14.6,0.431
				c-4.7-1.62-8.18-5.33-10.45-11.13c-2.02-5.17-2.88-10.86-2.58-17.051c5.39,1.631,10.38,2.87,14.97,3.73
				c0.69,1.939,1.61,3.77,2.77,5.49c3.24,4.79,7.32,6.8,12.24,6.029c4.85-0.76,10.83-4.569,17.97-11.439
				C79.7,93.64,81.79,93.35,83.71,93.03z"/>
			<path d="M34.16,68.58l2.29-5.79c-0.04-0.16-0.08-0.32-0.12-0.47c1.92-4.46,4.35-9.53,7.29-15.22c2.14-4.16,5.24-8.59,9.27-13.3
				c2.3,0.41,4.57,1.16,6.82,2.25c-1.92,2.5-3.58,4.88-4.97,7.14c-3.93,6.4-6.77,12.88-8.53,19.46c-1.76,6.57-2.84,13.13-3.24,19.67
				c-0.09,1.529-0.09,3.02,0.02,4.46c-3.94-0.521-8.26-1.33-12.96-2.41c0.74-5.73,2-10.99,3.78-15.8c0.04-0.12,0.09-0.24,0.14-0.37
				C34.02,68.33,34.09,68.45,34.16,68.58z"/>
			<path d="M91.52,8.56c-3.199,3.47-5.569,6.38-7.1,8.72c-1.53,2.34-3.4,5.84-5.61,10.51l-6.35-6.09c-1.46,1.47-2.85,2.92-4.17,4.33
				c-0.91-0.7-1.84-1.38-2.8-2.06c-0.63-0.44-1.26-0.87-1.89-1.27c1.61-1.52,3.3-3.06,5.08-4.62l-5.51-5.27
				c5.19-2.33,9.83-3.86,13.92-4.59S85.99,7.6,91.52,8.56z"/>
		</g>
		<g>
		</g>
	</g>
</g>
</svg>
