<?xml version="1.0" encoding="utf-8"?>
<!-- Generator: Adobe Illustrator 15.1.0, SVG Export Plug-In . SVG Version: 6.00 Build 0)  -->
<!DOCTYPE svg PUBLIC "-//W3C//DTD SVG 1.1//EN" "http://www.w3.org/Graphics/SVG/1.1/DTD/svg11.dtd">
<svg version="1.1" xmlns="http://www.w3.org/2000/svg" xmlns:xlink="http://www.w3.org/1999/xlink" x="0px" y="0px" width="128px"
	 height="128px" viewBox="0 0 128 128" enable-background="new 0 0 128 128" xml:space="preserve">
<g id="Layer_2" display="none">
	<rect display="inline" width="128" height="128"/>
</g>
<g id="Layer_1">
	<g id="LINE_51_">
		<g id="XMLID_1_">
			<g>
				<rect x="2.48" y="20.98" width="44.86" height="16.82"/>
				<rect x="64.16" y="20.98" width="61.67" height="16.82"/>
				<polygon points="125.83,65.83 125.83,110.69 2.48,110.69 2.48,65.83 8.09,65.83 8.09,77.04 13.7,77.04 13.7,65.83 19.3,65.83 
					19.3,77.04 24.91,77.04 24.91,65.83 30.52,65.83 30.52,77.04 36.12,77.04 36.12,65.83 41.73,65.83 41.73,93.86 47.34,93.86 
					47.34,65.83 52.94,65.83 52.94,77.04 58.55,77.04 58.55,65.83 64.16,65.83 64.16,77.04 69.76,77.04 69.76,65.83 75.37,65.83 
					75.37,77.04 80.98,77.04 80.98,65.83 86.58,65.83 86.58,77.04 92.19,77.04 92.19,65.83 97.8,65.83 97.8,93.86 103.41,93.86 
					103.41,65.83 109.01,65.83 109.01,77.04 114.62,77.04 114.62,65.83 				"/>
			</g>
			<g>
			</g>
		</g>
	</g>
</g>
</svg>
