<?xml version="1.0" encoding="utf-8"?>
<!-- Generator: Adobe Illustrator 15.1.0, SVG Export Plug-In . SVG Version: 6.00 Build 0)  -->
<!DOCTYPE svg PUBLIC "-//W3C//DTD SVG 1.1//EN" "http://www.w3.org/Graphics/SVG/1.1/DTD/svg11.dtd">
<svg version="1.1" id="Layer_1" xmlns="http://www.w3.org/2000/svg" xmlns:xlink="http://www.w3.org/1999/xlink" x="0px" y="0px"
	 width="128px" height="128px" viewBox="0 0 128 128" enable-background="new 0 0 128 128" xml:space="preserve">
<g id="ARC_9_">
	<g id="XMLID_1_">
		<g>
			<path d="M85.27,118.33H63.86v5.4H31.47v-5.4H10.06c5.42-13.57,17.73-23.16,32.21-25.11v14.311h10.79V93.22
				C67.54,95.17,79.85,104.76,85.27,118.33z"/>
			<path d="M86.43,17.35v2.37c-3.05,0.4-5.109,0.91-6.16,1.53c-1.05,0.63-1.869,1.65-2.46,3.06c-0.59,1.42-0.88,3.85-0.88,7.29v57
				H74.74L29.43,30.78v44.76c0,3.72,0.81,6.24,2.44,7.54c1.62,1.31,3.49,1.96,5.59,1.96h1.47v2.37H15.18v-2.37
				c3.55-0.04,6.02-0.771,7.41-2.2c1.39-1.43,2.09-3.859,2.09-7.3V24.75l-0.97-1.24c-1.48-1.51-2.79-2.5-3.92-2.98
				s-2.77-0.75-4.91-0.81v-2.37h24.68l32.62,41.62V31.6c0-4.37-0.56-7.32-1.689-8.87c-1.561-2.08-4.16-3.08-7.81-3.01v-2.37H86.43z"
				/>
			<path d="M120,2.81v5.4h-2.16c-5.96,0-10.8,4.83-10.8,10.79v34.55V88.1c0,5.96,4.84,10.79,10.8,10.79H120v5.4h-2.16
				c-8.939,0-16.189-7.25-16.189-16.19c0,8.94-7.25,16.19-16.2,16.19h-2.16v-5.4h2.16c5.97,0,10.8-4.83,10.8-10.79V53.55V19
				c0-5.96-4.83-10.79-10.8-10.79h-2.16v-5.4h2.16c8.95,0,16.2,7.25,16.2,16.19c0-8.94,7.25-16.19,16.189-16.19H120z"/>
		</g>
		<g>
		</g>
	</g>
</g>
</svg>
