<?xml version="1.0" encoding="utf-8"?>
<!-- Generator: Adobe Illustrator 15.1.0, SVG Export Plug-In . SVG Version: 6.00 Build 0)  -->
<!DOCTYPE svg PUBLIC "-//W3C//DTD SVG 1.1//EN" "http://www.w3.org/Graphics/SVG/1.1/DTD/svg11.dtd">
<svg version="1.1" xmlns="http://www.w3.org/2000/svg" xmlns:xlink="http://www.w3.org/1999/xlink" x="0px" y="0px" width="128px"
	 height="128px" viewBox="0 0 128 128" enable-background="new 0 0 128 128" xml:space="preserve">
<g id="Layer_2" display="none">
	<rect display="inline" width="128" height="128"/>
</g>
<g id="Layer_1">
	<g id="LINE_16_">
		<g id="XMLID_1_">
			<g>
				<path d="M124.32,34.35c1.72,2.84,2.13,5.82,1.239,8.96c-1.67,5.88-7.56,9.54-17.659,10.97l-13.4,1.89
					c-5.04,0.7-8.26,2.11-9.68,4.22l-4.78,1.49l-6.65-7.3l8.53-2.42c0.8-0.23,1.61-0.43,2.44-0.62c4.649-0.86,7.37-2.68,8.159-5.46
					c0.12-0.42,0.301-1.05,0.551-1.91l0.38-1.33c0.51-1.83,0.819-2.9,0.91-3.21c1.21-4.25,4.04-7.48,8.51-9.67
					c4.51-2.2,9.13-2.62,13.88-1.27C120.07,29.63,122.59,31.52,124.32,34.35z M121.67,42.2c0.57-1.99,0.28-3.92-0.85-5.8
					c-1.13-1.89-2.75-3.13-4.87-3.73c-3.57-1.02-7.22-0.6-10.96,1.26c-3.73,1.85-6.05,4.38-6.96,7.58
					c-1.24,4.38-0.261,7.02,2.939,7.93c1.65,0.47,3.96,0.47,6.94,0l3.359-0.55C117.26,47.75,120.73,45.53,121.67,42.2z"/>
				<path d="M71.64,58.52l9.95,11.25c-0.149,0.53-0.26,0.9-0.33,1.131c-0.55,1.96,0.8,4.729,4.05,8.3L100.2,95.5
					c5.359,5.83,7.59,10.37,6.67,13.61c-0.71,2.5-2.36,4.27-4.93,5.29c-2.58,1.02-5.521,1.06-8.83,0.119
					c-6.561-1.869-12.091-6.13-16.601-12.779c-4.529-6.62-5.8-12.471-3.819-17.561l1.14-2.75l0.63-1.37l0.15-0.529
					c0.899-3.19-0.13-5.88-3.101-8.07l-1.149-0.81c-0.721-0.54-1.99-1.75-3.811-3.641l-1.77-1.83l1.48-1.439
					c0.5,0.5,1.2,0.82,1.98,0.82c1.55,0,2.81-1.26,2.81-2.81c0-0.77-0.31-1.47-0.819-1.98L71.64,58.52z M102.99,107.95
					c0.56-1.96-0.82-4.84-4.141-8.63L87.77,87.74c-2.569-2.59-4.59-4.09-6.06-4.51c-2.44-0.69-4.04,0.34-4.82,3.079
					c-1.17,4.101,0.15,8.811,3.94,14.141c3.8,5.33,8.25,8.72,13.36,10.17c2.489,0.7,4.46,0.84,5.93,0.39
					C101.58,110.56,102.54,109.54,102.99,107.95z"/>
				<path d="M54.69,60.11l7.44,7.9L18.42,80.58c-1.74-0.14-3.34-0.42-4.79-0.83c-4.27-1.21-8.46-3.49-12.57-6.83L54.69,60.11z"/>
				<path d="M35.71,17.87l35.93,40.65l-1.409,1.25c-0.511-0.51-1.211-0.82-1.99-0.82c-1.55,0-2.8,1.25-2.8,2.8
					c0,0.77,0.31,1.48,0.819,1.99l-1.48,1.439L16.43,15.31c5.55-0.52,10.88-0.05,15.98,1.4C33.29,16.96,34.39,17.34,35.71,17.87z"/>
			</g>
			<g>
			</g>
		</g>
	</g>
</g>
</svg>
