<?xml version="1.0" encoding="utf-8"?>
<!-- Generator: Adobe Illustrator 15.1.0, SVG Export Plug-In . SVG Version: 6.00 Build 0)  -->
<!DOCTYPE svg PUBLIC "-//W3C//DTD SVG 1.1//EN" "http://www.w3.org/Graphics/SVG/1.1/DTD/svg11.dtd">
<svg version="1.1" xmlns="http://www.w3.org/2000/svg" xmlns:xlink="http://www.w3.org/1999/xlink" x="0px" y="0px" width="128px"
	 height="128px" viewBox="0 0 128 128" enable-background="new 0 0 128 128" xml:space="preserve">
<g id="Layer_2" display="none">
	<rect display="inline" width="128" height="128"/>
</g>
<g id="Layer_1">
	<g id="LINE_35_">
		<g id="XMLID_1_">
			<g>
				<rect x="52.53" y="21.02" width="72.3" height="16.68"/>
				<polygon points="124.83,65.51 124.83,110 2.48,110 2.48,65.51 8.04,65.51 8.04,93.32 13.6,93.32 13.6,65.51 24.73,65.51 
					24.73,76.63 30.29,76.63 30.29,65.51 41.41,65.51 41.41,76.63 46.97,76.63 46.97,65.51 58.1,65.51 58.1,93.32 63.66,93.32 
					63.66,65.51 74.78,65.51 74.78,76.63 80.34,76.63 80.34,65.51 91.46,65.51 91.46,76.63 97.03,76.63 97.03,65.51 108.15,65.51 
					108.15,93.32 113.71,93.32 113.71,65.51 				"/>
			</g>
			<g>
			</g>
		</g>
	</g>
</g>
</svg>
