<?xml version="1.0" encoding="utf-8"?>
<!-- Generator: Adobe Illustrator 16.0.0, SVG Export Plug-In . SVG Version: 6.00 Build 0)  -->
<!DOCTYPE svg PUBLIC "-//W3C//DTD SVG 1.1//EN" "http://www.w3.org/Graphics/SVG/1.1/DTD/svg11.dtd">
<svg version="1.1" id="Layer_1" xmlns="http://www.w3.org/2000/svg" xmlns:xlink="http://www.w3.org/1999/xlink" x="0px" y="0px"
	 width="32px" height="32px" viewBox="0 0 32 32" enable-background="new 0 0 32 32" xml:space="preserve">
<g id="CIRCLE">
	<g id="XMLID_1_">
		<g>
			<polygon points="17.080078,2.359863 21.849609,5.879883 16.600098,2.990234 			"/>
			<polygon points="22.519531,2.209961 23.030273,5.169922 22.05957,2.319824 			"/>
			<polygon points="25.879883,2.649902 24.339844,5.310059 25.509766,2.47998 			"/>
			<polygon points="28.969727,4.25 29.25,4.879883 25.25,6.27002 			"/>
			<polygon points="29.519531,8.490234 29.379883,8.990234 25.30957,7.549805 			"/>
			<polygon points="24.509766,8.549805 27.160156,11.919922 26.55957,12.330078 			"/>
			<polygon points="23.240234,9.970215 22.799805,14.830078 22.030273,14.759766 			"/>
			<path d="M7.549805,16.709961c-0.939941,0-1.699707,0.759766-1.699707,1.700195c0,0.950195,0.759766,1.709961,1.699707,1.709961
				c0.950195,0,1.709961-0.759766,1.709961-1.709961C9.259766,17.469727,8.5,16.709961,7.549805,16.709961z M23.870117,7.25
				c0.089844,0.370117-0.089844,0.759766-0.549805,1.169922c-0.450195,0.399902-1.020508,0.689941-1.69043,0.859863
				c-1.429688,0.360352-3.419922-0.039551-5.97998-1.209961l-0.97998-0.449707
				c-1.870117-0.850098-3.219727-1.169922-4.069824-0.950195c-1.25,0.310059-1.680176,1.240234-1.300293,2.790039
				c0.720215,0.02002,1.380371,0.080078,1.990234,0.189941l0.509766,2.02002c4.130371,0.600098,6.660156,2.760254,7.580078,6.459961
				c0.580078,2.320313,0.290039,4.490234-0.879883,6.509766c-1.169922,2.030273-2.879883,3.320313-5.109863,3.879883
				C11.169922,29.070313,9.060059,28.730469,7.080078,27.5c-1.990234-1.240234-3.27002-3-3.839844-5.290039
				c-0.910156-3.620117,0.30957-6.719727,3.639648-9.310059l-0.5-2.02002c0.399902-0.389648,0.939941-0.72998,1.600098-1.029785
				L7.899902,9.529785c-0.179688-0.959961-0.040039-1.82959,0.439941-2.629883
				c0.47998-0.790039,1.180176-1.310059,2.100098-1.540039c1.25-0.310059,2.930176,0.040039,5.050293,1.050293l0.919922,0.439941
				c2.200195,1.040039,3.879883,1.419922,5.030273,1.140137c0.389648-0.100098,0.829102-0.410156,1.319336-0.92041
				C22.830078,7,22.94043,6.939941,23.080078,6.899902C23.519531,6.790039,23.780273,6.910156,23.870117,7.25z"/>
		</g>
		<g>
		</g>
	</g>
</g>
</svg>
