<?xml version="1.0" encoding="utf-8"?>
<!-- Generator: Adobe Illustrator 16.0.0, SVG Export Plug-In . SVG Version: 6.00 Build 0)  -->
<!DOCTYPE svg PUBLIC "-//W3C//DTD SVG 1.1//EN" "http://www.w3.org/Graphics/SVG/1.1/DTD/svg11.dtd">
<svg version="1.1" id="Layer_1" xmlns="http://www.w3.org/2000/svg" xmlns:xlink="http://www.w3.org/1999/xlink" x="0px" y="0px"
	 width="64px" height="64px" viewBox="0 0 64 64" enable-background="new 0 0 64 64" xml:space="preserve">
<g id="SPLINE_13_">
	<g id="XMLID_1_">
		<g>
			<path d="M41.459961,31.5V32H32v-0.5h0.379883c0.860352,0,1.459961-0.149902,1.810547-0.450195
				c0.339844-0.30957,0.579102-0.75,0.719727-1.339844c0.049805-0.22998,0.080078-0.959961,0.080078-2.189941v-8.220215
				c0-1.819824-0.25-3.149902-0.730469-3.97998c-0.490234-0.819824-1.299805-1.239746-2.449707-1.239746
				c-1.540039,0-3.089844,0.72998-4.629883,2.179688l-0.660156-0.629883c2.359863-2.689941,4.609863-4.040039,6.749512-4.040039
				c1.100586,0,2.040039,0.27002,2.830078,0.820313c0.790039,0.540039,1.419922,1.429688,1.890625,2.669922
				c0.319336,0.859863,0.479492,2.189941,0.479492,3.97998v8.459961c0,1.350098,0.100586,2.259766,0.299805,2.75
				c0.160156,0.379883,0.410156,0.689941,0.760742,0.910156C39.879883,31.390137,40.519531,31.5,41.459961,31.5z"/>
			<path d="M29.509766,31.5V32h-9.459961v-0.5h0.430176c1.010254,0,1.689941-0.27002,2.040039-0.830078
				c0.350098-0.549805,0.52002-1.600098,0.52002-3.149902v-7.470215c0-2.419922-0.049805-3.899902-0.140137-4.429688
				c-0.100098-0.530273-0.25-0.890137-0.449707-1.080078C22.25,14.350098,21.97998,14.25,21.640137,14.25
				c-0.360352,0-0.790039,0.109863-1.300293,0.330078l-0.290039-0.5l5.600098-2.490234h0.870117v4.040039l0.660156,0.629883
				c-0.220215,0.200195-0.439941,0.42041-0.660156,0.660156V27.52002c0,1.439941,0.080078,2.330078,0.220215,2.680176
				c0.189941,0.449707,0.449707,0.779785,0.779785,0.989746S28.509766,31.5,29.509766,31.5z"/>
			<rect x="4.620117" y="39.469727" width="12.449707" height="7.459961"/>
			<rect x="44.44043" y="39.469727" width="14.939453" height="7.459961"/>
			<rect x="24.529785" y="39.469727" width="12.450684" height="7.459961"/>
		</g>
		<g>
		</g>
	</g>
</g>
</svg>
