<?xml version="1.0" encoding="utf-8"?>
<!-- Generator: Adobe Illustrator 16.0.0, SVG Export Plug-In . SVG Version: 6.00 Build 0)  -->
<!DOCTYPE svg PUBLIC "-//W3C//DTD SVG 1.1//EN" "http://www.w3.org/Graphics/SVG/1.1/DTD/svg11.dtd">
<svg version="1.1" id="Layer_1" xmlns="http://www.w3.org/2000/svg" xmlns:xlink="http://www.w3.org/1999/xlink" x="0px" y="0px"
	 width="32px" height="32px" viewBox="0 0 32 32" enable-background="new 0 0 32 32" xml:space="preserve">
<g id="LINE_131_">
	<g id="XMLID_1_">
		<g>
			<rect x="2.72998" y="5.259766" width="1.200195" height="2.410156"/>
			<rect x="2.72998" y="8.879883" width="1.200195" height="2.410156"/>
			<rect x="2.72998" y="12.5" width="1.200195" height="2.410156"/>
			<rect x="2.72998" y="16.120117" width="1.200195" height="2.410156"/>
			<rect x="2.72998" y="19.740234" width="1.200195" height="2.410156"/>
			<rect x="2.72998" y="23.360352" width="1.200195" height="2.40918"/>
			<rect x="2.72998" y="26.980469" width="1.200195" height="2.40918"/>
			<rect x="5.140137" y="28.19043" width="2.409668" height="1.199219"/>
			<rect x="8.759766" y="28.19043" width="2.410156" height="1.199219"/>
			<polygon points="29.269531,28.19043 29.269531,29.389648 26.860352,29.389648 26.860352,28.19043 27.849609,28.19043 			"/>
			<rect x="27.849609" y="24.570313" width="1.200195" height="2.410156"/>
			<rect x="27.849609" y="20.950195" width="1.200195" height="2.410156"/>
			<rect x="27.849609" y="17.330078" width="1.200195" height="2.410156"/>
			<rect x="27.849609" y="13.709961" width="1.200195" height="2.410156"/>
			<rect x="27.849609" y="10.089844" width="1.200195" height="2.410156"/>
			<rect x="27.849609" y="6.470215" width="1.200195" height="2.409668"/>
			<polygon points="29.049805,2.850098 29.049805,5.259766 27.849609,5.259766 27.849609,4.049805 27.849609,2.850098 			"/>
			<rect x="24.230469" y="2.850098" width="2.40918" height="1.199707"/>
			<path d="M26.259766,12.5v8.019531h-3.620117v5.44043H9.970215v-5.44043H6.350098V11.47998h3.620117V6.049805h12.669434v5.430176
				h3.620117V12.5z M25.349609,13.290039c0-0.5-0.399414-0.910156-0.899414-0.910156s-0.910156,0.410156-0.910156,0.910156
				c0,0.489746,0.410156,0.899902,0.910156,0.899902S25.349609,13.779785,25.349609,13.290039z M25.349609,16
				c0-0.5-0.399414-0.899902-0.899414-0.899902S23.540039,15.5,23.540039,16s0.410156,0.910156,0.910156,0.910156
				S25.349609,16.5,25.349609,16z M21.730469,25.049805v-8.139648H10.870117v8.139648H21.730469z M21.730469,11.47998V6.950195
				H10.870117v4.529785H21.730469z"/>
			<rect x="23.240234" y="28.19043" width="2.410156" height="1.199219"/>
			<rect x="20.830078" y="2.850098" width="2.410156" height="1.199707"/>
			<rect x="19.620117" y="28.19043" width="2.410156" height="1.199219"/>
			<rect x="17.209961" y="2.850098" width="2.410156" height="1.199707"/>
			<rect x="16" y="28.19043" width="2.410156" height="1.199219"/>
			<rect x="13.589844" y="2.850098" width="2.410156" height="1.199707"/>
			<rect x="12.379883" y="28.19043" width="2.410156" height="1.199219"/>
			<rect x="9.970215" y="2.850098" width="2.409668" height="1.199707"/>
			<rect x="6.350098" y="2.850098" width="2.409668" height="1.199707"/>
			<polygon points="5.140137,2.850098 5.140137,4.049805 3.930176,4.049805 2.72998,4.049805 2.72998,2.850098 			"/>
		</g>
		<g>
		</g>
	</g>
</g>
</svg>
