<?xml version="1.0" encoding="utf-8"?>
<!-- Generator: Adobe Illustrator 16.0.0, SVG Export Plug-In . SVG Version: 6.00 Build 0)  -->
<!DOCTYPE svg PUBLIC "-//W3C//DTD SVG 1.1//EN" "http://www.w3.org/Graphics/SVG/1.1/DTD/svg11.dtd">
<svg version="1.1" id="Layer_1" xmlns="http://www.w3.org/2000/svg" xmlns:xlink="http://www.w3.org/1999/xlink" x="0px" y="0px"
	 width="32px" height="32px" viewBox="0 0 32 32" enable-background="new 0 0 32 32" xml:space="preserve">
<g id="LINE_31_">
	<g id="XMLID_1_">
		<g>
			<path d="M28.959961,29.44043H2.410156V2.899902h26.549805V29.44043z M27.75,6.52002h-5.110352H3.620117v21.720215h6.350098H27.75
				V6.52002z"/>
			<path d="M25.349609,17.209961c0-0.5-0.399414-0.910156-0.899414-0.910156s-0.910156,0.410156-0.910156,0.910156
				s0.410156,0.900391,0.910156,0.900391S25.349609,17.709961,25.349609,17.209961z M24.450195,15.399902
				c0.5,0,0.899414-0.409668,0.899414-0.909668s-0.399414-0.900391-0.899414-0.900391s-0.910156,0.400391-0.910156,0.900391
				S23.950195,15.399902,24.450195,15.399902z M21.730469,12.680176v-4.52002H10.870117v4.52002H21.730469z M21.730469,26.259766
				v-8.149414H10.870117v8.149414H21.730469z M22.639648,12.680176h3.620117v9.050293h-3.620117v5.429688H9.970215v-5.429688
				H6.350098v-9.050293h3.620117V7.25h12.669434V12.680176z"/>
		</g>
		<g>
		</g>
	</g>
</g>
</svg>
