<?xml version="1.0" encoding="utf-8"?>
<!-- Generator: Adobe Illustrator 15.1.0, SVG Export Plug-In . SVG Version: 6.00 Build 0)  -->
<!DOCTYPE svg PUBLIC "-//W3C//DTD SVG 1.1//EN" "http://www.w3.org/Graphics/SVG/1.1/DTD/svg11.dtd">
<svg version="1.1" id="Layer_1" xmlns="http://www.w3.org/2000/svg" xmlns:xlink="http://www.w3.org/1999/xlink" x="0px" y="0px"
	 width="128px" height="128px" viewBox="0 0 128 128" enable-background="new 0 0 128 128" xml:space="preserve">
<g id="ELLIPSE_4_">
	<g id="XMLID_1_">
		<g>
			<path d="M120.8,43.79c6.11,5.97,5.431,18.24-1.67,30.07C110.35,88.51,94.8,97.54,84.41,94.05l-34.5-25.06
				c-5.11,5.68-8.42,12.76-9.51,20.33c17.54,0,32.81,5.12,37.02,12.42c5.061,8.76-7.41,17.62-27.86,19.79
				c-20.44,2.16-41.11-3.181-46.17-11.94S10.8,91.97,31.25,89.8c-3.52-11.25-1.64-23.49,5.1-33.16c-3.9-9.11-0.16-23.25,9.28-35.05
				C57.66,6.55,74.83,0.29,83.98,7.61L120.8,43.79z M100.23,32.44L89.57,21.16c0,1.98-0.221,4.06-0.65,6.21
				c-3.28,16.21-17.9,32.7-32.65,36.83l5,3.64C78.73,62.17,92.92,49.28,100.23,32.44z M76.21,41.27c8.16-12.55,8.49-25.6,0.75-29.15
				c-7.75-3.54-20.63,3.75-28.79,16.31c-4.91,7.55-7.18,15.68-6.06,21.67C51.36,41.77,64.09,38.47,76.21,41.27z"/>
		</g>
		<g>
		</g>
	</g>
</g>
</svg>
