<?xml version="1.0" encoding="utf-8"?>
<!-- Generator: Adobe Illustrator 15.1.0, SVG Export Plug-In . SVG Version: 6.00 Build 0)  -->
<!DOCTYPE svg PUBLIC "-//W3C//DTD SVG 1.1//EN" "http://www.w3.org/Graphics/SVG/1.1/DTD/svg11.dtd">
<svg version="1.1" id="Layer_1" xmlns="http://www.w3.org/2000/svg" xmlns:xlink="http://www.w3.org/1999/xlink" x="0px" y="0px"
	 width="128px" height="128px" viewBox="0 0 128 128" enable-background="new 0 0 128 128" xml:space="preserve">
<g id="LINE_21_">
	<g id="XMLID_1_">
		<g>
			<path fill="#FFFFFF" d="M21.98,61.81l19.55,19.55V64.58h19.55v-5.53H41.53V42.26L21.98,61.81z M104.76,61.81L85.21,42.26v16.79
				H65.66v5.53h19.55v16.78L104.76,61.81z M107.61,8.8V119.4H19.13V8.8H107.61z"/>
			<polygon points="61.08,59.05 61.08,64.58 41.53,64.58 41.53,81.36 21.98,61.81 41.53,42.26 41.53,59.05 			"/>
			<polygon points="104.76,61.81 85.21,81.36 85.21,64.58 65.66,64.58 65.66,59.05 85.21,59.05 85.21,42.26 			"/>
			<path d="M113.14,3.27v121.66H13.6V3.27H113.14z M107.61,119.4V8.8H19.13V119.4H107.61z"/>
		</g>
		<g>
			
				<line fill="none" stroke="#808080" stroke-width="0.3685" stroke-linecap="round" stroke-linejoin="round" stroke-miterlimit="10" x1="85.21" y1="64.58" x2="65.66" y2="64.58"/>
			
				<line fill="none" stroke="#808080" stroke-width="0.3685" stroke-linecap="round" stroke-linejoin="round" stroke-miterlimit="10" x1="65.66" y1="64.58" x2="65.66" y2="59.05"/>
			
				<line fill="none" stroke="#808080" stroke-width="0.3685" stroke-linecap="round" stroke-linejoin="round" stroke-miterlimit="10" x1="85.21" y1="59.05" x2="65.66" y2="59.05"/>
			
				<line fill="none" stroke="#808080" stroke-width="0.3685" stroke-linecap="round" stroke-linejoin="round" stroke-miterlimit="10" x1="85.21" y1="59.05" x2="85.21" y2="42.26"/>
			
				<line fill="none" stroke="#808080" stroke-width="0.3685" stroke-linecap="round" stroke-linejoin="round" stroke-miterlimit="10" x1="85.21" y1="42.26" x2="104.76" y2="61.81"/>
			
				<line fill="none" stroke="#808080" stroke-width="0.3685" stroke-linecap="round" stroke-linejoin="round" stroke-miterlimit="10" x1="104.76" y1="61.81" x2="85.21" y2="81.36"/>
			
				<line fill="none" stroke="#808080" stroke-width="0.3685" stroke-linecap="round" stroke-linejoin="round" stroke-miterlimit="10" x1="85.21" y1="81.36" x2="85.21" y2="64.58"/>
			
				<line fill="none" stroke="#808080" stroke-width="0.3685" stroke-linecap="round" stroke-linejoin="round" stroke-miterlimit="10" x1="41.53" y1="64.58" x2="61.08" y2="64.58"/>
			
				<line fill="none" stroke="#808080" stroke-width="0.3685" stroke-linecap="round" stroke-linejoin="round" stroke-miterlimit="10" x1="61.08" y1="64.58" x2="61.08" y2="59.05"/>
			
				<line fill="none" stroke="#808080" stroke-width="0.3685" stroke-linecap="round" stroke-linejoin="round" stroke-miterlimit="10" x1="41.53" y1="59.05" x2="61.08" y2="59.05"/>
			
				<line fill="none" stroke="#808080" stroke-width="0.3685" stroke-linecap="round" stroke-linejoin="round" stroke-miterlimit="10" x1="19.13" y1="119.4" x2="19.13" y2="8.8"/>
			
				<line fill="none" stroke="#808080" stroke-width="0.3685" stroke-linecap="round" stroke-linejoin="round" stroke-miterlimit="10" x1="107.61" y1="119.4" x2="107.61" y2="8.8"/>
			
				<line fill="none" stroke="#808080" stroke-width="0.3685" stroke-linecap="round" stroke-linejoin="round" stroke-miterlimit="10" x1="19.13" y1="119.4" x2="107.61" y2="119.4"/>
			
				<line fill="none" stroke="#808080" stroke-width="0.3685" stroke-linecap="round" stroke-linejoin="round" stroke-miterlimit="10" x1="13.6" y1="124.93" x2="13.6" y2="3.27"/>
			
				<line fill="none" stroke="#808080" stroke-width="0.3685" stroke-linecap="round" stroke-linejoin="round" stroke-miterlimit="10" x1="113.14" y1="124.93" x2="113.14" y2="3.27"/>
			
				<line fill="none" stroke="#808080" stroke-width="0.3685" stroke-linecap="round" stroke-linejoin="round" stroke-miterlimit="10" x1="13.6" y1="124.93" x2="113.14" y2="124.93"/>
			
				<line fill="none" stroke="#808080" stroke-width="0.3685" stroke-linecap="round" stroke-linejoin="round" stroke-miterlimit="10" x1="19.13" y1="8.8" x2="107.61" y2="8.8"/>
			
				<line fill="none" stroke="#808080" stroke-width="0.3685" stroke-linecap="round" stroke-linejoin="round" stroke-miterlimit="10" x1="13.6" y1="3.27" x2="113.14" y2="3.27"/>
			
				<line fill="none" stroke="#808080" stroke-width="0.3685" stroke-linecap="round" stroke-linejoin="round" stroke-miterlimit="10" x1="41.53" y1="59.05" x2="41.53" y2="42.26"/>
			
				<line fill="none" stroke="#808080" stroke-width="0.3685" stroke-linecap="round" stroke-linejoin="round" stroke-miterlimit="10" x1="41.53" y1="42.26" x2="21.98" y2="61.81"/>
			
				<line fill="none" stroke="#808080" stroke-width="0.3685" stroke-linecap="round" stroke-linejoin="round" stroke-miterlimit="10" x1="21.98" y1="61.81" x2="41.53" y2="81.36"/>
			
				<line fill="none" stroke="#808080" stroke-width="0.3685" stroke-linecap="round" stroke-linejoin="round" stroke-miterlimit="10" x1="41.53" y1="81.36" x2="41.53" y2="64.58"/>
		</g>
	</g>
</g>
</svg>
