<?xml version="1.0" encoding="utf-8"?>
<!-- Generator: Adobe Illustrator 15.1.0, SVG Export Plug-In . SVG Version: 6.00 Build 0)  -->
<!DOCTYPE svg PUBLIC "-//W3C//DTD SVG 1.1//EN" "http://www.w3.org/Graphics/SVG/1.1/DTD/svg11.dtd">
<svg version="1.1" id="Layer_1" xmlns="http://www.w3.org/2000/svg" xmlns:xlink="http://www.w3.org/1999/xlink" x="0px" y="0px"
	 width="128px" height="128px" viewBox="0 0 128 128" enable-background="new 0 0 128 128" xml:space="preserve">
<g id="LINE_61_">
	<g id="XMLID_1_">
		<g>
			<polygon points="123.33,32.51 119.66,44.73 109.57,35.46 118.81,28.35 			"/>
			<polygon points="115.99,56.96 112.33,69.18 91.1,49.69 100.34,42.58 			"/>
			<polygon points="108.66,81.41 106.82,87.52 103.07,91.87 77.25,68.16 77.25,60.36 81.87,56.8 			"/>
			<polygon points="95.56,100.57 88.05,109.26 77.25,99.35 77.25,83.75 			"/>
			<polygon points="80.54,117.96 77.25,121.77 77.25,114.94 			"/>
			<polygon points="70.93,105.61 70.93,118.54 66.98,120.59 56.18,113.24 			"/>
			<polygon points="70.93,79.75 70.93,92.68 45.38,105.89 34.58,98.54 			"/>
			<polygon points="70.93,60.36 70.93,66.82 23.78,91.2 18.39,87.52 16.71,81.93 64.52,57.21 			"/>
			<polygon points="26.05,38.31 6.63,48.35 3.27,37.15 13.23,32.01 			"/>
			<polygon points="51.7,50.91 13.35,70.73 9.99,59.54 38.88,44.61 			"/>
			<polygon points="80.03,50.2 74.09,54.89 64.38,50.2 			"/>
			<polygon points="94.56,38.71 87.29,44.45 52.51,44.45 40.63,38.71 			"/>
			<polygon points="69.22,10 38.59,10 51.12,5.4 			"/>
			<polygon points="114.46,21.48 7.27,21.48 22.93,15.74 91.84,15.74 			"/>
			<polygon points="109.08,27.22 101.82,32.97 28.75,32.97 16.87,27.22 			"/>
		</g>
		<g>
		</g>
	</g>
</g>
</svg>
