<?xml version="1.0" encoding="utf-8"?>
<!-- Generator: Adobe Illustrator 15.1.0, SVG Export Plug-In . SVG Version: 6.00 Build 0)  -->
<!DOCTYPE svg PUBLIC "-//W3C//DTD SVG 1.1//EN" "http://www.w3.org/Graphics/SVG/1.1/DTD/svg11.dtd">
<svg version="1.1" id="Layer_1" xmlns="http://www.w3.org/2000/svg" xmlns:xlink="http://www.w3.org/1999/xlink" x="0px" y="0px"
	 width="128px" height="128px" viewBox="0 0 128 128" enable-background="new 0 0 128 128" xml:space="preserve">
<g id="CIRCLE_2_">
	<g id="XMLID_1_">
		<g>
			<path d="M124.04,4.13l-0.36,120.4H3.27V4.13h88.27l-9.31,25.43l12.449,5.81L80.44,63.51c-2.521-6.93-9.171-11.88-16.96-11.88
				c-9.96,0-18.03,8.07-18.03,18.03s8.07,18.03,18.03,18.03c9.95,0,18.03-8.07,18.03-18.03c0-1.95-0.31-3.83-0.89-5.59l32.729-29.92
				l-14.18-9.24L124.04,4.13z M117.7,110.77c0.189-8.14-2.26-16.119-6.99-22.739c-5.44,5.91-14.55,6.55-20.75,1.45
				c3.87,6.5,6.271,13.77,7.021,21.289H117.7z M110.1,77.79c0-5.82-4.72-10.54-10.54-10.54c-5.819,0-10.54,4.72-10.54,10.54
				s4.721,10.53,10.54,10.53C105.38,88.32,110.1,83.61,110.1,77.79z M91.46,119.51c0.98-12.37-3.1-24.62-11.3-33.939
				c-0.26,0.26-0.521,0.52-0.78,0.77c-9.21,8.79-23.8,8.44-32.59-0.77c-8.2,9.319-12.28,21.569-11.3,33.939H91.46z M37.93,77.79
				c0-5.82-4.72-10.54-10.54-10.54c-5.82,0-10.54,4.72-10.54,10.54s4.72,10.53,10.54,10.53C33.21,88.32,37.93,83.61,37.93,77.79z
				 M29.97,110.77c0.75-7.52,3.15-14.789,7.03-21.289c-6.21,5.1-15.32,4.46-20.75-1.45c-4.73,6.62-7.19,14.6-7,22.739H29.97z"/>
		</g>
		<g>
		</g>
	</g>
</g>
</svg>
