<?xml version="1.0" encoding="utf-8"?>
<!-- Generator: Adobe Illustrator 16.0.0, SVG Export Plug-In . SVG Version: 6.00 Build 0)  -->
<!DOCTYPE svg PUBLIC "-//W3C//DTD SVG 1.1//EN" "http://www.w3.org/Graphics/SVG/1.1/DTD/svg11.dtd">
<svg version="1.1" id="Layer_1" xmlns="http://www.w3.org/2000/svg" xmlns:xlink="http://www.w3.org/1999/xlink" x="0px" y="0px"
	 width="32px" height="32px" viewBox="0 0 32 32" enable-background="new 0 0 32 32" xml:space="preserve">
<g id="LINE_2_">
	<g id="XMLID_1_">
		<g>
			<path d="M20.009766,19.900391c1.980469,2.239258,2.959961,5.189453,2.720703,8.169922H9.27002
				c-0.240234-2.980469,0.75-5.930664,2.720215-8.169922c2.109863,2.219727,5.620117,2.299805,7.839844,0.189453
				C19.889648,20.030273,19.950195,19.959961,20.009766,19.900391z"/>
			<path d="M16,11.740234c2.400391,0,4.339844,1.939941,4.339844,4.339844c0,2.389648-1.939453,4.330078-4.339844,4.330078
				c-2.399902,0-4.339844-1.94043-4.339844-4.330078C11.660156,13.680176,13.600098,11.740234,16,11.740234z"/>
			<path d="M24.679688,2.220215c1.400391,0,2.530273,1.139648,2.530273,2.539551c0,1.400391-1.129883,2.530273-2.530273,2.530273
				c-1.399414,0-2.540039-1.129883-2.540039-2.530273C22.139648,3.359863,23.280273,2.220215,24.679688,2.220215z"/>
			<path d="M27.360352,7.220215C28.5,8.810059,29.089844,10.72998,29.040039,12.689941h-8.719727
				C20.269531,10.72998,20.860352,8.810059,22,7.220215c1.360352,1.47998,3.660156,1.57959,5.139648,0.219727
				C27.219727,7.370117,27.290039,7.299805,27.360352,7.220215z"/>
			<path d="M7.319824,2.220215c1.400391,0,2.530273,1.139648,2.530273,2.539551c0,1.400391-1.129883,2.530273-2.530273,2.530273
				c-1.399902,0-2.529785-1.129883-2.529785-2.530273C4.790039,3.359863,5.919922,2.220215,7.319824,2.220215z"/>
			<path d="M10,7.220215c1.140137,1.589844,1.72998,3.509766,1.680176,5.469727H2.959961
				C2.910156,10.72998,3.5,8.810059,4.640137,7.220215C6,8.700195,8.299805,8.799805,9.779785,7.439941
				C9.859863,7.370117,9.930176,7.299805,10,7.220215z"/>
		</g>
		<g>
		</g>
	</g>
</g>
</svg>
