<?xml version="1.0" encoding="utf-8"?>
<!-- Generator: Adobe Illustrator 16.0.0, SVG Export Plug-In . SVG Version: 6.00 Build 0)  -->
<!DOCTYPE svg PUBLIC "-//W3C//DTD SVG 1.1//EN" "http://www.w3.org/Graphics/SVG/1.1/DTD/svg11.dtd">
<svg version="1.1" id="Layer_1" xmlns="http://www.w3.org/2000/svg" xmlns:xlink="http://www.w3.org/1999/xlink" x="0px" y="0px"
	 width="32px" height="32px" viewBox="0 0 32 32" enable-background="new 0 0 32 32" xml:space="preserve">
<g id="CIRCLE">
	<g id="XMLID_1_">
		<g>
			<path d="M24.839844,19.900391c1.969727,2.239258,2.950195,5.189453,2.719727,8.169922H14.089844
				c-0.22998-2.980469,0.75-5.930664,2.720215-8.169922c2.119629,2.219727,5.630371,2.299805,7.840332,0.189453
				C24.719727,20.030273,24.780273,19.959961,24.839844,19.900391z"/>
			<path d="M20.830078,11.740234c2.389648,0,4.330078,1.939941,4.330078,4.339844c0,2.389648-1.94043,4.330078-4.330078,4.330078
				c-2.400391,0-4.339844-1.94043-4.339844-4.330078C16.490234,13.680176,18.429688,11.740234,20.830078,11.740234z"/>
			<rect x="2.72998" y="6.350098" width="13.27002" height="3.620117"/>
		</g>
		<g>
		</g>
	</g>
</g>
</svg>
