<?xml version="1.0" encoding="utf-8"?>
<!-- Generator: Adobe Illustrator 15.1.0, SVG Export Plug-In . SVG Version: 6.00 Build 0)  -->
<!DOCTYPE svg PUBLIC "-//W3C//DTD SVG 1.1//EN" "http://www.w3.org/Graphics/SVG/1.1/DTD/svg11.dtd">
<svg version="1.1" id="Layer_1" xmlns="http://www.w3.org/2000/svg" xmlns:xlink="http://www.w3.org/1999/xlink" x="0px" y="0px"
	 width="128px" height="128px" viewBox="0 0 128 128" enable-background="new 0 0 128 128" xml:space="preserve">
<g id="ARC_10_">
	<g id="XMLID_1_">
		<g>
			<path fill="#010101" d="M103.13,9.8c8.9,0,16.12,7.22,16.12,16.12c0,8.91-7.22,16.13-16.12,16.13C94.22,42.05,87,34.83,87,25.92
				C87,17.02,94.22,9.8,103.13,9.8z"/>
			<path fill="#010101" d="M113.87,44.82c8.55,10.3,12.75,23.53,11.7,36.88H92.61c-2.101-3.45-4.561-6.67-7.341-9.601
				C92.12,64,93.81,52.74,89.66,42.99C96.6,48.47,106.18,49.19,113.87,44.82z"/>
			<path fill="#010101" d="M81.24,76c10,10.57,15.05,24.87,13.91,39.37H32.53c-1.14-14.5,3.91-28.8,13.91-39.37
				C56.64,84.06,71.04,84.06,81.24,76z"/>
			<path fill="#010101" d="M63.84,31.53c12.4,0,22.45,10.06,22.45,22.46c0,12.39-10.05,22.45-22.45,22.45
				c-12.4,0-22.45-10.061-22.45-22.45C41.39,41.59,51.44,31.53,63.84,31.53z"/>
			<path fill="#010101" d="M42.41,72.1c-2.78,2.931-5.24,6.15-7.34,9.601H2.11C1.06,68.35,5.25,55.12,13.81,44.82
				c7.69,4.37,17.27,3.65,24.21-1.83C33.87,52.74,35.56,64,42.41,72.1z"/>
			<path fill="#010101" d="M24.55,9.8c8.91,0,16.13,7.22,16.13,16.12c0,8.91-7.22,16.13-16.13,16.13c-8.9,0-16.12-7.22-16.12-16.13
				C8.43,17.02,15.65,9.8,24.55,9.8z"/>
		</g>
		<g>
		</g>
	</g>
</g>
</svg>
