<?xml version="1.0" encoding="utf-8"?>
<!-- Generator: Adobe Illustrator 15.1.0, SVG Export Plug-In . SVG Version: 6.00 Build 0)  -->
<!DOCTYPE svg PUBLIC "-//W3C//DTD SVG 1.1//EN" "http://www.w3.org/Graphics/SVG/1.1/DTD/svg11.dtd">
<svg version="1.1" id="Layer_1" xmlns="http://www.w3.org/2000/svg" xmlns:xlink="http://www.w3.org/1999/xlink" x="0px" y="0px"
	 width="128px" height="128px" viewBox="0 0 128 128" enable-background="new 0 0 128 128" xml:space="preserve">
<g id="LINE_7_">
	<g id="XMLID_1_">
		<g>
			<path fill="#010101" d="M92.23,35.32c6.199,0,11.22,5.02,11.22,11.22S98.43,57.76,92.23,57.76c-6.19,0-11.211-5.02-11.211-11.22
				S86.04,35.32,92.23,35.32z"/>
			<path fill="#010101" d="M125.89,18.49v89.76c0,6.19-5.02,11.22-11.22,11.22H13.7c-6.2,0-11.22-5.029-11.22-11.22V18.49
				C2.48,12.3,7.5,7.27,13.7,7.27h100.97C120.87,7.27,125.89,12.3,125.89,18.49z M120.28,82.85V18.49c0-3.1-2.511-5.61-5.61-5.61
				H13.7c-3.1,0-5.61,2.51-5.61,5.61V82.85c7.48-20.47,13.09-30.7,16.83-30.7c3.74,0,6.54-2.8,8.41-8.41
				c1.87-5.61,5.61-4.68,11.22,2.8c5.61,7.48,9.35,14.96,11.22,22.44c1.87,7.479,4.68,7.479,8.42,0
				C67.93,61.5,70.73,57.76,72.6,57.76c1.87,0,5.61,4.68,11.221,14.021c5.609,9.35,8.41,14.029,8.41,14.029S94.1,83.94,97.84,80.2
				s6.55-6.55,8.42-8.42s3.74-1.87,5.61,0S116.54,77.34,120.28,82.85z"/>
		</g>
		<g>
		</g>
	</g>
</g>
</svg>
