<?xml version="1.0" encoding="utf-8"?>
<!-- Generator: Adobe Illustrator 15.1.0, SVG Export Plug-In . SVG Version: 6.00 Build 0)  -->
<!DOCTYPE svg PUBLIC "-//W3C//DTD SVG 1.1//EN" "http://www.w3.org/Graphics/SVG/1.1/DTD/svg11.dtd">
<svg version="1.1" id="Layer_1" xmlns="http://www.w3.org/2000/svg" xmlns:xlink="http://www.w3.org/1999/xlink" x="0px" y="0px"
	 width="128px" height="128px" viewBox="0 0 128 128" enable-background="new 0 0 128 128" xml:space="preserve">
<g id="LINE_34_">
	<g id="XMLID_1_">
		<g>
			<path fill="#010101" d="M28.83,90.59v26.62H2.22V90.59H28.83z M23.51,111.89V95.92H7.54v15.97H23.51z"/>
			<path fill="#010101" d="M125,10.74v98.81H34.16V85.27H7.84V10.74H125z M119.68,62.53V16.06H13.16v46.47h24.32
				c-0.27,0.02-0.54,0.04-0.8,0.07c-13.78,1.2-20.67,3.64-20.67,7.29c0,3.32,4.33,5.61,12.97,6.87c8.07,0.88,16.12,1.79,24.15,2.71
				c8.65,1.391,12.97,3.87,12.97,7.46c0,5.4-7.64,10.78-22.919,16.15c-1.1,0.38-2.33,0.76-3.7,1.14H88.6
				c6.811-5.5,10.21-11.26,10.21-17.29c0-4.91-6.01-8.43-18.02-10.569c-5.09-0.9-16.25-1.931-33.47-3.11
				C35.31,72.42,29.3,71.14,29.3,69.4c0-1.69,2.52-3.181,7.57-4.48c3.46-0.88,8.09-1.68,13.9-2.39h19.42v-6.54H54.04L69.8,44.54
				h-9.9l12.11-11.45h-6.26l9.96-8.18l9.91,8.18h-6.26L91.47,44.54H81.57l15.81,11.45H79.39v6.54H119.68z"/>
		</g>
		<g>
		</g>
	</g>
</g>
</svg>
