<?xml version="1.0" encoding="utf-8"?>
<!-- Generator: Adobe Illustrator 15.1.0, SVG Export Plug-In . SVG Version: 6.00 Build 0)  -->
<!DOCTYPE svg PUBLIC "-//W3C//DTD SVG 1.1//EN" "http://www.w3.org/Graphics/SVG/1.1/DTD/svg11.dtd">
<svg version="1.1" id="Layer_1" xmlns="http://www.w3.org/2000/svg" xmlns:xlink="http://www.w3.org/1999/xlink" x="0px" y="0px"
	 width="128px" height="128px" viewBox="0 0 128 128" enable-background="new 0 0 128 128" xml:space="preserve">
<g id="LINE_48_">
	<g id="XMLID_1_">
		<g>
			<path fill="#010101" d="M27.65,96.08v25.84H1.81V96.08H27.65z M22.48,116.75v-15.51H6.97v15.51H22.48z"/>
			<path fill="#010101" d="M125.83,8.22v25.84H99.99V8.22H125.83z M120.67,28.9V13.39h-15.51V28.9H120.67z"/>
			<path fill="#010101" d="M121,44.4v70.07H32.81V90.91H7.26V13.39h87.57v5.17h-82.4v50.27h23.61c-0.26,0.02-0.52,0.04-0.78,0.07
				C21.89,70.07,15.2,72.43,15.2,75.98c0,3.22,4.2,5.449,12.59,6.659c7.83,0.86,15.65,1.74,23.44,2.641
				c8.39,1.34,12.59,3.76,12.59,7.239c0,5.24-7.42,10.471-22.25,15.671c-1.06,0.38-2.26,0.75-3.59,1.119h47.68
				c6.609-5.35,9.91-10.939,9.91-16.79c0-4.76-5.83-8.18-17.49-10.26c-4.94-0.87-15.77-1.88-32.49-3.029
				C33.93,78.44,28.1,77.19,28.1,75.5c0-1.63,2.45-3.08,7.35-4.34c3.34-0.86,7.84-1.641,13.49-2.33h18.85v-6.35H52.11l15.31-11.11
				H57.8l11.76-11.11h-6.08l9.67-7.94l9.619,7.94H76.69l11.76,11.11h-9.61l15.34,11.11H76.72v6.35h39.11V44.4H121z"/>
		</g>
		<g>
		</g>
	</g>
</g>
</svg>
