<?xml version="1.0" encoding="utf-8"?>
<!-- Generator: Adobe Illustrator 16.0.0, SVG Export Plug-In . SVG Version: 6.00 Build 0)  -->
<!DOCTYPE svg PUBLIC "-//W3C//DTD SVG 1.1//EN" "http://www.w3.org/Graphics/SVG/1.1/DTD/svg11.dtd">
<svg version="1.1" id="Layer_1" xmlns="http://www.w3.org/2000/svg" xmlns:xlink="http://www.w3.org/1999/xlink" x="0px" y="0px"
	 width="32px" height="32px" viewBox="0 0 32 32" enable-background="new 0 0 32 32" xml:space="preserve">
<g id="LINE_24_">
	<g id="XMLID_1_">
		<g>
			<polygon fill="#B0AFB0" points="13.290039,14.459961 8.799805,23.339844 8.799805,25.650391 3.930176,25.650391 
				3.930176,5.140137 12.319824,5.140137 9.540039,12.720215 			"/>
			<rect x="18.410156" y="24.450195" fill="#B0AFB0" width="9.660156" height="1.200195"/>
			<rect x="18.410156" y="22.030273" fill="#B0AFB0" width="9.660156" height="1.209961"/>
			<polygon fill="#B0AFB0" points="28.070313,5.140137 28.070313,20.830078 17.209961,20.830078 17.209961,25.650391 
				8.799805,25.650391 8.799805,23.339844 18.900391,14.100098 14.640137,11.319824 22.030273,5.140137 			"/>
			<path d="M28.070313,20.830078V5.140137h-6.040039l-7.390137,6.179688l4.260254,2.780273L8.799805,23.339844l4.490234-8.879883
				l-3.75-1.739746l2.779785-7.580078H3.930176v20.510254h4.869629h8.410156v-4.820313H28.070313z M28.070313,23.240234v-1.209961
				h-9.660156v1.209961H28.070313z M28.070313,25.650391v-1.200195h-9.660156v1.200195H28.070313z M29.269531,3.930176v22.930176
				H2.72998V3.930176H29.269531z"/>
		</g>
		<g>
		</g>
	</g>
</g>
</svg>
