<?xml version="1.0" encoding="utf-8"?>
<!-- Generator: Adobe Illustrator 15.1.0, SVG Export Plug-In . SVG Version: 6.00 Build 0)  -->
<!DOCTYPE svg PUBLIC "-//W3C//DTD SVG 1.1//EN" "http://www.w3.org/Graphics/SVG/1.1/DTD/svg11.dtd">
<svg version="1.1" id="Layer_1" xmlns="http://www.w3.org/2000/svg" xmlns:xlink="http://www.w3.org/1999/xlink" x="0px" y="0px"
	 width="128px" height="128px" viewBox="0 0 128 128" enable-background="new 0 0 128 128" xml:space="preserve">
<g id="LINE_83_">
	<g id="XMLID_1_">
		<g>
			<rect x="37.69" y="58.13" width="5.36" height="10.72"/>
			<rect x="37.69" y="42.04" width="5.36" height="10.73"/>
			<rect x="37.69" y="25.96" width="5.36" height="10.72"/>
			<rect x="37.69" y="15.24" width="10.73" height="5.36"/>
			<rect x="53.78" y="15.24" width="10.72" height="5.36"/>
			<rect x="69.86" y="15.24" width="10.72" height="5.36"/>
			<rect x="85.95" y="15.24" width="10.72" height="5.36"/>
			<rect x="102.03" y="15.24" width="10.72" height="5.36"/>
			<rect x="117.14" y="15.24" width="5.36" height="10.72"/>
			<rect x="117.14" y="31.32" width="5.36" height="10.72"/>
			<rect x="117.14" y="47.41" width="5.36" height="10.72"/>
			<rect x="117.14" y="63.49" width="5.36" height="10.72"/>
			<rect x="112.75" y="79.57" width="10.73" height="5.37"/>
			<rect x="96.67" y="79.57" width="10.72" height="5.37"/>
			<rect x="80.58" y="79.57" width="10.729" height="5.37"/>
			<rect x="64.5" y="79.57" width="10.72" height="5.37"/>
			<rect x="48.42" y="79.57" width="10.72" height="5.37"/>
			<rect x="37.69" y="74.21" width="5.36" height="10.73"/>
			<polygon points="123.48,90.3 123.48,95.66 32.33,95.66 32.33,122.47 26.97,122.47 26.97,95.66 5.52,95.66 5.52,90.3 26.97,90.3 
				26.97,4.51 32.33,4.51 32.33,90.3 			"/>
		</g>
		<g>
		</g>
	</g>
</g>
</svg>
