<?xml version="1.0" encoding="utf-8"?>
<!-- Generator: Adobe Illustrator 15.1.0, SVG Export Plug-In . SVG Version: 6.00 Build 0)  -->
<!DOCTYPE svg PUBLIC "-//W3C//DTD SVG 1.1//EN" "http://www.w3.org/Graphics/SVG/1.1/DTD/svg11.dtd">
<svg version="1.1" id="Layer_1" xmlns="http://www.w3.org/2000/svg" xmlns:xlink="http://www.w3.org/1999/xlink" x="0px" y="0px"
	 width="128px" height="128px" viewBox="0 0 128 128" enable-background="new 0 0 128 128" xml:space="preserve">
<g id="LINE_114_">
	<g id="XMLID_1_">
		<g>
			<rect x="96.62" y="117.06" width="10.76" height="5.37"/>
			<rect x="112.75" y="117.06" width="10.75" height="5.37"/>
			<rect x="117.15" y="100.93" width="5.369" height="10.75"/>
			<rect x="117.15" y="84.81" width="5.369" height="10.75"/>
			<rect x="117.15" y="68.68" width="5.369" height="10.75"/>
			<rect x="117.15" y="52.56" width="5.369" height="10.75"/>
			<rect x="117.15" y="36.43" width="5.369" height="10.75"/>
			<rect x="117.15" y="20.31" width="5.369" height="10.75"/>
			<rect x="117.15" y="4.18" width="5.369" height="10.75"/>
			<rect x="101.02" y="4.18" width="10.75" height="5.38"/>
			<rect x="85.88" y="4.18" width="10.74" height="5.38"/>
			<rect x="69.75" y="4.18" width="10.75" height="5.38"/>
			<rect x="53.63" y="4.18" width="10.75" height="5.38"/>
			<rect x="37.5" y="4.18" width="10.75" height="5.38"/>
			<rect x="21.38" y="4.18" width="10.74" height="5.38"/>
			<rect x="5.25" y="4.18" width="10.75" height="5.38"/>
			<rect x="5.25" y="31.06" width="5.37" height="10.75"/>
			<rect x="5.25" y="14.93" width="5.37" height="10.75"/>
			<rect x="5.25" y="47.18" width="5.37" height="10.75"/>
			<rect x="5.25" y="63.31" width="5.37" height="10.75"/>
			<rect x="5.25" y="79.43" width="5.37" height="10.75"/>
			<rect x="5.25" y="95.56" width="5.37" height="10.75"/>
			<rect x="5.25" y="111.68" width="5.37" height="10.75"/>
			<rect x="16" y="117.06" width="10.75" height="5.37"/>
			<rect x="32.12" y="117.06" width="10.76" height="5.37"/>
			<path d="M18.2,71.59c3.26-2.68,6.06-4.02,8.39-4.02c2.35,0,4.51,0.68,6.48,2.029c1.96,1.36,3.76,3.391,5.37,6.101
				c2.39,0.83,4.26,1.62,5.62,2.359c2.58-5.25,2.42-12.229-0.49-20.939l-5.98-14.91c-0.66-2.63-0.98-4.92-0.98-6.86
				c0-1.91,0.52-3.32,1.56-4.26c1.04-0.93,2.59-1.39,4.64-1.39c3.5,0,6.47,3.36,8.92,10.1l8.39,18.58l-2.37-24.56
				c0-3.55,0.59-6.22,1.78-7.99c1.18-1.78,2.93-2.66,5.24-2.66c2.37,0,4.14,0.78,5.33,2.35c1.181,1.57,1.771,3.94,1.771,7.09V57.2
				l6.939-21.06c1.431-5.17,3.761-7.75,6.98-7.75c1.89,0,3.31,0.55,4.26,1.66c0.94,1.11,1.41,2.8,1.41,5.05
				c0,1.17-0.36,3.29-1.1,6.35l-5.83,20.34L95,49.45c2.24-3.59,4.46-5.39,6.67-5.39c1.521,0,2.82,0.54,3.88,1.62
				c1.061,1.07,1.59,2.39,1.59,3.95c0,1.77-0.899,4.13-2.699,7.07l-12,19.49l0.699,7.51C92,93.04,90,100.68,87.16,106.61l-4.84,6.27
				v6.88c-8.471-6.52-20.26-6.52-28.73,0v-8.96c-3.49-2.47-7.46-5.83-11.92-10.08L30.3,85.33L17.02,72.49L18.2,71.59z"/>
		</g>
		<g>
		</g>
	</g>
</g>
</svg>
