<?xml version="1.0" encoding="utf-8"?>
<!-- Generator: Adobe Illustrator 16.0.0, SVG Export Plug-In . SVG Version: 6.00 Build 0)  -->
<!DOCTYPE svg PUBLIC "-//W3C//DTD SVG 1.1//EN" "http://www.w3.org/Graphics/SVG/1.1/DTD/svg11.dtd">
<svg version="1.1" id="Layer_1" xmlns="http://www.w3.org/2000/svg" xmlns:xlink="http://www.w3.org/1999/xlink" x="0px" y="0px"
	 width="32px" height="32px" viewBox="0 0 32 32" enable-background="new 0 0 32 32" xml:space="preserve">
<g id="LINE_34_">
	<g id="XMLID_1_">
		<g>
			<polygon fill="#B0AFB0" points="11.439941,18.69043 7.850098,25.790039 7.850098,26.860352 3.930176,26.860352 
				3.930176,11.169922 10.689941,11.169922 8.439941,17.290039 			"/>
			<rect x="12.379883" y="25.650391" fill="#B0AFB0" width="9.650391" height="1.209961"/>
			<polygon fill="#B0AFB0" points="11.169922,24.450195 11.169922,26.860352 7.850098,26.860352 7.850098,25.790039 
				15.930176,18.400391 12.52002,16.169922 18.5,11.169922 22.030273,11.169922 22.030273,24.450195 			"/>
			<rect x="23.240234" y="18.410156" fill="#B0AFB0" width="4.830078" height="1.209961"/>
			<polygon fill="#B0AFB0" points="28.070313,3.930176 28.070313,17.209961 23.240234,17.209961 23.240234,9.970215 
				9.970215,9.970215 9.970215,3.930176 			"/>
			<path d="M22.030273,24.450195V11.169922H18.5l-5.97998,5l3.410156,2.230469l-8.080078,7.389648l3.589844-7.099609l-3-1.400391
				l2.25-6.120117H3.930176v15.69043h3.919922h3.319824v-2.410156H22.030273z M22.030273,26.860352v-1.209961h-9.650391v1.209961
				H22.030273z M28.070313,17.209961V3.930176H9.970215v6.040039h13.27002v7.239746H28.070313z M28.070313,19.620117v-1.209961
				h-4.830078v1.209961H28.070313z M29.269531,2.72998v18.100098h-6.029297v7.240234H2.72998V9.970215h6.029785V2.72998H29.269531z"
				/>
		</g>
		<g>
		</g>
	</g>
</g>
</svg>
