<?xml version="1.0" encoding="utf-8"?>
<!-- Generator: Adobe Illustrator 15.1.0, SVG Export Plug-In . SVG Version: 6.00 Build 0)  -->
<!DOCTYPE svg PUBLIC "-//W3C//DTD SVG 1.1//EN" "http://www.w3.org/Graphics/SVG/1.1/DTD/svg11.dtd">
<svg version="1.1" id="Layer_1" xmlns="http://www.w3.org/2000/svg" xmlns:xlink="http://www.w3.org/1999/xlink" x="0px" y="0px"
	 width="128px" height="128px" viewBox="0 0 128 128" enable-background="new 0 0 128 128" xml:space="preserve">
<g id="LINE_75_">
	<g id="XMLID_1_">
		<g>
			<path d="M100.69,31.72c-0.771-0.82-1.37-1.35-1.82-1.58c-0.69-0.36-1.39-0.5-2.11-0.44c-0.72,0.07-1.34,0.31-1.84,0.73
				c-0.77,0.64-1.189,1.53-1.27,2.67c-0.07,1.14,0.31,2.32,1.149,3.54L100.69,31.72z M107.14,33.47c0.94,1.52,1.351,3.16,1.221,4.92
				c-0.13,1.76-0.9,3.23-2.311,4.41c-1.53,1.28-3.35,1.76-5.45,1.46c-2.109-0.3-4.01-1.48-5.72-3.52c-1.84-2.22-2.72-4.42-2.64-6.59
				c0.09-2.17,0.979-3.97,2.67-5.38c1.43-1.19,3.03-1.66,4.79-1.42c1.76,0.24,3.35,1.21,4.76,2.9l-8.84,7.37
				c1.52,1.85,3.189,2.9,5.01,3.16c1.811,0.26,3.351-0.14,4.62-1.2c0.85-0.71,1.43-1.52,1.73-2.43c0.31-0.91,0.18-2.14-0.391-3.68
				H107.14z"/>
			<path d="M98.89,48.21l-6.22,5.19l-0.27-0.33l0.25-0.21c0.52-0.44,0.83-0.89,0.93-1.37c0.06-0.34-0.01-0.72-0.22-1.15
				c-0.11-0.2-0.5-0.71-1.181-1.53l-4.72-5.65c-0.89-1.08-1.64-1.73-2.25-1.97c-0.86-0.32-1.67-0.16-2.44,0.48
				c-0.479,0.39-0.85,0.92-1.119,1.57c-0.23,0.55-0.4,1.33-0.511,2.32l-0.75-0.09c0.011-1.89,0.181-3.28,0.54-4.16
				c0.351-0.88,0.86-1.6,1.54-2.17c0.66-0.55,1.391-0.86,2.2-0.93c0.811-0.06,1.7,0.18,2.67,0.73c0.66,0.39,1.48,1.17,2.46,2.35
				l4.67,5.61c0.73,0.88,1.29,1.43,1.69,1.65c0.28,0.15,0.62,0.19,1.01,0.14c0.38-0.06,0.87-0.32,1.45-0.81L98.89,48.21z"/>
			<path d="M83.55,60.44l0.28,0.32l-6.23,5.19l-0.27-0.33c0.59-0.49,0.95-0.91,1.07-1.24c0.119-0.34,0.119-0.7-0.011-1.11
				c-0.13-0.4-0.55-1.04-1.279-1.91l-4.091-4.91c-1.27-1.52-2.13-2.48-2.579-2.86c-0.33-0.28-0.62-0.42-0.851-0.44
				c-0.229-0.02-0.45,0.07-0.67,0.25c-0.24,0.2-0.46,0.51-0.68,0.93l-0.46-0.17l2.319-4.71l0.57-0.48l2.26,2.72l0.63,0.04
				c-0.029,0.23-0.04,0.45-0.029,0.67l5.87,7.05c0.77,0.92,1.319,1.47,1.659,1.66c0.341,0.18,0.681,0.26,1.011,0.21
				C82.4,61.28,82.89,60.99,83.55,60.44z"/>
			<path d="M91.36,54.49l-6.221,5.18l-0.279-0.32c0.67-0.56,1.06-1.04,1.149-1.43c0.101-0.39,0.04-0.81-0.17-1.26
				c-0.1-0.21-0.5-0.73-1.2-1.57l-4.71-5.66c-0.89-1.07-1.68-1.72-2.35-1.93c-0.89-0.26-1.69-0.1-2.4,0.49
				c-0.479,0.4-0.84,0.93-1.09,1.6c-0.29,0.76-0.47,1.48-0.53,2.14l-0.63-0.04C73.07,50,73.15,49.02,73.2,48.75
				c0.109-0.69,0.33-1.33,0.64-1.92c0.3-0.59,0.69-1.07,1.15-1.46c0.779-0.65,1.649-0.97,2.59-0.98c0.95,0,1.89,0.36,2.81,1.08
				l0.75,0.09c-0.02,0.17-0.04,0.35-0.05,0.54l0.101,0.18l0.52,0.62l5.23,6.28c0.8,0.96,1.34,1.51,1.63,1.67
				c0.29,0.16,0.62,0.21,1.01,0.16c0.39-0.06,0.89-0.34,1.51-0.85L91.36,54.49z"/>
			<path d="M68.86,71.01c0.779-0.64,1.39-1.979,1.85-4.01l-4.24-5.09c-1.06,1.87-1.71,3.109-1.96,3.729
				c-0.45,1.101-0.65,2.03-0.61,2.78c0.04,0.76,0.29,1.42,0.76,1.97c0.58,0.7,1.28,1.101,2.1,1.2
				C67.59,71.68,68.29,71.49,68.86,71.01z M76.26,64.34c0.01,2.18-0.46,3.67-1.43,4.48c-0.47,0.39-0.97,0.529-1.521,0.439
				c-0.54-0.1-1.149-0.529-1.81-1.31c-0.53,2.189-0.9,3.51-1.12,3.97c-0.34,0.68-0.8,1.271-1.399,1.771
				c-0.94,0.779-1.971,1.109-3.11,0.979c-1.13-0.13-2.13-0.72-3-1.75c-0.54-0.66-0.86-1.35-0.97-2.07c-0.15-1,0.04-2.21,0.55-3.63
				c0.51-1.42,1.57-3.52,3.2-6.29l-0.391-0.47c-1-1.2-1.9-1.84-2.71-1.92c-0.81-0.09-1.62,0.22-2.45,0.91
				c-0.63,0.52-1,1.09-1.12,1.71c-0.12,0.62-0.02,1.13,0.31,1.53l0.69,0.76c0.35,0.42,0.51,0.82,0.48,1.23
				c-0.02,0.4-0.21,0.74-0.55,1.03c-0.33,0.28-0.71,0.38-1.12,0.32c-0.42-0.061-0.8-0.311-1.15-0.73c-0.67-0.8-0.87-1.89-0.59-3.27
				c0.28-1.37,1.18-2.69,2.7-3.96c1.17-0.97,2.29-1.57,3.36-1.79c0.81-0.17,1.62-0.05,2.42,0.37c0.52,0.27,1.31,1.05,2.39,2.34
				l3.76,4.51c1.051,1.27,1.73,2.03,2.011,2.27c0.29,0.24,0.529,0.37,0.72,0.37c0.189,0.011,0.359-0.05,0.51-0.17
				c0.16-0.14,0.271-0.279,0.34-0.43c0.11-0.28,0.26-0.91,0.431-1.88L76.26,64.34z"/>
			<path d="M32.66,102.29c0.45,0,0.93-0.22,1.44-0.64l0.27,0.33l-6.22,5.18l-0.27-0.33c0.63-0.53,1.01-1.03,1.13-1.51
				c0.09-0.36,0.03-0.75-0.18-1.19c-0.1-0.21-0.49-0.729-1.17-1.55l-4.1-4.91c-1.36-1.65-2.21-2.6-2.52-2.87
				c-0.32-0.27-0.61-0.41-0.87-0.42c-0.27-0.01-0.51,0.07-0.74,0.26c-0.26,0.21-0.5,0.53-0.71,0.95l-0.4-0.22l2.33-4.71l0.57-0.47
				l2.75,3.3c-0.8-3.07-0.65-5.061,0.44-5.96c0.5-0.42,1.06-0.58,1.68-0.49c0.62,0.08,1.13,0.36,1.52,0.83
				c0.35,0.42,0.54,0.87,0.56,1.34s-0.12,0.83-0.42,1.08c-0.29,0.24-0.82,0.32-1.59,0.22c-0.77-0.1-1.26-0.069-1.45,0.101
				c-0.17,0.14-0.26,0.399-0.28,0.779c-0.06,0.79,0.11,1.87,0.5,3.25l5.02,6.03c0.58,0.7,1.1,1.16,1.56,1.39
				C31.82,102.22,32.2,102.3,32.66,102.29z"/>
			<path d="M33.72,89.2c1.52,1.85,3.19,2.91,5.01,3.17c1.81,0.25,3.35-0.15,4.62-1.21c0.85-0.7,1.43-1.521,1.73-2.43
				c0.31-0.91,0.17-2.141-0.39-3.681h0.55c0.94,1.53,1.35,3.17,1.22,4.931c-0.13,1.76-0.9,3.22-2.31,4.399
				c-1.53,1.28-3.35,1.771-5.45,1.46c-2.11-0.3-4.01-1.47-5.72-3.52c-1.85-2.221-2.73-4.41-2.64-6.59
				c0.09-2.171,0.98-3.961,2.67-5.37c1.43-1.19,3.03-1.67,4.79-1.431c1.76,0.25,3.35,1.21,4.76,2.9L33.72,89.2z M36.97,81.72
				c-0.69-0.359-1.39-0.5-2.11-0.43c-0.73,0.06-1.34,0.3-1.84,0.72c-0.77,0.641-1.19,1.53-1.27,2.67
				c-0.08,1.141,0.31,2.32,1.15,3.54l5.89-4.91C38.02,82.48,37.42,81.95,36.97,81.72z"/>
			<path d="M56.64,83.42l-6.22,5.18l-0.27-0.319l0.28-0.24c0.66-0.55,0.95-1.1,0.88-1.66c-0.07-0.55-0.53-1.34-1.38-2.36l-4.1-4.909
				c-1.33-1.601-2.17-2.551-2.52-2.851c-0.36-0.29-0.65-0.45-0.89-0.46c-0.24-0.01-0.47,0.07-0.69,0.26
				c-0.23,0.19-0.46,0.5-0.67,0.921l-0.47-0.171l2.32-4.71l0.58-0.47l2.21,2.65l0.78,0.05c-0.03,0.26-0.06,0.52-0.07,0.8l5.81,6.98
				c0.79,0.949,1.33,1.489,1.61,1.64c0.37,0.19,0.72,0.27,1.05,0.23c0.34-0.051,0.83-0.341,1.49-0.891L56.64,83.42z"/>
			<path d="M62.78,77.38c0.35-0.05,0.83-0.33,1.45-0.84l0.27,0.33l-6.22,5.18l-0.27-0.319l0.25-0.211
				c0.56-0.479,0.88-0.909,0.94-1.289c0.06-0.391-0.03-0.82-0.26-1.28c-0.1-0.181-0.48-0.67-1.15-1.48l-4.51-5.41
				c-1-1.199-1.89-1.939-2.66-2.22s-1.54-0.1-2.29,0.521c-1.01,0.85-1.63,2.17-1.85,3.97l-0.78-0.05
				c0.08-3.061,0.82-5.181,2.22-6.351c0.73-0.6,1.5-0.939,2.31-1.02c0.82-0.08,1.72,0.16,2.71,0.72c0.69,0.4,1.52,1.18,2.5,2.36
				l4.64,5.569c0.74,0.881,1.31,1.431,1.7,1.641C62.1,77.37,62.43,77.43,62.78,77.38z"/>
			<path d="M123.5,14.58v101.25H6.26V14.58H123.5z M118.17,110.5v-5.33H75.54v5.33H118.17z M118.17,99.84V19.91H11.59v90.59h58.62
				V99.84H118.17z"/>
		</g>
		<g>
		</g>
	</g>
</g>
</svg>
