<?xml version="1.0" encoding="utf-8"?>
<!-- Generator: Adobe Illustrator 15.1.0, SVG Export Plug-In . SVG Version: 6.00 Build 0)  -->
<!DOCTYPE svg PUBLIC "-//W3C//DTD SVG 1.1//EN" "http://www.w3.org/Graphics/SVG/1.1/DTD/svg11.dtd">
<svg version="1.1" id="Layer_1" xmlns="http://www.w3.org/2000/svg" xmlns:xlink="http://www.w3.org/1999/xlink" x="0px" y="0px"
	 width="128px" height="128px" viewBox="0 0 128 128" enable-background="new 0 0 128 128" xml:space="preserve">
<g id="LINE_144_">
	<g id="XMLID_1_">
		<g>
			<rect x="5.27" y="95.6" width="5.33" height="10.66"/>
			<rect x="5.27" y="111.59" width="5.33" height="10.66"/>
			<rect x="15.93" y="116.92" width="10.66" height="5.33"/>
			<rect x="47.91" y="116.92" width="10.66" height="5.33"/>
			<rect x="31.92" y="116.92" width="10.66" height="5.33"/>
			<rect x="63.9" y="116.92" width="10.66" height="5.33"/>
			<rect x="79.89" y="116.92" width="10.66" height="5.33"/>
			<rect x="95.88" y="116.92" width="10.66" height="5.33"/>
			<rect x="111.87" y="116.92" width="10.649" height="5.33"/>
			<rect x="116.22" y="100.93" width="5.33" height="10.66"/>
			<rect x="116.22" y="84.94" width="5.33" height="10.659"/>
			<rect x="116.22" y="68.95" width="5.33" height="10.66"/>
			<rect x="116.22" y="52.97" width="5.33" height="10.65"/>
			<rect x="116.22" y="36.98" width="5.33" height="10.66"/>
			<rect x="116.22" y="20.99" width="5.33" height="10.66"/>
			<rect x="100.24" y="5" width="10.649" height="5.33"/>
			<rect x="116.22" y="5" width="5.33" height="10.66"/>
			<rect x="85.22" y="5" width="10.66" height="5.33"/>
			<rect x="69.23" y="5" width="10.659" height="5.33"/>
			<rect x="53.24" y="5" width="10.66" height="5.33"/>
			<rect x="37.25" y="5" width="10.66" height="5.33"/>
			<rect x="21.26" y="5" width="10.66" height="5.33"/>
			<rect x="5.27" y="5" width="10.66" height="5.33"/>
			<rect x="5.27" y="15.66" width="5.33" height="10.66"/>
			<rect x="5.27" y="31.65" width="5.33" height="10.66"/>
			<rect x="5.27" y="47.64" width="5.33" height="10.66"/>
			<rect x="5.27" y="63.62" width="5.33" height="10.66"/>
			<rect x="5.27" y="79.61" width="5.33" height="10.659"/>
			<polygon points="47.91,106.26 21.26,106.26 21.26,79.61 32.7,91.05 40.7,83.06 44.47,86.83 36.47,94.82 			"/>
			<polygon points="106.54,79.61 106.54,106.26 79.89,106.26 91.33,94.82 88.66,92.16 92.43,88.39 95.1,91.05 			"/>
			<polygon points="106.54,20.99 106.54,47.64 95.1,36.2 87.1,44.19 83.33,40.42 91.33,32.43 79.89,20.99 			"/>
			<path d="M74.79,43.74c7.25,3.84,11.39,11.74,10.43,19.88C82.73,57.28,77.88,52.14,71.69,49.3L74.79,43.74z"/>
			<path d="M70.8,42.15l-2.88,5.76c-6.09-1.73-12.59-1.21-18.32,1.47C54.5,42.84,62.92,39.97,70.8,42.15z"/>
			<polygon points="47.91,20.99 36.47,32.43 44.47,40.42 40.7,44.19 32.7,36.2 21.26,47.64 21.26,20.99 			"/>
			<path d="M63.9,90.3c14.73,0,26.67-11.939,26.67-26.68c0-14.72-11.94-26.67-26.67-26.67S37.23,48.9,37.23,63.62
				C37.23,78.36,49.17,90.3,63.9,90.3z M63.9,34.31c16.19,0,29.31,13.13,29.31,29.31c0,6.86-2.4,13.5-6.79,18.76l6.01,6.01
				l-3.77,3.771l-6-6.01c-5.271,4.39-11.91,6.79-18.76,6.79c-16.19,0-29.31-13.131-29.31-29.32C34.59,47.44,47.71,34.31,63.9,34.31z
				"/>
		</g>
		<g>
		</g>
	</g>
</g>
</svg>
