<?xml version="1.0" encoding="utf-8"?>
<!-- Generator: Adobe Illustrator 15.1.0, SVG Export Plug-In . SVG Version: 6.00 Build 0)  -->
<!DOCTYPE svg PUBLIC "-//W3C//DTD SVG 1.1//EN" "http://www.w3.org/Graphics/SVG/1.1/DTD/svg11.dtd">
<svg version="1.1" id="Layer_1" xmlns="http://www.w3.org/2000/svg" xmlns:xlink="http://www.w3.org/1999/xlink" x="0px" y="0px"
	 width="128px" height="128px" viewBox="0 0 128 128" enable-background="new 0 0 128 128" xml:space="preserve">
<g id="LINE_79_">
	<g id="XMLID_1_">
		<g>
			<rect x="16.2" y="85.53" width="5.42" height="10.83"/>
			<polygon points="27.03,106.21 27.03,111.63 16.2,111.63 16.2,100.79 21.62,100.79 21.62,106.21 			"/>
			<rect x="32.45" y="106.21" width="10.84" height="5.42"/>
			<rect x="86.11" y="106.68" width="10.84" height="5.42"/>
			<polygon points="112.22,101.26 112.22,112.1 101.38,112.1 101.38,106.68 106.8,106.68 106.8,101.26 			"/>
			<rect x="106.8" y="85" width="5.42" height="10.84"/>
			<rect x="106.8" y="31.87" width="5.42" height="10.83"/>
			<polygon points="112.22,15.61 112.22,26.45 106.8,26.45 106.8,21.03 101.38,21.03 101.38,15.61 			"/>
			<rect x="86.11" y="15.61" width="10.84" height="5.42"/>
			<polygon points="124.04,64.38 102.37,80.63 102.37,69.79 69.86,69.79 69.86,102.3 80.69,102.3 64.44,123.98 48.18,102.3 
				59.02,102.3 59.02,69.79 26.51,69.79 26.51,80.63 4.84,64.38 26.51,48.12 26.51,58.96 59.02,58.96 59.02,26.45 48.18,26.45 
				64.44,4.77 80.69,26.45 69.86,26.45 69.86,58.96 102.37,58.96 102.37,48.12 			"/>
			<rect x="31.93" y="15.61" width="10.84" height="5.42"/>
			<polygon points="27.5,15.61 27.5,21.03 22.08,21.03 22.08,26.45 16.66,26.45 16.66,15.61 			"/>
			<rect x="16.66" y="31.87" width="5.42" height="10.83"/>
		</g>
		<g>
		</g>
	</g>
</g>
</svg>
