<?xml version="1.0" encoding="utf-8"?>
<!-- Generator: Adobe Illustrator 15.1.0, SVG Export Plug-In . SVG Version: 6.00 Build 0)  -->
<!DOCTYPE svg PUBLIC "-//W3C//DTD SVG 1.1//EN" "http://www.w3.org/Graphics/SVG/1.1/DTD/svg11.dtd">
<svg version="1.1" id="Layer_1" xmlns="http://www.w3.org/2000/svg" xmlns:xlink="http://www.w3.org/1999/xlink" x="0px" y="0px"
	 width="128px" height="128px" viewBox="0 0 128 128" enable-background="new 0 0 128 128" xml:space="preserve">
<g id="LINE_89_">
	<g id="XMLID_1_">
		<g>
			<path d="M122.25,12.97V117.93H6.79V12.97H122.25z M117,112.68v-5.239H75.02v5.239H117z M117,102.19V18.22H12.04v94.459H69.77
				V102.19H117z"/>
			<rect x="22.54" y="70.7" width="5.24" height="10.5"/>
			<rect x="22.54" y="86.44" width="5.24" height="10.5"/>
			<rect x="33.03" y="91.69" width="10.5" height="5.25"/>
			<rect x="48.78" y="91.69" width="10.49" height="5.25"/>
			<rect x="64.52" y="91.69" width="10.5" height="5.25"/>
			<rect x="80.27" y="91.69" width="10.49" height="5.25"/>
			<rect x="84.56" y="75.95" width="5.25" height="10.49"/>
			<rect x="84.56" y="60.2" width="5.25" height="10.5"/>
			<rect x="84.56" y="44.46" width="5.25" height="10.5"/>
			<rect x="84.56" y="28.71" width="5.25" height="10.5"/>
			<rect x="68.81" y="28.71" width="10.5" height="5.25"/>
			<polygon points="77.64,57.58 77.64,68.08 61.9,68.08 61.9,83.82 51.4,83.82 51.4,68.08 35.66,68.08 35.66,57.58 51.4,57.58 
				51.4,41.84 61.9,41.84 61.9,57.58 			"/>
			<rect x="54.03" y="28.71" width="10.49" height="5.25"/>
			<rect x="38.28" y="28.71" width="10.5" height="5.25"/>
			<rect x="22.54" y="28.71" width="10.49" height="5.25"/>
			<rect x="22.54" y="54.96" width="5.24" height="10.49"/>
			<rect x="22.54" y="39.21" width="5.24" height="10.5"/>
		</g>
		<g>
		</g>
	</g>
</g>
</svg>
