<?xml version="1.0" encoding="utf-8"?>
<!-- Generator: Adobe Illustrator 16.0.0, SVG Export Plug-In . SVG Version: 6.00 Build 0)  -->
<!DOCTYPE svg PUBLIC "-//W3C//DTD SVG 1.1//EN" "http://www.w3.org/Graphics/SVG/1.1/DTD/svg11.dtd">
<svg version="1.1" id="Layer_1" xmlns="http://www.w3.org/2000/svg" xmlns:xlink="http://www.w3.org/1999/xlink" x="0px" y="0px"
	 width="32px" height="32px" viewBox="0 0 32 32" enable-background="new 0 0 32 32" xml:space="preserve">
<g id="LINE_20_">
	<g id="XMLID_1_">
		<g>
			<polygon points="14.709961,16.450195 17.389648,22.419922 14.910156,23.450195 12.22998,17.469727 9.02002,20.69043 
				9.02002,6.209961 19.25,16.450195 			"/>
			<path d="M28.070313,23.240234V5.140137H9.02002H3.930176v20.510254h10.97998h4.709961v-2.410156H28.070313z M28.070313,25.650391
				v-1.200195h-7.240234v1.200195H28.070313z M29.269531,3.930176v22.930176H2.72998V3.930176H29.269531z"/>
			<rect x="20.830078" y="24.450195" fill="#B0AFB0" width="7.240234" height="1.200195"/>
			<polygon fill="#B0AFB0" points="19.620117,23.240234 19.620117,25.650391 14.910156,25.650391 14.910156,23.450195 
				17.389648,22.419922 14.709961,16.450195 19.25,16.450195 9.02002,6.209961 9.02002,5.140137 28.070313,5.140137 
				28.070313,23.240234 			"/>
			<polygon fill="#B0AFB0" points="14.910156,23.450195 14.910156,25.650391 3.930176,25.650391 3.930176,5.140137 
				9.02002,5.140137 9.02002,6.209961 9.02002,20.69043 12.22998,17.469727 			"/>
		</g>
		<g>
		</g>
	</g>
</g>
</svg>
