<?xml version="1.0" encoding="utf-8"?>
<!-- Generator: Adobe Illustrator 15.1.0, SVG Export Plug-In . SVG Version: 6.00 Build 0)  -->
<!DOCTYPE svg PUBLIC "-//W3C//DTD SVG 1.1//EN" "http://www.w3.org/Graphics/SVG/1.1/DTD/svg11.dtd">
<svg version="1.1" id="Layer_1" xmlns="http://www.w3.org/2000/svg" xmlns:xlink="http://www.w3.org/1999/xlink" x="0px" y="0px"
	 width="128px" height="128px" viewBox="0 0 128 128" enable-background="new 0 0 128 128" xml:space="preserve">
<g id="LINE_119_">
	<g id="XMLID_1_">
		<g>
			<rect x="5.35" y="16.37" width="5.36" height="10.71"/>
			<rect x="5.35" y="32.44" width="5.36" height="10.71"/>
			<rect x="5.35" y="48.51" width="5.36" height="10.71"/>
			<rect x="5.35" y="64.58" width="5.36" height="10.71"/>
			<rect x="5.35" y="80.65" width="5.36" height="10.71"/>
			<rect x="5.35" y="96.72" width="5.36" height="10.71"/>
			<rect x="5.35" y="112.79" width="5.36" height="10.71"/>
			<rect x="16.07" y="118.14" width="10.71" height="5.36"/>
			<rect x="32.14" y="118.14" width="10.71" height="5.36"/>
			<rect x="48.21" y="118.14" width="10.71" height="5.36"/>
			<rect x="64.28" y="118.14" width="10.71" height="5.36"/>
			<rect x="80.35" y="118.14" width="10.71" height="5.36"/>
			<rect x="96.42" y="118.14" width="10.71" height="5.36"/>
			<rect x="112.49" y="118.14" width="10.71" height="5.36"/>
			<rect x="116.87" y="102.07" width="5.35" height="10.72"/>
			<rect x="116.87" y="86" width="5.35" height="10.72"/>
			<rect x="116.87" y="69.93" width="5.35" height="10.721"/>
			<rect x="116.87" y="53.86" width="5.35" height="10.72"/>
			<rect x="116.87" y="37.79" width="5.35" height="10.72"/>
			<rect x="116.87" y="21.72" width="5.35" height="10.72"/>
			<rect x="116.87" y="5.65" width="5.35" height="10.72"/>
			<rect x="100.8" y="5.65" width="10.71" height="5.36"/>
			<rect x="85.7" y="5.65" width="10.72" height="5.36"/>
			<rect x="69.63" y="5.65" width="10.72" height="5.36"/>
			<rect x="53.56" y="5.65" width="10.72" height="5.36"/>
			<rect x="37.49" y="5.65" width="10.72" height="5.36"/>
			<rect x="5.35" y="5.65" width="10.72" height="5.36"/>
			<rect x="21.42" y="5.65" width="10.72" height="5.36"/>
			<path d="M104.5,85.77c-2.68,4.61-4.92,7.62-6.72,9.03c-1.79,1.42-4.24,2.12-7.33,2.12c-6.75,0-15.53-5.4-26.34-16.21l-3.78-3.729
				l-2.01,2.31C48.3,91.04,40.51,96.92,34.95,96.92c-4.18,0-8.44-3.43-12.78-10.29c1.5,0,2.65,0,3.45,0c7.03,0,15-5.12,23.94-15.36
				l3.13-3.51l-2.25-2.81C39.6,51.93,34.17,42.79,34.17,37.53c0-3.77,2.96-8.55,8.87-14.36c2.47,11.34,7.62,22.06,15.44,32.16
				l1.77,2.3l3.38-4.31C74.65,38.94,83.42,31.75,89.95,31.75c3.21,0,5.859,1.66,7.95,4.98c0.38,0.57,0.92,1.37,1.609,2.38
				c-8.31,3.95-17.6,11.93-27.87,23.94l-3.3,3.88l2.41,2.79c9.76,11.271,18.76,16.91,26.99,16.91
				C100.16,86.63,102.41,86.34,104.5,85.77z"/>
		</g>
		<g>
		</g>
	</g>
</g>
</svg>
