<?xml version="1.0" encoding="utf-8"?>
<!-- Generator: Adobe Illustrator 15.1.0, SVG Export Plug-In . SVG Version: 6.00 Build 0)  -->
<!DOCTYPE svg PUBLIC "-//W3C//DTD SVG 1.1//EN" "http://www.w3.org/Graphics/SVG/1.1/DTD/svg11.dtd">
<svg version="1.1" id="Layer_1" xmlns="http://www.w3.org/2000/svg" xmlns:xlink="http://www.w3.org/1999/xlink" x="0px" y="0px"
	 width="128px" height="128px" viewBox="0 0 128 128" enable-background="new 0 0 128 128" xml:space="preserve">
<g id="SPLINE_14_">
	<g id="XMLID_1_">
		<g>
			<path d="M122.5,13.7v99.819H6.92V13.7H122.5z M117.25,108.27v-5.26H75.22v5.26H117.25z M117.25,97.76v-78.8H12.17v89.31h57.79
				V97.76H117.25z"/>
			<path d="M104.67,84.69c-2.63,4.52-4.83,7.47-6.59,8.859c-1.76,1.38-4.15,2.08-7.19,2.08c-6.62,0-15.229-5.31-25.83-15.91
				L61.35,76.07l-1.97,2.26c-9.83,11.53-17.47,17.3-22.92,17.3c-4.1,0-8.28-3.37-12.54-10.1c1.47,0,2.6,0,3.39,0
				c6.89,0,14.71-5.021,23.47-15.061l3.08-3.439l-2.21-2.76C41.01,51.49,35.7,42.53,35.7,37.38c0-3.7,2.9-8.4,8.7-14.09
				c2.41,11.13,7.46,21.64,15.14,31.54l1.73,2.26l3.31-4.23C75.39,38.75,84,31.7,90.39,31.7c3.16,0,5.761,1.63,7.811,4.89
				c0.37,0.56,0.89,1.34,1.58,2.34C91.63,42.8,82.52,50.63,72.44,62.4l-3.23,3.81l2.37,2.74C81.14,80,89.96,85.53,98.04,85.53
				C100.41,85.53,102.62,85.25,104.67,84.69z"/>
		</g>
		<g>
		</g>
	</g>
</g>
</svg>
