<?xml version="1.0" encoding="utf-8"?>
<!-- Generator: Adobe Illustrator 15.1.0, SVG Export Plug-In . SVG Version: 6.00 Build 0)  -->
<!DOCTYPE svg PUBLIC "-//W3C//DTD SVG 1.1//EN" "http://www.w3.org/Graphics/SVG/1.1/DTD/svg11.dtd">
<svg version="1.1" id="Layer_1" xmlns="http://www.w3.org/2000/svg" xmlns:xlink="http://www.w3.org/1999/xlink" x="0px" y="0px"
	 width="128px" height="128px" viewBox="0 0 128 128" enable-background="new 0 0 128 128" xml:space="preserve">
<g id="LINE_19_">
	<g id="XMLID_1_">
		<g>
			<polygon points="121.89,3.09 121.89,69.44 116.36,69.44 116.36,36.26 116.36,3.09 			"/>
			<polygon points="124.66,99.85 99.78,124.73 99.78,108.14 77.66,108.14 77.66,91.55 99.78,91.55 99.78,74.97 			"/>
			<polygon points="50.01,91.55 50.01,108.14 27.9,108.14 27.9,124.73 3.02,99.85 27.9,74.97 27.9,91.55 			"/>
			<path d="M16.84,3.09c14.74,19.66,14.74,46.69,0,66.351C1.72,49.91,1.72,22.62,16.84,3.09z"/>
			<path d="M116.36,36.26l-84.28,28.1c9.17-17.61,9.17-38.58,0-56.19L116.36,36.26z"/>
		</g>
		<g>
		</g>
	</g>
</g>
</svg>
