<?xml version="1.0" encoding="utf-8"?>
<!-- Generator: Adobe Illustrator 15.1.0, SVG Export Plug-In . SVG Version: 6.00 Build 0)  -->
<!DOCTYPE svg PUBLIC "-//W3C//DTD SVG 1.1//EN" "http://www.w3.org/Graphics/SVG/1.1/DTD/svg11.dtd">
<svg version="1.1" id="Layer_1" xmlns="http://www.w3.org/2000/svg" xmlns:xlink="http://www.w3.org/1999/xlink" x="0px" y="0px"
	 width="128px" height="128px" viewBox="0 0 128 128" enable-background="new 0 0 128 128" xml:space="preserve">
<g id="ARC_3_">
	<g id="XMLID_1_">
		<g>
			<rect x="6.02" y="114.15" width="117.71" height="5.35"/>
			<path d="M42.53,88.74c0.09,0.6-0.07,1.52-0.47,2.76l42.02-42.67c-0.68-1.57-1.38-2.92-2.08-4.05L39.88,86.86
				c0.82-0.07,1.44,0.05,1.87,0.37C42.18,87.55,42.44,88.06,42.53,88.74z M75.2,37.76c-1.37-0.77-2.7-1.33-3.98-1.7L29.18,78.28
				c0.65-0.28,1.19-0.45,1.63-0.511c1.59-0.22,2.49,0.44,2.7,1.971l0.02,0.609L75.2,37.76z M39.26,83.85L80.43,42.47
				c-0.739-1.17-1.689-2.17-2.85-3.01L35.92,81.21C37.92,81.33,39.04,82.21,39.26,83.85z M23.05,81.12l66.5-67.57
				c1.34-1.76,3.63-2.51,5.75-1.9c6.431,1.87,10.79,6.16,13.08,12.87c0.65,1.92,0.17,4.04-1.25,5.48L40.51,97.85l-1.19,0.521
				l-1.06-2.43c1.45-2.431,2.1-4.171,1.95-5.23c-0.06-0.44-0.22-0.74-0.48-0.91c-0.26-0.17-0.63-0.22-1.12-0.149
				c-1.04,0.14-2.72,1.029-5.07,2.649c2.44-3.12,3.53-5.59,3.28-7.399c-0.13-0.9-0.44-1.551-0.94-1.95c-0.5-0.4-1.22-0.53-2.14-0.4
				c-0.97,0.13-2.82,1.28-5.54,3.46c2.12-1.92,3.1-3.479,2.93-4.7c-0.04-0.319-0.19-0.55-0.43-0.68c-0.25-0.14-0.61-0.17-1.09-0.1
				c-1.68,0.229-3.42,0.87-5.2,1.93L23.05,81.12z M90.66,16.53l0.01,0.01L80.19,26.96c6.13,2.24,10.34,6.54,12.64,12.92l10.5-10.53
				l-0.03-0.03c1.66-1.67,2.03-4.23,0.92-6.3c-1.779-3.32-4.2-5.79-7.279-7.42C94.87,14.5,92.32,14.88,90.66,16.53z"/>
			<polygon points="8.16,112.01 22.69,81.48 23.05,81.12 24.41,82.46 16.95,100 20.67,103.5 38.26,95.94 39.32,98.37 			"/>
		</g>
		<g>
		</g>
	</g>
</g>
</svg>
