<?xml version="1.0" encoding="utf-8"?>
<!-- Generator: Adobe Illustrator 15.1.0, SVG Export Plug-In . SVG Version: 6.00 Build 0)  -->
<!DOCTYPE svg PUBLIC "-//W3C//DTD SVG 1.1//EN" "http://www.w3.org/Graphics/SVG/1.1/DTD/svg11.dtd">
<svg version="1.1" id="Layer_1" xmlns="http://www.w3.org/2000/svg" xmlns:xlink="http://www.w3.org/1999/xlink" x="0px" y="0px"
	 width="128px" height="128px" viewBox="0 0 128 128" enable-background="new 0 0 128 128" xml:space="preserve">
<g id="LINE_32_">
	<g id="XMLID_1_">
		<g>
			<polygon points="105.61,78.69 90.46,93.83 57.04,60.41 52.19,60.41 52.19,113.95 46.84,113.95 46.84,55.05 59.26,55.05 
				90.46,86.26 98.04,78.69 63.69,44.34 36.13,44.34 36.13,113.95 30.77,113.95 30.77,38.99 65.91,38.99 			"/>
			<polygon points="124.54,59.76 109.4,74.9 68.13,33.63 25.42,33.63 25.42,113.95 20.06,113.95 20.06,28.28 70.35,28.28 
				109.4,67.33 116.97,59.76 74.78,17.57 9.35,17.57 9.35,113.95 4,113.95 4,12.22 77,12.22 			"/>
		</g>
		<g>
		</g>
	</g>
</g>
</svg>
