<?xml version="1.0" encoding="utf-8"?>
<!-- Generator: Adobe Illustrator 15.1.0, SVG Export Plug-In . SVG Version: 6.00 Build 0)  -->
<!DOCTYPE svg PUBLIC "-//W3C//DTD SVG 1.1//EN" "http://www.w3.org/Graphics/SVG/1.1/DTD/svg11.dtd">
<svg version="1.1" id="Layer_1" xmlns="http://www.w3.org/2000/svg" xmlns:xlink="http://www.w3.org/1999/xlink" x="0px" y="0px"
	 width="128px" height="128px" viewBox="0 0 128 128" enable-background="new 0 0 128 128" xml:space="preserve">
<g id="LINE_39_">
	<g id="XMLID_1_">
		<g>
			<rect x="58.85" y="98.64" fill="#FFFFFF" width="17.12" height="17.13"/>
			<path d="M81.69,92.93v28.551H53.14V92.93H81.69z M75.97,115.77V98.64H58.85v17.13H75.97z"/>
			<rect x="64.56" y="83.18" width="5.709" height="5.71"/>
			<rect x="64.56" y="71.76" width="5.709" height="5.71"/>
			<rect x="64.56" y="60.34" width="5.709" height="5.71"/>
			<rect x="64.56" y="48.93" width="5.709" height="5.7"/>
			<rect x="64.56" y="37.51" width="5.709" height="5.71"/>
			<polygon points="123.16,7.48 124.73,12.97 91.9,22.35 81.03,19.52 			"/>
			<polygon points="119.71,35.51 118.27,41.03 2.25,10.77 3.69,5.24 			"/>
			<polygon points="59.51,31.61 9.44,45.91 7.87,40.42 48.65,28.77 			"/>
		</g>
		<g>
		</g>
	</g>
</g>
</svg>
