<?xml version="1.0" encoding="utf-8"?>
<!-- Generator: Adobe Illustrator 15.1.0, SVG Export Plug-In . SVG Version: 6.00 Build 0)  -->
<!DOCTYPE svg PUBLIC "-//W3C//DTD SVG 1.1//EN" "http://www.w3.org/Graphics/SVG/1.1/DTD/svg11.dtd">
<svg version="1.1" id="Layer_1" xmlns="http://www.w3.org/2000/svg" xmlns:xlink="http://www.w3.org/1999/xlink" x="0px" y="0px"
	 width="128px" height="128px" viewBox="0 0 128 128" enable-background="new 0 0 128 128" xml:space="preserve">
<g id="LINE_19_">
	<g id="XMLID_1_">
		<g>
			<path d="M124.86,58.45V69.68H110.4C107.8,91.56,90.56,108.8,68.68,111.4v14.46H57.45V111.4C35.58,108.8,18.33,91.56,15.73,69.68
				H1.27V58.45h14.46c1.26-10.63,6.06-20.52,13.63-28.09c7.57-7.57,17.46-12.37,28.09-13.63V2.27H68.68v14.46
				c21.88,2.6,39.12,19.85,41.721,41.72H124.86z M85.54,58.45h19.2C102.21,39.68,87.45,24.92,68.68,22.4v19.2
				C76.98,43.67,83.46,50.15,85.54,58.45z M104.74,69.68h-19.2c-2.08,8.301-8.56,14.78-16.86,16.86v19.2
				C87.45,103.21,102.21,88.45,104.74,69.68z M80.61,64.07c0-9.69-7.851-17.55-17.541-17.55s-17.55,7.86-17.55,17.55
				S53.38,81.61,63.07,81.61S80.61,73.76,80.61,64.07z M57.45,105.74v-19.2c-8.3-2.08-14.78-8.56-16.85-16.86H21.4
				C23.92,88.45,38.68,103.21,57.45,105.74z M57.45,41.6V22.4c-9.13,1.23-17.6,5.42-24.12,11.93c-6.51,6.52-10.7,14.99-11.93,24.12
				h19.2C42.67,50.15,49.15,43.67,57.45,41.6z"/>
		</g>
		<g>
		</g>
	</g>
</g>
</svg>
