<?xml version="1.0" encoding="utf-8"?>
<!-- Generator: Adobe Illustrator 15.1.0, SVG Export Plug-In . SVG Version: 6.00 Build 0)  -->
<!DOCTYPE svg PUBLIC "-//W3C//DTD SVG 1.1//EN" "http://www.w3.org/Graphics/SVG/1.1/DTD/svg11.dtd">
<svg version="1.1" id="Layer_1" xmlns="http://www.w3.org/2000/svg" xmlns:xlink="http://www.w3.org/1999/xlink" x="0px" y="0px"
	 width="128px" height="128px" viewBox="0 0 128 128" enable-background="new 0 0 128 128" xml:space="preserve">
<g id="LINE_66_">
	<g id="XMLID_1_">
		<g>
			<rect x="100.95" y="38.32" fill="#FFFFFF" width="17.14" height="17.15"/>
			<path d="M123.81,32.61v28.58H95.23V32.61H123.81z M118.09,55.47V38.32h-17.14v17.15H118.09z"/>
			<path d="M89.52,102.86v22.87H38.08v-22.87H89.52z M83.8,120.01v-11.43h-40v11.43H83.8z"/>
			<path d="M27.79,120.58v5.15H4.36v-4.58l10.06-12.29c1.64-2.011,2.87-3.44,3.66-4.28c-0.82,0-1.89,0-3.22,0H5.5v-5.14h21.15v4.569
				l-10.14,12.45l-3.58,4.12c2,0,3.24,0,3.72,0H27.79z"/>
			<path d="M30.08,48l-8.89,25.19l-1.66,4.68c-0.57,1.45-1.11,2.56-1.63,3.33c-0.51,0.77-1.11,1.39-1.78,1.87
				c-0.67,0.47-1.5,0.84-2.48,1.109c-0.98,0.261-2.08,0.4-3.31,0.4c-1.25,0-2.48-0.13-3.68-0.4L6.08,79.1
				c1,0.221,1.91,0.33,2.72,0.33c1.49,0,2.59-0.479,3.31-1.449c0.72-0.971,1.26-2.2,1.65-3.69L4.36,48h6.86l6,18.61l6-18.61H30.08z"
				/>
			<path d="M89.52,54.29v22.86H38.08V54.29H89.52z M83.8,71.43V60h-40v11.43H83.8z"/>
			<path d="M89.52,5.71v22.86H38.08V5.71H89.52z M83.8,22.85V11.42h-40v11.43H83.8z"/>
			<polygon points="21.41,14.73 30.94,28.57 22.78,28.57 17.34,20.42 12.23,28.57 4.08,28.57 13.36,15.03 5.22,2.28 13.37,2.28 
				17.34,9.5 21.64,2.28 29.79,2.28 			"/>
		</g>
		<g>
		</g>
	</g>
</g>
</svg>
