<?xml version="1.0" encoding="utf-8"?>
<!-- Generator: Adobe Illustrator 15.1.0, SVG Export Plug-In . SVG Version: 6.00 Build 0)  -->
<!DOCTYPE svg PUBLIC "-//W3C//DTD SVG 1.1//EN" "http://www.w3.org/Graphics/SVG/1.1/DTD/svg11.dtd">
<svg version="1.1" id="Layer_1" xmlns="http://www.w3.org/2000/svg" xmlns:xlink="http://www.w3.org/1999/xlink" x="0px" y="0px"
	 width="128px" height="128px" viewBox="0 0 128 128" enable-background="new 0 0 128 128" xml:space="preserve">
<g id="LINE_62_">
	<g id="XMLID_1_">
		<g>
			<path d="M27.3,22.71v5.27H3.32V23.3l10.29-12.59c1.69-2.05,2.94-3.51,3.75-4.38c-0.84,0-1.93,0-3.29,0H4.49V1.07h21.64v4.68
				L15.75,18.49l-3.66,4.22c2.05,0,3.32,0,3.81,0H27.3z"/>
			<polygon points="116.28,110.79 126.03,124.96 117.69,124.96 112.11,116.62 106.88,124.96 98.53,124.96 108.04,111.1 99.7,98.04 
				108.05,98.04 112.11,105.44 116.51,98.04 124.86,98.04 			"/>
			<path d="M105.7,30.32L96.6,56.11L94.9,60.9c-0.58,1.49-1.141,2.62-1.66,3.41c-0.53,0.78-1.141,1.42-1.83,1.91
				c-0.69,0.49-1.53,0.87-2.53,1.141c-1.01,0.27-2.14,0.399-3.399,0.399c-1.28,0-2.53-0.13-3.771-0.399l-0.58-5.2
				c1.03,0.23,1.96,0.34,2.79,0.34c1.521,0,2.65-0.5,3.38-1.49c0.74-0.99,1.3-2.25,1.69-3.78l-9.62-26.91h7.02l6.15,19.05
				l6.14-19.05H105.7z"/>
			<polygon points="72.94,51.38 77.07,55.52 71.22,61.37 67.09,57.23 			"/>
			<polygon points="61.24,63.08 65.37,67.22 59.52,73.07 55.39,68.93 			"/>
			<polygon points="49.54,74.78 53.67,78.92 47.82,84.77 43.69,80.64 			"/>
			<polygon points="41.97,90.62 36.12,96.47 31.98,92.34 37.83,86.49 			"/>
			<path d="M96.34,108.17v5.86H31.98v11.7H2.73V96.47h11.7V33.83h5.85v62.64h11.7v11.7H96.34z M26.13,119.88v-17.56H8.58v17.56
				H26.13z"/>
			<rect x="8.58" y="102.32" fill="#FFFFFF" width="17.55" height="17.56"/>
		</g>
		<g>
		</g>
	</g>
</g>
</svg>
