<?xml version="1.0" encoding="utf-8"?>
<!-- Generator: Adobe Illustrator 15.1.0, SVG Export Plug-In . SVG Version: 6.00 Build 0)  -->
<!DOCTYPE svg PUBLIC "-//W3C//DTD SVG 1.1//EN" "http://www.w3.org/Graphics/SVG/1.1/DTD/svg11.dtd">
<svg version="1.1" id="Layer_1" xmlns="http://www.w3.org/2000/svg" xmlns:xlink="http://www.w3.org/1999/xlink" x="0px" y="0px"
	 width="128px" height="128px" viewBox="0 0 128 128" enable-background="new 0 0 128 128" xml:space="preserve">
<g id="LINE_75_">
	<g id="XMLID_1_">
		<g>
			<polygon points="126.28,52.29 126.28,60.28 60.83,125.73 52.84,125.73 58.49,120.08 			"/>
			<rect x="52.84" y="80.53" width="5.65" height="5.649"/>
			<rect x="52.84" y="91.83" width="5.65" height="5.65"/>
			<rect x="52.84" y="103.13" width="5.65" height="5.65"/>
			<rect x="52.84" y="114.43" width="5.65" height="5.65"/>
			<rect x="2.825" y="105.129" transform="matrix(0.7071 -0.7071 0.7071 0.7071 -74.3317 36.4369)" width="7.99" height="5.642"/>
			<polygon points="24.6,86.18 28.59,90.18 22.94,95.83 18.95,91.83 			"/>
			<polygon points="39.89,78.88 34.24,84.53 30.25,80.53 35.89,74.88 			"/>
			<polygon points="18.95,91.83 18.95,125.73 13.3,125.73 13.3,1.45 18.95,1.45 			"/>
			<polygon points="113.33,5.44 107.68,11.09 103.68,7.09 109.33,1.45 			"/>
			<polygon points="98.04,12.74 102.03,16.74 96.38,22.39 92.38,18.39 			"/>
			<polygon points="86.74,24.04 90.73,28.04 85.08,33.69 81.09,29.69 			"/>
			<rect x="70.615" y="37.339" transform="matrix(0.7071 -0.7071 0.7071 0.7071 -6.5437 64.5233)" width="7.99" height="5.643"/>
			<rect x="52.84" y="1.45" width="5.65" height="5.64"/>
			<rect x="52.84" y="12.74" width="5.65" height="5.65"/>
			<rect x="52.84" y="24.04" width="5.65" height="5.65"/>
			<rect x="52.84" y="35.34" width="5.65" height="5.65"/>
			<path d="M69.79,44.98v28.25H41.54V44.98H69.79z M64.14,67.58V50.63H47.19v16.95H64.14z"/>
		</g>
		<g>
		</g>
	</g>
</g>
</svg>
