<?xml version="1.0" encoding="utf-8"?>
<!-- Generator: Adobe Illustrator 15.1.0, SVG Export Plug-In . SVG Version: 6.00 Build 0)  -->
<!DOCTYPE svg PUBLIC "-//W3C//DTD SVG 1.1//EN" "http://www.w3.org/Graphics/SVG/1.1/DTD/svg11.dtd">
<svg version="1.1" id="Layer_1" xmlns="http://www.w3.org/2000/svg" xmlns:xlink="http://www.w3.org/1999/xlink" x="0px" y="0px"
	 width="128px" height="128px" viewBox="0 0 128 128" enable-background="new 0 0 128 128" xml:space="preserve">
<g id="LINE_45_">
	<g id="XMLID_1_">
		<g>
			<polygon points="39.82,1.27 43.84,5.3 35.79,13.35 43.84,21.41 39.82,25.43 31.76,17.38 23.71,25.43 19.69,21.41 27.74,13.35 
				19.69,5.3 23.71,1.27 31.76,9.33 			"/>
			<polygon points="64.67,42.23 60.64,46.25 54.54,40.16 58.57,36.13 			"/>
			<polygon points="69.96,47.52 76.05,53.62 72.03,57.64 65.93,51.54 			"/>
			<path d="M122.04,36.96l4.02,4.03L105.1,61.96v25.42H79.68L40.65,126.4l-4.03-4.03l40.01-40V58.91h23.46L122.04,36.96z
				 M99.4,81.68V64.6H82.32v17.08H99.4z"/>
			<rect x="64.26" y="70.29" width="5.7" height="5.7"/>
			<rect x="52.87" y="70.29" width="5.7" height="5.7"/>
			<rect x="1.63" y="70.29" width="45.55" height="5.7"/>
		</g>
		<g>
		</g>
	</g>
</g>
</svg>
