<?xml version="1.0" encoding="utf-8"?>
<!-- Generator: Adobe Illustrator 15.1.0, SVG Export Plug-In . SVG Version: 6.00 Build 0)  -->
<!DOCTYPE svg PUBLIC "-//W3C//DTD SVG 1.1//EN" "http://www.w3.org/Graphics/SVG/1.1/DTD/svg11.dtd">
<svg version="1.1" id="Layer_1" xmlns="http://www.w3.org/2000/svg" xmlns:xlink="http://www.w3.org/1999/xlink" x="0px" y="0px"
	 width="128px" height="128px" viewBox="0 0 128 128" enable-background="new 0 0 128 128" xml:space="preserve">
<g id="LINE_19_">
	<g id="XMLID_1_">
		<g>
			<path d="M126,5.99L99.72,32.28c11.8,13.38,15.261,32.19,9,48.9l-5.649-2.12c5.43-14.49,2.51-30.8-7.63-42.5L78.59,53.4v25.92
				H52.68L35.83,96.16c7.68,6.66,17.51,10.32,27.67,10.32v6.039c-11.76,0-23.12-4.3-31.95-12.079L5.27,126.73L1,122.46l26.28-26.29
				c-16.1-18.25-16.1-45.64,0-63.89c17.65-20,48.17-21.91,68.17-4.27l26.28-26.28L126,5.99z M74.32,49.13l16.85-16.84
				c-17.64-15.28-44.33-13.37-59.61,4.27c-13.76,15.88-13.76,39.45,0,55.33l16.85-16.84V49.13H74.32z M72.55,73.28V55.17h-18.1
				v18.11H72.55z"/>
		</g>
		<g>
		</g>
	</g>
</g>
</svg>
