<?xml version="1.0" encoding="utf-8"?>
<!-- Generator: Adobe Illustrator 15.1.0, SVG Export Plug-In . SVG Version: 6.00 Build 0)  -->
<!DOCTYPE svg PUBLIC "-//W3C//DTD SVG 1.1//EN" "http://www.w3.org/Graphics/SVG/1.1/DTD/svg11.dtd">
<svg version="1.1" id="Layer_1" xmlns="http://www.w3.org/2000/svg" xmlns:xlink="http://www.w3.org/1999/xlink" x="0px" y="0px"
	 width="128px" height="128px" viewBox="0 0 128 128" enable-background="new 0 0 128 128" xml:space="preserve">
<g id="LINE_47_">
	<g id="XMLID_1_">
		<g>
			<polygon points="125.73,68.64 125.73,113.24 3.06,113.24 3.06,68.64 8.64,68.64 8.64,96.51 14.21,96.51 14.21,68.64 25.36,68.64 
				25.36,79.79 30.94,79.79 30.94,68.64 42.09,68.64 42.09,79.79 47.67,79.79 47.67,68.64 58.82,68.64 58.82,96.51 64.39,96.51 
				64.39,68.64 75.54,68.64 75.54,79.79 81.12,79.79 81.12,68.64 92.27,68.64 92.27,79.79 97.85,79.79 97.85,68.64 109,68.64 
				109,96.51 114.57,96.51 114.57,68.64 			"/>
			<path d="M125.73,32.4v5.57H69.97v8.36H42.09v-8.36H3.06V32.4h39.03V18.46h27.88V32.4H125.73z M64.39,40.76V24.03H47.67v16.73
				H64.39z"/>
		</g>
		<g>
		</g>
	</g>
</g>
</svg>
