<?xml version="1.0" encoding="utf-8"?>
<!-- Generator: Adobe Illustrator 15.1.0, SVG Export Plug-In . SVG Version: 6.00 Build 0)  -->
<!DOCTYPE svg PUBLIC "-//W3C//DTD SVG 1.1//EN" "http://www.w3.org/Graphics/SVG/1.1/DTD/svg11.dtd">
<svg version="1.1" id="Layer_1" xmlns="http://www.w3.org/2000/svg" xmlns:xlink="http://www.w3.org/1999/xlink" x="0px" y="0px"
	 width="128px" height="128px" viewBox="0 0 128 128" enable-background="new 0 0 128 128" xml:space="preserve">
<g id="LINE_37_">
	<g id="XMLID_1_">
		<g>
			<path d="M83.87,3.65L72.4,34.96l-2.2,0.9c-5.88-6.81-14.13-11.38-23.33-12.62v13.22H36.9V23.24
				c-13.38,1.8-24.75,10.66-29.76,23.2H4.49V4.05L83.87,3.65z"/>
			<path d="M124.16,123.73H4.49V46.44h2.65h69.48c-1.561-3.92-3.75-7.48-6.42-10.58l2.2-0.9l15.47,7.22L69.31,78.85l41.761-38.18
				L93.44,29.18L124.01,3.65L124.16,123.73z M29.77,121.23H54v-4.98l4.98-4.99L54,106.27l4.98-4.979L54,96.3l4.98-4.99L54,86.33
				l4.98-4.99L54,76.35l4.98-4.979V51.42h-34.2v19.95v4.979l4.99,4.99l-4.99,4.99l4.99,4.979l-4.99,4.99l4.99,4.99l-4.99,4.979
				l4.99,4.99l-4.99,4.99L29.77,121.23z"/>
		</g>
		<g>
		</g>
	</g>
</g>
</svg>
