<?xml version="1.0" encoding="utf-8"?>
<!-- Generator: Adobe Illustrator 15.1.0, SVG Export Plug-In . SVG Version: 6.00 Build 0)  -->
<!DOCTYPE svg PUBLIC "-//W3C//DTD SVG 1.1//EN" "http://www.w3.org/Graphics/SVG/1.1/DTD/svg11.dtd">
<svg version="1.1" id="Layer_1" xmlns="http://www.w3.org/2000/svg" xmlns:xlink="http://www.w3.org/1999/xlink" x="0px" y="0px"
	 width="128px" height="128px" viewBox="0 0 128 128" enable-background="new 0 0 128 128" xml:space="preserve">
<g id="LINE_25_">
	<g id="XMLID_1_">
		<g>
			<path d="M105.67,20.4l-4.979,5.49H47.2V14.91c0-3.03-2.46-5.49-5.49-5.49H14.26c-3.04,0-5.49,2.46-5.49,5.49v104.33h7.62
				l-2.81,5.49H3.27V14.91c0-6.06,4.92-10.98,10.99-10.98h27.45c6.06,0,10.98,4.92,10.98,10.98v5.49H105.67z"/>
			<polygon points="113.09,20.4 72.92,102.75 60.71,79.3 19.75,124.73 61.47,43.31 73.79,63.69 			"/>
			<polygon points="116.52,25.89 119.2,20.4 124.07,20.4 124.07,124.73 27.14,124.73 32.09,119.24 118.58,119.24 118.58,25.89 			
				"/>
		</g>
		<g>
		</g>
	</g>
</g>
</svg>
