<?xml version="1.0" encoding="utf-8"?>
<!-- Generator: Adobe Illustrator 15.1.0, SVG Export Plug-In . SVG Version: 6.00 Build 0)  -->
<!DOCTYPE svg PUBLIC "-//W3C//DTD SVG 1.1//EN" "http://www.w3.org/Graphics/SVG/1.1/DTD/svg11.dtd">
<svg version="1.1" id="Layer_1" xmlns="http://www.w3.org/2000/svg" xmlns:xlink="http://www.w3.org/1999/xlink" x="0px" y="0px"
	 width="128px" height="128px" viewBox="0 0 128 128" enable-background="new 0 0 128 128" xml:space="preserve">
<g id="LINE_37_">
	<g id="XMLID_1_">
		<g>
			<rect x="96.55" y="114.14" width="27.73" height="5.551"/>
			<rect x="96.55" y="103.05" width="27.73" height="5.55"/>
			<path d="M124.28,46.35v5.54h-17v16.64c0,24.5-19.87,44.359-44.37,44.359S18.55,93.03,18.55,68.53V51.89H2.27v-5.54h21.82v22.18
				c0,21.439,17.38,38.819,38.82,38.819c21.439,0,38.82-17.38,38.82-38.819V46.35H124.28z"/>
			<path d="M124.28,29.71v5.54H90.64v33.28c0,15.31-12.42,27.729-27.729,27.729c-15.31,0-27.73-12.42-27.73-27.729V35.25H2.27v-5.54
				h38.46v38.82c0,12.25,9.93,22.18,22.18,22.18s22.18-9.93,22.18-22.18V29.71H124.28z"/>
			<path d="M124.28,13.07v5.55H74v49.91c0,6.12-4.96,11.09-11.09,11.09c-6.12,0-11.09-4.97-11.09-11.09V18.62H2.27v-5.55h55.09
				v55.46c0,3.06,2.49,5.54,5.55,5.54c3.06,0,5.55-2.48,5.55-5.54V13.07H124.28z"/>
		</g>
		<g>
		</g>
	</g>
</g>
</svg>
