<?xml version="1.0" encoding="utf-8"?>
<!-- Generator: Adobe Illustrator 15.1.0, SVG Export Plug-In . SVG Version: 6.00 Build 0)  -->
<!DOCTYPE svg PUBLIC "-//W3C//DTD SVG 1.1//EN" "http://www.w3.org/Graphics/SVG/1.1/DTD/svg11.dtd">
<svg version="1.1" id="Layer_1" xmlns="http://www.w3.org/2000/svg" xmlns:xlink="http://www.w3.org/1999/xlink" x="0px" y="0px"
	 width="128px" height="128px" viewBox="0 0 128 128" enable-background="new 0 0 128 128" xml:space="preserve">
<g id="LINE_1_">
	<g id="XMLID_1_">
		<g>
			<path d="M70.02,40.02v10.23H59.79V40.02c0-10.82-8.78-19.6-19.6-19.6c-10.83,0-19.6,8.78-19.6,19.6v10.23H10.36V40.02
				c0-16.47,13.35-29.83,29.83-29.83C56.66,10.19,70.02,23.55,70.02,40.02z"/>
			<linearGradient id="SVGID_1_" gradientUnits="userSpaceOnUse" x1="33.54" y1="73.915" x2="51.9502" y2="73.915">
				<stop  offset="0" style="stop-color:#ED1C24"/>
				<stop  offset="1" style="stop-color:#000000"/>
			</linearGradient>
			<path fill="url(#SVGID_1_)" d="M51.95,73.88c0,1.36-0.39,2.55-1.18,3.58c-0.79,1.021-1.87,1.78-3.26,2.26
				c-1.39,0.48-4.14,0.721-8.26,0.721h-5.71V67.39h5.04c3.77,0,6.27,0.11,7.52,0.311c1.69,0.27,3.09,0.96,4.19,2.04
				C51.4,70.83,51.95,72.21,51.95,73.88z"/>
			<linearGradient id="SVGID_2_" gradientUnits="userSpaceOnUse" x1="4.3799" y1="83.5049" x2="76" y2="83.5049">
				<stop  offset="0" style="stop-color:#ED1C24"/>
				<stop  offset="1" style="stop-color:#000000"/>
			</linearGradient>
			<path fill="url(#SVGID_2_)" d="M76,50.25v66.51H4.38V50.25h5.98h10.23h39.2H70.02H76z M61.16,73.73c0-3.82-0.93-6.94-2.79-9.351
				c-1.86-2.42-4.16-3.99-6.92-4.71c-1.79-0.48-5.64-0.72-11.55-0.72H24.33v48.35h9.21V88.88h6.45c4.47,0,7.89-0.229,10.25-0.68
				c1.73-0.38,3.44-1.141,5.12-2.29c1.69-1.15,3.07-2.72,4.17-4.74C60.62,79.17,61.16,76.68,61.16,73.73z"/>
		</g>
		<g>
			
				<line fill="none" stroke="#000000" stroke-width="0.3685" stroke-linecap="round" stroke-linejoin="round" stroke-miterlimit="10" x1="4.38" y1="116.76" x2="76" y2="116.76"/>
			
				<line fill="none" stroke="#000000" stroke-width="0.3685" stroke-linecap="round" stroke-linejoin="round" stroke-miterlimit="10" x1="76" y1="116.76" x2="76" y2="50.25"/>
			
				<line fill="none" stroke="#000000" stroke-width="0.3685" stroke-linecap="round" stroke-linejoin="round" stroke-miterlimit="10" x1="10.36" y1="50.25" x2="4.38" y2="50.25"/>
			
				<line fill="none" stroke="#000000" stroke-width="0.3685" stroke-linecap="round" stroke-linejoin="round" stroke-miterlimit="10" x1="59.79" y1="50.25" x2="20.59" y2="50.25"/>
			
				<line fill="none" stroke="#000000" stroke-width="0.3685" stroke-linecap="round" stroke-linejoin="round" stroke-miterlimit="10" x1="76" y1="50.25" x2="70.02" y2="50.25"/>
			
				<line fill="none" stroke="#000000" stroke-width="0.3685" stroke-linecap="round" stroke-linejoin="round" stroke-miterlimit="10" x1="4.38" y1="50.25" x2="4.38" y2="116.76"/>
			
				<line fill="none" stroke="#000000" stroke-width="0.3685" stroke-linecap="round" stroke-linejoin="round" stroke-miterlimit="10" x1="24.33" y1="107.3" x2="24.33" y2="58.95"/>
			
				<line fill="none" stroke="#000000" stroke-width="0.3685" stroke-linecap="round" stroke-linejoin="round" stroke-miterlimit="10" x1="24.33" y1="58.95" x2="39.9" y2="58.95"/>
			
				<path fill="none" stroke="#000000" stroke-width="0.3685" stroke-linecap="round" stroke-linejoin="round" stroke-miterlimit="10" d="
				M39.9,58.95c5.91,0,9.76,0.24,11.55,0.72"/>
			
				<path fill="none" stroke="#000000" stroke-width="0.3685" stroke-linecap="round" stroke-linejoin="round" stroke-miterlimit="10" d="
				M51.45,59.67c2.76,0.72,5.06,2.29,6.92,4.71c1.86,2.41,2.79,5.53,2.79,9.351"/>
			
				<path fill="none" stroke="#000000" stroke-width="0.3685" stroke-linecap="round" stroke-linejoin="round" stroke-miterlimit="10" d="
				M61.16,73.73c0,2.949-0.54,5.439-1.63,7.439c-1.1,2.021-2.48,3.59-4.17,4.74c-1.68,1.149-3.39,1.91-5.12,2.29"/>
			
				<path fill="none" stroke="#000000" stroke-width="0.3685" stroke-linecap="round" stroke-linejoin="round" stroke-miterlimit="10" d="
				M50.24,88.2c-2.36,0.45-5.78,0.68-10.25,0.68"/>
			
				<line fill="none" stroke="#000000" stroke-width="0.3685" stroke-linecap="round" stroke-linejoin="round" stroke-miterlimit="10" x1="39.99" y1="88.88" x2="33.54" y2="88.88"/>
			
				<line fill="none" stroke="#000000" stroke-width="0.3685" stroke-linecap="round" stroke-linejoin="round" stroke-miterlimit="10" x1="33.54" y1="88.88" x2="33.54" y2="107.3"/>
			
				<line fill="none" stroke="#000000" stroke-width="0.3685" stroke-linecap="round" stroke-linejoin="round" stroke-miterlimit="10" x1="33.54" y1="107.3" x2="24.33" y2="107.3"/>
			
				<line fill="none" stroke="#000000" stroke-width="0.3685" stroke-linecap="round" stroke-linejoin="round" stroke-miterlimit="10" x1="33.54" y1="67.39" x2="33.54" y2="80.44"/>
			
				<line fill="none" stroke="#000000" stroke-width="0.3685" stroke-linecap="round" stroke-linejoin="round" stroke-miterlimit="10" x1="33.54" y1="80.44" x2="39.25" y2="80.44"/>
			
				<path fill="none" stroke="#000000" stroke-width="0.3685" stroke-linecap="round" stroke-linejoin="round" stroke-miterlimit="10" d="
				M39.25,80.44c4.12,0,6.87-0.24,8.26-0.721c1.39-0.479,2.47-1.239,3.26-2.26c0.79-1.03,1.18-2.22,1.18-3.58"/>
			
				<path fill="none" stroke="#000000" stroke-width="0.3685" stroke-linecap="round" stroke-linejoin="round" stroke-miterlimit="10" d="
				M51.95,73.88c0-1.67-0.55-3.05-1.66-4.14c-1.1-1.08-2.5-1.771-4.19-2.04"/>
			
				<path fill="none" stroke="#000000" stroke-width="0.3685" stroke-linecap="round" stroke-linejoin="round" stroke-miterlimit="10" d="
				M46.1,67.7c-1.25-0.2-3.75-0.311-7.52-0.311"/>
			
				<line fill="none" stroke="#000000" stroke-width="0.3685" stroke-linecap="round" stroke-linejoin="round" stroke-miterlimit="10" x1="38.58" y1="67.39" x2="33.54" y2="67.39"/>
			
				<path fill="none" stroke="#000000" stroke-width="0.3685" stroke-linecap="round" stroke-linejoin="round" stroke-miterlimit="10" d="
				M70.02,40.02c0-16.47-13.359-29.83-29.83-29.83c-16.48,0-29.83,13.36-29.83,29.83"/>
			
				<line fill="none" stroke="#000000" stroke-width="0.3685" stroke-linecap="round" stroke-linejoin="round" stroke-miterlimit="10" x1="10.36" y1="50.25" x2="10.36" y2="40.02"/>
			
				<line fill="none" stroke="#000000" stroke-width="0.3685" stroke-linecap="round" stroke-linejoin="round" stroke-miterlimit="10" x1="20.59" y1="50.25" x2="10.36" y2="50.25"/>
			
				<line fill="none" stroke="#000000" stroke-width="0.3685" stroke-linecap="round" stroke-linejoin="round" stroke-miterlimit="10" x1="20.59" y1="40.02" x2="20.59" y2="50.25"/>
			
				<path fill="none" stroke="#000000" stroke-width="0.3685" stroke-linecap="round" stroke-linejoin="round" stroke-miterlimit="10" d="
				M59.79,40.02c0-10.82-8.78-19.6-19.6-19.6c-10.83,0-19.6,8.78-19.6,19.6"/>
			
				<line fill="none" stroke="#000000" stroke-width="0.3685" stroke-linecap="round" stroke-linejoin="round" stroke-miterlimit="10" x1="59.79" y1="50.25" x2="59.79" y2="40.02"/>
			
				<line fill="none" stroke="#000000" stroke-width="0.3685" stroke-linecap="round" stroke-linejoin="round" stroke-miterlimit="10" x1="59.79" y1="50.25" x2="70.02" y2="50.25"/>
			
				<line fill="none" stroke="#000000" stroke-width="0.3685" stroke-linecap="round" stroke-linejoin="round" stroke-miterlimit="10" x1="70.02" y1="50.25" x2="70.02" y2="40.02"/>
		</g>
	</g>
</g>
</svg>
