<?xml version="1.0" encoding="utf-8"?>
<!-- Generator: Adobe Illustrator 15.1.0, SVG Export Plug-In . SVG Version: 6.00 Build 0)  -->
<!DOCTYPE svg PUBLIC "-//W3C//DTD SVG 1.1//EN" "http://www.w3.org/Graphics/SVG/1.1/DTD/svg11.dtd">
<svg version="1.1" id="Layer_1" xmlns="http://www.w3.org/2000/svg" xmlns:xlink="http://www.w3.org/1999/xlink" x="0px" y="0px"
	 width="128px" height="128px" viewBox="0 0 128 128" enable-background="new 0 0 128 128" xml:space="preserve">
<g id="LINE_17_">
	<g id="XMLID_1_">
		<g>
			<path d="M121.73,39.78v10.27H111.46V39.78c0-10.86-8.8-19.66-19.66-19.66c-10.859,0-19.66,8.8-19.66,19.66v10.27H61.88V39.78
				c0-16.53,13.39-29.92,29.92-29.92S121.73,23.25,121.73,39.78z"/>
			<linearGradient id="SVGID_1_" gradientUnits="userSpaceOnUse" x1="4.5498" y1="83.4043" x2="76.4004" y2="83.4043">
				<stop  offset="0" style="stop-color:#39B54A"/>
				<stop  offset="0.1092" style="stop-color:#36AC46"/>
				<stop  offset="0.2874" style="stop-color:#2F943C"/>
				<stop  offset="0.5124" style="stop-color:#226C2C"/>
				<stop  offset="0.7725" style="stop-color:#113516"/>
				<stop  offset="1" style="stop-color:#000000"/>
			</linearGradient>
			<path fill="url(#SVGID_1_)" d="M76.4,50.05v66.71H4.55V50.05h57.33h10.26H76.4z M61.52,73.6c0-3.83-0.93-6.96-2.8-9.39
				c-1.86-2.42-4.18-4-6.94-4.72c-1.8-0.48-5.66-0.72-11.59-0.72H24.57v48.5h9.24V88.79h6.47c4.49,0,7.92-0.23,10.28-0.68
				c1.74-0.38,3.46-1.141,5.15-2.29c1.68-1.15,3.07-2.74,4.17-4.761C60.97,79.05,61.52,76.56,61.52,73.6z"/>
			<linearGradient id="SVGID_2_" gradientUnits="userSpaceOnUse" x1="33.8101" y1="73.7852" x2="52.2798" y2="73.7852">
				<stop  offset="0" style="stop-color:#39B54A"/>
				<stop  offset="0.1092" style="stop-color:#36AC46"/>
				<stop  offset="0.2874" style="stop-color:#2F943C"/>
				<stop  offset="0.5124" style="stop-color:#226C2C"/>
				<stop  offset="0.7725" style="stop-color:#113516"/>
				<stop  offset="1" style="stop-color:#000000"/>
			</linearGradient>
			<path fill="url(#SVGID_2_)" d="M52.28,73.75c0,1.36-0.39,2.56-1.18,3.59s-1.88,1.78-3.27,2.26c-1.39,0.48-4.15,0.73-8.28,0.73
				h-5.74V67.24h5.06c3.78,0,6.29,0.1,7.54,0.31c1.7,0.271,3.1,0.96,4.21,2.05C51.73,70.69,52.28,72.07,52.28,73.75z"/>
		</g>
		<g>
			
				<line fill="none" stroke="#000000" stroke-width="0.3685" stroke-linecap="round" stroke-linejoin="round" stroke-miterlimit="10" x1="4.55" y1="116.76" x2="76.4" y2="116.76"/>
			
				<line fill="none" stroke="#000000" stroke-width="0.3685" stroke-linecap="round" stroke-linejoin="round" stroke-miterlimit="10" x1="76.4" y1="116.76" x2="76.4" y2="50.05"/>
			
				<line fill="none" stroke="#000000" stroke-width="0.3685" stroke-linecap="round" stroke-linejoin="round" stroke-miterlimit="10" x1="61.88" y1="50.05" x2="4.55" y2="50.05"/>
			
				<line fill="none" stroke="#000000" stroke-width="0.3685" stroke-linecap="round" stroke-linejoin="round" stroke-miterlimit="10" x1="76.4" y1="50.05" x2="72.14" y2="50.05"/>
			
				<line fill="none" stroke="#000000" stroke-width="0.3685" stroke-linecap="round" stroke-linejoin="round" stroke-miterlimit="10" x1="4.55" y1="50.05" x2="4.55" y2="116.76"/>
			
				<line fill="none" stroke="#000000" stroke-width="0.3685" stroke-linecap="round" stroke-linejoin="round" stroke-miterlimit="10" x1="24.57" y1="107.27" x2="24.57" y2="58.77"/>
			
				<line fill="none" stroke="#000000" stroke-width="0.3685" stroke-linecap="round" stroke-linejoin="round" stroke-miterlimit="10" x1="24.57" y1="58.77" x2="40.19" y2="58.77"/>
			
				<path fill="none" stroke="#000000" stroke-width="0.3685" stroke-linecap="round" stroke-linejoin="round" stroke-miterlimit="10" d="
				M40.19,58.77c5.93,0,9.79,0.24,11.59,0.72"/>
			
				<path fill="none" stroke="#000000" stroke-width="0.3685" stroke-linecap="round" stroke-linejoin="round" stroke-miterlimit="10" d="
				M51.78,59.49c2.76,0.72,5.08,2.3,6.94,4.72c1.87,2.43,2.8,5.56,2.8,9.39"/>
			
				<path fill="none" stroke="#000000" stroke-width="0.3685" stroke-linecap="round" stroke-linejoin="round" stroke-miterlimit="10" d="
				M61.52,73.6c0,2.96-0.55,5.45-1.64,7.46c-1.1,2.021-2.49,3.61-4.17,4.761c-1.69,1.149-3.41,1.91-5.15,2.29"/>
			
				<path fill="none" stroke="#000000" stroke-width="0.3685" stroke-linecap="round" stroke-linejoin="round" stroke-miterlimit="10" d="
				M50.56,88.11c-2.36,0.449-5.79,0.68-10.28,0.68"/>
			
				<line fill="none" stroke="#000000" stroke-width="0.3685" stroke-linecap="round" stroke-linejoin="round" stroke-miterlimit="10" x1="40.28" y1="88.79" x2="33.81" y2="88.79"/>
			
				<line fill="none" stroke="#000000" stroke-width="0.3685" stroke-linecap="round" stroke-linejoin="round" stroke-miterlimit="10" x1="33.81" y1="88.79" x2="33.81" y2="107.27"/>
			
				<line fill="none" stroke="#000000" stroke-width="0.3685" stroke-linecap="round" stroke-linejoin="round" stroke-miterlimit="10" x1="33.81" y1="107.27" x2="24.57" y2="107.27"/>
			
				<line fill="none" stroke="#000000" stroke-width="0.3685" stroke-linecap="round" stroke-linejoin="round" stroke-miterlimit="10" x1="33.81" y1="67.24" x2="33.81" y2="80.33"/>
			
				<line fill="none" stroke="#000000" stroke-width="0.3685" stroke-linecap="round" stroke-linejoin="round" stroke-miterlimit="10" x1="33.81" y1="80.33" x2="39.55" y2="80.33"/>
			
				<path fill="none" stroke="#000000" stroke-width="0.3685" stroke-linecap="round" stroke-linejoin="round" stroke-miterlimit="10" d="
				M39.55,80.33c4.13,0,6.89-0.25,8.28-0.73c1.39-0.479,2.48-1.229,3.27-2.26s1.18-2.229,1.18-3.59"/>
			
				<path fill="none" stroke="#000000" stroke-width="0.3685" stroke-linecap="round" stroke-linejoin="round" stroke-miterlimit="10" d="
				M52.28,73.75c0-1.68-0.55-3.06-1.66-4.15c-1.11-1.09-2.51-1.779-4.21-2.05"/>
			
				<path fill="none" stroke="#000000" stroke-width="0.3685" stroke-linecap="round" stroke-linejoin="round" stroke-miterlimit="10" d="
				M46.41,67.55c-1.25-0.21-3.76-0.31-7.54-0.31"/>
			
				<line fill="none" stroke="#000000" stroke-width="0.3685" stroke-linecap="round" stroke-linejoin="round" stroke-miterlimit="10" x1="38.87" y1="67.24" x2="33.81" y2="67.24"/>
			
				<path fill="none" stroke="#000000" stroke-width="0.3685" stroke-linecap="round" stroke-linejoin="round" stroke-miterlimit="10" d="
				M61.88,39.78c0-16.53,13.39-29.92,29.92-29.92s29.931,13.39,29.931,29.92"/>
			
				<line fill="none" stroke="#000000" stroke-width="0.3685" stroke-linecap="round" stroke-linejoin="round" stroke-miterlimit="10" x1="121.73" y1="50.05" x2="121.73" y2="39.78"/>
			
				<line fill="none" stroke="#000000" stroke-width="0.3685" stroke-linecap="round" stroke-linejoin="round" stroke-miterlimit="10" x1="111.46" y1="50.05" x2="121.73" y2="50.05"/>
			
				<line fill="none" stroke="#000000" stroke-width="0.3685" stroke-linecap="round" stroke-linejoin="round" stroke-miterlimit="10" x1="111.46" y1="39.78" x2="111.46" y2="50.05"/>
			
				<path fill="none" stroke="#000000" stroke-width="0.3685" stroke-linecap="round" stroke-linejoin="round" stroke-miterlimit="10" d="
				M72.14,39.78c0-10.86,8.801-19.66,19.66-19.66c10.86,0,19.66,8.8,19.66,19.66"/>
			
				<line fill="none" stroke="#000000" stroke-width="0.3685" stroke-linecap="round" stroke-linejoin="round" stroke-miterlimit="10" x1="72.14" y1="50.05" x2="72.14" y2="39.78"/>
			
				<line fill="none" stroke="#000000" stroke-width="0.3685" stroke-linecap="round" stroke-linejoin="round" stroke-miterlimit="10" x1="61.88" y1="50.05" x2="72.14" y2="50.05"/>
			
				<line fill="none" stroke="#000000" stroke-width="0.3685" stroke-linecap="round" stroke-linejoin="round" stroke-miterlimit="10" x1="61.88" y1="50.05" x2="61.88" y2="39.78"/>
		</g>
	</g>
</g>
</svg>
