<?xml version="1.0" encoding="utf-8"?>
<!-- Generator: Adobe Illustrator 15.1.0, SVG Export Plug-In . SVG Version: 6.00 Build 0)  -->
<!DOCTYPE svg PUBLIC "-//W3C//DTD SVG 1.1//EN" "http://www.w3.org/Graphics/SVG/1.1/DTD/svg11.dtd">
<svg version="1.1" id="Layer_1" xmlns="http://www.w3.org/2000/svg" xmlns:xlink="http://www.w3.org/1999/xlink" x="0px" y="0px"
	 width="128px" height="128px" viewBox="0 0 128 128" enable-background="new 0 0 128 128" xml:space="preserve">
<g id="LINE_91_">
	<g id="XMLID_1_">
		<g>
			<polygon points="103.97,86.84 103.97,92.55 92.55,103.97 86.84,103.97 			"/>
			<polygon points="92.55,81.13 92.55,86.84 86.84,92.55 81.13,92.55 			"/>
			<polygon points="92.55,64 92.55,69.71 69.71,92.55 64,92.55 			"/>
			<polygon points="103.97,35.45 103.97,41.16 41.16,103.97 35.45,103.97 			"/>
			<polygon points="103.97,24.03 24.03,103.97 24.03,98.26 98.26,24.03 			"/>
			<polygon points="75.42,35.45 35.45,75.42 35.45,69.71 69.71,35.45 			"/>
			<polygon points="58.29,35.45 35.45,58.29 35.45,52.58 52.58,35.45 			"/>
			<polygon points="35.45,24.03 24.03,35.45 24.03,29.74 29.74,24.03 			"/>
			<polygon points="46.87,24.03 46.87,29.74 29.74,46.87 24.03,46.87 			"/>
			<path d="M126.81,52.58v28.55h-11.42v34.26H81.13v11.42H52.58v-11.42H12.61V81.13H1.19V52.58h11.42V12.61h39.97V1.19h28.55v11.42
				h34.26v39.97H126.81z M121.1,75.42V58.29h-17.13v17.13H121.1z M109.68,109.68V81.13H98.26V52.58h11.42V18.32H81.13v11.42H52.58
				V18.32H18.32v34.26h11.42v28.55H18.32v28.55h34.26V98.26h28.55v11.42H109.68z M75.42,121.1v-17.13H58.29v17.13H75.42z
				 M75.42,24.03V6.9H58.29v17.13H75.42z M24.03,75.42V58.29H6.9v17.13H24.03z"/>
		</g>
		<g>
		</g>
	</g>
</g>
</svg>
