<?xml version="1.0" encoding="utf-8"?>
<!-- Generator: Adobe Illustrator 16.0.0, SVG Export Plug-In . SVG Version: 6.00 Build 0)  -->
<!DOCTYPE svg PUBLIC "-//W3C//DTD SVG 1.1//EN" "http://www.w3.org/Graphics/SVG/1.1/DTD/svg11.dtd">
<svg version="1.1" id="Layer_1" xmlns="http://www.w3.org/2000/svg" xmlns:xlink="http://www.w3.org/1999/xlink" x="0px" y="0px"
	 width="32px" height="32px" viewBox="0 0 32 32" enable-background="new 0 0 32 32" xml:space="preserve">
<g id="LINE_12_">
	<g id="XMLID_1_">
		<g>
			<path fill="#FFFFFF" d="M19.580078,17.25c-1.570313,0.610352-3.169922,1.400391-4.790039,2.370117
				c-0.419922,0.259766-0.830078,0.5-1.220215,0.719727c-1.22998,0.730469-2.290039,1.320313-3.159668,1.770508
				C8.950195,22.860352,8,23.240234,7.549805,23.240234c-0.189941,0-0.399902-0.040039-0.619629-0.110352
				C6.25,22.910156,5.450195,22.339844,4.540039,21.429688c-1.209961-1.209961-0.609863-2.410156,1.810059-3.620117
				C8.759766,16.600098,9.560059,16,8.759766,16c-0.799805,0-1.609863,0-2.409668,0
				c-0.810059,0-1.410156-0.200195-1.810059-0.600098c-0.410156-0.409668-0.609863-1.409668-0.609863-3.02002
				c0-1.609863,1.209961-2.409668,3.619629-2.409668C9.339844,9.709961,11,9.419922,12.540039,9.080078
				c1.02002-0.220215,1.989746-0.459961,2.899902-0.720215c0.439941-0.119629,0.859863-0.25,1.27002-0.379883
				c0.799805-0.25,1.55957-0.52002,2.270508-0.810059c0.65918-0.259766,1.269531-0.540039,1.849609-0.819824
				c3.209961-1.609863,5.019531-2.419922,5.429688-2.419922c0.400391,0,0.799805,0.409668,1.200195,1.209961
				c0.410156,0.799805,0.610352,1.409668,0.610352,1.810059c0,0.399902-0.410156,1.009766-1.209961,1.80957
				c-0.800781,0.800293-1.810547,1.610352-3.020508,2.410156c-1.200195,0.810059-1.399414,1.209961-0.599609,1.209961
				s1.80957,0,3.019531,0c1.200195,0,2.009766,0.200195,2.410156,0.600098c0.400391,0.410156,0.400391,1.209961,0,2.419922
				c-0.400391,1.200195-0.799805,1.810059-1.209961,1.810059c-0.400391,0-1.610352-0.200195-3.620117-0.609863
				C23.5,16.529785,23.120117,16.509766,22.719727,16.52002c-0.790039,0.029785-1.679688,0.209961-2.689453,0.550293
				C19.879883,17.129883,19.730469,17.179688,19.580078,17.25z"/>
			<path d="M22.719727,16.52002l4.600586,11.550293H24.05957l-2.829102-7.730469h-7.660645
				c0.390137-0.219727,0.800293-0.459961,1.220215-0.719727c1.620117-0.969727,3.219727-1.759766,4.790039-2.370117h0.519531
				l-0.069336-0.179688C21.040039,16.72998,21.929688,16.549805,22.719727,16.52002z"/>
			<path d="M10.410156,22.110352L8.22998,28.070313H4.970215l1.959961-4.94043
				c0.219727,0.070313,0.429688,0.110352,0.619629,0.110352C8,23.240234,8.950195,22.860352,10.410156,22.110352z"/>
			<path d="M17.459961,3.350098l1.520508,3.819824c-0.710938,0.290039-1.470703,0.560059-2.270508,0.810059l-0.569824-1.529785
				c-0.220215,0.609863-0.450195,1.239746-0.700195,1.909668c-0.910156,0.260254-1.879883,0.5-2.899902,0.720215l2.290039-5.72998
				H17.459961z"/>
		</g>
		<g>
		</g>
	</g>
</g>
</svg>
