<?xml version="1.0" encoding="utf-8"?>
<!-- Generator: Adobe Illustrator 15.1.0, SVG Export Plug-In . SVG Version: 6.00 Build 0)  -->
<!DOCTYPE svg PUBLIC "-//W3C//DTD SVG 1.1//EN" "http://www.w3.org/Graphics/SVG/1.1/DTD/svg11.dtd">
<svg version="1.1" id="Layer_1" xmlns="http://www.w3.org/2000/svg" xmlns:xlink="http://www.w3.org/1999/xlink" x="0px" y="0px"
	 width="128px" height="128px" viewBox="0 0 128 128" enable-background="new 0 0 128 128" xml:space="preserve">
<g id="LINE_69_">
	<g id="XMLID_1_">
		<g>
			<polygon fill="#010101" points="112.31,105.52 112.31,112.45 105.38,112.45 			"/>
			<polygon fill="#010101" points="112.31,84.73 112.31,91.66 91.52,112.45 84.59,112.45 			"/>
			<polygon fill="#010101" points="112.31,63.95 112.31,70.88 70.73,112.45 63.8,112.45 			"/>
			<polygon fill="#010101" points="112.31,43.16 112.31,50.09 77.66,84.73 77.66,77.8 			"/>
			<polygon fill="#010101" points="112.31,22.37 112.31,29.3 77.66,63.95 77.66,57.02 			"/>
			<polygon fill="#010101" points="105.38,15.44 70.73,50.09 63.8,50.09 98.45,15.44 			"/>
			<polygon fill="#010101" points="63.8,98.59 49.95,112.45 43.02,112.45 56.88,98.59 			"/>
			<polygon fill="#010101" points="43.02,98.59 29.16,112.45 22.23,112.45 36.09,98.59 			"/>
			<polygon fill="#010101" points="29.16,84.73 29.16,91.66 15.3,105.52 15.3,98.59 			"/>
			<path fill="#010101" d="M70.73,57.02v34.64H36.09V57.02H70.73z M63.8,84.73V63.95H43.02v20.78H63.8z"/>
			<polygon fill="#010101" points="29.16,63.95 29.16,70.88 15.3,84.73 15.3,77.8 			"/>
			<polygon fill="#010101" points="84.59,15.44 49.95,50.09 43.02,50.09 77.66,15.44 			"/>
			<polygon fill="#010101" points="63.8,15.44 15.3,63.95 15.3,57.02 56.88,15.44 			"/>
			<polygon fill="#010101" points="43.02,15.44 15.3,43.16 15.3,36.23 36.09,15.44 			"/>
			<polygon fill="#010101" points="22.23,15.44 15.3,22.37 15.3,15.44 			"/>
			<path fill="#010101" d="M126.17,1.58V126.31H1.44V1.58H126.17z M119.24,119.38V8.51H8.37v110.87H119.24z"/>
		</g>
		<g>
		</g>
	</g>
</g>
</svg>
