<?xml version="1.0" encoding="utf-8"?>
<!-- Generator: Adobe Illustrator 15.1.0, SVG Export Plug-In . SVG Version: 6.00 Build 0)  -->
<!DOCTYPE svg PUBLIC "-//W3C//DTD SVG 1.1//EN" "http://www.w3.org/Graphics/SVG/1.1/DTD/svg11.dtd">
<svg version="1.1" id="Layer_1" xmlns="http://www.w3.org/2000/svg" xmlns:xlink="http://www.w3.org/1999/xlink" x="0px" y="0px"
	 width="128px" height="128px" viewBox="0 0 128 128" enable-background="new 0 0 128 128" xml:space="preserve">
<g id="LINE_75_">
	<g id="XMLID_1_">
		<g>
			<path fill="#010101" d="M30.17,98.21v28.48H1.69V98.21H30.17z M24.47,120.99v-17.08H7.38v17.08H24.47z"/>
			<path fill="#010101" d="M127,98.21v28.48H98.52V98.21H127z M121.3,120.99v-17.08h-17.08v17.08H121.3z"/>
			<polygon fill="#010101" points="92.82,109.6 92.82,115.3 87.13,115.3 			"/>
			<polygon fill="#010101" points="115.61,86.82 115.61,92.51 109.91,92.51 			"/>
			<polygon fill="#010101" points="115.61,69.73 115.61,75.43 75.74,115.3 70.04,115.3 			"/>
			<polygon fill="#010101" points="115.61,52.64 115.61,58.34 58.65,115.3 52.95,115.3 			"/>
			<polygon fill="#010101" points="115.61,35.55 115.61,41.25 41.56,115.3 35.86,115.3 			"/>
			<polygon fill="#010101" points="104.22,35.55 35.86,103.91 35.86,98.21 98.52,35.55 			"/>
			<polygon fill="#010101" points="18.78,35.55 13.08,41.25 13.08,35.55 			"/>
			<polygon fill="#010101" points="41.56,12.77 35.86,18.47 35.86,12.77 			"/>
			<polygon fill="#010101" points="58.65,12.77 13.08,58.34 13.08,52.64 52.95,12.77 			"/>
			<polygon fill="#010101" points="75.74,12.77 13.08,75.43 13.08,69.73 70.04,12.77 			"/>
			<polygon fill="#010101" points="92.82,12.77 13.08,92.51 13.08,86.82 87.13,12.77 			"/>
			<polygon fill="#010101" points="92.82,24.16 92.82,29.86 30.17,92.51 24.47,92.51 			"/>
			<path fill="#010101" d="M127,1.38v28.48H98.52V1.38H127z M121.3,24.16V7.07h-17.08v17.09H121.3z"/>
			<path fill="#010101" d="M30.17,1.38v28.48H1.69V1.38H30.17z M24.47,24.16V7.07H7.38v17.09H24.47z"/>
		</g>
		<g>
		</g>
	</g>
</g>
</svg>
