<?xml version="1.0" encoding="utf-8"?>
<!-- Generator: Adobe Illustrator 16.0.0, SVG Export Plug-In . SVG Version: 6.00 Build 0)  -->
<!DOCTYPE svg PUBLIC "-//W3C//DTD SVG 1.1//EN" "http://www.w3.org/Graphics/SVG/1.1/DTD/svg11.dtd">
<svg version="1.1" id="Layer_1" xmlns="http://www.w3.org/2000/svg" xmlns:xlink="http://www.w3.org/1999/xlink" x="0px" y="0px"
	 width="32px" height="32px" viewBox="0 0 32 32" enable-background="new 0 0 32 32" xml:space="preserve">
<g id="LINE_29_">
	<g id="XMLID_1_">
		<g>
			<path d="M18.410156,17.209961v-3.620117h-3.620117v3.620117H18.410156z M18.299805,18.410156l6.150391,9.660156h-1.430664
				l-6.149414-9.660156h-3.280273v-6.030273h3.950195l11.729492-7.459961v1.430176l-9.649414,6.140137v5.919922H18.299805z"/>
			<polygon points="10.819824,7.910156 13.22998,10.319824 11.529785,12.029785 9.109863,9.609863 			"/>
			<polygon points="8.109863,5.200195 9.609863,6.700195 7.910156,8.410156 6.410156,6.910156 3.850098,9.470215 3.850098,2.640137 
				10.669922,2.640137 			"/>
		</g>
		<g>
			
				<line fill="none" stroke="#000000" stroke-width="0.5" stroke-linecap="round" stroke-linejoin="round" stroke-miterlimit="10" x1="20.530273" y1="16.919922" x2="29.269531" y2="8.180176"/>
			
				<line fill="none" stroke="#000000" stroke-width="0.5" stroke-linecap="round" stroke-linejoin="round" stroke-miterlimit="10" x1="25.110352" y1="27.410156" x2="29.269531" y2="23.240234"/>
			
				<line fill="none" stroke="#000000" stroke-width="0.5" stroke-linecap="round" stroke-linejoin="round" stroke-miterlimit="10" x1="23.089844" y1="24.299805" x2="29.269531" y2="18.120117"/>
			
				<line fill="none" stroke="#000000" stroke-width="0.5" stroke-linecap="round" stroke-linejoin="round" stroke-miterlimit="10" x1="21.139648" y1="21.139648" x2="29.269531" y2="13"/>
		</g>
	</g>
</g>
</svg>
