<?xml version="1.0" encoding="utf-8"?>
<!-- Generator: Adobe Illustrator 15.1.0, SVG Export Plug-In . SVG Version: 6.00 Build 0)  -->
<!DOCTYPE svg PUBLIC "-//W3C//DTD SVG 1.1//EN" "http://www.w3.org/Graphics/SVG/1.1/DTD/svg11.dtd">
<svg version="1.1" id="Layer_1" xmlns="http://www.w3.org/2000/svg" xmlns:xlink="http://www.w3.org/1999/xlink" x="0px" y="0px"
	 width="128px" height="128px" viewBox="0 0 128 128" enable-background="new 0 0 128 128" xml:space="preserve">
<g id="LINE_6_">
	<g id="XMLID_1_">
		<g>
			<polygon fill="#010101" points="60.51,69.72 84.78,69.72 111.8,69.72 111.8,86.87 90.41,86.87 66.84,86.87 48.91,86.87 
				48.91,81.33 48.91,69.72 			"/>
			<path fill="#010101" d="M113.44,1.11l-28.7,18.26L31.76,53.08v18.89v9.181h-6.24l8.97,14.09l9.43,14.819l9.4,14.771l1.31,2.06
				h-6.78L18.74,81.15H3.17V52.56h18.76l80.86-51.45H113.44z M26.04,75.43V58.28H8.89v17.15H26.04z"/>
		</g>
		<g>
			
				<line fill="none" stroke="#010101" stroke-width="0.3685" stroke-linecap="round" stroke-linejoin="round" stroke-miterlimit="10" x1="110.42" y1="68.33" x2="123.24" y2="55.52"/>
			
				<line fill="none" stroke="#010101" stroke-width="0.3685" stroke-linecap="round" stroke-linejoin="round" stroke-miterlimit="10" x1="84.78" y1="69.72" x2="123.24" y2="31.26"/>
			
				<polyline fill="none" stroke="#010101" stroke-width="0.3685" stroke-linecap="round" stroke-linejoin="round" stroke-miterlimit="10" points="
				60.43,69.8 60.51,69.72 123.24,7 			"/>
			
				<line fill="none" stroke="#010101" stroke-width="0.3685" stroke-linecap="round" stroke-linejoin="round" stroke-miterlimit="10" x1="103.49" y1="123.77" x2="123.24" y2="104.03"/>
			
				<line fill="none" stroke="#010101" stroke-width="0.3685" stroke-linecap="round" stroke-linejoin="round" stroke-miterlimit="10" x1="79.24" y1="123.77" x2="123.24" y2="79.77"/>
			
				<line fill="none" stroke="#010101" stroke-width="0.3685" stroke-linecap="round" stroke-linejoin="round" stroke-miterlimit="10" x1="54.98" y1="123.77" x2="90.41" y2="88.35"/>
			
				<line fill="none" stroke="#010101" stroke-width="0.3685" stroke-linecap="round" stroke-linejoin="round" stroke-miterlimit="10" x1="45.33" y1="109.16" x2="66.84" y2="87.65"/>
			
				<polyline fill="none" stroke="#010101" stroke-width="0.3685" stroke-linecap="round" stroke-linejoin="round" stroke-miterlimit="10" points="
				35.9,94.34 48.91,81.33 49,81.24 			"/>
			
				<line fill="none" stroke="#010101" stroke-width="0.3685" stroke-linecap="round" stroke-linejoin="round" stroke-miterlimit="10" x1="34.01" y1="71.97" x2="85.47" y2="20.51"/>
		</g>
	</g>
</g>
</svg>
