<?xml version="1.0" encoding="utf-8"?>
<!-- Generator: Adobe Illustrator 16.0.0, SVG Export Plug-In . SVG Version: 6.00 Build 0)  -->
<!DOCTYPE svg PUBLIC "-//W3C//DTD SVG 1.1//EN" "http://www.w3.org/Graphics/SVG/1.1/DTD/svg11.dtd">
<svg version="1.1" id="Layer_1" xmlns="http://www.w3.org/2000/svg" xmlns:xlink="http://www.w3.org/1999/xlink" x="0px" y="0px"
	 width="32px" height="32px" viewBox="0 0 32 32" enable-background="new 0 0 32 32" xml:space="preserve">
<g id="LINE_35_">
	<g id="XMLID_1_">
		<g>
			<polygon points="23.879883,28.070313 28.070313,23.910156 28.070313,25.620117 25.580078,28.070313 			"/>
			<polygon points="19.290039,28.070313 28.070313,19.290039 28.070313,21 21,28.070313 			"/>
			<polygon points="14.169922,28.070313 28.070313,14.169922 28.070313,15.879883 15.879883,28.070313 			"/>
			<polygon points="9.049805,28.070313 28.070313,9.049805 28.070313,10.759766 10.759766,28.070313 			"/>
			<polygon points="3.930176,28.070313 28.070313,3.930176 28.070313,5.640137 5.640137,28.070313 			"/>
			<polygon points="22.950195,3.930176 24.650391,3.930176 3.930176,24.650391 3.930176,22.950195 			"/>
			<polygon points="17.830078,3.930176 19.530273,3.930176 3.930176,19.530273 3.930176,17.830078 			"/>
			<polygon points="12.709961,3.930176 14.419922,3.930176 3.930176,14.419922 3.930176,12.709961 			"/>
			<polygon points="7.589844,3.930176 9.299805,3.930176 3.930176,9.299805 3.930176,7.589844 			"/>
		</g>
		<g>
		</g>
	</g>
</g>
</svg>
