<?xml version="1.0" encoding="utf-8"?>
<!-- Generator: Adobe Illustrator 16.0.0, SVG Export Plug-In . SVG Version: 6.00 Build 0)  -->
<!DOCTYPE svg PUBLIC "-//W3C//DTD SVG 1.1//EN" "http://www.w3.org/Graphics/SVG/1.1/DTD/svg11.dtd">
<svg version="1.1" id="Layer_1" xmlns="http://www.w3.org/2000/svg" xmlns:xlink="http://www.w3.org/1999/xlink" x="0px" y="0px"
	 width="32px" height="32px" viewBox="0 0 32 32" enable-background="new 0 0 32 32" xml:space="preserve">
<g id="LINE_37_">
	<g id="XMLID_1_">
		<g>
			<polygon points="25.650391,17.209961 25.650391,20.830078 20.830078,20.830078 20.830078,25.650391 17.209961,25.650391 
				17.209961,20.830078 12.379883,20.830078 12.379883,17.209961 17.209961,17.209961 17.209961,12.379883 20.830078,12.379883 
				20.830078,17.209961 			"/>
			<path d="M7.549805,18.410156v-3.620117H3.930176v3.620117H7.549805z M6.689941,13.589844L23.75,2.72998H26l-3.160156,2.010254
				L8.759766,13.700195v5.120117v0.799805H7.959961h-0.52002l0.200195,0.30957l1.989746,3.129883l1.990234,3.130859
				l1.969727,3.079102h-1.429688l-6.150391-9.649414H2.72998v-6.030273H6.689941z"/>
		</g>
		<g>
			
				<line fill="none" stroke="#000000" stroke-width="0.5" stroke-linecap="round" stroke-linejoin="round" stroke-miterlimit="10" x1="26.290039" y1="16.640137" x2="28.070313" y2="14.870117"/>
			
				<line fill="none" stroke="#000000" stroke-width="0.5" stroke-linecap="round" stroke-linejoin="round" stroke-miterlimit="10" x1="21.320313" y1="16.490234" x2="28.070313" y2="9.75"/>
			
				<line fill="none" stroke="#000000" stroke-width="0.5" stroke-linecap="round" stroke-linejoin="round" stroke-miterlimit="10" x1="15.740234" y1="16.950195" x2="16.950195" y2="15.740234"/>
			
				<line fill="none" stroke="#000000" stroke-width="0.5" stroke-linecap="round" stroke-linejoin="round" stroke-miterlimit="10" x1="20.570313" y1="12.120117" x2="28.070313" y2="4.629883"/>
			
				<line fill="none" stroke="#000000" stroke-width="0.5" stroke-linecap="round" stroke-linejoin="round" stroke-miterlimit="10" x1="23.900391" y1="29.269531" x2="28.070313" y2="25.110352"/>
			
				<line fill="none" stroke="#000000" stroke-width="0.5" stroke-linecap="round" stroke-linejoin="round" stroke-miterlimit="10" x1="18.780273" y1="29.269531" x2="28.070313" y2="19.990234"/>
			
				<line fill="none" stroke="#000000" stroke-width="0.5" stroke-linecap="round" stroke-linejoin="round" stroke-miterlimit="10" x1="13.660156" y1="29.269531" x2="16.640137" y2="26.290039"/>
			
				<line fill="none" stroke="#000000" stroke-width="0.5" stroke-linecap="round" stroke-linejoin="round" stroke-miterlimit="10" x1="11.620117" y1="26.19043" x2="16.490234" y2="21.320313"/>
			
				<line fill="none" stroke="#000000" stroke-width="0.5" stroke-linecap="round" stroke-linejoin="round" stroke-miterlimit="10" x1="9.629883" y1="23.05957" x2="12.120117" y2="20.570313"/>
			
				<line fill="none" stroke="#000000" stroke-width="0.5" stroke-linecap="round" stroke-linejoin="round" stroke-miterlimit="10" x1="8.759766" y1="18.820313" x2="22.839844" y2="4.740234"/>
			
				<line fill="none" stroke="#000000" stroke-width="0.5" stroke-linecap="round" stroke-linejoin="round" stroke-miterlimit="10" x1="7.640137" y1="19.929688" x2="7.959961" y2="19.620117"/>
		</g>
	</g>
</g>
</svg>
