<?xml version="1.0" encoding="utf-8"?>
<!-- Generator: Adobe Illustrator 16.0.0, SVG Export Plug-In . SVG Version: 6.00 Build 0)  -->
<!DOCTYPE svg PUBLIC "-//W3C//DTD SVG 1.1//EN" "http://www.w3.org/Graphics/SVG/1.1/DTD/svg11.dtd">
<svg version="1.1" id="Layer_1" xmlns="http://www.w3.org/2000/svg" xmlns:xlink="http://www.w3.org/1999/xlink" x="0px" y="0px"
	 width="32px" height="32px" viewBox="0 0 32 32" enable-background="new 0 0 32 32" xml:space="preserve">
<g id="LINE_47_">
	<g id="XMLID_1_">
		<g>
			<polygon points="28.070313,6.350098 28.070313,7.549805 25.650391,7.549805 25.650391,9.970215 24.450195,9.970215 
				24.450195,7.549805 22.030273,7.549805 22.030273,6.350098 24.450195,6.350098 24.450195,3.930176 25.650391,3.930176 
				25.650391,6.350098 			"/>
			<polygon points="22.030273,12.379883 22.030273,13.589844 19.620117,13.589844 19.620117,16 18.410156,16 18.410156,13.589844 
				16,13.589844 16,12.379883 18.410156,12.379883 18.410156,9.970215 19.620117,9.970215 19.620117,12.379883 			"/>
			<polygon points="16,18.410156 16,19.620117 13.589844,19.620117 13.589844,22.030273 12.379883,22.030273 12.379883,19.620117 
				9.970215,19.620117 9.970215,18.410156 12.379883,18.410156 12.379883,16 13.589844,16 13.589844,18.410156 			"/>
			<polygon points="9.970215,24.450195 9.970215,25.650391 7.549805,25.650391 7.549805,28.070313 6.350098,28.070313 
				6.350098,25.650391 3.930176,25.650391 3.930176,24.450195 6.350098,24.450195 6.350098,22.030273 7.549805,22.030273 
				7.549805,24.450195 			"/>
		</g>
		<g>
		</g>
	</g>
</g>
</svg>
