<?xml version="1.0" encoding="utf-8"?>
<!-- Generator: Adobe Illustrator 15.1.0, SVG Export Plug-In . SVG Version: 6.00 Build 0)  -->
<!DOCTYPE svg PUBLIC "-//W3C//DTD SVG 1.1//EN" "http://www.w3.org/Graphics/SVG/1.1/DTD/svg11.dtd">
<svg version="1.1" id="Layer_1" xmlns="http://www.w3.org/2000/svg" xmlns:xlink="http://www.w3.org/1999/xlink" x="0px" y="0px"
	 width="128px" height="128px" viewBox="0 0 128 128" enable-background="new 0 0 128 128" xml:space="preserve">
<g id="LINE_36_">
	<g id="XMLID_1_">
		<g>
			<rect x="74.75" y="99.71" fill="#FFFFFF" width="43.53" height="10.88"/>
			<path fill="#FFFFFF" d="M118.28,18.07v76.2H69.3v16.32H9.44V18.07H118.28z M112.84,56.17V34.4H50.8l27.21,21.77H69.3L42.09,34.4
				L14.88,56.17h5.44v27.21h16.33V61.61h10.88v21.77h16.33V56.17h5.44v27.21H107.4V56.17H112.84z"/>
			<path fill="#009444" d="M112.84,34.4v21.77H107.4v27.21H69.3V56.17h8.71L50.8,34.4H112.84z M96.51,72.5V61.61H80.19V72.5H96.51z"
				/>
			<path fill="#2E3192" d="M123.73,12.63v103.41H3.99V12.63H123.73z M118.28,110.59V99.71H74.75v10.88H118.28z M118.28,94.27v-76.2
				H9.44v92.52H69.3V94.27H118.28z"/>
			<polygon fill="#ED1C24" points="69.3,56.17 63.86,56.17 63.86,83.38 47.53,83.38 47.53,61.61 36.65,61.61 36.65,83.38 
				20.32,83.38 20.32,56.17 14.88,56.17 42.09,34.4 			"/>
		</g>
		<g>
			
				<line fill="none" stroke="#000000" stroke-width="0.3685" stroke-linecap="round" stroke-linejoin="round" stroke-miterlimit="10" x1="123.73" y1="116.04" x2="123.73" y2="12.63"/>
			
				<line fill="none" stroke="#000000" stroke-width="0.3685" stroke-linecap="round" stroke-linejoin="round" stroke-miterlimit="10" x1="3.99" y1="12.63" x2="123.73" y2="12.63"/>
			
				<line fill="none" stroke="#000000" stroke-width="0.3685" stroke-linecap="round" stroke-linejoin="round" stroke-miterlimit="10" x1="3.99" y1="116.04" x2="3.99" y2="12.63"/>
			
				<line fill="none" stroke="#000000" stroke-width="0.3685" stroke-linecap="round" stroke-linejoin="round" stroke-miterlimit="10" x1="3.99" y1="116.04" x2="123.73" y2="116.04"/>
			
				<line fill="none" stroke="#000000" stroke-width="0.3685" stroke-linecap="round" stroke-linejoin="round" stroke-miterlimit="10" x1="118.28" y1="110.59" x2="118.28" y2="99.71"/>
			
				<line fill="none" stroke="#000000" stroke-width="0.3685" stroke-linecap="round" stroke-linejoin="round" stroke-miterlimit="10" x1="118.28" y1="99.71" x2="74.75" y2="99.71"/>
			
				<line fill="none" stroke="#000000" stroke-width="0.3685" stroke-linecap="round" stroke-linejoin="round" stroke-miterlimit="10" x1="74.75" y1="99.71" x2="74.75" y2="110.59"/>
			
				<line fill="none" stroke="#000000" stroke-width="0.3685" stroke-linecap="round" stroke-linejoin="round" stroke-miterlimit="10" x1="74.75" y1="110.59" x2="118.28" y2="110.59"/>
			
				<line fill="none" stroke="#000000" stroke-width="0.3685" stroke-linecap="round" stroke-linejoin="round" stroke-miterlimit="10" x1="9.44" y1="110.59" x2="9.44" y2="18.07"/>
			
				<line fill="none" stroke="#000000" stroke-width="0.3685" stroke-linecap="round" stroke-linejoin="round" stroke-miterlimit="10" x1="9.44" y1="18.07" x2="118.28" y2="18.07"/>
			
				<line fill="none" stroke="#000000" stroke-width="0.3685" stroke-linecap="round" stroke-linejoin="round" stroke-miterlimit="10" x1="118.28" y1="94.27" x2="118.28" y2="18.07"/>
			
				<line fill="none" stroke="#000000" stroke-width="0.3685" stroke-linecap="round" stroke-linejoin="round" stroke-miterlimit="10" x1="69.3" y1="94.27" x2="118.28" y2="94.27"/>
			
				<line fill="none" stroke="#000000" stroke-width="0.3685" stroke-linecap="round" stroke-linejoin="round" stroke-miterlimit="10" x1="69.3" y1="110.59" x2="69.3" y2="94.27"/>
			
				<line fill="none" stroke="#000000" stroke-width="0.3685" stroke-linecap="round" stroke-linejoin="round" stroke-miterlimit="10" x1="9.44" y1="110.59" x2="69.3" y2="110.59"/>
			
				<line fill="none" stroke="#000000" stroke-width="0.3685" stroke-linecap="round" stroke-linejoin="round" stroke-miterlimit="10" x1="20.32" y1="56.17" x2="20.32" y2="83.38"/>
			
				<line fill="none" stroke="#000000" stroke-width="0.3685" stroke-linecap="round" stroke-linejoin="round" stroke-miterlimit="10" x1="20.32" y1="83.38" x2="36.65" y2="83.38"/>
			
				<line fill="none" stroke="#000000" stroke-width="0.3685" stroke-linecap="round" stroke-linejoin="round" stroke-miterlimit="10" x1="36.65" y1="61.61" x2="36.65" y2="83.38"/>
			
				<line fill="none" stroke="#000000" stroke-width="0.3685" stroke-linecap="round" stroke-linejoin="round" stroke-miterlimit="10" x1="47.53" y1="61.61" x2="36.65" y2="61.61"/>
			
				<line fill="none" stroke="#000000" stroke-width="0.3685" stroke-linecap="round" stroke-linejoin="round" stroke-miterlimit="10" x1="47.53" y1="83.38" x2="47.53" y2="61.61"/>
			
				<line fill="none" stroke="#000000" stroke-width="0.3685" stroke-linecap="round" stroke-linejoin="round" stroke-miterlimit="10" x1="47.53" y1="83.38" x2="63.86" y2="83.38"/>
			
				<line fill="none" stroke="#000000" stroke-width="0.3685" stroke-linecap="round" stroke-linejoin="round" stroke-miterlimit="10" x1="63.86" y1="83.38" x2="63.86" y2="56.17"/>
			
				<line fill="none" stroke="#000000" stroke-width="0.3685" stroke-linecap="round" stroke-linejoin="round" stroke-miterlimit="10" x1="69.3" y1="56.17" x2="63.86" y2="56.17"/>
			
				<line fill="none" stroke="#000000" stroke-width="0.3685" stroke-linecap="round" stroke-linejoin="round" stroke-miterlimit="10" x1="42.09" y1="34.4" x2="69.3" y2="56.17"/>
			
				<line fill="none" stroke="#000000" stroke-width="0.3685" stroke-linecap="round" stroke-linejoin="round" stroke-miterlimit="10" x1="14.88" y1="56.17" x2="42.09" y2="34.4"/>
			
				<line fill="none" stroke="#000000" stroke-width="0.3685" stroke-linecap="round" stroke-linejoin="round" stroke-miterlimit="10" x1="14.88" y1="56.17" x2="20.32" y2="56.17"/>
			
				<line fill="none" stroke="#000000" stroke-width="0.3685" stroke-linecap="round" stroke-linejoin="round" stroke-miterlimit="10" x1="50.8" y1="34.4" x2="112.84" y2="34.4"/>
			
				<line fill="none" stroke="#000000" stroke-width="0.3685" stroke-linecap="round" stroke-linejoin="round" stroke-miterlimit="10" x1="112.84" y1="34.4" x2="112.84" y2="56.17"/>
			
				<line fill="none" stroke="#000000" stroke-width="0.3685" stroke-linecap="round" stroke-linejoin="round" stroke-miterlimit="10" x1="112.84" y1="56.17" x2="107.4" y2="56.17"/>
			
				<line fill="none" stroke="#000000" stroke-width="0.3685" stroke-linecap="round" stroke-linejoin="round" stroke-miterlimit="10" x1="107.4" y1="56.17" x2="107.4" y2="83.38"/>
			
				<line fill="none" stroke="#000000" stroke-width="0.3685" stroke-linecap="round" stroke-linejoin="round" stroke-miterlimit="10" x1="107.4" y1="83.38" x2="69.3" y2="83.38"/>
			
				<line fill="none" stroke="#000000" stroke-width="0.3685" stroke-linecap="round" stroke-linejoin="round" stroke-miterlimit="10" x1="69.3" y1="83.38" x2="69.3" y2="56.17"/>
			
				<line fill="none" stroke="#000000" stroke-width="0.3685" stroke-linecap="round" stroke-linejoin="round" stroke-miterlimit="10" x1="69.3" y1="56.17" x2="78.01" y2="56.17"/>
			
				<line fill="none" stroke="#000000" stroke-width="0.3685" stroke-linecap="round" stroke-linejoin="round" stroke-miterlimit="10" x1="50.8" y1="34.4" x2="78.01" y2="56.17"/>
			
				<line fill="none" stroke="#000000" stroke-width="0.3685" stroke-linecap="round" stroke-linejoin="round" stroke-miterlimit="10" x1="80.19" y1="61.61" x2="96.51" y2="61.61"/>
			
				<line fill="none" stroke="#000000" stroke-width="0.3685" stroke-linecap="round" stroke-linejoin="round" stroke-miterlimit="10" x1="96.51" y1="61.61" x2="96.51" y2="72.5"/>
			
				<line fill="none" stroke="#000000" stroke-width="0.3685" stroke-linecap="round" stroke-linejoin="round" stroke-miterlimit="10" x1="96.51" y1="72.5" x2="80.19" y2="72.5"/>
			
				<line fill="none" stroke="#000000" stroke-width="0.3685" stroke-linecap="round" stroke-linejoin="round" stroke-miterlimit="10" x1="80.19" y1="72.5" x2="80.19" y2="61.61"/>
		</g>
	</g>
</g>
</svg>
