<?xml version="1.0" encoding="utf-8"?>
<!-- Generator: Adobe Illustrator 15.1.0, SVG Export Plug-In . SVG Version: 6.00 Build 0)  -->
<!DOCTYPE svg PUBLIC "-//W3C//DTD SVG 1.1//EN" "http://www.w3.org/Graphics/SVG/1.1/DTD/svg11.dtd">
<svg version="1.1" id="Layer_1" xmlns="http://www.w3.org/2000/svg" xmlns:xlink="http://www.w3.org/1999/xlink" x="0px" y="0px"
	 width="128px" height="128px" viewBox="0 0 128 128" enable-background="new 0 0 128 128" xml:space="preserve">
<g id="LINE_36_">
	<g id="XMLID_1_">
		<g>
			<path d="M122.83,12.78v103.26H3.27V12.78H122.83z M117.4,110.6V99.73H73.92V110.6H117.4z M117.4,94.3V18.21H8.71v92.39h59.78
				V94.3H117.4z"/>
			<path d="M111.96,34.52v21.74h-5.43v27.17H68.49V56.26h8.7L50.02,34.52H111.96z M95.66,72.56V61.69h-16.3v10.87H95.66z"/>
			<polygon points="68.49,56.26 63.05,56.26 63.05,83.43 46.75,83.43 46.75,61.69 35.88,61.69 35.88,83.43 19.58,83.43 19.58,56.26 
				14.14,56.26 41.32,34.52 			"/>
		</g>
		<g>
		</g>
	</g>
</g>
</svg>
