<?xml version="1.0" encoding="utf-8"?>
<!-- Generator: Adobe Illustrator 15.1.0, SVG Export Plug-In . SVG Version: 6.00 Build 0)  -->
<!DOCTYPE svg PUBLIC "-//W3C//DTD SVG 1.1//EN" "http://www.w3.org/Graphics/SVG/1.1/DTD/svg11.dtd">
<svg version="1.1" id="Layer_1" xmlns="http://www.w3.org/2000/svg" xmlns:xlink="http://www.w3.org/1999/xlink" x="0px" y="0px"
	 width="128px" height="128px" viewBox="0 0 128 128" enable-background="new 0 0 128 128" xml:space="preserve">
<g id="LINE_18_">
	<g id="XMLID_1_">
		<g>
			<path d="M70.96,93.23c2.1,2.1,3.16,4.649,3.16,7.64c0,2.979-1.061,5.53-3.16,7.649c-2.11,2.131-4.66,3.19-7.66,3.19
				c-2.99,0-5.54-1.06-7.65-3.19c-2.11-2.119-3.16-4.67-3.16-7.649c0-2.99,1.05-5.54,3.16-7.64c2.11-2.101,4.66-3.15,7.65-3.15
				C66.3,90.08,68.85,91.13,70.96,93.23z"/>
			<path d="M124.66,37.45v55.17h-22.07v33.11H25.34V92.62H3.27V37.45h22.07V4.34h77.25v33.11H124.66z M119.14,48.48
				c0-3.05-2.47-5.52-5.52-5.52c-3.04,0-5.51,2.47-5.51,5.52s2.47,5.52,5.51,5.52C116.67,54,119.14,51.53,119.14,48.48z
				 M119.14,65.03c0-3.04-2.47-5.51-5.52-5.51c-3.04,0-5.51,2.47-5.51,5.51c0,3.05,2.47,5.52,5.51,5.52
				C116.67,70.55,119.14,68.08,119.14,65.03z M97.07,120.21V9.86H30.86v110.35H97.07z"/>
			<path d="M89.9,38.14c0,4.13-1.141,7.96-3.42,11.47C84.21,53.13,79.8,57.02,73.27,61.29c-4.38,2.88-7.26,5.44-8.649,7.68
				c-1.38,2.25-2.22,5.681-2.53,10.3H59c-0.1-4.829,0.1-8.439,0.59-10.829c0.49-2.391,1.74-5.681,3.76-9.88
				c2.01-4.2,3.33-7.57,3.97-10.12c0.63-2.54,0.949-5.69,0.949-9.43c0-5.78-0.93-10.04-2.779-12.79c-1.85-2.74-4.03-4.11-6.54-4.11
				c-1.91,0-3.68,0.68-5.31,2.05c-1.25,1.05-1.88,2.13-1.88,3.26c0,0.76,0.43,1.94,1.28,3.55c1.91,3.62,2.87,6.71,2.87,9.27
				c0,2.3-0.83,4.23-2.5,5.79c-1.66,1.56-3.74,2.34-6.21,2.34c-2.79,0-5.12-0.92-7-2.77c-1.89-1.86-2.83-4.3-2.83-7.34
				c0-5.52,2.28-10.37,6.83-14.53c4.56-4.17,10.92-6.26,19.1-6.26c8.67,0,15.271,2.02,19.8,6.05C87.63,27.55,89.9,32.42,89.9,38.14z
				"/>
		</g>
		<g>
		</g>
	</g>
</g>
</svg>
