<?xml version="1.0" encoding="utf-8"?>
<!-- Generator: Adobe Illustrator 15.1.0, SVG Export Plug-In . SVG Version: 6.00 Build 0)  -->
<!DOCTYPE svg PUBLIC "-//W3C//DTD SVG 1.1//EN" "http://www.w3.org/Graphics/SVG/1.1/DTD/svg11.dtd">
<svg version="1.1" id="Layer_1" xmlns="http://www.w3.org/2000/svg" xmlns:xlink="http://www.w3.org/1999/xlink" x="0px" y="0px"
	 width="128px" height="128px" viewBox="0 0 128 128" enable-background="new 0 0 128 128" xml:space="preserve">
<g id="ARC_14_">
	<g id="XMLID_1_">
		<g>
			<path d="M58.33,49.31c-0.15-0.25-0.31-0.5-0.46-0.75c-3.18-5.24-2.37-11.97,1.97-16.31l2.58-2.58c3.29-3.29,7.88-4.94,12.51-4.49
				c3.28-2.4,6.551-4.93,9.801-7.6c3.26-2.67,6.68-5.36,10.279-8.08c3.181-3.19,7.5-4.98,12.01-4.98c9.381,0,16.98,7.61,16.98,16.99
				c0,4.5-1.79,8.82-4.98,12.01h0.011c-2.721,3.59-5.41,7.02-8.08,10.27c-2.67,3.26-5.21,6.52-7.61,9.81
				c0.45,4.63-1.189,9.21-4.479,12.5L96.27,68.69C91.94,73.02,85.2,73.83,79.96,70.65c-0.25-0.15-0.5-0.301-0.75-0.46L36.1,113.3
				c-2.27,2.28-5.51,3.311-8.68,2.78c-1.66-0.28-3.35,0.18-4.64,1.26l-5.48,4.601c-2.21,1.859-5.29,2.31-7.94,1.149l-3.67-3.41
				c-1.46-2.739-1.1-6.08,0.89-8.46l4.61-5.479c1.08-1.28,1.54-2.98,1.26-4.63c-0.54-3.181,0.5-6.41,2.77-8.69L58.33,49.31z
				 M56.82,84.31l17.5-17.5c-4.761-3.609-8.99-7.85-12.6-12.6l-30.1,30.1H56.82z"/>
		</g>
		<g>
		</g>
	</g>
</g>
</svg>
