<?xml version="1.0" encoding="utf-8"?>
<!-- Generator: Adobe Illustrator 16.0.0, SVG Export Plug-In . SVG Version: 6.00 Build 0)  -->
<!DOCTYPE svg PUBLIC "-//W3C//DTD SVG 1.1//EN" "http://www.w3.org/Graphics/SVG/1.1/DTD/svg11.dtd">
<svg version="1.1" id="Layer_1" xmlns="http://www.w3.org/2000/svg" xmlns:xlink="http://www.w3.org/1999/xlink" x="0px" y="0px"
	 width="64px" height="64px" viewBox="0 0 64 64" enable-background="new 0 0 64 64" xml:space="preserve">
<g id="ARC_7_">
	<g id="XMLID_1_">
		<g>
			<polygon points="55.5,9.22998 56.740234,11.390137 50.280273,15.120117 49.030273,12.970215 			"/>
			<polygon points="58.230469,15.839844 58.879883,18.240234 51.669922,20.169922 51.019531,17.77002 			"/>
			<rect x="51.700195" y="22.919922" width="7.469727" height="2.490234"/>
			<polygon points="58.230469,30.009766 57.589844,32.410156 50.379883,30.47998 51.019531,28.069824 			"/>
			<polygon points="14.549805,12.970215 13.299805,15.120117 6.839844,11.390137 8.080078,9.22998 			"/>
			<polygon points="12.560059,17.77002 11.919922,20.169922 4.700195,18.240234 5.350098,15.839844 			"/>
			<rect x="4.410156" y="22.919922" width="7.469727" height="2.490234"/>
			<polygon points="12.560059,28.069824 13.200195,30.47998 5.990234,32.410156 5.350098,30.009766 			"/>
			<polygon points="39.259766,20.430176 36.769531,22.919922 34.280273,22.919922 36.769531,20.430176 			"/>
			<polygon points="29.299805,20.430176 26.810059,22.919922 24.319824,22.919922 26.810059,20.430176 			"/>
			<polygon points="34.280273,20.430176 31.790039,22.919922 29.299805,22.919922 31.790039,20.430176 			"/>
			<rect x="34.280273" y="25.410156" width="2.489258" height="12.439453"/>
			<rect x="26.810059" y="25.410156" width="2.489746" height="12.439453"/>
			<path d="M45.230469,11.830078c6.119141,7.429688,5.069336,18.410156-2.350586,24.530273
				c-2.299805,1.889648-3.620117,4.709961-3.620117,7.679688v8.75l-2.490234,2.479492c0,2.75-2.229492,4.980469-4.979492,4.980469
				s-4.97998-2.230469-4.97998-4.980469l-2.490234-2.479492v-8.75c0-2.969727-1.319824-5.790039-3.619629-7.679688
				c-0.850098-0.709961-1.640137-1.5-2.350098-2.350586c-6.120117-7.419922-5.070313-18.399902,2.350098-24.529785
				C28.129883,3.359863,39.110352,4.410156,45.230469,11.830078z M41.290039,34.44043
				c6.360352-5.250488,7.269531-14.660645,2.019531-21.020508s-14.659668-7.27002-21.019531-2.02002
				s-7.27002,14.660156-2.02002,21.02002c0.609863,0.740234,1.279785,1.410156,2.02002,2.020508
				c1.25,1.029297,2.27002,2.290039,3.02002,3.679688c0.969727,1.799805,1.5,3.830078,1.5,5.919922
				c3.27002,0.830078,6.689941,0.830078,9.959473,0c0-1.860352,0.410156-3.669922,1.19043-5.30957
				C38.730469,37.089844,39.860352,35.620117,41.290039,34.44043z"/>
		</g>
		<g>
		</g>
	</g>
</g>
</svg>
