<?xml version="1.0" encoding="utf-8"?>
<!-- Generator: Adobe Illustrator 16.0.0, SVG Export Plug-In . SVG Version: 6.00 Build 0)  -->
<!DOCTYPE svg PUBLIC "-//W3C//DTD SVG 1.1//EN" "http://www.w3.org/Graphics/SVG/1.1/DTD/svg11.dtd">
<svg version="1.1" id="Layer_1" xmlns="http://www.w3.org/2000/svg" xmlns:xlink="http://www.w3.org/1999/xlink" x="0px" y="0px"
	 width="64px" height="64px" viewBox="0 0 64 64" enable-background="new 0 0 64 64" xml:space="preserve">
<g id="SPLINE_2_">
	<g id="XMLID_1_">
		<g>
			<path d="M30.919922,42.830078c-3.049805,1.049805-5.169922,1.629883-6.339844,1.719727l-1.490234-1.490234l1.490234-1.5
				L41.69043,24.439941l1.5-1.489746l1.489258,1.489746c-0.089844,1.180176-0.660156,3.290039-1.719727,6.350098
				c-1.049805,3.049805-0.94043,5.120117,0.330078,6.219727c1.280273,1.100586,3.05957,2.280273,5.360352,3.540039
				c2.290039,1.25,4.149414,2.589844,5.55957,4s2.469727,2.820313,3.169922,4.230469
				c0.709961,1.410156,1.179688,2.910156,1.419922,4.489258c0.240234,1.580078-0.169922,2.960938-1.240234,4.160156
				c-1.189453,1.070313-2.579102,1.480469-4.15918,1.240234S50.330078,57.959961,48.919922,57.25
				c-1.419922-0.709961-2.830078-1.759766-4.240234-3.179688c-1.410156-1.410156-2.739258-3.260742-4-5.560547
				c-1.259766-2.290039-2.429688-4.080078-3.529297-5.349609C36.049805,41.889648,33.969727,41.780273,30.919922,42.830078z
				 M55.230469,52.110352c0-1.650391-1.34082-2.990234-2.990234-2.990234c-1.650391,0-2.990234,1.339844-2.990234,2.990234
				c0,1.649414,1.339844,2.989258,2.990234,2.989258C53.889648,55.099609,55.230469,53.759766,55.230469,52.110352z"/>
			<path d="M30.399902,13.160156L23.52002,6.27002L6.399902,23.379883l6.790039,6.790039
				c2.419922,1.439941,3.970215,1.899902,4.649902,1.379883c0.680176-0.529785,0.75-1.349609,0.180176-2.47998
				C17.450195,27.939941,16.799805,26.910156,16.049805,26c-0.739746-0.910156-1.169922-1.899902-1.27002-2.970215
				c-0.099609-1.069824,0.390137-1.459961,1.460449-1.179688c1.05957,0.290039,2.049805,0.799805,2.949707,1.529785
				s2.069824,1.200195,3.510254,1.399902c1.429688,0.200195,2.509766-0.099609,3.22998-0.899902
				c0.719727-0.799805,0.97998-1.679688,0.799805-2.649902s-0.629883-1.899902-1.330078-2.779785
				c-0.699707-0.880371-0.790039-1.630371-0.27002-2.22998c0.52002-0.600098,1.149902-0.570313,1.899902,0.07959
				c0.75,0.650391,1.560059,1.080078,2.430176,1.300293c0.870117,0.219727,1.580078,0.120117,2.129883-0.280273
				c0.550293-0.399902,0.640137-1.02002,0.280273-1.869629C31.580078,14.799805,31.100098,14.029785,30.399902,13.160156z
				 M23.52002,3.279785l19.67041,19.67041l-1.5,1.489746l-4.030273-4.029785L20.540039,37.519531l4.040039,4.040039l-1.490234,1.5
				L3.410156,23.379883L23.52002,3.279785z"/>
		</g>
		<g>
		</g>
	</g>
</g>
</svg>
