<?xml version="1.0" encoding="utf-8"?>
<!-- Generator: Adobe Illustrator 16.0.0, SVG Export Plug-In . SVG Version: 6.00 Build 0)  -->
<!DOCTYPE svg PUBLIC "-//W3C//DTD SVG 1.1//EN" "http://www.w3.org/Graphics/SVG/1.1/DTD/svg11.dtd">
<svg version="1.1" id="Layer_1" xmlns="http://www.w3.org/2000/svg" xmlns:xlink="http://www.w3.org/1999/xlink" x="0px" y="0px"
	 width="64px" height="64px" viewBox="0 0 64 64" enable-background="new 0 0 64 64" xml:space="preserve">
<g id="LINE_21_">
	<g id="XMLID_1_">
		<g>
			<path d="M24.319824,5.5h19.910645v9.959961H24.319824V5.5z M26.810059,12.970215H41.75v-4.97998H26.810059V12.970215z"/>
			<path d="M43.389648,46.839844c2.669922-2.729492,3.400391-6.820313,1.84082-10.299805l-2.450195,1.740234
				C44,40.959961,44.219727,44,43.389648,46.839844z M26.569824,40.339844c0-5.629883,4.560059-10.199707,10.199707-10.199707
				c5.630859,0,10.200195,4.569824,10.200195,10.199707c0,5.640625-4.569336,10.200195-10.200195,10.200195
				C31.129883,50.540039,26.569824,45.980469,26.569824,40.339844z M44.209961,34.80957
				c-2.280273-3.069336-6.219727-4.429688-9.910156-3.409668c3.110352,0.700195,5.820313,2.569824,7.570313,5.22998
				L44.209961,34.80957z"/>
			<path d="M54.19043,57.759766H9.390137c-2.75,0-4.97998-2.229492-4.97998-4.969727V27.899902
				c0-2.75,2.22998-4.97998,4.97998-4.97998h4.97998v7.470215h4.97998v-7.470215h4.969727v-4.97998h19.910645v4.97998h9.959961
				c2.75,0,4.979492,2.22998,4.979492,4.97998v24.890137C59.169922,55.530273,56.94043,57.759766,54.19043,57.759766z
				 M36.769531,55.269531c8.240234,0,14.930664-6.679688,14.930664-14.929688s-6.69043-14.929688-14.930664-14.929688
				c-8.249512,0-14.929688,6.679688-14.929688,14.929688S28.52002,55.269531,36.769531,55.269531z"/>
		</g>
		<g>
		</g>
	</g>
</g>
</svg>
