<?xml version="1.0" encoding="utf-8"?>
<!-- Generator: Adobe Illustrator 15.1.0, SVG Export Plug-In . SVG Version: 6.00 Build 0)  -->
<!DOCTYPE svg PUBLIC "-//W3C//DTD SVG 1.1//EN" "http://www.w3.org/Graphics/SVG/1.1/DTD/svg11.dtd">
<svg version="1.1" id="Layer_1" xmlns="http://www.w3.org/2000/svg" xmlns:xlink="http://www.w3.org/1999/xlink" x="0px" y="0px"
	 width="128px" height="128px" viewBox="0 0 128 128" enable-background="new 0 0 128 128" xml:space="preserve">
<g id="CIRCLE">
	<g id="XMLID_1_">
		<g>
			<path d="M35.24,111.97c25.77,12.55,57.21,3.101,71.63-22.16c1.14-1.979,2.149-4.04,3.03-6.159
				c10.52,6.569,15.119,13.79,13.81,21.68c-1.32,7.88-6.56,13.25-15.729,16.12c-9.171,2.87-20.181,3.85-33.04,2.96
				C62.97,123.57,49.74,119.43,35.24,111.97z"/>
			<path d="M56.11,2.34c29.291,0,53.041,23.74,53.041,53.04c0,29.29-23.75,53.03-53.041,53.03c-29.29,0-53.03-23.74-53.03-53.03
				C3.08,26.08,26.82,2.34,56.11,2.34z M55.89,53.57c9.74-9.74,10.959-24.31,2.73-32.54c-8.23-8.23-22.79-7.01-32.53,2.73
				c-9.74,9.74-10.96,24.31-2.73,32.54S46.15,63.3,55.89,53.57z"/>
		</g>
		<g>
		</g>
	</g>
</g>
</svg>
