<?xml version="1.0" encoding="utf-8"?>
<!-- Generator: Adobe Illustrator 15.1.0, SVG Export Plug-In . SVG Version: 6.00 Build 0)  -->
<!DOCTYPE svg PUBLIC "-//W3C//DTD SVG 1.1//EN" "http://www.w3.org/Graphics/SVG/1.1/DTD/svg11.dtd">
<svg version="1.1" id="Layer_1" xmlns="http://www.w3.org/2000/svg" xmlns:xlink="http://www.w3.org/1999/xlink" x="0px" y="0px"
	 width="128px" height="128px" viewBox="0 0 128 128" enable-background="new 0 0 128 128" xml:space="preserve">
<g id="LINE_59_">
	<g id="XMLID_1_">
		<g>
			<polygon points="79.15,39.65 59.03,63.79 79.15,87.93 69.09,96.32 41.98,63.79 69.09,31.26 			"/>
			<rect x="36.45" y="4.07" width="22.12" height="11.06"/>
			<rect x="69.63" y="4.07" width="22.12" height="11.06"/>
			<rect x="3.27" y="4.07" width="22.12" height="11.06"/>
			<rect x="3.27" y="26.19" width="11.06" height="22.12"/>
			<rect x="3.27" y="59.37" width="11.06" height="22.12"/>
			<polygon points="25.39,114.67 25.39,125.73 3.27,125.73 3.27,114.67 3.27,92.55 14.33,92.55 14.33,114.67 			"/>
			<rect x="36.45" y="114.67" width="22.12" height="11.061"/>
			<rect x="69.63" y="114.67" width="22.12" height="11.061"/>
			<rect x="102.81" y="114.67" width="22.12" height="11.061"/>
			<rect x="113.87" y="81.49" width="11.06" height="22.12"/>
			<rect x="113.87" y="48.31" width="11.06" height="22.12"/>
			<polygon points="124.93,15.13 124.93,37.25 113.87,37.25 113.87,15.13 102.81,15.13 102.81,4.07 124.93,4.07 			"/>
		</g>
		<g>
		</g>
	</g>
</g>
</svg>
