<?xml version="1.0" encoding="utf-8"?>
<!-- Generator: Adobe Illustrator 15.1.0, SVG Export Plug-In . SVG Version: 6.00 Build 0)  -->
<!DOCTYPE svg PUBLIC "-//W3C//DTD SVG 1.1//EN" "http://www.w3.org/Graphics/SVG/1.1/DTD/svg11.dtd">
<svg version="1.1" id="Layer_1" xmlns="http://www.w3.org/2000/svg" xmlns:xlink="http://www.w3.org/1999/xlink" x="0px" y="0px"
	 width="128px" height="128px" viewBox="0 0 128 128" enable-background="new 0 0 128 128" xml:space="preserve">
<g id="LINE_20_">
	<g id="XMLID_1_">
		<g>
			<rect x="45.44" y="88.66" width="12.2" height="30.5"/>
			<path d="M29.07,69.03H98.4c4.43,0,8.029-3.601,8.029-8.04V9.37H21.04v51.62C21.04,65.43,24.64,69.03,29.07,69.03z M124.73,3.27
				v121.99h-24.4V90.45c0-4.44-3.6-8.04-8.03-8.04H41.27c-4.43,0-8.03,3.6-8.03,8.04v34.81H20L2.74,108V3.27H124.73z M120.15,23.1
				v-9.15H111v9.15H120.15z"/>
			<path fill="#FFFFFF" d="M98.4,69.03l8.029-8.04C106.43,65.43,102.83,69.03,98.4,69.03z"/>
			<path fill="#FFFFFF" d="M92.3,82.41c4.431,0,8.03,3.6,8.03,8.04L92.3,82.41z"/>
			<path fill="#FFFFFF" d="M33.24,90.45c0-4.44,3.6-8.04,8.03-8.04L33.24,90.45z"/>
			<path fill="#FFFFFF" d="M21.04,60.99l8.03,8.04C24.64,69.03,21.04,65.43,21.04,60.99z"/>
		</g>
		<g>
		</g>
	</g>
</g>
</svg>
