<?xml version="1.0" encoding="utf-8"?>
<!-- Generator: Adobe Illustrator 15.1.0, SVG Export Plug-In . SVG Version: 6.00 Build 0)  -->
<!DOCTYPE svg PUBLIC "-//W3C//DTD SVG 1.1//EN" "http://www.w3.org/Graphics/SVG/1.1/DTD/svg11.dtd">
<svg version="1.1" id="Layer_1" xmlns="http://www.w3.org/2000/svg" xmlns:xlink="http://www.w3.org/1999/xlink" x="0px" y="0px"
	 width="128px" height="128px" viewBox="0 0 128 128" enable-background="new 0 0 128 128" xml:space="preserve">
<g id="ARC_1_">
	<g id="XMLID_1_">
		<g>
			<path d="M119.23,109.13H107.85c-0.21-15.27-12.77-27.479-28.04-27.26C64.54,82.08,52.33,94.63,52.54,109.9
				c0.05,3.479,0.75,6.92,2.08,10.14l-10.57,4.229c-1.86-4.56-2.84-9.439-2.89-14.369C40.95,88.35,58.25,70.7,79.81,70.49
				C101.37,70.27,119.02,87.58,119.23,109.13z"/>
			<polygon points="124.73,53.86 118.87,63.62 33.52,12.41 39.38,2.65 			"/>
			<polygon points="47.75,43.7 47.75,55.08 30.68,55.08 30.68,72.15 19.3,72.15 19.3,55.08 2.23,55.08 2.23,43.7 19.3,43.7 
				19.3,26.63 30.68,26.63 30.68,43.7 			"/>
		</g>
		<g>
		</g>
	</g>
</g>
</svg>
