<?xml version="1.0" encoding="utf-8"?>
<!-- Generator: Adobe Illustrator 15.1.0, SVG Export Plug-In . SVG Version: 6.00 Build 0)  -->
<!DOCTYPE svg PUBLIC "-//W3C//DTD SVG 1.1//EN" "http://www.w3.org/Graphics/SVG/1.1/DTD/svg11.dtd">
<svg version="1.1" id="Layer_1" xmlns="http://www.w3.org/2000/svg" xmlns:xlink="http://www.w3.org/1999/xlink" x="0px" y="0px"
	 width="128px" height="128px" viewBox="0 0 128 128" enable-background="new 0 0 128 128" xml:space="preserve">
<g id="LINE_12_">
	<g id="XMLID_1_">
		<g>
			<path d="M106,116.28c-1.29,3.18-2.95,5.489-4.96,6.92c-1.95,1.39-3.84,2.109-5.66,2.14l-0.09-2.02c1.06,0,2.16-0.471,3.29-1.391
				c1.14-0.93,2-2.479,2.6-4.649c0.891-3.29,1.34-7.92,1.34-13.9c0-4.43-0.47-8.12-1.409-11.07c-0.7-2.199-1.61-3.76-2.73-4.67
				c-0.7-0.55-1.53-0.87-2.49-0.939l0.07-2.021c2.79,0.141,5.31,1.67,7.55,4.58c2.96,3.79,4.44,8.931,4.44,15.431
				C107.95,109.24,107.3,113.1,106,116.28z"/>
			<path d="M95.47,86.69c-1.33,0-2.51,0.59-3.55,1.75c-1.41,1.579-2.37,4.069-2.88,7.47c-0.51,3.399-0.76,6.75-0.76,10.06
				c0,5.34,0.67,9.7,2.02,13.07c1.12,2.85,2.78,4.28,4.99,4.28l0.09,2.02c-0.06,0.01-0.11,0.01-0.17,0.01
				c-3.69,0-6.78-2.21-9.24-6.619c-2.08-3.721-3.12-8.2-3.12-13.44c0-4.46,0.67-8.31,2.011-11.54c1.33-3.23,3.109-5.63,5.319-7.22
				c1.71-1.25,3.49-1.87,5.32-1.87c0.15,0,0.31,0,0.46,0.02L95.89,86.7C95.75,86.7,95.61,86.69,95.47,86.69z"/>
			<path d="M76.16,116.28c-1.29,3.18-2.95,5.489-4.96,6.92c-1.96,1.39-3.84,2.109-5.66,2.14l-0.09-2.02
				c1.06,0,2.16-0.471,3.29-1.391c1.14-0.93,2-2.479,2.59-4.649c0.9-3.29,1.35-7.92,1.35-13.9c0-4.43-0.47-8.12-1.41-11.07
				c-0.699-2.199-1.619-3.76-2.729-4.67c-0.7-0.55-1.53-0.87-2.49-0.939l0.07-2.021c2.79,0.141,5.31,1.67,7.55,4.58
				c2.96,3.79,4.44,8.931,4.44,15.431C78.11,109.24,77.46,113.1,76.16,116.28z"/>
			<path d="M65.63,86.69c-1.33,0-2.51,0.59-3.55,1.75c-1.41,1.579-2.37,4.069-2.88,7.47c-0.51,3.399-0.76,6.75-0.76,10.06
				c0,5.34,0.67,9.7,2.02,13.07c1.12,2.85,2.78,4.28,4.99,4.28l0.09,2.02c-0.06,0.01-0.11,0.01-0.17,0.01
				c-3.7,0-6.78-2.21-9.24-6.619c-2.08-3.721-3.12-8.2-3.12-13.44c0-4.46,0.67-8.31,2.01-11.54c1.33-3.23,3.1-5.63,5.32-7.22
				c1.71-1.25,3.49-1.87,5.32-1.87c0.149,0,0.31,0,0.46,0.02L66.05,86.7C65.91,86.7,65.77,86.69,65.63,86.69z"/>
			<path d="M42.3,120.5c-2.83,3.23-6.92,4.85-12.28,4.85c-2.65,0-4.45-0.3-5.41-0.89c-0.96-0.6-1.44-1.24-1.44-1.93
				c0-0.511,0.23-0.96,0.67-1.34c0.45-0.391,0.98-0.591,1.6-0.591c0.47,0,0.95,0.061,1.44,0.181c0.32,0.069,1.05,0.34,2.18,0.8
				s1.92,0.729,2.35,0.81c0.7,0.17,1.44,0.25,2.23,0.25c1.93,0,3.61-0.76,5.03-2.29c1.42-1.52,2.14-3.319,2.14-5.409
				c0-1.511-0.31-3-0.94-4.45c-0.46-1.07-0.96-1.891-1.5-2.45c-0.76-0.771-1.81-1.47-3.13-2.1c-1.33-0.62-2.68-0.94-4.06-0.94h-0.84
				v-0.67c1.54-0.19,3.1-0.74,4.65-1.63c0.78-0.45,1.45-0.94,2.02-1.48l1.08,0.24c2.46,0.93,4.32,2.28,5.58,4.04
				c1.25,1.75,1.88,3.81,1.88,6.18C45.55,115.07,44.47,118.01,42.3,120.5z"/>
			<path d="M44.2,92.61c0,2.85-2.04,5.8-6.11,8.85l-1.08-0.24c0.57-0.54,1.03-1.13,1.38-1.76c0.71-1.25,1.06-2.64,1.06-4.15
				c0-1.97-0.65-3.55-1.95-4.77c-1.29-1.21-2.91-1.81-4.84-1.81c-3.12,0-5.72,1.51-7.81,4.529l-1-0.46
				c1.15-2.6,2.61-4.609,4.37-6.02c1.76-1.41,3.95-2.12,6.57-2.12c3.23,0,5.71,1.02,7.44,3.06C43.54,89.25,44.2,90.88,44.2,92.61z"
				/>
			<path d="M15.49,3.27c15.07,20.1,15.07,47.73,0,67.82C0.03,51.13,0.03,23.24,15.49,3.27z"/>
			<path d="M117.22,37.18L31.06,65.9c9.38-18,9.38-39.44,0-57.43L117.22,37.18z"/>
			<polygon points="122.87,3.27 122.87,71.09 117.22,71.09 117.22,37.18 117.22,3.27 			"/>
		</g>
		<g>
		</g>
	</g>
</g>
</svg>
