<?xml version="1.0" encoding="utf-8"?>
<!-- Generator: Adobe Illustrator 15.1.0, SVG Export Plug-In . SVG Version: 6.00 Build 0)  -->
<!DOCTYPE svg PUBLIC "-//W3C//DTD SVG 1.1//EN" "http://www.w3.org/Graphics/SVG/1.1/DTD/svg11.dtd">
<svg version="1.1" id="Layer_1" xmlns="http://www.w3.org/2000/svg" xmlns:xlink="http://www.w3.org/1999/xlink" x="0px" y="0px"
	 width="128px" height="128px" viewBox="0 0 128 128" enable-background="new 0 0 128 128" xml:space="preserve">
<g id="LINE_15_">
	<g id="XMLID_1_">
		<g>
			<path fill="#010101" d="M122.5,27.8l4.41,23.13l-8.16,42.83l-7-36.73l-7.94,41.69c-0.85,4.41-4.3,7.87-8.72,8.71
				c-5.939,1.13-11.68-2.77-12.81-8.71l-7.94-41.69L66.4,98.72c-0.841,4.41-4.3,7.87-8.71,8.71c-5.95,1.13-11.69-2.77-12.82-8.71
				l-7.94-41.69l-7.94,41.69c-0.84,4.41-4.3,7.87-8.71,8.71c-5.95,1.13-11.68-2.77-12.82-8.71L1.54,67.63L9.7,24.8l8.53,44.74
				l7.95-41.74c0.84-4.41,4.29-7.86,8.7-8.7c5.94-1.13,11.67,2.76,12.8,8.7l7.95,41.74l7.96-41.74c0.84-4.41,4.29-7.86,8.7-8.7
				c5.94-1.13,11.67,2.76,12.8,8.7l7.95,41.74L101,27.8c0.84-4.41,4.29-7.86,8.7-8.7C115.64,17.97,121.37,21.86,122.5,27.8z"/>
		</g>
		<g>
		</g>
	</g>
</g>
</svg>
