<?xml version="1.0" encoding="utf-8"?>
<!-- Generator: Adobe Illustrator 15.1.0, SVG Export Plug-In . SVG Version: 6.00 Build 0)  -->
<!DOCTYPE svg PUBLIC "-//W3C//DTD SVG 1.1//EN" "http://www.w3.org/Graphics/SVG/1.1/DTD/svg11.dtd">
<svg version="1.1" id="Layer_1" xmlns="http://www.w3.org/2000/svg" xmlns:xlink="http://www.w3.org/1999/xlink" x="0px" y="0px"
	 width="128px" height="128px" viewBox="0 0 128 128" enable-background="new 0 0 128 128" xml:space="preserve">
<g id="SPLINE_25_">
	<g id="XMLID_1_">
		<g>
			<path fill="#010101" d="M127,33.33v91.36h-5.71c-15.23-30.45-29.5-36.16-42.83-17.131c-13.32,19.04-27.68,18.28-43.09-2.26
				c-7.43-9.91-18.76-9.149-33.99,2.3l11.29-90.37c30.54,14.54,55.16,13.31,73.85-3.68C109.7-7.52,123.19-0.93,127,33.33z
				 M121.29,112.76V84.01c-0.04-0.1-0.09-0.189-0.13-0.29c-1.141-2.55-2.38-5.109-3.771-7.51c-1.38-2.41-2.92-4.66-4.71-6.83
				s-3.84-4.27-6.35-5.42c-0.41-0.19-0.85-0.36-1.29-0.5l-4.78,28.44c0.771,0.25,1.521,0.55,2.24,0.89c2.91,1.35,5.48,3.34,7.8,5.56
				c2.32,2.221,4.391,4.681,6.28,7.261C118.27,107.91,119.83,110.31,121.29,112.76z M121.29,71.61V52.49
				c-0.63-1.87-1.33-3.75-2.1-5.53c-1.07-2.49-2.28-4.81-3.801-7.14c-1.46-2.22-3.189-4.44-5.43-5.66L106,57.76
				c1.75,0.52,3.44,1.33,4.98,2.33c2.47,1.61,4.56,3.72,6.42,6C118.82,67.84,120.11,69.69,121.29,71.61z M121.29,38.46v-5.13
				c-0.03-3.11-1.03-6.35-1.8-9.82c-0.78-3.46-1.311-7.17-3.061-10.33c-0.649-1.18-1.47-2.27-2.41-3.2l-3.079,18.36
				c1.39,0.58,2.71,1.37,3.899,2.3c2.271,1.77,4.08,4.06,5.63,6.49C120.75,37.57,121.03,38.01,121.29,38.46z M105.33,27.25
				l3.37-20.02c-0.101-0.01-0.2-0.01-0.3-0.02c-3.311-0.18-6.96,2.09-10,4.23s-5.48,4.15-8.15,6.38c-2.12,1.78-4.39,3.7-6.76,5.39
				l-2.54,18.04c1.26-0.72,2.479-1.49,3.67-2.32c2.35-1.65,4.54-3.53,6.79-5.34c2.24-1.8,4.53-3.54,7.16-4.73
				C100.69,27.9,103.02,27.29,105.33,27.25z M100.3,57.18l4.05-24.08c-0.899,0.09-1.79,0.28-2.64,0.58c-2.56,0.9-4.72,2.74-6.84,4.5
				c-2.12,1.76-4.2,3.45-6.42,5.01c-2.22,1.57-4.58,3.03-7,4.3c-0.49,0.25-0.99,0.5-1.48,0.74l-3.45,24.46
				c1.351-0.891,2.65-1.87,3.891-2.91c2.25-1.891,4.3-4.021,6.51-5.97c2.2-1.96,4.561-3.73,7.24-4.96
				C96.09,57.96,98.19,57.36,100.3,57.18z M94.64,90.88l4.67-27.78c-0.369,0.07-0.739,0.15-1.109,0.26
				c-2.65,0.77-4.98,2.541-7.09,4.39c-2.12,1.86-4.03,3.8-6.12,5.62c-2.101,1.83-4.37,3.52-6.74,4.99
				c-0.91,0.56-1.82,1.08-2.75,1.569l-3.81,27.04c1.779-2.26,3.39-4.529,5.239-6.689c2.07-2.42,4.44-4.7,7.19-6.391
				c2.74-1.699,5.86-2.79,9.04-2.979C93.65,90.88,94.15,90.87,94.64,90.88z M74.75,44.3l2.44-17.31
				c-1.631,0.8-3.311,1.51-5.021,2.16c-3.32,1.25-6.78,2.29-10.29,2.93c-3.51,0.65-7.07,0.91-10.62,0.91
				c-0.68-0.01-1.36-0.01-2.03-0.03l-2.09,13.59c1.59,0.35,3.19,0.67,4.8,0.88c2.85,0.37,5.74,0.42,8.62,0.22
				c2.88-0.2,5.73-0.64,8.51-1.39C71,45.74,72.9,45.08,74.75,44.3z M70.27,76.1l3.57-25.34c-2.54,0.87-5.17,1.56-7.83,2.01
				c-2.69,0.45-5.41,0.67-8.14,0.69c-2.74,0.02-5.48-0.15-8.18-0.58c-1.15-0.18-2.29-0.41-3.42-0.67l-3.18,20.68
				c1.52,0.91,3.03,1.86,4.62,2.65c2.63,1.31,5.49,2.18,8.41,2.58c2.92,0.39,5.9,0.32,8.77-0.28C66.74,77.45,68.54,76.85,70.27,76.1
				z M64.99,113.57l4.38-31.04c-2.19,0.71-4.46,1.21-6.73,1.43c-2.77,0.26-5.55,0.09-8.31-0.36c-2.76-0.46-5.49-1.21-8.01-2.38
				c-1.43-0.67-2.8-1.479-4.16-2.29l-3.34,21.74c0.49,0.561,0.97,1.13,1.45,1.69c2.06,2.439,4.03,4.8,6.34,7.08
				c2.3,2.279,4.95,4.479,7.97,5.449c3.02,0.96,6.41,0.7,9.27-0.689C64.24,114.01,64.62,113.8,64.99,113.57z M41.57,45.2l1.94-12.63
				c-0.97-0.1-1.94-0.23-2.9-0.37c-3.53-0.52-7.01-1.29-10.44-2.24c-3.44-0.95-6.82-2.07-10.14-3.35c-0.89-0.33-1.77-0.69-2.65-1.04
				l-2.05,16.45c0.85,0.03,1.71,0.06,2.56,0.1c2.87,0.13,5.74,0.35,8.6,0.61c2.87,0.27,5.75,0.57,8.58,1.06
				C37.25,44.18,39.41,44.67,41.57,45.2z M37.73,70.21l2.97-19.36c-2.32-0.57-4.64-1.09-6.99-1.49c-2.7-0.46-5.42-0.74-8.14-0.98
				c-2.72-0.25-5.44-0.45-8.17-0.57c-0.93-0.04-1.85-0.07-2.78-0.09L12,68.68c0.67-0.08,1.35-0.16,2.03-0.229
				c2.92-0.3,5.86-0.47,8.8-0.47c2.95-0.011,5.89,0.14,8.8,0.63C33.71,68.96,35.76,69.47,37.73,70.21z M33.78,95.93l3.05-19.859
				c-1.8-0.78-3.68-1.4-5.6-1.771c-2.73-0.54-5.57-0.609-8.37-0.59c-2.79,0.021-5.54,0.12-8.32,0.41c-1.09,0.11-2.18,0.25-3.27,0.41
				L8.54,96.38c2.01-1,4.1-1.87,6.24-2.5c3.07-0.91,6.26-1.34,9.47-1.1c3.21,0.25,6.44,1.16,9.13,2.88
				C33.51,95.75,33.64,95.84,33.78,95.93z"/>
		</g>
		<g>
		</g>
	</g>
</g>
</svg>
