<?xml version="1.0" encoding="utf-8"?>
<!-- Generator: Adobe Illustrator 15.1.0, SVG Export Plug-In . SVG Version: 6.00 Build 0)  -->
<!DOCTYPE svg PUBLIC "-//W3C//DTD SVG 1.1//EN" "http://www.w3.org/Graphics/SVG/1.1/DTD/svg11.dtd">
<svg version="1.1" id="Layer_1" xmlns="http://www.w3.org/2000/svg" xmlns:xlink="http://www.w3.org/1999/xlink" x="0px" y="0px"
	 width="128px" height="128px" viewBox="0 0 128 128" enable-background="new 0 0 128 128" xml:space="preserve">
<g id="LINE">
	<g id="XMLID_1_">
		<g>
			<path fill="#010101" d="M119.67,8.95c3.71,14.84,2.94,25.76-2.3,32.74c-5.89,7.86-14.4,14.57-25.54,20.14
				C80.7,67.4,74.21,72.03,72.35,75.75c-1.859,3.71-2.779,8.35-2.779,13.91c0,5.57,1.16,11.85,3.489,18.84
				c1.381,4.14,11.351,8.07,29.91,11.78c0,3.399-17.45,6.16-38.97,6.16c-21.52,0-38.97-2.761-38.97-6.16
				c18.56-3.71,28.53-7.641,29.91-11.78c2.33-6.99,3.49-13.27,3.49-18.84c0-5.561-0.92-10.2-2.78-13.91
				c-1.86-3.72-8.35-8.35-19.48-13.92c-11.14-5.57-19.65-12.28-25.54-20.14c-5.24-6.98-6.01-17.9-2.3-32.74
				c0-4.31,24.93-7.8,55.67-7.8C94.75,1.15,119.67,4.64,119.67,8.95z M114.1,20.08c0-3.71-0.04-5.06-0.119-4.06
				c-0.08,1.01-5.61,2.36-16.58,4.06c0.899,7.76-1.65,16.2-7.67,25.3c-6.021,9.11-8.101,12.74-6.25,10.88
				c1.859-1.85,4.64-3.71,8.35-5.56c3.71-1.86,7.43-4.64,11.14-8.35c3.71-3.72,6.49-7.43,8.351-11.14
				C113.17,27.5,114.1,23.79,114.1,20.08z M84.1,16.21c14.69-0.79,26.28-2.42,31.9-4.48c-10.98-4.02-43.16-6.04-71.88-4.5
				c-14.84,0.8-26.56,2.44-32.18,4.52l0.15,0.01C23.19,15.77,55.44,17.77,84.1,16.21z"/>
		</g>
		<g>
		</g>
	</g>
</g>
</svg>
