<?xml version="1.0" encoding="utf-8"?>
<!-- Generator: Adobe Illustrator 15.1.0, SVG Export Plug-In . SVG Version: 6.00 Build 0)  -->
<!DOCTYPE svg PUBLIC "-//W3C//DTD SVG 1.1//EN" "http://www.w3.org/Graphics/SVG/1.1/DTD/svg11.dtd">
<svg version="1.1" id="Layer_1" xmlns="http://www.w3.org/2000/svg" xmlns:xlink="http://www.w3.org/1999/xlink" x="0px" y="0px"
	 width="128px" height="128px" viewBox="0 0 128 128" enable-background="new 0 0 128 128" xml:space="preserve">
<g id="LINE_103_">
	<g id="XMLID_1_">
		<g>
			<path fill="#010101" d="M125.67,97.13v27.92H97.75v-5.37c-5.59-1.02-11.18-1.77-16.75-2.27v7.64H53.09v-8
				c-7.47,0.49-14.92,1.44-22.33,2.86v5.14H2.84V97.13h5.14c1.42-7.42,2.37-14.86,2.86-22.33h-8V46.89h7.64
				c-0.5-5.57-1.25-11.16-2.27-16.75H2.84V2.22h27.92v7.62c5.58,1.28,11.16,2.23,16.74,2.86V2.22h27.92v10.84
				c7.44-0.64,14.89-1.86,22.33-3.66V2.22h27.92v27.92h-7.18c-1.811,7.44-3.03,14.89-3.66,22.33h10.84v27.91H115.19
				c0.63,5.59,1.579,11.17,2.859,16.75H125.67z M120.08,119.47v-16.75h-16.74v16.75H120.08z M120.08,74.8V58.05h-16.74V74.8H120.08z
				 M120.08,24.55V7.81h-16.74v16.74H120.08z M112.91,30.14H97.75V14.98c-7.44,1.81-14.89,3.03-22.33,3.66v11.5H64.4l5.59,16.75H81
				V57.9l16.75,5.58V52.47h11.5C109.88,45.03,111.1,37.58,112.91,30.14z M97.75,97.13h14.71c-1.28-5.58-2.229-11.16-2.85-16.75
				H97.75V69.37L81,63.79V74.8H69.84v22.33H81v14.69c5.57,0.51,11.16,1.26,16.75,2.27V97.13z M75.42,119.47v-16.75H58.67v16.75
				H75.42z M75.42,69.22V52.47H58.67v16.75H75.42z M69.84,24.55V7.81H53.09v16.74H69.84z M64.25,97.13V74.8H53.09V63.64H30.76V74.8
				H16.42c-0.48,7.47-1.44,14.91-2.86,22.33h17.2v17.2c7.41-1.42,14.86-2.38,22.33-2.86V97.13H64.25z M64.1,46.89l-5.58-16.75H47.5
				V18.28c-5.58-0.62-11.16-1.57-16.74-2.85v14.71H13.8c1.01,5.59,1.76,11.18,2.26,16.75h14.7v11.16h22.33V46.89H64.1z
				 M25.17,119.47v-16.75H8.42v16.75H25.17z M25.17,69.22V52.47H8.42v16.75H25.17z M25.17,24.55V7.81H8.42v16.74H25.17z"/>
		</g>
		<g>
		</g>
	</g>
</g>
</svg>
