<?xml version="1.0" encoding="utf-8"?>
<!-- Generator: Adobe Illustrator 15.1.0, SVG Export Plug-In . SVG Version: 6.00 Build 0)  -->
<!DOCTYPE svg PUBLIC "-//W3C//DTD SVG 1.1//EN" "http://www.w3.org/Graphics/SVG/1.1/DTD/svg11.dtd">
<svg version="1.1" id="Layer_1" xmlns="http://www.w3.org/2000/svg" xmlns:xlink="http://www.w3.org/1999/xlink" x="0px" y="0px"
	 width="128px" height="128px" viewBox="0 0 128 128" enable-background="new 0 0 128 128" xml:space="preserve">
<g id="ELLIPSE_3_">
	<g id="XMLID_1_">
		<g>
			<path fill="#010101" d="M45.01,120.94l-3.15,3.14c-6.02,6.02-19.35,2.439-29.77-7.98c-10.43-10.43-14-23.76-7.98-29.77l3.15-3.15
				l0.8,0.801c-2.75,8.77,4.51,22.569,16.23,30.81c7.11,5.01,14.59,7.01,19.91,5.34L45.01,120.94z"/>
			<path fill="#010101" d="M114.35,13.83C124.78,24.26,128.94,37,123.66,42.28L45.01,120.94l-0.81-0.811
				c2.76-8.78-4.51-22.57-16.23-30.81c-7.11-5.011-14.59-7.011-19.91-5.34l-0.8-0.801L85.9,4.53
				C91.19-0.76,103.93,3.41,114.35,13.83z"/>
		</g>
		<g>
		</g>
	</g>
</g>
</svg>
