<?xml version="1.0" encoding="utf-8"?>
<!-- Generator: Adobe Illustrator 15.1.0, SVG Export Plug-In . SVG Version: 6.00 Build 0)  -->
<!DOCTYPE svg PUBLIC "-//W3C//DTD SVG 1.1//EN" "http://www.w3.org/Graphics/SVG/1.1/DTD/svg11.dtd">
<svg version="1.1" id="Layer_1" xmlns="http://www.w3.org/2000/svg" xmlns:xlink="http://www.w3.org/1999/xlink" x="0px" y="0px"
	 width="128px" height="128px" viewBox="0 0 128 128" enable-background="new 0 0 128 128" xml:space="preserve">
<g id="SPLINE_6_">
	<g id="XMLID_1_">
		<g>
			<path fill="#010101" d="M125.51,1.53V29.5h-4.68c-0.91,59.35-31.04,89.47-90.39,90.39v4.681H2.48V96.61h5.15
				C11.87,74.47,11.95,52.1,7.86,29.5H2.48V1.53h27.96v7.64c22.37,5.13,44.74,4.98,67.11-0.45V1.53H125.51z M119.92,23.9V7.13
				h-16.77V23.9H119.92z M91.96,69.63c18.64-0.66,26.1-14.04,22.37-40.13H97.55V14.31c-22.37,5.43-44.74,5.58-67.11,0.45V29.5H13.46
				c4.08,22.6,4,44.97-0.24,67.11h17.22v16.77c34.97,2.62,50.77-8.56,47.39-33.55H64V51.87h27.96V69.63z M86.37,74.24V57.46H69.59
				v16.78H86.37z M24.85,118.97V102.2H8.07v16.77H24.85z M24.85,23.9V7.13H8.07V23.9H24.85z"/>
		</g>
		<g>
		</g>
	</g>
</g>
</svg>
