<?xml version="1.0" encoding="utf-8"?>
<!-- Generator: Adobe Illustrator 15.1.0, SVG Export Plug-In . SVG Version: 6.00 Build 0)  -->
<!DOCTYPE svg PUBLIC "-//W3C//DTD SVG 1.1//EN" "http://www.w3.org/Graphics/SVG/1.1/DTD/svg11.dtd">
<svg version="1.1" id="Layer_1" xmlns="http://www.w3.org/2000/svg" xmlns:xlink="http://www.w3.org/1999/xlink" x="0px" y="0px"
	 width="128px" height="128px" viewBox="0 0 128 128" enable-background="new 0 0 128 128" xml:space="preserve">
<g id="ELLIPSE_5_">
	<g id="XMLID_1_">
		<g>
			<path fill="#010101" d="M114.72,1.81c1.08-0.01,2.16,0,3.24,0.02c0.12,0.01,0.23,0.02,0.35,0.04c4.53,0.64,7.96,9.36,7.671,19.47
				c-0.28,10.12-4.181,17.8-8.711,17.16c-0.77-0.05-1.539-0.09-2.3-0.12l0.07-1.45c3.99-4.01,5.9-14.4,4.25-23.59
				c-0.83-4.64-2.48-8.32-4.55-10.18V3.15L114.72,1.81z"/>
			<path fill="#010101" d="M38.11,114.96c0.04,1.03,0.09,2.06,0.17,3.09c0,4.53-8.22,8.21-18.35,8.21
				c-10.14,0-18.35-3.68-18.35-8.21c-0.02-1.03-0.03-2.05-0.02-3.08l1.34,0.021c3.77,4.21,14.46,6.25,23.86,4.56
				c4.65-0.84,8.33-2.479,10.19-4.56h0.01L38.11,114.96z"/>
			<path fill="#010101" d="M110.18,27.02c0.83,4.64,2.48,8.32,4.561,10.19c0.1-0.09,0.2-0.18,0.3-0.28l-0.07,1.45
				c-39.91-1.47-74.03,29.05-76.729,69.18c-0.17,2.46-0.21,4.931-0.13,7.4l-1.15,0.03c-3.78-4.2-14.46-6.24-23.87-4.561
				c-4.64,0.84-8.33,2.48-10.19,4.561l-1.34-0.021c-0.01-0.66,0-1.31,0.02-1.979C3,51.24,53.34,2.11,114.72,1.81l0.021,1.34
				C110.53,6.93,108.49,17.61,110.18,27.02z"/>
		</g>
		<g>
		</g>
	</g>
</g>
</svg>
