<?xml version="1.0" encoding="utf-8"?>
<!-- Generator: Adobe Illustrator 15.1.0, SVG Export Plug-In . SVG Version: 6.00 Build 0)  -->
<!DOCTYPE svg PUBLIC "-//W3C//DTD SVG 1.1//EN" "http://www.w3.org/Graphics/SVG/1.1/DTD/svg11.dtd">
<svg version="1.1" id="Layer_1" xmlns="http://www.w3.org/2000/svg" xmlns:xlink="http://www.w3.org/1999/xlink" x="0px" y="0px"
	 width="128px" height="128px" viewBox="0 0 128 128" enable-background="new 0 0 128 128" xml:space="preserve">
<g id="LINE_55_">
	<g id="XMLID_1_">
		<g>
			<path fill="#010101" d="M63.16,96.7v29.45H33.7V99.14l-4.16-4.159l8.33-8.33L47.93,96.7H63.16z M57.27,120.26v-17.67H39.59v17.67
				H57.27z"/>
			<path fill="#010101" d="M116.17,84.92v29.45H86.72V84.92H116.17z M110.28,108.48V90.81H92.61v17.671H110.28z"/>
			<path fill="#010101" d="M122.06,31.91v29.45H92.61V31.91H122.06z M116.17,55.47V37.8H98.5v17.67H116.17z"/>
			<polygon fill="#010101" points="84.99,74.86 76.66,83.2 64.88,71.41 73.21,63.08 			"/>
			
				<rect x="51.375" y="47.136" transform="matrix(0.7071 -0.7071 0.7071 0.7071 -22.4472 56.7356)" fill="#010101" width="11.78" height="16.659"/>
			<polygon fill="#010101" points="96.06,2.04 83.56,14.53 90.88,21.85 82.55,30.18 75.23,22.86 62.74,35.36 62.74,2.04 			"/>
			<polygon fill="#010101" points="54.83,19.71 42.33,32.2 49.65,39.52 41.32,47.85 34,40.53 21.5,53.03 21.5,19.71 			"/>
			<polygon fill="#010101" points="37.15,60.94 24.66,73.44 31.98,80.75 23.65,89.09 16.33,81.77 3.83,94.26 3.83,60.94 			"/>
		</g>
		<g>
		</g>
	</g>
</g>
</svg>
