<?xml version="1.0" encoding="utf-8"?>
<!-- Generator: Adobe Illustrator 16.0.0, SVG Export Plug-In . SVG Version: 6.00 Build 0)  -->
<!DOCTYPE svg PUBLIC "-//W3C//DTD SVG 1.1//EN" "http://www.w3.org/Graphics/SVG/1.1/DTD/svg11.dtd">
<svg version="1.1" id="Layer_1" xmlns="http://www.w3.org/2000/svg" xmlns:xlink="http://www.w3.org/1999/xlink" x="0px" y="0px"
	 width="32px" height="32px" viewBox="0 0 32 32" enable-background="new 0 0 32 32" xml:space="preserve">
<g id="LINE_16_">
	<g id="XMLID_1_">
		<g>
			<path d="M27.639648,22.450195c0.44043,0.620117,0.669922,1.359375,0.669922,2.200195c0,1.209961-0.389648,2.25-1.15918,3.139648
				c-1.010742,1.150391-2.459961,1.719727-4.370117,1.719727c-0.94043,0-1.580078-0.099609-1.930664-0.30957
				c-0.339844-0.219727-0.509766-0.450195-0.509766-0.69043c0-0.179688,0.080078-0.339844,0.240234-0.479492
				c0.160156-0.140625,0.349609-0.200195,0.570313-0.200195c0.169922,0,0.339844,0.019531,0.509766,0.05957
				c0.120117,0.020508,0.379883,0.120117,0.780273,0.280273c0.399414,0.160156,0.679688,0.259766,0.829102,0.290039
				c0.25,0.05957,0.520508,0.089844,0.800781,0.089844c0.689453,0,1.279297-0.269531,1.790039-0.80957
				c0.509766-0.549805,0.759766-1.19043,0.759766-1.930664c0-0.540039-0.110352-1.069336-0.330078-1.579102
				c-0.169922-0.380859-0.349609-0.680664-0.540039-0.880859c-0.269531-0.269531-0.639648-0.519531-1.110352-0.739258
				c-0.469727-0.220703-0.959961-0.34082-1.449219-0.34082h-0.300781v-0.239258
				C23.44043,21.959961,24,21.769531,24.549805,21.450195c0.549805-0.320313,0.959961-0.700195,1.209961-1.150391
				s0.379883-0.939453,0.379883-1.479492c0-0.700195-0.229492-1.260742-0.699219-1.69043
				c-0.459961-0.429688-1.030273-0.649902-1.720703-0.649902c-1.109375,0-2.040039,0.539551-2.779297,1.619629l-0.360352-0.169922
				c0.419922-0.919922,0.929688-1.639648,1.55957-2.139648c0.620117-0.5,1.400391-0.760254,2.34082-0.760254
				c1.149414,0,2.029297,0.370117,2.639648,1.090332c0.469727,0.549805,0.709961,1.129883,0.709961,1.740234
				c0,1.019531-0.730469,2.069336-2.179688,3.149414C26.530273,21.349609,27.19043,21.830078,27.639648,22.450195z"/>
			<path d="M16.350098,5.459961c-0.570313-0.540039-1.25-0.799805-2.040039-0.799805
				c-0.720215,0-1.370117,0.199707-1.950195,0.609863c-0.569824,0.410156-1,1.009766-1.27002,1.799805h-0.399902
				C10.870117,5.75,11.319824,4.72998,12.049805,4.029785c0.740234-0.709961,1.650391-1.05957,2.75-1.05957
				c1.17041,0,2.140137,0.359863,2.919922,1.069824C18.5,4.759766,18.900391,5.600098,18.900391,6.569824
				c0,0.700195-0.169922,1.400391-0.510742,2.110352c-0.519531,1.119629-1.370117,2.310059-2.539551,3.560059
				c-1.760254,1.839844-2.830078,2.929688-3.209961,3.279785h3.569824c0.720215,0,1.230469-0.029785,1.520508-0.089844
				c0.299805-0.050293,0.55957-0.160156,0.789063-0.330078c0.240234-0.169922,0.44043-0.410156,0.620117-0.720215h0.480469
				l-0.969727,2.830078h-8.200195v-0.419922c2.47998-2.220215,4.22998-4.030273,5.239746-5.430176
				c1.010254-1.399902,1.52002-2.689941,1.52002-3.859863C17.209961,6.669922,16.919922,5.990234,16.350098,5.459961z"/>
			<path d="M2.810059,9.399902c-0.27002,0-0.640137,0.109863-1.120117,0.330078l-0.169922-0.25l3.52002-1.689941h0.339844v11.830078
				c0,0.820313,0.030273,1.330078,0.100098,1.530273C5.540039,21.349609,5.669922,21.5,5.870117,21.610352
				c0.189941,0.109375,0.589844,0.169922,1.199707,0.179688v0.240234H2v-0.240234
				c0.620117-0.009766,1.02002-0.070313,1.209961-0.179688c0.180176-0.100586,0.299805-0.240234,0.370117-0.410156
				C3.660156,21.019531,3.689941,20.5,3.689941,19.620117v-7.720215c0-0.969727-0.029785-1.600098-0.109863-1.870117
				C3.529785,9.819824,3.439941,9.660156,3.299805,9.560059C3.169922,9.459961,3,9.399902,2.810059,9.399902z"/>
		</g>
		<g>
		</g>
	</g>
</g>
</svg>
