<?xml version="1.0" encoding="utf-8"?>
<!-- Generator: Adobe Illustrator 15.1.0, SVG Export Plug-In . SVG Version: 6.00 Build 0)  -->
<!DOCTYPE svg PUBLIC "-//W3C//DTD SVG 1.1//EN" "http://www.w3.org/Graphics/SVG/1.1/DTD/svg11.dtd">
<svg version="1.1" id="Layer_1" xmlns="http://www.w3.org/2000/svg" xmlns:xlink="http://www.w3.org/1999/xlink" x="0px" y="0px"
	 width="128px" height="128px" viewBox="0 0 128 128" enable-background="new 0 0 128 128" xml:space="preserve">
<g id="LINE_27_">
	<g id="XMLID_1_">
		<g>
			<path d="M78.44,59.3c-0.811,1.3-2.141,1.95-4.011,1.95H72.78v0.8h34.88l3.96-12.45l-1.58-0.24c-1.14,3-2.29,5.19-3.43,6.59
				c-1.141,1.39-2.41,2.36-3.79,2.9c-1.38,0.55-3.79,0.82-7.221,0.82h-3.25c-2.89,0-4.6-0.12-5.149-0.35
				c-0.55-0.24-0.95-0.61-1.21-1.1c-0.351-0.74-0.53-2.08-0.53-4.04V27.69c0-2.54,0.19-4.15,0.56-4.83
				c0.37-0.67,1.061-1.23,2.08-1.68c1.011-0.44,2.78-0.65,5.29-0.62v-0.79H72.78v0.79h1.649c1.67,0,2.931,0.51,3.771,1.55
				c0.609,0.75,0.92,2.61,0.92,5.58v26.43C79.12,56.83,78.89,58.55,78.44,59.3z M124.83,9.2v63.42h-68.7L40.27,56.76V46.19H27.06
				v52.85h18.5l-21.14,21.14L3.27,99.04h18.5V35.62h18.5V25.05L56.13,9.2H124.83z M68.89,40.91c0-4.13-3.35-7.48-7.479-7.48
				c-4.13,0-7.47,3.35-7.47,7.48c0,4.12,3.34,7.47,7.47,7.47C65.54,48.38,68.89,45.03,68.89,40.91z"/>
		</g>
		<g>
		</g>
	</g>
</g>
</svg>
