<?xml version="1.0" encoding="utf-8"?>
<!-- Generator: Adobe Illustrator 15.1.0, SVG Export Plug-In . SVG Version: 6.00 Build 0)  -->
<!DOCTYPE svg PUBLIC "-//W3C//DTD SVG 1.1//EN" "http://www.w3.org/Graphics/SVG/1.1/DTD/svg11.dtd">
<svg version="1.1" id="Layer_1" xmlns="http://www.w3.org/2000/svg" xmlns:xlink="http://www.w3.org/1999/xlink" x="0px" y="0px"
	 width="128px" height="128px" viewBox="0 0 128 128" enable-background="new 0 0 128 128" xml:space="preserve">
<g id="LINE_14_">
	<g id="XMLID_1_">
		<g>
			<path fill="#010101" d="M125.17,121.15v2.029H78.74v-2.029c4.68-0.25,7.85-1.12,9.51-2.61c1.66-1.48,2.48-3.29,2.48-5.43
				c0-2.841-1.16-7.341-3.48-13.48L81.3,84.7H35.48l-7.57,17.59c-1.96,4.9-2.94,8.55-2.94,10.95c0,1.92,0.86,3.609,2.56,5.06
				c1.71,1.46,5.41,2.41,11.08,2.851v2.029H1.27v-2.029c4.93-0.95,8.12-2.17,9.55-3.67c2.98-3.011,6.26-9.141,9.85-18.391
				L61.84,3.68h4.37l38.67,96.97c3.311,8.369,6.32,13.8,9.021,16.29C116.6,119.43,120.36,120.84,125.17,121.15z M78.87,78.62
				L59.31,30.93L38.1,78.62H78.87z"/>
		</g>
		<g>
		</g>
	</g>
</g>
</svg>
