<?xml version="1.0" encoding="utf-8"?>
<!-- Generator: Adobe Illustrator 15.1.0, SVG Export Plug-In . SVG Version: 6.00 Build 0)  -->
<!DOCTYPE svg PUBLIC "-//W3C//DTD SVG 1.1//EN" "http://www.w3.org/Graphics/SVG/1.1/DTD/svg11.dtd">
<svg version="1.1" id="Layer_1" xmlns="http://www.w3.org/2000/svg" xmlns:xlink="http://www.w3.org/1999/xlink" x="0px" y="0px"
	 width="128px" height="128px" viewBox="0 0 128 128" enable-background="new 0 0 128 128" xml:space="preserve">
<g id="LINE_14_">
	<g id="XMLID_1_">
		<g>
			<path fill="#010101" d="M123.65,42.22l1.35,1.34l-30.9,30.9l-1.35-1.35c2.95-3.28,4.48-5.971,4.6-8.061
				c0.11-2.1-0.54-3.85-1.96-5.27c-1.899-1.89-5.659-4.11-11.29-6.65L70.2,47.14l-30.5,30.5l6.68,16.74
				c1.95,4.57,3.73,7.65,5.33,9.25c1.27,1.28,2.97,1.83,5.07,1.66c2.11-0.17,5.2-1.99,9.27-5.47l1.351,1.35L42.55,126.02l-1.35-1.35
				c2.65-3.92,3.96-6.85,3.92-8.8c-0.03-3.99-1.93-10.25-5.69-18.79L3.33,6.18l2.91-2.91l90.26,38.8c7.78,3.37,13.4,4.98,16.85,4.84
				C116.81,46.77,120.24,45.21,123.65,42.22z M37.41,71.85L64.53,44.72L19.78,26L37.41,71.85z"/>
		</g>
		<g>
		</g>
	</g>
</g>
</svg>
