<?xml version="1.0" encoding="utf-8"?>
<!-- Generator: Adobe Illustrator 15.1.0, SVG Export Plug-In . SVG Version: 6.00 Build 0)  -->
<!DOCTYPE svg PUBLIC "-//W3C//DTD SVG 1.1//EN" "http://www.w3.org/Graphics/SVG/1.1/DTD/svg11.dtd">
<svg version="1.1" id="Layer_1" xmlns="http://www.w3.org/2000/svg" xmlns:xlink="http://www.w3.org/1999/xlink" x="0px" y="0px"
	 width="128px" height="128px" viewBox="0 0 128 128" enable-background="new 0 0 128 128" xml:space="preserve">
<g id="LINE_13_">
	<g id="XMLID_1_">
		<g>
			<path fill="#010101" d="M118,3.27v35.04h-4.12c-1.85-7.86-3.89-13.5-6.12-16.92c-2.229-3.43-5.3-6.16-9.21-8.2
				c-2.189-1.11-6.01-1.67-11.46-1.67h-8.25v92.74c0,5.86,0.33,9.521,0.98,10.99c0.66,1.47,1.939,2.75,3.85,3.85
				c1.91,1.091,4.521,1.641,7.83,1.641h3.83v4.12H33.5v-4.12h3.87c3.37,0,6.08-0.59,8.15-1.771c1.5-0.79,2.68-2.14,3.54-4.06
				c0.62-1.351,0.93-4.9,0.93-10.65V11.52h-8.24c-7.92,0-13.68,1.79-17.26,5.38c-5.03,5-8.2,12.14-9.53,21.41h-4.13V3.27H118z"/>
		</g>
		<g>
		</g>
	</g>
</g>
</svg>
