<?xml version="1.0" encoding="utf-8"?>
<!-- Generator: Adobe Illustrator 15.1.0, SVG Export Plug-In . SVG Version: 6.00 Build 0)  -->
<!DOCTYPE svg PUBLIC "-//W3C//DTD SVG 1.1//EN" "http://www.w3.org/Graphics/SVG/1.1/DTD/svg11.dtd">
<svg version="1.1" id="Layer_1" xmlns="http://www.w3.org/2000/svg" xmlns:xlink="http://www.w3.org/1999/xlink" x="0px" y="0px"
	 width="128px" height="128px" viewBox="0 0 128 128" enable-background="new 0 0 128 128" xml:space="preserve">
<g id="SPLINE_52_">
	<g id="XMLID_1_">
		<g>
			<path d="M49.2,65.45c2.65,0,6.14-1.66,10.46-4.98V43.09c-5.26,1.99-8.66,3.4-10.2,4.23c-2.75,1.47-4.71,2.99-5.9,4.58
				c-1.19,1.59-1.79,3.34-1.79,5.24c0,2.38,0.75,4.37,2.25,5.95C45.52,64.66,47.24,65.45,49.2,65.45z M75.32,64.44
				c-3.641,4.4-7.101,6.6-10.4,6.6c-1.59,0-2.86-0.55-3.8-1.66c-0.93-1.1-1.42-3-1.46-5.67c-4.74,3.521-7.71,5.56-8.92,6.11
				c-1.82,0.819-3.75,1.22-5.8,1.22c-3.19,0-5.82-1.08-7.89-3.25c-2.07-2.16-3.1-5.02-3.1-8.56c0-2.22,0.51-4.15,1.52-5.8
				c1.37-2.26,3.77-4.39,7.18-6.39c3.41-2,9.08-4.44,17.01-7.3v-1.61c0-4.09-0.74-6.89-2.22-8.41c-1.49-1.52-3.65-2.28-6.48-2.28
				c-2.14,0-3.85,0.52-5.11,1.57c-1.3,1.05-1.94,2.25-1.94,3.6l0.1,2.69c0,1.42-0.36,2.52-1.09,3.28c-0.73,0.77-1.67,1.16-2.84,1.16
				c-1.14,0-2.08-0.42-2.8-1.24c-0.73-0.83-1.1-1.97-1.1-3.41c0-2.74,1.44-5.26,4.31-7.56c2.87-2.3,6.9-3.45,12.08-3.45
				c3.98,0,7.25,0.68,9.78,2.03c1.93,1.03,3.35,2.63,4.27,4.8c0.58,1.43,0.87,4.33,0.87,8.72v15.41c0,4.33,0.09,6.99,0.25,7.96
				c0.17,0.97,0.45,1.62,0.83,1.96c0.37,0.33,0.81,0.49,1.31,0.49c0.54,0,1.01-0.101,1.4-0.29c0.7-0.37,2.05-1.38,4.04-3.06V64.44z"
				/>
			<path d="M92.26,49.68c0.03,9.52-4.1,17.78-12.38,24.79c-8.649,7.33-18.84,9.65-30.57,6.96c-10.69-2.42-19.74-8-27.15-16.76
				C7.01,46.78,7.85,30.71,24.69,16.46c8.29-7.03,18.29-9.57,29.99-7.65c10.99,1.81,20.01,6.89,27.08,15.23
				C88.77,32.32,92.27,40.87,92.26,49.68z M77.09,71.47c7.351-6.229,10.98-13.58,10.9-22.07c-0.09-7.87-3.29-15.54-9.61-23.01
				c-6.33-7.48-14.43-12.02-24.3-13.63c-10.41-1.73-19.3,0.52-26.65,6.74c-14.81,12.54-15.44,26.82-1.87,42.84
				c6.66,7.87,14.78,12.91,24.35,15.09C60.42,79.9,69.48,77.91,77.09,71.47z"/>
			<path d="M114.19,101.43c1.439,1.71,2.02,3.801,1.72,6.28c-0.29,2.47-1.34,4.47-3.13,5.99c-1.87,1.59-4.17,2.27-6.9,2.06
				c-2.36-0.149-4.17-0.81-5.42-1.99L85.25,100.94c-1.61-1.41-1.72-3.61-0.33-6.601c1.28-2.85,3.24-5.39,5.88-7.62
				c1.79-1.52,3.83-1.84,6.12-0.95l11.96,10.921L114.19,101.43z"/>
			<path d="M94.42,83.65l-3.87,0.59l-7.75-6.87l-1.2,1.02l7.46,7.11l-0.909,0.77c-1.5,1.271-2.87,3.301-4.12,6.091
				c-1.38,2.989-1.811,5.26-1.29,6.8L70.71,90.3c-6.7,5.141-15.1,6.86-25.2,5.181C35.09,93.72,26.47,88.8,19.64,80.74
				C13.1,73.01,9.39,65.93,8.5,59.49c-0.59-3.73-0.03-11.33,1.67-22.81C9.79,47.57,13.23,57.3,20.47,65.85
				c7.71,9.11,16.92,15.131,27.63,18.07c12.05,3.23,22.39,1.19,31.01-6.11c1.27-1.069,2.8-2.369,4.59-3.89L94.42,83.65z"/>
		</g>
		<g>
		</g>
	</g>
</g>
</svg>
