<?xml version="1.0" encoding="utf-8"?>
<!-- Generator: Adobe Illustrator 15.1.0, SVG Export Plug-In . SVG Version: 6.00 Build 0)  -->
<!DOCTYPE svg PUBLIC "-//W3C//DTD SVG 1.1//EN" "http://www.w3.org/Graphics/SVG/1.1/DTD/svg11.dtd">
<svg version="1.1" id="Layer_1" xmlns="http://www.w3.org/2000/svg" xmlns:xlink="http://www.w3.org/1999/xlink" x="0px" y="0px"
	 width="128px" height="128px" viewBox="0 0 128 128" enable-background="new 0 0 128 128" xml:space="preserve">
<g id="LINE_30_">
	<g id="XMLID_1_">
		<g>
			<path d="M90.53,104.51v1.44H57.46v-1.44c3.34-0.18,5.59-0.8,6.77-1.859C65.41,101.59,66,100.3,66,98.78
				c0-2.03-0.82-5.23-2.48-9.601l-4.23-10.64H26.64l-5.38,12.53c-1.4,3.489-2.1,6.09-2.1,7.8c0,1.37,0.61,2.57,1.83,3.61
				c1.21,1.039,3.84,1.71,7.89,2.029v1.44H2.27v-1.44c3.52-0.68,5.79-1.55,6.81-2.62c2.12-2.14,4.46-6.51,7.01-13.09l29.33-67.97
				h3.11L76.08,89.9c2.36,5.97,4.5,9.84,6.42,11.609C84.43,103.28,87.1,104.28,90.53,104.51z M57.55,74.21L43.62,40.24L28.51,74.21
				H57.55z"/>
			<path d="M125.13,7.6v6.02h-2.399c-6.641,0-12.021,5.38-12.021,12.02v38.47v38.47c0,6.65,5.38,12.03,12.021,12.03h2.399v6.01
				h-2.399c-9.961,0-18.04-8.08-18.04-18.04c0,9.96-8.07,18.04-18.03,18.04h-2.41v-6.01h2.41c6.64,0,12.02-5.38,12.02-12.03V64.11
				V25.64c0-6.64-5.38-12.02-12.02-12.02h-2.41V7.6h2.41c9.96,0,18.03,8.08,18.03,18.04c0-9.96,8.079-18.04,18.04-18.04H125.13z"/>
		</g>
		<g>
		</g>
	</g>
</g>
</svg>
