<?xml version="1.0" encoding="utf-8"?>
<!-- Generator: Adobe Illustrator 15.1.0, SVG Export Plug-In . SVG Version: 6.00 Build 0)  -->
<!DOCTYPE svg PUBLIC "-//W3C//DTD SVG 1.1//EN" "http://www.w3.org/Graphics/SVG/1.1/DTD/svg11.dtd">
<svg version="1.1" id="Layer_1" xmlns="http://www.w3.org/2000/svg" xmlns:xlink="http://www.w3.org/1999/xlink" x="0px" y="0px"
	 width="128px" height="128px" viewBox="0 0 128 128" enable-background="new 0 0 128 128" xml:space="preserve">
<g id="LINE_21_">
	<g id="XMLID_1_">
		<g>
			<path fill="#010101" d="M126.37,81.05c-1.97,3.34-4.021,5.75-6.14,7.26c-2.11,1.5-4.521,2.25-7.211,2.25
				c-3.159,0-5.63-0.869-7.42-2.619c-1.779-1.74-2.869-4.37-3.26-7.9c-7.63,7.01-14.49,10.52-20.58,10.52
				c-3.569,0-6.54-1.14-8.91-3.399c-2.369-2.271-3.55-5.11-3.55-8.521c0-4.62,2.061-8.77,6.17-12.449
				c4.11-3.69,13.07-8.601,26.87-14.73v-6.19c0-4.65-0.26-7.58-0.78-8.78c-0.529-1.21-1.52-2.26-2.97-3.16
				c-1.46-0.9-3.1-1.35-4.93-1.35c-2.96,0-5.351,0.63-7.18,1.88c-1.131,0.78-1.69,1.69-1.69,2.72c0,0.91,0.61,2.04,1.83,3.38
				c1.64,1.86,2.46,3.66,2.46,5.4c0,2.11-0.79,3.92-2.38,5.41c-1.59,1.49-3.67,2.24-6.23,2.24c-2.75,0-5.05-0.81-6.899-2.43
				c-1.851-1.62-2.771-3.51-2.771-5.67c0-3.06,1.25-5.99,3.76-8.78c2.5-2.8,5.99-4.94,10.46-6.42c4.48-1.49,9.12-2.23,13.94-2.23
				c5.84,0,10.46,1.2,13.86,3.6c3.399,2.4,5.609,5,6.63,7.8c0.609,1.79,0.91,5.89,0.91,12.32v23.14c0,2.72,0.08,4.44,0.239,5.141
				c0.16,0.71,0.391,1.229,0.71,1.56c0.32,0.34,0.511,0.51,0.561,0.51c0.83,0,1.68-0.47,2.55-1.39L126.37,81.05z M102.34,75.54
				V55.59C96.8,58.72,92.69,62.08,90,65.66c-1.79,2.39-2.68,4.8-2.68,7.229c0,2.03,0.75,3.82,2.25,5.37
				c1.149,1.19,2.75,1.78,4.819,1.78C96.67,80.04,99.32,78.54,102.34,75.54z"/>
			<path fill="#010101" d="M95.82,107.28v3H52.79v-3h1.76c3.44,0,5.85-0.46,7.25-1.391c0.95-0.649,1.43-1.609,1.43-2.859
				c0-0.75-0.13-1.53-0.4-2.32c-0.08-0.38-0.73-1.94-1.95-4.7l-4.95-11.26H25.8l-4.09,9.01c-1.22,2.74-1.83,5-1.83,6.78
				c0,2.38,1.01,4.13,3.01,5.24c1.17,0.67,4.07,1.17,8.68,1.5v3H1.46v-3c3.18-0.471,5.79-1.761,7.83-3.87
				c2.04-2.12,4.56-6.48,7.57-13.101l31.89-70.14h1.52l19.09,43.32c-0.16,0.18-0.33,0.36-0.49,0.54c-0.89,1.01-1.7,2.07-2.42,3.201
				c-0.72,1.13-1.34,2.329-1.84,3.569c-0.5,1.24-0.88,2.53-1.14,3.84c-0.25,1.32-0.38,2.66-0.38,4c0,0.74,0.04,1.49,0.13,2.23
				c0.08,0.74,0.21,1.47,0.38,2.189c0.17,0.73,0.39,1.44,0.65,2.141c0.27,0.689,0.58,1.37,0.93,2.03
				c0.36,0.649,0.75,1.289,1.19,1.89c0.43,0.6,0.91,1.18,1.41,1.729c0.51,0.54,1.05,1.061,1.609,1.54
				c0.57,0.48,1.17,0.931,1.79,1.341c0.62,0.409,1.271,0.779,1.94,1.109c0.66,0.33,1.35,0.62,2.06,0.86
				c0.7,0.24,1.42,0.439,2.15,0.6c0.72,0.16,1.46,0.28,2.2,0.351c0.739,0.08,1.489,0.109,2.229,0.109c0.79,0,1.58-0.04,2.36-0.12
				c2.13,4.23,3.95,7.011,5.439,8.341C91.04,106.29,93.13,107.06,95.82,107.28z M53.3,78.74L41.07,51.05L28.52,78.74H53.3z"/>
		</g>
		<g>
		</g>
	</g>
</g>
</svg>
