<?xml version="1.0" encoding="utf-8"?>
<!-- Generator: Adobe Illustrator 16.0.0, SVG Export Plug-In . SVG Version: 6.00 Build 0)  -->
<!DOCTYPE svg PUBLIC "-//W3C//DTD SVG 1.1//EN" "http://www.w3.org/Graphics/SVG/1.1/DTD/svg11.dtd">
<svg version="1.1" id="Layer_1" xmlns="http://www.w3.org/2000/svg" xmlns:xlink="http://www.w3.org/1999/xlink" x="0px" y="0px"
	 width="32px" height="32px" viewBox="0 0 32 32" enable-background="new 0 0 32 32" xml:space="preserve">
<g id="LINE_27_">
	<g id="XMLID_1_">
		<g>
			<path d="M4.950195,17.830078h4.369629c0.860352,0,1.5,0.040039,1.930176,0.110352
				c0.419922,0.069336,0.799805,0.219727,1.140137,0.439453C12.720215,18.610352,13,18.900391,13.22998,19.280273
				c0.220215,0.370117,0.330078,0.790039,0.330078,1.25c0,0.5-0.129883,0.959961-0.399902,1.379883
				c-0.260254,0.419922-0.630371,0.729492-1.080078,0.939453c0.580078,0.19043,1.029785,0.510742,1.350098,0.959961
				c0.149902,0.230469,0.27002,0.470703,0.349609,0.740234c0.080078,0.259766,0.120117,0.549805,0.120117,0.860352
				c0,0.479492-0.109863,0.950195-0.339844,1.399414c-0.22998,0.459961-0.530273,0.820313-0.930176,1.09082
				c-0.389648,0.269531-0.870117,0.439453-1.439941,0.509766c-0.359863,0.030273-1.22998,0.05957-2.609863,0.070313H4.950195
				V17.830078z M6.970215,22.05957H8.52002c0.919922,0,1.489746-0.009766,1.720215-0.040039
				c0.399902-0.039063,0.719727-0.15918,0.949707-0.359375c0.22998-0.209961,0.350098-0.469727,0.350098-0.799805
				c0-0.320313-0.100098-0.570313-0.299805-0.770508c-0.200195-0.200195-0.5-0.320313-0.890137-0.359375
				c-0.240234-0.030273-0.910156-0.040039-2.02002-0.040039H6.970215V22.05957z M6.970215,26.620117h2.149902
				c0.830078,0,1.359863-0.020508,1.589844-0.070313c0.339844-0.049805,0.620117-0.179688,0.839844-0.399414
				c0.220215-0.209961,0.320313-0.5,0.320313-0.860352c0-0.299805-0.080078-0.55957-0.25-0.770508
				c-0.160156-0.209961-0.410156-0.359375-0.720215-0.459961c-0.319824-0.099609-1-0.139648-2.049805-0.139648H6.970215V26.620117z"
				/>
			<path d="M28.950195,13.950195c1,5.769531-2.870117,11.259766-8.640625,12.259766v3.219727l-5.169434-5.160156l5.169434-5.15918
				v3.55957c4.290039-0.769531,7.670898-4.080078,8.550781-8.319824c0.040039-0.149902,0.069336-0.290039,0.089844-0.439941
				C28.950195,13.919922,28.950195,13.939941,28.950195,13.950195z"/>
			<path d="M23.55957,9.77002L22.19043,5.890137L20.839844,9.77002H23.55957z M23.25,3.350098L27.169922,14h-2.129883
				l-0.830078-2.370117H20.19043L19.370117,14h-2.160156l1.980469-5.419922l1.899414-5.22998H23.25z"/>
			<path d="M11.689941,9.330078c-4.22998,0.759766-7.569824,3.97998-8.509766,8.129883
				c-0.050293,0.209961-0.090332,0.419922-0.130371,0.629883c0-0.009766,0-0.030273,0-0.040039
				c-1-5.77002,2.870117-11.259766,8.640137-12.259766V2.569824l5.169922,5.160156l-5.169922,5.160156V9.330078z"/>
		</g>
		<g>
		</g>
	</g>
</g>
</svg>
