<?xml version="1.0" encoding="utf-8"?>
<!-- Generator: Adobe Illustrator 15.1.0, SVG Export Plug-In . SVG Version: 6.00 Build 0)  -->
<!DOCTYPE svg PUBLIC "-//W3C//DTD SVG 1.1//EN" "http://www.w3.org/Graphics/SVG/1.1/DTD/svg11.dtd">
<svg version="1.1" id="Layer_1" xmlns="http://www.w3.org/2000/svg" xmlns:xlink="http://www.w3.org/1999/xlink" x="0px" y="0px"
	 width="128px" height="128px" viewBox="0 0 128 128" enable-background="new 0 0 128 128" xml:space="preserve">
<g id="LINE_46_">
	<g id="XMLID_1_">
		<g>
			<path fill="#010101" d="M108.35,85.86L101.41,68.93L93.88,85.86H108.35z M102.31,59.26h1.551l13.729,34.42
				c1.18,2.98,2.24,4.9,3.2,5.79c0.96,0.88,2.29,1.38,4,1.49v0.72h-16.48v-0.72c1.66-0.09,2.79-0.4,3.381-0.92
				c0.579-0.53,0.88-1.18,0.88-1.93c0-1.011-0.41-2.61-1.24-4.79l-2.11-5.301H92.95l-2.681,6.25C89.57,96,89.22,97.3,89.22,98.15
				c0,0.68,0.311,1.279,0.91,1.8c0.61,0.52,1.92,0.859,3.93,1.01v0.72H80.81v-0.72c1.75-0.34,2.881-0.77,3.391-1.3
				c1.06-1.07,2.22-3.25,3.49-6.53L102.31,59.26z"/>
			<path fill="#010101" d="M78.32,60.12l7.06-16.88l-17.29,6.64L78.32,60.12z M92.86,37.03l1.09,1.1L79.32,72.18
				c-1.271,2.931-1.88,5.051-1.83,6.351s0.649,2.6,1.77,3.89l-0.5,0.51L67.1,71.27l0.511-0.51c1.239,1.11,2.25,1.69,3.04,1.73
				c0.79,0.05,1.449-0.2,1.989-0.74c0.71-0.71,1.551-2.13,2.511-4.25l2.26-5.25L65.9,50.75l-6.311,2.52
				c-1.73,0.73-2.89,1.41-3.49,2.01c-0.48,0.48-0.69,1.12-0.63,1.91c0.07,0.8,0.75,1.96,2.07,3.5l-0.51,0.51l-9.38-9.38l0.51-0.51
				c1.48,1.01,2.59,1.5,3.32,1.48c1.51-0.01,3.87-0.72,7.09-2.14L92.86,37.03z"/>
			<path fill="#010101" d="M125.17,118.27v5.53c-0.46,0-0.92,0-1.38,0c-1.99,0.01-3.99,0.021-5.98-0.01
				c-2-0.04-3.989-0.13-5.979-0.271c-1.99-0.149-3.98-0.359-5.96-0.619c-1.98-0.261-3.95-0.57-5.91-0.94s-3.92-0.78-5.86-1.26
				c-1.93-0.47-3.859-1-5.77-1.57c-1.92-0.56-3.82-1.17-5.69-1.87c-1.87-0.71-3.699-1.51-5.47-2.43c-1.78-0.91-3.49-1.95-5.11-3.11
				c-1.63-1.149-3.18-2.43-4.6-3.83c-1.42-1.39-2.73-2.909-3.91-4.52c-1.17-1.62-2.22-3.33-3.1-5.12c-0.88-1.79-1.59-3.66-2.37-5.5
				c-0.77-1.84-1.62-3.64-2.52-5.43c-0.89-1.78-1.84-3.551-2.93-5.221c-1.1-1.659-2.34-3.239-3.76-4.64
				c-1.42-1.39-3.03-2.61-4.68-3.74c-1.64-1.13-3.34-2.17-5.06-3.18c-1.72-1-3.48-1.99-5.3-2.79c-1.83-0.8-3.72-1.43-5.66-1.92
				c-1.94-0.48-3.91-0.82-5.89-1.12c-1.97-0.29-3.95-0.55-5.93-0.75c-1.99-0.21-3.98-0.36-5.97-0.48c-2-0.13-3.99-0.23-5.98-0.31
				c-0.31-0.01-0.6-0.02-0.91-0.03v-5.71c14.75,0,25.81,1.85,33.18,5.53c7.38,3.69,12.91,7.38,16.59,11.07
				c3.69,3.68,7.38,10.14,11.07,19.35c3.68,9.22,11.06,15.68,22.12,19.36c11.06,3.689,22.12,5.529,33.189,5.529
				C122.4,118.27,124.25,118.27,125.17,118.27z"/>
			<path fill="#010101" d="M30.92,30.55l-6.94-16.93l-7.53,16.93H30.92z M47.36,45.65v0.72H30.88v-0.72
				c1.66-0.09,2.78-0.4,3.37-0.92c0.59-0.53,0.88-1.17,0.88-1.93c0-1.01-0.41-2.61-1.23-4.79l-2.11-5.3H15.52l-2.69,6.25
				c-0.69,1.73-1.04,3.03-1.04,3.88c0,0.69,0.3,1.28,0.91,1.8c0.61,0.52,1.92,0.86,3.93,1.01v0.72H3.37v-0.72
				c1.76-0.33,2.89-0.77,3.4-1.3c1.05-1.07,2.22-3.25,3.49-6.53L24.88,3.95h1.55l13.73,34.42c1.17,2.98,2.24,4.9,3.2,5.79
				C44.32,45.04,45.65,45.54,47.36,45.65z"/>
		</g>
		<g>
		</g>
	</g>
</g>
</svg>
