<?xml version="1.0" encoding="utf-8"?>
<!-- Generator: Adobe Illustrator 16.0.0, SVG Export Plug-In . SVG Version: 6.00 Build 0)  -->
<!DOCTYPE svg PUBLIC "-//W3C//DTD SVG 1.1//EN" "http://www.w3.org/Graphics/SVG/1.1/DTD/svg11.dtd">
<svg version="1.1" id="Layer_1" xmlns="http://www.w3.org/2000/svg" xmlns:xlink="http://www.w3.org/1999/xlink" x="0px" y="0px"
	 width="32px" height="32px" viewBox="0 0 32 32" enable-background="new 0 0 32 32" xml:space="preserve">
<g id="LINE_29_">
	<g id="XMLID_1_">
		<g>
			<path d="M7.470215,14.52002v4.82959c0,4.660156,3.779785,8.44043,8.449707,8.44043c4.660156,0,8.44043-3.780273,8.44043-8.44043
				v-4.82959h4.90918v1.209961h-3.699219v3.619629C25.570313,24.679688,21.25,29,15.919922,29
				c-5.339844,0-9.660156-4.320313-9.660156-9.650391V15.72998H2.720215V14.52002H7.470215z"/>
			<path d="M17.120117,7.279785h12.149414v1.210449H18.330078v10.859375c0,1.330078-1.080078,2.410156-2.410156,2.410156
				c-1.339844,0-2.419922-1.080078-2.419922-2.410156V8.490234H2.720215V7.279785h11.989746v12.069824
				c0,0.660156,0.540039,1.209961,1.209961,1.209961c0.660156,0,1.200195-0.549805,1.200195-1.209961V7.279785z"/>
			<path d="M9.879883,12.109863H2.720215v-1.209961h8.369629v8.449707c0,2.660156,2.160156,4.820313,4.830078,4.820313
				c2.660156,0,4.820313-2.160156,4.820313-4.820313v-8.449707h8.529297v1.209961h-7.319336v7.239746
				c0,3.330078-2.700195,6.030273-6.030273,6.030273c-3.339844,0-6.040039-2.700195-6.040039-6.030273V12.109863z"/>
		</g>
		<g>
		</g>
	</g>
</g>
</svg>
