<?xml version="1.0" encoding="utf-8"?>
<!-- Generator: Adobe Illustrator 16.0.0, SVG Export Plug-In . SVG Version: 6.00 Build 0)  -->
<!DOCTYPE svg PUBLIC "-//W3C//DTD SVG 1.1//EN" "http://www.w3.org/Graphics/SVG/1.1/DTD/svg11.dtd">
<svg version="1.1" id="Layer_1" xmlns="http://www.w3.org/2000/svg" xmlns:xlink="http://www.w3.org/1999/xlink" x="0px" y="0px"
	 width="32px" height="32px" viewBox="0 0 32 32" enable-background="new 0 0 32 32" xml:space="preserve">
<g id="LINE_10_">
	<g id="XMLID_1_">
		<g>
			<polygon points="29.269531,14.790039 29.269531,24.450195 23.240234,24.450195 			"/>
			<polygon points="23.410156,13.439941 16,19.620117 12.129883,14.97998 			"/>
			<path d="M18.410156,24.450195c2.410156,1.609375,6.030273,2.410156,10.859375,2.410156v1.209961
				c-0.599609,0-1.199219-0.020508-1.799805-0.040039C26.870117,28,26.269531,27.959961,25.669922,27.900391
				c-0.589844-0.060547-1.189453-0.130859-1.780273-0.230469c-0.589844-0.099609-1.179688-0.219727-1.759766-0.360352
				c-0.589844-0.149414-1.160156-0.329102-1.719727-0.529297c-0.570313-0.209961-1.120117-0.44043-1.650391-0.730469
				c-0.529297-0.280273-1.040039-0.599609-1.529297-0.950195c-0.490234-0.339844-0.960449-0.709961-1.42041-1.089844
				c-0.470215-0.379883-0.919922-0.779297-1.350098-1.200195c-0.430176-0.419922-0.830078-0.859375-1.22998-1.30957
				s-0.790039-0.900391-1.140137-1.389648c-0.349609-0.490234-0.659668-1.010742-1.049805-1.459961
				c-0.390137-0.459961-0.850098-0.860352-1.359863-1.169922c-0.510254-0.320313-1.060059-0.560547-1.630371-0.750488
				c-0.569824-0.189941-1.149902-0.339844-1.739746-0.439941c-0.589844-0.109863-1.189941-0.180176-1.790039-0.22998
				C3.919922,16.02002,3.319824,16,2.720215,16v-1.209961c4.82959,0,8.049805,1.209961,9.659668,3.620117
				C13.97998,20.830078,16,22.839844,18.410156,24.450195z"/>
			<polygon points="8.759766,2.72998 8.759766,12.379883 2.720215,12.379883 			"/>
		</g>
		<g>
		</g>
	</g>
</g>
</svg>
