<?xml version="1.0" encoding="utf-8"?>
<!-- Generator: Adobe Illustrator 16.0.0, SVG Export Plug-In . SVG Version: 6.00 Build 0)  -->
<!DOCTYPE svg PUBLIC "-//W3C//DTD SVG 1.1//EN" "http://www.w3.org/Graphics/SVG/1.1/DTD/svg11.dtd">
<svg version="1.1" id="Layer_1" xmlns="http://www.w3.org/2000/svg" xmlns:xlink="http://www.w3.org/1999/xlink" x="0px" y="0px"
	 width="32px" height="32px" viewBox="0 0 32 32" enable-background="new 0 0 32 32" xml:space="preserve">
<g id="LINE_27_">
	<g id="XMLID_1_">
		<g>
			<polygon points="17.450195,23.480469 21.790039,23.480469 16,29.269531 10.209961,23.480469 14.549805,23.480469 
				14.549805,18.040039 17.450195,18.040039 			"/>
			<polygon points="17.450195,8.52002 17.450195,13.959961 14.549805,13.959961 14.549805,8.52002 10.209961,8.52002 16,2.72998 
				21.790039,8.52002 			"/>
			<polygon points="23.480469,14.549805 23.480469,10.209961 29.269531,16 23.480469,21.790039 23.480469,17.450195 
				18.040039,17.450195 18.040039,14.549805 			"/>
			<polygon points="13.959961,14.549805 13.959961,17.450195 8.52002,17.450195 8.52002,21.790039 2.72998,16 8.52002,10.209961 
				8.52002,14.549805 			"/>
		</g>
		<g>
		</g>
	</g>
</g>
</svg>
