<?xml version="1.0" encoding="utf-8"?>
<!-- Generator: Adobe Illustrator 16.0.0, SVG Export Plug-In . SVG Version: 6.00 Build 0)  -->
<!DOCTYPE svg PUBLIC "-//W3C//DTD SVG 1.1//EN" "http://www.w3.org/Graphics/SVG/1.1/DTD/svg11.dtd">
<svg version="1.1" id="Layer_1" xmlns="http://www.w3.org/2000/svg" xmlns:xlink="http://www.w3.org/1999/xlink" x="0px" y="0px"
	 width="32px" height="32px" viewBox="0 0 32 32" enable-background="new 0 0 32 32" xml:space="preserve">
<g id="ARC_7_">
	<g id="XMLID_1_">
		<g>
			<path d="M18.259766,15.700195c0.009766,0.199707,0.009766,0.399902,0,0.599609h-1.959961v1.959961
				c-0.199707,0-0.399902,0-0.599609,0v-1.959961h-1.959961c0-0.199707,0-0.399902,0-0.599609h1.959961v-1.959961
				c0.199707-0.010254,0.399902-0.010254,0.599609,0v1.959961H18.259766z"/>
			<path d="M4.859863,26.469727l0.180176-8.200195l7.839844,0.180664l-2.77002,2.769531
				c2.880371,3.260742,7.859863,3.560547,11.109863,0.669922c0.990234-0.870117,1.740234-1.969727,2.19043-3.209961L26.849609,18.75
				c-0.540039,2.110352-1.679688,4.019531-3.279297,5.490234c-4.550781,4.179688-11.630371,3.879883-15.810547-0.669922
				L4.859863,26.469727z"/>
			<path d="M27.139648,5.529785l-0.179688,8.200195l-7.839844-0.180176l2.769531-2.77002
				c-2.879883-3.259766-7.859863-3.55957-11.109863-0.669922c-0.989746,0.870117-1.739746,1.970215-2.189941,3.209961
				L5.149902,13.25c0.540039-2.109863,1.680176-4.02002,3.280273-5.490234c4.549805-4.179688,11.629395-3.879883,15.810059,0.67041
				L27.139648,5.529785z"/>
		</g>
		<g>
		</g>
	</g>
</g>
</svg>
