<?xml version="1.0" encoding="utf-8"?>
<!-- Generator: Adobe Illustrator 15.1.0, SVG Export Plug-In . SVG Version: 6.00 Build 0)  -->
<!DOCTYPE svg PUBLIC "-//W3C//DTD SVG 1.1//EN" "http://www.w3.org/Graphics/SVG/1.1/DTD/svg11.dtd">
<svg version="1.1" id="Layer_1" xmlns="http://www.w3.org/2000/svg" xmlns:xlink="http://www.w3.org/1999/xlink" x="0px" y="0px"
	 width="128px" height="128px" viewBox="0 0 128 128" enable-background="new 0 0 128 128" xml:space="preserve">
<g id="LINE_3_">
	<g id="XMLID_1_">
		<g>
			<path d="M103.74,22.12c11.3,9.22,16.88,23.4,16.74,42.53c-0.15,19.14-8.341,37.6-24.57,55.4c7.55-17.49,11.43-32.13,11.649-43.93
				c0.21-11.78-2.67-21.95-8.63-30.5c-5.96-8.54-14.189-12.28-24.67-11.23c-10.49,1.05-20.41,7.6-29.77,19.64L63.6,73.14H6.27V15.81
				l19.11,19.11c12.48-14.04,25.84-21.98,40.07-23.84C79.68,9.23,92.44,12.91,103.74,22.12z"/>
		</g>
		<g>
		</g>
	</g>
</g>
</svg>
