<?xml version="1.0" encoding="utf-8"?>
<!-- Generator: Adobe Illustrator 15.1.0, SVG Export Plug-In . SVG Version: 6.00 Build 0)  -->
<!DOCTYPE svg PUBLIC "-//W3C//DTD SVG 1.1//EN" "http://www.w3.org/Graphics/SVG/1.1/DTD/svg11.dtd">
<svg version="1.1" id="Layer_1" xmlns="http://www.w3.org/2000/svg" xmlns:xlink="http://www.w3.org/1999/xlink" x="0px" y="0px"
	 width="128px" height="128px" viewBox="0 0 128 128" enable-background="new 0 0 128 128" xml:space="preserve">
<g id="SPLINE_1_">
	<g id="XMLID_1_">
		<g>
			<path d="M113.98,24.17c2.05,0.06,3.649,2.15,3.579,4.67c-0.079,2.52-1.8,4.51-3.84,4.45c-2.05-0.06-3.649-2.15-3.58-4.67
				C110.22,26.11,111.94,24.11,113.98,24.17z"/>
			<path d="M107.63,15.71c2.12,0.06,3.79,2.38,3.71,5.19c-0.07,2.81-1.85,5.04-3.97,4.99c-2.13-0.06-3.79-2.38-3.72-5.19
				C103.73,17.89,105.51,15.66,107.63,15.71z"/>
			<path d="M99.69,9.23c2.26,0.14,3.939,2.71,3.76,5.74c-0.181,3.03-2.16,5.37-4.42,5.24c-2.261-0.14-3.95-2.71-3.761-5.74
				C95.45,11.44,97.43,9.1,99.69,9.23z"/>
			<path d="M89.95,4.39c2.5,0.08,4.42,2.89,4.3,6.26c-0.12,3.38-2.24,6.04-4.73,5.95c-2.5-0.09-4.42-2.9-4.3-6.27
				S87.46,4.3,89.95,4.39z"/>
			<path d="M77.95,2.23c3.01,0.21,5.22,3.77,4.93,7.95c-0.3,4.17-2.979,7.39-5.99,7.18c-3.02-0.21-5.22-3.77-4.93-7.95
				C72.25,5.23,74.93,2.02,77.95,2.23z"/>
			<path d="M54.57,29.81c0.3,4.17-1.91,7.73-4.93,7.94c-3.01,0.21-5.69-3-5.98-7.18c-0.3-4.18,1.91-7.74,4.93-7.95
				C51.6,22.41,54.28,25.63,54.57,29.81z"/>
			<path d="M41.31,30.72c0.12,3.38-1.8,6.18-4.29,6.27c-2.5,0.09-4.62-2.57-4.74-5.94c-0.12-3.38,1.8-6.18,4.3-6.27
				C39.07,24.69,41.19,27.35,41.31,30.72z"/>
			<path d="M31.27,34.87c0.18,3.03-1.5,5.59-3.77,5.73c-2.26,0.13-4.24-2.21-4.42-5.24c-0.18-3.03,1.5-5.6,3.76-5.73
				C29.1,29.49,31.08,31.84,31.27,34.87z"/>
			<path d="M22.88,41.09c0.07,2.81-1.59,5.14-3.71,5.19c-2.13,0.06-3.91-2.18-3.98-4.99s1.59-5.13,3.71-5.19
				C21.03,36.05,22.81,38.28,22.88,41.09z"/>
			<path d="M16.39,49.02c0.07,2.52-1.53,4.61-3.58,4.66c-2.04,0.06-3.76-1.93-3.83-4.45c-0.08-2.52,1.52-4.61,3.57-4.67
				C14.6,44.5,16.32,46.5,16.39,49.02z"/>
			<path d="M53.69,49.72c0.12,1.76-0.02,3.81-0.44,6.15c-0.41,2.35-1.23,4.61-2.46,6.78s-2.53,4.1-3.88,5.8
				c-1.35,1.7-2.49,3.49-3.43,5.37s-1.67,3.87-2.2,5.979c-0.53,2.11-0.97,4.75-1.32,7.92c-0.36,3.16,0.03,5.891,1.14,8.181
				c1.12,2.29,2.32,4.689,3.61,7.21c1.29,2.52,2.17,4.75,2.64,6.689c0.47,1.931,0.44,3.78-0.08,5.54
				c-0.53,1.76-1.18,3.311-1.94,4.66c-0.77,1.35-1.97,2.55-3.61,3.61c-1.65,1.06-3.94,1.729-6.87,2.02
				c-2.94,0.3-5.58-0.09-7.93-1.14c-2.35-1.061-3.99-2.61-4.93-4.66c-0.94-2.061-1.56-4.17-1.85-6.34s-0.38-4.66-0.26-7.471
				c0.11-2.819,0.08-5.489-0.09-8.01c-0.18-2.52-0.5-5.16-0.97-7.92c-0.47-2.75-1.03-5.22-1.67-7.39
				c-0.65-2.17-1.41-4.63-2.29-7.391c-0.88-2.75-1.33-5.479-1.33-8.18c0-2.69,0.33-5.3,0.97-7.83c0.65-2.52,1.74-4.83,3.26-6.95
				c1.53-2.11,3.44-4.07,5.73-5.89c2.29-1.82,4.93-3.4,7.92-4.75c3-1.35,6.67-2.32,11.01-2.9c3.99,0.23,6.84,1.67,8.54,4.31
				C52.67,45.76,53.58,47.96,53.69,49.72z"/>
			<path d="M112.03,38.91c0.64,2.52,0.97,5.13,0.97,7.83c0,2.7-0.44,5.43-1.32,8.18c-0.88,2.76-1.649,5.22-2.29,7.39
				c-0.649,2.17-1.21,4.63-1.68,7.39s-0.79,5.399-0.96,7.92c-0.18,2.52-0.21,5.189-0.09,8c0.109,2.82,0.03,5.31-0.271,7.479
				c-0.29,2.17-0.909,4.28-1.85,6.33c-0.94,2.061-2.58,3.61-4.93,4.67c-2.351,1.051-4.99,1.431-7.931,1.141
				c-2.93-0.29-5.22-0.971-6.859-2.021c-1.65-1.06-2.851-2.26-3.62-3.609c-0.76-1.351-1.41-2.9-1.931-4.66
				c-0.529-1.76-0.56-3.61-0.09-5.54c0.471-1.94,1.351-4.17,2.641-6.69c1.29-2.52,2.5-4.93,3.609-7.21c1.12-2.29,1.5-5.02,1.15-8.18
				c-0.36-3.17-0.8-5.81-1.33-7.92c-0.52-2.11-1.26-4.11-2.2-5.98c-0.939-1.88-2.08-3.67-3.43-5.37c-1.351-1.7-2.64-3.64-3.88-5.81
				c-1.23-2.17-2.05-4.42-2.46-6.77s-0.561-4.4-0.44-6.16c0.12-1.76,1.03-3.96,2.73-6.59c1.699-2.64,4.55-4.08,8.54-4.32
				c4.35,0.59,8.01,1.56,11.01,2.91c2.99,1.35,5.64,2.93,7.93,4.75c2.29,1.82,4.19,3.78,5.72,5.89
				C110.3,34.07,111.38,36.39,112.03,38.91z"/>
		</g>
		<g>
		</g>
	</g>
</g>
</svg>
