<?xml version="1.0" encoding="utf-8"?>
<!-- Generator: Adobe Illustrator 15.1.0, SVG Export Plug-In . SVG Version: 6.00 Build 0)  -->
<!DOCTYPE svg PUBLIC "-//W3C//DTD SVG 1.1//EN" "http://www.w3.org/Graphics/SVG/1.1/DTD/svg11.dtd">
<svg version="1.1" id="Layer_1" xmlns="http://www.w3.org/2000/svg" xmlns:xlink="http://www.w3.org/1999/xlink" x="0px" y="0px"
	 width="128px" height="128px" viewBox="0 0 128 128" enable-background="new 0 0 128 128" xml:space="preserve">
<g id="LINE_9_">
	<g id="XMLID_1_">
		<g>
			<path d="M101.45,64.49l-13.5-10.96c0-11.18-9.061-20.24-20.23-20.24c-7.62,0-14.59,4.28-18.04,11.07l9.17,9.17H32.23V26.91
				l8.31,8.31c5.88-4.14,12.79-6.56,19.96-7C81.83,26.93,100.16,43.17,101.45,64.49z"/>
			<path d="M96.11,85.46v26.62L87.8,103.77c-5.78,4.08-12.58,6.49-19.64,6.98c-21.31,1.47-39.78-14.62-41.25-35.93l13.48,10.64
				c0,11.18,9.06,20.23,20.23,20.23c7.62,0,14.59-4.271,18.04-11.061l-9.16-9.17H96.11z"/>
			<path d="M122.73,5.62v117.11H5.62V5.62H122.73z M117.4,117.4V21.59H10.94V117.4H117.4z"/>
		</g>
		<g>
		</g>
	</g>
</g>
</svg>
