<?xml version="1.0" encoding="utf-8"?>
<!-- Generator: Adobe Illustrator 15.1.0, SVG Export Plug-In . SVG Version: 6.00 Build 0)  -->
<!DOCTYPE svg PUBLIC "-//W3C//DTD SVG 1.1//EN" "http://www.w3.org/Graphics/SVG/1.1/DTD/svg11.dtd">
<svg version="1.1" id="Layer_1" xmlns="http://www.w3.org/2000/svg" xmlns:xlink="http://www.w3.org/1999/xlink" x="0px" y="0px"
	 width="128px" height="128px" viewBox="0 0 128 128" enable-background="new 0 0 128 128" xml:space="preserve">
<g id="LINE_10_">
	<g id="XMLID_1_">
		<g>
			<path d="M103.38,95.39c-0.39-1.409-0.79-2.81-1.2-4.22c-0.04-0.13-0.08-0.26-0.12-0.39l5.28-2.82c0.44,1.91,0.86,3.88,1.271,5.91
				l7.55-2.2c-0.601,5.84-1.62,10.771-3.08,14.8c-1.46,4.03-4.04,8.271-7.75,12.721c-1.45-4.65-2.82-8.271-4.12-10.841
				c-1.31-2.58-3.47-6.05-6.5-10.43L103.38,95.39z"/>
			<path d="M125.89,63.49c0.03,1.569-0.199,3.16-0.64,4.67c-0.44,1.52-1.09,2.97-1.88,4.34s-1.72,2.65-2.72,3.87
				c-1.011,1.22-2.091,2.37-3.24,3.45c-1.15,1.09-2.36,2.1-3.62,3.05c-1.271,0.939-2.58,1.82-3.94,2.63
				c-1.359,0.8-2.76,1.54-4.18,2.22c-1.42,0.69-2.87,1.32-4.33,1.91c-1.46,0.601-2.939,1.16-4.43,1.68
				c-1.49,0.521-3,0.99-4.521,1.41c-1.52,0.431-3.06,0.8-4.6,1.12c-1.55,0.32-3.11,0.58-4.67,0.811
				c-1.561,0.229-3.13,0.43-4.7,0.609c-1.57,0.181-3.14,0.33-4.71,0.471c-1.57,0.149-3.15,0.27-4.72,0.38
				c-1.58,0.109-3.15,0.199-4.73,0.29c-1.57,0.1-3.15,0.18-4.73,0.199c-1.58,0.021-3.16-0.04-4.73-0.14
				c-1.58-0.11-3.15-0.27-4.72-0.479c-1.56-0.2-3.12-0.44-4.68-0.721c-1.55-0.279-3.1-0.6-4.64-0.939
				c-1.54-0.34-3.08-0.71-4.61-1.101c-1.53-0.399-3.05-0.81-4.56-1.25c-1.52-0.439-3.03-0.89-4.54-1.37
				c-1.51-0.47-3.01-0.96-4.49-1.52l-1.87,7.65c-4.75-3.44-8.51-6.801-11.28-10.07c-2.76-3.28-5.14-7.641-7.14-13.07
				c4.76,1.07,8.58,1.69,11.46,1.851c2.88,0.159,6.97,0.02,12.28-0.41l-2.16,8.81c1.42,0.33,2.84,0.68,4.27,1.03
				c1.42,0.34,2.85,0.67,4.28,0.97c1.43,0.311,2.87,0.601,4.3,0.87c1.44,0.28,2.89,0.53,4.33,0.75c0.63,0.1,1.26,0.19,1.89,0.271
				c0.82,0.119,1.64,0.22,2.46,0.31c1.46,0.17,2.92,0.3,4.38,0.39c1.46,0.09,2.92,0.13,4.39,0.141c1.46,0.01,2.93-0.03,4.39-0.09
				C60,88.4,61.46,88.3,62.92,88.14c1.45-0.149,2.9-0.34,4.35-0.58c1.44-0.239,2.881-0.52,4.311-0.85c1.42-0.33,2.84-0.7,4.25-1.11
				c1.4-0.399,2.8-0.84,4.189-1.3c1.391-0.46,2.771-0.95,4.141-1.47c1.37-0.521,2.72-1.08,4.07-1.65
				c1.34-0.58,2.67-1.189,3.989-1.83c1.32-0.64,2.62-1.319,3.86-2.09c0.31-0.189,0.62-0.39,0.92-0.6c0.91-0.61,1.79-1.28,2.63-1.98
				c1.11-0.949,2.16-1.979,3.101-3.1c0.949-1.12,1.789-2.33,2.529-3.59s1.37-2.59,1.84-3.98c0.471-1.38,0.78-2.84,0.79-4.3
				c0.021-1.46-0.26-2.93-0.81-4.29c-0.55-1.35-1.38-2.59-2.37-3.67c-0.979-1.09-2.12-2.02-3.32-2.85
				c-1.21-0.84-2.479-1.57-3.79-2.23c-1.3-0.66-2.64-1.25-4-1.8c-1.35-0.54-2.71-1.03-4.08-1.49l-5.21-5.89L83.9,37.02
				c0.71,0.03,1.42,0.07,2.13,0.11c1.58,0.11,3.149,0.26,4.72,0.46c1.56,0.19,3.13,0.44,4.68,0.74c1.551,0.29,3.09,0.64,4.61,1.05
				c1.53,0.4,3.04,0.86,4.53,1.39c1.489,0.52,2.96,1.11,4.39,1.77s2.83,1.4,4.18,2.21c1.36,0.82,2.67,1.71,3.91,2.68
				c1.24,0.98,2.42,2.04,3.48,3.21c1.05,1.17,1.989,2.46,2.77,3.83c0.771,1.38,1.391,2.84,1.83,4.35
				C125.58,60.34,125.87,61.91,125.89,63.49z"/>
			<path d="M102.05,69.84l-5.49,5.41c-0.09-0.21-0.18-0.42-0.27-0.62c-0.58-1.34-1.19-2.67-1.85-3.979
				c-0.65-1.311-1.351-2.601-2.07-3.87c-0.73-1.271-1.49-2.53-2.28-3.76s-1.62-2.44-2.47-3.62c-0.86-1.19-1.76-2.35-2.69-3.48
				c-0.93-1.13-1.89-2.24-2.89-3.31c-0.99-1.07-2.03-2.11-3.08-3.12c-1.06-1.02-2.13-2.01-3.22-2.99
				c-1.101-0.97-2.21-1.92-3.351-2.84c-1.13-0.93-2.29-1.83-3.46-2.7c-1.18-0.87-2.37-1.73-3.58-2.55
				c-1.169-0.79-2.359-1.54-3.6-2.22l8.71-10.16c4.25,3.37,7.92,6.92,11.04,10.66c0.51,0.61,1.02,1.24,1.55,1.91
				c3.69,4.64,7.87,10.62,12.561,17.92C97.95,60.18,100.1,64.62,102.05,69.84z"/>
			<path d="M43.21,83.22c-0.06,0.99-0.08,1.96-0.06,2.92L30.1,83.62c0.79-5.25,2.01-10.11,3.66-14.59
				c2.2-5.94,5.57-13.32,10.13-22.13c4.55-8.82,13.16-18.8,25.84-29.94l-5.681-5.44C69.4,9.12,74.19,7.54,78.41,6.79
				s9.18-0.64,14.88,0.35c-3.3,3.58-5.75,6.58-7.32,8.99c-1.58,2.42-3.51,6.03-5.779,10.84l-6.561-6.28
				c-1.47,1.49-2.87,2.95-4.2,4.37c-6.14,6.58-10.83,12.51-14.08,17.8c-4.04,6.59-6.98,13.28-8.79,20.07
				C44.74,69.71,43.62,76.47,43.21,83.22z"/>
		</g>
		<g>
		</g>
	</g>
</g>
</svg>
