<?xml version="1.0" encoding="utf-8"?>
<!-- Generator: Adobe Illustrator 15.1.0, SVG Export Plug-In . SVG Version: 6.00 Build 0)  -->
<!DOCTYPE svg PUBLIC "-//W3C//DTD SVG 1.1//EN" "http://www.w3.org/Graphics/SVG/1.1/DTD/svg11.dtd">
<svg version="1.1" id="Layer_1" xmlns="http://www.w3.org/2000/svg" xmlns:xlink="http://www.w3.org/1999/xlink" x="0px" y="0px"
	 width="128px" height="128px" viewBox="0 0 128 128" enable-background="new 0 0 128 128" xml:space="preserve">
<g id="LINE_27_">
	<g id="XMLID_1_">
		<g>
			<polygon points="48.26,48.11 43.07,63.68 27.5,63.68 27.5,74.06 3.27,55.89 27.5,37.72 27.5,48.11 			"/>
			<polygon points="82,24.75 66.43,24.75 71.62,45.51 56.05,45.51 61.24,24.75 45.67,24.75 63.83,6.58 			"/>
			<polygon points="124.39,55.89 100.17,74.06 100.17,63.68 84.6,63.68 79.41,48.11 100.17,48.11 100.17,37.72 			"/>
			<polygon points="87.19,92.23 63.83,121.43 40.48,92.23 50.86,92.23 61.24,66.27 66.43,66.27 76.81,92.23 			"/>
		</g>
		<g>
		</g>
	</g>
</g>
</svg>
