<?xml version="1.0" encoding="utf-8"?>
<!-- Generator: Adobe Illustrator 15.1.0, SVG Export Plug-In . SVG Version: 6.00 Build 0)  -->
<!DOCTYPE svg PUBLIC "-//W3C//DTD SVG 1.1//EN" "http://www.w3.org/Graphics/SVG/1.1/DTD/svg11.dtd">
<svg version="1.1" id="Layer_1" xmlns="http://www.w3.org/2000/svg" xmlns:xlink="http://www.w3.org/1999/xlink" x="0px" y="0px"
	 width="128px" height="128px" viewBox="0 0 128 128" enable-background="new 0 0 128 128" xml:space="preserve">
<g id="LINE_107_">
	<g id="XMLID_1_">
		<g>
			<rect x="96.74" y="97.24" width="10.99" height="5.49"/>
			<rect x="113.23" y="97.24" width="11" height="5.49"/>
			<rect x="118.73" y="80.74" width="5.5" height="11"/>
			<rect x="118.73" y="64.25" width="5.5" height="11"/>
			<rect x="118.73" y="47.76" width="5.5" height="10.99"/>
			<rect x="102.23" y="47.76" width="11" height="5.49"/>
			<rect x="85.74" y="47.76" width="11" height="5.49"/>
			<rect x="85.74" y="58.75" width="5.5" height="11"/>
			<rect x="85.74" y="75.25" width="5.5" height="10.99"/>
			<rect x="85.74" y="91.74" width="5.5" height="10.99"/>
			<rect x="25.27" y="75.25" width="5.49" height="10.99"/>
			<rect x="25.27" y="91.74" width="5.49" height="10.99"/>
			<rect x="36.26" y="97.24" width="11" height="5.49"/>
			<rect x="52.75" y="97.24" width="11" height="5.49"/>
			<rect x="69.25" y="97.24" width="10.99" height="5.49"/>
			<rect x="74.75" y="80.74" width="5.49" height="11"/>
			<rect x="74.75" y="64.25" width="5.49" height="11"/>
			<rect x="74.75" y="47.76" width="5.49" height="10.99"/>
			<rect x="74.75" y="31.26" width="5.49" height="11"/>
			<rect x="58.25" y="31.26" width="11" height="5.5"/>
			<rect x="41.76" y="31.26" width="10.99" height="5.5"/>
			<rect x="25.27" y="31.26" width="10.99" height="5.5"/>
			<rect x="25.27" y="42.26" width="5.49" height="10.99"/>
			<rect x="25.27" y="58.75" width="5.49" height="11"/>
			<polygon points="124.23,108.23 124.23,113.73 19.77,113.73 19.77,124.73 14.27,124.73 14.27,113.73 3.27,113.73 3.27,108.23 
				14.27,108.23 14.27,3.77 19.77,3.77 19.77,108.23 			"/>
		</g>
		<g>
		</g>
	</g>
</g>
</svg>
