<?xml version="1.0" encoding="utf-8"?>
<!-- Generator: Adobe Illustrator 15.1.0, SVG Export Plug-In . SVG Version: 6.00 Build 0)  -->
<!DOCTYPE svg PUBLIC "-//W3C//DTD SVG 1.1//EN" "http://www.w3.org/Graphics/SVG/1.1/DTD/svg11.dtd">
<svg version="1.1" id="Layer_1" xmlns="http://www.w3.org/2000/svg" xmlns:xlink="http://www.w3.org/1999/xlink" x="0px" y="0px"
	 width="128px" height="128px" viewBox="0 0 128 128" enable-background="new 0 0 128 128" xml:space="preserve">
<g id="SPLINE_3_">
	<g id="XMLID_1_">
		<g>
			<polygon points="74.07,94.17 74.71,122.95 64.78,122.95 64.15,94.17 			"/>
			<path d="M125.46,54.99c0.98,5.03-0.54,10.05-4.55,15.06c-4.01,5.021-9.34,9.061-15.99,12.12c-6.65,3.07-13.1,5.14-19.34,6.21
				c-6.25,1.07-14.32,1.84-24.22,2.3s-22.84-2.01-38.81-7.41l-1.87,7.641c-4.76-3.44-8.51-6.79-11.27-10.07
				c-2.76-3.27-5.14-7.62-7.14-13.05c4.76,1.07,8.57,1.69,11.45,1.84c2.88,0.17,6.97,0.03,12.27-0.41l-2.16,8.82
				c11.33,2.95,20.77,4.53,28.31,4.729c7.73,0.211,14.98-0.59,21.76-2.409c6.779-1.82,13.189-4.23,19.229-7.24
				c6.04-3.021,10.37-7.2,12.98-12.56c2.609-5.36,2.3-10.04-0.931-14.03c-3.22-4-9.87-7.43-19.949-10.28l-3.99-5.03
				c7.37,0.1,14.189,1.07,20.45,2.92c6.27,1.84,11.55,4.53,15.859,8.04C121.85,45.7,124.49,49.97,125.46,54.99z"/>
			<rect x="64.15" y="4.87" width="9.92" height="69.46"/>
		</g>
		<g>
		</g>
	</g>
</g>
</svg>
