<?xml version="1.0" encoding="utf-8"?>
<!-- Generator: Adobe Illustrator 15.1.0, SVG Export Plug-In . SVG Version: 6.00 Build 0)  -->
<!DOCTYPE svg PUBLIC "-//W3C//DTD SVG 1.1//EN" "http://www.w3.org/Graphics/SVG/1.1/DTD/svg11.dtd">
<svg version="1.1" id="Layer_1" xmlns="http://www.w3.org/2000/svg" xmlns:xlink="http://www.w3.org/1999/xlink" x="0px" y="0px"
	 width="128px" height="128px" viewBox="0 0 128 128" enable-background="new 0 0 128 128" xml:space="preserve">
<g id="SPLINE_14_">
	<g id="XMLID_1_">
		<g>
			<path d="M124.73,3.08v122.65H2.08V3.08H124.73z M119.15,120.15V19.8H7.65V120.15H119.15z"/>
			<path d="M102.47,94.82c-2.79,4.8-5.109,7.93-6.979,9.399c-1.87,1.471-4.41,2.21-7.63,2.21c-7.03,0-16.17-5.63-27.42-16.88
				l-3.93-3.88l-2.09,2.4C43.98,100.31,35.88,106.43,30.09,106.43c-4.35,0-8.78-3.569-13.3-10.71c1.56,0,2.76,0,3.6,0
				c7.31,0,15.61-5.33,24.91-15.979l3.26-3.66l-2.34-2.93C34.93,59.6,29.29,50.09,29.29,44.62c0-3.92,3.07-8.91,9.23-14.95
				c2.56,11.81,7.92,22.96,16.06,33.47l1.84,2.4l3.52-4.49c11.47-14.97,20.6-22.46,27.39-22.46c3.34,0,6.11,1.73,8.28,5.19
				c0.39,0.6,0.949,1.43,1.68,2.49c-8.65,4.1-18.32,12.41-29.01,24.9l-3.43,4.05l2.51,2.9c10.149,11.729,19.51,17.6,28.08,17.6
				C97.96,95.72,100.3,95.42,102.47,94.82z"/>
		</g>
		<g>
		</g>
	</g>
</g>
</svg>
