<?xml version="1.0" encoding="utf-8"?>
<!-- Generator: Adobe Illustrator 15.1.0, SVG Export Plug-In . SVG Version: 6.00 Build 0)  -->
<!DOCTYPE svg PUBLIC "-//W3C//DTD SVG 1.1//EN" "http://www.w3.org/Graphics/SVG/1.1/DTD/svg11.dtd">
<svg version="1.1" id="Layer_1" xmlns="http://www.w3.org/2000/svg" xmlns:xlink="http://www.w3.org/1999/xlink" x="0px" y="0px"
	 width="128px" height="128px" viewBox="0 0 128 128" enable-background="new 0 0 128 128" xml:space="preserve">
<g id="LINE_45_">
	<g id="XMLID_1_">
		<g>
			<path d="M124.14,66.84v49.45H3.27V66.84h5.5v16.48h49.44v-5.49h5.5v5.49h32.96v-5.49h5.5v5.49h16.48V66.84H124.14z
				 M118.65,110.79V88.82h-16.48v21.97H118.65z M96.67,110.79V88.82H63.71v21.97H96.67z M58.21,110.79V88.82H8.77v21.97H58.21z"/>
			<path d="M108.1,9.92v51.43H94.25V27.07c-2.3,1.81-4.54,3.26-6.7,4.38c-2.16,1.11-4.87,2.17-8.13,3.19V22.78
				c4.78-1.47,8.5-3.22,11.14-5.27c2.65-2.05,4.721-4.58,6.21-7.59H108.1z"/>
			<rect x="53.71" y="47.5" width="13.84" height="13.85"/>
			<rect x="53.71" y="24.76" width="13.84" height="13.84"/>
			<path d="M37.89,9.92v51.43H24.04V27.07c-2.31,1.81-4.54,3.26-6.7,4.38c-2.17,1.11-4.88,2.17-8.13,3.19V22.78
				c4.78-1.47,8.49-3.22,11.14-5.27c2.65-2.05,4.72-4.58,6.21-7.59H37.89z"/>
		</g>
		<g>
		</g>
	</g>
</g>
</svg>
