<?xml version="1.0" encoding="utf-8"?>
<!-- Generator: Adobe Illustrator 15.1.0, SVG Export Plug-In . SVG Version: 6.00 Build 0)  -->
<!DOCTYPE svg PUBLIC "-//W3C//DTD SVG 1.1//EN" "http://www.w3.org/Graphics/SVG/1.1/DTD/svg11.dtd">
<svg version="1.1" id="Layer_1" xmlns="http://www.w3.org/2000/svg" xmlns:xlink="http://www.w3.org/1999/xlink" x="0px" y="0px"
	 width="128px" height="128px" viewBox="0 0 128 128" enable-background="new 0 0 128 128" xml:space="preserve">
<g id="LINE_20_">
	<g id="XMLID_1_">
		<g>
			<path d="M79,65.71c0,4.22-1.5,7.83-4.5,10.84c-3,3-6.62,4.5-10.84,4.5c-4.27,0-7.89-1.49-10.87-4.45
				c-2.98-2.97-4.47-6.54-4.47-10.71c0-1.84,0.3-3.63,0.91-5.35l15.1,7.17l-7.42-16.03c1.93-0.88,3.97-1.32,6.12-1.32
				c4.38,0,8.14,1.5,11.27,4.51C77.43,57.87,79,61.48,79,65.71z"/>
			<path d="M106.83,50.03c4.82,4.35,8.89,9.57,12.189,15.68c-3.3,6.11-7.369,11.32-12.189,15.63
				C95.25,91.82,80.88,97.06,63.72,97.06c-17.16,0-31.55-5.239-43.17-15.72c-4.82-4.31-8.91-9.52-12.26-15.63
				c3.35-6.11,7.44-11.33,12.26-15.68c11.62-10.45,26.01-15.68,43.17-15.68C80.88,34.35,95.25,39.58,106.83,50.03z M108.35,65.71
				c-2.069-3.76-4.58-7.11-7.52-10.07c-7.1-7.06-15.94-11.49-26.5-13.28c4.6,2.01,8.3,5.09,11.09,9.23c2.84,4.28,4.25,9,4.25,14.16
				c0,5.1-1.38,9.74-4.15,13.93C82.74,83.87,79.1,87,74.58,89.05C90.05,86.34,101.31,78.56,108.35,65.71z M84.34,65.71
				c0-5.7-2-10.57-6.01-14.62c-4-4.04-8.82-6.06-14.46-6.06c-2.98,0-5.8,0.59-8.47,1.79l-2.14-4.46
				c-15.62,2.71-27.05,10.49-34.29,23.35c2.07,3.76,4.55,7.1,7.46,10.021c7.06,7.05,15.81,11.489,26.24,13.319
				c-4.51-1.819-8.15-4.79-10.9-8.92s-4.13-8.71-4.13-13.74c0-3.05,0.54-6.02,1.61-8.899l5.15,1.61c-0.95,2.36-1.42,4.79-1.42,7.29
				c0,5.551,2.02,10.271,6.07,14.16c4.04,3.891,8.91,5.83,14.61,5.83s10.57-2.01,14.609-6.03C82.32,76.33,84.34,71.45,84.34,65.71z"
				/>
			<polygon points="124.73,2.27 124.73,57.64 114.66,47.57 114.66,22.41 13.99,22.41 13.99,47.57 3.93,57.64 3.93,2.27 			"/>
			<polygon points="124.73,72.74 124.73,123.07 3.93,123.07 3.93,72.74 13.99,82.81 13.99,113.01 114.66,113.01 114.66,82.81 			"/>
		</g>
		<g>
		</g>
	</g>
</g>
</svg>
