<?xml version="1.0" encoding="utf-8"?>
<!-- Generator: Adobe Illustrator 15.1.0, SVG Export Plug-In . SVG Version: 6.00 Build 0)  -->
<!DOCTYPE svg PUBLIC "-//W3C//DTD SVG 1.1//EN" "http://www.w3.org/Graphics/SVG/1.1/DTD/svg11.dtd">
<svg version="1.1" id="Layer_1" xmlns="http://www.w3.org/2000/svg" xmlns:xlink="http://www.w3.org/1999/xlink" x="0px" y="0px"
	 width="128px" height="128px" viewBox="0 0 128 128" enable-background="new 0 0 128 128" xml:space="preserve">
<g id="LINE_12_">
	<g id="XMLID_1_">
		<g>
			<path fill="#FFFFFF" d="M125.44,50.34c2.02,2.01,2.02,6.05,0,12.11c-2.021,6.06-4.03,9.09-6.051,9.09
				c-2.02,0-8.08-1.01-18.17-3.03c-1.739-0.35-3.63-0.49-5.66-0.42c-3.93,0.141-8.42,1.061-13.46,2.75
				c-0.859,0.29-1.739,0.601-2.63,0.94c-6.92,2.59-14.82,6.55-23.68,11.87c-2.13,1.279-4.18,2.489-6.13,3.63
				c-6.21,3.64-11.5,6.6-15.89,8.87c-7.29,3.779-12.07,5.67-14.32,5.67c-0.98,0-2.02-0.181-3.11-0.53
				c-3.43-1.11-7.45-3.96-12.04-8.55c-6.05-6.061-3.03-12.12,9.09-18.181C25.5,68.51,29.54,65.48,25.5,65.48s-8.07,0-12.11,0
				s-7.07-1.01-9.09-3.03s-3.03-7.07-3.03-15.14c0-8.08,6.06-12.12,18.18-12.12c8.95-1.28,17.3-2.76,25.05-4.44
				c5.12-1.12,9.97-2.32,14.56-3.61c2.17-0.62,4.28-1.25,6.33-1.9c4.04-1.28,7.851-2.64,11.431-4.08
				c3.279-1.31,6.359-2.69,9.25-4.14c16.16-8.07,25.239-12.11,27.26-12.11c2.02,0,4.04,2.02,6.06,6.05
				c2.021,4.04,3.03,7.07,3.03,9.09s-2.02,5.05-6.06,9.09c-4.04,4.03-9.091,8.07-15.141,12.11c-6.06,4.04-7.069,6.06-3.029,6.06
				s9.079,0,15.14,0C119.39,47.31,123.42,48.32,125.44,50.34z"/>
			<path d="M82.44,71.78L82.1,70.84c5.04-1.689,9.53-2.609,13.46-2.75l23.131,57.96H102.31L88.1,87.28H49.66
				c1.95-1.141,4-2.351,6.13-3.63c8.86-5.32,16.76-9.28,23.68-11.87H82.44z"/>
			<path d="M33.77,96.15L22.84,126.05H6.45l9.89-24.76c1.09,0.35,2.13,0.53,3.11,0.53C21.7,101.82,26.48,99.93,33.77,96.15z"/>
			<path d="M62.56,17.53c-1.1,3.01-2.26,6.22-3.5,9.6v0.01c-4.59,1.29-9.44,2.49-14.56,3.61L55.97,2h13.2l7.65,19.16
				c-3.58,1.44-7.391,2.8-11.431,4.08L62.56,17.53z"/>
		</g>
		<g>
		</g>
	</g>
</g>
</svg>
