<?xml version="1.0" encoding="utf-8"?>
<!-- Generator: Adobe Illustrator 15.1.0, SVG Export Plug-In . SVG Version: 6.00 Build 0)  -->
<!DOCTYPE svg PUBLIC "-//W3C//DTD SVG 1.1//EN" "http://www.w3.org/Graphics/SVG/1.1/DTD/svg11.dtd">
<svg version="1.1" id="Layer_1" xmlns="http://www.w3.org/2000/svg" xmlns:xlink="http://www.w3.org/1999/xlink" x="0px" y="0px"
	 width="128px" height="128px" viewBox="0 0 128 128" enable-background="new 0 0 128 128" xml:space="preserve">
<g id="LINE_63_">
	<g id="XMLID_1_">
		<g>
			<rect x="73" y="5.38" width="16.91" height="16.91"/>
			<rect x="106.82" y="5.38" width="16.91" height="16.91"/>
			<rect x="106.82" y="39.19" width="16.91" height="16.91"/>
			<rect x="73" y="39.19" width="16.91" height="16.91"/>
			<rect x="73" y="73" width="16.91" height="16.91"/>
			<rect x="106.82" y="73" width="16.91" height="16.91"/>
			<rect x="106.82" y="106.82" width="16.91" height="16.91"/>
			<rect x="73" y="106.82" width="16.91" height="16.91"/>
			<rect x="5.38" y="106.82" width="16.91" height="16.91"/>
			<rect x="39.19" y="106.82" width="16.91" height="16.91"/>
			<rect x="39.19" y="73" width="16.91" height="16.91"/>
			<rect x="5.38" y="73" width="16.91" height="16.91"/>
			<rect x="5.38" y="39.19" width="16.91" height="16.91"/>
			<rect x="39.19" y="39.19" width="16.91" height="16.91"/>
			<rect x="39.19" y="5.38" width="16.91" height="16.91"/>
			<rect x="5.38" y="5.38" width="16.91" height="16.91"/>
		</g>
		<g>
		</g>
	</g>
</g>
</svg>
