<?xml version="1.0" encoding="utf-8"?>
<!-- Generator: Adobe Illustrator 16.0.0, SVG Export Plug-In . SVG Version: 6.00 Build 0)  -->
<!DOCTYPE svg PUBLIC "-//W3C//DTD SVG 1.1//EN" "http://www.w3.org/Graphics/SVG/1.1/DTD/svg11.dtd">
<svg version="1.1" id="Layer_1" xmlns="http://www.w3.org/2000/svg" xmlns:xlink="http://www.w3.org/1999/xlink" x="0px" y="0px"
	 width="32px" height="32px" viewBox="0 0 32 32" enable-background="new 0 0 32 32" xml:space="preserve">
<g id="SPLINE_14_">
	<g id="XMLID_1_">
		<g>
			<path d="M11.569824,16.600098c1.580078,0,3.380371-1.149902,5.390137-3.459961l0.709961-0.790039l-0.509766-0.629883
				c-2.439941-2.94043-3.660156-5-3.660156-6.180176c0-0.850098,0.660156-1.930176,2-3.22998
				c0.549805,2.549805,1.709961,4.969727,3.469727,7.239746l0.400391,0.52002l0.759766-0.969727
				c2.490234-3.240234,4.459961-4.859863,5.929688-4.859863c0.730469,0,1.320313,0.369629,1.790039,1.119629
				c0.09082,0.130371,0.209961,0.310059,0.370117,0.540039C26.339844,6.790039,24.25,8.580078,21.94043,11.290039
				l-0.740234,0.870117l0.540039,0.629883c2.200195,2.540039,4.219727,3.810059,6.080078,3.810059
				c0.540039,0,1.049805-0.060059,1.519531-0.189941c-0.599609,1.040039-1.109375,1.709961-1.509766,2.030273
				c-0.410156,0.319336-0.959961,0.479492-1.650391,0.479492c-1.529297,0-3.5-1.219727-5.939453-3.649902l-0.850586-0.839844
				l-0.449219,0.52002c-2.260254,2.639648-4.020508,3.969727-5.270508,3.969727c-0.939941,0-1.899902-0.769531-2.879883-2.319824
				C11.129883,16.600098,11.390137,16.600098,11.569824,16.600098z"/>
			<polygon points="7.549805,5.700195 12.379883,10.52002 8.759766,10.52002 8.759766,22.589844 20.830078,22.589844 
				20.830078,18.969727 25.650391,23.799805 20.830078,28.620117 20.830078,25 6.350098,25 6.350098,10.52002 2.72998,10.52002 			
				"/>
		</g>
		<g>
		</g>
	</g>
</g>
</svg>
