<?xml version="1.0" encoding="utf-8"?>
<!-- Generator: Adobe Illustrator 15.1.0, SVG Export Plug-In . SVG Version: 6.00 Build 0)  -->
<!DOCTYPE svg PUBLIC "-//W3C//DTD SVG 1.1//EN" "http://www.w3.org/Graphics/SVG/1.1/DTD/svg11.dtd">
<svg version="1.1" id="Layer_1" xmlns="http://www.w3.org/2000/svg" xmlns:xlink="http://www.w3.org/1999/xlink" x="0px" y="0px"
	 width="128px" height="128px" viewBox="0 0 128 128" enable-background="new 0 0 128 128" xml:space="preserve">
<g id="LINE_13_">
	<g id="XMLID_1_">
		<g>
			<rect x="20.53" y="43.3" width="62.621" height="17.08"/>
			<path d="M125.84,114.45l-4.03,4.03l-3.329,3.329l-4.03,4.03L85.99,97.38v-5.7l-2.26-2.26c-18.4,15.61-45.391,15.61-63.78,0
				C-0.81,71.81-3.36,40.71,14.26,19.95C31.87-0.81,62.97-3.36,83.73,14.26c20.76,17.61,23.31,48.71,5.689,69.471l2.26,2.26h5.7
				L125.84,114.45z M82.67,82.67c17.021-17.03,17.021-44.63,0-61.66c-17.03-17.03-44.63-17.03-61.66,0
				c-17.03,17.03-17.03,44.63,0,61.66c15.92,15.92,41.35,17.1,58.681,2.71L82.67,82.67z"/>
		</g>
		<g>
		</g>
	</g>
</g>
</svg>
