<?xml version="1.0" encoding="utf-8"?>
<!-- Generator: Adobe Illustrator 16.0.0, SVG Export Plug-In . SVG Version: 6.00 Build 0)  -->
<!DOCTYPE svg PUBLIC "-//W3C//DTD SVG 1.1//EN" "http://www.w3.org/Graphics/SVG/1.1/DTD/svg11.dtd">
<svg version="1.1" id="Layer_1" xmlns="http://www.w3.org/2000/svg" xmlns:xlink="http://www.w3.org/1999/xlink" x="0px" y="0px"
	 width="32px" height="32px" viewBox="0 0 32 32" enable-background="new 0 0 32 32" xml:space="preserve">
<g id="LINE_14_">
	<g id="XMLID_1_">
		<g>
			<path d="M23,16.529785l0.169922,1.870605c-0.280273,2.339844-0.780273,4.239258-1.490234,5.719727l-1.199219,1.55957v1.720703
				c-2.120117-1.630859-5.060547-1.630859-7.17041,0v-2.230469c-0.870117-0.620117-1.859863-1.459961-2.970215-2.519531
				L7.5,18.80957l-3.310059-3.199707l0.290039-0.219727c0.819824-0.669922,1.510254-1.010254,2.089844-1.010254
				c0.590332,0,1.130371,0.169922,1.620117,0.510254c0.490234,0.339844,0.939941,0.839844,1.339844,1.52002
				C10.129883,16.620117,10.589844,16.810059,10.930176,17c0.649902-1.310059,0.609863-3.049805-0.120117-5.220215
				L9.319824,8.060059c-0.159668-0.660156-0.25-1.22998-0.25-1.709961S9.200195,5.52002,9.459961,5.279785
				c0.260254-0.22998,0.649902-0.339844,1.160156-0.339844c0.870117,0,1.620117,0.830078,2.22998,2.52002l2.089844,4.620117
				l-0.589844-6.120117c0-0.879883,0.149902-1.549805,0.439941-1.989746c0.299805-0.44043,0.72998-0.660156,1.310059-0.660156
				c0.589844,0,1.029785,0.189941,1.32959,0.580078c0.290039,0.399902,0.44043,0.989746,0.44043,1.77002v6.139648l1.729492-5.259766
				c0.360352-1.290039,0.94043-1.930176,1.740234-1.930176c0.469727,0,0.830078,0.140137,1.060547,0.410156
				c0.239258,0.279785,0.359375,0.700195,0.359375,1.259766c0,0.300293-0.089844,0.820313-0.279297,1.590332l-1.450195,5.069824
				l2.609375-3.080078C24.200195,8.970215,24.75,8.52002,25.299805,8.52002c0.379883,0,0.700195,0.129883,0.969727,0.399902
				c0.260742,0.27002,0.400391,0.600098,0.400391,0.990234c0,0.439941-0.229492,1.029785-0.669922,1.759766L23,16.529785z"/>
		</g>
		<g>
		</g>
	</g>
</g>
</svg>
