<?xml version="1.0" encoding="utf-8"?>
<!-- Generator: Adobe Illustrator 15.1.0, SVG Export Plug-In . SVG Version: 6.00 Build 0)  -->
<!DOCTYPE svg PUBLIC "-//W3C//DTD SVG 1.1//EN" "http://www.w3.org/Graphics/SVG/1.1/DTD/svg11.dtd">
<svg version="1.1" id="Layer_1" xmlns="http://www.w3.org/2000/svg" xmlns:xlink="http://www.w3.org/1999/xlink" x="0px" y="0px"
	 width="128px" height="128px" viewBox="0 0 128 128" enable-background="new 0 0 128 128" xml:space="preserve">
<g id="LINE_19_">
	<g id="XMLID_1_">
		<g>
			<polygon points="75.54,64.16 75.54,76.3 26.97,76.3 26.97,64.58 55.37,36.83 30.01,36.83 30.01,24.69 74.53,24.69 74.53,36.06 
				45.8,64.16 			"/>
			<path d="M125.11,113.86l-3.98,3.979l-3.29,3.29l-3.979,3.98L85.75,97v-5.62l-2.23-2.24c-18.17,15.42-44.819,15.42-62.99,0
				C0.03,71.75-2.49,41.03,14.91,20.53C32.3,0.03,63.02-2.49,83.52,14.91c20.5,17.39,23.021,48.11,5.62,68.609l2.24,2.23H97
				L125.11,113.86z M82.47,82.47c16.82-16.81,16.82-44.08,0-60.89c-16.81-16.81-44.08-16.81-60.89,0s-16.81,44.08,0,60.89
				C37.31,98.2,62.42,99.36,79.53,85.15L82.47,82.47z"/>
		</g>
		<g>
		</g>
	</g>
</g>
</svg>
