<?xml version="1.0" encoding="utf-8"?>
<!-- Generator: Adobe Illustrator 15.1.0, SVG Export Plug-In . SVG Version: 6.00 Build 0)  -->
<!DOCTYPE svg PUBLIC "-//W3C//DTD SVG 1.1//EN" "http://www.w3.org/Graphics/SVG/1.1/DTD/svg11.dtd">
<svg version="1.1" id="Layer_1" xmlns="http://www.w3.org/2000/svg" xmlns:xlink="http://www.w3.org/1999/xlink" x="0px" y="0px"
	 width="128px" height="128px" viewBox="0 0 128 128" enable-background="new 0 0 128 128" xml:space="preserve">
<g id="LINE_32_">
	<g id="XMLID_1_">
		<g>
			<polygon points="125.73,96.88 125.73,124.73 97.88,124.73 109.83,112.77 101.48,104.41 105.41,100.48 113.77,108.83 			"/>
			<polygon points="33,28.06 29.06,32 15.14,18.08 3.18,30.03 3.18,2.18 31.03,2.18 19.08,14.14 			"/>
			<polygon points="125.73,2.18 125.73,30.03 113.77,18.08 99.84,32 95.91,28.06 109.83,14.14 97.88,2.18 			"/>
			<path d="M76.61,40.52c9.46,5.02,14.87,15.34,13.62,25.98c-3.25-8.3-9.58-15-17.681-18.72L76.61,40.52z"/>
			<path d="M71.39,38.45l-3.76,7.52c-7.95-2.26-16.45-1.58-23.94,1.91C50.1,39.34,61.1,35.59,71.39,38.45z"/>
			<path d="M100.66,94.09l-5.57,5.57l-7.34-7.34c-2.11,1.699-4.39,3.16-6.82,4.359c-18.35,9.11-40.6,1.61-49.709-16.75
				c-9.1-18.35-1.6-40.6,16.75-49.709c12.98-6.43,28.51-4.73,39.78,4.37c15.94,12.87,18.44,36.22,5.57,52.16L100.66,94.09z
				 M95.98,63.46c0-17.42-14.12-31.53-31.521-31.53c-17.42,0-31.53,14.11-31.53,31.53c0,17.4,14.11,31.521,31.53,31.521
				C81.86,94.98,95.98,80.86,95.98,63.46z"/>
			<polygon points="33,98.84 19.08,112.77 31.03,124.73 3.18,124.73 3.18,96.88 15.14,108.83 29.06,94.91 			"/>
		</g>
		<g>
		</g>
	</g>
</g>
</svg>
