<?xml version="1.0" encoding="utf-8"?>
<!-- Generator: Adobe Illustrator 15.1.0, SVG Export Plug-In . SVG Version: 6.00 Build 0)  -->
<!DOCTYPE svg PUBLIC "-//W3C//DTD SVG 1.1//EN" "http://www.w3.org/Graphics/SVG/1.1/DTD/svg11.dtd">
<svg version="1.1" id="Layer_1" xmlns="http://www.w3.org/2000/svg" xmlns:xlink="http://www.w3.org/1999/xlink" x="0px" y="0px"
	 width="128px" height="128px" viewBox="0 0 128 128" enable-background="new 0 0 128 128" xml:space="preserve">
<g id="LINE_15_">
	<g id="XMLID_1_">
		<g>
			<polygon points="67.18,26.62 47.07,50.75 67.18,74.89 57.13,83.27 30.03,50.75 57.13,18.24 			"/>
			<path d="M124.01,112.67l-3.91,3.91l-3.239,3.24l-3.91,3.91L85.31,96.08V90.56L83.12,88.36c-17.87,15.159-44.08,15.159-61.95,0
				C1.01,71.25-1.46,41.05,15.64,20.89C32.75,0.73,62.96-1.74,83.12,15.36c20.149,17.11,22.63,47.31,5.52,67.47l2.2,2.2h5.53
				L124.01,112.67z M84.43,79.25c15.13-17.83,12.94-44.54-4.89-59.67S34.99,6.64,19.86,24.47C4.73,42.3,6.92,69.02,24.75,84.14
				c15.8,13.41,38.99,13.41,54.79,0L84.43,79.25z"/>
		</g>
		<g>
		</g>
	</g>
</g>
</svg>
