<?xml version="1.0" encoding="utf-8"?>
<!-- Generator: Adobe Illustrator 15.1.0, SVG Export Plug-In . SVG Version: 6.00 Build 0)  -->
<!DOCTYPE svg PUBLIC "-//W3C//DTD SVG 1.1//EN" "http://www.w3.org/Graphics/SVG/1.1/DTD/svg11.dtd">
<svg version="1.1" id="Layer_1" xmlns="http://www.w3.org/2000/svg" xmlns:xlink="http://www.w3.org/1999/xlink" x="0px" y="0px"
	 width="128px" height="128px" viewBox="0 0 128 128" enable-background="new 0 0 128 128" xml:space="preserve">
<g id="LINE_20_">
	<g id="XMLID_1_">
		<g>
			<path fill="#FFFFFF" d="M64.38,22.64c23.21,0,42.021,18.81,42.021,42.01c0,23.21-18.811,42.02-42.021,42.02
				S22.36,87.86,22.36,64.65C22.36,41.45,41.17,22.64,64.38,22.64z M84.49,70.14V59.17H44.27v10.97H84.49z"/>
			<polygon points="124.73,4.31 124.73,103.06 119.24,103.06 119.24,9.79 9.52,9.79 9.52,119.51 102.78,119.51 102.78,125 4.03,125 
				4.03,4.31 			"/>
			<path d="M124.73,114.03L113.75,125L97.3,108.54v-5.48l-2.18-2.18c-2.95,2.49-6.18,4.62-9.63,6.33
				c-23.51,11.66-52.01,2.05-63.67-21.45c-11.65-23.5-2.05-52.01,21.45-63.66c17-8.43,37.38-5.94,51.85,6.33
				c20,16.98,22.46,46.95,5.479,66.959l2.181,2.181h5.489L124.73,114.03z M106.4,64.65c0-23.2-18.811-42.01-42.021-42.01
				S22.36,41.45,22.36,64.65c0,23.21,18.81,42.02,42.02,42.02S106.4,87.86,106.4,64.65z"/>
			<rect x="44.27" y="59.17" width="40.22" height="10.97"/>
		</g>
		<g>
			
				<path fill="none" stroke="#808080" stroke-width="0.3685" stroke-linecap="round" stroke-linejoin="round" stroke-miterlimit="10" d="
				M95.12,100.88c-2.95,2.49-6.18,4.62-9.63,6.33c-23.51,11.66-52.01,2.05-63.67-21.45c-11.65-23.5-2.05-52.01,21.45-63.66"/>
			
				<path fill="none" stroke="#808080" stroke-width="0.3685" stroke-linecap="round" stroke-linejoin="round" stroke-miterlimit="10" d="
				M22.36,64.65c0-23.2,18.81-42.01,42.02-42.01S106.4,41.45,106.4,64.65c0,23.21-18.811,42.02-42.021,42.02
				S22.36,87.86,22.36,64.65z"/>
			
				<path fill="none" stroke="#808080" stroke-width="0.3685" stroke-linecap="round" stroke-linejoin="round" stroke-miterlimit="10" d="
				M43.27,22.1c17-8.43,37.38-5.94,51.85,6.33c20,16.98,22.46,46.95,5.479,66.959"/>
			
				<line fill="none" stroke="#808080" stroke-width="0.3685" stroke-linecap="round" stroke-linejoin="round" stroke-miterlimit="10" x1="113.75" y1="125" x2="124.73" y2="114.03"/>
			
				<line fill="none" stroke="#808080" stroke-width="0.3685" stroke-linecap="round" stroke-linejoin="round" stroke-miterlimit="10" x1="119.24" y1="103.06" x2="124.73" y2="103.06"/>
			
				<line fill="none" stroke="#808080" stroke-width="0.3685" stroke-linecap="round" stroke-linejoin="round" stroke-miterlimit="10" x1="102.78" y1="119.51" x2="102.78" y2="125"/>
			
				<line fill="none" stroke="#808080" stroke-width="0.3685" stroke-linecap="round" stroke-linejoin="round" stroke-miterlimit="10" x1="97.3" y1="103.06" x2="95.12" y2="100.88"/>
			
				<line fill="none" stroke="#808080" stroke-width="0.3685" stroke-linecap="round" stroke-linejoin="round" stroke-miterlimit="10" x1="97.3" y1="108.54" x2="97.3" y2="103.06"/>
			
				<line fill="none" stroke="#808080" stroke-width="0.3685" stroke-linecap="round" stroke-linejoin="round" stroke-miterlimit="10" x1="97.3" y1="108.54" x2="113.75" y2="125"/>
			
				<line fill="none" stroke="#808080" stroke-width="0.3685" stroke-linecap="round" stroke-linejoin="round" stroke-miterlimit="10" x1="108.27" y1="97.57" x2="124.73" y2="114.03"/>
			
				<line fill="none" stroke="#808080" stroke-width="0.3685" stroke-linecap="round" stroke-linejoin="round" stroke-miterlimit="10" x1="108.27" y1="97.57" x2="102.78" y2="97.57"/>
			
				<line fill="none" stroke="#808080" stroke-width="0.3685" stroke-linecap="round" stroke-linejoin="round" stroke-miterlimit="10" x1="102.78" y1="97.57" x2="100.6" y2="95.39"/>
			
				<line fill="none" stroke="#808080" stroke-width="0.3685" stroke-linecap="round" stroke-linejoin="round" stroke-miterlimit="10" x1="84.49" y1="70.14" x2="84.49" y2="59.17"/>
			
				<line fill="none" stroke="#808080" stroke-width="0.3685" stroke-linecap="round" stroke-linejoin="round" stroke-miterlimit="10" x1="44.27" y1="70.14" x2="84.49" y2="70.14"/>
			
				<line fill="none" stroke="#808080" stroke-width="0.3685" stroke-linecap="round" stroke-linejoin="round" stroke-miterlimit="10" x1="44.27" y1="59.17" x2="44.27" y2="70.14"/>
			
				<line fill="none" stroke="#808080" stroke-width="0.3685" stroke-linecap="round" stroke-linejoin="round" stroke-miterlimit="10" x1="84.49" y1="59.17" x2="44.27" y2="59.17"/>
			
				<line fill="none" stroke="#808080" stroke-width="0.3685" stroke-linecap="round" stroke-linejoin="round" stroke-miterlimit="10" x1="4.03" y1="125" x2="102.78" y2="125"/>
			
				<line fill="none" stroke="#808080" stroke-width="0.3685" stroke-linecap="round" stroke-linejoin="round" stroke-miterlimit="10" x1="124.73" y1="103.06" x2="124.73" y2="4.31"/>
			
				<line fill="none" stroke="#808080" stroke-width="0.3685" stroke-linecap="round" stroke-linejoin="round" stroke-miterlimit="10" x1="4.03" y1="4.31" x2="124.73" y2="4.31"/>
			
				<line fill="none" stroke="#808080" stroke-width="0.3685" stroke-linecap="round" stroke-linejoin="round" stroke-miterlimit="10" x1="4.03" y1="125" x2="4.03" y2="4.31"/>
			
				<line fill="none" stroke="#808080" stroke-width="0.3685" stroke-linecap="round" stroke-linejoin="round" stroke-miterlimit="10" x1="9.52" y1="119.51" x2="102.78" y2="119.51"/>
			
				<line fill="none" stroke="#808080" stroke-width="0.3685" stroke-linecap="round" stroke-linejoin="round" stroke-miterlimit="10" x1="119.24" y1="103.06" x2="119.24" y2="9.79"/>
			
				<line fill="none" stroke="#808080" stroke-width="0.3685" stroke-linecap="round" stroke-linejoin="round" stroke-miterlimit="10" x1="9.52" y1="9.79" x2="119.24" y2="9.79"/>
			
				<line fill="none" stroke="#808080" stroke-width="0.3685" stroke-linecap="round" stroke-linejoin="round" stroke-miterlimit="10" x1="9.52" y1="119.51" x2="9.52" y2="9.79"/>
		</g>
	</g>
</g>
</svg>
