<?xml version="1.0" encoding="utf-8"?>
<!-- Generator: Adobe Illustrator 15.1.0, SVG Export Plug-In . SVG Version: 6.00 Build 0)  -->
<!DOCTYPE svg PUBLIC "-//W3C//DTD SVG 1.1//EN" "http://www.w3.org/Graphics/SVG/1.1/DTD/svg11.dtd">
<svg version="1.1" id="Layer_1" xmlns="http://www.w3.org/2000/svg" xmlns:xlink="http://www.w3.org/1999/xlink" x="0px" y="0px"
	 width="128px" height="128px" viewBox="0 0 128 128" enable-background="new 0 0 128 128" xml:space="preserve">
<g id="ARC_5_">
	<g id="XMLID_1_">
		<g>
			<path d="M57.27,17.44l-3.19,6.39C41.82,20,28.49,21.78,17.66,28.69C27.05,16.77,43.03,12.23,57.27,17.44z"/>
			<path d="M62.33,19.76c9.7,5.41,16.27,15.11,17.7,26.13c-4.48-8.94-11.9-16.07-21.021-20.18L62.33,19.76z"/>
			<path d="M91.41,80.02l34.13,34.141l-4.021,4.02l-3.329,3.33l-4.021,4.03L80.03,91.4v-5.69l-6.3-6.3
				c-2.601,2.16-5.44,4.01-8.471,5.51c-21.56,10.7-47.71,1.89-58.4-19.67C-3.83,43.69,4.98,17.54,26.54,6.85
				c15.43-7.66,33.93-5.5,47.19,5.51c18.52,15.38,21.06,42.85,5.689,61.36l6.3,6.3H91.41z M83.78,45.89C83.78,24.96,66.82,8,45.9,8
				C24.97,8,8.01,24.96,8.01,45.89C8.01,66.81,24.97,83.77,45.9,83.77C66.82,83.77,83.78,66.81,83.78,45.89z"/>
		</g>
		<g>
		</g>
	</g>
</g>
</svg>
