<?xml version="1.0" encoding="utf-8"?>
<!-- Generator: Adobe Illustrator 15.1.0, SVG Export Plug-In . SVG Version: 6.00 Build 0)  -->
<!DOCTYPE svg PUBLIC "-//W3C//DTD SVG 1.1//EN" "http://www.w3.org/Graphics/SVG/1.1/DTD/svg11.dtd">
<svg version="1.1" id="Layer_1" xmlns="http://www.w3.org/2000/svg" xmlns:xlink="http://www.w3.org/1999/xlink" x="0px" y="0px"
	 width="128px" height="128px" viewBox="0 0 128 128" enable-background="new 0 0 128 128" xml:space="preserve">
<g id="ARC_7_">
	<g id="XMLID_1_">
		<g>
			<path d="M82.82,50.35L79,58c-8.08-2.3-16.72-1.61-24.33,1.94C61.19,51.26,72.36,47.45,82.82,50.35z"/>
			<path d="M88.12,52.46c9.62,5.1,15.12,15.59,13.85,26.4C98.67,70.44,92.23,63.62,84,59.84L88.12,52.46z"/>
			<path d="M126.73,115.4l-11.33,11.33l-11.32-11.33v-5.66l-4.63-4.63c-2.07,1.67-4.32,3.12-6.69,4.319
				c-18.59,9.38-41.27,1.91-50.65-16.67H30.48v-5.67h9.33C34.23,69.38,42.38,50.25,59.02,42c16.27-8.07,35.98-3.4,46.89,11.13h3.83
				v6.29c6.319,13.12,4.51,28.7-4.63,40.03l4.63,4.63h5.66L126.73,115.4z M107.81,75.77c0-17.689-14.34-32.04-32.04-32.04
				c-17.689,0-32.04,14.35-32.04,32.04c0,17.7,14.35,32.04,32.04,32.04C93.47,107.81,107.81,93.47,107.81,75.77z"/>
			<rect x="104.08" y="36.14" width="5.66" height="11.32"/>
			<rect x="104.08" y="19.16" width="5.66" height="11.32"/>
			<rect x="104.08" y="2.17" width="5.66" height="11.32"/>
			<rect x="87.09" y="2.17" width="11.33" height="5.66"/>
			<rect x="70.11" y="2.17" width="11.319" height="5.66"/>
			<rect x="53.13" y="2.17" width="11.32" height="5.66"/>
			<rect x="36.14" y="2.17" width="11.32" height="5.66"/>
			<rect x="19.16" y="2.17" width="11.32" height="5.66"/>
			<rect x="2.17" y="2.17" width="11.32" height="5.66"/>
			<rect x="2.17" y="13.49" width="5.66" height="11.33"/>
			<rect x="2.17" y="30.48" width="5.66" height="11.32"/>
			<rect x="2.17" y="47.46" width="5.66" height="11.33"/>
			<rect x="2.17" y="64.45" width="5.66" height="11.319"/>
			<rect x="2.17" y="81.43" width="5.66" height="11.33"/>
			<rect x="13.49" y="87.09" width="11.33" height="5.67"/>
		</g>
		<g>
		</g>
	</g>
</g>
</svg>
