<?xml version="1.0" encoding="utf-8"?>
<!-- Generator: Adobe Illustrator 15.1.0, SVG Export Plug-In . SVG Version: 6.00 Build 0)  -->
<!DOCTYPE svg PUBLIC "-//W3C//DTD SVG 1.1//EN" "http://www.w3.org/Graphics/SVG/1.1/DTD/svg11.dtd">
<svg version="1.1" id="Layer_1" xmlns="http://www.w3.org/2000/svg" xmlns:xlink="http://www.w3.org/1999/xlink" x="0px" y="0px"
	 width="128px" height="128px" viewBox="0 0 128 128" enable-background="new 0 0 128 128" xml:space="preserve">
<g id="LINE_21_">
	<g id="XMLID_1_">
		<g>
			<polygon points="82.67,43.06 82.67,60.04 60.04,60.04 60.04,82.67 43.06,82.67 43.06,60.04 20.43,60.04 20.43,43.06 43.06,43.06 
				43.06,20.43 60.04,20.43 60.04,43.06 			"/>
			<path d="M96.82,85.5l28.29,28.3l-4,4l-3.311,3.311l-4,4L85.5,96.82v-5.66l-2.25-2.25c-18.28,15.52-45.12,15.52-63.4,0
				C-0.79,71.4-3.32,40.48,14.19,19.85C31.7-0.79,62.62-3.32,83.25,14.19c20.64,17.51,23.17,48.43,5.66,69.06l2.25,2.25H96.82z
				 M82.2,82.2c16.92-16.931,16.92-44.37,0-61.3C65.27,3.98,37.83,3.98,20.9,20.9c-16.92,16.93-16.92,44.37,0,61.3
				c15.83,15.83,41.11,17,58.34,2.689L82.2,82.2z"/>
		</g>
		<g>
		</g>
	</g>
</g>
</svg>
