<?xml version="1.0" encoding="utf-8"?>
<!-- Generator: Adobe Illustrator 15.1.0, SVG Export Plug-In . SVG Version: 6.00 Build 0)  -->
<!DOCTYPE svg PUBLIC "-//W3C//DTD SVG 1.1//EN" "http://www.w3.org/Graphics/SVG/1.1/DTD/svg11.dtd">
<svg version="1.1" id="Layer_1" xmlns="http://www.w3.org/2000/svg" xmlns:xlink="http://www.w3.org/1999/xlink" x="0px" y="0px"
	 width="128px" height="128px" viewBox="0 0 128 128" enable-background="new 0 0 128 128" xml:space="preserve">
<g id="LINE_29_">
	<g id="XMLID_1_">
		<g>
			<path fill="#FFFFFF" d="M93.35,34.42c16.271,16.27,16.271,42.65,0,58.93L90.5,95.94c-16.56,13.75-40.86,12.619-56.08-2.591
				c-16.27-16.279-16.27-42.66,0-58.93S77.07,18.15,93.35,34.42z M83.83,69.32V58.44H69.32v-14.5H58.44v14.5h-14.5v10.88h14.5v14.51
				h10.88V69.32H83.83z"/>
			<polygon points="83.83,58.44 83.83,69.32 69.32,69.32 69.32,83.83 58.44,83.83 58.44,69.32 43.94,69.32 43.94,58.44 58.44,58.44 
				58.44,43.94 69.32,43.94 69.32,58.44 			"/>
			<path d="M123.73,112.84L112.84,123.73L96.52,107.4v-5.44L94.36,99.8c-17.58,14.92-43.38,14.92-60.96,0
				c-19.84-16.83-22.27-46.56-5.44-66.4c16.84-19.84,46.56-22.27,66.4-5.44C114.2,44.8,116.64,74.52,99.8,94.36l2.16,2.159h5.44
				L123.73,112.84z M93.35,93.35c16.271-16.279,16.271-42.66,0-58.93c-16.279-16.27-42.66-16.27-58.93,0s-16.27,42.65,0,58.93
				C49.64,108.56,73.94,109.69,90.5,95.94L93.35,93.35z"/>
			<polygon points="123.73,4.04 123.73,101.96 118.29,101.96 118.29,9.48 9.48,9.48 9.48,118.29 101.96,118.29 101.96,123.73 
				4.04,123.73 4.04,4.04 			"/>
		</g>
		<g>
			
				<line fill="none" stroke="#808080" stroke-width="0.3685" stroke-linecap="round" stroke-linejoin="round" stroke-miterlimit="10" x1="69.32" y1="43.94" x2="58.44" y2="43.94"/>
			
				<line fill="none" stroke="#808080" stroke-width="0.3685" stroke-linecap="round" stroke-linejoin="round" stroke-miterlimit="10" x1="69.32" y1="58.44" x2="69.32" y2="43.94"/>
			
				<line fill="none" stroke="#808080" stroke-width="0.3685" stroke-linecap="round" stroke-linejoin="round" stroke-miterlimit="10" x1="83.83" y1="58.44" x2="69.32" y2="58.44"/>
			
				<line fill="none" stroke="#808080" stroke-width="0.3685" stroke-linecap="round" stroke-linejoin="round" stroke-miterlimit="10" x1="83.83" y1="69.32" x2="83.83" y2="58.44"/>
			
				<line fill="none" stroke="#808080" stroke-width="0.3685" stroke-linecap="round" stroke-linejoin="round" stroke-miterlimit="10" x1="69.32" y1="69.32" x2="83.83" y2="69.32"/>
			
				<line fill="none" stroke="#808080" stroke-width="0.3685" stroke-linecap="round" stroke-linejoin="round" stroke-miterlimit="10" x1="69.32" y1="83.83" x2="69.32" y2="69.32"/>
			
				<line fill="none" stroke="#808080" stroke-width="0.3685" stroke-linecap="round" stroke-linejoin="round" stroke-miterlimit="10" x1="58.44" y1="83.83" x2="69.32" y2="83.83"/>
			
				<line fill="none" stroke="#808080" stroke-width="0.3685" stroke-linecap="round" stroke-linejoin="round" stroke-miterlimit="10" x1="58.44" y1="69.32" x2="58.44" y2="83.83"/>
			
				<line fill="none" stroke="#808080" stroke-width="0.3685" stroke-linecap="round" stroke-linejoin="round" stroke-miterlimit="10" x1="43.94" y1="69.32" x2="58.44" y2="69.32"/>
			
				<line fill="none" stroke="#808080" stroke-width="0.3685" stroke-linecap="round" stroke-linejoin="round" stroke-miterlimit="10" x1="43.94" y1="58.44" x2="43.94" y2="69.32"/>
			
				<line fill="none" stroke="#808080" stroke-width="0.3685" stroke-linecap="round" stroke-linejoin="round" stroke-miterlimit="10" x1="58.44" y1="58.44" x2="43.94" y2="58.44"/>
			
				<line fill="none" stroke="#808080" stroke-width="0.3685" stroke-linecap="round" stroke-linejoin="round" stroke-miterlimit="10" x1="58.44" y1="43.94" x2="58.44" y2="58.44"/>
			
				<line fill="none" stroke="#808080" stroke-width="0.3685" stroke-linecap="round" stroke-linejoin="round" stroke-miterlimit="10" x1="112.84" y1="123.73" x2="123.73" y2="112.84"/>
			
				<line fill="none" stroke="#808080" stroke-width="0.3685" stroke-linecap="round" stroke-linejoin="round" stroke-miterlimit="10" x1="101.96" y1="118.29" x2="101.96" y2="123.73"/>
			
				<line fill="none" stroke="#808080" stroke-width="0.3685" stroke-linecap="round" stroke-linejoin="round" stroke-miterlimit="10" x1="118.29" y1="101.96" x2="123.73" y2="101.96"/>
			
				<path fill="none" stroke="#808080" stroke-width="0.3685" stroke-linecap="round" stroke-linejoin="round" stroke-miterlimit="10" d="
				M94.36,99.8c-17.58,14.92-43.38,14.92-60.96,0c-19.84-16.83-22.27-46.56-5.44-66.4c16.84-19.84,46.56-22.27,66.4-5.44
				C114.2,44.8,116.64,74.52,99.8,94.36"/>
			
				<path fill="none" stroke="#808080" stroke-width="0.3685" stroke-linecap="round" stroke-linejoin="round" stroke-miterlimit="10" d="
				M90.5,95.94c-16.56,13.75-40.86,12.619-56.08-2.591c-16.27-16.279-16.27-42.66,0-58.93s42.65-16.27,58.93,0
				c16.271,16.27,16.271,42.65,0,58.93"/>
			
				<line fill="none" stroke="#808080" stroke-width="0.3685" stroke-linecap="round" stroke-linejoin="round" stroke-miterlimit="10" x1="90.5" y1="95.94" x2="93.35" y2="93.35"/>
			
				<line fill="none" stroke="#808080" stroke-width="0.3685" stroke-linecap="round" stroke-linejoin="round" stroke-miterlimit="10" x1="96.52" y1="101.96" x2="94.36" y2="99.8"/>
			
				<line fill="none" stroke="#808080" stroke-width="0.3685" stroke-linecap="round" stroke-linejoin="round" stroke-miterlimit="10" x1="96.52" y1="107.4" x2="96.52" y2="101.96"/>
			
				<line fill="none" stroke="#808080" stroke-width="0.3685" stroke-linecap="round" stroke-linejoin="round" stroke-miterlimit="10" x1="96.52" y1="107.4" x2="112.84" y2="123.73"/>
			
				<line fill="none" stroke="#808080" stroke-width="0.3685" stroke-linecap="round" stroke-linejoin="round" stroke-miterlimit="10" x1="107.4" y1="96.52" x2="123.73" y2="112.84"/>
			
				<line fill="none" stroke="#808080" stroke-width="0.3685" stroke-linecap="round" stroke-linejoin="round" stroke-miterlimit="10" x1="107.4" y1="96.52" x2="101.96" y2="96.52"/>
			
				<line fill="none" stroke="#808080" stroke-width="0.3685" stroke-linecap="round" stroke-linejoin="round" stroke-miterlimit="10" x1="101.96" y1="96.52" x2="99.8" y2="94.36"/>
			
				<line fill="none" stroke="#808080" stroke-width="0.3685" stroke-linecap="round" stroke-linejoin="round" stroke-miterlimit="10" x1="9.48" y1="118.29" x2="9.48" y2="9.48"/>
			
				<line fill="none" stroke="#808080" stroke-width="0.3685" stroke-linecap="round" stroke-linejoin="round" stroke-miterlimit="10" x1="9.48" y1="9.48" x2="118.29" y2="9.48"/>
			
				<line fill="none" stroke="#808080" stroke-width="0.3685" stroke-linecap="round" stroke-linejoin="round" stroke-miterlimit="10" x1="118.29" y1="101.96" x2="118.29" y2="9.48"/>
			
				<line fill="none" stroke="#808080" stroke-width="0.3685" stroke-linecap="round" stroke-linejoin="round" stroke-miterlimit="10" x1="9.48" y1="118.29" x2="101.96" y2="118.29"/>
			
				<line fill="none" stroke="#808080" stroke-width="0.3685" stroke-linecap="round" stroke-linejoin="round" stroke-miterlimit="10" x1="4.04" y1="123.73" x2="4.04" y2="4.04"/>
			
				<line fill="none" stroke="#808080" stroke-width="0.3685" stroke-linecap="round" stroke-linejoin="round" stroke-miterlimit="10" x1="4.04" y1="4.04" x2="123.73" y2="4.04"/>
			
				<line fill="none" stroke="#808080" stroke-width="0.3685" stroke-linecap="round" stroke-linejoin="round" stroke-miterlimit="10" x1="123.73" y1="101.96" x2="123.73" y2="4.04"/>
			
				<line fill="none" stroke="#808080" stroke-width="0.3685" stroke-linecap="round" stroke-linejoin="round" stroke-miterlimit="10" x1="4.04" y1="123.73" x2="101.96" y2="123.73"/>
		</g>
	</g>
</g>
</svg>
