<?xml version="1.0" encoding="utf-8"?>
<!-- Generator: Adobe Illustrator 15.1.0, SVG Export Plug-In . SVG Version: 6.00 Build 0)  -->
<!DOCTYPE svg PUBLIC "-//W3C//DTD SVG 1.1//EN" "http://www.w3.org/Graphics/SVG/1.1/DTD/svg11.dtd">
<svg version="1.1" id="Layer_1" xmlns="http://www.w3.org/2000/svg" xmlns:xlink="http://www.w3.org/1999/xlink" x="0px" y="0px"
	 width="128px" height="128px" viewBox="0 0 128 128" enable-background="new 0 0 128 128" xml:space="preserve">
<g id="LINE_16_">
	<g id="XMLID_1_">
		<g>
			<path d="M125.07,68.58c-2.79,4.81-5.13,7.95-7,9.43c-1.87,1.471-4.42,2.21-7.65,2.21c-7.04,0-16.2-5.64-27.479-16.92L79,59.42
				l-2.1,2.4c-10.46,12.26-18.581,18.4-24.38,18.4c-4.36,0-8.81-3.58-13.34-10.739c1.57,0,2.77,0,3.61,0
				c7.33,0,15.65-5.34,24.97-16.021l3.271-3.66l-2.351-2.94c-11.31-13.59-16.97-23.12-16.97-28.6c0-3.93,3.08-8.93,9.25-14.99
				c2.58,11.84,7.94,23.02,16.11,33.55l1.84,2.41l3.53-4.5c11.5-15.01,20.649-22.51,27.449-22.51c3.36,0,6.12,1.74,8.301,5.2
				c0.39,0.6,0.949,1.43,1.68,2.49c-8.66,4.12-18.36,12.44-29.07,24.97l-3.439,4.05l2.51,2.91
				c10.18,11.76,19.56,17.641,28.16,17.641C120.54,69.48,122.89,69.18,125.07,68.58z"/>
			<path d="M51.98,109.79v12.39H2.43V110.23L31.4,81.92H5.53V69.54h28.2c1.08,3.74,1.56,4.47,2.06,5.19
				c0.5,0.72,1.02,1.42,1.55,2.109c0.54,0.69,1.1,1.36,1.68,2.01c0.59,0.65,1.2,1.271,1.83,1.87c0.64,0.601,1.31,1.17,2,1.7
				c0.7,0.521,1.43,1.01,2.18,1.44c0.68,0.39,1.37,0.729,2.09,1.02l-25.48,24.91H51.98z"/>
		</g>
		<g>
		</g>
	</g>
</g>
</svg>
