<?xml version="1.0" encoding="utf-8"?>
<!-- Generator: Adobe Illustrator 15.1.0, SVG Export Plug-In . SVG Version: 6.00 Build 0)  -->
<!DOCTYPE svg PUBLIC "-//W3C//DTD SVG 1.1//EN" "http://www.w3.org/Graphics/SVG/1.1/DTD/svg11.dtd">
<svg version="1.1" id="Layer_1" xmlns="http://www.w3.org/2000/svg" xmlns:xlink="http://www.w3.org/1999/xlink" x="0px" y="0px"
	 width="128px" height="128px" viewBox="0 0 128 128" enable-background="new 0 0 128 128" xml:space="preserve">
<g id="LINE_35_">
	<g id="XMLID_1_">
		<g>
			<polygon points="97.4,117.65 97.4,123.19 3.27,123.19 3.27,95.5 8.81,95.5 8.81,117.65 19.89,117.65 19.89,106.58 25.42,106.58 
				25.42,117.65 36.5,117.65 36.5,106.58 42.03,106.58 42.03,117.65 53.11,117.65 53.11,95.5 58.64,95.5 58.64,117.65 69.72,117.65 
				69.72,106.58 75.26,106.58 75.26,117.65 86.33,117.65 86.33,106.58 91.87,106.58 91.87,117.65 			"/>
			<path d="M67.92,32.94h-6.65c-0.37-3.02-1.62-5.29-3.76-6.83c-2.14-1.54-5.3-2.31-9.49-2.31c-4.35,0-7.52,0.76-9.51,2.28
				c-1.99,1.53-2.98,3.36-2.98,5.52c0,1.87,0.7,3.4,2.11,4.61c1.39,1.21,5,2.44,10.85,3.71c5.85,1.26,9.77,2.37,11.76,3.33
				c2.91,1.42,5.05,3.22,6.43,5.39s2.07,4.67,2.07,7.51c0,2.81-0.79,5.46-2.38,7.95c-1.59,2.49-3.87,4.419-6.85,5.8
				c-2.98,1.38-6.33,2.069-10.05,2.069c-4.73,0-8.68-0.739-11.87-2.229s-5.69-3.73-7.51-6.72c-1.82-3-2.77-6.38-2.87-10.15h6.65
				c0.3,2.7,1.01,4.92,2.14,6.65c1.12,1.73,2.87,3.14,5.23,4.21c2.36,1.06,5.02,1.6,7.97,1.6c2.62,0,4.93-0.41,6.94-1.22
				c2.01-0.81,3.5-1.92,4.48-3.33c0.98-1.42,1.48-2.9,1.48-4.46c0-1.58-0.37-2.96-1.11-4.15c-0.73-1.18-2.24-2.18-4.51-3.01
				c-1.46-0.55-4.68-1.39-9.68-2.54c-4.99-1.15-8.47-2.24-10.41-3.28c-2.53-1.33-4.41-2.98-5.65-4.94
				c-1.25-1.96-1.87-4.17-1.87-6.61c0-2.68,0.77-5.19,2.31-7.52c1.53-2.33,3.78-4.1,6.73-5.3c2.95-1.21,6.23-1.82,9.85-1.82
				c3.97,0,7.47,0.64,10.51,1.9c3.03,1.26,5.37,3.12,7.01,5.57C66.92,27.07,67.8,29.84,67.92,32.94z"/>
			<path d="M91.87,78.89l33.22,33.23l-11.08,11.07L80.79,89.97v-5.54l-6.13-6.13c-2.53,2.101-5.3,3.9-8.25,5.37
				C45.43,94.07,19.98,85.5,9.58,64.51C-0.83,43.53,7.75,18.08,28.73,7.68c15.02-7.45,33.03-5.35,45.93,5.36
				C92.68,28,95.16,54.74,80.2,72.76l6.13,6.13H91.87z M84.44,45.67C84.44,25.31,67.93,8.8,47.57,8.8S10.7,25.31,10.7,45.67
				c0,20.37,16.51,36.87,36.87,36.87S84.44,66.04,84.44,45.67z"/>
		</g>
		<g>
		</g>
	</g>
</g>
</svg>
