<?xml version="1.0" encoding="utf-8"?>
<!-- Generator: Adobe Illustrator 16.0.0, SVG Export Plug-In . SVG Version: 6.00 Build 0)  -->
<!DOCTYPE svg PUBLIC "-//W3C//DTD SVG 1.1//EN" "http://www.w3.org/Graphics/SVG/1.1/DTD/svg11.dtd">
<svg version="1.1" id="Layer_1" xmlns="http://www.w3.org/2000/svg" xmlns:xlink="http://www.w3.org/1999/xlink" x="0px" y="0px"
	 width="64px" height="64px" viewBox="0 0 64 64" enable-background="new 0 0 64 64" xml:space="preserve">
<g id="LINE_34_">
	<g id="XMLID_1_">
		<g>
			<polygon points="54.230469,48.669922 45.929688,54.889648 45.929688,49.910156 43.44043,49.910156 43.44043,47.419922 
				45.929688,47.419922 45.929688,42.44043 			"/>
			<rect x="38.469727" y="47.419922" width="2.490234" height="2.490234"/>
			<rect x="33.490234" y="47.419922" width="2.490234" height="2.490234"/>
			<rect x="28.509766" y="47.419922" width="2.490234" height="2.490234"/>
			<rect x="23.529785" y="47.419922" width="2.490234" height="2.490234"/>
			<rect x="8.600098" y="47.419922" width="2.489746" height="2.490234"/>
			<rect x="13.580078" y="47.419922" width="2.489746" height="2.490234"/>
			<rect x="18.560059" y="47.419922" width="2.489746" height="2.490234"/>
			<path d="M59.509766,19.580078c-1.379883,3.529785-4.169922,6.319824-7.700195,7.699707
				c-7,2.75-14.899414-0.699707-17.649414-7.699707c1.379883-3.52002,4.169922-6.310059,7.700195-7.700195
				C48.860352,9.129883,56.759766,12.580078,59.509766,19.580078z M56.790039,19.580078
				c-0.549805-0.52002-1.139648-1-1.759766-1.430176c0.160156,0.459961,0.239258,0.950195,0.239258,1.430176
				c0,1.600098-0.859375,3.080078-2.259766,3.870117c-2.129883,1.219727-4.849609,0.469727-6.069336-1.67041
				c-1.209961-2.139648-0.459961-4.859863,1.679688-6.069824c-4.299805-0.540039-8.610352,0.890137-11.740234,3.870117
				c2.75,5.5,9.429688,7.72998,14.929688,4.97998C53.959961,23.47998,55.709961,21.72998,56.790039,19.580078z"/>
			<path d="M29.649902,19.580078c-1.390137,3.529785-4.179688,6.319824-7.699707,7.699707
				c-7,2.75-14.910156-0.699707-17.660156-7.699707c1.390137-3.52002,4.180176-6.310059,7.700195-7.700195
				C18.990234,9.129883,26.899902,12.580078,29.649902,19.580078z M26.919922,19.580078c-0.540039-0.52002-1.129883-1-1.75-1.430176
				c0.149902,0.459961,0.22998,0.950195,0.22998,1.430176c0,1.600098-0.859863,3.080078-2.25,3.870117
				c-2.140137,1.219727-4.859863,0.469727-6.069824-1.67041c-1.209961-2.139648-0.459961-4.859863,1.669922-6.069824
				c-4.290039-0.540039-8.600098,0.890137-11.740234,3.870117c2.75,5.5,9.44043,7.72998,14.94043,4.97998
				C24.100098,23.47998,25.850098,21.72998,26.919922,19.580078z"/>
		</g>
		<g>
		</g>
	</g>
</g>
</svg>
