<?xml version="1.0" encoding="utf-8"?>
<!-- Generator: Adobe Illustrator 16.0.0, SVG Export Plug-In . SVG Version: 6.00 Build 0)  -->
<!DOCTYPE svg PUBLIC "-//W3C//DTD SVG 1.1//EN" "http://www.w3.org/Graphics/SVG/1.1/DTD/svg11.dtd">
<svg version="1.1" id="Layer_1" xmlns="http://www.w3.org/2000/svg" xmlns:xlink="http://www.w3.org/1999/xlink" x="0px" y="0px"
	 width="64px" height="64px" viewBox="0 0 64 64" enable-background="new 0 0 64 64" xml:space="preserve">
<g id="LINE_91_">
	<g id="XMLID_1_">
		<g>
			<polygon points="44.44043,49.419922 46.929688,49.419922 46.929688,44.44043 55.230469,50.669922 46.929688,56.889648 
				46.929688,51.910156 44.44043,51.910156 			"/>
			<rect x="39.469727" y="49.419922" width="2.490234" height="2.490234"/>
			<rect x="34.490234" y="49.419922" width="2.490234" height="2.490234"/>
			<rect x="29.509766" y="49.419922" width="2.490234" height="2.490234"/>
			<rect x="24.529785" y="49.419922" width="2.490234" height="2.490234"/>
			<rect x="19.560059" y="49.419922" width="2.489746" height="2.490234"/>
			<rect x="14.580078" y="49.419922" width="2.489746" height="2.490234"/>
			<rect x="9.600098" y="49.419922" width="2.489746" height="2.490234"/>
			<path d="M15.060059,17.339844h7.620117v-4.540039h-7.620117V17.339844z M17.560059,23.009766
				C18.5,23.009766,19.25,22.25,19.25,21.310059s-0.75-1.700195-1.689941-1.700195s-1.700195,0.760254-1.700195,1.700195
				S16.620117,23.009766,17.560059,23.009766z M35.849609,6.180176H23.350098l-2.459961,3.099609h14.959473V6.180176z
				 M11.529785,12.049805v-2.77002h5.460449l4.119629-5.199707h17.810059v5.199707h7.169922v4.060059h2.890625v-1.239746H50.5
				v-0.959961l0.950195-2.220215h5.439453v15.609863h-5.439453L50.5,22.310059v-0.959961h-1.519531v-1.240234h-2.890625v5.860352
				H39.94043v2.199707h-0.25h-3.110352c-0.219727,1.220215-0.820313,2.339844-1.719727,3.189941l2.949219,8.109863h-3.049805
				l-2.459961-6.659668c-0.209961,0.049805-0.409668,0.089844-0.619629,0.120117v6.539551h-1.550293v-6.499512
				c-0.290039-0.030273-0.580078-0.090332-0.859863-0.160156l-2.470215,6.659668H23.75l2.959961-8.109863
				c-0.899902-0.850098-1.5-1.969727-1.719727-3.189941h-4.070313v-2.199707h-9.390137v-7.570313H9.540039l-1.339844,1.060059
				l-1.630371,0.140137v-8.75L8.200195,11l1.339844,1.049805H11.529785z"/>
		</g>
		<g>
		</g>
	</g>
</g>
</svg>
