<?xml version="1.0" encoding="utf-8"?>
<!-- Generator: Adobe Illustrator 16.0.0, SVG Export Plug-In . SVG Version: 6.00 Build 0)  -->
<!DOCTYPE svg PUBLIC "-//W3C//DTD SVG 1.1//EN" "http://www.w3.org/Graphics/SVG/1.1/DTD/svg11.dtd">
<svg version="1.1" id="Layer_1" xmlns="http://www.w3.org/2000/svg" xmlns:xlink="http://www.w3.org/1999/xlink" x="0px" y="0px"
	 width="64px" height="64px" viewBox="0 0 64 64" enable-background="new 0 0 64 64" xml:space="preserve">
<g id="LINE_39_">
	<g id="XMLID_1_">
		<g>
			<polygon points="55.230469,50.669922 46.929688,56.889648 46.929688,51.910156 44.44043,51.910156 44.44043,49.419922 
				46.929688,49.419922 46.929688,44.44043 			"/>
			<rect x="39.469727" y="49.419922" width="2.490234" height="2.490234"/>
			<rect x="34.490234" y="49.419922" width="2.490234" height="2.490234"/>
			<rect x="29.509766" y="49.419922" width="2.490234" height="2.490234"/>
			<rect x="24.529785" y="49.419922" width="2.490234" height="2.490234"/>
			<rect x="19.560059" y="49.419922" width="2.489746" height="2.490234"/>
			<rect x="14.580078" y="49.419922" width="2.489746" height="2.490234"/>
			<rect x="9.600098" y="49.419922" width="2.489746" height="2.490234"/>
			<path d="M39.719727,24.5c4.430664,4.680176,6.669922,11.030273,6.160156,17.459961H18.120117
				C17.609863,35.530273,19.850098,29.180176,24.279785,24.5C28.810059,28.069824,35.19043,28.069824,39.719727,24.5z"/>
			<path d="M32,4.779785c5.5,0,9.959961,4.460449,9.959961,9.960449c0,5.489746-4.459961,9.949707-9.959961,9.949707
				s-9.959961-4.459961-9.959961-9.949707C22.040039,9.240234,26.5,4.779785,32,4.779785z"/>
		</g>
		<g>
		</g>
	</g>
</g>
</svg>
