<?xml version="1.0" encoding="utf-8"?>
<!-- Generator: Adobe Illustrator 15.1.0, SVG Export Plug-In . SVG Version: 6.00 Build 0)  -->
<!DOCTYPE svg PUBLIC "-//W3C//DTD SVG 1.1//EN" "http://www.w3.org/Graphics/SVG/1.1/DTD/svg11.dtd">
<svg version="1.1" id="Layer_1" xmlns="http://www.w3.org/2000/svg" xmlns:xlink="http://www.w3.org/1999/xlink" x="0px" y="0px"
	 width="128px" height="128px" viewBox="0 0 128 128" enable-background="new 0 0 128 128" xml:space="preserve">
<g id="ARC_1_">
	<g id="XMLID_1_">
		<g>
			<path d="M49.26,116.97v5.91h-17.7V99.27L19.75,81.56v35.41h5.9v5.91H7.95V75.66H2.04V34.34l17.71-5.91
				c-5.42-1.35-9.22-6.22-9.22-11.8c0-6.72,5.45-12.17,12.17-12.17c6.72,0,12.17,5.45,12.17,12.17c0,5.58-3.8,10.45-9.22,11.8v5.91
				l17.71,5.9v23.61l-11.8,5.9v5.91l11.8,17.7v23.609H49.26z M37.46,57.95V46.14h-5.9V60.9L37.46,57.95z M13.85,63.85V46.14h-5.9
				v17.71H13.85z"/>
			<polygon points="96.49,10.73 90.58,16.63 43.36,16.63 43.36,20.71 72.88,63.85 72.88,75.66 37.46,22.53 37.46,10.73 			"/>
			<path d="M126,34.34v47.22h-17.71V63.85h-11.8V81.56H78.78V34.34l23.609-23.61L126,34.34z M120.1,52.05V40.24h-11.81v11.81H120.1z
				 M96.49,52.05V40.24H84.68v11.81H96.49z"/>
		</g>
		<g>
		</g>
	</g>
</g>
</svg>
