<?xml version="1.0" encoding="utf-8"?>
<!-- Generator: Adobe Illustrator 19.0.0, SVG Export Plug-In . SVG Version: 6.00 Build 0)  -->
<svg version="1.1" xmlns="http://www.w3.org/2000/svg" xmlns:xlink="http://www.w3.org/1999/xlink" x="0px" y="0px"
	 viewBox="0 0 1024 1024" style="enable-background:new 0 0 1024 1024;" xml:space="preserve">
<g id="_x30_">
</g>
<g id="_x33_">
	<g id="LINE_23_">
		<g id="XMLID_1_">
			<g>
				<path d="M512,472.6v393.7H118.3V472.6H512z M472.6,826.9V512H157.7v314.9H472.6z"/>
				<path d="M826.9,157.7v551.1H551.4V433.3H275.8V157.7H826.9z M775.8,610.4v-31.5h-8.2c-13.6,0-23.6-1.8-29.8-5.4
					c-6.2-3.6-10.3-8.3-12.2-14c-1.9-5.7-2.9-18.9-2.9-39.6V236.4h-8.4l-127.4,59.1l4.4,31.5c11.9-5.5,22.1-8.2,30.4-8.2
					c5.2,0,9.8,1.4,13.8,4.2c4,2.8,6.7,6.2,8.2,10.1c1.5,3.9,2.2,13.7,2.2,29.3v157.5c0,21.2-1.2,34.6-3.5,40.4
					c-2.3,5.8-6.7,10.3-13.2,13.7c-6.5,3.3-17.5,5-32.9,5h-9.5v31.5H775.8z"/>
			</g>
			<g>
			</g>
		</g>
	</g>
</g>
<g id="_x36_">
</g>
</svg>
