<?xml version="1.0" encoding="utf-8"?>
<!-- Generator: Adobe Illustrator 19.0.0, SVG Export Plug-In . SVG Version: 6.00 Build 0)  -->
<svg version="1.1" xmlns="http://www.w3.org/2000/svg" xmlns:xlink="http://www.w3.org/1999/xlink" x="0px" y="0px"
	 viewBox="0 0 1024 1024" style="enable-background:new 0 0 1024 1024;" xml:space="preserve">
<g id="_x30_">
</g>
<g id="_x33_">
	<g id="LINE_35_">
		<g id="XMLID_1_">
			<g>
				<path d="M630.1,393.9v39.4h-78.7v39.4h78.7c0,43.5-35.3,78.7-78.7,78.7h-78.7c-43.5,0-78.7-35.3-78.7-78.7V118.3
					c0-43.5,35.3-78.7,78.7-78.7h78.7c43.5,0,78.7,35.3,78.7,78.7h-78.7v39.4h78.7v39.4h-78.7v39.4h78.7v39.4h-78.7v39.4h78.7v39.4
					h-78.7v39.4H630.1z"/>
				<path d="M787.6,354.5v118.1c0,130.5-105.8,236.2-236.2,236.2v196.8h157.5v78.7H315.2v-78.7h157.5V708.8
					c-130.5,0-236.2-105.8-236.2-236.2V354.5h78.7v118.1c0,87,70.5,157.5,157.5,157.5h78.7c87,0,157.5-70.5,157.5-157.5V354.5H787.6
					z"/>
			</g>
			<g>
			</g>
		</g>
	</g>
</g>
<g id="_x36_">
</g>
</svg>
