<?xml version="1.0" encoding="utf-8"?>
<!-- Generator: Adobe Illustrator 19.0.0, SVG Export Plug-In . SVG Version: 6.00 Build 0)  -->
<svg version="1.1" xmlns="http://www.w3.org/2000/svg" xmlns:xlink="http://www.w3.org/1999/xlink" x="0px" y="0px"
	 viewBox="0 0 1024 1024" style="enable-background:new 0 0 1024 1024;" xml:space="preserve">
<g id="_x30_">
</g>
<g id="_x33_">
	<g id="LINE_6_">
		<g id="XMLID_1_">
			<g>
				<path d="M708.8,354.5c43.5,0,78.7,35.3,78.7,78.7c0,43.5-35.3,78.7-78.7,78.7c-43.5,0-78.7-35.3-78.7-78.7
					C630.1,389.8,665.3,354.5,708.8,354.5z"/>
				<path d="M947.5,157.7v730.6H81.2V157.7H947.5z M868.8,715.3V236.4H159.9v425.3c32.2-73.6,57.7-110.4,76.5-110.4
					c26.3,0,45.9-19.7,59.1-59c13.1-39.4,39.4-32.8,78.7,19.7c39.4,52.5,65.6,105,78.7,157.5c13.1,52.5,32.8,52.5,59,0
					c26.2-52.5,45.9-78.7,59-78.7s39.4,32.8,78.7,98.4c39.4,65.6,59,98.4,59,98.4s13.1-13.1,39.4-39.4c26.2-26.3,45.9-45.9,59-59
					s26.2-13.1,39.4,0C852.6,695.2,860,703.9,868.8,715.3z"/>
			</g>
			<g>
			</g>
		</g>
	</g>
</g>
<g id="_x36_">
</g>
</svg>
