<?xml version="1.0" encoding="utf-8"?>
<!-- Generator: Adobe Illustrator 19.0.0, SVG Export Plug-In . SVG Version: 6.00 Build 0)  -->
<svg version="1.1" xmlns="http://www.w3.org/2000/svg" xmlns:xlink="http://www.w3.org/1999/xlink" x="0px" y="0px"
	 viewBox="0 0 1024 1024" style="enable-background:new 0 0 1024 1024;" xml:space="preserve">
<g id="_x30_">
</g>
<g id="_x33_">
	<g id="LINE_5_">
		<g id="XMLID_1_">
			<g>
				<path d="M990,623.3L675.7,937.7L269.2,531.2c-8.1-8.1-12.7-19.1-12.7-30.6V305.4c-92.6-21.1-170.1-84.4-209.3-170.9
					c-4.9-10.9-0.1-23.7,10.8-28.7c10.9-4.9,23.7-0.1,28.7,10.8c32.2,71,94.5,123.9,169.8,144.1v-13.4c0-23.9,19.4-43.3,43.3-43.3
					h253.1c11.5,0,22.5,4.6,30.6,12.7L990,623.3z M363.7,341.6c20.7-8.4,34.2-28.5,34.2-50.9c0-30.3-24.6-54.9-54.9-54.9
					c-21.5,0-41,12.5-49.9,32c17.9,2.1,36,2.4,53.9,0.8c11.9-1.1,22.4,7.7,23.5,19.6c1.1,11.9-7.7,22.4-19.6,23.5
					c-19.5,1.7-39.2,1.6-58.7-0.5C303.6,339.4,335.6,353,363.7,341.6z"/>
			</g>
			<g>
			</g>
		</g>
	</g>
</g>
<g id="_x36_">
</g>
</svg>
