<?xml version="1.0" encoding="utf-8"?>
<!-- Generator: Adobe Illustrator 19.0.0, SVG Export Plug-In . SVG Version: 6.00 Build 0)  -->
<svg version="1.1" xmlns="http://www.w3.org/2000/svg" xmlns:xlink="http://www.w3.org/1999/xlink" x="0px" y="0px"
	 viewBox="0 0 1024 1024" style="enable-background:new 0 0 1024 1024;" xml:space="preserve">
<g id="_x30_">
</g>
<g id="_x33_">
	<g id="ARC_7_">
		<g id="XMLID_1_">
			<g>
				<rect x="822.7" y="139.4" transform="matrix(-0.5 -0.866 0.866 -0.5 1091.7118 1027.2101)" width="39.4" height="118.1"/>
				<polygon points="927,256.3 937.2,294.3 823.1,324.9 812.9,286.9 				"/>
				<rect x="823.6" y="368.4" width="118.1" height="39.4"/>
				<polygon points="927,480.5 916.8,518.5 802.7,487.9 812.9,449.9 				"/>
				<rect x="548" y="407.8" width="39.4" height="196.8"/>
				<polygon points="548,329 508.7,368.4 469.3,368.4 508.7,329 				"/>
				<polygon points="626.8,329 587.4,368.4 548,368.4 587.4,329 				"/>
				<path d="M721.3,193C818.1,310.4,801.4,484.1,684,581c-36.3,29.9-57.3,74.5-57.3,121.5v138.4l-39.4,39.4
					c0,43.5-35.3,78.7-78.7,78.7S430,923.6,430,880.2l-39.4-39.4V702.4c0-47-21-91.5-57.3-121.5c-13.6-11.2-26-23.7-37.2-37.2
					c-96.8-117.4-80.2-291.1,37.2-387.9S624.4,75.6,721.3,193z M659,550.6c100.6-83,114.9-231.9,31.9-332.5
					c-83-100.6-231.9-114.9-332.5-31.9c-100.6,83-114.9,231.9-31.9,332.5c9.6,11.6,20.3,22.3,31.9,31.9
					C403.7,588,430,643.7,430,702.4c51.6,13.2,105.8,13.2,157.5,0C587.4,643.7,613.7,588,659,550.6z"/>
				<rect x="430" y="407.8" width="39.4" height="196.8"/>
				<polygon points="469.3,329 430,368.4 390.6,368.4 430,329 				"/>
				<rect x="155.3" y="139.4" transform="matrix(0.5 -0.866 0.866 0.5 -84.3719 250.7505)" width="39.4" height="118.1"/>
				<polygon points="204.5,449.9 214.7,487.9 100.6,518.5 90.4,480.5 				"/>
				<polygon points="204.5,286.9 194.3,324.9 80.2,294.3 90.4,256.3 				"/>
				<rect x="75.7" y="368.4" width="118.1" height="39.4"/>
			</g>
			<g>
			</g>
		</g>
	</g>
</g>
<g id="_x36_">
</g>
</svg>
