<?xml version="1.0" encoding="utf-8"?>
<!-- Generator: Adobe Illustrator 19.0.0, SVG Export Plug-In . SVG Version: 6.00 Build 0)  -->
<svg version="1.1" xmlns="http://www.w3.org/2000/svg" xmlns:xlink="http://www.w3.org/1999/xlink" x="0px" y="0px"
	 viewBox="0 0 1024 1024" style="enable-background:new 0 0 1024 1024;" xml:space="preserve">
<g id="_x30_">
</g>
<g id="_x33_">
	<g id="LINE_15_">
		<g id="XMLID_1_">
			<g>
				<circle cx="457.9" cy="608.9" r="47.2"/>
				<path d="M593.3,472.6v415.7H81.2V472.6H593.3z M553.9,770.2V512H120.5v254c26.1-62.7,44-94.1,53.9-94.1
					c15.7,0,27.5-11.8,35.4-35.4c7.9-23.6,23.6-19.7,47.2,11.8c23.6,31.5,39.4,63,47.2,94.5c7.9,31.5,19.7,31.5,35.4,0
					c15.7-31.5,27.6-47.2,35.4-47.2c7.9,0,23.6,19.7,47.2,59c23.6,39.4,35.4,59,35.4,59s7.9-7.9,23.6-23.6
					c15.8-15.7,27.6-27.5,35.4-35.4c7.9-7.9,15.8-7.9,23.6,0C544.2,758.2,548.6,763.4,553.9,770.2z"/>
				<path d="M708.8,354.5c43.5,0,78.7,35.3,78.7,78.7c0,43.5-35.3,78.7-78.7,78.7c-43.5,0-78.7-35.3-78.7-78.7
					C630.1,389.8,665.3,354.5,708.8,354.5z"/>
				<path d="M947.5,157.7v730.6H669.5V722c26.2,43.8,39.4,65.6,39.4,65.6s13.1-13.1,39.4-39.4c26.2-26.3,45.9-45.9,59-59
					s26.2-13.1,39.4,0c6,6,13.4,14.7,22.2,26.1V236.4H159.9v157.5H81.2V157.7H947.5z"/>
			</g>
			<g>
			</g>
		</g>
	</g>
</g>
<g id="_x36_">
</g>
</svg>
