<?xml version="1.0" encoding="utf-8"?>
<!-- Generator: Adobe Illustrator 19.0.0, SVG Export Plug-In . SVG Version: 6.00 Build 0)  -->
<svg version="1.1" xmlns="http://www.w3.org/2000/svg" xmlns:xlink="http://www.w3.org/1999/xlink" x="0px" y="0px"
	 viewBox="0 0 1024 1024" style="enable-background:new 0 0 1024 1024;" xml:space="preserve">
<g id="_x30_">
</g>
<g id="_x33_">
	<g id="LINE_44_">
		<g id="XMLID_1_">
			<g>
				<path d="M905.6,671.4c18.2,21.4,27.3,51.2,27.3,89.4c0,39.3-9.4,69.8-28.2,91.5c-18.8,21.8-41.6,32.6-68.3,32.6
					c-12.7,0-24.3-2.5-34.6-7.6c-10.3-5.1-21.2-13.8-32.6-26.1v115.5h-61.4V644.4h61.4v33.9c7.2-11.6,16.9-21,29.2-28.2
					c12.3-7.2,25.9-10.8,40.9-10.8C865.3,639.3,887.4,650,905.6,671.4z M857.4,820.8c9.4-12.1,14.1-31.9,14.1-59.5
					c0-25.7-4.8-44.8-14.5-57.3c-9.7-12.5-21.7-18.7-36-18.7c-14.9,0-27.2,6.1-37.1,18.3c-9.8,12.2-14.8,30.3-14.8,54.3
					c0,27.6,5.1,47.9,15.4,61.1s22.8,19.8,37.5,19.8C836.2,838.9,848,832.8,857.4,820.8z"/>
				<path d="M674.5,833l2.6,43.7c-14.8,5.5-31.6,8.3-50.3,8.3c-11.5,0-21.8-1.9-31-5.8c-9.2-3.8-16-8.8-20.3-14.9
					c-4.3-6.1-7.3-14.3-9-24.7c-1.3-7.4-2-22.3-2-44.7V690.5h-30.7v-46.1h30.7v-46.1l61.4-35.8v81.9h46.1v46.1h-46.1v101
					c0,20.4,0.5,32.3,1.4,35.7c0.9,3.4,3,6.2,6.4,8.4c3.3,2.2,7.3,3.3,12.1,3.3C652.3,838.9,661.9,836.9,674.5,833z"/>
				<path d="M526.1,833l2.6,43.7c-14.8,5.5-31.6,8.3-50.3,8.3c-11.5,0-21.8-1.9-31-5.8c-9.2-3.8-16-8.8-20.3-14.9s-7.3-14.3-9-24.7
					c-1.3-7.4-2-22.3-2-44.7V690.5h-30.7v-46.1H416v-46.1l61.4-35.8v81.9h46.1v46.1h-46.1v101c0,20.4,0.5,32.3,1.4,35.7
					c0.9,3.4,3,6.2,6.4,8.4c3.3,2.2,7.3,3.3,12.1,3.3C503.9,838.9,513.5,836.9,526.1,833z"/>
				<path d="M874.2,139c52.4,69.1,38.9,167.6-30.2,220L699.6,468.3c-66.6,50.5-161.2,40-215-24c-55.8-66.4-47.3-165.4,19.1-221.2
					c19.1,31.9,27.5,69.1,24,106.2c-7.7,42.5,20.5,83.3,63,91c21.6,3.9,43.8-1.4,61.3-14.7l144.4-109.3
					c34.5-26.1,41.2-75.2,15.1-109.7c-26.1-34.4-75.2-41.2-109.7-15.1l-60.6,45.9c-8.4-25.4-22.5-48.4-41.2-67.6l54.2-41
					C723.3,56.4,821.8,69.9,874.2,139z"/>
				<path d="M593.7,172.2c55.8,66.4,47.3,165.4-19.1,221.2c-16.8-34.4-24.9-72.5-23.3-110.8c5.1-42.7-25.2-81.5-67.9-87l-179.5-23
					c-42.9-5.5-82.1,24.8-87.6,67.7s24.8,82.1,67.7,87.6c0,0,0.1,0,0.1,0l144,18.5c0.5,28.8,8.1,57,22,82.2L274.2,406
					c-0.1,0-0.1,0-0.2,0c-86-11-146.8-89.7-135.8-175.7S227.9,83.5,313.9,94.5l179.4,23C532.5,122.5,568.3,142,593.7,172.2z"/>
				<path d="M349.5,741.8v138h-61.4V754.6c0-24.9-1.1-40.7-3.4-47.4s-6.4-12-12.2-16c-5.8-4-13.1-5.9-21.8-5.9
					c-10,0-19,2.5-26.9,7.6c-7.9,5.1-13.7,12.7-17.3,22.9c-3.7,10.2-5.5,25.3-5.5,45.3v118.7h-61.4V557.4h61.4v116.8
					c19.6-23.3,43-34.9,70.3-34.9c14,0,26.7,2.6,37.9,8c11.2,5.3,19.7,12.1,25.4,20.4c5.7,8.3,9.6,17.4,11.7,27.5
					C348.5,705.1,349.5,720.7,349.5,741.8z"/>
			</g>
			<g>
			</g>
		</g>
	</g>
</g>
<g id="_x36_">
</g>
</svg>
