<?xml version="1.0" encoding="utf-8"?>
<!-- Generator: Adobe Illustrator 19.0.0, SVG Export Plug-In . SVG Version: 6.00 Build 0)  -->
<svg version="1.1" xmlns="http://www.w3.org/2000/svg" xmlns:xlink="http://www.w3.org/1999/xlink" x="0px" y="0px"
	 viewBox="0 0 1024 1024" style="enable-background:new 0 0 1024 1024;" xml:space="preserve">
<g id="_x30_">
</g>
<g id="_x33_">
	<g id="LINE_99_">
		<g id="XMLID_1_">
			<g>
				<path d="M947.5,118.3v770H81.2v-770H947.5z M908.2,849v-81.1H767.9V849H908.2z M908.2,728.5v-78.7H767.9v78.7H908.2z
					 M908.2,610.4v-78.7H767.9v78.7H908.2z M908.2,492.3v-78.7H767.9v78.7H908.2z M908.2,374.2v-78.7H767.9v78.7H908.2z
					 M908.2,256.1v-98.4H767.9v98.4H908.2z M728.5,849v-81.1H492.3V849H728.5z M728.5,728.5v-78.7H492.3v78.7H728.5z M728.5,610.4
					v-78.7H492.3v78.7H728.5z M728.5,492.3v-78.7H492.3v78.7H728.5z M728.5,374.2v-78.7H492.3v78.7H728.5z M728.5,256.1v-98.4H492.3
					v98.4H728.5z M453,849v-81.1H295.5V849H453z M453,728.5v-78.7H295.5v78.7H453z M453,610.4v-78.7H295.5v78.7H453z M453,492.3
					v-78.7H295.5v78.7H453z M453,374.2v-78.7H295.5v78.7H453z M453,256.1v-98.4H295.5v98.4H453z M256.1,849v-81.1H120.5V849H256.1z
					 M256.1,728.5v-78.7H120.5v78.7H256.1z M256.1,610.4v-78.7H120.5v78.7H256.1z M256.1,492.3v-78.7H120.5v78.7H256.1z
					 M256.1,374.2v-78.7H120.5v78.7H256.1z M256.1,256.1v-98.4H120.5v98.4H256.1z"/>
			</g>
			<g>
			</g>
		</g>
	</g>
</g>
<g id="_x36_">
</g>
</svg>
