<?xml version="1.0" encoding="utf-8"?>
<!-- Generator: Adobe Illustrator 19.0.0, SVG Export Plug-In . SVG Version: 6.00 Build 0)  -->
<svg version="1.1" xmlns="http://www.w3.org/2000/svg" xmlns:xlink="http://www.w3.org/1999/xlink" x="0px" y="0px"
	 viewBox="0 0 1024 1024" style="enable-background:new 0 0 1024 1024;" xml:space="preserve">
<style type="text/css">
	.st0{fill:none;stroke:#000000;stroke-width:10;stroke-linecap:round;stroke-linejoin:round;stroke-miterlimit:10;}
</style>
<g id="_x30_">
</g>
<g id="_x33_">
	<g id="LINE_59_">
		<g id="XMLID_1_">
			<g>
				<path d="M905.7,597.3V512v-78.7v-78.7v-78.7v-78.7v-78.7h-78.7h-78.7h-78.7h-78.7H512h-78.7h-78.7h-78.7h-78.7h-78.7v78.7v78.7
					v78.7v78.7V512v85.3h78.7h78.7v2.1c-31.8,3.3-58,7.5-78.7,12.8c-38.4,9.8-57.6,23-57.6,39.6c0,6.4,2.2,12.3,6.5,17.7h0
					c8.6,10.6,25.6,19.1,51.1,25.7c11.1,2.9,23.9,5.3,38.3,7.4c13.5,1.5,27,3,40.5,4.5c26.3,2.9,52.5,5.9,78.7,8.8
					c19.8,2.2,39.6,4.5,59.4,6.8c6.8,1.1,13.3,2.3,19.4,3.5c26.6,5.6,46.2,12.9,58.9,22c11.7,8.4,17.6,18.2,17.6,29.6
					c0,16.4-9.5,32.8-28.6,49.1c-12.1,10.4-28.1,20.8-47.9,31.2c-21.6,11.3-47.9,22.7-78.7,34c-4.6,1.7-9.4,3.4-14.2,5.1
					c-8.1,2.8-17.2,5.7-27.4,8.5h41.6h78.7H512h78.7h78.7h6.7c31.5-25.5,53.1-51.7,64.9-78.7h0c7-16.1,10.5-32.5,10.5-49.1
					c0-10.8-3.9-20.6-11.7-29.6c-12.9-14.8-36.4-27.1-70.5-37v0c-15-4.3-32-8.2-51-11.6c-7.5-1.3-16.7-2.7-27.7-4.1
					c-20.3-2.6-46.5-5.3-78.7-8.1c-23.1-2-49.4-4.2-78.7-6.4c-19.4-1.5-40.2-2.9-62.4-4.5c-5.6-0.4-11.1-0.8-16.4-1.2
					c-22.2-1.7-41.2-3.7-57.1-5.9c-8-1.1-15.3-2.3-21.7-3.6c-25.4-4.9-38.1-10.9-38.1-17.8c0-10.3,12.7-19.6,38.1-27.9
					c19.1-6.3,45.3-12,78.7-17.1c12.9-2,26.9-3.9,41.9-5.7h36.8H512h28V549h-28h-78.7v-9.2l38.3-27.8l40.5-29.4l25.2-18.3H512h-48
					l32.9-31.1h0l15.2-14.3l41.5-39.3H512h-4.8l4.8-3.9l25.8-21.2l43-35.3l9.9,8.1l33,27.2l30.5,25.1h-46.3l56.7,53.6l4.9,4.6
					l28,26.4h-28h-45.3l45.3,32.8L690,512l51,37h-71.6H608v48.4h61.4h78.7h78.7H905.7z M945,79V945H79V79H945z"/>
			</g>
			<g>
				<polyline class="st0" points="905.7,197.1 826.9,197.1 748.2,197.1 669.5,197.1 590.7,197.1 512,197.1 433.3,197.1 354.5,197.1 
					275.8,197.1 197.1,197.1 118.3,197.1 				"/>
				<line class="st0" x1="354.5" y1="892.1" x2="354.5" y2="905.7"/>
				<line class="st0" x1="433.3" y1="858.1" x2="433.3" y2="905.7"/>
				<line class="st0" x1="512" y1="379.7" x2="512" y2="418.9"/>
				<line class="st0" x1="669.5" y1="464.3" x2="669.5" y2="497.1"/>
				<polyline class="st0" points="623.7,354.5 669.5,354.5 748.2,354.5 826.9,354.5 905.7,354.5 				"/>
				<polyline class="st0" points="664.6,433.3 669.5,433.3 748.2,433.3 826.9,433.3 905.7,433.3 				"/>
				<line class="st0" x1="512" y1="464.3" x2="512" y2="482.6"/>
				<line class="st0" x1="512" y1="549" x2="512" y2="597.3"/>
				<polyline class="st0" points="690,512 748.2,512 826.9,512 905.7,512 				"/>
				<line class="st0" x1="669.5" y1="549" x2="669.5" y2="597.3"/>
				<polyline class="st0" points="669.5,711.2 669.5,748.2 669.5,826.9 669.5,905.7 				"/>
				<polyline class="st0" points="590.7,695.6 590.7,748.2 590.7,826.9 590.7,905.7 				"/>
				<polyline class="st0" points="512,687.4 512,748.2 512,777.8 512,826.9 512,905.7 				"/>
				<line class="st0" x1="433.3" y1="681" x2="433.3" y2="726.2"/>
				<line class="st0" x1="354.5" y1="675.4" x2="354.5" y2="715.9"/>
				<polyline class="st0" points="275.8,665.9 275.8,669.5 275.8,707 				"/>
				<polyline class="st0" points="197.1,612.2 197.1,612.2 197.1,669.5 197.1,695.2 				"/>
				<line class="st0" x1="669.5" y1="711.2" x2="669.5" y2="711.2"/>
				<polyline class="st0" points="826.9,118.3 826.9,197.1 826.9,275.8 826.9,354.5 826.9,433.3 826.9,512 826.9,597.3 				"/>
				<polyline class="st0" points="748.2,118.3 748.2,197.1 748.2,275.8 748.2,354.5 748.2,433.3 748.2,512 748.2,597.3 				"/>
				<polyline class="st0" points="669.5,118.3 669.5,197.1 669.5,275.8 669.5,354.5 669.5,433.3 669.5,437.9 				"/>
				<polyline class="st0" points="590.7,118.3 590.7,197.1 590.7,275.8 590.7,327.4 				"/>
				<polyline class="st0" points="512,118.3 512,197.1 512,275.8 512,354.5 512,375.8 				"/>
				<polyline class="st0" points="433.3,118.3 433.3,197.1 433.3,275.8 433.3,354.5 433.3,433.3 433.3,512 433.3,539.8 433.3,549 
					433.3,597.3 				"/>
				<polyline class="st0" points="354.5,118.3 354.5,197.1 354.5,275.8 354.5,354.5 354.5,433.3 354.5,512 354.5,603.1 				"/>
				<polyline class="st0" points="275.8,118.3 275.8,197.1 275.8,275.8 275.8,354.5 275.8,433.3 275.8,512 275.8,597.3 275.8,599.4 
					275.8,620.2 				"/>
				<polyline class="st0" points="197.1,118.3 197.1,197.1 197.1,275.8 197.1,354.5 197.1,433.3 197.1,512 197.1,597.3 				"/>
				<polyline class="st0" points="481.2,826.9 512,826.9 590.7,826.9 669.5,826.9 741.1,826.9 741.1,826.9 				"/>
				<polyline class="st0" points="492.2,748.2 512,748.2 590.7,748.2 669.5,748.2 739.9,748.2 739.9,748.2 				"/>
				<polyline class="st0" points="146,669.5 146,669.5 197.1,669.5 275.8,669.5 297.5,669.5 				"/>
				<polyline class="st0" points="118.3,512 197.1,512 275.8,512 354.5,512 433.3,512 471.5,512 				"/>
				<polyline class="st0" points="118.3,433.3 197.1,433.3 275.8,433.3 354.5,433.3 433.3,433.3 496.8,433.3 496.8,433.3 				"/>
				<polyline class="st0" points="118.3,354.5 197.1,354.5 275.8,354.5 354.5,354.5 433.3,354.5 512,354.5 537.8,354.5 				"/>
				<polyline class="st0" points="905.7,275.8 826.9,275.8 748.2,275.8 669.5,275.8 590.7,275.8 512,275.8 433.3,275.8 354.5,275.8 
					275.8,275.8 197.1,275.8 118.3,275.8 				"/>
			</g>
		</g>
	</g>
</g>
<g id="_x36_">
</g>
</svg>
