<?xml version="1.0" encoding="utf-8"?>
<!-- Generator: Adobe Illustrator 19.0.0, SVG Export Plug-In . SVG Version: 6.00 Build 0)  -->
<svg version="1.1" xmlns="http://www.w3.org/2000/svg" xmlns:xlink="http://www.w3.org/1999/xlink" x="0px" y="0px"
	 viewBox="0 0 1024 1024" style="enable-background:new 0 0 1024 1024;" xml:space="preserve">
<g id="_x30_">
</g>
<g id="_x33_">
	<g id="LINE_47_">
		<g id="XMLID_1_">
			<g>
				<polygon points="905.7,472.6 945,551.4 866.3,472.6 				"/>
				<polygon points="874,129.5 889.5,165.7 853.2,181.2 				"/>
				<polygon points="843.1,57.1 780.8,212 708.4,242.9 770.7,88 				"/>
				<polygon points="698.3,118.8 636,273.8 563.5,304.7 625.8,149.7 				"/>
				<polygon points="553.4,180.6 491.1,335.5 418.7,366.4 481,211.5 				"/>
				<polygon points="408.6,242.3 346.3,397.3 273.8,428.2 336.1,273.2 				"/>
				<path d="M945,590.7V945H79V354.5h104.4l7.9-19.6l72.4-30.9l-27.3,67.8v100.7v78.7l39.4,39.4h78.7L236.4,472.6h78.7l118.1,118.1
					H512L393.9,472.6h78.7l118.1,118.1h78.7L551.4,472.6h78.7l118.1,118.1h78.7L708.8,472.6h78.7l118.1,118.1H945z M197.1,433.3
					c0-21.7-17.6-39.4-39.4-39.4s-39.4,17.6-39.4,39.4c0,21.7,17.6,39.4,39.4,39.4S197.1,455,197.1,433.3z"/>
			</g>
			<g>
			</g>
		</g>
	</g>
</g>
<g id="_x36_">
</g>
</svg>
