<?xml version="1.0" encoding="utf-8"?>
<!-- Generator: Adobe Illustrator 19.0.0, SVG Export Plug-In . SVG Version: 6.00 Build 0)  -->
<svg version="1.1" xmlns="http://www.w3.org/2000/svg" xmlns:xlink="http://www.w3.org/1999/xlink" x="0px" y="0px"
	 viewBox="0 0 1024 1024" style="enable-background:new 0 0 1024 1024;" xml:space="preserve">
<g id="_x30_">
</g>
<g id="_x33_">
	<g id="LINE_98_">
		<g id="XMLID_1_">
			<g>
				<polygon points="708.8,597.3 708.8,676.1 315.2,676.1 315.2,597.3 461.3,597.3 461.3,549 341.9,549 458.5,464.3 385.2,464.3 
					474.8,379.7 428.5,379.7 502.1,319.2 575.4,379.7 529.1,379.7 618.7,464.3 545.5,464.3 662.3,549 529.3,549 529.3,597.3 				"/>
				<polygon points="322.3,708.8 322.3,748.2 243.6,748.2 243.6,669.5 283,669.5 283,708.8 				"/>
				<rect x="354.5" y="708.8" width="78.7" height="39.4"/>
				<rect x="472.6" y="708.8" width="78.7" height="39.4"/>
				<rect x="583.6" y="708.8" width="78.7" height="39.4"/>
				<polygon points="780.4,669.5 780.4,748.2 701.7,748.2 701.7,708.8 741,708.8 741,669.5 				"/>
				<rect x="741" y="551.4" width="39.4" height="78.7"/>
				<rect x="741" y="433.3" width="39.4" height="78.7"/>
				<rect x="741" y="315.2" width="39.4" height="78.7"/>
				<polygon points="780.4,197.1 780.4,275.8 741,275.8 741,236.4 701.7,236.4 701.7,197.1 				"/>
				<rect x="583.6" y="197.1" width="78.7" height="39.4"/>
				<rect x="472.6" y="197.1" width="78.7" height="39.4"/>
				<rect x="354.5" y="197.1" width="78.7" height="39.4"/>
				<polygon points="322.3,197.1 322.3,236.4 283,236.4 283,275.8 243.6,275.8 243.6,197.1 				"/>
				<rect x="243.6" y="315.2" width="39.4" height="78.7"/>
				<rect x="243.6" y="433.3" width="39.4" height="78.7"/>
				<rect x="243.6" y="551.4" width="39.4" height="78.7"/>
				<path d="M945,79V945H79V79H945z M905.7,905.7V118.3H118.3v787.3H905.7z"/>
			</g>
			<g>
			</g>
		</g>
	</g>
</g>
<g id="_x36_">
</g>
</svg>
