<?xml version="1.0" encoding="utf-8"?>
<!-- Generator: Adobe Illustrator 19.0.0, SVG Export Plug-In . SVG Version: 6.00 Build 0)  -->
<svg version="1.1" xmlns="http://www.w3.org/2000/svg" xmlns:xlink="http://www.w3.org/1999/xlink" x="0px" y="0px"
	 viewBox="0 0 1024 1024" style="enable-background:new 0 0 1024 1024;" xml:space="preserve">
<g id="_x30_">
</g>
<g id="_x33_">
	<g id="LINE_87_">
		<g id="XMLID_1_">
			<g>
				<polygon points="879.4,807.3 748.2,905.7 748.2,826.9 708.8,826.9 708.8,787.6 748.2,787.6 748.2,708.8 				"/>
				<rect x="630.1" y="787.6" width="39.4" height="39.4"/>
				<rect x="551.4" y="787.6" width="39.4" height="39.4"/>
				<rect x="472.6" y="787.6" width="39.4" height="39.4"/>
				<rect x="393.9" y="787.6" width="39.4" height="39.4"/>
				<rect x="315.2" y="787.6" width="39.4" height="39.4"/>
				<rect x="236.4" y="787.6" width="39.4" height="39.4"/>
				<rect x="157.7" y="787.6" width="39.4" height="39.4"/>
				<path d="M905.7,186.2v247h-86l-15.1-35.1v-15.3h-24v-19.6h-45.7V456h-97.3v34.8h-4h-49.2c-3.5,19.3-13,37-27.2,50.6L604,669.5
					h-48.3l-39-105.3c-3.2,0.8-6.5,1.5-9.7,2v103.3h-24.5V566.7c-4.6-0.5-9.1-1.4-13.6-2.5l-39,105.3h-48.3l46.7-128.1
					c-14.1-13.6-23.7-31.3-27.2-50.6h-64.4V456H188.3V336.2h-31.6L135.5,353l-25.7,2.2V216.9l25.7,2.2l21.2,16.7h31.6V192h86.2
					l65.2-82.3h281.7V192h113.5v64.3h45.7v-19.6h24v-15.3l15.1-35.1H905.7z M573,192v-49.1H375.2L336.3,192H573z M364.5,319.5v-71.8
					H244v71.8H364.5z M310.4,382.3c0-14.8-12-26.8-26.8-26.8c-14.8,0-26.8,12-26.8,26.8c0,14.8,12,26.9,26.8,26.9
					C298.4,409.1,310.4,397.1,310.4,382.3z"/>
			</g>
			<g>
			</g>
		</g>
	</g>
</g>
<g id="_x36_">
</g>
</svg>
