<?xml version="1.0" encoding="utf-8"?>
<!-- Generator: Adobe Illustrator 19.0.0, SVG Export Plug-In . SVG Version: 6.00 Build 0)  -->
<svg version="1.1" xmlns="http://www.w3.org/2000/svg" xmlns:xlink="http://www.w3.org/1999/xlink" x="0px" y="0px"
	 viewBox="0 0 1024 1024" style="enable-background:new 0 0 1024 1024;" xml:space="preserve">
<g id="_x30_">
</g>
<g id="_x33_">
	<g id="LINE_35_">
		<g id="XMLID_1_">
			<g>
				<polygon points="879.4,807.3 748.2,905.7 748.2,826.9 708.8,826.9 708.8,787.6 748.2,787.6 748.2,708.8 				"/>
				<rect x="630.1" y="787.6" width="39.4" height="39.4"/>
				<rect x="472.6" y="787.6" width="39.4" height="39.4"/>
				<rect x="551.4" y="787.6" width="39.4" height="39.4"/>
				<rect x="393.9" y="787.6" width="39.4" height="39.4"/>
				<rect x="315.2" y="787.6" width="39.4" height="39.4"/>
				<rect x="236.4" y="787.6" width="39.4" height="39.4"/>
				<rect x="157.7" y="787.6" width="39.4" height="39.4"/>
				<path d="M634,393.4c70.1,74.1,105.6,174.4,97.6,276.1H292.4c-8-101.7,27.4-202,97.6-276.1C461.5,449.9,562.5,449.9,634,393.4z"
					/>
				<path d="M512,81.4c87,0,157.5,70.5,157.5,157.5S599,396.4,512,396.4s-157.5-70.5-157.5-157.5S425,81.4,512,81.4z"/>
			</g>
			<g>
			</g>
		</g>
	</g>
</g>
<g id="_x36_">
</g>
</svg>
