<?xml version="1.0" encoding="utf-8"?>
<!-- Generator: Adobe Illustrator 19.0.0, SVG Export Plug-In . SVG Version: 6.00 Build 0)  -->
<svg version="1.1" xmlns="http://www.w3.org/2000/svg" xmlns:xlink="http://www.w3.org/1999/xlink" x="0px" y="0px"
	 viewBox="0 0 1024 1024" style="enable-background:new 0 0 1024 1024;" xml:space="preserve">
<g id="_x30_">
</g>
<g id="_x33_">
	<g id="LINE_82_">
		<g id="XMLID_1_">
			<g>
				<polygon points="661.6,512 413.6,655.2 413.6,368.8 				"/>
				<path d="M945,79V945h-39.4v-19.7h-78.7V945h-39.4V826.9c0-21.7-17.6-39.4-39.4-39.4H275.8c-21.7,0-39.4,17.6-39.4,39.4V945
					h-39.4v-19.7h-78.7V945H79V79h157.5v118.1c0,21.7,17.6,39.4,39.4,39.4h472.4c21.7,0,39.4-17.6,39.4-39.4V79H945z M905.7,866.3
					v-59h-78.7v59H905.7z M905.7,748.2v-59h-78.7v59H905.7z M905.7,630.1v-59h-78.7v59H905.7z M905.7,512v-59h-78.7v59H905.7z
					 M905.7,393.9v-59h-78.7v59H905.7z M905.7,275.8v-59h-78.7v59H905.7z M905.7,157.7v-59h-78.7v59H905.7z M787.6,708.8V315.2
					c0-21.7-17.6-39.4-39.4-39.4H275.8c-21.7,0-39.4,17.6-39.4,39.4v393.7c0,21.7,17.6,39.4,39.4,39.4h472.4
					C769.9,748.2,787.6,730.6,787.6,708.8z M197.1,866.3v-59h-78.7v59H197.1z M197.1,748.2v-59h-78.7v59H197.1z M197.1,630.1v-59
					h-78.7v59H197.1z M197.1,512v-59h-78.7v59H197.1z M197.1,393.9v-59h-78.7v59H197.1z M197.1,275.8v-59h-78.7v59H197.1z
					 M197.1,157.7v-59h-78.7v59H197.1z"/>
			</g>
			<g>
			</g>
		</g>
	</g>
</g>
<g id="_x36_">
</g>
</svg>
