<?xml version="1.0" encoding="utf-8"?>
<!-- Generator: Adobe Illustrator 19.0.0, SVG Export Plug-In . SVG Version: 6.00 Build 0)  -->
<svg version="1.1" xmlns="http://www.w3.org/2000/svg" xmlns:xlink="http://www.w3.org/1999/xlink" x="0px" y="0px"
	 viewBox="0 0 1024 1024" style="enable-background:new 0 0 1024 1024;" xml:space="preserve">
<g id="_x30_">
</g>
<g id="_x33_">
	<g id="LINE_34_">
		<g id="XMLID_1_">
			<g>
				<rect x="157.7" y="787.6" width="39.4" height="39.4"/>
				<rect x="236.4" y="787.6" width="39.4" height="39.4"/>
				<rect x="315.2" y="787.6" width="39.4" height="39.4"/>
				<rect x="393.9" y="787.6" width="39.4" height="39.4"/>
				<rect x="472.6" y="787.6" width="39.4" height="39.4"/>
				<rect x="551.4" y="787.6" width="39.4" height="39.4"/>
				<rect x="630.1" y="787.6" width="39.4" height="39.4"/>
				<polygon points="879.4,807.3 748.2,905.7 748.2,826.9 708.8,826.9 708.8,787.6 748.2,787.6 748.2,708.8 				"/>
				<path d="M963,347.2c-21.9,55.8-66,99.9-121.8,121.8c-110.8,43.5-235.8-11-279.3-121.8c21.9-55.8,66-99.9,121.8-121.8
					C794.5,181.9,919.5,236.4,963,347.2z M919.9,347.2c-8.6-8.2-17.9-15.8-27.8-22.6c2.5,7.3,3.7,14.9,3.7,22.6
					c0,25.3-13.6,48.7-35.7,61.2c-33.8,19.2-76.8,7.4-96-26.5c-19.2-33.8-7.4-76.8,26.5-96c-68-8.5-136.1,14-185.7,61.2
					c43.5,87,149.2,122.2,236.2,78.7C875.3,408.9,902.9,381.3,919.9,347.2z"/>
				<path d="M490.6,347.2c-21.9,55.8-66,99.9-121.8,121.8c-110.7,43.5-235.8-11-279.3-121.8c21.9-55.8,66-99.9,121.8-121.8
					C322.1,181.9,447.1,236.4,490.6,347.2z M447.5,347.2c-8.6-8.2-17.9-15.8-27.8-22.6c2.5,7.3,3.7,14.9,3.7,22.6
					c0,25.3-13.6,48.7-35.6,61.2c-33.8,19.2-76.8,7.4-96-26.5c-19.2-33.8-7.4-76.8,26.5-96c-67.9-8.5-136.1,14-185.7,61.2
					c43.5,87,149.2,122.2,236.2,78.7C402.9,408.9,430.5,381.3,447.5,347.2z"/>
			</g>
			<g>
			</g>
		</g>
	</g>
</g>
<g id="_x36_">
</g>
</svg>
