<?xml version="1.0" encoding="utf-8"?>
<!-- Generator: Adobe Illustrator 19.0.0, SVG Export Plug-In . SVG Version: 6.00 Build 0)  -->
<svg version="1.1" xmlns="http://www.w3.org/2000/svg" xmlns:xlink="http://www.w3.org/1999/xlink" x="0px" y="0px"
	 viewBox="0 0 1024 1024" style="enable-background:new 0 0 1024 1024;" xml:space="preserve">
<g id="_x30_">
</g>
<g id="_x33_">
	<g id="LINE_38_">
		<g id="XMLID_1_">
			<g>
				<path d="M914.9,72.3c43.5,21.7,61.1,74.6,39.4,118.1L682.6,462c15,56-0.1,115.8-40,158l-0.2-0.2c25-33.2-9-111.4-75.9-174.7
					c-64-60.5-135.5-85.9-163.4-58c42.2-42.2,103.7-58.7,161.3-43.2L836.2,72.3C861,59.9,890.1,59.9,914.9,72.3z"/>
				<polygon points="954.3,308.5 954.3,938.3 88.2,938.3 88.2,72.3 718.1,72.3 678.7,111.6 127.6,111.6 127.6,406.9 363.8,406.9 
					363.8,446.2 127.6,446.2 127.6,532.8 366.7,468.7 376.9,506.7 127.6,573.5 127.6,676.6 385.6,527.6 405.3,561.7 127.6,722 
					127.6,871.1 419,579.7 446.9,607.5 155.4,899 304.5,899 464.8,621.3 498.9,640.9 350,899 453,899 519.8,649.6 557.9,659.8 
					493.8,899 580.3,899 580.3,662.8 619.7,662.8 619.7,899 914.9,899 914.9,347.8 				"/>
			</g>
			<g>
			</g>
		</g>
	</g>
</g>
<g id="_x36_">
</g>
</svg>
