<?xml version="1.0" encoding="utf-8"?>
<!-- Generator: Adobe Illustrator 19.0.0, SVG Export Plug-In . SVG Version: 6.00 Build 0)  -->
<svg version="1.1" xmlns="http://www.w3.org/2000/svg" xmlns:xlink="http://www.w3.org/1999/xlink" x="0px" y="0px"
	 viewBox="0 0 1024 1024" style="enable-background:new 0 0 1024 1024;" xml:space="preserve">
<g id="_x30_">
</g>
<g id="_x33_">
	<g id="LINE_24_">
		<g id="XMLID_1_">
			<g>
				<path d="M945,79l0.3,866.1H79L78.7,79H945z M906,597.3l-0.3-479H118l0.3,479h179.8c-105.8,8.7-158.7,26.9-158.7,54.4
					c0,24.6,32,41.5,95.9,50.8c59.7,6.5,119.2,13.2,178.6,20.1c63.9,10.2,95.9,28.6,95.9,55.1c0,39.9-56.5,79.7-169.5,119.4
					c-8.1,2.8-17.2,5.7-27.4,8.5h363.2c50.3-40.7,75.5-83.3,75.5-127.9c0-36.3-44.4-62.3-133.2-78.2c-37.6-6.6-120.2-14.3-247.5-23
					c-88.8-6.1-133.2-15.6-133.2-28.5c0-20.9,52.9-37.9,158.7-50.8H540V549H420.6l116.6-84.6H464l89.6-84.6h-46.3l73.6-60.5
					l73.3,60.5h-46.3l89.6,84.6h-73.2L741.1,549H608v48.4H906z"/>
			</g>
			<g>
			</g>
		</g>
	</g>
</g>
<g id="_x36_">
</g>
</svg>
