<?xml version="1.0" encoding="utf-8"?>
<!-- Generator: Adobe Illustrator 19.0.0, SVG Export Plug-In . SVG Version: 6.00 Build 0)  -->
<svg version="1.1" xmlns="http://www.w3.org/2000/svg" xmlns:xlink="http://www.w3.org/1999/xlink" x="0px" y="0px"
	 viewBox="0 0 1024 1024" style="enable-background:new 0 0 1024 1024;" xml:space="preserve">
<g id="_x30_">
</g>
<g id="_x33_">
	<g id="LINE_21_">
		<g id="XMLID_1_">
			<g>
				<path d="M705.5,92.8v157.5H390.6V92.8H705.5z M666.2,210.9v-78.7H430v78.7H666.2z"/>
				<path d="M587.4,482.6c89.1,0,161.4,72.3,161.4,161.4s-72.3,161.4-161.4,161.4C498.3,805.3,426,733.1,426,644
					S498.3,482.6,587.4,482.6z M692.2,746.7c42.3-43.1,53.8-107.8,29.1-162.8l-38.8,27.5C701.9,653.8,705.3,701.8,692.2,746.7z
					 M668.1,585.3l37.1-28.8c-36.1-48.6-98.4-70.1-156.8-54C597.5,513.5,640.4,543.2,668.1,585.3z"/>
				<path d="M941.7,447.1v393.7c0,43.5-35.3,78.7-78.7,78.7H154.4c-43.5,0-78.7-35.3-78.7-78.7V447.1c0-43.5,35.3-78.7,78.7-78.7
					h78.7v118.1h78.7V368.4h78.7v-78.7h314.9v78.7H863C906.5,368.4,941.7,403.6,941.7,447.1z M823.6,644
					c0-130.5-105.8-236.2-236.2-236.2S351.2,513.5,351.2,644S457,880.2,587.4,880.2S823.6,774.4,823.6,644z"/>
			</g>
			<g>
			</g>
		</g>
	</g>
</g>
<g id="_x36_">
</g>
</svg>
