<?xml version="1.0" encoding="utf-8"?>
<!-- Generator: Adobe Illustrator 19.0.0, SVG Export Plug-In . SVG Version: 6.00 Build 0)  -->
<svg version="1.1" xmlns="http://www.w3.org/2000/svg" xmlns:xlink="http://www.w3.org/1999/xlink" x="0px" y="0px"
	 viewBox="0 0 1024 1024" style="enable-background:new 0 0 1024 1024;" xml:space="preserve">
<g id="_x30_">
</g>
<g id="_x33_">
	<g id="LINE_34_">
		<g id="XMLID_1_">
			<g>
				<polygon points="879.4,807.3 748.2,905.7 748.2,826.9 708.8,826.9 708.8,787.6 748.2,787.6 748.2,708.8 				"/>
				<rect x="630.1" y="787.6" width="39.4" height="39.4"/>
				<rect x="551.4" y="787.6" width="39.4" height="39.4"/>
				<rect x="472.6" y="787.6" width="39.4" height="39.4"/>
				<rect x="393.9" y="787.6" width="39.4" height="39.4"/>
				<rect x="315.2" y="787.6" width="39.4" height="39.4"/>
				<rect x="236.4" y="787.6" width="39.4" height="39.4"/>
				<rect x="157.7" y="787.6" width="39.4" height="39.4"/>
				<path d="M826.9,118.3c42,435.6-168,632.5-629.9,590.5c84-210,84-406.8,0-590.5C428,202.3,638,202.3,826.9,118.3z M575,393.9
					c168,21,241.4-49.9,220.5-212.6c-168,63-335.9,73.5-503.9,31.5c42,120.7,31.5,275.6-31.5,464.5C499,692.1,603.9,597.6,575,393.9
					z"/>
			</g>
			<g>
			</g>
		</g>
	</g>
</g>
<g id="_x36_">
</g>
</svg>
