<?xml version="1.0" encoding="utf-8"?>
<!-- Generator: Adobe Illustrator 19.0.0, SVG Export Plug-In . SVG Version: 6.00 Build 0)  -->
<svg version="1.1" xmlns="http://www.w3.org/2000/svg" xmlns:xlink="http://www.w3.org/1999/xlink" x="0px" y="0px"
	 viewBox="0 0 1024 1024" style="enable-background:new 0 0 1024 1024;" xml:space="preserve">
<g id="_x30_">
</g>
<g id="_x33_">
	<g id="ARC_7_">
		<g id="XMLID_1_">
			<g>
				<path d="M886,293.7C924.7,360,945,435.3,945,512c0,201.2-138.6,376-334.6,421.7v31H413.6v-31c-42.1-9.8-82.5-25.9-119.9-47.7
					C87.2,765.4,17.5,500.3,138,293.7V138h155.7c134.9-78.7,301.7-78.7,436.6,0H886V293.7z M905.7,512c0-61.5-14.4-122.2-42.1-177.1
					H689.2V160.4c-111.4-56.1-242.9-56.1-354.3,0v174.4H160.4C62.6,529,140.7,765.7,334.9,863.5c25.1,12.7,51.5,22.6,78.7,29.6
					V767.9h196.8v125.3C784.2,848.3,905.7,691.5,905.7,512z M846.6,295.5V177.4H728.5v118.1H846.6z M571,925.3V807.3H453v118.1H571z
					 M295.5,295.5V177.4H177.4v118.1H295.5z"/>
			</g>
			<g>
			</g>
		</g>
	</g>
</g>
<g id="_x36_">
</g>
</svg>
