<?xml version="1.0" encoding="utf-8"?>
<!-- Generator: Adobe Illustrator 19.0.0, SVG Export Plug-In . SVG Version: 6.00 Build 0)  -->
<svg version="1.1" xmlns="http://www.w3.org/2000/svg" xmlns:xlink="http://www.w3.org/1999/xlink" x="0px" y="0px"
	 viewBox="0 0 1024 1024" style="enable-background:new 0 0 1024 1024;" xml:space="preserve">
<g id="_x30_">
</g>
<g id="_x33_">
	<g id="LINE_25_">
		<g id="XMLID_1_">
			<g>
				<path d="M610.4,413.6v196.8H413.6V413.6H610.4z M571,571V453H453V571H571z"/>
				<path d="M925.3,98.7v196.8h-9.8c33.5,110,8.1,244.5-69,364.7C708.2,876.1,446.2,984.8,261.4,902.9S39,579.7,177.4,363.8V177.4
					h186.4c120.2-77.1,254.7-102.5,364.7-69v-9.8H925.3z M886,256.1V138H767.9v118.1H886z M806.5,649.8
					c79.6-117.7,105-250.6,67.8-354.3H728.5V149.6c-103.7-37.2-236.6-11.7-354.3,67.8v156.8H217.4
					c-131.9,195.1-106.9,414.9,55.8,491C435.9,941.3,674.7,844.9,806.5,649.8z M334.9,334.9V216.8H216.8v118.1H334.9z"/>
			</g>
			<g>
			</g>
		</g>
	</g>
</g>
<g id="_x36_">
</g>
</svg>
