<?xml version="1.0" encoding="utf-8"?>
<!-- Generator: Adobe Illustrator 19.0.0, SVG Export Plug-In . SVG Version: 6.00 Build 0)  -->
<svg version="1.1" xmlns="http://www.w3.org/2000/svg" xmlns:xlink="http://www.w3.org/1999/xlink" x="0px" y="0px"
	 viewBox="0 0 1024 1024" style="enable-background:new 0 0 1024 1024;" xml:space="preserve">
<g id="_x30_">
</g>
<g id="_x33_">
	<g id="LINE_24_">
		<g id="XMLID_1_">
			<g>
				<path d="M925.3,138v196.8H728.5V160.4c-111.4-56.1-242.9-56.1-354.3,0v174.4H199.8C102,529,180.1,765.7,374.2,863.5
					c25.1,12.7,51.5,22.6,78.7,29.6V767.9h196.8v196.8H453v-31c-42.1-9.8-82.5-25.9-119.9-47.7C126.5,765.4,56.8,500.3,177.4,293.7
					V138h155.7c134.9-78.7,301.7-78.7,436.6,0H925.3z M886,295.5V177.4H767.9v118.1H886z M610.4,925.3V807.3H492.3v118.1H610.4z
					 M334.9,295.5V177.4H216.8v118.1H334.9z"/>
			</g>
			<g>
			</g>
		</g>
	</g>
</g>
<g id="_x36_">
</g>
</svg>
