<?xml version="1.0" encoding="utf-8"?>
<!-- Generator: Adobe Illustrator 19.0.0, SVG Export Plug-In . SVG Version: 6.00 Build 0)  -->
<svg version="1.1" xmlns="http://www.w3.org/2000/svg" xmlns:xlink="http://www.w3.org/1999/xlink" x="0px" y="0px"
	 viewBox="0 0 1024 1024" style="enable-background:new 0 0 1024 1024;" xml:space="preserve">
<g id="_x30_">
</g>
<g id="_x33_">
	<g id="LINE_17_">
		<g id="XMLID_1_">
			<g>
				<path d="M877.3,266.2l-29.6,25.9C729.4,157,534.6,119,374.2,199.8v174.4H199.8C102,568.4,180.1,805.1,374.2,902.9
					c5.7,2.9,11.4,5.6,17.3,8.2l-16,36c-14.5-6.5-28.7-13.7-42.4-21.7C126.5,804.8,56.8,539.6,177.4,333.1V177.4h155.7
					C512.3,72.8,740.6,110,877.3,266.2z M334.9,334.9V216.8H216.8v118.1H334.9z"/>
				<path d="M649.8,453v196.8H453V453H649.8z M610.4,610.4V492.3H492.3v118.1H610.4z"/>
			</g>
			<g>
			</g>
		</g>
	</g>
</g>
<g id="_x36_">
</g>
</svg>
