<?xml version="1.0" encoding="utf-8"?>
<!-- Generator: Adobe Illustrator 19.0.0, SVG Export Plug-In . SVG Version: 6.00 Build 0)  -->
<svg version="1.1" xmlns="http://www.w3.org/2000/svg" xmlns:xlink="http://www.w3.org/1999/xlink" x="0px" y="0px"
	 viewBox="0 0 1024 1024" style="enable-background:new 0 0 1024 1024;" xml:space="preserve">
<g id="_x30_">
</g>
<g id="_x33_">
	<g id="ARC_5_">
		<g id="XMLID_1_">
			<g>
				<path d="M886,293.7C924.7,360,945,435.3,945,512S924.7,664,886,730.3C765.4,936.8,500.3,1006.5,293.7,886H138V730.3
					c-78.7-134.9-78.7-301.7,0-436.6C258.6,87.2,523.8,17.5,730.3,138H886V293.7z M905.7,512c0-61.5-14.4-122.2-42.1-177.1H689.2
					V160.4C495,62.6,258.3,140.7,160.4,334.9c-56.1,111.4-56.1,242.9,0,354.3h174.4v174.4c194.2,97.8,430.9,19.8,528.7-174.4
					C891.2,634.2,905.7,573.5,905.7,512z M846.6,295.5V177.4H728.5v118.1H846.6z M295.5,846.6V728.5H177.4v118.1H295.5z"/>
			</g>
			<g>
			</g>
		</g>
	</g>
</g>
<g id="_x36_">
</g>
</svg>
