<?xml version="1.0" encoding="utf-8"?>
<!-- Generator: Adobe Illustrator 19.0.0, SVG Export Plug-In . SVG Version: 6.00 Build 0)  -->
<svg version="1.1" xmlns="http://www.w3.org/2000/svg" xmlns:xlink="http://www.w3.org/1999/xlink" x="0px" y="0px"
	 viewBox="0 0 1024 1024" style="enable-background:new 0 0 1024 1024;" xml:space="preserve">
<g id="_x30_">
</g>
<g id="_x33_">
	<g id="LINE_45_">
		<g id="XMLID_1_">
			<g>
				<polygon points="354.5,748.2 354.5,787.6 275.8,787.6 275.8,866.3 236.4,866.3 236.4,787.6 157.7,787.6 157.7,748.2 
					236.4,748.2 236.4,669.5 275.8,669.5 275.8,748.2 				"/>
				<rect x="826.9" y="512" width="39.4" height="39.4"/>
				<rect x="826.9" y="393.9" width="39.4" height="39.4"/>
				<rect x="826.9" y="275.8" width="39.4" height="39.4"/>
				<rect x="826.9" y="157.7" width="39.4" height="39.4"/>
				<rect x="708.8" y="157.7" width="39.4" height="39.4"/>
				<rect x="590.7" y="157.7" width="39.4" height="39.4"/>
				<rect x="472.6" y="157.7" width="39.4" height="39.4"/>
				<path d="M826.9,803.6V945h-39.4V803.6c0-313.3-254-567.2-567.2-567.2H79v-39.4h141.4C555.4,197.1,826.9,468.6,826.9,803.6z"/>
			</g>
			<g>
			</g>
		</g>
	</g>
</g>
<g id="_x36_">
</g>
</svg>
