<?xml version="1.0" encoding="utf-8"?>
<!-- Generator: Adobe Illustrator 19.0.0, SVG Export Plug-In . SVG Version: 6.00 Build 0)  -->
<svg version="1.1" xmlns="http://www.w3.org/2000/svg" xmlns:xlink="http://www.w3.org/1999/xlink" x="0px" y="0px"
	 viewBox="0 0 1024 1024" style="enable-background:new 0 0 1024 1024;" xml:space="preserve">
<g id="_x30_">
</g>
<g id="_x33_">
	<g id="LINE_55_">
		<g id="XMLID_1_">
			<g>
				<rect x="753.5" y="492.3" width="187.5" height="39.4"/>
				<rect x="635.4" y="492.3" width="69.4" height="39.4"/>
				<rect x="501.7" y="626.1" width="39.4" height="69.4"/>
				<rect x="501.7" y="328.5" width="39.4" height="69.4"/>
				<polygon points="604.1,492.3 604.1,531.7 541,531.7 541,594.8 501.7,594.8 501.7,531.7 438.6,531.7 438.6,492.3 501.7,492.3 
					501.7,429.3 541,429.3 541,492.3 				"/>
				<rect x="337.8" y="492.3" width="69.4" height="39.4"/>
				<path d="M945,778.2v59H541v94.5h-39.4v-95.1c-164.1-9.9-295-140.8-305-305h-95.1v-39.4h95.1c9.9-164.1,140.9-295,305-305V92.3
					H541v94.5h404v59H541v34h-39.4v-33.3c-131.5,9.7-236,114.3-245.8,245.8h33.3v39.4h-33.3c9.8,131.5,114.3,236,245.8,245.8v-33.3
					H541v34H945z"/>
			</g>
			<g>
			</g>
		</g>
	</g>
</g>
<g id="_x36_">
</g>
</svg>
