<?xml version="1.0" encoding="utf-8"?>
<!-- Generator: Adobe Illustrator 19.0.0, SVG Export Plug-In . SVG Version: 6.00 Build 0)  -->
<svg version="1.1" xmlns="http://www.w3.org/2000/svg" xmlns:xlink="http://www.w3.org/1999/xlink" x="0px" y="0px"
	 viewBox="0 0 1024 1024" style="enable-background:new 0 0 1024 1024;" xml:space="preserve">
<g id="_x30_">
</g>
<g id="_x33_">
	<g id="LINE_62_">
		<g id="XMLID_1_">
			<g>
				<path d="M943.7,275.8H804.5v196.8L765.1,512l39.4,39.4l-39.4,39.4l39.4,39.4l-39.4,39.4l39.4,39.4l-39.4,39.4l39.4,39.4
					l-39.4,39.4l39.4,39.4l-39.4,39.4V945H573.8l-39.4-39.4l39.4-39.4l-39.4-39.4l39.4-39.4l-39.4-39.4l39.4-39.4l-39.4-39.4
					l39.4-39.4l-39.4-39.4l39.4-39.4L534.5,512V275.8H395.2c39.5-98.9,129.3-168.9,234.9-183.1v104.4h78.7V92.7
					C814.4,106.9,904.2,176.9,943.7,275.8z"/>
				<path d="M382,600.6h-69.6V699l-19.7,19.7l19.7,19.7L292.7,758l19.7,19.7l-19.7,19.7l19.7,19.7l-19.7,19.7l19.7,19.7l-19.7,19.7
					l19.7,19.7l-19.7,19.7V945H187.2l9.8-9.8l-19.7-19.7l19.7-19.7l-19.7-19.7l19.7-19.7l-19.7-19.7l19.7-19.7l-19.7-19.7l19.7-19.7
					L177.4,758l19.7-19.7l-19.7-19.7V600.6h-69.6c19.8-49.5,64.7-84.4,117.4-91.5v52.2h39.4V509C317.4,516.1,362.2,551.1,382,600.6z
					"/>
			</g>
			<g>
			</g>
		</g>
	</g>
</g>
<g id="_x36_">
</g>
</svg>
