<?xml version="1.0" encoding="utf-8"?>
<!-- Generator: Adobe Illustrator 15.1.0, SVG Export Plug-In . SVG Version: 6.00 Build 0)  -->
<!DOCTYPE svg PUBLIC "-//W3C//DTD SVG 1.1//EN" "http://www.w3.org/Graphics/SVG/1.1/DTD/svg11.dtd">
<svg version="1.1" id="Layer_1" xmlns="http://www.w3.org/2000/svg" xmlns:xlink="http://www.w3.org/1999/xlink" x="0px" y="0px"
	 width="128px" height="128px" viewBox="0 0 128 128" enable-background="new 0 0 128 128" xml:space="preserve">
<g id="SPLINE_27_">
	<g id="XMLID_1_">
		<g>
			<path d="M117.6,82.44v26.92c-1.369-2.29-2.83-4.54-4.409-6.7c-1.771-2.42-3.71-4.72-5.881-6.8c-2.17-2.08-4.579-3.94-7.31-5.2
				c-0.68-0.32-1.38-0.601-2.09-0.84l4.47-26.63c0.41,0.13,0.82,0.29,1.21,0.47c2.351,1.08,4.271,3.04,5.94,5.08
				c1.68,2.029,3.12,4.14,4.42,6.39s2.46,4.65,3.52,7.03C117.52,82.25,117.56,82.34,117.6,82.44z"/>
			<path d="M97.01,62.85l-4.37,26.02c-0.46-0.01-0.92,0-1.38,0.02c-2.979,0.181-5.899,1.21-8.47,2.79
				c-2.57,1.59-4.79,3.73-6.73,5.99c-1.729,2.021-3.239,4.15-4.909,6.271l3.569-25.32c0.87-0.46,1.73-0.95,2.57-1.47
				c2.22-1.381,4.35-2.971,6.31-4.67c1.96-1.711,3.75-3.53,5.73-5.271c1.99-1.74,4.17-3.39,6.65-4.11
				C96.32,63,96.66,62.92,97.01,62.85z"/>
			<path d="M68.98,81.05L64.88,110.11c-0.35,0.22-0.71,0.42-1.07,0.6c-2.67,1.29-5.85,1.54-8.68,0.64
				c-2.83-0.909-5.31-2.97-7.47-5.1c-2.16-2.13-4.01-4.34-5.93-6.63c-0.45-0.53-0.9-1.061-1.35-1.59L43.5,77.68
				c1.28,0.761,2.55,1.511,3.89,2.141c2.36,1.1,4.92,1.8,7.5,2.229c2.59,0.431,5.19,0.58,7.78,0.33
				C64.81,82.18,66.93,81.71,68.98,81.05z"/>
			<path d="M38.5,75l-2.85,18.59c-0.13-0.08-0.25-0.16-0.38-0.24c-2.51-1.619-5.54-2.47-8.54-2.699c-3.01-0.23-5.99,0.17-8.87,1.02
				c-2.01,0.6-3.96,1.41-5.85,2.35l2.56-20.46c1.02-0.149,2.05-0.279,3.07-0.39c2.59-0.26,5.17-0.36,7.79-0.38
				c2.62-0.021,5.28,0.05,7.83,0.55C35.07,73.69,36.82,74.26,38.5,75z"/>
			<path d="M42.13,51.38l-2.78,18.13c-1.84-0.689-3.77-1.17-5.71-1.5c-2.72-0.45-5.48-0.6-8.24-0.59c-2.76,0.01-5.51,0.16-8.25,0.44
				c-0.63,0.069-1.26,0.14-1.9,0.22l2.46-19.63c0.87,0.02,1.74,0.05,2.6,0.09c2.56,0.11,5.1,0.3,7.65,0.53s5.1,0.49,7.62,0.92
				C37.78,50.36,39.96,50.85,42.13,51.38z"/>
			<path d="M73.17,51.3l-3.34,23.73c-1.63,0.7-3.32,1.26-5.04,1.63c-2.69,0.56-5.49,0.63-8.22,0.26c-2.74-0.38-5.41-1.189-7.88-2.42
				c-1.48-0.73-2.89-1.62-4.32-2.48l2.98-19.359c1.06,0.24,2.13,0.45,3.2,0.63c2.53,0.4,5.1,0.56,7.66,0.54
				c2.55-0.03,5.1-0.22,7.62-0.65C68.32,52.76,70.78,52.11,73.17,51.3z"/>
			<path d="M101.73,34.76l-3.78,22.55c-1.98,0.17-3.95,0.74-5.76,1.56c-2.5,1.15-4.71,2.82-6.78,4.65
				c-2.07,1.82-3.99,3.82-6.09,5.59c-1.16,0.979-2.38,1.89-3.65,2.729l3.23-22.91c0.47-0.22,0.93-0.46,1.39-0.7
				c2.27-1.18,4.47-2.55,6.55-4.02c2.08-1.46,4.03-3.04,6.021-4.69c1.979-1.65,4.01-3.37,6.409-4.22
				C100.06,35.03,100.89,34.84,101.73,34.76z"/>
			<path d="M117.6,52.92v17.91c-1.109-1.8-2.31-3.54-3.649-5.17c-1.74-2.14-3.7-4.12-6.01-5.63c-1.44-0.93-3.021-1.69-4.66-2.18
				l3.71-22.1c2.1,1.15,3.72,3.23,5.08,5.31c1.42,2.17,2.56,4.35,3.56,6.68C116.35,49.41,117,51.17,117.6,52.92z"/>
			<path d="M117.6,34.98v4.8c-0.25-0.42-0.5-0.83-0.77-1.24c-1.45-2.28-3.15-4.43-5.271-6.09c-1.119-0.87-2.35-1.6-3.659-2.14
				l2.89-17.2c0.88,0.87,1.65,1.9,2.26,3c1.641,2.96,2.141,6.43,2.86,9.68C116.63,29.03,117.57,32.06,117.6,34.98z"/>
			<path d="M105.8,10.54l-3.149,18.74c-2.16,0.04-4.351,0.61-6.33,1.51c-2.46,1.12-4.61,2.74-6.7,4.43c-2.11,1.7-4.16,3.46-6.36,5
				C82.15,41,81,41.72,79.82,42.4l2.38-16.9c2.22-1.59,4.35-3.38,6.34-5.04c2.49-2.09,4.77-3.98,7.62-5.98
				c2.85-2.01,6.27-4.13,9.37-3.96C105.62,10.52,105.71,10.53,105.8,10.54z"/>
			<path d="M76.31,29.04l-2.29,16.21c-1.739,0.73-3.51,1.35-5.319,1.84c-2.601,0.7-5.28,1.11-7.97,1.3
				c-2.69,0.18-5.41,0.14-8.08-0.21c-1.5-0.2-3-0.49-4.49-0.83l1.96-12.72c0.63,0.02,1.26,0.02,1.9,0.02
				c3.33,0.01,6.65-0.23,9.94-0.84c3.29-0.6,6.54-1.57,9.64-2.75C73.21,30.45,74.77,29.79,76.31,29.04z"/>
			<path d="M44.76,34.27l-1.81,11.82c-2.02-0.49-4.05-0.96-6.09-1.32c-2.65-0.46-5.34-0.74-8.03-0.99
				c-2.69-0.24-5.37-0.45-8.06-0.57c-0.8-0.04-1.6-0.07-2.4-0.09l1.93-15.41c0.82,0.33,1.64,0.66,2.47,0.98
				c3.12,1.19,6.28,2.24,9.5,3.13c3.21,0.89,6.47,1.62,9.77,2.1C42.95,34.05,43.85,34.17,44.76,34.27z"/>
			<path d="M125.62,34.98v88.23h-9.84c-1.82-3.979-3.07-6.31-4.44-8.66c-1.37-2.359-2.859-4.74-4.46-6.939
				c-1.59-2.19-3.29-4.19-5.3-6.101s-4.32-3.729-6.92-4.33c-2.61-0.609-5.49,0-7.83,1.391c-2.34,1.39-4.14,3.56-5.811,5.739
				c-1.68,2.181-3.239,4.37-5.02,6.421c-1.78,2.05-3.79,3.96-6.03,5.52c-2.25,1.56-4.729,2.78-7.39,3.36s-5.5,0.529-8.14-0.13
				c-2.63-0.65-5.08-1.9-7.36-3.41c-2.29-1.521-4.42-3.29-6.3-5.25c-1.87-1.96-3.49-4.09-5.26-6.221
				c-1.77-2.119-3.7-4.239-6.15-5.25c-2.45-1.01-5.43-0.909-8.12-0.29c-2.69,0.631-5.08,1.78-7.47,3.11
				c-2.38,1.33-4.76,2.84-11.78,7.29l11.67-93.37c6.57,2.92,9.82,4.32,13.15,5.55c3.32,1.23,6.71,2.29,10.16,3.12
				c3.44,0.83,6.94,1.42,10.47,1.7c3.54,0.28,7.11,0.26,10.62-0.18c3.51-0.44,6.97-1.31,10.291-2.55
				c3.319-1.24,6.51-2.86,9.409-4.89c2.9-2.04,5.511-4.5,8.23-6.76c2.71-2.26,5.53-4.34,8.63-6.1c3.101-1.77,6.48-3.24,10-3.44
				c3.521-0.21,7.17,0.84,9.95,2.97c2.79,2.13,4.71,5.33,6.16,8.6c1.45,3.26,2.43,6.59,3.189,10.05
				C124.68,27.63,125.21,31.23,125.62,34.98z M122.94,120.53V34.98C119.38,2.9,106.75-3.28,85.04,16.45
				c-17.5,15.92-40.56,17.07-69.16,3.45L5.31,104.52c14.26-10.71,24.87-11.43,31.83-2.14c14.43,19.23,27.879,19.93,40.36,2.11
				c12.47-17.82,25.84-12.48,40.1,16.04H122.94z"/>
		</g>
		<g>
		</g>
	</g>
</g>
</svg>
