<?xml version="1.0" encoding="utf-8"?>
<!-- Generator: Adobe Illustrator 19.0.0, SVG Export Plug-In . SVG Version: 6.00 Build 0)  -->
<svg version="1.1" xmlns="http://www.w3.org/2000/svg" xmlns:xlink="http://www.w3.org/1999/xlink" x="0px" y="0px"
	 viewBox="0 0 1024 1024" style="enable-background:new 0 0 1024 1024;" xml:space="preserve">
<g id="_x30_">
</g>
<g id="_x33_">
	<g id="LINE_52_">
		<g id="XMLID_1_">
			<g>
				<polygon points="211,840.8 132.3,919.6 104.4,891.8 183.1,813 				"/>
				<polygon points="289.7,762.1 250.4,801.5 222.5,773.7 261.9,734.3 				"/>
				<rect x="298.9" y="649.8" transform="matrix(0.7071 -0.7071 0.7071 0.7071 -369.5424 446.7758)" width="111.3" height="39.4"/>
				<polygon points="919.6,132.3 840.8,211 813,183.1 891.8,104.4 				"/>
				<polygon points="801.5,250.4 762.1,289.7 734.3,261.9 773.7,222.5 				"/>
				<rect x="613.8" y="334.8" transform="matrix(0.7071 -0.7071 0.7071 0.7071 -54.6123 577.2241)" width="111.3" height="39.4"/>
				<path d="M864.2,476.4c42,97.9,28,210.9-36.6,295.6l-73.8-73.8l-55.7,55.7l73.8,73.8c-84.7,64.6-197.6,78.6-295.6,36.6l98.5-98.5
					l-167-167V543h-55.7v-55.7h-55.7v-55.7h-55.7V376h-55.7v-36.4L146,300.5l140.7-143.2h58.6v55.7h58.6v55.7h55.7v55.7h55.7V380
					h55.7v55.7h55.7l139.2,139.2L864.2,476.4z"/>
			</g>
			<g>
			</g>
		</g>
	</g>
</g>
<g id="_x36_">
</g>
</svg>
