<?xml version="1.0" encoding="utf-8"?>
<!-- Generator: Adobe Illustrator 19.0.0, SVG Export Plug-In . SVG Version: 6.00 Build 0)  -->
<svg version="1.1" xmlns="http://www.w3.org/2000/svg" xmlns:xlink="http://www.w3.org/1999/xlink" x="0px" y="0px"
	 viewBox="0 0 1024 1024" style="enable-background:new 0 0 1024 1024;" xml:space="preserve">
<g id="_x30_">
</g>
<g id="_x33_">
	<g id="LINE_31_">
		<g id="XMLID_1_">
			<g>
				<path d="M786.3,275.8H647v196.8L607.6,512l39.4,39.4l-39.4,39.4l39.4,39.4l-39.4,39.4l39.4,39.4l-39.4,39.4l39.4,39.4
					l-39.4,39.4l39.4,39.4l-39.4,39.4V945H416.4L377,905.7l39.4-39.4L377,826.9l39.4-39.4L377,748.2l39.4-39.4L377,669.5l39.4-39.4
					L377,590.7l39.4-39.4L377,512v-39.4V275.8H237.7C277.3,176.9,367,106.9,472.6,92.7v104.4h78.7V92.7
					C657,106.9,746.7,176.9,786.3,275.8z"/>
			</g>
			<g>
			</g>
		</g>
	</g>
</g>
<g id="_x36_">
</g>
</svg>
