<?xml version="1.0" encoding="utf-8"?>
<!-- Generator: Adobe Illustrator 19.0.0, SVG Export Plug-In . SVG Version: 6.00 Build 0)  -->
<svg version="1.1" xmlns="http://www.w3.org/2000/svg" xmlns:xlink="http://www.w3.org/1999/xlink" x="0px" y="0px"
	 viewBox="0 0 1024 1024" style="enable-background:new 0 0 1024 1024;" xml:space="preserve">
<g id="_x30_">
</g>
<g id="_x33_">
	<g id="LINE_38_">
		<g id="XMLID_1_">
			<g>
				<path d="M628.8,905.7H472.6V945H236.4v-39.4H80.3c39.5-98.9,129.3-168.9,234.9-183.1v104.4h78.7V722.6
					C499.5,736.8,589.3,806.7,628.8,905.7z"/>
				<path d="M589.5,629v7.9H409V629c18.2-1,30.5-4.4,37-10.2c6.4-5.8,9.7-12.8,9.7-21.1c0-11.1-4.5-28.5-13.5-52.4L419,487.2H240.8
					l-29.4,68.4c-7.6,19-11.4,33.2-11.4,42.6c0,7.5,3.3,14,10,19.7c6.7,5.7,21,9.3,43.1,11.1v7.9H107.8V629
					c19.2-3.7,31.6-8.5,37.2-14.3c11.6-11.7,24.3-35.6,38.3-71.5l160.1-370.9h17l150.3,376.9c12.9,32.6,24.6,53.7,35.1,63.4
					C556.2,622.3,570.8,627.7,589.5,629z M409.5,463.6l-76-185.4L251,463.6H409.5z"/>
				<path d="M882,724.6V764h-15.8c-65.2,0-118.1-52.9-118.1-118.1c0,65.2-52.9,118.1-118.1,118.1h-15.8v-39.4h15.8
					c43.5,0,78.7-35.3,78.7-78.7V433.3V220.7c0-43.5-35.3-78.7-78.7-78.7h-15.8v-39.4h15.8c65.2,0,118.1,52.9,118.1,118.1
					c0-65.2,52.9-118.1,118.1-118.1H882v39.4h-15.8c-43.5,0-78.7,35.3-78.7,78.7v212.6v212.6c0,43.5,35.3,78.7,78.7,78.7H882z"/>
			</g>
			<g>
			</g>
		</g>
	</g>
</g>
<g id="_x36_">
</g>
</svg>
