<?xml version="1.0" encoding="utf-8"?>
<!-- Generator: Adobe Illustrator 19.0.0, SVG Export Plug-In . SVG Version: 6.00 Build 0)  -->
<svg version="1.1" xmlns="http://www.w3.org/2000/svg" xmlns:xlink="http://www.w3.org/1999/xlink" x="0px" y="0px"
	 viewBox="0 0 1024 1024" style="enable-background:new 0 0 1024 1024;" xml:space="preserve">
<g id="_x30_">
</g>
<g id="_x33_">
	<g id="CIRCLE">
		<g id="XMLID_1_">
			<g>
				<path d="M589.4,275.8H450.2v196.8L410.8,512l39.4,39.4l-39.4,39.4l39.4,39.4l-39.4,39.4l39.4,39.4l-39.4,39.4l39.4,39.4
					l-39.4,39.4l39.4,39.4l-39.4,39.4V945H219.5l-39.4-39.4l39.4-39.4l-39.4-39.4l39.4-39.4l-39.4-39.4l39.4-39.4l-39.4-39.4
					l39.4-39.4l-39.4-39.4l39.4-39.4L180.2,512v-39.4V275.8H40.9c39.5-98.9,129.3-168.9,234.9-183.1v104.4h78.7V92.7
					C460.1,106.9,549.9,176.9,589.4,275.8z"/>
				<path d="M949.4,502.5v255.1L728.5,885.2L507.6,757.7V502.5L728.5,375L949.4,502.5z M843.5,630.1c0-63.5-51.5-115-115-115
					c-63.5,0-115,51.5-115,115s51.5,115,115,115C792,745.1,843.5,693.6,843.5,630.1z"/>
			</g>
			<g>
			</g>
		</g>
	</g>
</g>
<g id="_x36_">
</g>
</svg>
