<?xml version="1.0" encoding="utf-8"?>
<!-- Generator: Adobe Illustrator 19.0.0, SVG Export Plug-In . SVG Version: 6.00 Build 0)  -->
<svg version="1.1" xmlns="http://www.w3.org/2000/svg" xmlns:xlink="http://www.w3.org/1999/xlink" x="0px" y="0px"
	 viewBox="0 0 1024 1024" style="enable-background:new 0 0 1024 1024;" xml:space="preserve">
<g id="_x30_">
</g>
<g id="_x33_">
	<g id="LINE_22_">
		<g id="XMLID_1_">
			<g>
				<path d="M786.3,787.6H630.1V945H393.9V787.6H237.7c39.6-98.9,129.3-168.9,234.9-183.1v104.4h78.7V604.5
					C657,618.7,746.7,688.6,786.3,787.6z"/>
				<path d="M746.9,510.9v7.9H566.5v-7.9c18.2-1,30.5-4.4,37-10.1c6.4-5.8,9.7-12.8,9.7-21.1c0-11.1-4.5-28.5-13.5-52.4l-23.1-58.1
					H398.3l-29.4,68.4c-7.6,19-11.4,33.2-11.4,42.6c0,7.5,3.3,14,10,19.7c6.6,5.7,21,9.4,43.1,11.1v7.9H265.3v-7.9
					c19.2-3.7,31.6-8.5,37.2-14.3c11.6-11.7,24.3-35.6,38.3-71.5l160-370.9h17l150.3,376.9c12.9,32.6,24.6,53.7,35.1,63.4
					C713.6,504.2,728.2,509.6,746.9,510.9z M567,345.5l-76-185.4l-82.4,185.4H567z"/>
			</g>
			<g>
			</g>
		</g>
	</g>
</g>
<g id="_x36_">
</g>
</svg>
