<?xml version="1.0" encoding="utf-8"?>
<!-- Generator: Adobe Illustrator 19.0.0, SVG Export Plug-In . SVG Version: 6.00 Build 0)  -->
<svg version="1.1" id="_x33_" xmlns="http://www.w3.org/2000/svg" xmlns:xlink="http://www.w3.org/1999/xlink" x="0px" y="0px"
	 viewBox="0 0 1024 1024" style="enable-background:new 0 0 1024 1024;" xml:space="preserve">
<style type="text/css">
	.st0{fill:url(#SVGID_1_);}
	.st1{fill:none;stroke:#000000;stroke-width:10;stroke-linecap:round;stroke-linejoin:round;stroke-miterlimit:10;}
</style>
<g id="LINE_9_">
	<g id="XMLID_1_">
		<g>
			<linearGradient id="SVGID_1_" gradientUnits="userSpaceOnUse" x1="182.61" y1="696.89" x2="834.95" y2="696.89">
				<stop  offset="0" style="stop-color:#FF0000"/>
				<stop  offset="1" style="stop-color:#000000"/>
			</linearGradient>
			<polygon class="st0" points="835,394 835,999.8 182.6,999.8 182.6,394 237.1,394 330.3,394 687.3,394 780.5,394 			"/>
			<path d="M780.5,300.8V394h-93.2v-93.2c0-98.6-79.9-178.5-178.5-178.5c-98.6,0-178.5,79.9-178.5,178.5V394h-93.2v-93.2
				c0-150,121.6-271.7,271.7-271.7C658.8,29.1,780.5,150.8,780.5,300.8z"/>
		</g>
		<g>
			<line class="st1" x1="780.5" y1="394" x2="780.5" y2="300.8"/>
			<line class="st1" x1="687.3" y1="394" x2="687.3" y2="300.8"/>
			<path class="st1" d="M687.3,300.8c0-98.6-79.9-178.5-178.5-178.5c-98.6,0-178.5,79.9-178.5,178.5"/>
			<line class="st1" x1="330.3" y1="300.8" x2="330.3" y2="394"/>
			<line class="st1" x1="237.1" y1="394" x2="237.1" y2="300.8"/>
			<path class="st1" d="M780.5,300.8c0-150-121.6-271.7-271.7-271.7c-150.1,0-271.7,121.7-271.7,271.7"/>
			<line class="st1" x1="182.6" y1="394" x2="182.6" y2="999.8"/>
			<polyline class="st1" points="835,394 780.5,394 687.3,394 330.3,394 237.1,394 182.6,394 			"/>
			<line class="st1" x1="835" y1="999.8" x2="835" y2="394"/>
			<line class="st1" x1="182.6" y1="999.8" x2="835" y2="999.8"/>
		</g>
	</g>
</g>
</svg>
