<?xml version="1.0" encoding="utf-8"?>
<!-- Generator: Adobe Illustrator 19.0.0, SVG Export Plug-In . SVG Version: 6.00 Build 0)  -->
<svg version="1.1" id="_x33_" xmlns="http://www.w3.org/2000/svg" xmlns:xlink="http://www.w3.org/1999/xlink" x="0px" y="0px"
	 viewBox="0 0 1024 1024" style="enable-background:new 0 0 1024 1024;" xml:space="preserve">
<style type="text/css">
	.st0{fill:url(#SVGID_1_);}
	.st1{fill:none;stroke:#000000;stroke-width:10;stroke-linecap:round;stroke-linejoin:round;stroke-miterlimit:10;}
</style>
<g id="LINE_9_">
	<g id="XMLID_1_">
		<g>
			<linearGradient id="SVGID_1_" gradientUnits="userSpaceOnUse" x1="29.24" y1="703.315" x2="622.87" y2="703.315">
				<stop  offset="0" style="stop-color:#00FF00"/>
				<stop  offset="1" style="stop-color:#000000"/>
			</linearGradient>
			<polygon class="st0" points="622.9,427.7 622.9,978.9 29.2,978.9 29.2,427.7 502.8,427.7 587.6,427.7 			"/>
			<path d="M997.3,342.9v42.4h-84.8v-42.4c0-89.7-72.7-162.4-162.5-162.4c-89.7,0-162.4,72.7-162.4,162.4v84.8h-84.8v-84.8
				c0-136.6,110.7-247.3,247.3-247.3C886.6,95.6,997.3,206.3,997.3,342.9z"/>
		</g>
		<g>
			<line class="st1" x1="997.3" y1="385.3" x2="997.3" y2="342.9"/>
			<line class="st1" x1="912.5" y1="385.3" x2="997.3" y2="385.3"/>
			<line class="st1" x1="912.5" y1="342.9" x2="912.5" y2="385.3"/>
			<line class="st1" x1="502.8" y1="427.7" x2="502.8" y2="342.9"/>
			<line class="st1" x1="587.6" y1="427.7" x2="587.6" y2="342.9"/>
			<path class="st1" d="M587.6,342.9c0-89.7,72.7-162.4,162.4-162.4c89.7,0,162.5,72.7,162.5,162.4"/>
			<path class="st1" d="M502.8,342.9c0-136.6,110.7-247.3,247.3-247.3c136.6,0,247.3,110.7,247.3,247.3"/>
			<line class="st1" x1="29.2" y1="427.7" x2="29.2" y2="978.9"/>
			<polyline class="st1" points="622.9,427.7 587.6,427.7 502.8,427.7 29.2,427.7 			"/>
			<line class="st1" x1="622.9" y1="978.9" x2="622.9" y2="427.7"/>
			<line class="st1" x1="29.2" y1="978.9" x2="622.9" y2="978.9"/>
		</g>
	</g>
</g>
</svg>
