<?xml version="1.0" encoding="utf-8"?>
<!-- Generator: Adobe Illustrator 19.0.0, SVG Export Plug-In . SVG Version: 6.00 Build 0)  -->
<svg version="1.1" id="Layer_1" xmlns="http://www.w3.org/2000/svg" xmlns:xlink="http://www.w3.org/1999/xlink" x="0px" y="0px"
	 viewBox="0 0 1024 1024" style="enable-background:new 0 0 1024 1024;" xml:space="preserve">
<g id="LINE_47_">
	<g id="XMLID_1_">
		<g id="XMLID_48_">
			<polygon id="XMLID_58_" points="868.3,771.2 868.3,814.1 805.9,875.6 763,875.6 			"/>
			<polygon id="XMLID_57_" points="868.3,655.2 868.3,698 690.7,875.6 647.9,875.6 			"/>
			<polygon id="XMLID_56_" points="868.3,526.6 868.3,569.4 562.1,875.6 519.3,875.6 			"/>
			<polygon id="XMLID_55_" points="868.3,398 868.3,440.8 433.5,875.6 390.7,875.6 			"/>
			<polygon id="XMLID_54_" points="868.3,269.4 868.3,312.3 305,875.6 262.1,875.6 			"/>
			<polygon id="XMLID_53_" points="782.5,269.4 262.1,789.8 262.1,747 739.7,269.4 			"/>
			<polygon id="XMLID_52_" points="654,269.4 262.1,661.3 262.1,618.4 611.1,269.4 			"/>
			<polygon id="XMLID_51_" points="525.4,269.4 262.1,532.7 262.1,489.8 482.5,269.4 			"/>
			<polygon id="XMLID_50_" points="853.1,95.1 853.1,231 815.2,231 815.2,133 300.5,133 171.1,262.3 171.1,815 231.2,815 
				231.2,852.8 133.3,852.8 133.3,246.6 284.8,95.1 			"/>
		</g>
		<g id="XMLID_49_">
		</g>
	</g>
</g>
</svg>
