<?xml version="1.0" encoding="utf-8"?>
<!-- Generator: Adobe Illustrator 19.0.0, SVG Export Plug-In . SVG Version: 6.00 Build 0)  -->
<svg version="1.1" xmlns="http://www.w3.org/2000/svg" xmlns:xlink="http://www.w3.org/1999/xlink" x="0px" y="0px"
	 viewBox="0 0 1024 1024" style="enable-background:new 0 0 1024 1024;" xml:space="preserve">
<g id="_x30_">
</g>
<g id="_x33_">
	<g id="SPLINE_5_">
		<g id="XMLID_1_">
			<g>
				<path d="M940.2,163.2c7.3,13,6.6,28.9-1.8,41.3L546.3,783.9L330.9,929.3c-23.8-6.8-38-13-52-19.7c-14-6.7-27.6-13.7-41-21.3
					c-13.4-7.5-26.5-15.6-39-24.5c-12.5-8.9-24.5-18.6-35.6-29.2s-21.6-21.9-30.8-34.3c-9.2-12.3-17.1-25.6-23.6-39.5
					c-6.4-13.9-11.4-28.5-15.4-43.4c-4-14.8-7.1-29.9-9.2-45.1c-2.1-15.2-3.3-30.5-4.3-45.9c-0.9-15.4-1.7-30.8-0.6-46.1
					c1.1-15.3,4-30.5,9.2-45c5.1-14.5,12.5-28.2,21.2-40.9s18.8-24.4,29.8-35.1c11-10.7,23-20.4,35.5-29.4
					c12.5-9,25.5-17.2,38.9-24.8s27-14.5,41-21c14-6.5,28.1-12.6,42.4-18.2c14.3-5.6,28.6-10.6,42.9-16.4
					c14.3-5.8,28.6-12.2,42.1-19.4c13.4-7.2,26-15.2,38.1-25.1c12.1-9.9,23.7-21.6,29.3-35.6c5.6-14,5.2-30.2,1.2-45.1
					c-4-14.9-11.6-28.5-21.1-40.8c-9.5-12.2-20.8-23.1-34.3-30c-13.5-7-29.3-10.1-44.7-10.9c-15.5-0.8-30.6,0.6-45.7,3.3
					c-15.1,2.7-30.1,6.6-44.8,11.3c-14.7,4.7-28.9,10.2-43.1,16.1c-14.1,6-28.2,12.5-41.9,19.4c-6.2-12.1-12.1-23.8-17.6-35.2
					C315.2,79,420.1,85.5,472.6,177.4c52.5,91.9,6.6,164-137.8,216.5S118.3,512,118.3,590.7c0,78.7,13.1,137.8,39.4,177.2
					c26.3,39.4,69.1,73,128.6,101c10.8,5.1,29.3,11.6,55.6,19.7l53.8-199.6l393.8-580.3c7.4-14.5,22.9-23,39.1-21.4
					C877.5,92.4,914.8,117.6,940.2,163.2z M909.8,204.7c9.8-14.3,9.1-33.3-1.7-46.9c-17.3-21.6-38.1-36.3-62.5-44
					c-16.5-5.2-34.4,0.9-44.2,15.1l0.1,0.1l-62,89.3c47.3,8,83.5,33.6,108.6,76.7l62-90.1L909.8,204.7z M527.5,773
					c10-40.6-14.8-81.6-55.4-91.6c-21.7-5.4-44.7-0.8-62.8,12.4l-30.7,136.8l31.6,20.3L527.5,773z"/>
			</g>
			<g>
			</g>
		</g>
	</g>
</g>
<g id="_x36_">
</g>
</svg>
