<?xml version="1.0" encoding="utf-8"?>
<!-- Generator: Adobe Illustrator 19.0.0, SVG Export Plug-In . SVG Version: 6.00 Build 0)  -->
<svg version="1.1" xmlns="http://www.w3.org/2000/svg" xmlns:xlink="http://www.w3.org/1999/xlink" x="0px" y="0px"
	 viewBox="0 0 1024 1024" style="enable-background:new 0 0 1024 1024;" xml:space="preserve">
<g id="_x30_">
</g>
<g id="_x33_">
	<g id="SPLINE_5_">
		<g id="XMLID_1_">
			<g>
				<path d="M141.9,522.8l28.5,33.5c-1.9,4.8-3.6,9.6-5.2,14.5c-6.5,19.5-11.2,39.8-14.6,60.2c-3.4,20.4-5.7,40.9-7,61.5
					c-1.4,20.6-1.8,41.3-1.6,61.9c0.2,20.6,1,41.3,2.3,61.9c1.3,20.6,3.1,41.2,5.3,61.7c2.2,20.5,4.8,41,8.1,67h-39.4
					C92.1,761.3,98.7,623.5,138,531.7C139.3,528.7,140.6,525.7,141.9,522.8z"/>
				<polygon points="331.5,377.6 275.8,433.3 331.5,488.9 303.6,516.8 248,461.1 192.3,516.8 164.5,488.9 220.1,433.3 164.5,377.6 
					192.3,349.8 248,405.4 303.6,349.8 				"/>
				<path d="M708.8,590.7l-37.2,37.2c-6.2-0.8-12.3-1.8-18.5-3c-20.3-3.9-40.1-10-59-18.3c-18.9-8.3-36.8-18.9-53.3-31.3
					c-16.5-12.4-31.6-26.6-45.4-42c-13.8-15.3-26.4-31.7-41.4-45.9c-15-14.2-32.3-26.3-51-35.1c-15.6-7.4-32.2-12.5-49.2-15.7
					l36.5-31.6c46.3,14.7,86.9,43.7,121.6,87.2C564.5,557.9,630.1,590.7,708.8,590.7z"/>
				<polygon points="854.8,507.2 882.6,535.1 826.9,590.7 882.6,646.4 854.8,674.2 799.1,618.6 743.4,674.2 715.6,646.4 
					771.3,590.7 715.6,535.1 743.4,507.2 799.1,562.9 				"/>
				<path d="M912.4,365.2c1.7,20.6,1.7,41.4-0.9,61.9c-2.6,20.4-7.8,40.5-14.8,60c-0.7,1.9-1.4,3.8-2.1,5.8l-33.9-22.1
					c2-5.7,3.8-11.6,5.6-17.7c24.3-85.2-7.8-209.9-96.3-374.1l44.5-0.1c8.8,16.8,17.3,33.8,25.4,51c8.8,18.6,17.3,37.5,25.1,56.6
					c7.8,19.1,15,38.4,21.5,58.1c6.4,19.6,12.1,39.5,16.6,59.7C907.5,324.2,910.8,344.6,912.4,365.2z"/>
			</g>
			<g>
			</g>
		</g>
	</g>
</g>
<g id="_x36_">
</g>
</svg>
