<?xml version="1.0" encoding="utf-8"?>
<!-- Generator: Adobe Illustrator 19.0.0, SVG Export Plug-In . SVG Version: 6.00 Build 0)  -->
<svg version="1.1" xmlns="http://www.w3.org/2000/svg" xmlns:xlink="http://www.w3.org/1999/xlink" x="0px" y="0px"
	 viewBox="0 0 1024 1024" style="enable-background:new 0 0 1024 1024;" xml:space="preserve">
<g id="_x30_">
</g>
<g id="_x33_">
	<g id="LINE_22_">
		<g id="XMLID_1_">
			<g>
				<polygon points="338.2,115.5 254.7,199.1 303.6,248 248,303.6 199.1,254.7 115.5,338.2 115.5,115.5 				"/>
				<polygon points="421.7,366.1 366.1,421.7 287.3,343 343,287.3 				"/>
				<path d="M945,275.8v42.4c-122-53.3-264.5-3-326,115h11.1v196.8h-80.9C486.1,764.2,381.8,874.5,251.4,945h-93.7
					c150.8-58.4,274.7-170.6,347.7-314.9h-72.1V433.3h142.1C637.5,291.2,799.6,222.1,945,275.8z M590.7,590.7V472.6H472.6v118.1
					H590.7z"/>
			</g>
			<g>
			</g>
		</g>
	</g>
</g>
<g id="_x36_">
</g>
</svg>
