<?xml version="1.0" encoding="utf-8"?>
<!-- Generator: Adobe Illustrator 19.0.0, SVG Export Plug-In . SVG Version: 6.00 Build 0)  -->
<svg version="1.1" xmlns="http://www.w3.org/2000/svg" xmlns:xlink="http://www.w3.org/1999/xlink" x="0px" y="0px"
	 viewBox="0 0 1024 1024" style="enable-background:new 0 0 1024 1024;" xml:space="preserve">
<g id="_x30_">
</g>
<g id="_x33_">
	<g id="SPLINE_1_">
		<g id="XMLID_1_">
			<g>
				<path d="M912.4,365.2c1.7,20.6,1.7,41.4-0.9,61.9c-2.6,20.4-7.8,40.5-14.8,60c-7,19.5-15.7,38.3-26.9,55.7
					c-11.1,17.4-24.6,33.3-40.5,46.5c-15.9,13.1-34.3,23.5-53.7,30.3c-19.5,6.7-40.1,9.9-60.8,10.5c-20.7,0.7-41.3-1.1-61.6-5
					c-20.3-3.9-40.1-10-59-18.3c-18.9-8.3-36.8-18.9-53.3-31.3c-16.5-12.4-31.6-26.6-45.4-42c-13.8-15.3-26.4-31.7-41.4-45.9
					c-15-14.2-32.3-26.3-51-35.1c-18.6-8.8-38.5-14.4-59-17.3c-20.5-2.9-41.7-3.1-61.7,1.9c-20,5-38.7,15.1-54.1,28.8
					c-15.4,13.6-27.6,30.8-37.8,48.8c-10.3,18-18.7,36.8-25.2,56.3c-6.5,19.5-11.2,39.8-14.6,60.2c-3.4,20.4-5.7,40.9-7,61.5
					c-1.4,20.6-1.8,41.3-1.6,61.9c0.2,20.6,1,41.3,2.3,61.9c1.3,20.6,3.1,41.2,5.3,61.7c2.2,20.5,4.8,41,8.1,67h-39.4
					C92.1,761.3,98.7,623.5,138,531.7c39.4-91.9,98.4-137.8,177.2-137.8c78.7,0,144.3,32.8,196.8,98.4s118.1,98.4,196.8,98.4
					c78.7,0,131.2-45.9,157.5-137.8c24.3-85.2-7.8-209.9-96.3-374.1l44.5-0.1c8.8,16.8,17.3,33.8,25.4,51
					c8.8,18.6,17.3,37.5,25.1,56.6c7.8,19.1,15,38.4,21.5,58.1c6.4,19.6,12.1,39.5,16.6,59.7C907.5,324.2,910.8,344.6,912.4,365.2z"
					/>
			</g>
			<g>
			</g>
		</g>
	</g>
</g>
<g id="_x36_">
</g>
</svg>
