<?xml version="1.0" encoding="utf-8"?>
<!-- Generator: Adobe Illustrator 19.0.0, SVG Export Plug-In . SVG Version: 6.00 Build 0)  -->
<svg version="1.1" xmlns="http://www.w3.org/2000/svg" xmlns:xlink="http://www.w3.org/1999/xlink" x="0px" y="0px"
	 viewBox="0 0 1024 1024" style="enable-background:new 0 0 1024 1024;" xml:space="preserve">
<g id="_x30_">
</g>
<g id="_x33_">
	<g id="LINE_15_">
		<g id="XMLID_1_">
			<g>
				<path d="M787.6,79h39.4c0,183.7-98.4,282.1-295.3,295.3c-35.1,2.3-67.9,10.3-98.4,23.9v74.5h-101
					C247.6,565.2,189.5,722.7,157.7,945l-39-5.6c4.4-30.6,9.4-61.1,15.2-91.4c5.8-30.4,12.4-60.6,20.1-90.5
					c7.7-29.9,16.3-59.6,26.3-88.9c10-29.3,21.4-58.1,34.5-86c13.1-28,28-55.1,45.1-80.9c6.6-10,13.6-19.7,20.9-29.1h-44.4V275.8
					h196.8v79.6c14.9-5.7,30.1-10.3,45.6-13.5c30.2-6.2,61.3-7.3,91.9-11.6c30.6-4.2,60.8-11.6,89.1-24.1
					c28.3-12.5,54.7-30.3,74.8-53.6c20.1-23.3,33.8-52.2,41.9-82C784.8,140.8,787.3,110,787.6,79z M393.9,433.3V315.2H275.8v118.1
					H393.9z"/>
				<rect x="393.9" y="630.1" width="433" height="118.1"/>
			</g>
			<g>
			</g>
		</g>
	</g>
</g>
<g id="_x36_">
</g>
</svg>
