<?xml version="1.0" encoding="utf-8"?>
<!-- Generator: Adobe Illustrator 19.0.0, SVG Export Plug-In . SVG Version: 6.00 Build 0)  -->
<svg version="1.1" xmlns="http://www.w3.org/2000/svg" xmlns:xlink="http://www.w3.org/1999/xlink" x="0px" y="0px"
	 viewBox="0 0 1024 1024" style="enable-background:new 0 0 1024 1024;" xml:space="preserve">
<g id="_x30_">
</g>
<g id="_x33_">
	<g id="LINE_11_">
		<g id="XMLID_1_">
			<g>
				<path d="M945,157.7V226c-9.2,4.7-18.7,8.9-28.3,12.6c-21.4,8.3-43.7,14.3-66.4,18.1c-22.7,3.8-45.6,5.5-68.6,5.5
					c-23,0-45.9-1.6-68.7-4.3c-22.8-2.7-45.5-6.6-68-11.1c-22.5-4.5-44.9-9.7-67.2-15.2c-22.3-5.5-44.6-11.3-66.8-17
					c-22.3-5.7-44.5-11.4-66.9-16.8c-22.3-5.4-44.8-10.3-67.4-14.5c-22.6-4.2-45.3-7.6-68.2-9.8s-45.9-2.9-68.8-1.6
					c-22.9,1.3-45.8,4.6-67.9,10.7c-11.5,3.2-22.8,7.1-92.8,43v-67.9C354.5,0.2,708.8,315.2,945,157.7z"/>
				<path d="M945,433.3V503c-9.7,5.7-19.5,11.2-29.5,16.4c-21.4,11.1-43.6,21-66.4,29c-22.8,8-46.2,14.2-70.1,18.1
					c-23.9,3.9-48.2,5.4-72.3,4.1c-24.1-1.3-48-5.3-71.3-12c-23.3-6.6-45.9-15.8-67.1-27.3c-21.2-11.6-41-25.5-59.9-40.6
					s-36.9-31.4-57.4-44.1c-20.5-12.7-43.5-21.7-67.1-27c-23.6-5.3-47.8-7-71.9-5.5c-24.1,1.5-48,6.2-71.3,12.7
					c-23.3,6.5-45.9,15-68,24.8c-13.1,5.8-26,12.1-93.9,49v-67.4c183.7-105,334.6-105,452.7,0C649.8,538.2,787.6,538.2,945,433.3z"
					/>
				<polygon points="945,716.6 945,787.6 708.8,945 354.5,630.1 79,787.6 79,719.5 362.1,557.8 714,870.6 				"/>
			</g>
			<g>
			</g>
		</g>
	</g>
</g>
<g id="_x36_">
</g>
</svg>
