<?xml version="1.0" encoding="utf-8"?>
<!-- Generator: Adobe Illustrator 15.1.0, SVG Export Plug-In . SVG Version: 6.00 Build 0)  -->
<!DOCTYPE svg PUBLIC "-//W3C//DTD SVG 1.1//EN" "http://www.w3.org/Graphics/SVG/1.1/DTD/svg11.dtd">
<svg version="1.1" id="Layer_1" xmlns="http://www.w3.org/2000/svg" xmlns:xlink="http://www.w3.org/1999/xlink" x="0px" y="0px"
	 width="128px" height="128px" viewBox="0 0 128 128" enable-background="new 0 0 128 128" xml:space="preserve">
<g id="LINE_49_">
	<g id="XMLID_1_">
		<g>
			<polygon points="97.48,82.2 93.18,86.39 87.75,84.26 90.98,79.65 			"/>
			<polygon points="87.33,78.22 84.1,82.83 80.01,81.23 80.01,75.35 			"/>
			<polygon points="68.89,70.99 68.89,76.87 59.83,73.32 65.71,69.76 			"/>
			<polygon points="45.18,79.27 34.94,84.55 29.22,81.34 39.1,76.25 			"/>
			<polygon points="58.06,72.63 52.5,75.49 45.99,72.69 51.01,70.1 			"/>
			<polygon points="59.6,56.3 60.6,67.83 55.12,67.98 53.85,53.48 			"/>
			<polygon points="57.58,33.2 58.52,43.98 52.78,41.2 51.85,30.57 			"/>
			<polygon points="56.25,18.01 57,26.57 51.34,24.68 50.59,16.12 			"/>
			<path d="M123.73,25.18L105.66,85.4l-31.21,36.14L21.34,85.4L3.27,25.18L52.55,7.11L123.73,25.18z M100.4,81.98L116.06,29.78
				l-38.6,29.73v49.03L100.4,81.98z M74.45,54.29l34.49-27.26L52.55,13.4L18.06,27.03L74.45,54.29z M71.44,111.03V59.51l-60.5-29.73
				L26.6,81.98L71.44,111.03z"/>
		</g>
		<g>
		</g>
	</g>
</g>
</svg>
