<?xml version="1.0" encoding="utf-8"?>
<!-- Generator: Adobe Illustrator 19.0.0, SVG Export Plug-In . SVG Version: 6.00 Build 0)  -->
<svg version="1.1" xmlns="http://www.w3.org/2000/svg" xmlns:xlink="http://www.w3.org/1999/xlink" x="0px" y="0px"
	 viewBox="0 0 1024 1024" style="enable-background:new 0 0 1024 1024;" xml:space="preserve">
<g id="_x30_">
</g>
<g id="_x33_">
	<g id="LINE_26_">
		<g id="XMLID_1_">
			<g>
				<path d="M764,468.7v47.2H606.5c1.7-16.3,6.7-31.8,15.1-46.4c8.4-14.6,24.9-33.9,49.5-58.1c19.9-19.5,32.1-32.7,36.5-39.6
					c6.1-9.6,9.1-19.1,9.1-28.4c0-10.4-2.6-18.3-7.7-23.9c-5.1-5.6-12.1-8.3-21.1-8.3c-8.9,0-15.9,2.7-21.2,8.2
					c-5.3,5.5-8.3,14.5-9.1,27.2l-47.2-4.3c2.7-26.5,11.2-45.6,25.3-57.1c14.2-11.5,31.9-17.3,53.2-17.3c23.3,0,41.7,6.5,55,19.4
					c13.3,12.9,20,29,20,48.3c0,11-1.8,21.4-5.5,31.3c-3.6,9.9-9.4,20.2-17.3,31.1c-5.3,7.2-15,17.5-29.4,31
					c-14.3,13.5-23.3,22.5-27,26.9c-3.7,4.4-6.6,8.7-8.9,12.9H764z"/>
				<polygon points="552.9,439.6 552.9,737.2 496.3,737.2 493.9,502.9 442.1,737.2 375.7,737.2 323.8,502.9 321.5,737.2 
					264.8,737.2 264.8,439.6 361.9,439.6 408.9,642.5 455.8,439.6 				"/>
				<path d="M905.7,118.3v787.3H118.3V370.8l252.5-252.5H905.7z M866.3,866.3V157.7H387.1L157.7,387.1v479.1H866.3z"/>
			</g>
			<g>
			</g>
		</g>
	</g>
</g>
<g id="_x36_">
</g>
</svg>
