<?xml version="1.0" encoding="utf-8"?>
<!-- Generator: Adobe Illustrator 19.0.0, SVG Export Plug-In . SVG Version: 6.00 Build 0)  -->
<svg version="1.1" xmlns="http://www.w3.org/2000/svg" xmlns:xlink="http://www.w3.org/1999/xlink" x="0px" y="0px"
	 viewBox="0 0 1024 1024" style="enable-background:new 0 0 1024 1024;" xml:space="preserve">
<g id="_x30_">
</g>
<g id="_x33_">
	<g id="CIRCLE_1_">
		<g id="XMLID_1_">
			<g>
				<path d="M521.4,36.9C762,36.9,957.1,232,957.1,472.6c0,240.7-195.1,435.8-435.8,435.8c-240.7,0-435.8-195.1-435.8-435.8
					C85.6,232,280.7,36.9,521.4,36.9z M917.8,472.6c0-218.9-177.5-396.4-396.4-396.4C302.4,76.2,125,253.7,125,472.6
					C125,691.6,302.4,869,521.4,869C740.3,869,917.8,691.6,917.8,472.6z"/>
				<path d="M901.7,472.6L744.2,590.7v-98.4H556.7c-3.7,6.6-9.1,12-15.7,15.7c-19.5,10.9-44.2,3.9-55-15.7
					c-10.9-19.5-3.9-44.2,15.7-55c19.5-10.9,44.2-3.9,55,15.7h187.5V352.5L901.7,472.6z"/>
				<path d="M686.4,345.8l30.3,48.1h-55.2l-35.9-56.6c-13.7-17.8-23.1-29-28.2-33.6c-5.1-4.6-10.4-7.8-16.1-9.5s-14.7-2.6-27-2.6
					h-10.8v102.4h-47.2v-248h104.3c26.3,0,45.3,2.2,57.2,6.7c11.9,4.5,21.4,12.4,28.5,23.9c7.1,11.4,10.7,24.5,10.7,39.3
					c0,18.7-5.2,34.1-15.5,46.3c-10.3,12.2-25.7,19.9-46.3,23c10,6.3,18.3,13.2,24.8,20.7C666.6,313.3,675.3,326.6,686.4,345.8z
					 M644.5,235.5c3.5-4.6,5.3-10.5,5.3-17.4c0-7.8-2.3-14.2-7-19c-4.7-4.8-11.3-7.9-19.8-9.1c-4.3-0.5-17.1-0.8-38.4-0.8h-41.1
					v59.1h38.9c25.2,0,41-1,47.3-2.9C636,243.5,640.9,240.2,644.5,235.5z"/>
			</g>
			<g>
			</g>
		</g>
	</g>
</g>
<g id="_x36_">
</g>
</svg>
