<?xml version="1.0" encoding="utf-8"?>
<!-- Generator: Adobe Illustrator 19.0.0, SVG Export Plug-In . SVG Version: 6.00 Build 0)  -->
<svg version="1.1" xmlns="http://www.w3.org/2000/svg" xmlns:xlink="http://www.w3.org/1999/xlink" x="0px" y="0px"
	 viewBox="0 0 1024 1024" style="enable-background:new 0 0 1024 1024;" xml:space="preserve">
<g id="_x30_">
</g>
<g id="_x33_">
	<g id="LINE_35_">
		<g id="XMLID_1_">
			<g>
				<polygon points="708.8,512 708.8,919.8 669.5,919.8 669.5,748.2 669.5,512 				"/>
				<polygon points="945,197.1 945,919.8 905.7,919.8 905.7,354.5 905.7,197.1 				"/>
				<rect x="393.9" y="118.3" width="236.2" height="118.1"/>
				<polygon points="118.3,748.2 118.3,919.8 79,919.8 79,197.1 118.3,197.1 118.3,354.5 				"/>
				<polygon points="669.5,748.2 512,905.7 512,767.9 275.8,767.9 275.8,905.7 118.3,748.2 275.8,590.7 275.8,728.5 512,728.5 
					512,590.7 				"/>
				<polygon points="905.7,354.5 748.2,512 748.2,374.2 275.8,374.2 275.8,512 118.3,354.5 275.8,197.1 275.8,334.9 748.2,334.9 
					748.2,197.1 				"/>
			</g>
			<g>
			</g>
		</g>
	</g>
</g>
<g id="_x36_">
</g>
</svg>
