<?xml version="1.0" encoding="utf-8"?>
<!-- Generator: Adobe Illustrator 19.0.0, SVG Export Plug-In . SVG Version: 6.00 Build 0)  -->
<svg version="1.1" xmlns="http://www.w3.org/2000/svg" xmlns:xlink="http://www.w3.org/1999/xlink" x="0px" y="0px"
	 viewBox="0 0 1024 1024" style="enable-background:new 0 0 1024 1024;" xml:space="preserve">
<g id="_x30_">
</g>
<g id="_x33_">
	<g id="LINE_17_">
		<g id="XMLID_1_">
			<g>
				<path d="M681,179.4l27.8,27.8L673.1,243c14.2,20,21.8,43.9,21.8,68.4c0,24.5-7.6,48.4-21.8,68.4
					c-37.8,53.2-111.5,65.6-164.7,27.8l-35.8,35.8l-27.8-27.8l35.8-35.8c-29.1-41-29.1-95.9,0-136.8
					c37.8-53.2,111.5-65.6,164.7-27.8L681,179.4z M655.5,311.4c0-14.1-3.8-27.9-10.9-40L536.8,379.2c37.5,22.1,85.7,9.6,107.8-27.8
					C651.8,339.3,655.5,325.4,655.5,311.4z M509,351.4l107.8-107.8c-37.5-22.1-85.7-9.6-107.8,27.8
					C494.5,296.1,494.5,326.7,509,351.4z"/>
				<path d="M512,79.8c238.7,0,432.2,193.5,432.2,432.2S750.7,944.2,512,944.2S79.8,750.7,79.8,512S273.3,79.8,512,79.8z M905.7,512
					c0-217.4-176.3-393.7-393.7-393.7S118.3,294.6,118.3,512S294.6,905.7,512,905.7S905.7,729.4,905.7,512z"/>
				<polygon points="901.7,512 744.2,630.1 744.2,531.7 279.8,531.7 279.8,630.1 122.3,512 279.8,391.8 279.8,492.3 744.2,492.3 
					744.2,391.8 				"/>
			</g>
			<g>
			</g>
		</g>
	</g>
</g>
<g id="_x36_">
</g>
</svg>
