<?xml version="1.0" encoding="utf-8"?>
<!-- Generator: Adobe Illustrator 19.0.0, SVG Export Plug-In . SVG Version: 6.00 Build 0)  -->
<svg version="1.1" xmlns="http://www.w3.org/2000/svg" xmlns:xlink="http://www.w3.org/1999/xlink" x="0px" y="0px"
	 viewBox="0 0 1024 1024" style="enable-background:new 0 0 1024 1024;" xml:space="preserve">
<g id="_x30_">
</g>
<g id="_x33_">
	<g id="LINE_37_">
		<g id="XMLID_1_">
			<g>
				<polygon points="767.3,541.8 516.8,792.3 433.3,708.8 683.8,458.3 				"/>
				<polygon points="867.3,119.3 895.1,147.2 147.2,895.1 119.3,867.3 				"/>
				<polygon points="703.4,57.9 720.7,85 703.8,99.8 678.6,79.7 659.5,58.1 684.3,36.2 				"/>
				<polygon points="664,97.3 681.3,124.4 664.5,139.2 639.2,119.1 620.1,97.4 645,75.6 				"/>
				<rect x="535.5" y="175" transform="matrix(0.7071 -0.7071 0.7071 0.7071 9.6246 491.3258)" width="124.8" height="118.1"/>
				<polygon points="477.4,438 398.7,516.8 315.2,433.3 393.9,354.5 				"/>
				<polygon points="427.8,294.1 445.1,321.2 428.3,336 403,315.9 383.9,294.3 408.8,272.4 				"/>
				<path d="M251.3,460.3c9.2,10.4,13.5,21,13,31.8c-0.5,10.8-5.5,20.3-14.9,28.6c-9.4,8.3-19.5,12-30.2,11.2
					c-10.7-0.8-20.7-6.5-29.9-16.9c-9.2-10.5-13.5-21.1-13-31.8c0.5-10.8,5.5-20.3,14.9-28.6c9.4-8.2,19.4-11.9,30.3-11
					C232.1,444.3,242.1,449.9,251.3,460.3z M243.2,492.8c0.2-5.2-2.6-11.2-8.6-17.9c-5.9-6.7-11.5-10.3-16.7-10.8
					c-5.2-0.4-10,1.2-14.2,5c-4.3,3.8-6.5,8.2-6.7,13.4c-0.2,5.2,2.7,11.1,8.7,17.9c5.9,6.7,11.5,10.3,16.6,10.8
					c5.2,0.5,9.9-1.1,14.2-4.9C240.8,502.5,243,498,243.2,492.8z"/>
				<polygon points="290.1,625.3 162.5,753 79,669.5 206.6,541.8 				"/>
			</g>
			<g>
			</g>
		</g>
	</g>
</g>
<g id="_x36_">
</g>
</svg>
