<?xml version="1.0" encoding="utf-8"?>
<!-- Generator: Adobe Illustrator 19.0.0, SVG Export Plug-In . SVG Version: 6.00 Build 0)  -->
<svg version="1.1" xmlns="http://www.w3.org/2000/svg" xmlns:xlink="http://www.w3.org/1999/xlink" x="0px" y="0px"
	 viewBox="0 0 1024 1024" style="enable-background:new 0 0 1024 1024;" xml:space="preserve">
<g id="_x30_">
</g>
<g id="_x33_">
	<g id="LINE_17_">
		<g id="XMLID_1_">
			<g>
				<path d="M826.9,578.8c39.2,0,71,31.8,71,71c0,39.2-31.8,71-71,71c-39.2,0-71-31.8-71-71C756,610.6,787.7,578.8,826.9,578.8z
					 M871,649.8c0-24.3-19.7-44-44-44s-44,19.7-44,44c0,24.3,19.7,44,44,44S871,674.1,871,649.8z"/>
				<rect x="551.4" y="748.2" width="236.2" height="118.1"/>
				<path d="M787.6,157.7l120.2,157.5H807.3C790.9,573.5,573.9,773,315.2,767.9v98.4L157.7,748.2L315.2,628v100.5
					c237,5.1,436.3-176.8,452.7-413.3h-98.4L787.6,157.7z"/>
				<polygon points="945,79 945,118.3 118.3,118.3 118.3,945 79,945 79,79 				"/>
			</g>
			<g>
			</g>
		</g>
	</g>
</g>
<g id="_x36_">
</g>
</svg>
