<?xml version="1.0" encoding="utf-8"?>
<!-- Generator: Adobe Illustrator 16.0.0, SVG Export Plug-In . SVG Version: 6.00 Build 0)  -->
<!DOCTYPE svg PUBLIC "-//W3C//DTD SVG 1.1//EN" "http://www.w3.org/Graphics/SVG/1.1/DTD/svg11.dtd">
<svg version="1.1" id="Layer_1" xmlns="http://www.w3.org/2000/svg" xmlns:xlink="http://www.w3.org/1999/xlink" x="0px" y="0px"
	 width="64px" height="64px" viewBox="0 0 64 64" enable-background="new 0 0 64 64" xml:space="preserve">
<g id="LINE_11_">
	<g id="XMLID_1_">
		<g>
			<rect x="45.269531" y="30.759766" width="11.850586" height="2.480469"/>
			<rect x="37.799805" y="30.759766" width="4.390625" height="2.480469"/>
			<path d="M29.350098,11.47998V5.470215h2.489746v5.969727h25.540039v3.72998H31.839844v2.149902h-2.489746v-2.099609
				c-8.320313,0.609863-14.930176,7.219727-15.540039,15.539551h2.100098v2.480469h-2.100098
				c0.609863,8.319336,7.219727,14.929688,15.540039,15.540039v-2.100586h2.489746v2.150391h25.540039v3.729492H31.839844v5.970703
				h-2.489746v-6.010742c-10.379883-0.619141-18.649902-8.899414-19.280273-19.279297H4.060059v-2.480469h6.009766
				C10.700195,20.379883,18.970215,12.100098,29.350098,11.47998z"/>
			<polygon points="29.350098,30.759766 29.350098,26.77002 31.839844,26.77002 31.839844,30.759766 35.820313,30.759766 
				35.820313,33.240234 31.839844,33.240234 31.839844,37.230469 29.350098,37.230469 29.350098,33.240234 25.359863,33.240234 
				25.359863,30.759766 			"/>
			<rect x="29.350098" y="20.399902" width="2.489746" height="4.390137"/>
			<rect x="29.350098" y="39.209961" width="2.489746" height="4.389648"/>
			<rect x="18.990234" y="30.759766" width="4.389648" height="2.480469"/>
		</g>
		<g>
		</g>
	</g>
</g>
</svg>
