<?xml version="1.0" encoding="utf-8"?>
<!-- Generator: Adobe Illustrator 19.0.0, SVG Export Plug-In . SVG Version: 6.00 Build 0)  -->
<svg version="1.1" xmlns="http://www.w3.org/2000/svg" xmlns:xlink="http://www.w3.org/1999/xlink" x="0px" y="0px"
	 viewBox="0 0 1024 1024" style="enable-background:new 0 0 1024 1024;" xml:space="preserve">
<g id="_x30_">
</g>
<g id="_x33_">
	<g id="LINE_21_">
		<g id="XMLID_1_">
			<g>
				<path d="M883.2,306.4l30.3,48.1h-55.2l-35.9-56.6c-13.7-17.8-23.1-29-28.2-33.6c-5.1-4.6-10.4-7.8-16.1-9.5
					c-5.7-1.7-14.7-2.6-27-2.6h-10.8v102.4h-47.2v-248h104.3c26.2,0,45.3,2.2,57.2,6.7c11.9,4.5,21.4,12.4,28.5,23.9
					c7.1,11.4,10.7,24.5,10.7,39.3c0,18.7-5.2,34.1-15.5,46.3c-10.3,12.2-25.8,19.8-46.3,23c10,6.3,18.3,13.2,24.8,20.7
					C863.4,273.9,872.2,287.2,883.2,306.4z M841.3,196.2c3.6-4.7,5.3-10.5,5.3-17.4c0-7.8-2.3-14.2-7-19c-4.7-4.8-11.3-7.9-19.8-9.1
					c-4.3-0.5-17.1-0.8-38.4-0.8h-41.1v59.1h38.9c25.2,0,41-1,47.3-2.9C832.8,204.1,837.8,200.8,841.3,196.2z"/>
				<polygon points="630.1,197.1 630.1,236.4 412.7,236.4 370,415.5 464.1,438 312.7,563.7 232.3,382.7 331.7,406.4 381.6,197.1 
									"/>
				<path d="M590.7,945l-39.4,0.5c-2.8-201.9-168.7-363.3-370.6-360.5c-27,0.4-53.9,3.7-80.2,10l-9.2-38.3
					c29.1-7,58.9-10.7,88.9-11.2C403.8,542.6,587.6,721.4,590.7,945z"/>
			</g>
			<g>
			</g>
		</g>
	</g>
</g>
<g id="_x36_">
</g>
</svg>
