<?xml version="1.0" encoding="utf-8"?>
<!-- Generator: Adobe Illustrator 19.0.0, SVG Export Plug-In . SVG Version: 6.00 Build 0)  -->
<svg version="1.1" xmlns="http://www.w3.org/2000/svg" xmlns:xlink="http://www.w3.org/1999/xlink" x="0px" y="0px"
	 viewBox="0 0 1024 1024" style="enable-background:new 0 0 1024 1024;" xml:space="preserve">
<g id="_x30_">
</g>
<g id="_x33_">
	<g id="CIRCLE_1_">
		<g id="XMLID_1_">
			<g>
				<path d="M959,53.5l-35.8,35.8c14.2,20,21.8,43.9,21.8,68.4s-7.6,48.4-21.8,68.4c-37.8,53.2-111.5,65.6-164.7,27.8l-35.8,35.8
					l-27.8-27.8l35.8-35.8c-14.2-20-21.8-43.9-21.8-68.4H547.4l-10.9,45.6c-12.5-3.7-25.3-6.8-38.3-9.1l18.1-75.9h199.3
					c3.6-10.3,8.7-20.1,15.1-29.1c37.8-53.2,111.5-65.6,164.7-27.8l35.8-35.8L959,53.5z M905.7,157.7c0-14.1-3.8-27.9-10.9-40
					L787,225.5c37.5,22.1,85.7,9.6,107.8-27.8C901.9,185.6,905.7,171.8,905.7,157.7z M759.1,197.7L866.9,89.9
					c-37.5-22.1-85.7-9.6-107.8,27.8C744.6,142.4,744.6,173,759.1,197.7z"/>
				<path d="M536.5,203.3c150.1,44.5,259.7,183.5,259.7,348c0,200.4-162.5,362.9-362.9,362.9c-200.4,0-362.9-162.5-362.9-362.9
					c0-200.4,162.5-362.9,362.9-362.9c22.2,0,43.9,2,64.9,5.8l0,0.1L536.5,203.3L536.5,203.3z M757.9,551.4
					c0-153.4-106.3-281.9-249.3-315.8c-24.2-5.8-49.4-8.8-75.3-8.8c-179.3,0-324.6,145.3-324.6,324.6
					c0,153.3,106.3,281.9,249.3,315.8c24.2,5.8,49.4,8.8,75.3,8.8C612.5,876,757.9,730.7,757.9,551.4z"/>
				<polygon points="508.6,235.6 586.9,416.2 491.2,393.3 413.6,718.5 509.4,741.4 358,867.1 277.6,686.1 375.3,709.4 452.9,384.2 
					355.1,360.9 				"/>
			</g>
			<g>
			</g>
		</g>
	</g>
</g>
<g id="_x36_">
</g>
</svg>
