<?xml version="1.0" encoding="utf-8"?>
<!-- Generator: Adobe Illustrator 16.0.0, SVG Export Plug-In . SVG Version: 6.00 Build 0)  -->
<!DOCTYPE svg PUBLIC "-//W3C//DTD SVG 1.1//EN" "http://www.w3.org/Graphics/SVG/1.1/DTD/svg11.dtd">
<svg version="1.1" id="Layer_1" xmlns="http://www.w3.org/2000/svg" xmlns:xlink="http://www.w3.org/1999/xlink" x="0px" y="0px"
	 width="64px" height="64px" viewBox="0 0 64 64" enable-background="new 0 0 64 64" xml:space="preserve">
<g id="LINE_13_">
	<g id="XMLID_1_">
		<g>
			<path d="M36.980469,9.600098c5-0.950195,10.099609,1.029785,13.149414,5.100098l10.44043,13.919922l-8.660156-1.600098
				l-4.089844-10.220215c-1.330078-3.32959-4.810547-5.290039-8.350586-4.709961L36.980469,9.600098z"/>
			<path d="M13.859863,14.700195c3.060059-4.070313,8.160156-6.050293,13.160156-5.100098l-2.490234,2.489746
				c-3.539551-0.580078-7.02002,1.380371-8.349609,4.709961L12.089844,27.02002l-8.659668,1.600098L13.859863,14.700195z"/>
			<path d="M44.419922,32.569824c-0.969727-0.049805-1.830078,0-2.570313,0.150391l-0.549805-2.530273
				c2.120117-0.47998,4.110352-0.719727,5.969727-0.719727c3.270508,0,7.550781,0.889648,12.84082,2.649902v4.089844
				l-0.980469,0.620117c0.030273,4.360352-0.360352,7.360352-1.169922,9c-2.030273,4.129883-5.269531,6.189453-9.719727,6.189453
				c-5.709961,0-9.570313-1.789063-11.570313-5.389648c-1.179688-2.139648-1.870117-5.660156-2.049805-10.540039l0.849609-1.469727
				l2.490234,0.660156c-0.269531,0.830078-0.400391,2.269531-0.400391,4.299805c0,1.860352,0.410156,3.639648,1.240234,5.349609
				c0.549805-2.989258,1.219727-5.429688,2.009766-7.30957C41.599609,35.730469,42.80957,34.049805,44.419922,32.569824z"/>
			<path d="M5.390137,45.830078c-0.810059-1.639648-1.200195-4.639648-1.169922-9l-0.97998-0.620117v-4.089844
				c5.289551-1.760254,9.569824-2.649902,12.839844-2.649902c3.259766,0,6.919922,0.72998,10.97998,2.179688
				c1.660156-0.799805,3.199707-1.199707,4.620117-1.199707c1.419434,0,2.949707,0.399902,4.609863,1.199707
				c1.75-0.620117,3.419922-1.109863,5.009766-1.459961l0.549805,2.530273c-0.189453,0.039551-0.369141,0.089844-0.540039,0.139648
				c-0.989258,0.310059-1.599609,0.510254-1.819336,0.609863c-0.530273,0.290039-0.980469,0.730469-1.330078,1.320313
				c-0.080078,0.129883-0.140625,0.290039-0.200195,0.490234l-2.490234-0.660156
				c-0.979492-0.820313-2.239258-1.219727-3.789551-1.219727c-1.560059,0-2.820313,0.399414-3.800293,1.219727l0.850098,1.469727
				c-0.180176,4.879883-0.859863,8.400391-2.049805,10.540039c-2,3.600586-5.850098,5.389648-11.560059,5.389648
				C10.660156,52.019531,7.419922,49.959961,5.390137,45.830078z M10.919922,32.859863
				c-0.989746,0.310059-1.600098,0.510254-1.819824,0.609863c-0.540039,0.290039-0.97998,0.730469-1.340332,1.320313
				c-0.389648,0.69043-0.589844,2.290039-0.589844,4.790039c0,1.860352,0.410156,3.639648,1.240234,5.349609
				C8.959961,41.94043,9.629883,39.5,10.419922,37.620117c0.790039-1.889648,2-3.570313,3.609863-5.050293
				C12.810059,32.509766,11.779785,32.600098,10.919922,32.859863z"/>
		</g>
		<g>
		</g>
	</g>
</g>
</svg>
