<?xml version="1.0" encoding="utf-8"?>
<!-- Generator: Adobe Illustrator 19.0.0, SVG Export Plug-In . SVG Version: 6.00 Build 0)  -->
<svg version="1.1" xmlns="http://www.w3.org/2000/svg" xmlns:xlink="http://www.w3.org/1999/xlink" x="0px" y="0px"
	 viewBox="0 0 1024 1024" style="enable-background:new 0 0 1024 1024;" xml:space="preserve">
<style type="text/css">
	.st0{fill:none;stroke:#000000;stroke-width:10;stroke-linecap:round;stroke-linejoin:round;stroke-miterlimit:10;}
</style>
<g id="_x30_">
</g>
<g id="_x33_">
	<g id="LINE_94_">
		<g id="XMLID_1_">
			<g>
				<polygon points="630.1,155.7 630.1,195.5 551.4,183.7 551.4,143.9 				"/>
				<polygon points="787.6,179.4 787.6,219.2 708.8,207.4 708.8,167.5 				"/>
				<polygon points="945,203 945,275.8 905.7,272.3 905.7,236.9 866.3,231 866.3,191.2 				"/>
				<polygon points="945,354.5 945,433.3 905.7,434 905.7,353.2 				"/>
				<polygon points="945,512 945,590.7 905.7,595.8 905.7,514.9 				"/>
				<polygon points="945,669.5 945,779.7 866.3,795.4 866.3,755.3 905.7,747.4 905.7,676.6 				"/>
				<polygon points="787.6,771 787.6,811.2 708.8,826.9 708.8,786.8 				"/>
				<polygon points="630.1,802.5 630.1,842.7 551.4,858.4 551.4,818.3 				"/>
				<polygon points="472.6,834 472.6,874.2 393.9,889.9 393.9,849.8 				"/>
				<polygon points="315.2,865.5 315.2,905.7 236.4,921.4 236.4,881.3 				"/>
				<polygon points="157.7,897 157.7,937.2 79,952.9 79,827.2 118.3,820 118.3,904.9 				"/>
				<polygon points="118.3,572.9 118.3,696.5 79,701.5 79,575.8 				"/>
				<polygon points="118.3,325.8 118.3,449.4 79,450.1 79,324.5 				"/>
				<polygon points="157.7,84.9 157.7,124.7 118.3,118.8 118.3,202.3 79,198.8 79,73.1 				"/>
				<polygon points="315.2,108.5 315.2,148.3 236.4,136.5 236.4,96.7 				"/>
				<polygon points="472.6,132.1 472.6,171.9 393.9,160.1 393.9,120.3 				"/>
				<path d="M512.5,746.5l61.5-12.3v0l61.5-12.3l61.5-12.3l51.3-10.3v-51.3v-61.5v-61.5v-61.5v-16.6l-18.3-22.9l-25.1-31.4
					l-25.1-31.4L654.6,330l-25.1-31.4L472.6,486.9v61.5v61.5v61.5v61.5v21.7L512.5,746.5z M787.6,433.3v298.4l-354.3,70.9L197.1,758
					V440.9l157.5-204.4h275.6L787.6,433.3z"/>
			</g>
			<g>
				<line class="st0" x1="697" y1="709.7" x2="748.2" y2="648.2"/>
				<line class="st0" x1="635.5" y1="722" x2="748.2" y2="586.7"/>
				<line class="st0" x1="574" y1="734.2" x2="748.2" y2="525.2"/>
				<polyline class="st0" points="512.5,746.5 512.5,746.5 748.2,463.7 				"/>
				<line class="st0" x1="472.6" y1="732.9" x2="729.9" y2="424.2"/>
				<line class="st0" x1="472.6" y1="671.4" x2="704.8" y2="392.8"/>
				<line class="st0" x1="472.6" y1="609.9" x2="679.7" y2="361.4"/>
				<line class="st0" x1="472.6" y1="548.4" x2="654.6" y2="330"/>
				<line class="st0" x1="574" y1="734.2" x2="574" y2="734.3"/>
			</g>
		</g>
	</g>
</g>
<g id="_x36_">
</g>
</svg>
