<?xml version="1.0" encoding="utf-8"?>
<!-- Generator: Adobe Illustrator 19.0.0, SVG Export Plug-In . SVG Version: 6.00 Build 0)  -->
<svg version="1.1" xmlns="http://www.w3.org/2000/svg" xmlns:xlink="http://www.w3.org/1999/xlink" x="0px" y="0px"
	 viewBox="0 0 1024 1024" style="enable-background:new 0 0 1024 1024;" xml:space="preserve">
<g id="_x30_">
</g>
<g id="_x33_">
	<g id="SPLINE_28_">
		<g id="XMLID_1_">
			<g>
				<path d="M626.8,338.9c0,33-11.7,61.3-35.2,84.8c-23.5,23.5-51.7,35.2-84.8,35.2c-33.4,0-61.7-11.6-85-34.8
					c-23.3-23.2-35-51.1-35-83.7c0-14.5,2.4-28.4,7.2-41.9l118,56.1l-58-125.4c15.1-6.9,31.1-10.3,47.9-10.3
					c34.2,0,63.6,11.7,88.1,35.2C614.5,277.6,626.8,305.8,626.8,338.9z"/>
				<path d="M844.4,216.3c37.7,34,69.5,74.9,95.4,122.6c-25.9,47.8-57.7,88.6-95.4,122.3c-90.5,82-202.9,122.9-337.2,122.9
					c-134.2,0-246.8-41-337.6-122.9c-37.7-33.7-69.7-74.5-95.9-122.3c26.2-47.7,58.1-88.6,95.9-122.6
					C260.5,134.5,373,93.7,507.3,93.7C641.5,93.7,753.9,134.5,844.4,216.3z M856.3,338.9c-16.2-29.3-35.8-55.6-58.9-78.8
					c-55.5-55.2-124.6-89.8-207.2-103.9c36,15.8,64.9,39.8,86.7,72.2c22.2,33.5,33.3,70.4,33.3,110.7c0,39.9-10.9,76.2-32.5,109
					s-50.2,57.2-85.5,73.3C713.2,500.3,801.2,439.4,856.3,338.9z M668.5,338.9c0-44.6-15.7-82.7-47-114.3
					c-31.3-31.6-69-47.4-113.1-47.4c-23.3,0-45.3,4.7-66.2,14l-16.8-34.9c-122.2,21.2-211.6,82.1-268.2,182.6
					c16.2,29.5,35.7,55.6,58.4,78.4c55.2,55.1,123.6,89.8,205.3,104.2c-35.3-14.2-63.8-37.5-85.3-69.8
					c-21.5-32.3-32.3-68.1-32.3-107.4c0-23.9,4.2-47.1,12.5-69.6l40.3,12.6c-7.4,18.5-11.1,37.5-11.1,57.1
					c0,43.4,15.8,80.3,47.4,110.7c31.6,30.4,69.7,45.6,114.3,45.6c44.6,0,82.7-15.7,114.3-47.2C652.7,422,668.5,383.8,668.5,338.9z"
					/>
				<path d="M507.3,623.5L945,905.7c-285.5,60.7-580.6,60.7-866.1,0L507.3,623.5z"/>
			</g>
			<g>
			</g>
		</g>
	</g>
</g>
<g id="_x36_">
</g>
</svg>
