<?xml version="1.0" encoding="utf-8"?>
<!-- Generator: Adobe Illustrator 19.0.0, SVG Export Plug-In . SVG Version: 6.00 Build 0)  -->
<svg version="1.1" xmlns="http://www.w3.org/2000/svg" xmlns:xlink="http://www.w3.org/1999/xlink" x="0px" y="0px"
	 viewBox="0 0 1024 1024" style="enable-background:new 0 0 1024 1024;" xml:space="preserve">
<g id="_x30_">
</g>
<g id="_x33_">
	<g id="LINE_10_">
		<g id="XMLID_1_">
			<g>
				<rect x="474.3" y="730.6" width="70.9" height="166.1"/>
				<rect x="474.3" y="53.5" width="70.9" height="496"/>
				<path d="M939,411.4c7,35.9-3.9,71.7-32.5,107.5c-28.6,35.8-66.7,64.7-114.2,86.6c-47.5,21.9-93.5,36.7-138.1,44.3
					c-44.6,7.6-102.2,13.1-172.9,16.4s-163.1-14.3-277.2-52.9l-13.4,54.5c-33.9-24.5-60.8-48.5-80.5-71.9
					c-19.7-23.4-36.7-54.5-51-93.2c33.9,7.6,61.2,12,81.7,13.2c20.6,1.1,49.8,0.2,87.6-2.9L213.2,576
					c80.9,21.1,148.3,32.4,202.2,33.8c55.2,1.5,107-4.3,155.4-17.2c48.4-13,94.2-30.2,137.3-51.7c43.2-21.5,74-51.4,92.7-89.7
					c18.6-38.3,16.4-71.7-6.6-100.2c-23-28.5-70.5-53-142.5-73.4l-28.5-35.9c52.6,0.7,101.3,7.6,146.1,20.8
					c44.7,13.2,82.5,32.4,113.2,57.5C913.3,345,932.1,375.5,939,411.4z"/>
			</g>
			<g>
			</g>
		</g>
	</g>
</g>
<g id="_x36_">
</g>
</svg>
