<?xml version="1.0" encoding="utf-8"?>
<!-- Generator: Adobe Illustrator 19.0.0, SVG Export Plug-In . SVG Version: 6.00 Build 0)  -->
<svg version="1.1" xmlns="http://www.w3.org/2000/svg" xmlns:xlink="http://www.w3.org/1999/xlink" x="0px" y="0px"
	 viewBox="0 0 1024 1024" style="enable-background:new 0 0 1024 1024;" xml:space="preserve">
<g id="_x30_">
</g>
<g id="_x33_">
	<g id="ARC_13_">
		<g id="XMLID_1_">
			<g>
				<path d="M451.2,386.5c-21.9,55.8-66,99.9-121.8,121.8c-110.7,43.5-235.8-11-279.3-121.8c21.9-55.8,66-99.9,121.8-121.8
					C282.7,221.3,407.7,275.8,451.2,386.5z M408.2,386.5c-8.6-8.2-17.9-15.8-27.8-22.6c2.5,7.3,3.7,14.9,3.7,22.6
					c0,25.3-13.6,48.7-35.6,61.2c-33.8,19.2-76.8,7.4-96-26.5c-19.2-33.8-7.4-76.8,26.5-96c-67.9-8.5-136.1,14-185.7,61.2
					c43.5,87,149.2,122.2,236.2,78.7C363.5,448.3,391.1,420.6,408.2,386.5z"/>
				<path d="M923.6,386.5c-21.9,55.8-66,99.9-121.8,121.8c-110.7,43.5-235.8-11-279.3-121.8c21.9-55.8,66-99.9,121.8-121.8
					C755.1,221.3,880.1,275.8,923.6,386.5z M880.6,386.5c-8.7-8.2-17.9-15.8-27.8-22.6c2.5,7.3,3.7,14.9,3.7,22.6
					c0,25.3-13.6,48.7-35.6,61.2c-33.8,19.2-76.8,7.4-96-26.5c-19.2-33.8-7.4-76.8,26.5-96c-67.9-8.5-136.1,14-185.7,61.2
					c43.5,87,149.2,122.2,236.2,78.7C835.9,448.3,863.5,420.6,880.6,386.5z"/>
			</g>
			<g>
			</g>
		</g>
	</g>
</g>
<g id="_x36_">
</g>
</svg>
