<?xml version="1.0" encoding="utf-8"?>
<!-- Generator: Adobe Illustrator 19.0.0, SVG Export Plug-In . SVG Version: 6.00 Build 0)  -->
<svg version="1.1" xmlns="http://www.w3.org/2000/svg" xmlns:xlink="http://www.w3.org/1999/xlink" x="0px" y="0px"
	 viewBox="0 0 1024 1024" style="enable-background:new 0 0 1024 1024;" xml:space="preserve">
<g id="_x30_">
</g>
<g id="_x33_">
	<g id="LINE_14_">
		<g id="XMLID_1_">
			<g>
				<path d="M781.5,768.4c-2.8-10.1-5.6-20.1-8.6-30.1c-0.3-0.9-0.5-1.9-0.8-2.8l37.7-20.1c3.1,13.6,6.1,27.7,9,42.2l53.9-15.7
					c-4.3,41.7-11.6,76.9-22,105.6c-10.4,28.8-28.8,59-55.3,90.7c-10.4-33.2-20.2-59-29.5-77.4s-24.7-43.2-46.4-74.4L781.5,768.4z"
					/>
				<path d="M709.5,99.3c-23.6,25.6-41,47-52.3,64.2c-11.3,17.2-25,43-41.3,77.4L569.2,196C510.5,255.5,467,308.2,438.8,354.1
					C409.9,401.2,389,449,376,497.4c-10.7,39.8-17.9,79.5-21.8,119.1l-87-16.8c4.8-20.5,10.6-40.1,17.5-58.8
					c15.7-42.4,39.8-95.1,72.2-158s94-134.1,184.4-213.6l-40.6-38.8c38.2-17.1,72.4-28.4,102.5-33.8
					C633.4,91.4,668.8,92.2,709.5,99.3z"/>
				<rect x="472.6" y="472.6" width="78.7" height="78.7"/>
				<path d="M760.7,518.4L720.5,558c-0.9-1.9-1.8-3.7-2.8-5.6c-4.7-9.4-9.6-18.5-14.8-27.6c-5.2-9.1-10.6-18-16.3-26.8
					c-5.6-8.8-11.5-17.4-17.7-25.9c-6.1-8.4-12.5-16.7-19.1-24.8c-6.6-8.1-13.5-16-20.6-23.6c-7.1-7.6-14.5-15-22-22.3
					c-7.5-7.3-15.2-14.4-23-21.3c-7.8-6.9-15.8-13.7-23.9-20.3c-8.1-6.6-16.3-13-24.7-19.2c-1.5-1.1-3-2.2-4.5-3.3l57.2-66.8
					c13.4,12.9,25.7,26,36.9,39.6c28.9,34.8,62.5,82,100.7,141.5C738.4,470.9,749.9,493.1,760.7,518.4z"/>
				<path d="M942.2,501.4c0.2,11.2-1.4,22.6-4.6,33.4c-3.1,10.8-7.8,21.2-13.4,30.9c-5.6,9.8-12.3,18.9-19.4,27.6
					c-7.2,8.7-14.9,16.9-23.1,24.6c-8.2,7.7-16.9,15-25.9,21.7c-9,6.8-18.4,13-28.1,18.8c-9.7,5.8-19.7,11-29.8,15.9
					c-10.2,4.9-20.5,9.4-30.9,13.6c-10.4,4.3-21,8.3-31.6,12c-10.7,3.7-21.4,7.1-32.3,10.1c-10.9,3-21.8,5.7-32.8,8
					c-11,2.3-22.2,4.1-33.3,5.8c-11.2,1.6-22.3,3.1-33.5,4.4c-11.2,1.3-22.4,2.4-33.6,3.4c-11.2,1-22.4,1.9-33.7,2.7
					c-11.2,0.8-22.5,1.4-33.7,2.1s-22.5,1.3-33.8,1.4c-11.3,0.1-22.5-0.3-33.8-1c-11.2-0.8-22.5-1.9-33.6-3.4
					c-11.2-1.5-22.3-3.2-33.4-5.2c-11.1-2-22.1-4.2-33.1-6.7s-22-5.1-32.9-7.9c-10.9-2.8-21.8-5.8-32.6-8.9
					c-10.8-3.1-21.6-6.4-32.4-9.8c-10.8-3.4-21.4-6.9-32-10.8l-13.4,54.5c-33.9-24.5-60.8-48.5-80.5-71.9
					c-19.7-23.4-36.7-54.5-50.9-93.2c33.9,7.6,61.2,12,81.7,13.2s49.8,0.2,87.6-3L214,646.6c10.2,2.3,20.3,4.8,30.5,7.3
					c10.1,2.4,20.3,4.8,30.6,7c10.2,2.2,20.4,4.3,30.7,6.2c10.3,1.9,20.6,3.7,30.9,5.3c10.3,1.6,20.7,3,31.1,4.2
					c10.4,1.2,20.8,2.1,31.2,2.8s20.9,1,31.3,1c10.4,0,20.9-0.2,31.3-0.7c10.4-0.5,20.9-1.3,31.3-2.4c10.4-1.1,20.7-2.5,31.1-4.2
					s20.6-3.7,30.8-6c10.2-2.4,20.3-5,30.3-7.9c10-2.9,20-6,29.9-9.3c9.9-3.3,19.8-6.8,29.5-10.5c9.8-3.7,19.4-7.7,29-11.8
					c9.6-4.1,19.1-8.5,28.5-13s18.7-9.4,27.5-14.9c8.9-5.5,17.4-11.7,25.3-18.4c8-6.8,15.4-14.1,22.2-22.1c6.7-8,12.8-16.6,18-25.6
					c5.3-9,9.8-18.5,13.2-28.4c3.3-9.9,5.5-20.3,5.6-30.7c0.1-10.4-1.9-20.9-5.8-30.6c-3.9-9.7-9.9-18.5-16.9-26.2
					c-7-7.8-15.1-14.4-23.7-20.4c-7.2-5-14.8-9.5-22.5-13.6l-60-67.9c2.2,0.3,4.4,0.5,6.6,0.8c11.2,1.4,22.3,3.2,33.4,5.3
					c11.1,2.1,22.1,4.6,33,7.5c10.9,2.9,21.7,6.2,32.3,9.9s21.1,7.9,31.3,12.7c10.2,4.7,20.2,10,29.9,15.8
					c9.7,5.8,19,12.1,27.9,19.1c8.9,7,17.3,14.5,24.8,22.9c7.5,8.4,14.2,17.5,19.8,27.4c5.5,9.8,9.9,20.2,13.1,31
					C940,478.9,942,490.1,942.2,501.4z"/>
			</g>
			<g>
			</g>
		</g>
	</g>
</g>
<g id="_x36_">
</g>
</svg>
