<?xml version="1.0" encoding="utf-8"?>
<!-- Generator: Adobe Illustrator 19.0.0, SVG Export Plug-In . SVG Version: 6.00 Build 0)  -->
<svg version="1.1" xmlns="http://www.w3.org/2000/svg" xmlns:xlink="http://www.w3.org/1999/xlink" x="0px" y="0px"
	 viewBox="0 0 1024 1024" style="enable-background:new 0 0 1024 1024;" xml:space="preserve">
<g id="_x30_">
</g>
<g id="_x33_">
	<g id="ELLIPSE_9_">
		<g id="XMLID_1_">
			<g>
				<path d="M232.1,351.2c0.5,19.4-10.9,35.4-25.6,35.8c-14.6,0.4-26.9-15-27.4-34.4s10.9-35.4,25.6-35.8
					C219.4,316.4,231.6,331.8,232.1,351.2z"/>
				<path d="M187.4,405.8c0.5,17.3-10.5,31.8-24.6,32.2c-14.1,0.4-25.9-13.3-26.4-30.7c-0.5-17.4,10.5-31.8,24.6-32.2
					C175.1,374.7,186.9,388.4,187.4,405.8z"/>
				<path d="M289.9,308.2c1.3,20.9-10.4,38.6-25.9,39.5c-15.6,0.9-29.2-15.2-30.5-36.1c-1.3-20.9,10.4-38.6,25.9-39.5
					C275,271.2,288.7,287.4,289.9,308.2z"/>
				<path d="M359.2,279.7c0.8,23.3-12.4,42.6-29.6,43.2c-17.2,0.6-31.8-17.7-32.6-41c-0.8-23.2,12.4-42.6,29.6-43.2
					C343.7,238.1,358.3,256.5,359.2,279.7z"/>
				<path d="M450.5,273.4c2,28.8-13.2,53.3-34,54.8c-20.8,1.4-39.3-20.7-41.3-49.5c-2-28.8,13.2-53.3,34-54.8
					C430,222.4,448.5,244.6,450.5,273.4z"/>
				<path d="M859.9,234.5c14.1,0.4,25.1,14.8,24.6,32.2c-0.5,17.4-12.3,31.1-26.5,30.7c-14.1-0.4-25.1-14.8-24.6-32.2
					C834,247.9,845.8,234.1,859.9,234.5z"/>
				<path d="M816.2,176.3c14.6,0.4,26.1,16.4,25.6,35.8c-0.5,19.4-12.8,34.8-27.4,34.4c-14.6-0.4-26.1-16.4-25.6-35.8
					S801.5,175.9,816.2,176.3z"/>
				<path d="M761.4,131.6c15.6,0.9,27.2,18.6,25.9,39.5c-1.3,20.9-14.9,37-30.5,36.1s-27.2-18.6-25.9-39.5
					C732.2,146.8,745.9,130.7,761.4,131.6z"/>
				<path d="M694.3,98.2c17.2,0.6,30.4,20,29.6,43.2c-0.8,23.2-15.4,41.6-32.6,41c-17.2-0.6-30.5-19.9-29.6-43.2
					C662.5,115.9,677.2,97.6,694.3,98.2z"/>
				<path d="M611.6,83.3c20.8,1.4,36,26,34,54.8c-2,28.8-20.5,51-41.3,49.5c-20.8-1.5-36-26-34-54.8
					C572.3,104.1,590.8,81.9,611.6,83.3z"/>
				<path d="M846.5,336.1c4.5,17.4,6.7,35.4,6.7,54s-3,37.4-9.1,56.4c-6.1,19-11.3,36-15.8,50.9c-4.5,15-8.3,31.9-11.5,50.9
					c-3.2,19-5.5,37.2-6.7,54.6c-1.2,17.4-1.4,35.8-0.6,55.2c0.8,19.4,0.2,36.6-1.8,51.5c-2,15-6.3,29.5-12.7,43.7
					c-6.5,14.1-17.8,24.8-34,32.1c-16.2,7.3-34.4,9.9-54.6,7.9c-20.2-2-36-6.7-47.3-13.9c-11.3-7.3-19.6-15.6-24.9-24.8
					c-5.3-9.3-9.7-20-13.3-32.1s-3.9-24.9-0.6-38.2c3.2-13.3,9.3-28.7,18.2-46.1c8.9-17.4,17.2-34,24.9-49.7s10.3-34.5,7.9-56.4
					c-2.4-21.8-5.5-40-9.1-54.6c-3.6-14.5-8.7-28.3-15.2-41.2c-6.5-12.9-14.4-25.3-23.7-37c-9.3-11.7-18.2-25.1-26.7-40
					c-8.5-14.9-14.2-30.5-17-46.7c-2.8-16.2-3.8-30.3-3-42.4c0.8-12.1,7.1-27.3,18.8-45.5c11.7-18.2,31.3-28.1,58.9-29.7
					c29.9,4.1,55.2,10.7,75.9,20c20.6,9.3,38.8,20.2,54.6,32.7c15.8,12.5,28.9,26.1,39.5,40.6C834.5,302.8,842,318.7,846.5,336.1z"
					/>
				<path d="M444.5,410.6c0.8,12.1-0.2,26.3-3,42.4c-2.8,16.2-8.5,31.7-17,46.7c-8.5,15-17.4,28.3-26.7,40
					c-9.3,11.7-17.2,24-23.7,37c-6.5,12.9-11.5,26.7-15.2,41.2c-3.6,14.5-6.7,32.7-9.1,54.6c-2.4,21.8,0.2,40.6,7.9,56.4
					s16,32.3,24.9,49.7c8.9,17.4,15,32.7,18.2,46.1c3.2,13.3,3,26.1-0.6,38.2c-3.6,12.1-8.1,22.8-13.4,32.1
					c-5.3,9.3-13.6,17.6-24.9,24.9c-11.3,7.3-27.1,11.9-47.3,13.9c-20.2,2-38.4-0.6-54.6-7.9c-16.2-7.3-27.5-18-34-32.1
					c-6.5-14.1-10.7-28.7-12.7-43.6c-2-15-2.6-32.1-1.8-51.5c0.8-19.4,0.6-37.8-0.6-55.2c-1.2-17.4-3.4-35.6-6.7-54.6
					c-3.2-19-7.1-36-11.5-50.9c-4.4-15-9.7-31.9-15.8-50.9c-6.1-19-9.1-37.8-9.1-56.4c0-18.6,2.2-36.6,6.7-53.9
					c4.5-17.4,11.9-33.3,22.5-47.9c10.5-14.6,23.7-28.1,39.4-40.6c15.8-12.5,34-23.4,54.6-32.7c20.6-9.3,45.9-16,75.9-20
					c27.5,1.6,47.1,11.5,58.9,29.7C437.4,383.3,443.7,398.5,444.5,410.6z"/>
			</g>
			<g>
			</g>
		</g>
	</g>
</g>
<g id="_x36_">
</g>
</svg>
