<?xml version="1.0" encoding="utf-8"?>
<!-- Generator: Adobe Illustrator 19.0.0, SVG Export Plug-In . SVG Version: 6.00 Build 0)  -->
<svg version="1.1" xmlns="http://www.w3.org/2000/svg" xmlns:xlink="http://www.w3.org/1999/xlink" x="0px" y="0px"
	 viewBox="0 0 1024 1024" style="enable-background:new 0 0 1024 1024;" xml:space="preserve">
<g id="_x33_">
	<g id="LINE_12_">
		<g id="XMLID_1_">
			<g>
				<path d="M332.2,860.4c39.9,30.2,29.3,73.1-23.5,95.9s-128,16.8-167.9-13.4c-39.9-30.2-29.3-73.1,23.5-95.9
					c18-5.5,34.6-16.3,49.6-32.3c15-16,25.8-34.5,32.2-55.5c-3.3,20,0.9,38.3,12.4,55c11.5,16.7,27.1,27.1,46.8,31.3
					C315.6,849.7,324.6,854.7,332.2,860.4z"/>
				<polygon points="961.9,301 513.2,634 450,621.4 340.1,731.3 321,712.2 260,773.1 246.1,759.2 232.2,745.3 293.1,684.4 
					274,665.3 384,555.4 371.3,492.1 704.4,43.5 833.1,172.2 				"/>
			</g>
			<g>
			</g>
		</g>
	</g>
</g>
<g id="_x36_">
</g>
</svg>
