<?xml version="1.0" encoding="utf-8"?>
<!-- Generator: Adobe Illustrator 19.0.0, SVG Export Plug-In . SVG Version: 6.00 Build 0)  -->
<svg version="1.1" xmlns="http://www.w3.org/2000/svg" xmlns:xlink="http://www.w3.org/1999/xlink" x="0px" y="0px"
	 viewBox="0 0 1024 1024" style="enable-background:new 0 0 1024 1024;" xml:space="preserve">
<g id="_x30_">
</g>
<g id="_x33_">
	<g id="LINE_16_">
		<g id="XMLID_1_">
			<g>
				<path d="M975.5,306.9c13.3,21.9,16.5,44.9,9.6,69.1c-12.9,45.4-58.4,73.7-136.4,84.8l-103.5,14.6c-38.9,5.4-63.8,16.3-74.8,32.6
					l-36.9,11.5l-51.3-56.4l65.9-18.7c6.1-1.8,12.4-3.4,18.8-4.8c35.9-6.6,57-20.6,63.1-42.1c0.9-3.2,2.3-8.1,4.2-14.7l2.9-10.3
					c4-14.1,6.3-22.3,7-24.7c9.4-32.9,31.3-57.8,65.7-74.7c34.8-17,70.6-20.2,107.2-9.8C942.7,270.5,962.2,285,975.5,306.9z
					 M955,367.5c4.4-15.3,2.2-30.3-6.5-44.8c-8.7-14.6-21.3-24.2-37.7-28.8c-27.6-7.8-55.8-4.6-84.6,9.7
					c-28.8,14.3-46.8,33.8-53.8,58.6c-9.6,33.8-2,54.2,22.7,61.3c12.7,3.6,30.6,3.6,53.6,0l25.9-4.3
					C920.9,410.4,947.7,393.2,955,367.5z"/>
				<path d="M437.7,505.9l57.5,61l-337.6,97.1c-13.4-1.1-25.8-3.2-37-6.4c-32.9-9.4-65.3-26.9-97-52.8L437.7,505.9z"/>
				<path d="M789.2,779.2c41.5,45.1,58.6,80.1,51.5,105.2c-5.5,19.3-18.2,32.9-38.1,40.8c-19.9,7.9-42.6,8.2-68.2,0.9
					c-50.6-14.4-93.3-47.3-128.2-98.7c-35-51.1-44.8-96.3-29.5-135.6l8.7-21.2l4.9-10.6l1.2-4.1c7-24.6-1-45.4-23.9-62.3l-8.9-6.3
					c-5.6-4.2-15.4-13.6-29.4-28.2L142.2,159.8c42.9-4,84.1-0.4,123.5,10.8c6.8,1.9,15.3,4.9,25.4,9l354.4,400.8
					c-1.1,4.1-2,7-2.5,8.8c-4.3,15.1,6.1,36.5,31.2,64L789.2,779.2z M810.7,875.3c4.3-15.1-6.4-37.3-32-66.6l-85.6-89.5
					c-19.8-20-35.4-31.5-46.8-34.8c-18.8-5.3-31.2,2.6-37.2,23.8c-9,31.6,1.2,68,30.5,109.2c29.3,41.1,63.7,67.3,103.2,78.5
					c19.2,5.5,34.5,6.5,45.8,3C799.8,895.5,807.2,887.6,810.7,875.3z M564,518.5c0-12-9.7-21.6-21.7-21.6s-21.7,9.7-21.7,21.6
					c0,12,9.7,21.7,21.7,21.7S564,530.5,564,518.5z"/>
			</g>
			<g>
			</g>
		</g>
	</g>
</g>
<g id="_x36_">
</g>
</svg>
