<?xml version="1.0" encoding="utf-8"?>
<!-- Generator: Adobe Illustrator 19.0.0, SVG Export Plug-In . SVG Version: 6.00 Build 0)  -->
<svg version="1.1" xmlns="http://www.w3.org/2000/svg" xmlns:xlink="http://www.w3.org/1999/xlink" x="0px" y="0px"
	 viewBox="0 0 1024 1024" style="enable-background:new 0 0 1024 1024;" xml:space="preserve">
<g id="_x30_">
</g>
<g id="_x33_">
	<g id="LINE_39_">
		<g id="XMLID_1_">
			<g>
				<rect x="79" y="197.1" width="314.9" height="118.1"/>
				<rect x="512" y="197.1" width="433" height="118.1"/>
				<polygon points="945,512 945,826.9 79,826.9 79,512 128.2,512 128.2,708.8 187.2,708.8 187.2,512 246.3,512 246.3,610.4 
					305.3,610.4 305.3,512 364.4,512 364.4,610.4 423.4,610.4 423.4,512 482.5,512 482.5,708.8 541.5,708.8 541.5,512 600.6,512 
					600.6,610.4 659.6,610.4 659.6,512 718.7,512 718.7,610.4 777.7,610.4 777.7,512 836.8,512 836.8,708.8 895.8,708.8 895.8,512 
									"/>
			</g>
			<g>
			</g>
		</g>
	</g>
</g>
<g id="_x36_">
</g>
</svg>
