<?xml version="1.0" encoding="utf-8"?>
<!-- Generator: Adobe Illustrator 19.0.0, SVG Export Plug-In . SVG Version: 6.00 Build 0)  -->
<svg version="1.1" xmlns="http://www.w3.org/2000/svg" xmlns:xlink="http://www.w3.org/1999/xlink" x="0px" y="0px"
	 viewBox="0 0 1024 1024" style="enable-background:new 0 0 1024 1024;" xml:space="preserve">
<g id="_x30_">
</g>
<g id="_x33_">
	<g id="SPLINE_13_">
		<g id="XMLID_1_">
			<g>
				<rect x="393.9" y="630.1" width="196.8" height="118.1"/>
				<rect x="708.8" y="630.1" width="236.2" height="118.1"/>
				<rect x="79" y="630.1" width="196.8" height="118.1"/>
				<path d="M661.6,504.1v7.9H512v-7.9h6c13.6,0,23.1-2.4,28.6-7.2c5.5-4.8,9.3-11.9,11.4-21.2c0.8-3.6,1.2-15.1,1.2-34.6v-130
					c0-28.9-3.8-49.8-11.5-62.9c-7.7-13.1-20.6-19.6-38.7-19.6c-28,0-55.8,15-83.7,44.9v167.7c0,22.8,1.1,36.9,3.4,42.3
					c3,7.1,7,12.4,12.2,15.7c5.2,3.3,15.7,5,31.6,5v7.9H323v-7.9h6.8c15.9,0,26.6-4.4,32.2-13.1c5.5-8.7,8.3-25.4,8.3-49.9V323
					c0-38.4-0.8-61.8-2.3-70.2c-1.5-8.4-3.9-14.1-7.1-17.1c-3.2-3-7.5-4.5-12.8-4.5c-5.7,0-12.5,1.7-20.6,5.2l-4.5-7.9l88.6-39.4
					h13.8V253c37.3-42.6,72.9-63.8,106.7-63.8c17.4,0,32.3,4.3,44.8,12.9c12.5,8.6,22.5,22.7,29.8,42.3c5.1,13.7,7.6,34.7,7.6,63
					v133.9c0,21.3,1.6,35.8,4.7,43.4c2.5,6.1,6.6,10.9,12,14.4C636.6,502.4,646.8,504.1,661.6,504.1z"/>
			</g>
			<g>
			</g>
		</g>
	</g>
</g>
<g id="_x36_">
</g>
</svg>
