<?xml version="1.0" encoding="utf-8"?>
<!-- Generator: Adobe Illustrator 19.0.0, SVG Export Plug-In . SVG Version: 6.00 Build 0)  -->
<svg version="1.1" xmlns="http://www.w3.org/2000/svg" xmlns:xlink="http://www.w3.org/1999/xlink" x="0px" y="0px"
	 viewBox="0 0 1024 1024" style="enable-background:new 0 0 1024 1024;" xml:space="preserve">
<g id="_x33_">
	<g id="CIRCLE">
		<g id="XMLID_1_">
			<g>
				<polygon points="704.4,182.8 531.5,87.7 547.1,67 				"/>
				<polygon points="724.6,62 741.3,158.5 709.7,65.7 				"/>
				<polygon points="834.3,76.5 784.1,163.4 822.4,71.1 				"/>
				<polygon points="935.1,128.5 944.2,149 813.7,194.7 				"/>
				<polygon points="953.1,267.1 948.5,283.4 815.9,236.2 				"/>
				<polygon points="789.8,268.8 876.2,379 856.4,392.3 				"/>
				<polygon points="748.2,315.2 733.8,473.8 708.8,471.7 				"/>
				<path d="M768.6,226.7c3,11.9-2.9,24.6-17.7,37.9c-14.8,13.4-33.2,22.8-55.3,28.3c-46.7,11.7-111.7-1.5-194.9-39.4l-32.1-14.7
					c-60.9-27.7-105.2-38.1-132.8-31.2c-40.8,10.2-54.9,40.6-42.3,91c23.3,0.6,45,2.7,64.9,6.4l16.5,65.9
					c134.8,19.6,217.2,89.9,247.5,210.9c18.9,75.5,9.2,146.3-29,212.4s-93.7,108.2-166.5,126.4c-72.6,18.1-141.2,7.1-206-33.2
					c-64.8-40.3-106.5-97.9-125.3-172.7c-29.5-118,10.1-219.2,118.9-303.6L198,345c13.2-12.7,30.7-23.9,52.5-33.7l-2.6-10.4
					c-6.2-31.3-1.5-59.9,14.1-85.8c15.6-25.9,38.5-42.7,68.7-50.2c40.6-10.1,95.5,1.2,164.8,34.1l29.8,14.3
					c71.9,34.2,126.6,46.6,164.2,37.2c12.7-3.2,27-13.1,43.1-29.8c2.3-2.5,5.8-4.4,10.4-5.5C757.3,211.7,765.8,215.5,768.6,226.7z
					 M292.1,590.7c0-30.7-24.9-55.7-55.7-55.7c-30.7,0-55.7,24.9-55.7,55.7c0,30.8,24.9,55.7,55.7,55.7
					C267.2,646.4,292.1,621.5,292.1,590.7z"/>
			</g>
			<g>
			</g>
		</g>
	</g>
</g>
<g id="_x36_">
</g>
</svg>
