<?xml version="1.0" encoding="utf-8"?>
<!-- Generator: Adobe Illustrator 15.1.0, SVG Export Plug-In . SVG Version: 6.00 Build 0)  -->
<!DOCTYPE svg PUBLIC "-//W3C//DTD SVG 1.1//EN" "http://www.w3.org/Graphics/SVG/1.1/DTD/svg11.dtd">
<svg version="1.1" id="Layer_1" xmlns="http://www.w3.org/2000/svg" xmlns:xlink="http://www.w3.org/1999/xlink" x="0px" y="0px"
	 width="128px" height="128px" viewBox="0 0 128 128" enable-background="new 0 0 128 128" xml:space="preserve">
<g id="SPLINE_9_">
	<g id="XMLID_1_">
		<g>
			<path d="M114.3,18.43c6.63,5.72,9.94,12.74,9.94,21.04c0,16.81-10.54,33.95-31.62,51.44c-14.66,12.14-24.24,22.35-28.73,30.63
				c-4.5-8.28-14.08-18.49-28.74-30.63C14.08,73.42,3.54,56.28,3.54,39.47c0-8.3,3.31-15.32,9.93-21.04
				c6.3-5.47,13.65-8.2,22.04-8.2c12.52,0,21.97,6.54,28.38,19.62c6.4-13.08,15.86-19.62,28.37-19.62
				C100.66,10.23,108,12.96,114.3,18.43z"/>
		</g>
		<g>
		</g>
	</g>
</g>
</svg>
