<?xml version="1.0" encoding="utf-8"?>
<!-- Generator: Adobe Illustrator 19.0.0, SVG Export Plug-In . SVG Version: 6.00 Build 0)  -->
<svg version="1.1" xmlns="http://www.w3.org/2000/svg" xmlns:xlink="http://www.w3.org/1999/xlink" x="0px" y="0px"
	 viewBox="0 0 1024 1024" style="enable-background:new 0 0 1024 1024;" xml:space="preserve">
<g id="_x30_">
</g>
<g id="_x33_">
	<g id="LINE_13_">
		<g id="XMLID_1_">
			<g>
				<path d="M919.2,268.3v173.2L803.7,557H601.6L308.4,909.1c-5.6,6.7-11.8,13-18.6,18.6c-61.3,51-152.3,42.7-203.3-18.6
					s-42.7-152.3,18.6-203.3l352.2-293.2V210.5L572.8,95.1H746v57.7L630.5,268.3v115.5H746l115.5-115.5H919.2z M262,816.8
					c0-35.7-28.9-64.6-64.6-64.6s-64.6,28.9-64.6,64.6c0,35.6,28.9,64.5,64.6,64.5S262,852.4,262,816.8z"/>
			</g>
			<g>
			</g>
		</g>
	</g>
</g>
<g id="_x36_">
</g>
</svg>
