<?xml version="1.0" encoding="utf-8"?>
<!-- Generator: Adobe Illustrator 19.0.0, SVG Export Plug-In . SVG Version: 6.00 Build 0)  -->
<svg version="1.1" xmlns="http://www.w3.org/2000/svg" xmlns:xlink="http://www.w3.org/1999/xlink" x="0px" y="0px"
	 viewBox="0 0 1024 1024" style="enable-background:new 0 0 1024 1024;" xml:space="preserve">
<g id="_x30_">
</g>
<g id="_x33_">
	<g id="LINE_5_">
		<g id="XMLID_1_">
			<g>
				<path d="M816,748.2h99.5c-27.9,56.3-70.7,100.3-128.4,132.1c-66.1,36.6-146.8,54.9-241.9,54.9c-92.1,0-171.5-15.8-238.4-47.4
					c-66.9-31.6-116.7-78.2-149.3-139.8c-32.7-61.6-49-128.7-49-201.1c0-79.6,18.4-153.7,55.1-222.4c36.8-68.7,87-120.2,150.9-154.6
					c63.8-34.4,136.7-51.6,218.7-51.6c69.7,0,131.6,13.8,185.8,41.4s95.5,66.8,124.1,117.6c28.6,50.8,42.9,106.3,42.9,166.6
					c0,71.8-21.8,136.6-65.5,194.5c-54.9,73.2-125.3,109.8-211,109.8c-23.2,0-40.6-3.9-52.3-11.6c-11.7-7.7-19.5-19.1-23.4-34.1
					c-32.1,30.4-69.1,45.7-110.9,45.7c-45.1,0-82.5-16.3-112.3-48.8c-29.8-32.5-44.7-75.9-44.7-130c0-66.8,18-127.8,54-183
					c43.7-67.1,99.6-100.7,167.8-100.7c48.5,0,84.3,19.7,107.5,59.2l11.1-49.4h110l-60.7,305.4c-3.8,19.3-5.7,31.8-5.7,37.5
					c0,7.1,1.5,12.4,4.6,15.9c3.1,3.5,6.8,5.3,11.1,5.3c12.9,0,29.6-8.1,50-24.3c27.4-21.2,49.5-49.7,66.4-85.5
					c16.9-35.8,25.4-72.8,25.4-111c0-68.7-24.3-126.1-72.9-172.4c-48.6-46.2-116.5-69.4-203.6-69.4c-73.9,0-136.6,15.6-188.1,46.8
					c-51.5,31.2-90.2,75.2-116.3,131.9c-26.1,56.7-39.1,115.8-39.1,177.2c0,59.6,14.6,113.8,43.7,162.8c29.1,49,70,84.7,122.6,107.1
					c52.6,22.4,112.8,33.7,180.5,33.7c65.3,0,121.5-9,168.5-27.1C749.5,811.3,787.3,784.3,816,748.2z M555.6,555.7
					c10.3-33,15.5-63.8,15.5-92.3c0-31.9-7-56.4-21.1-73.4c-14-17.1-31.7-25.6-53-25.6c-23,0-44.2,9.4-63.7,28.1
					c-19.5,18.8-34.2,45.5-44.1,80.2c-9.9,34.7-14.8,65.4-14.8,92.2c0,35.9,6.9,62.3,20.7,79.2c13.8,16.9,30.8,25.4,51.1,25.4
					c15.2,0,29.5-3.9,42.9-11.8c10.1-5.6,20.1-14.5,30-26.6C533.1,613.8,545.3,588.7,555.6,555.7z"/>
			</g>
			<g>
			</g>
		</g>
	</g>
</g>
<g id="_x36_">
</g>
</svg>
