<?xml version="1.0" encoding="utf-8"?>
<!-- Generator: Adobe Illustrator 19.0.0, SVG Export Plug-In . SVG Version: 6.00 Build 0)  -->
<svg version="1.1" xmlns="http://www.w3.org/2000/svg" xmlns:xlink="http://www.w3.org/1999/xlink" x="0px" y="0px"
	 viewBox="0 0 1024 1024" style="enable-background:new 0 0 1024 1024;" xml:space="preserve">
<g id="_x30_">
</g>
<g id="_x33_">
	<g id="LINE_30_">
		<g id="XMLID_1_">
			<g>
				<path d="M777.4,236.4l-35.8,39.4H354.5v-39.4c0-21.7-17.6-39.4-39.4-39.4H157.7c-21.7,0-39.4,17.6-39.4,39.4v629.9h74.8
					L173,905.7H79V236.4c0-43.5,35.3-78.7,78.7-78.7h157.5c43.5,0,78.7,35.3,78.7,78.7H777.4z"/>
				<path d="M945,236.4v669.2H285.6l35.5-39.4h269.6l-0.1-78.7h315.1V275.8h-34l19.2-39.4H945z M905.7,866.3v-39.4H630l0.1,39.4
					H905.7z"/>
				<polygon points="866.3,197.1 578.3,787.5 490.8,619.4 197.1,945 496.2,361.3 584.5,507.4 				"/>
			</g>
			<g>
			</g>
		</g>
	</g>
</g>
<g id="_x36_">
</g>
</svg>
