<?xml version="1.0" encoding="utf-8"?>
<!-- Generator: Adobe Illustrator 19.0.0, SVG Export Plug-In . SVG Version: 6.00 Build 0)  -->
<svg version="1.1" xmlns="http://www.w3.org/2000/svg" xmlns:xlink="http://www.w3.org/1999/xlink" x="0px" y="0px"
	 viewBox="0 0 1024 1024" style="enable-background:new 0 0 1024 1024;" xml:space="preserve">
<g id="_x30_">
</g>
<g id="_x33_">
	<g id="LINE_6_">
		<g id="XMLID_1_">
			<g>
				<path d="M526,101.6c61.5,0,111.4,49.9,111.4,111.3S587.5,324.3,526,324.3c-61.5,0-111.3-49.9-111.3-111.4S464.5,101.6,526,101.6
					z"/>
				<path d="M685.4,933.3v27.5H409.9v-27.5c20.4-0.9,35.4-8.2,45.2-22c6.6-9.3,9.9-34.2,9.9-74.5V533.8c0-40.3-3.8-66.1-11.3-77.3
					c-7.5-11.2-22.1-17.6-43.8-19.2v-27.6h220.4v427.1c0,40.3,3.7,66.1,11.2,77.3C649,925.4,663.6,931.8,685.4,933.3z"/>
			</g>
			<g>
			</g>
		</g>
	</g>
</g>
<g id="_x36_">
</g>
</svg>
