<?xml version="1.0" encoding="utf-8"?>
<!-- Generator: Adobe Illustrator 19.0.0, SVG Export Plug-In . SVG Version: 6.00 Build 0)  -->
<svg version="1.1" xmlns="http://www.w3.org/2000/svg" xmlns:xlink="http://www.w3.org/1999/xlink" x="0px" y="0px"
	 viewBox="0 0 1024 1024" style="enable-background:new 0 0 1024 1024;" xml:space="preserve">
<g id="_x30_">
</g>
<g id="_x33_">
	<g id="LINE_29_">
		<g id="XMLID_1_">
			<g>
				<path d="M462.6,727.8c0,0.4,0,0.8,0,1.2c0,22.3-7.3,43.9-20.7,61.7c22.6,34.7,66.7,48.6,105.1,33l157.5-63.7
					c25.7-10.4,54.9,2,65.3,27.7c10.4,25.7-2,54.9-27.7,65.3l-97,39.3h106.4c23.9,0,43.3,19.4,43.3,43.3v25.4H257.2v-25.4
					c0-23.9,19.4-43.3,43.3-43.3h104.3c-22.9-16.3-42-37.4-56-61.7c-26.4-3-50.6-16.2-67.4-36.8c-35.7-43.6-29.3-108,14.3-143.7
					c43.6-35.7,108-29.3,143.7,14.3l262.8-106.4c17.3-7,37,1.3,44,18.6c7,17.3-1.3,37-18.6,44L462.6,727.8z"/>
				<polygon points="570.9,440.5 592.5,493.7 575.5,533.6 485.9,569.9 446,553 424.5,499.7 				"/>
				<path d="M459.5,165.2l91.6,226.4l-146.4,59.3L390.6,416c-45.8,13.8-71.8,62-58,107.9c0.8,2.6,1.7,5.1,2.7,7.6l23.4,57.8
					c-35,0.5-68.5,14-94,38l-21-51.8c-0.1-0.4-0.3-0.7-0.4-1.1c-39.8-100,9-213.3,109-253.1l-39.1-96.7l34.8-14.1l-20.4-50.3
					l-34.8,14.1l-20.7-51l146.4-59.3l20.7,51l-33.9,13.7l20.4,50.3L459.5,165.2z"/>
			</g>
			<g>
			</g>
		</g>
	</g>
</g>
<g id="_x36_">
</g>
</svg>
