<?xml version="1.0" encoding="utf-8"?>
<!-- Generator: Adobe Illustrator 19.0.0, SVG Export Plug-In . SVG Version: 6.00 Build 0)  -->
<svg version="1.1" xmlns="http://www.w3.org/2000/svg" xmlns:xlink="http://www.w3.org/1999/xlink" x="0px" y="0px"
	 viewBox="0 0 1024 1024" style="enable-background:new 0 0 1024 1024;" xml:space="preserve">
<g id="_x30_">
</g>
<g id="_x33_">
	<g id="LINE_42_">
		<g id="XMLID_1_">
			<g>
				<path d="M945,590.7v78.7l-39.4,118.1v39.4h-748c-10.9-10.9-10.9-28.5,0-39.4L79,551.4h118.1l78.7,118.1h433l39.4-78.7H945z"/>
				<path d="M905.7,393.9v157.5H748.2v-78.7h39.4V315.2h78.7v78.7H905.7z M866.3,512v-39.4h-39.4V512H866.3z"/>
				<rect x="590.7" y="472.6" width="118.1" height="157.5"/>
				<rect x="275.8" y="472.6" width="118.1" height="157.5"/>
				<rect x="433.3" y="472.6" width="118.1" height="157.5"/>
				<polygon points="640.2,157.8 640.2,315.3 393.9,315.3 393.9,394 236.4,236.6 393.9,79.1 393.9,157.8 				"/>
			</g>
			<g>
			</g>
		</g>
	</g>
</g>
<g id="_x36_">
</g>
</svg>
