<?xml version="1.0" encoding="utf-8"?>
<!-- Generator: Adobe Illustrator 19.0.0, SVG Export Plug-In . SVG Version: 6.00 Build 0)  -->
<svg version="1.1" xmlns="http://www.w3.org/2000/svg" xmlns:xlink="http://www.w3.org/1999/xlink" x="0px" y="0px"
	 viewBox="0 0 1024 1024" style="enable-background:new 0 0 1024 1024;" xml:space="preserve">
<g id="_x30_">
</g>
<g id="_x33_">
	<g id="LINE_42_">
		<g id="XMLID_1_">
			<g>
				<path d="M945,551.4l-78.7,236.2c10.9,10.9,10.9,28.5,0,39.4h-748v-39.4L79,669.5v-78.7h196.8l39.4,78.7h433l78.7-118.1H945z"/>
				<rect x="630.1" y="472.6" width="118.1" height="157.5"/>
				<path d="M275.8,472.6v78.7H118.3V393.9h39.4v-78.7h78.7v157.5H275.8z M197.1,512v-39.4h-39.4V512H197.1z"/>
				<rect x="315.2" y="472.6" width="118.1" height="157.5"/>
				<rect x="472.6" y="472.6" width="118.1" height="157.5"/>
				<polygon points="787.6,236.6 630.1,394 630.1,315.3 383.8,315.3 383.8,157.8 630.1,157.8 630.1,79.1 				"/>
			</g>
			<g>
			</g>
		</g>
	</g>
</g>
<g id="_x36_">
</g>
</svg>
