<?xml version="1.0" encoding="utf-8"?>
<!-- Generator: Adobe Illustrator 19.0.0, SVG Export Plug-In . SVG Version: 6.00 Build 0)  -->
<svg version="1.1" xmlns="http://www.w3.org/2000/svg" xmlns:xlink="http://www.w3.org/1999/xlink" x="0px" y="0px"
	 viewBox="0 0 1024 1024" style="enable-background:new 0 0 1024 1024;" xml:space="preserve">
<g id="_x30_">
</g>
<g id="_x33_">
	<g id="LINE_17_">
		<g id="XMLID_1_">
			<g>
				<path d="M910.5,416.7c15,62.6,15,127.9,0,190.5h-79c-6.5,21.9-15.3,43.2-26.2,63.3l55.9,55.9c-33.7,54.9-79.9,101-134.7,134.7
					l-55.9-55.9c-20.2,10.9-41.4,19.7-63.3,26.2v79c-62.6,15-127.9,15-190.5,0v-79c-22-6.5-43.2-15.3-63.3-26.2l-55.9,55.9
					c-54.9-33.7-101-79.9-134.7-134.7l55.9-55.9c-10.9-20.2-19.7-41.4-26.2-63.3h-79c-15-62.6-15-127.9,0-190.5h79
					c6.5-22,15.3-43.2,26.2-63.3l-55.9-55.9c33.7-54.9,79.9-101,134.7-134.7l55.9,55.9c20.1-10.9,41.4-19.7,63.3-26.2v-79
					c62.6-15,127.9-15,190.5,0v79c21.9,6.5,43.2,15.3,63.3,26.2l55.9-55.9c54.9,33.7,101,79.9,134.7,134.7l-55.9,55.9
					c10.9,20.1,19.7,41.4,26.2,63.3H910.5z M654.9,512c0-78.9-64-142.9-142.9-142.9s-142.9,64-142.9,142.9s64,142.9,142.9,142.9
					S654.9,590.9,654.9,512z"/>
			</g>
			<g>
			</g>
		</g>
	</g>
</g>
<g id="_x36_">
</g>
</svg>
