<?xml version="1.0" encoding="utf-8"?>
<!-- Generator: Adobe Illustrator 19.0.0, SVG Export Plug-In . SVG Version: 6.00 Build 0)  -->
<svg version="1.1" xmlns="http://www.w3.org/2000/svg" xmlns:xlink="http://www.w3.org/1999/xlink" x="0px" y="0px"
	 viewBox="0 0 1024 1024" style="enable-background:new 0 0 1024 1024;" xml:space="preserve">
<g id="_x30_">
</g>
<g id="_x33_">
	<g id="LINE_23_">
		<g id="XMLID_1_">
			<g>
				<polygon points="787.4,236.4 708.7,236.4 708.7,423.7 551.2,423.7 551.2,236.4 472.5,236.4 630,79 				"/>
				<path d="M954.1,472.6l-166.5,433H79V315.2c0-43.5,35.3-78.7,78.7-78.7h157.5c43.5,0,78.7,35.3,78.7,78.7v39.4h78.7v39.4H354.5
					v-78.7c0-21.7-17.6-39.4-39.4-39.4H157.7c-21.7,0-39.4,17.6-39.4,39.4v488.1l127.2-330.7h542V354.5h39.4v118.1H954.1z"/>
			</g>
			<g>
			</g>
		</g>
	</g>
</g>
<g id="_x36_">
</g>
</svg>
