<?xml version="1.0" encoding="utf-8"?>
<!-- Generator: Adobe Illustrator 15.1.0, SVG Export Plug-In . SVG Version: 6.00 Build 0)  -->
<!DOCTYPE svg PUBLIC "-//W3C//DTD SVG 1.1//EN" "http://www.w3.org/Graphics/SVG/1.1/DTD/svg11.dtd">
<svg version="1.1" id="Layer_1" xmlns="http://www.w3.org/2000/svg" xmlns:xlink="http://www.w3.org/1999/xlink" x="0px" y="0px"
	 width="128px" height="128px" viewBox="0 0 128 128" enable-background="new 0 0 128 128" xml:space="preserve">
<g id="LINE_35_">
	<g id="XMLID_1_">
		<g>
			<path fill="#FFFFFF" d="M119.2,8.87v110.6H8.6V8.87H119.2z M108.14,108.41V80.76L96.27,92.63l-8.3-8.29l-3.91,3.91l8.301,8.29
				l-11.87,11.87H108.14z M108.14,47.58V19.93H80.49L92.36,31.8L78.53,45.63l3.91,3.91L96.27,35.71L108.14,47.58z M49.26,45.63
				L35.44,31.8l11.87-11.87H19.66v27.65l11.87-11.87l13.82,13.83L49.26,45.63z M35.44,96.54l13.82-13.82l-3.91-3.91L31.53,92.63
				L19.66,80.76v27.65h27.65L35.44,96.54z"/>
			<path d="M124.73,3.34V125H3.07V3.34H124.73z M119.2,119.47V8.87H8.6v110.6H119.2z"/>
			<polygon points="108.14,80.76 108.14,108.41 80.49,108.41 92.36,96.54 84.06,88.25 87.97,84.34 96.27,92.63 			"/>
			<polygon points="49.26,82.72 35.44,96.54 47.31,108.41 19.66,108.41 19.66,80.76 31.53,92.63 45.35,78.81 			"/>
			<polygon points="35.44,31.8 49.26,45.63 45.35,49.54 31.53,35.71 19.66,47.58 19.66,19.93 47.31,19.93 			"/>
			<polygon points="108.14,19.93 108.14,47.58 96.27,35.71 82.44,49.54 78.53,45.63 92.36,31.8 80.49,19.93 			"/>
		</g>
		<g>
			
				<line fill="none" stroke="#808080" stroke-width="0.3685" stroke-linecap="round" stroke-linejoin="round" stroke-miterlimit="10" x1="3.07" y1="125" x2="124.73" y2="125"/>
			
				<line fill="none" stroke="#808080" stroke-width="0.3685" stroke-linecap="round" stroke-linejoin="round" stroke-miterlimit="10" x1="124.73" y1="125" x2="124.73" y2="3.34"/>
			
				<line fill="none" stroke="#808080" stroke-width="0.3685" stroke-linecap="round" stroke-linejoin="round" stroke-miterlimit="10" x1="3.07" y1="125" x2="3.07" y2="3.34"/>
			
				<line fill="none" stroke="#808080" stroke-width="0.3685" stroke-linecap="round" stroke-linejoin="round" stroke-miterlimit="10" x1="8.6" y1="119.47" x2="119.2" y2="119.47"/>
			
				<line fill="none" stroke="#808080" stroke-width="0.3685" stroke-linecap="round" stroke-linejoin="round" stroke-miterlimit="10" x1="119.2" y1="119.47" x2="119.2" y2="8.87"/>
			
				<line fill="none" stroke="#808080" stroke-width="0.3685" stroke-linecap="round" stroke-linejoin="round" stroke-miterlimit="10" x1="8.6" y1="119.47" x2="8.6" y2="8.87"/>
			
				<line fill="none" stroke="#808080" stroke-width="0.3685" stroke-linecap="round" stroke-linejoin="round" stroke-miterlimit="10" x1="87.97" y1="84.34" x2="84.06" y2="88.25"/>
			
				<line fill="none" stroke="#808080" stroke-width="0.3685" stroke-linecap="round" stroke-linejoin="round" stroke-miterlimit="10" x1="92.36" y1="96.54" x2="84.06" y2="88.25"/>
			
				<line fill="none" stroke="#808080" stroke-width="0.3685" stroke-linecap="round" stroke-linejoin="round" stroke-miterlimit="10" x1="92.36" y1="96.54" x2="80.49" y2="108.41"/>
			
				<line fill="none" stroke="#808080" stroke-width="0.3685" stroke-linecap="round" stroke-linejoin="round" stroke-miterlimit="10" x1="80.49" y1="108.41" x2="108.14" y2="108.41"/>
			
				<line fill="none" stroke="#808080" stroke-width="0.3685" stroke-linecap="round" stroke-linejoin="round" stroke-miterlimit="10" x1="108.14" y1="108.41" x2="108.14" y2="80.76"/>
			
				<line fill="none" stroke="#808080" stroke-width="0.3685" stroke-linecap="round" stroke-linejoin="round" stroke-miterlimit="10" x1="108.14" y1="80.76" x2="96.27" y2="92.63"/>
			
				<line fill="none" stroke="#808080" stroke-width="0.3685" stroke-linecap="round" stroke-linejoin="round" stroke-miterlimit="10" x1="96.27" y1="92.63" x2="87.97" y2="84.34"/>
			
				<line fill="none" stroke="#808080" stroke-width="0.3685" stroke-linecap="round" stroke-linejoin="round" stroke-miterlimit="10" x1="49.26" y1="82.72" x2="45.35" y2="78.81"/>
			
				<line fill="none" stroke="#808080" stroke-width="0.3685" stroke-linecap="round" stroke-linejoin="round" stroke-miterlimit="10" x1="31.53" y1="92.63" x2="45.35" y2="78.81"/>
			
				<line fill="none" stroke="#808080" stroke-width="0.3685" stroke-linecap="round" stroke-linejoin="round" stroke-miterlimit="10" x1="31.53" y1="92.63" x2="19.66" y2="80.76"/>
			
				<line fill="none" stroke="#808080" stroke-width="0.3685" stroke-linecap="round" stroke-linejoin="round" stroke-miterlimit="10" x1="19.66" y1="80.76" x2="19.66" y2="108.41"/>
			
				<line fill="none" stroke="#808080" stroke-width="0.3685" stroke-linecap="round" stroke-linejoin="round" stroke-miterlimit="10" x1="19.66" y1="108.41" x2="47.31" y2="108.41"/>
			
				<line fill="none" stroke="#808080" stroke-width="0.3685" stroke-linecap="round" stroke-linejoin="round" stroke-miterlimit="10" x1="47.31" y1="108.41" x2="35.44" y2="96.54"/>
			
				<line fill="none" stroke="#808080" stroke-width="0.3685" stroke-linecap="round" stroke-linejoin="round" stroke-miterlimit="10" x1="35.44" y1="96.54" x2="49.26" y2="82.72"/>
			
				<line fill="none" stroke="#808080" stroke-width="0.3685" stroke-linecap="round" stroke-linejoin="round" stroke-miterlimit="10" x1="3.07" y1="3.34" x2="124.73" y2="3.34"/>
			
				<line fill="none" stroke="#808080" stroke-width="0.3685" stroke-linecap="round" stroke-linejoin="round" stroke-miterlimit="10" x1="8.6" y1="8.87" x2="119.2" y2="8.87"/>
			
				<line fill="none" stroke="#808080" stroke-width="0.3685" stroke-linecap="round" stroke-linejoin="round" stroke-miterlimit="10" x1="45.35" y1="49.54" x2="49.26" y2="45.63"/>
			
				<line fill="none" stroke="#808080" stroke-width="0.3685" stroke-linecap="round" stroke-linejoin="round" stroke-miterlimit="10" x1="35.44" y1="31.8" x2="49.26" y2="45.63"/>
			
				<line fill="none" stroke="#808080" stroke-width="0.3685" stroke-linecap="round" stroke-linejoin="round" stroke-miterlimit="10" x1="35.44" y1="31.8" x2="47.31" y2="19.93"/>
			
				<line fill="none" stroke="#808080" stroke-width="0.3685" stroke-linecap="round" stroke-linejoin="round" stroke-miterlimit="10" x1="47.31" y1="19.93" x2="19.66" y2="19.93"/>
			
				<line fill="none" stroke="#808080" stroke-width="0.3685" stroke-linecap="round" stroke-linejoin="round" stroke-miterlimit="10" x1="19.66" y1="19.93" x2="19.66" y2="47.58"/>
			
				<line fill="none" stroke="#808080" stroke-width="0.3685" stroke-linecap="round" stroke-linejoin="round" stroke-miterlimit="10" x1="19.66" y1="47.58" x2="31.53" y2="35.71"/>
			
				<line fill="none" stroke="#808080" stroke-width="0.3685" stroke-linecap="round" stroke-linejoin="round" stroke-miterlimit="10" x1="31.53" y1="35.71" x2="45.35" y2="49.54"/>
			
				<line fill="none" stroke="#808080" stroke-width="0.3685" stroke-linecap="round" stroke-linejoin="round" stroke-miterlimit="10" x1="78.53" y1="45.63" x2="82.44" y2="49.54"/>
			
				<line fill="none" stroke="#808080" stroke-width="0.3685" stroke-linecap="round" stroke-linejoin="round" stroke-miterlimit="10" x1="96.27" y1="35.71" x2="82.44" y2="49.54"/>
			
				<line fill="none" stroke="#808080" stroke-width="0.3685" stroke-linecap="round" stroke-linejoin="round" stroke-miterlimit="10" x1="96.27" y1="35.71" x2="108.14" y2="47.58"/>
			
				<line fill="none" stroke="#808080" stroke-width="0.3685" stroke-linecap="round" stroke-linejoin="round" stroke-miterlimit="10" x1="108.14" y1="47.58" x2="108.14" y2="19.93"/>
			
				<line fill="none" stroke="#808080" stroke-width="0.3685" stroke-linecap="round" stroke-linejoin="round" stroke-miterlimit="10" x1="108.14" y1="19.93" x2="80.49" y2="19.93"/>
			
				<line fill="none" stroke="#808080" stroke-width="0.3685" stroke-linecap="round" stroke-linejoin="round" stroke-miterlimit="10" x1="80.49" y1="19.93" x2="92.36" y2="31.8"/>
			
				<line fill="none" stroke="#808080" stroke-width="0.3685" stroke-linecap="round" stroke-linejoin="round" stroke-miterlimit="10" x1="92.36" y1="31.8" x2="78.53" y2="45.63"/>
		</g>
	</g>
</g>
</svg>
