<?xml version="1.0" encoding="utf-8"?>
<!-- Generator: Adobe Illustrator 15.1.0, SVG Export Plug-In . SVG Version: 6.00 Build 0)  -->
<!DOCTYPE svg PUBLIC "-//W3C//DTD SVG 1.1//EN" "http://www.w3.org/Graphics/SVG/1.1/DTD/svg11.dtd">
<svg version="1.1" id="Layer_1" xmlns="http://www.w3.org/2000/svg" xmlns:xlink="http://www.w3.org/1999/xlink" x="0px" y="0px"
	 width="128px" height="128px" viewBox="0 0 128 128" enable-background="new 0 0 128 128" xml:space="preserve">
<g id="LINE_67_">
	<g id="XMLID_1_">
		<g>
			<path d="M68.89,11.57L52.2,7.33l-11.56,4.24H68.89z M52.06,4.56l59.22,15.03l-0.65,2.57l-20.87-5.29H26.2l-0.91-2.49L52.06,4.56z
				"/>
			<path d="M11.17,46.94l17.91-9.26l-11.83-5.81l-9.18,4.75L11.17,46.94z M17.36,67.59l35.37-18.28l-11.82-5.82L14.26,57.27
				L17.36,67.59z M26.99,86.47L70.48,63.99v-5.97l-5.92-2.9l-44.1,22.8l1.55,5.16L26.99,86.47z M46.91,100.02l23.57-12.18V75.91
				L36.95,93.24L46.91,100.02z M66.83,113.57l3.65-1.88V99.76l-13.61,7.04L66.83,113.57z M76.3,114.66l3.03-3.51l-3.03-2.78V114.66z
				 M86.26,103.13l6.931-8.02L76.3,79.6V93.98L86.26,103.13z M103.58,83.08l1.689-5.64l-24.71-22.7l-4.26,3.28v7.19l23.82,21.88
				L103.58,83.08z M108.66,66.16l3.38-11.27L97.6,41.62l-8.52,6.56L108.66,66.16z M115.42,43.61l3.38-11.28l-4.17-3.83l-8.51,6.56
				L115.42,43.61z M124.39,22.92l-18.43,61.46l-32.11,37.17L19.74,84.74L1.27,23.18l24.02-8.8l0.91,2.49l-14.45,5.29h98.88
				l0.65-2.57L124.39,22.92z M98.97,32.76l6.7-5.3H20.61l10.96,5.3H98.97z M85.56,43.35l6.71-5.3H42.52l10.96,5.3H85.56z
				 M73.39,52.98l5.471-4.33H64.44L73.39,52.98z"/>
		</g>
		<g>
		</g>
	</g>
</g>
</svg>
