<?xml version="1.0" encoding="utf-8"?>
<!-- Generator: Adobe Illustrator 19.0.0, SVG Export Plug-In . SVG Version: 6.00 Build 0)  -->
<svg version="1.1" xmlns="http://www.w3.org/2000/svg" xmlns:xlink="http://www.w3.org/1999/xlink" x="0px" y="0px"
	 viewBox="0 0 1024 1024" style="enable-background:new 0 0 1024 1024;" xml:space="preserve">
<g id="_x30_">
</g>
<g id="_x33_">
	<g id="LINE_2_">
		<g id="XMLID_1_">
			<g>
				<path d="M795.2,62.5c45.7,0,82.7,37,82.7,82.7c0,45.7-37,82.7-82.7,82.7c-45.7,0-82.7-37-82.7-82.7
					C712.5,99.5,749.5,62.5,795.2,62.5z"/>
				<path d="M228.8,62.5c45.7,0,82.7,37,82.7,82.7c0,45.7-37,82.7-82.7,82.7s-82.7-37-82.7-82.7C146.1,99.5,183.2,62.5,228.8,62.5z"
					/>
				<path d="M316.3,225.6c37.1,52,56.4,114.6,54.9,178.4H86.5c-1.5-63.9,17.8-126.5,54.9-178.4c44.4,48.3,119.5,51.5,167.8,7.1
					C311.7,230.4,314,228,316.3,225.6z"/>
				<path d="M642.9,639.3c64.4,73.2,96.4,169.3,88.7,266.4H292.4c-7.6-97.1,24.4-193.3,88.7-266.4c68.9,72.3,183.4,75,255.7,6.1
					C638.9,643.4,640.9,641.3,642.9,639.3z"/>
				<path d="M512,373c78.1,0,141.5,63.3,141.5,141.5S590.1,656,512,656s-141.5-63.3-141.5-141.5S433.9,373,512,373z"/>
				<path d="M882.6,225.6c37.1,52,56.4,114.6,54.9,178.4H652.8c-1.5-63.9,17.8-126.5,54.9-178.4c44.4,48.3,119.5,51.5,167.8,7.1
					C878,230.4,880.3,228,882.6,225.6z"/>
			</g>
			<g>
			</g>
		</g>
	</g>
</g>
<g id="_x36_">
</g>
</svg>
