<?xml version="1.0" encoding="utf-8"?>
<!-- Generator: Adobe Illustrator 19.0.0, SVG Export Plug-In . SVG Version: 6.00 Build 0)  -->
<svg version="1.1" xmlns="http://www.w3.org/2000/svg" xmlns:xlink="http://www.w3.org/1999/xlink" x="0px" y="0px"
	 viewBox="0 0 1024 1024" style="enable-background:new 0 0 1024 1024;" xml:space="preserve">
<g id="_x30_">
</g>
<g id="_x33_">
	<g id="LINE_12_">
		<g id="XMLID_1_">
			<g>
				<polygon points="512,275.8 512,393.9 354.5,393.9 354.5,551.4 236.4,551.4 236.4,393.9 79,393.9 79,275.8 236.4,275.8 
					236.4,118.3 354.5,118.3 354.5,275.8 				"/>
				<path d="M800.4,639.3c64.4,73.2,96.4,169.3,88.7,266.4H449.9c-7.6-97.1,24.4-193.3,88.7-266.4c68.9,72.3,183.4,75,255.7,6.1
					C796.3,643.4,798.4,641.3,800.4,639.3z"/>
				<path d="M669.5,373c78.1,0,141.5,63.3,141.5,141.5S747.6,656,669.5,656C591.3,656,528,592.6,528,514.5S591.3,373,669.5,373z"/>
			</g>
			<g>
			</g>
		</g>
	</g>
</g>
<g id="_x36_">
</g>
</svg>
