<?xml version="1.0" encoding="utf-8"?>
<!-- Generator: Adobe Illustrator 19.0.0, SVG Export Plug-In . SVG Version: 6.00 Build 0)  -->
<svg version="1.1" xmlns="http://www.w3.org/2000/svg" xmlns:xlink="http://www.w3.org/1999/xlink" x="0px" y="0px"
	 viewBox="0 0 1024 1024" style="enable-background:new 0 0 1024 1024;" xml:space="preserve">
<g id="_x30_">
</g>
<g id="_x33_">
	<g id="ARC_10_">
		<g id="XMLID_1_">
			<g>
				<path d="M787.6,125.8c62.5,0,113.1,50.6,113.1,113.1c0,62.5-50.6,113.1-113.1,113.1c-62.5,0-113.1-50.6-113.1-113.1
					C674.5,176.4,725.1,125.8,787.6,125.8z"/>
				<path d="M862.9,371.4c60,72.2,89.5,165,82.1,258.7H713.8c-14.7-24.2-32-46.7-51.5-67.3c48-56.8,59.9-135.8,30.8-204.2
					C741.8,397,809,402.1,862.9,371.4z"/>
				<path d="M634,590.2c70.1,74.1,105.6,174.4,97.6,276.1H292.4c-8-101.7,27.4-202,97.6-276.1C461.5,646.7,562.5,646.7,634,590.2z"
					/>
				<path d="M361.7,562.8c-19.5,20.5-36.7,43.1-51.5,67.3H79c-7.4-93.6,22.1-186.4,82.1-258.7c53.9,30.7,121.1,25.6,169.8-12.9
					C301.8,427,313.6,506,361.7,562.8z"/>
				<path d="M236.4,125.8c62.5,0,113.1,50.6,113.1,113.1c0,62.5-50.6,113.1-113.1,113.1c-62.5,0-113.1-50.6-113.1-113.1
					C123.3,176.4,174,125.8,236.4,125.8z"/>
				<path d="M512,278.3c87,0,157.5,70.5,157.5,157.5c0,87-70.5,157.5-157.5,157.5s-157.5-70.5-157.5-157.5
					C354.5,348.8,425,278.3,512,278.3z"/>
			</g>
			<g>
			</g>
		</g>
	</g>
</g>
<g id="_x36_">
</g>
</svg>
