<?xml version="1.0" encoding="utf-8"?>
<!-- Generator: Adobe Illustrator 19.0.0, SVG Export Plug-In . SVG Version: 6.00 Build 0)  -->
<svg version="1.1" xmlns="http://www.w3.org/2000/svg" xmlns:xlink="http://www.w3.org/1999/xlink" x="0px" y="0px"
	 viewBox="0 0 1024 1024" style="enable-background:new 0 0 1024 1024;" xml:space="preserve">
<g id="_x30_">
</g>
<g id="_x33_">
	<g id="LINE_9_">
		<g id="XMLID_1_">
			<g>
				<path d="M945,39.6L752.7,202.7L864,275.2L607.2,510c-0.5-1.5-1-2.9-1.5-4.4l111.8-220.9l-97.7-45.6l73.1-199.5H945z"/>
				<path d="M755.8,534.9c45.7,0,82.7,37,82.7,82.7c0,45.7-37,82.7-82.7,82.7c-45.7,0-82.7-37-82.7-82.7
					C673.1,571.9,710.1,534.9,755.8,534.9z"/>
				<path d="M843.2,698c37.1,52,56.4,114.6,54.9,178.4H735.6c-5.9-59-24.7-116.1-55.1-167C729.1,749.4,800.6,744.4,843.2,698z"/>
				<path d="M189.5,534.9c45.7,0,82.7,37,82.7,82.7c0,45.7-37,82.7-82.7,82.7c-45.7,0-82.7-37-82.7-82.7
					C106.8,571.9,143.8,534.9,189.5,534.9z"/>
				<path d="M264.9,709.4c-30.4,51-49.2,108-55.2,167H47.1C45.6,812.5,64.9,749.9,102,698C144.7,744.4,216.1,749.4,264.9,709.4z"/>
				<path d="M603.5,678.6c64.4,73.2,96.4,169.3,88.7,266.4H253c-7.6-97.1,24.4-193.2,88.7-266.4c68.9,72.3,183.4,75,255.7,6.1
					C599.5,682.8,601.5,680.7,603.5,678.6z"/>
				<path d="M607.2,510c4.5,13.8,6.9,28.5,6.9,43.8c0,78.1-63.3,141.5-141.5,141.5S331.1,632,331.1,553.8s63.3-141.5,141.5-141.5
					c61.2,0,113.3,38.9,133.1,93.3l-5.4,10.7L607.2,510z"/>
			</g>
			<g>
			</g>
		</g>
	</g>
</g>
<g id="_x36_">
</g>
</svg>
