<?xml version="1.0" encoding="utf-8"?>
<!-- Generator: Adobe Illustrator 15.1.0, SVG Export Plug-In . SVG Version: 6.00 Build 0)  -->
<!DOCTYPE svg PUBLIC "-//W3C//DTD SVG 1.1//EN" "http://www.w3.org/Graphics/SVG/1.1/DTD/svg11.dtd">
<svg version="1.1" id="Layer_1" xmlns="http://www.w3.org/2000/svg" xmlns:xlink="http://www.w3.org/1999/xlink" x="0px" y="0px"
	 width="128px" height="128px" viewBox="0 0 128 128" enable-background="new 0 0 128 128" xml:space="preserve">
<g id="LINE_13_">
	<g id="XMLID_1_">
		<g>
			<rect x="74.67" y="93.66" fill="#FFFFFF" width="44.49" height="11.12"/>
			<polygon fill="#FFFFFF" points="119.16,26.92 119.16,88.1 69.11,88.1 69.11,104.78 7.93,104.78 7.93,26.92 			"/>
			<path d="M124.73,21.36v88.99H2.37V21.36H124.73z M119.16,104.78V93.66H74.67v11.12H119.16z M119.16,88.1V26.92H7.93v77.86h61.18
				V88.1H119.16z"/>
		</g>
		<g>
			
				<line fill="none" stroke="#808080" stroke-width="0.3685" stroke-linecap="round" stroke-linejoin="round" stroke-miterlimit="10" x1="2.37" y1="110.35" x2="124.73" y2="110.35"/>
			
				<line fill="none" stroke="#808080" stroke-width="0.3685" stroke-linecap="round" stroke-linejoin="round" stroke-miterlimit="10" x1="119.16" y1="104.78" x2="119.16" y2="93.66"/>
			
				<line fill="none" stroke="#808080" stroke-width="0.3685" stroke-linecap="round" stroke-linejoin="round" stroke-miterlimit="10" x1="119.16" y1="93.66" x2="74.67" y2="93.66"/>
			
				<line fill="none" stroke="#808080" stroke-width="0.3685" stroke-linecap="round" stroke-linejoin="round" stroke-miterlimit="10" x1="74.67" y1="93.66" x2="74.67" y2="104.78"/>
			
				<line fill="none" stroke="#808080" stroke-width="0.3685" stroke-linecap="round" stroke-linejoin="round" stroke-miterlimit="10" x1="74.67" y1="104.78" x2="119.16" y2="104.78"/>
			
				<line fill="none" stroke="#808080" stroke-width="0.3685" stroke-linecap="round" stroke-linejoin="round" stroke-miterlimit="10" x1="69.11" y1="88.1" x2="119.16" y2="88.1"/>
			
				<line fill="none" stroke="#808080" stroke-width="0.3685" stroke-linecap="round" stroke-linejoin="round" stroke-miterlimit="10" x1="69.11" y1="104.78" x2="69.11" y2="88.1"/>
			
				<line fill="none" stroke="#808080" stroke-width="0.3685" stroke-linecap="round" stroke-linejoin="round" stroke-miterlimit="10" x1="7.93" y1="104.78" x2="69.11" y2="104.78"/>
			
				<line fill="none" stroke="#808080" stroke-width="0.3685" stroke-linecap="round" stroke-linejoin="round" stroke-miterlimit="10" x1="124.73" y1="110.35" x2="124.73" y2="21.36"/>
			
				<line fill="none" stroke="#808080" stroke-width="0.3685" stroke-linecap="round" stroke-linejoin="round" stroke-miterlimit="10" x1="2.37" y1="21.36" x2="124.73" y2="21.36"/>
			
				<line fill="none" stroke="#808080" stroke-width="0.3685" stroke-linecap="round" stroke-linejoin="round" stroke-miterlimit="10" x1="2.37" y1="110.35" x2="2.37" y2="21.36"/>
			
				<line fill="none" stroke="#808080" stroke-width="0.3685" stroke-linecap="round" stroke-linejoin="round" stroke-miterlimit="10" x1="7.93" y1="104.78" x2="7.93" y2="26.92"/>
			
				<line fill="none" stroke="#808080" stroke-width="0.3685" stroke-linecap="round" stroke-linejoin="round" stroke-miterlimit="10" x1="7.93" y1="26.92" x2="119.16" y2="26.92"/>
			
				<line fill="none" stroke="#808080" stroke-width="0.3685" stroke-linecap="round" stroke-linejoin="round" stroke-miterlimit="10" x1="119.16" y1="88.1" x2="119.16" y2="26.92"/>
		</g>
	</g>
</g>
</svg>
