<?xml version="1.0" encoding="utf-8"?>
<!-- Generator: Adobe Illustrator 19.0.0, SVG Export Plug-In . SVG Version: 6.00 Build 0)  -->
<svg version="1.1" xmlns="http://www.w3.org/2000/svg" xmlns:xlink="http://www.w3.org/1999/xlink" x="0px" y="0px"
	 viewBox="0 0 1024 1024" style="enable-background:new 0 0 1024 1024;" xml:space="preserve">
<style type="text/css">
	.st0{fill:#FFFFFF;}
</style>
<g id="_x30_">
</g>
<g id="_x33_">
	<g id="LINE_34_">
		<g id="XMLID_1_">
			<g>
				<rect x="748.2" y="590.7" class="st0" width="157.5" height="39.4"/>
				<rect x="393.9" y="826.9" class="st0" width="314.9" height="39.4"/>
				<polygon class="st0" points="708.8,354.5 708.8,787.6 354.4,787.6 354.5,866.3 118.3,866.3 118.3,354.5 338.6,354.5 
					265.5,554.1 363.2,599.6 246,831.3 509.7,590.1 398.4,517.6 593.6,354.5 				"/>
				<polygon class="st0" points="905.7,118.3 905.7,551.4 748.2,551.4 748.2,315.2 315.2,315.2 315.2,118.3 				"/>
				<path d="M945,79v590.5H748.2v236.2H79V315.2h196.8V79H945z M905.7,630.1v-39.4H748.2v39.4H905.7z M905.7,551.4v-433H315.2v196.8
					h433v236.2H905.7z M708.8,866.3v-39.4H393.9v39.4H708.8z M708.8,787.6v-433H593.6L398.4,517.6l111.3,72.5L246,831.3l117.2-231.6
					l-97.7-45.5l73.1-199.6H118.3v511.8h236.2l-0.1-78.7H708.8z"/>
			</g>
			<g>
			</g>
		</g>
	</g>
</g>
<g id="_x36_">
</g>
</svg>
