<?xml version="1.0" encoding="utf-8"?>
<!-- Generator: Adobe Illustrator 19.0.0, SVG Export Plug-In . SVG Version: 6.00 Build 0)  -->
<svg version="1.1" xmlns="http://www.w3.org/2000/svg" xmlns:xlink="http://www.w3.org/1999/xlink" x="0px" y="0px"
	 viewBox="0 0 1024 1024" style="enable-background:new 0 0 1024 1024;" xml:space="preserve">
<style type="text/css">
	.st0{fill:#FFFFFF;}
</style>
<g id="_x30_">
</g>
<g id="_x33_">
	<g id="SPLINE_14_">
		<g id="XMLID_1_">
			<g>
				<rect x="590.7" y="804.5" class="st0" width="314.9" height="39.4"/>
				<path class="st0" d="M905.7,174.6v590.5H551.4v78.7h-433V174.6H905.7z M811.4,667.2c-15.4,4.2-31.9,6.3-49.6,6.3
					c-60.5,0-126.7-41.4-198.3-124.3l-17.7-20.5l24.2-28.6c75.5-88.2,143.8-146.9,204.8-175.9c-5.1-7.5-9.1-13.3-11.8-17.5
					c-15.4-24.4-34.9-36.6-58.5-36.6c-47.9,0-112.4,52.9-193.4,158.5l-24.8,31.7l-13-16.9c-57.5-74.2-95.3-153-113.4-236.4
					c-43.5,42.7-65.2,77.9-65.2,105.6c0,38.6,39.9,105.8,119.5,201.5l16.5,20.7l-23,25.8C342,635.9,283.4,673.5,231.8,673.5
					c-5.9,0-14.4,0-25.4,0c31.9,50.4,63.2,75.6,93.9,75.6c40.8,0,98.1-43.2,171.7-129.6l14.8-16.9l27.8,27.4
					c79.4,79.4,144,119.2,193.6,119.2c22.7,0,40.7-5.2,53.9-15.6S791.7,701.1,811.4,667.2z"/>
				<path d="M761.8,673.5c17.7,0,34.3-2.1,49.6-6.3c-19.7,33.9-36.1,56-49.3,66.4s-31.2,15.6-53.9,15.6
					c-49.6,0-114.2-39.7-193.6-119.2l-27.8-27.4L472,619.5c-73.7,86.4-130.9,129.6-171.7,129.6c-30.7,0-62-25.2-93.9-75.6
					c11,0,19.5,0,25.4,0c51.6,0,110.2-37.6,175.9-112.9l23-25.8l-16.5-20.7c-79.7-95.7-119.5-162.9-119.5-201.5
					c0-27.7,21.7-62.9,65.2-105.6c18.1,83.4,55.9,162.2,113.4,236.4l13,16.9l24.8-31.7c81-105.7,145.5-158.5,193.4-158.5
					c23.6,0,43.1,12.2,58.5,36.6c2.8,4.2,6.7,10,11.8,17.5c-61.1,29-129.3,87.6-204.8,175.9l-24.2,28.6l17.7,20.5
					C635.1,632.1,701.2,673.5,761.8,673.5z"/>
				<path d="M945,135.3v748H79v-748H945z M905.7,843.9v-39.4H590.7v39.4H905.7z M905.7,765.1V174.6H118.3v669.2h433v-78.7H905.7z"/>
			</g>
			<g>
			</g>
		</g>
	</g>
</g>
<g id="_x36_">
</g>
</svg>
