<?xml version="1.0" encoding="utf-8"?>
<!-- Generator: Adobe Illustrator 19.0.0, SVG Export Plug-In . SVG Version: 6.00 Build 0)  -->
<svg version="1.1" xmlns="http://www.w3.org/2000/svg" xmlns:xlink="http://www.w3.org/1999/xlink" x="0px" y="0px"
	 viewBox="0 0 1024 1024" style="enable-background:new 0 0 1024 1024;" xml:space="preserve">
<g id="_x30_">
</g>
<g id="_x33_">
	<g id="LINE_144_">
		<g id="XMLID_1_">
			<g>
				<rect x="197.1" y="87.3" width="78.7" height="39.4"/>
				<rect x="79" y="284.1" width="39.4" height="78.7"/>
				<rect x="79" y="87.3" width="78.7" height="39.4"/>
				<rect x="79" y="166" width="39.4" height="78.7"/>
				<rect x="79" y="402.2" width="39.4" height="78.7"/>
				<rect x="79" y="520.3" width="39.4" height="78.7"/>
				<rect x="79" y="638.4" width="39.4" height="78.7"/>
				<rect x="79" y="756.5" width="39.4" height="78.7"/>
				<rect x="79" y="874.6" width="39.4" height="78.7"/>
				<rect x="157.7" y="914" width="78.7" height="39.4"/>
				<rect x="275.8" y="914" width="78.7" height="39.4"/>
				<rect x="393.9" y="914" width="78.7" height="39.4"/>
				<rect x="512" y="914" width="78.7" height="39.4"/>
				<rect x="630.1" y="914" width="78.7" height="39.4"/>
				<rect x="748.2" y="914" width="78.7" height="39.4"/>
				<rect x="866.3" y="914" width="78.7" height="39.4"/>
				<rect x="898.5" y="795.8" width="39.4" height="78.7"/>
				<rect x="898.5" y="677.8" width="39.4" height="78.7"/>
				<rect x="898.5" y="441.5" width="39.4" height="78.7"/>
				<rect x="898.5" y="559.7" width="39.4" height="78.7"/>
				<rect x="898.5" y="323.5" width="39.4" height="78.7"/>
				<rect x="780.4" y="87.3" width="78.7" height="39.4"/>
				<rect x="669.5" y="87.3" width="78.7" height="39.4"/>
				<rect x="551.4" y="87.3" width="78.7" height="39.4"/>
				<rect x="433.3" y="87.3" width="78.7" height="39.4"/>
				<rect x="315.2" y="87.3" width="78.7" height="39.4"/>
				<polygon points="393.9,205.4 309.4,289.9 368.5,348.9 340.6,376.7 281.6,317.7 197.1,402.2 197.1,205.4 				"/>
				<path d="M592.5,373.4c53.5,28.4,84.1,86.7,77,146.9c-18.3-46.9-54.2-84.8-99.9-105.8L592.5,373.4z"/>
				<path d="M563,361.7l-21.3,42.5c-45-12.8-93-8.9-135.3,10.8C442.6,366.7,504.8,345.5,563,361.7z"/>
				<polygon points="393.9,835.2 197.1,835.2 197.1,638.4 281.6,722.9 340.6,663.8 368.5,691.7 309.4,750.7 				"/>
				<polygon points="826.9,638.4 826.9,835.2 630.1,835.2 714.6,750.7 694.9,731 722.8,703.2 742.4,722.9 				"/>
				<path d="M722.8,703.2L694.9,731l-44.4-44.4c-38.9,32.4-87.9,50.1-138.5,50.1c-119.6,0-216.5-96.9-216.5-216.5
					S392.4,303.8,512,303.8s216.5,96.9,216.5,216.5c0,50.6-17.7,99.6-50.1,138.5L722.8,703.2z M709,520.3c0-108.8-88.2-197-197-197
					s-197,88.2-197,197c0,108.8,88.2,197,197,197S709,629.1,709,520.3z"/>
				<rect x="898.5" y="87.3" width="39.4" height="78.7"/>
				<rect x="898.5" y="205.4" width="39.4" height="78.7"/>
				<polygon points="826.9,205.4 826.9,402.2 742.4,317.7 683.4,376.7 655.5,348.9 714.6,289.9 630.1,205.4 				"/>
			</g>
			<g>
			</g>
		</g>
	</g>
</g>
<g id="_x36_">
</g>
</svg>
