<?xml version="1.0" encoding="utf-8"?>
<!-- Generator: Adobe Illustrator 19.0.0, SVG Export Plug-In . SVG Version: 6.00 Build 0)  -->
<svg version="1.1" xmlns="http://www.w3.org/2000/svg" xmlns:xlink="http://www.w3.org/1999/xlink" x="0px" y="0px"
	 viewBox="0 0 1024 1024" style="enable-background:new 0 0 1024 1024;" xml:space="preserve">
<style type="text/css">
	.st0{fill:#FFFFFF;}
</style>
<g id="_x30_">
</g>
<g id="_x33_">
	<g id="LINE_24_">
		<g id="XMLID_1_">
			<g>
				<rect x="590.7" y="787.6" class="st0" width="314.9" height="39.4"/>
				<rect x="590.7" y="708.8" class="st0" width="314.9" height="39.4"/>
				<polygon class="st0" points="905.7,157.7 905.7,669.5 551.4,669.5 551.4,826.9 118.3,826.9 118.3,157.7 391.9,157.7 
					301.4,404.9 423.5,461.8 277,751.3 606.7,450 467.5,359.3 708.8,157.7 				"/>
				<path d="M945,118.3v748H79v-748H945z M905.7,826.9v-39.4H590.7v39.4H905.7z M905.7,748.2v-39.4H590.7v39.4H905.7z M905.7,669.5
					V157.7H708.8L467.5,359.3L606.7,450L277,751.3l146.5-289.5l-122.1-56.9l90.6-247.2H118.3v669.2h433V669.5H905.7z"/>
			</g>
			<g>
			</g>
		</g>
	</g>
</g>
<g id="_x36_">
</g>
</svg>
