<?xml version="1.0" encoding="utf-8"?>
<!-- Generator: Adobe Illustrator 19.0.0, SVG Export Plug-In . SVG Version: 6.00 Build 0)  -->
<svg version="1.1" xmlns="http://www.w3.org/2000/svg" xmlns:xlink="http://www.w3.org/1999/xlink" x="0px" y="0px"
	 viewBox="0 0 1024 1024" style="enable-background:new 0 0 1024 1024;" xml:space="preserve">
<g id="_x30_">
</g>
<g id="_x33_">
	<g id="LINE_107_">
		<g id="XMLID_1_">
			<g>
				<rect x="669.5" y="708.8" width="39.4" height="78.7"/>
				<rect x="748.2" y="748.2" width="78.7" height="39.4"/>
				<rect x="866.3" y="748.2" width="78.7" height="39.4"/>
				<rect x="905.7" y="630.1" width="39.4" height="78.7"/>
				<rect x="905.7" y="512" width="39.4" height="78.7"/>
				<rect x="905.7" y="393.9" width="39.4" height="78.7"/>
				<rect x="787.6" y="393.9" width="78.7" height="39.4"/>
				<rect x="669.5" y="393.9" width="78.7" height="39.4"/>
				<rect x="669.5" y="472.6" width="39.4" height="78.7"/>
				<rect x="669.5" y="590.7" width="39.4" height="78.7"/>
				<rect x="236.4" y="590.7" width="39.4" height="78.7"/>
				<rect x="236.4" y="708.8" width="39.4" height="78.7"/>
				<rect x="315.2" y="748.2" width="78.7" height="39.4"/>
				<rect x="433.3" y="748.2" width="78.7" height="39.4"/>
				<rect x="551.4" y="748.2" width="78.7" height="39.4"/>
				<rect x="590.7" y="630.1" width="39.4" height="78.7"/>
				<rect x="590.7" y="512" width="39.4" height="78.7"/>
				<rect x="590.7" y="393.9" width="39.4" height="78.7"/>
				<rect x="590.7" y="275.8" width="39.4" height="78.7"/>
				<rect x="354.5" y="275.8" width="78.7" height="39.4"/>
				<rect x="472.6" y="275.8" width="78.7" height="39.4"/>
				<rect x="236.4" y="275.8" width="78.7" height="39.4"/>
				<rect x="236.4" y="354.5" width="39.4" height="78.7"/>
				<rect x="236.4" y="472.6" width="39.4" height="78.7"/>
				<polygon points="945,826.9 945,866.3 197.1,866.3 197.1,945 157.7,945 157.7,866.3 79,866.3 79,826.9 157.7,826.9 157.7,79 
					197.1,79 197.1,826.9 				"/>
			</g>
			<g>
			</g>
		</g>
	</g>
</g>
<g id="_x36_">
</g>
</svg>
