<?xml version="1.0" encoding="utf-8"?>
<!-- Generator: Adobe Illustrator 19.0.0, SVG Export Plug-In . SVG Version: 6.00 Build 0)  -->
<svg version="1.1" xmlns="http://www.w3.org/2000/svg" xmlns:xlink="http://www.w3.org/1999/xlink" x="0px" y="0px"
	 viewBox="0 0 1024 1024" style="enable-background:new 0 0 1024 1024;" xml:space="preserve">
<g id="_x30_">
</g>
<g id="_x33_">
	<g id="LINE_79_">
		<g id="XMLID_1_">
			<g>
				<rect x="275.8" y="161.5" width="78.7" height="39.4"/>
				<polygon points="243.6,161.5 243.6,200.9 204.2,200.9 204.2,240.2 164.9,240.2 164.9,161.5 				"/>
				<rect x="164.9" y="279.6" width="39.4" height="78.7"/>
				<rect x="161.5" y="669.5" width="39.4" height="78.7"/>
				<polygon points="240.2,819.8 240.2,859.1 161.5,859.1 161.5,780.4 200.9,780.4 200.9,819.8 				"/>
				<rect x="279.6" y="819.8" width="78.7" height="39.4"/>
				<rect x="669.5" y="823.1" width="78.7" height="39.4"/>
				<polygon points="859.1,783.8 859.1,862.5 780.4,862.5 780.4,823.1 819.8,823.1 819.8,783.8 				"/>
				<rect x="819.8" y="665.7" width="39.4" height="78.7"/>
				<rect x="819.8" y="279.6" width="39.4" height="78.7"/>
				<polygon points="859.1,161.5 859.1,240.2 819.8,240.2 819.8,200.9 780.4,200.9 780.4,161.5 				"/>
				<rect x="669.5" y="161.5" width="78.7" height="39.4"/>
				<polygon points="945,515.8 787.6,633.9 787.6,555.2 551.4,555.2 551.4,791.3 630.1,791.3 512,948.8 393.9,791.3 472.6,791.3 
					472.6,555.2 236.4,555.2 236.4,633.9 79,515.8 236.4,397.7 236.4,476.4 472.6,476.4 472.6,240.2 393.9,240.2 512,82.8 
					630.1,240.2 551.4,240.2 551.4,476.4 787.6,476.4 787.6,397.7 				"/>
			</g>
			<g>
			</g>
		</g>
	</g>
</g>
<g id="_x36_">
</g>
</svg>
