<?xml version="1.0" encoding="utf-8"?>
<!-- Generator: Adobe Illustrator 19.0.0, SVG Export Plug-In . SVG Version: 6.00 Build 0)  -->
<svg version="1.1" xmlns="http://www.w3.org/2000/svg" xmlns:xlink="http://www.w3.org/1999/xlink" x="0px" y="0px"
	 viewBox="0 0 1024 1024" style="enable-background:new 0 0 1024 1024;" xml:space="preserve">
<style type="text/css">
	.st0{fill:#FFFFFF;}
</style>
<g id="_x30_">
</g>
<g id="_x33_">
	<g id="SPLINE_24_">
		<g id="XMLID_1_">
			<g>
				<rect x="630.1" y="804.5" class="st0" width="275.6" height="39.4"/>
				<path class="st0" d="M394.7,343.2c16.8,16.1,25.2,37,25.2,62.8c0,26.4-10.4,48-31.2,65c-20.8,17-51.7,25.5-92.8,25.5
					c-1.9,0-4.3-0.1-7.3-0.2c-3-0.1-6.5-0.2-10.5-0.2V326.2c20.9-4.7,37.5-7.1,49.8-7.1C355.7,319.1,377.9,327.1,394.7,343.2z"/>
				<path class="st0" d="M767.1,517.5H639.5c2.2-24.5,9.9-43.6,23-57.4c13.1-13.7,28-20.6,44.6-20.6c10.8,0,21.2,3.4,31.2,10.2
					c9.9,6.8,17.4,16.2,22.4,28.1C764,485.5,766.1,498.8,767.1,517.5z"/>
				<path class="st0" d="M905.7,174.6v590.5H590.7v78.7H118.3V174.6H905.7z M639.5,538.8h191.3c0-36.6-10-65.8-29.9-87.7
					c-19.9-21.8-45.3-32.8-76.3-32.8c-36.6,0-67,13.4-91.3,40.2c-24.2,26.8-36.4,64.2-36.4,112.2c0,44.3,11.8,79.5,35.4,105.8
					s52,39.4,85.3,39.4c30.6,0,56-10.6,76.3-31.7c20.3-21.1,32.6-46.4,36.8-75.8l-7.1-5.9c-9.2,25.7-20.5,42.7-34.1,51.2
					c-13.6,8.4-29.6,12.6-47.9,12.6c-27.5,0-51.5-11.3-71.9-33.9C649.4,609.8,639.3,578.5,639.5,538.8z M581.1,708.8v-7.1
					c-22.5-2.7-40.8-8.8-54.8-18.4c-14-9.6-30.8-29.1-50.3-58.4l-86.6-118.5c34.6-7.6,60.1-20.6,76.6-39c16.5-18.4,24.7-40,24.7-65
					c0-23.4-7.3-43.5-22-60.4c-14.7-16.9-32.5-28.5-53.6-34.8c-21-6.3-53.7-9.5-98.1-9.5H164.8v7.1h14.8c14.9,0,26.1,4.6,33.7,13.8
					c5.5,6.5,8.2,23.1,8.2,49.9V638c0,24.3-2,39.7-6.1,46.2c-7.2,11.7-19.1,17.6-35.8,17.6h-14.8v7.1h170.1v-7.1h-15.4
					c-14.8,0-25.8-4.6-33.1-13.8c-5.5-6.5-8.2-23.1-8.2-49.9V517.5c3.7,0.2,7.3,0.4,10.7,0.5s6.7,0.2,9.8,0.2c7.4,0,17-0.2,28.8-0.7
					l141.8,191.3H581.1z"/>
				<path d="M830.9,538.8H639.5c-0.2,39.8,9.9,71,30.3,93.7c20.4,22.6,44.3,33.9,71.9,33.9c18.4,0,34.4-4.2,47.9-12.6
					c13.6-8.4,25-25.5,34.1-51.2l7.1,5.9c-4.2,29.5-16.5,54.7-36.8,75.8c-20.3,21.1-45.8,31.7-76.3,31.7
					c-33.2,0-61.6-13.1-85.3-39.4S597,615,597,570.8c0-48,12.1-85.4,36.4-112.2c24.3-26.8,54.7-40.2,91.3-40.2
					c30.9,0,56.4,10.9,76.3,32.8C820.9,472.9,830.9,502.2,830.9,538.8z M639.5,517.5h127.5c-1-18.8-3.1-32-6.3-39.6
					c-5-11.9-12.5-21.2-22.4-28.1c-9.9-6.8-20.3-10.2-31.2-10.2c-16.6,0-31.5,6.9-44.6,20.6C649.4,473.9,641.8,493,639.5,517.5z"/>
				<path d="M581.1,701.8v7.1H469.3L327.4,517.5c-11.8,0.4-21.4,0.7-28.8,0.7c-3,0-6.3-0.1-9.8-0.2s-7-0.3-10.7-0.5V638
					c0,26.8,2.7,43.4,8.2,49.9c7.3,9.2,18.3,13.8,33.1,13.8h15.4v7.1H164.8v-7.1h14.8c16.7,0,28.6-5.9,35.8-17.6
					c4.1-6.5,6.1-21.9,6.1-46.2V368.7c0-26.8-2.7-43.4-8.2-49.9c-7.5-9.2-18.8-13.8-33.7-13.8h-14.8v-7.1H317
					c44.4,0,77.1,3.1,98.1,9.5c21,6.3,38.9,17.9,53.6,34.8c14.7,16.9,22,37,22,60.4c0,25-8.3,46.6-24.7,65
					c-16.5,18.4-42,31.4-76.6,39L476,624.9c19.5,29.3,36.2,48.8,50.3,58.4C540.3,692.9,558.6,699.1,581.1,701.8z M419.9,406
					c0-25.8-8.4-46.7-25.2-62.8c-16.8-16.1-39-24.1-66.7-24.1c-12.3,0-28.9,2.4-49.8,7.1v170.1c4,0,7.5,0.1,10.5,0.2
					c3,0.1,5.4,0.2,7.3,0.2c41,0,72-8.5,92.8-25.5C409.5,454,419.9,432.4,419.9,406z"/>
				<path d="M945,135.3v748H79v-748H945z M905.7,843.9v-39.4H630.1v39.4H905.7z M905.7,765.1V174.6H118.3v669.2h472.4v-78.7H905.7z"
					/>
			</g>
			<g>
			</g>
		</g>
	</g>
</g>
<g id="_x36_">
</g>
</svg>
