<?xml version="1.0" encoding="utf-8"?>
<!-- Generator: Adobe Illustrator 19.0.0, SVG Export Plug-In . SVG Version: 6.00 Build 0)  -->
<svg version="1.1" xmlns="http://www.w3.org/2000/svg" xmlns:xlink="http://www.w3.org/1999/xlink" x="0px" y="0px"
	 viewBox="0 0 1024 1024" style="enable-background:new 0 0 1024 1024;" xml:space="preserve">
<style type="text/css">
	.st0{fill:#FFFFFF;}
</style>
<g id="_x30_">
</g>
<g id="_x33_">
	<g id="LINE_105_">
		<g id="XMLID_1_">
			<g>
				<rect x="590.7" y="826.9" class="st0" width="314.9" height="39.4"/>
				<path class="st0" d="M905.7,157.7v629.9H551.4v78.7h-433V157.7H905.7z M708.8,748.2v-39.4v-39.4v-78.7v-39.4v-78.7v-39.4v-78.7
					v-39.4v-78.7h-39.4h-39.4h-85.9H512h-78.7h-39.4h-78.7h-39.4h-78.7v39.4v39.4v78.7v39.4V512v39.4v78.7v39.4v78.7h39.4h39.4h78.7
					h39.4h78.7H512h78.7h39.4H708.8z"/>
				<rect x="669.5" y="590.7" width="39.4" height="78.7"/>
				<rect x="630.1" y="708.8" width="78.7" height="39.4"/>
				<rect x="512" y="708.8" width="78.7" height="39.4"/>
				<rect x="393.9" y="708.8" width="78.7" height="39.4"/>
				<rect x="275.8" y="708.8" width="78.7" height="39.4"/>
				<rect x="197.1" y="669.5" width="39.4" height="78.7"/>
				<rect x="197.1" y="551.4" width="39.4" height="78.7"/>
				<rect x="197.1" y="433.3" width="39.4" height="78.7"/>
				<rect x="197.1" y="315.2" width="39.4" height="78.7"/>
				<rect x="315.2" y="236.4" width="78.7" height="39.4"/>
				<rect x="197.1" y="236.4" width="78.7" height="39.4"/>
				<path d="M945,118.3v787.3H79V118.3H945z M905.7,866.3v-39.4H590.7v39.4H905.7z M905.7,787.6V157.7H118.3v708.6h433v-78.7H905.7z
					"/>
				<rect x="669.5" y="472.6" width="39.4" height="78.7"/>
				<rect x="669.5" y="354.5" width="39.4" height="78.7"/>
				<rect x="669.5" y="236.4" width="39.4" height="78.7"/>
				<rect x="544.2" y="236.4" width="85.9" height="39.4"/>
				<polygon points="610.4,453 610.4,531.7 492.3,531.7 492.3,649.8 413.6,649.8 413.6,531.7 295.5,531.7 295.5,453 413.6,453 
					413.6,334.9 492.3,334.9 492.3,453 				"/>
				<rect x="433.3" y="236.4" width="78.7" height="39.4"/>
			</g>
			<g>
			</g>
		</g>
	</g>
</g>
<g id="_x36_">
</g>
</svg>
