<?xml version="1.0" encoding="utf-8"?>
<!-- Generator: Adobe Illustrator 19.0.0, SVG Export Plug-In . SVG Version: 6.00 Build 0)  -->
<svg version="1.1" xmlns="http://www.w3.org/2000/svg" xmlns:xlink="http://www.w3.org/1999/xlink" x="0px" y="0px"
	 viewBox="0 0 1024 1024" style="enable-background:new 0 0 1024 1024;" xml:space="preserve">
<style type="text/css">
	.st0{fill:#FFFFFF;}
</style>
<g id="_x30_">
</g>
<g id="_x33_">
	<g id="LINE_20_">
		<g id="XMLID_1_">
			<g>
				<rect x="669.5" y="787.6" class="st0" width="236.2" height="39.4"/>
				<path class="st0" d="M905.7,157.7v590.5H630.1v78.7H118.3V157.7H905.7z M469.8,526.6h148.4l-334-334V665L389,560l87.5,195
					l80.7-33.4L469.8,526.6z"/>
				<path d="M945,118.3v748H79v-748H945z M905.7,826.9v-39.4H669.5v39.4H905.7z M905.7,748.2V157.7H118.3v669.2h511.8v-78.7H905.7z"
					/>
				<polygon points="618.2,526.6 469.8,526.6 557.3,721.6 476.6,755 389,560 284.1,665 284.1,192.6 				"/>
			</g>
			<g>
			</g>
		</g>
	</g>
</g>
<g id="_x36_">
</g>
</svg>
