<?xml version="1.0" encoding="utf-8"?>
<!-- Generator: Adobe Illustrator 19.0.0, SVG Export Plug-In . SVG Version: 6.00 Build 0)  -->
<svg version="1.1" xmlns="http://www.w3.org/2000/svg" xmlns:xlink="http://www.w3.org/1999/xlink" x="0px" y="0px"
	 viewBox="0 0 1024 1024" style="enable-background:new 0 0 1024 1024;" xml:space="preserve">
<g id="_x30_">
</g>
<g id="_x33_">
	<g id="LINE_119_">
		<g id="XMLID_1_">
			<g>
				<rect x="79" y="870.2" width="39.4" height="78.7"/>
				<rect x="79" y="752.1" width="39.4" height="78.7"/>
				<rect x="79" y="634" width="39.4" height="78.7"/>
				<rect x="79" y="515.9" width="39.4" height="78.7"/>
				<rect x="79" y="397.8" width="39.4" height="78.7"/>
				<rect x="79" y="279.7" width="39.4" height="78.7"/>
				<rect x="79" y="161.6" width="39.4" height="78.7"/>
				<rect x="79" y="82.9" width="78.7" height="39.4"/>
				<rect x="197.1" y="82.9" width="78.7" height="39.4"/>
				<rect x="315.2" y="82.9" width="78.7" height="39.4"/>
				<rect x="433.3" y="82.9" width="78.7" height="39.4"/>
				<rect x="669.5" y="82.9" width="78.7" height="39.4"/>
				<rect x="551.4" y="82.9" width="78.7" height="39.4"/>
				<rect x="780.4" y="82.9" width="78.7" height="39.4"/>
				<rect x="898.5" y="82.9" width="39.4" height="78.7"/>
				<rect x="898.5" y="201" width="39.4" height="78.7"/>
				<rect x="898.5" y="319.1" width="39.4" height="78.7"/>
				<rect x="898.5" y="437.2" width="39.4" height="78.7"/>
				<rect x="898.5" y="555.3" width="39.4" height="78.7"/>
				<rect x="898.5" y="673.4" width="39.4" height="78.7"/>
				<rect x="898.5" y="791.5" width="39.4" height="78.7"/>
				<rect x="866.3" y="909.6" width="78.7" height="39.4"/>
				<rect x="748.2" y="909.6" width="78.7" height="39.4"/>
				<rect x="630.1" y="909.6" width="78.7" height="39.4"/>
				<rect x="512" y="909.6" width="78.7" height="39.4"/>
				<rect x="393.9" y="909.6" width="78.7" height="39.4"/>
				<rect x="275.8" y="909.6" width="78.7" height="39.4"/>
				<rect x="157.7" y="909.6" width="78.7" height="39.4"/>
				<path d="M758,678c17.7,0,34.3-2.1,49.6-6.3c-19.7,33.9-36.1,56-49.3,66.4c-13.2,10.4-31.1,15.6-53.9,15.6
					c-49.6,0-114.2-39.7-193.6-119.1L483,607.1L468.2,624c-73.7,86.4-130.9,129.6-171.8,129.6c-30.7,0-62-25.2-93.9-75.6
					c11,0,19.5,0,25.4,0c51.6,0,110.2-37.6,175.9-112.8l23-25.8l-16.5-20.7c-79.7-95.7-119.6-162.9-119.6-201.5
					c0-27.7,21.7-62.9,65.2-105.6c18.1,83.4,55.9,162.2,113.5,236.4l13,16.9l24.8-31.7c81-105.7,145.5-158.6,193.4-158.6
					c23.6,0,43.1,12.2,58.5,36.6c2.8,4.2,6.7,10,11.8,17.5c-61.1,29-129.3,87.6-204.8,175.9l-24.2,28.6l17.7,20.5
					C631.3,636.6,697.4,678,758,678z"/>
			</g>
			<g>
			</g>
		</g>
	</g>
</g>
<g id="_x36_">
</g>
</svg>
