<?xml version="1.0" encoding="utf-8"?>
<!-- Generator: Adobe Illustrator 19.0.0, SVG Export Plug-In . SVG Version: 6.00 Build 0)  -->
<svg version="1.1" xmlns="http://www.w3.org/2000/svg" xmlns:xlink="http://www.w3.org/1999/xlink" x="0px" y="0px"
	 viewBox="0 0 1024 1024" style="enable-background:new 0 0 1024 1024;" xml:space="preserve">
<g id="_x30_">
</g>
<g id="_x33_">
	<g id="ARC">
		<g id="XMLID_1_">
			<g>
				<rect x="275.8" y="914" width="78.7" height="39.4"/>
				<rect x="157.7" y="914" width="78.7" height="39.4"/>
				<rect x="79" y="874.6" width="39.4" height="78.7"/>
				<rect x="79" y="756.5" width="39.4" height="78.7"/>
				<rect x="79" y="638.4" width="39.4" height="78.7"/>
				<rect x="79" y="520.3" width="39.4" height="78.7"/>
				<rect x="79" y="402.2" width="39.4" height="78.7"/>
				<rect x="79" y="166" width="39.4" height="78.7"/>
				<rect x="79" y="284.1" width="39.4" height="78.7"/>
				<rect x="79" y="87.3" width="78.7" height="39.4"/>
				<rect x="197.1" y="87.3" width="78.7" height="39.4"/>
				<rect x="315.2" y="87.3" width="78.7" height="39.4"/>
				<rect x="433.3" y="87.3" width="78.7" height="39.4"/>
				<rect x="669.5" y="87.3" width="78.7" height="39.4"/>
				<rect x="551.4" y="87.3" width="78.7" height="39.4"/>
				<rect x="780.4" y="87.3" width="78.7" height="39.4"/>
				<rect x="898.5" y="87.3" width="39.4" height="78.7"/>
				<rect x="898.5" y="205.4" width="39.4" height="78.7"/>
				<rect x="898.5" y="323.5" width="39.4" height="78.7"/>
				<rect x="898.5" y="441.5" width="39.4" height="78.7"/>
				<rect x="898.5" y="559.7" width="39.4" height="78.7"/>
				<rect x="898.5" y="677.8" width="39.4" height="78.7"/>
				<rect x="898.5" y="795.8" width="39.4" height="78.7"/>
				<rect x="866.3" y="914" width="78.7" height="39.4"/>
				<rect x="748.2" y="914" width="78.7" height="39.4"/>
				<path d="M813.5,391.2c7.8,7.9,11.7,17.5,11.7,29c0,12.9-6.6,30.2-19.7,51.7l-87.9,142.8l5.1,55c-8.4,68.5-23,124.4-43.8,167.8
					l-35.4,45.9v50.4c-62-47.7-148.4-47.7-210.5,0v-65.6c-25.5-18-54.6-42.7-87.3-73.8l-83.3-112.7l-97.3-94l8.7-6.6
					c23.9-19.6,44.4-29.4,61.4-29.4c17.2,0,33.1,5,47.5,14.9c14.4,9.9,27.5,24.8,39.4,44.6c17.4,6.1,31.1,11.9,41.1,17.3
					c18.9-38.5,17.7-89.6-3.5-153.4l-43.8-109.3c-4.8-19.2-7.2-36-7.2-50.2c0-14,3.8-24.3,11.4-31.2c7.6-6.8,18.9-10.2,34-10.2
					c25.6,0,47.4,24.7,65.3,74l61.4,136.1l-17.3-179.9c0-26,4.3-45.5,13-58.5c8.7-13,21.5-19.5,38.4-19.5c17.3,0,30.3,5.8,39,17.3
					c8.7,11.5,13,28.8,13,51.9v180.1l50.8-154.2c10.5-37.9,27.5-56.8,51.1-56.8c13.9,0,24.2,4.1,31.2,12.2
					c6.9,8.1,10.4,20.5,10.4,37c0,8.6-2.7,24.1-8.1,46.5l-42.8,149l76.7-90.4c16.4-26.3,32.7-39.5,48.9-39.5
					C796.3,379.4,805.8,383.3,813.5,391.2z"/>
			</g>
			<g>
			</g>
		</g>
	</g>
</g>
<g id="_x36_">
</g>
</svg>
