<?xml version="1.0" encoding="utf-8"?>
<!-- Generator: Adobe Illustrator 19.0.0, SVG Export Plug-In . SVG Version: 6.00 Build 0)  -->
<svg version="1.1" xmlns="http://www.w3.org/2000/svg" xmlns:xlink="http://www.w3.org/1999/xlink" x="0px" y="0px"
	 viewBox="0 0 1024 1024" style="enable-background:new 0 0 1024 1024;" xml:space="preserve">
<g id="_x30_">
</g>
<g id="_x33_">
	<g id="LINE_17_">
		<g id="XMLID_1_">
			<g>
				<path d="M940.2,163.2c7.3,13,6.6,28.9-1.8,41.3L546.3,783.9l-217.8,147L93.6,703.8l290.6-332.1V126.2l-214.3,69.3l-12.2-37.8
					l266.2-86.1v314.9L148.4,701.5l193.5,187.2l53.8-199.6l393.8-580.3c7.4-14.5,22.9-23,39.1-21.4
					C877.5,92.4,914.8,117.6,940.2,163.2z M909.8,204.7c9.8-14.3,9.1-33.3-1.7-46.9c-17.3-21.6-38.1-36.3-62.5-44
					c-16.5-5.2-34.4,0.9-44.2,15.1l0.1,0.1l-62,89.3c47.3,8,83.5,33.6,108.6,76.7l62-90.1L909.8,204.7z M527.5,773
					c10-40.6-14.8-81.6-55.4-91.6c-21.7-5.4-44.7-0.8-62.8,12.4l-30.7,136.8l31.6,20.3L527.5,773z"/>
			</g>
			<g>
			</g>
		</g>
	</g>
</g>
<g id="_x36_">
</g>
</svg>
