<?xml version="1.0" encoding="utf-8"?>
<!-- Generator: Adobe Illustrator 19.0.0, SVG Export Plug-In . SVG Version: 6.00 Build 0)  -->
<svg version="1.1" xmlns="http://www.w3.org/2000/svg" xmlns:xlink="http://www.w3.org/1999/xlink" x="0px" y="0px"
	 viewBox="0 0 1024 1024" style="enable-background:new 0 0 1024 1024;" xml:space="preserve">
<g id="_x30_">
</g>
<g id="_x33_">
	<g id="LINE_31_">
		<g id="XMLID_1_">
			<g>
				<polygon points="865.4,607 754,718.4 508.3,472.6 472.6,472.6 472.6,866.3 433.3,866.3 433.3,433.3 524.6,433.3 754,662.7 
					809.7,607 557.2,354.5 354.5,354.5 354.5,866.3 315.2,866.3 315.2,315.2 573.5,315.2 				"/>
				<polygon points="655,118.3 1004.5,467.9 893.2,579.2 589.8,275.8 275.8,275.8 275.8,866.3 236.4,866.3 236.4,236.4 606.1,236.4 
					893.2,523.5 948.9,467.9 638.7,157.7 157.7,157.7 157.7,866.3 118.3,866.3 118.3,118.3 				"/>
			</g>
			<g>
			</g>
		</g>
	</g>
</g>
<g id="_x36_">
</g>
</svg>
