<?xml version="1.0" encoding="utf-8"?>
<!-- Generator: Adobe Illustrator 19.0.0, SVG Export Plug-In . SVG Version: 6.00 Build 0)  -->
<svg version="1.1" xmlns="http://www.w3.org/2000/svg" xmlns:xlink="http://www.w3.org/1999/xlink" x="0px" y="0px"
	 viewBox="0 0 1024 1024" style="enable-background:new 0 0 1024 1024;" xml:space="preserve">
<style type="text/css">
	.st0{fill:#FFFF00;}
</style>
<g id="_x30_">
</g>
<g id="_x33_">
	<g id="LINE_54_">
		<g id="XMLID_1_">
			<g>
				<path class="st0" d="M846.6,302.2c55.1,0,99.8,44.7,99.8,99.8c0,55.1-44.7,99.8-99.8,99.8c-55.1,0-99.8-44.7-99.8-99.8
					C746.8,346.9,791.5,302.2,846.6,302.2z"/>
				<path d="M846.6,262.9c76.9,0,139.2,62.3,139.2,139.2c0,76.9-62.3,139.2-139.2,139.2c-76.9,0-139.2-62.3-139.2-139.2
					C707.4,325.2,769.8,262.9,846.6,262.9z M946.4,402c0-55.1-44.7-99.8-99.8-99.8c-55.1,0-99.8,44.7-99.8,99.8
					c0,55.1,44.7,99.8,99.8,99.8C901.7,501.9,946.4,457.2,946.4,402z"/>
				<path d="M283.7,909.6V945H122.3v-31.5l69.3-84.7c11.4-13.8,19.8-23.6,25.2-29.5c-5.6,0-13,0-22.1,0h-64.5V764h145.7v31.5
					l-69.9,85.7l-24.6,28.4c13.8,0,22.3,0,25.6,0H283.7z"/>
				<path d="M669.5,787.6V945H354.5V787.6H669.5z M630.1,905.7v-78.7H393.9v78.7H630.1z"/>
				<path d="M669.5,453v157.5H354.5V453H669.5z M630.1,571v-78.7H393.9V571H630.1z"/>
				<path d="M299.4,409.6l-61.3,173.5l-11.4,32.2c-3.9,10-7.7,17.6-11.2,22.9c-3.6,5.3-7.6,9.6-12.3,12.9
					c-4.6,3.3-10.3,5.8-17.1,7.7c-6.7,1.8-14.4,2.7-22.9,2.7c-8.6,0-17.1-0.9-25.3-2.7l-3.9-35c6.9,1.5,13.2,2.3,18.8,2.3
					c10.3,0,17.9-3.3,22.8-10c4.9-6.7,8.7-15.1,11.3-25.4l-64.7-181.1h47.2l41.3,128.2l41.3-128.2H299.4z"/>
				<polygon points="239.7,180.5 305.3,275.8 249.2,275.8 211.6,219.7 176.5,275.8 120.3,275.8 184.3,182.6 128.2,94.7 184.3,94.7 
					211.6,144.5 241.3,94.7 297.5,94.7 				"/>
				<path d="M669.5,118.3v157.5H354.5V118.3H669.5z M630.1,236.4v-78.7H393.9v78.7H630.1z"/>
			</g>
			<g>
			</g>
		</g>
	</g>
</g>
<g id="_x36_">
</g>
</svg>
