<?xml version="1.0" encoding="utf-8"?>
<!-- Generator: Adobe Illustrator 19.0.0, SVG Export Plug-In . SVG Version: 6.00 Build 0)  -->
<svg version="1.1" xmlns="http://www.w3.org/2000/svg" xmlns:xlink="http://www.w3.org/1999/xlink" x="0px" y="0px"
	 viewBox="0 0 1024 1024" style="enable-background:new 0 0 1024 1024;" xml:space="preserve">
<style type="text/css">
	.st0{fill:#FFFF00;}
</style>
<g id="_x30_">
</g>
<g id="_x33_">
	<g id="LINE_11_">
		<g id="XMLID_1_">
			<g>
				<circle class="st0" cx="510" cy="514" r="99.8"/>
				<path d="M919.6,132.3L748.2,303.7c77,87.3,99.6,209.9,58.7,318.9L770,608.8c35.4-94.5,16.4-200.9-49.8-277.2l-98.9,98.9
					c37.1,49.5,37.1,117.6,0,167.1c-46.1,61.5-133.4,74-194.9,27.8l-94.9,94.9c50.1,43.4,114.2,67.3,180.4,67.3v39.4
					c-76.7,0-150.8-28-208.3-78.8L132.3,919.6l-27.8-27.8l171.4-171.4c-105-119.1-105-297.6,0-416.7
					c115.1-130.4,314.1-142.9,444.5-27.8l171.4-171.4L919.6,132.3z M593.6,402.6l98.9-98.9c-115-99.7-289.1-87.2-388.7,27.8
					c-89.7,103.6-89.7,257.3,0,360.9l94.9-94.9c-42.2-56.3-35.8-135.2,14.9-183.9C462.8,366.3,539,361.7,593.6,402.6z M609.9,514
					c0-55.1-44.7-99.8-99.8-99.8s-99.8,44.7-99.8,99.8s44.7,99.8,99.8,99.8S609.9,569.1,609.9,514z"/>
			</g>
			<g>
			</g>
		</g>
	</g>
</g>
<g id="_x36_">
</g>
</svg>
