<?xml version="1.0" encoding="utf-8"?>
<!-- Generator: Adobe Illustrator 19.0.0, SVG Export Plug-In . SVG Version: 6.00 Build 0)  -->
<svg version="1.1" xmlns="http://www.w3.org/2000/svg" xmlns:xlink="http://www.w3.org/1999/xlink" x="0px" y="0px"
	 viewBox="0 0 1024 1024" style="enable-background:new 0 0 1024 1024;" xml:space="preserve">
<style type="text/css">
	.st0{fill:#FFFF00;}
</style>
<g id="_x30_">
</g>
<g id="_x33_">
	<g id="LINE_2_">
		<g id="XMLID_1_">
			<g>
				<path class="st0" d="M767.9,156.3c55.1,0,99.8,44.7,99.8,99.8c0,55.1-44.7,99.8-99.8,99.8c-55.1,0-99.8-44.7-99.8-99.8
					C668.1,201,712.8,156.3,767.9,156.3z"/>
				<path d="M855.2,147.7c59.9,48.2,69.3,135.8,21.1,195.7c-48.2,59.9-135.8,69.3-195.7,21.1L164.9,880.2L137,852.4l516.7-516.7
					c-38.6-55.3-31.9-130.3,15.8-178C719.7,107.4,799.8,103.1,855.2,147.7z M867.7,256.1c0-55.1-44.7-99.8-99.8-99.8
					c-55.1,0-99.8,44.7-99.8,99.8c0,55.1,44.7,99.8,99.8,99.8C823,355.9,867.7,311.2,867.7,256.1z"/>
			</g>
			<g>
			</g>
		</g>
	</g>
</g>
<g id="_x36_">
</g>
</svg>
