<?xml version="1.0" encoding="utf-8"?>
<!-- Generator: Adobe Illustrator 16.0.0, SVG Export Plug-In . SVG Version: 6.00 Build 0)  -->
<!DOCTYPE svg PUBLIC "-//W3C//DTD SVG 1.1//EN" "http://www.w3.org/Graphics/SVG/1.1/DTD/svg11.dtd">
<svg version="1.1" id="Layer_1" xmlns="http://www.w3.org/2000/svg" xmlns:xlink="http://www.w3.org/1999/xlink" x="0px" y="0px"
	 width="64px" height="64px" viewBox="0 0 64 64" enable-background="new 0 0 64 64" xml:space="preserve">
<g id="LINE_19_">
	<g id="XMLID_1_">
		<g>
			<path d="M52.679688,35.929688c-1.819336,8.830078-9.109375,15.610352-18.189453,16.69043v6.399414h-4.980469v-6.399414
				c-0.119629-0.009766-0.239746-0.030273-0.359863-0.049805l0.359863-2.459961v-8.510742
				c-3.679688-0.919922-6.549805-3.790039-7.459961-7.459961l2.42041-0.549805C25.339844,36.94043,28.379883,39.419922,32,39.419922
				c3.490234,0,6.44043-2.299805,7.419922-5.459961l2.540039,0.179688c-0.919922,3.669922-3.790039,6.540039-7.469727,7.459961
				v8.510742C42.280273,49.05957,48.519531,43.25,50.19043,35.679688L52.679688,35.929688z"/>
			<path d="M50.459961,29.160156c-1.120117-8.310059-7.660156-14.850098-15.969727-15.970215v8.5
				c3.679688,0.919922,6.549805,3.790039,7.469727,7.470215H50.459961z M29.509766,13.189941
				c-4.039551,0.540039-7.799805,2.399902-10.679688,5.290039c-2.890137,2.879883-4.75,6.629883-5.290039,10.680176h8.509766
				c0.910156-3.680176,3.780273-6.550293,7.459961-7.470215V13.189941z M17.069824,16.720215
				c3.350098-3.360352,7.72998-5.47998,12.439941-6.040039V4.27002h4.980469v6.410156
				c9.689453,1.149902,17.330078,8.790039,18.479492,18.47998h6.410156v4.979492h-6.410156
				c-0.069336,0.600586-0.169922,1.200195-0.290039,1.790039l-2.489258-0.25c0.109375-0.509766,0.199219-1.019531,0.269531-1.540039
				h-8.5l-2.540039-0.179688c0.230469-0.729492,0.349609-1.5,0.349609-2.310059c0-4.299805-3.479492-7.77002-7.769531-7.77002
				s-7.77002,3.470215-7.77002,7.77002c0,0.669922,0.080078,1.320313,0.240234,1.939941l-2.42041,0.549805h-8.509766
				c1.120117,8.310547,7.660156,14.850586,15.969727,15.970703l-0.359863,2.459961
				c-9.52002-1.290039-16.97998-8.860352-18.120117-18.430664H4.620117v-4.979492h6.409668
				C11.589844,24.450195,13.720215,20.069824,17.069824,16.720215z"/>
		</g>
		<g>
		</g>
	</g>
</g>
</svg>
