<?xml version="1.0" encoding="utf-8"?>
<!-- Generator: Adobe Illustrator 19.0.0, SVG Export Plug-In . SVG Version: 6.00 Build 0)  -->
<svg version="1.1" xmlns="http://www.w3.org/2000/svg" xmlns:xlink="http://www.w3.org/1999/xlink" x="0px" y="0px"
	 viewBox="0 0 1024 1024" style="enable-background:new 0 0 1024 1024;" xml:space="preserve">
<style type="text/css">
	.st0{fill:#FFFF00;}
</style>
<g id="_x30_">
</g>
<g id="_x33_">
	<g id="LINE_41_">
		<g id="XMLID_1_">
			<g>
				<path class="st0" d="M692.5,474.5c55.2,0,99.9,44.7,99.9,99.9s-44.7,99.9-99.9,99.9c-55.2,0-99.9-44.7-99.9-99.9
					S637.3,474.5,692.5,474.5z"/>
				<rect x="393.9" y="551.4" width="39.4" height="39.4"/>
				<rect x="472.6" y="551.4" width="39.4" height="39.4"/>
				<rect x="79" y="551.4" width="275.6" height="39.4"/>
				<polygon points="370.8,102 315.2,157.7 370.8,213.4 343,241.2 287.3,185.5 231.7,241.2 203.8,213.4 259.5,157.7 203.8,102 
					231.7,74.2 287.3,129.9 343,74.2 				"/>
				<polygon points="469.8,319.1 442,347 414.2,319.1 442,291.3 				"/>
				<polygon points="525.5,374.8 497.7,402.6 469.8,374.8 497.7,347 				"/>
				<polygon points="581.2,430.5 553.3,458.3 525.5,430.5 553.3,402.6 				"/>
				<path d="M939.3,348.8L801,487.1c41.1,51,41.1,123.7,0,174.7c-48.3,59.9-135.9,69.3-195.8,21.1L348.8,939.3l-27.8-27.8
					l257.4-257.3c-39.6-56.8-31.4-134.2,19.2-181.5c48-44.8,120.8-50,174.7-12.4l139.3-139.3L939.3,348.8z M792.4,574.4
					c0-55.2-44.7-99.9-99.9-99.9c-55.2,0-99.9,44.7-99.9,99.9s44.7,99.9,99.9,99.9C747.7,674.3,792.4,629.6,792.4,574.4z"/>
			</g>
			<g>
			</g>
		</g>
	</g>
</g>
<g id="_x36_">
</g>
</svg>
