<?xml version="1.0" encoding="utf-8"?>
<!-- Generator: Adobe Illustrator 19.0.0, SVG Export Plug-In . SVG Version: 6.00 Build 0)  -->
<svg version="1.1" xmlns="http://www.w3.org/2000/svg" xmlns:xlink="http://www.w3.org/1999/xlink" x="0px" y="0px"
	 viewBox="0 0 1024 1024" style="enable-background:new 0 0 1024 1024;" xml:space="preserve">
<style type="text/css">
	.st0{fill:#FFFF00;}
</style>
<g id="_x30_">
</g>
<g id="_x33_">
	<g id="LINE_63_">
		<g id="XMLID_1_">
			<g>
				<path class="st0" d="M453,381c55.1,0,99.8,44.7,99.8,99.8c0,55.1-44.7,99.8-99.8,99.8s-99.8-44.7-99.8-99.8
					C353.1,425.7,397.8,381,453,381z"/>
				<rect x="433.3" y="275.8" width="39.4" height="39.4"/>
				<rect x="433.3" y="197.1" width="39.4" height="39.4"/>
				<rect x="433.3" y="118.3" width="39.4" height="39.4"/>
				<rect x="433.3" y="39.6" width="39.4" height="39.4"/>
				<polygon points="854.8,106.8 815.4,146.2 787.6,118.3 826.9,79 				"/>
				<polygon points="776,185.5 736.7,224.9 708.8,197.1 748.2,157.7 				"/>
				<polygon points="669.5,236.4 697.3,264.3 657.9,303.6 630.1,275.8 				"/>
				<polygon points="618.6,343 579.2,382.4 551.4,354.5 590.7,315.2 				"/>
				<path d="M453,341.6c76.9,0,139.2,62.3,139.2,139.2c0,76.9-62.3,139.2-139.2,139.2s-139.2-62.3-139.2-139.2
					C313.8,403.9,376.1,341.6,453,341.6z M552.8,480.8c0-55.1-44.7-99.8-99.8-99.8s-99.8,44.7-99.8,99.8c0,55.1,44.7,99.8,99.8,99.8
					S552.8,535.9,552.8,480.8z"/>
				<rect x="433.3" y="826.9" width="39.4" height="39.4"/>
				<rect x="433.3" y="748.2" width="39.4" height="39.4"/>
				<rect x="433.3" y="669.5" width="39.4" height="39.4"/>
				<polygon points="315.2,590.7 343,618.6 303.6,657.9 275.8,630.1 				"/>
				<polygon points="146.2,815.4 106.8,854.8 79,826.9 118.3,787.6 				"/>
				<polygon points="264.3,697.3 224.9,736.7 197.1,708.8 236.4,669.5 				"/>
				<polygon points="197.1,708.8 197.1,945 157.7,945 157.7,79 197.1,79 				"/>
				<polygon points="945,433.3 945,488.9 488.9,945 433.3,945 				"/>
			</g>
			<g>
			</g>
		</g>
	</g>
</g>
<g id="_x36_">
</g>
</svg>
