<?xml version="1.0" encoding="utf-8"?>
<!-- Generator: Adobe Illustrator 19.0.0, SVG Export Plug-In . SVG Version: 6.00 Build 0)  -->
<svg version="1.1" xmlns="http://www.w3.org/2000/svg" xmlns:xlink="http://www.w3.org/1999/xlink" x="0px" y="0px"
	 viewBox="0 0 1024 1024" style="enable-background:new 0 0 1024 1024;" xml:space="preserve">
<style type="text/css">
	.st0{fill:#FFFF00;}
</style>
<g id="_x30_">
</g>
<g id="_x33_">
	<g id="LINE_78_">
		<g id="XMLID_1_">
			<g>
				<path d="M283.7,212.5V248H122.3v-31.5l69.3-84.7c11.4-13.8,19.8-23.6,25.2-29.5c-5.6,0-13,0-22.1,0h-64.5V66.9h145.7v31.5
					l-69.9,85.7l-24.6,28.4c13.8,0,22.3,0,25.6,0H283.7z"/>
				<rect x="197.1" y="298" width="39.4" height="16.3"/>
				<rect x="197.1" y="370" width="39.4" height="55.7"/>
				<rect x="197.1" y="481.4" width="39.4" height="55.7"/>
				<rect x="197.1" y="592.7" width="39.4" height="55.7"/>
				<path d="M811.2,263.7l-61.3,173.5l-11.4,32.2c-3.9,10-7.7,17.7-11.2,23c-3.5,5.3-7.6,9.6-12.3,12.9c-4.6,3.3-10.3,5.8-17.1,7.7
					c-6.8,1.8-14.4,2.7-22.8,2.7c-8.6,0-17.1-0.9-25.3-2.7l-3.9-35c6.9,1.5,13.2,2.3,18.8,2.3c10.3,0,17.9-3.3,22.8-10
					c4.9-6.7,8.7-15.1,11.3-25.4L634,263.7h47.2l41.3,128.2L764,263.7H811.2z"/>
				<polygon points="618.6,433.3 579.2,472.6 551.4,444.8 590.7,405.4 				"/>
				<rect x="478.4" y="498.1" transform="matrix(0.7071 -0.7071 0.7071 0.7071 -217.8423 509.6121)" width="55.7" height="39.4"/>
				<polygon points="461.1,590.7 421.7,630.1 393.9,602.3 433.3,562.9 				"/>
				<polygon points="382.4,669.5 343,708.8 315.2,681 354.5,641.6 				"/>
				<path d="M216.8,668.1c76.9,0,139.2,62.3,139.2,139.2s-62.3,139.2-139.2,139.2S77.6,884.1,77.6,807.3S139.9,668.1,216.8,668.1z
					 M316.6,807.3c0-55.1-44.7-99.8-99.8-99.8s-99.8,44.7-99.8,99.8s44.7,99.8,99.8,99.8S316.6,862.4,316.6,807.3z"/>
				<path class="st0" d="M216.8,707.4c55.1,0,99.8,44.7,99.8,99.8s-44.7,99.8-99.8,99.8s-99.8-44.7-99.8-99.8
					S161.6,707.4,216.8,707.4z"/>
				<rect x="375.6" y="787.6" width="55.7" height="39.4"/>
				<rect x="487" y="787.6" width="55.7" height="39.4"/>
				<rect x="598.3" y="787.6" width="55.7" height="39.4"/>
				<rect x="709.7" y="787.6" width="16.3" height="39.4"/>
				<polygon points="882.3,805.2 948,900.5 891.8,900.5 854.3,844.4 819.1,900.5 763,900.5 826.9,807.3 770.8,719.4 827,719.4 
					854.3,769.2 884,719.4 940.1,719.4 				"/>
			</g>
			<g>
			</g>
		</g>
	</g>
</g>
<g id="_x36_">
</g>
</svg>
