<?xml version="1.0" encoding="utf-8"?>
<!-- Generator: Adobe Illustrator 19.0.0, SVG Export Plug-In . SVG Version: 6.00 Build 0)  -->
<svg version="1.1" xmlns="http://www.w3.org/2000/svg" xmlns:xlink="http://www.w3.org/1999/xlink" x="0px" y="0px"
	 viewBox="0 0 1024 1024" style="enable-background:new 0 0 1024 1024;" xml:space="preserve">
<style type="text/css">
	.st0{fill:#FFFF00;}
</style>
<g id="_x30_">
</g>
<g id="_x33_">
	<g id="LINE_19_">
		<g id="XMLID_1_">
			<g>
				<path class="st0" d="M512,389c67.9,0,123,55.1,123,123s-55,123-123,123s-123-55-123-123S444.1,389,512,389z"/>
				<path d="M945,472.6v78.7H843.7c-18.2,153.3-139.1,274.2-292.3,292.3V945h-78.7V843.7c-153.3-18.2-274.2-139.1-292.3-292.3H79
					v-78.7h101.3c8.8-74.5,42.5-143.8,95.5-196.8s122.4-86.7,196.8-95.5V79h78.7v101.3c153.3,18.2,274.2,139.1,292.3,292.3H945z
					 M669.5,472.6H804C786.3,341.1,682.9,237.7,551.4,220v134.6C609.5,369.1,654.9,414.5,669.5,472.6z M804,551.4H669.5
					c-14.5,58.2-59.9,103.6-118.1,118.1V804C682.9,786.3,786.3,682.9,804,551.4z M635,512c0-67.9-55-123-123-123s-123,55.1-123,123
					s55.1,123,123,123S635,579.9,635,512z M472.6,804V669.5c-58.1-14.5-103.6-59.9-118.1-118.1H220
					C237.7,682.9,341.1,786.3,472.6,804z M472.6,354.5V220c-64,8.6-123.4,38-169,83.7c-45.7,45.6-75,105-83.7,169h134.6
					C369.1,414.5,414.5,369.1,472.6,354.5z"/>
			</g>
			<g>
			</g>
		</g>
	</g>
</g>
<g id="_x36_">
</g>
</svg>
