<?xml version="1.0" encoding="utf-8"?>
<!-- Generator: Adobe Illustrator 19.0.0, SVG Export Plug-In . SVG Version: 6.00 Build 0)  -->
<svg version="1.1" xmlns="http://www.w3.org/2000/svg" xmlns:xlink="http://www.w3.org/1999/xlink" x="0px" y="0px"
	 viewBox="0 0 1024 1024" style="enable-background:new 0 0 1024 1024;" xml:space="preserve">
<style type="text/css">
	.st0{fill:#FFFF00;}
</style>
<g id="_x30_">
</g>
<g id="_x33_">
	<g id="LINE_7_">
		<g id="XMLID_1_">
			<g>
				<path class="st0" d="M393.9,294.1c55.1,0,99.8,44.7,99.8,99.8s-44.7,99.8-99.8,99.8s-99.8-44.7-99.8-99.8
					S338.8,294.1,393.9,294.1z"/>
				<path d="M505.3,477.4l414.3,414.3l-27.8,27.8L477.4,505.3c-47,35.2-111,37.2-160.1,4.9c-69.7,103.6-110.7,223.8-119,348.4
					l-39.3-2.6c8.9-133.3,53.3-261.8,128.6-372.1c-41.9-49.5-44-121.5-5.1-173.4L104.4,132.3l27.8-27.8l178.1,178.1
					c51.9-38.9,123.9-36.8,173.4,5.1c114-77.8,247.3-122.6,385.2-129.3l1.9,39.3c-128.9,6.3-253.7,47.7-360.8,119.7
					C542.4,366.4,540.5,430.4,505.3,477.4z M493.7,393.9c0-55.1-44.7-99.8-99.8-99.8s-99.8,44.7-99.8,99.8s44.7,99.8,99.8,99.8
					S493.7,449,493.7,393.9z"/>
			</g>
			<g>
			</g>
		</g>
	</g>
</g>
<g id="_x36_">
</g>
</svg>
