<?xml version="1.0" encoding="utf-8"?>
<!-- Generator: Adobe Illustrator 19.0.0, SVG Export Plug-In . SVG Version: 6.00 Build 0)  -->
<svg version="1.1" xmlns="http://www.w3.org/2000/svg" xmlns:xlink="http://www.w3.org/1999/xlink" x="0px" y="0px"
	 viewBox="0 0 1024 1024" style="enable-background:new 0 0 1024 1024;" xml:space="preserve">
<style type="text/css">
	.st0{fill:#FFFF00;}
</style>
<g id="_x30_">
</g>
<g id="_x33_">
	<g id="LINE_37_">
		<g id="XMLID_1_">
			<g>
				<path class="st0" d="M374.2,195.7c55.1,0,99.8,44.7,99.8,99.8c0,55.1-44.7,99.8-99.8,99.8c-55.1,0-99.8-44.7-99.8-99.8
					C274.4,240.4,319.1,195.7,374.2,195.7z"/>
				<polygon points="945,551.4 945,866.3 79,866.3 79,551.4 118.3,551.4 118.3,748.2 157.7,748.2 157.7,551.4 236.4,551.4 
					236.4,630.1 275.8,630.1 275.8,551.4 354.5,551.4 354.5,630.1 393.9,630.1 393.9,551.4 472.6,551.4 472.6,748.2 512,748.2 
					512,551.4 590.7,551.4 590.7,630.1 630.1,630.1 630.1,551.4 708.8,551.4 708.8,630.1 748.2,630.1 748.2,551.4 826.9,551.4 
					826.9,748.2 866.3,748.2 866.3,551.4 				"/>
				<path d="M945,295.5v39.4H507.7c-13.4,45.3-48.8,80.8-94.1,94.1c-73.7,21.7-151.1-20.4-172.9-94.1H79v-39.4H235
					c0-76.9,62.3-139.2,139.2-139.2s139.2,62.3,139.2,139.2H945z M474,295.5c0-55.1-44.7-99.8-99.8-99.8
					c-55.1,0-99.8,44.7-99.8,99.8c0,55.1,44.7,99.8,99.8,99.8C429.3,395.3,474,350.6,474,295.5z"/>
			</g>
			<g>
			</g>
		</g>
	</g>
</g>
<g id="_x36_">
</g>
</svg>
