<?xml version="1.0" encoding="utf-8"?>
<!-- Generator: Adobe Illustrator 19.0.0, SVG Export Plug-In . SVG Version: 6.00 Build 0)  -->
<svg version="1.1" xmlns="http://www.w3.org/2000/svg" xmlns:xlink="http://www.w3.org/1999/xlink" x="0px" y="0px"
	 viewBox="0 0 1024 1024" style="enable-background:new 0 0 1024 1024;" xml:space="preserve">
<style type="text/css">
	.st0{fill:#FFFF00;}
</style>
<g id="_x30_">
</g>
<g id="_x33_">
	<g id="LINE_27_">
		<g id="XMLID_1_">
			<g>
				<path class="st0" d="M531.7,707.4c55.1,0,99.8,44.7,99.8,99.8s-44.7,99.8-99.8,99.8c-55.1,0-99.8-44.7-99.8-99.8
					S476.6,707.4,531.7,707.4z"/>
				<path d="M531.7,668.1c76.9,0,139.2,62.3,139.2,139.2s-62.3,139.2-139.2,139.2c-76.9,0-139.2-62.3-139.2-139.2
					S454.8,668.1,531.7,668.1z M631.5,807.3c0-55.1-44.7-99.8-99.8-99.8c-55.1,0-99.8,44.7-99.8,99.8s44.7,99.8,99.8,99.8
					C586.8,907.1,631.5,862.4,631.5,807.3z"/>
				<rect x="512" y="562.9" width="39.4" height="39.4"/>
				<rect x="512" y="484.2" width="39.4" height="39.4"/>
				<rect x="512" y="326.7" width="39.4" height="39.4"/>
				<rect x="512" y="405.4" width="39.4" height="39.4"/>
				<polygon points="477.2,286 132,384.7 121.2,346.8 402.3,266.5 				"/>
				<polygon points="916,119.7 926.9,157.6 700.5,222.2 625.6,202.7 				"/>
				<polygon points="892.3,312.9 882.3,351 82.4,142.4 92.3,104.3 				"/>
			</g>
			<g>
			</g>
		</g>
	</g>
</g>
<g id="_x36_">
</g>
</svg>
