<?xml version="1.0" encoding="utf-8"?>
<!-- Generator: Adobe Illustrator 15.1.0, SVG Export Plug-In . SVG Version: 6.00 Build 0)  -->
<!DOCTYPE svg PUBLIC "-//W3C//DTD SVG 1.1//EN" "http://www.w3.org/Graphics/SVG/1.1/DTD/svg11.dtd">
<svg version="1.1" id="Layer_1" xmlns="http://www.w3.org/2000/svg" xmlns:xlink="http://www.w3.org/1999/xlink" x="0px" y="0px"
	 width="128px" height="128px" viewBox="0 0 128 128" enable-background="new 0 0 128 128" xml:space="preserve">
<g id="LINE_23_">
	<g id="XMLID_1_">
		<g>
			<path d="M52.96,78.71c2.34,1.33,3.41,4.13,2.56,6.68l-8.57,25.7c1.73,1.15,3.95,1.25,5.78,0.28l1.36,1.49l-2.07,1.88
				c-3.74,3.399-9.28,3.89-13.57,1.22L4.93,95c-2.47-1.54-3.36-4.7-2.06-7.3L17.5,58.44L52.96,78.71z"/>
			<path d="M84.77,81.15l20.62-18.74l1.891,2.08L77.6,91.48l-23.51,21.38l-1.36-1.49l9.42-28.94C62.46,81.5,63,80.66,63.72,80
				l29.03-26.39l2.62,1.05L84.77,81.15z"/>
			<path d="M122.44,29.79l-14.7,34.29l-0.46,0.41l-1.891-2.08l14.23-33.21L97.48,49.38l-2.11,5.28l-2.62-1.05l-1.93-0.81
				L64.17,72.58c-1.56,1.03-3.52,1.229-5.25,0.52L22.04,55.03l29.3-21.97L82.57,9.64c1.609-1.21,3.75-1.47,5.6-0.67l31.3,13.41
				C122.34,23.61,123.66,26.92,122.44,29.79z M87.29,51.04l27.1-24.7L85.95,14.15L56.98,35.88L87.29,51.04z"/>
		</g>
		<g>
		</g>
	</g>
</g>
</svg>
