<?xml version="1.0" encoding="utf-8"?>
<!-- Generator: Adobe Illustrator 15.1.0, SVG Export Plug-In . SVG Version: 6.00 Build 0)  -->
<!DOCTYPE svg PUBLIC "-//W3C//DTD SVG 1.1//EN" "http://www.w3.org/Graphics/SVG/1.1/DTD/svg11.dtd">
<svg version="1.1" id="Layer_1" xmlns="http://www.w3.org/2000/svg" xmlns:xlink="http://www.w3.org/1999/xlink" x="0px" y="0px"
	 width="128px" height="128px" viewBox="0 0 128 128" enable-background="new 0 0 128 128" xml:space="preserve">
<g id="LINE_38_">
	<g id="XMLID_1_">
		<g>
			<polygon points="123.84,91.88 123.84,124.73 3.41,124.73 3.41,91.88 8.89,91.88 8.89,119.25 14.36,119.25 14.36,91.88 
				25.31,91.88 25.31,102.83 30.78,102.83 30.78,91.88 41.73,91.88 41.73,102.83 47.2,102.83 47.2,91.88 58.15,91.88 58.15,119.25 
				63.63,119.25 63.63,91.88 74.58,91.88 74.58,102.83 80.05,102.83 80.05,91.88 91,91.88 91,102.83 96.47,102.83 96.47,91.88 
				107.42,91.88 107.42,119.25 112.89,119.25 112.89,91.88 			"/>
			<path d="M80.61,26.18c8.18,0,14.81,6.63,14.81,14.81c0,8.18-6.63,14.8-14.81,14.8c-8.181,0-14.801-6.62-14.801-14.8
				C65.81,32.81,72.43,26.18,80.61,26.18z"/>
			<path d="M120.56,41.52v28.47c0,6.04-4.909,10.939-10.949,10.939H8.89v5.48H3.41V75.46h38.32V41.52
				c0-21.77,17.65-39.41,39.41-39.41C102.91,2.11,120.56,19.75,120.56,41.52z M106.36,40.99c0-14.22-11.53-25.75-25.75-25.75
				c-14.221,0-25.75,11.53-25.75,25.75c0,14.22,11.53,25.75,25.75,25.75C94.83,66.74,106.36,55.21,106.36,40.99z"/>
		</g>
		<g>
		</g>
	</g>
</g>
</svg>
