<?xml version="1.0" encoding="utf-8"?>
<!-- Generator: Adobe Illustrator 16.0.0, SVG Export Plug-In . SVG Version: 6.00 Build 0)  -->
<!DOCTYPE svg PUBLIC "-//W3C//DTD SVG 1.1//EN" "http://www.w3.org/Graphics/SVG/1.1/DTD/svg11.dtd">
<svg version="1.1" id="Layer_1" xmlns="http://www.w3.org/2000/svg" xmlns:xlink="http://www.w3.org/1999/xlink" x="0px" y="0px"
	 width="64px" height="64px" viewBox="0 0 64 64" enable-background="new 0 0 64 64" xml:space="preserve">
<g id="SPLINE_15_">
	<g id="XMLID_1_">
		<g>
			<path d="M34.07,44.36c0.949,0.949,1.43,2.1,1.43,3.449c0,1.341-0.48,2.49-1.43,3.45c-0.95,0.96-2.1,1.44-3.45,1.44
				s-2.5-0.48-3.45-1.44c-0.95-0.96-1.43-2.109-1.43-3.45c0-1.35,0.48-2.5,1.43-3.449c0.95-0.94,2.1-1.42,3.45-1.42
				S33.12,43.42,34.07,44.36z"/>
			<path d="M31.22,33.42c-0.63,1.01-1.01,2.561-1.15,4.64h-1.39c-0.04-2.17,0.05-3.8,0.27-4.88c0.22-1.08,0.78-2.56,1.69-4.459
				c0.91-1.89,1.51-3.41,1.79-4.56c0.29-1.15,0.43-2.57,0.43-4.26c0-2.6-0.41-4.53-1.25-5.76c-0.83-1.24-1.82-1.86-2.95-1.86
				c-0.86,0-1.66,0.31-2.4,0.93c-0.56,0.47-0.84,0.96-0.84,1.47c0,0.34,0.19,0.87,0.57,1.6c0.87,1.63,1.3,3.02,1.3,4.18
				c0,1.04-0.38,1.91-1.13,2.61c-0.75,0.7-1.68,1.06-2.8,1.06c-1.26,0-2.31-0.42-3.16-1.26c-0.85-0.83-1.27-1.93-1.27-3.31
				c0-2.49,1.02-4.67,3.08-6.55c2.05-1.88,4.92-2.82,8.61-2.82c3.91,0,6.89,0.91,8.93,2.73c2.05,1.82,3.07,4.01,3.07,6.59
				c0,1.87-0.521,3.59-1.54,5.18c-1.03,1.58-3.021,3.34-5.96,5.26C33.14,31.25,31.84,32.41,31.22,33.42z"/>
		</g>
		<g>
		</g>
	</g>
</g>
</svg>
