<?xml version="1.0" encoding="utf-8"?>
<!-- Generator: Adobe Illustrator 19.0.0, SVG Export Plug-In . SVG Version: 6.00 Build 0)  -->
<svg version="1.1" xmlns="http://www.w3.org/2000/svg" xmlns:xlink="http://www.w3.org/1999/xlink" x="0px" y="0px"
	 viewBox="0 0 1024 1024" style="enable-background:new 0 0 1024 1024;" xml:space="preserve">
<g id="_x30_">
</g>
<g id="_x33_">
	<g id="LINE_55_">
		<g id="XMLID_1_">
			<g>
				<path d="M856.9,324.7V364l-85.4,85.4c-6.2-6.9-12.8-13.5-19.9-19.5L856.9,324.7z"/>
				<path d="M856.9,206.6v39.4L703.5,399.4c-9.4-4.2-19-7.7-28.9-10.4L856.9,206.6z"/>
				<path d="M787.7,197.1L602.2,382.5c-17.3,1.6-34.4,5.4-50.8,11.4l196.9-196.9H787.7z"/>
				<path d="M935.7,118.3v787.3H79V488.4l367.9-370.1H935.7z M896.3,866.3V157.7h-433l-345,347v361.6H896.3z"/>
				<polygon points="866.3,787.6 866.3,826.9 826.9,826.9 				"/>
				<polygon points="856.9,679 856.9,718.3 748.4,826.9 709,826.9 				"/>
				<path d="M856.9,560.9v39.4L813,644.1c5-15.7,8-31.9,9-48.4L856.9,560.9z"/>
				<path d="M856.9,442.8v39.4l-43.1,43.1c-2.9-9.7-6.6-19.2-11-28.4L856.9,442.8z"/>
				<path d="M620.7,421.1c89.7,0,162.3,72.7,162.3,162.3s-72.7,162.3-162.3,162.3c-89.6,0-162.3-72.7-162.3-162.3
					S531.1,421.1,620.7,421.1z M743.7,583.4c0-67.9-55-122.9-123-122.9s-122.9,55-122.9,122.9s55,123,122.9,123
					S743.7,651.3,743.7,583.4z"/>
				<path d="M681.5,775.7l-51.3,51.2h-39.4l42.3-42.3C649.6,783.7,665.8,780.7,681.5,775.7z"/>
				<polygon points="669.6,197.1 157.7,709 157.7,669.6 630.3,197.1 				"/>
				<path d="M562.6,776.5l-50.4,50.4h-39.4l61.4-61.4C543.4,769.9,552.9,773.6,562.6,776.5z"/>
				<polygon points="551.5,197.1 157.7,590.9 157.7,551.5 512.2,197.1 				"/>
				<path d="M486.8,734.2l-92.8,92.8h-39.4l112.6-112.6C473.4,721.4,479.9,728,486.8,734.2z"/>
				<path d="M436.8,666.1L276,826.9h-39.4l189.8-189.8C429.1,647.1,432.6,656.7,436.8,666.1z"/>
				<path d="M157.7,787.7l273.6-273.6c-6,16.4-9.8,33.4-11.4,50.8l-262,262h-0.2V787.7z"/>
			</g>
			<g>
			</g>
		</g>
	</g>
</g>
<g id="_x36_">
</g>
</svg>
