<?xml version="1.0" encoding="utf-8"?>
<!-- Generator: Adobe Illustrator 19.0.0, SVG Export Plug-In . SVG Version: 6.00 Build 0)  -->
<svg version="1.1" xmlns="http://www.w3.org/2000/svg" xmlns:xlink="http://www.w3.org/1999/xlink" x="0px" y="0px"
	 viewBox="0 0 1024 1024" style="enable-background:new 0 0 1024 1024;" xml:space="preserve">
<g id="_x30_">
</g>
<g id="_x33_">
</g>
<g id="_x32_">
	<g id="LINE_99_">
		<g id="XMLID_1_">
			<g>
				<path d="M590.7,433.3v196.8H393.9V433.3H590.7z M551.4,590.7V472.6H433.3v118.1H551.4z"/>
				<polygon points="354.5,472.6 354.5,512 197.1,669.5 197.1,630.1 				"/>
				<polygon points="354.5,590.7 354.5,630.1 197.1,787.6 197.1,748.2 				"/>
				<polygon points="433.3,669.5 275.8,826.9 236.4,826.9 393.9,669.5 				"/>
				<polygon points="551.4,669.5 393.9,826.9 354.5,826.9 512,669.5 				"/>
				<polygon points="826.9,708.8 826.9,748.2 748.2,826.9 708.8,826.9 				"/>
				<polygon points="826.9,590.7 826.9,630.1 630.1,826.9 590.7,826.9 				"/>
				<polygon points="826.9,472.6 826.9,512 512,826.9 472.6,826.9 				"/>
				<polygon points="826.9,354.5 826.9,393.9 630.1,590.7 630.1,551.4 				"/>
				<polygon points="826.9,236.4 826.9,275.8 630.1,472.6 630.1,433.3 				"/>
				<polygon points="787.6,197.1 590.7,393.9 551.4,393.9 748.2,197.1 				"/>
				<polygon points="669.5,197.1 472.6,393.9 433.3,393.9 630.1,197.1 				"/>
				<polygon points="551.4,197.1 197.1,551.4 197.1,512 512,197.1 				"/>
				<path d="M945,866.3v39.4h-39.4V945h-39.4v-39.4H157.7V945h-39.4v-39.4H79v-39.4h39.4V512l-78.7,78.7v-55.7l78.7-78.7V157.7H79
					v-39.4h39.4V79h39.4v39.4h298.6l78.7-78.7h55.7L512,118.3h354.3V79h39.4v39.4H945v39.4h-39.4v708.6H945z M866.3,866.3V157.7
					H472.6L157.7,472.6v393.7H866.3z M157.7,417L417,157.7H157.7V417z"/>
			</g>
			<g>
			</g>
		</g>
	</g>
</g>
<g id="_x36_">
</g>
</svg>
