<?xml version="1.0" encoding="utf-8"?>
<!-- Generator: Adobe Illustrator 19.0.0, SVG Export Plug-In . SVG Version: 6.00 Build 0)  -->
<svg version="1.1" xmlns="http://www.w3.org/2000/svg" xmlns:xlink="http://www.w3.org/1999/xlink" x="0px" y="0px"
	 viewBox="0 0 1024 1024" style="enable-background:new 0 0 1024 1024;" xml:space="preserve">
<g id="_x30_">
</g>
<g id="_x33_">
	<g id="LINE_35_">
		<g id="XMLID_1_">
			<g>
				<polygon points="905.7,770.1 905.7,825.8 824.6,905.7 768.9,905.7 				"/>
				<polygon points="905.7,619.4 905.7,675.1 675.1,905.7 619.4,905.7 				"/>
				<polygon points="905.7,452.4 905.7,508 508,905.7 452.4,905.7 				"/>
				<polygon points="905.7,285.4 905.7,341 341,905.7 285.4,905.7 				"/>
				<polygon points="905.7,118.3 905.7,174 174,905.7 118.3,905.7 				"/>
				<polygon points="794.3,118.3 118.3,794.3 118.3,738.7 738.7,118.3 				"/>
				<polygon points="627.3,118.3 118.3,627.3 118.3,571.6 571.6,118.3 				"/>
				<polygon points="460.3,118.3 118.3,460.3 118.3,404.6 404.6,118.3 				"/>
				<polygon points="293.3,118.3 118.3,293.3 118.3,237.6 237.6,118.3 				"/>
			</g>
			<g>
			</g>
		</g>
	</g>
</g>
<g id="_x36_">
</g>
</svg>
