<?xml version="1.0" encoding="utf-8"?>
<!-- Generator: Adobe Illustrator 19.0.0, SVG Export Plug-In . SVG Version: 6.00 Build 0)  -->
<svg version="1.1" xmlns="http://www.w3.org/2000/svg" xmlns:xlink="http://www.w3.org/1999/xlink" x="0px" y="0px"
	 viewBox="0 0 1024 1024" style="enable-background:new 0 0 1024 1024;" xml:space="preserve">
<style type="text/css">
	.st0{fill:none;stroke:#000000;stroke-width:10;stroke-linecap:round;stroke-linejoin:round;stroke-miterlimit:10;}
</style>
<g id="_x30_">
</g>
<g id="_x33_">
	<g id="LINE_27_">
		<g id="XMLID_1_">
			<g>
				<path d="M838.2,79L275.8,436.9v193.2h-42.9L433.3,945h-46.7L186.2,630.1H79V433.3h129.1L764.8,79H838.2z M236.4,590.7V472.6
					H118.3v118.1H236.4z"/>
				<polygon points="473.8,551.4 640.9,551.4 826.9,551.4 826.9,669.5 393.9,669.5 393.9,631.3 393.9,551.4 				"/>
			</g>
			<g>
				<line class="st0" x1="817.4" y1="541.8" x2="905.7" y2="453.6"/>
				<line class="st0" x1="640.9" y1="551.4" x2="905.7" y2="286.6"/>
				<polyline class="st0" points="473.2,552 473.8,551.4 905.7,119.5 				"/>
				<line class="st0" x1="769.7" y1="923.6" x2="905.7" y2="787.6"/>
				<line class="st0" x1="602.7" y1="923.6" x2="905.7" y2="620.6"/>
				<line class="st0" x1="435.7" y1="923.6" x2="679.6" y2="679.6"/>
				<line class="st0" x1="369.3" y1="823" x2="517.4" y2="674.8"/>
				<polyline class="st0" points="304.3,720.9 393.9,631.3 394.5,630.7 				"/>
				<line class="st0" x1="291.3" y1="566.9" x2="645.6" y2="212.6"/>
			</g>
		</g>
	</g>
</g>
<g id="_x36_">
</g>
</svg>
