<?xml version="1.0" encoding="utf-8"?>
<!-- Generator: Adobe Illustrator 19.0.0, SVG Export Plug-In . SVG Version: 6.00 Build 0)  -->
<svg version="1.1" xmlns="http://www.w3.org/2000/svg" xmlns:xlink="http://www.w3.org/1999/xlink" x="0px" y="0px"
	 viewBox="0 0 1024 1024" style="enable-background:new 0 0 1024 1024;" xml:space="preserve">
<style type="text/css">
	.st0{fill:none;stroke:#000000;stroke-width:10;stroke-linecap:round;stroke-linejoin:round;stroke-miterlimit:10;}
</style>
<g id="_x30_">
</g>
<g id="_x33_">
	<g id="LINE_29_">
		<g id="XMLID_1_">
			<g>
				<polygon points="338.2,76.2 254.7,159.7 303.6,208.6 248,264.3 199.1,215.4 115.5,298.9 115.5,76.2 				"/>
				<polygon points="421.7,326.7 366.1,382.4 287.3,303.6 343,248 				"/>
				<path d="M945,150.4v46.7L630.1,397.5v193.2h-42.9l200.4,314.9h-46.7L540.5,590.7H433.3V393.9h129.1L945,150.4z M590.7,551.4
					V433.3H472.6v118.1H590.7z"/>
			</g>
			<g>
				<line class="st0" x1="659.9" y1="541.8" x2="945" y2="256.8"/>
				<line class="st0" x1="809.1" y1="884.2" x2="945" y2="748.3"/>
				<line class="st0" x1="743.5" y1="782.8" x2="945" y2="581.2"/>
				<line class="st0" x1="679.6" y1="679.6" x2="945" y2="414.2"/>
			</g>
		</g>
	</g>
</g>
<g id="_x36_">
</g>
</svg>
