<?xml version="1.0" encoding="utf-8"?>
<!-- Generator: Adobe Illustrator 19.0.0, SVG Export Plug-In . SVG Version: 6.00 Build 0)  -->
<svg version="1.1" xmlns="http://www.w3.org/2000/svg" xmlns:xlink="http://www.w3.org/1999/xlink" x="0px" y="0px"
	 viewBox="0 0 1024 1024" style="enable-background:new 0 0 1024 1024;" xml:space="preserve">
<style type="text/css">
	.st0{fill:none;stroke:#000000;stroke-width:10;stroke-linecap:round;stroke-linejoin:round;stroke-miterlimit:10;}
</style>
<g id="_x30_">
</g>
<g id="_x33_">
	<g id="LINE_37_">
		<g id="XMLID_1_">
			<g>
				<path d="M838.2,79l-103.1,65.6l0,0L275.8,436.9v167v26.2h-26.2h-16.7l6.5,10.2l65,102.1l65,102.1l64,100.6h-46.7L186.2,630.1H79
					V433.3h129.1L764.8,79H838.2z M236.4,590.7V472.6H118.3v118.1H236.4z"/>
				<polygon points="826.9,551.4 826.9,669.5 669.5,669.5 669.5,826.9 551.4,826.9 551.4,669.5 393.9,669.5 393.9,551.4 
					551.4,551.4 551.4,393.9 669.5,393.9 669.5,551.4 				"/>
			</g>
			<g>
				<line class="st0" x1="847.8" y1="532.9" x2="905.7" y2="475"/>
				<line class="st0" x1="685.6" y1="528.1" x2="905.7" y2="308"/>
				<line class="st0" x1="503.7" y1="543" x2="543" y2="503.7"/>
				<line class="st0" x1="661.1" y1="385.6" x2="905.7" y2="141"/>
				<line class="st0" x1="769.7" y1="945" x2="905.7" y2="809.1"/>
				<line class="st0" x1="602.7" y1="945" x2="905.7" y2="642.1"/>
				<line class="st0" x1="435.7" y1="945" x2="532.9" y2="847.8"/>
				<line class="st0" x1="369.3" y1="844.4" x2="528.1" y2="685.6"/>
				<line class="st0" x1="304.3" y1="742.4" x2="385.6" y2="661.1"/>
				<line class="st0" x1="275.8" y1="603.9" x2="735.1" y2="144.6"/>
				<line class="st0" x1="735.1" y1="144.6" x2="735.1" y2="144.6"/>
			</g>
		</g>
	</g>
</g>
<g id="_x36_">
</g>
</svg>
