<?xml version="1.0" encoding="utf-8"?>
<!-- Generator: Adobe Illustrator 19.0.0, SVG Export Plug-In . SVG Version: 6.00 Build 0)  -->
<svg version="1.1" xmlns="http://www.w3.org/2000/svg" xmlns:xlink="http://www.w3.org/1999/xlink" x="0px" y="0px"
	 viewBox="0 0 1024 1024" style="enable-background:new 0 0 1024 1024;" xml:space="preserve">
<g id="_x30_">
</g>
<g id="_x33_">
	<g id="LINE_85_">
		<g id="XMLID_1_">
			<g>
				<polygon points="866.3,669.5 866.3,708.8 826.9,708.8 				"/>
				<polygon points="708.8,826.9 708.8,866.3 669.5,866.3 				"/>
				<polygon points="866.3,551.4 866.3,590.7 590.7,866.3 551.4,866.3 				"/>
				<polygon points="866.3,433.3 866.3,472.6 472.6,866.3 433.3,866.3 				"/>
				<polygon points="866.3,315.2 866.3,354.5 354.5,866.3 315.2,866.3 				"/>
				<polygon points="787.6,315.2 315.2,787.6 315.2,748.2 748.2,315.2 				"/>
				<polygon points="708.8,236.4 708.8,275.8 275.8,708.8 236.4,708.8 				"/>
				<polygon points="708.8,157.7 630.1,236.4 630.1,197.1 669.5,157.7 				"/>
				<polygon points="354.5,236.4 354.5,275.8 275.8,354.5 236.4,354.5 				"/>
				<polygon points="433.3,315.2 315.2,433.3 315.2,393.9 393.9,315.2 				"/>
				<polygon points="551.4,315.2 315.2,551.4 315.2,512 512,315.2 				"/>
				<polygon points="236.4,630.1 157.7,708.8 157.7,669.5 197.1,630.1 				"/>
				<path d="M275.8,393.9v196.8H79V393.9H275.8z M236.4,551.4V433.3H118.3v118.1H236.4z"/>
				<path d="M275.8,748.2V945H79V748.2H275.8z M236.4,905.7V787.6H118.3v118.1H236.4z"/>
				<path d="M945,748.2V945H748.2V748.2H945z M905.7,905.7V787.6H787.6v118.1H905.7z"/>
				<path d="M945,79v196.8H748.2V79H945z M905.7,236.4V118.3H787.6v118.1H905.7z"/>
				<path d="M590.7,79v196.8H393.9V79H590.7z M551.4,236.4V118.3H433.3v118.1H551.4z"/>
			</g>
			<g>
			</g>
		</g>
	</g>
</g>
<g id="_x36_">
</g>
</svg>
