<?xml version="1.0" encoding="utf-8"?>
<!-- Generator: Adobe Illustrator 19.0.0, SVG Export Plug-In . SVG Version: 6.00 Build 0)  -->
<svg version="1.1" xmlns="http://www.w3.org/2000/svg" xmlns:xlink="http://www.w3.org/1999/xlink" x="0px" y="0px"
	 viewBox="0 0 1024 1024" style="enable-background:new 0 0 1024 1024;" xml:space="preserve">
<g id="_x30_">
</g>
<g id="_x33_">
	<g id="LINE_71_">
		<g id="XMLID_1_">
			<g>
				<polygon points="866.3,787.6 866.3,826.9 826.9,866.3 787.6,866.3 				"/>
				<polygon points="866.3,669.5 866.3,708.8 708.8,866.3 669.5,866.3 				"/>
				<polygon points="866.3,551.4 866.3,590.7 590.7,866.3 551.4,866.3 				"/>
				<polygon points="472.6,157.7 157.7,472.6 157.7,433.3 433.3,157.7 				"/>
				<polygon points="236.4,157.7 157.7,236.4 157.7,197.1 197.1,157.7 				"/>
				<polygon points="354.5,157.7 157.7,354.5 157.7,315.2 315.2,157.7 				"/>
				<path d="M866.3,433.3v39.4l-96.5,96.5c-22.2,100.2-100.5,178.5-200.7,200.7l-96.5,96.5h-39.4l90.5-90.5
					c-24.2,1.1-48.4-1.2-72-6.7l-97.2,97.2h-39.4L421.4,760c-18.4-6.7-36.1-15.5-52.6-26.1L236.4,866.3h-39.4L346,717.4
					c-14.5-11.7-27.7-24.9-39.4-39.4L157.7,826.9v-39.4l132.4-132.4c-10.6-16.5-19.4-34.1-26.1-52.6L157.7,708.8v-39.4l97.2-97.2
					c-5.5-23.6-7.8-47.8-6.7-72l-90.5,90.5v-39.4l96.5-96.5c22.2-100.2,100.5-178.5,200.7-200.7l96.5-96.5h39.4l-90.5,90.5
					c24.2-1.1,48.4,1.2,72,6.7l97.2-97.2h39.4L602.6,264c18.4,6.7,36.1,15.5,52.6,26.1l132.4-132.4h39.4L678,306.6
					c14.5,11.7,27.7,24.9,39.4,39.4l148.9-148.9v39.4L733.9,368.8c10.6,16.5,19.4,34.1,26.1,52.6l106.3-106.2v39.4l-97.2,97.2
					c4.6,19.8,7,40,7,60.3c0,3.9-0.1,7.8-0.3,11.8L866.3,433.3z M761,512c0-16-1.5-31.9-4.6-47.6l-292,292c25,4.9,50.5,5.9,75.8,3
					l219.2-219.2C760.4,530.8,761,521.4,761,512z M433.3,748.2l314.9-314.9c-6.3-18.8-14.7-36.7-25.2-53.5L379.8,723
					C396.5,733.5,414.5,741.9,433.3,748.2z M748.2,590.7L590.7,748.2C665.1,723.4,723.4,665.1,748.2,590.7z M356.7,706.6
					l349.9-349.9c-11.6-14.6-24.8-27.8-39.4-39.4L317.4,667.3C329,681.8,342.2,695,356.7,706.6z M301,644.2L644.2,301
					c-16.8-10.5-34.7-19-53.5-25.2L275.8,590.7C282.1,609.5,290.5,627.5,301,644.2z M267.6,559.6l292-292c-25-4.9-50.5-5.9-75.8-3
					L264.6,483.8C261.8,509.1,262.8,534.6,267.6,559.6z M275.8,433.3l157.5-157.5C358.9,300.6,300.6,358.9,275.8,433.3z"/>
			</g>
			<g>
			</g>
		</g>
	</g>
</g>
<g id="_x36_">
</g>
</svg>
