<?xml version="1.0" encoding="utf-8"?>
<!-- Generator: Adobe Illustrator 19.0.0, SVG Export Plug-In . SVG Version: 6.00 Build 0)  -->
<svg version="1.1" xmlns="http://www.w3.org/2000/svg" xmlns:xlink="http://www.w3.org/1999/xlink" x="0px" y="0px"
	 viewBox="0 0 512 512" style="enable-background:new 0 0 512 512;" xml:space="preserve">
<g id="Veg-Existing">
</g>
<g id="House">
</g>
<g id="Concrete">
	<g id="LINE_69_">
		<g id="XMLID_1_">
			<g>
				<path d="M452.8,59.2v393.7H59.2V228.2l169-169H452.8z M433.1,433.1V78.8H236.3L78.8,236.3v196.8H433.1z"/>
				<polygon points="334.7,98.5 236.3,196.9 216.6,196.9 315,98.5 				"/>
				<polygon points="275.7,98.5 98.5,275.7 98.5,256 256,98.5 				"/>
				<polygon points="177.3,236.3 177.3,256 98.5,334.7 98.5,315 				"/>
				<polygon points="177.3,295.4 177.3,315 98.5,393.8 98.5,374.1 				"/>
				<polygon points="216.6,334.7 137.9,413.5 118.2,413.5 196.9,334.7 				"/>
				<polygon points="275.7,334.7 196.9,413.5 177.3,413.5 256,334.7 				"/>
				<polygon points="413.5,354.4 413.5,374.1 374.1,413.5 354.4,413.5 				"/>
				<polygon points="413.5,295.4 413.5,315 315,413.5 295.4,413.5 				"/>
				<polygon points="413.5,236.3 413.5,256 256,413.5 236.3,413.5 				"/>
				<polygon points="413.5,177.3 413.5,196.9 315,295.4 315,275.7 				"/>
				<polygon points="413.5,118.2 413.5,137.9 315,236.3 315,216.6 				"/>
				<polygon points="393.8,98.5 295.4,196.9 275.7,196.9 374.1,98.5 				"/>
				<path d="M295.4,216.6V315h-98.4v-98.4H295.4z M275.7,295.4v-59h-59v59H275.7z"/>
			</g>
			<g>
			</g>
		</g>
	</g>
</g>
</svg>
