<?xml version="1.0" encoding="utf-8"?>
<!-- Generator: Adobe Illustrator 19.0.0, SVG Export Plug-In . SVG Version: 6.00 Build 0)  -->
<svg version="1.1" xmlns="http://www.w3.org/2000/svg" xmlns:xlink="http://www.w3.org/1999/xlink" x="0px" y="0px"
	 viewBox="0 0 512 512" style="enable-background:new 0 0 512 512;" xml:space="preserve">
<style type="text/css">
	.st0{fill:none;stroke:#FFFFFF;stroke-width:0.1417;stroke-linecap:round;stroke-linejoin:round;stroke-miterlimit:10;}
</style>
<g id="Veg-Existing">
</g>
<g id="Concrete">
</g>
<g id="House">
	<g id="LINE_78_">
		<g id="XMLID_1_">
			<g>
				<polygon points="275.7,98.5 216.6,157.6 216.6,137.9 256,98.5 				"/>
				<polygon points="408.8,359.2 408.8,378.9 374.2,413.5 354.5,413.5 				"/>
				<polygon points="413.5,315 315,413.5 315,393.8 393.8,315 				"/>
				<polygon points="374.1,275.7 374.1,295.4 295.4,374.1 275.7,374.1 				"/>
				<path d="M492.2,196.9v98.4h-39.4v157.5H295.4v39.4h-98.4v-39.4H78.8v39.4H59.2v-39.4H19.8v-19.7h39.4v-19.7H19.8V315h39.4v-59
					l-39.4,39.4v-27.8l39.4-39.4v-50.9h19.7v31.2l19.7-19.7V98.5h90.3l19.7-19.7h-31.2V59.2h50.9l39.4-39.4h27.8L256,59.2h59V19.8
					h98.4v39.4h19.7V19.8h19.7v39.4h39.4v19.7h-39.4v118.1H492.2z M472.5,275.7v-59h-59v59H472.5z M433.1,433.1V295.4h-39.4v-98.4
					h39.4V78.8h-19.7v39.4H315V78.8h-78.7l-39.4,39.4v78.7h-78.7l-39.4,39.4V315h39.4v98.4H78.8v19.7h118.1v-39.4h98.4v39.4H433.1z
					 M393.8,98.5v-59h-59v59H393.8z M275.7,472.5v-59h-59v59H275.7z M177.3,177.3v-59.1h-59.1v59.1H177.3z M98.5,393.8v-59h-59v59
					H98.5z"/>
				<polygon points="413.5,137.9 137.9,413.5 137.9,393.8 393.8,137.9 				"/>
				<polygon points="374.1,216.6 374.1,236.3 236.3,374.1 216.6,374.1 				"/>
				<polygon points="354.4,137.9 137.9,354.4 137.9,334.7 334.7,137.9 				"/>
				<polygon points="295.4,118.2 295.4,137.9 137.9,295.4 118.2,295.4 				"/>
				<polygon points="157.6,216.6 98.5,275.7 98.5,256 137.9,216.6 				"/>
			</g>
			<g>
				<line class="st0" x1="177.3" y1="78.8" x2="208.5" y2="78.8"/>
				<line class="st0" x1="78.8" y1="177.3" x2="78.8" y2="208.5"/>
				<line class="st0" x1="78.8" y1="236.3" x2="78.8" y2="315"/>
				<line class="st0" x1="78.8" y1="236.3" x2="118.2" y2="196.9"/>
				<line class="st0" x1="236.3" y1="78.8" x2="315" y2="78.8"/>
				<line class="st0" x1="334.7" y1="137.9" x2="354.4" y2="137.9"/>
				<line class="st0" x1="393.8" y1="137.9" x2="137.9" y2="393.8"/>
				<line class="st0" x1="137.9" y1="334.7" x2="334.7" y2="137.9"/>
				<line class="st0" x1="354.4" y1="137.9" x2="137.9" y2="354.4"/>
				<line class="st0" x1="137.9" y1="334.7" x2="137.9" y2="354.4"/>
				<line class="st0" x1="295.4" y1="137.9" x2="137.9" y2="295.4"/>
				<line class="st0" x1="118.2" y1="295.4" x2="295.4" y2="118.2"/>
				<line class="st0" x1="118.2" y1="295.4" x2="137.9" y2="295.4"/>
				<line class="st0" x1="256" y1="98.5" x2="216.6" y2="137.9"/>
				<line class="st0" x1="275.7" y1="98.5" x2="256" y2="98.5"/>
				<line class="st0" x1="98.5" y1="275.7" x2="157.6" y2="216.6"/>
				<line class="st0" x1="98.5" y1="256" x2="98.5" y2="275.7"/>
				<line class="st0" x1="374.1" y1="216.6" x2="216.6" y2="374.1"/>
				<line class="st0" x1="236.3" y1="374.1" x2="374.1" y2="236.3"/>
				<line class="st0" x1="216.6" y1="374.1" x2="236.3" y2="374.1"/>
				<line class="st0" x1="374.1" y1="236.3" x2="374.1" y2="216.6"/>
				<line class="st0" x1="374.1" y1="295.4" x2="295.4" y2="374.1"/>
				<line class="st0" x1="374.1" y1="275.7" x2="374.1" y2="295.4"/>
				<line class="st0" x1="275.7" y1="374.1" x2="374.1" y2="275.7"/>
				<line class="st0" x1="295.4" y1="374.1" x2="275.7" y2="374.1"/>
				<line class="st0" x1="256" y1="59.2" x2="315" y2="59.2"/>
				<line class="st0" x1="256" y1="59.2" x2="295.4" y2="19.8"/>
				<line class="st0" x1="295.4" y1="19.8" x2="267.5" y2="19.8"/>
				<line class="st0" x1="59.2" y1="177.3" x2="59.2" y2="228.2"/>
				<line class="st0" x1="19.8" y1="267.5" x2="19.8" y2="295.4"/>
				<line class="st0" x1="19.8" y1="295.4" x2="59.2" y2="256"/>
				<line class="st0" x1="59.2" y1="256" x2="59.2" y2="315"/>
				<line class="st0" x1="177.3" y1="59.2" x2="177.3" y2="78.8"/>
				<line class="st0" x1="59.2" y1="177.3" x2="78.8" y2="177.3"/>
				<line class="st0" x1="177.3" y1="59.2" x2="228.2" y2="59.2"/>
				<line class="st0" x1="413.5" y1="118.2" x2="413.5" y2="78.8"/>
				<line class="st0" x1="315" y1="118.2" x2="413.5" y2="118.2"/>
				<line class="st0" x1="413.5" y1="19.8" x2="315" y2="19.8"/>
				<line class="st0" x1="315" y1="19.8" x2="315" y2="59.2"/>
				<line class="st0" x1="393.8" y1="39.5" x2="334.7" y2="39.5"/>
				<line class="st0" x1="393.8" y1="98.5" x2="393.8" y2="39.5"/>
				<line class="st0" x1="334.7" y1="98.5" x2="393.8" y2="98.5"/>
				<line class="st0" x1="196.9" y1="196.9" x2="196.9" y2="118.2"/>
				<line class="st0" x1="118.2" y1="196.9" x2="196.9" y2="196.9"/>
				<line class="st0" x1="188.8" y1="98.5" x2="98.5" y2="98.5"/>
				<line class="st0" x1="98.5" y1="98.5" x2="98.5" y2="188.8"/>
				<line class="st0" x1="118.2" y1="118.2" x2="118.2" y2="177.3"/>
				<line class="st0" x1="177.3" y1="118.2" x2="118.2" y2="118.2"/>
				<line class="st0" x1="177.3" y1="177.3" x2="177.3" y2="118.2"/>
				<line class="st0" x1="118.2" y1="177.3" x2="177.3" y2="177.3"/>
				<line class="st0" x1="118.2" y1="413.5" x2="118.2" y2="315"/>
				<line class="st0" x1="19.8" y1="413.5" x2="59.2" y2="413.5"/>
				<line class="st0" x1="118.2" y1="315" x2="78.8" y2="315"/>
				<line class="st0" x1="19.8" y1="315" x2="19.8" y2="413.5"/>
				<line class="st0" x1="39.5" y1="334.7" x2="39.5" y2="393.8"/>
				<line class="st0" x1="98.5" y1="334.7" x2="39.5" y2="334.7"/>
				<line class="st0" x1="98.5" y1="393.8" x2="98.5" y2="334.7"/>
				<line class="st0" x1="39.5" y1="393.8" x2="98.5" y2="393.8"/>
				<line class="st0" x1="216.6" y1="137.9" x2="216.6" y2="157.6"/>
				<line class="st0" x1="157.6" y1="216.6" x2="137.9" y2="216.6"/>
				<line class="st0" x1="295.4" y1="118.2" x2="295.4" y2="137.9"/>
				<line class="st0" x1="216.6" y1="157.6" x2="275.7" y2="98.5"/>
				<line class="st0" x1="137.9" y1="216.6" x2="98.5" y2="256"/>
				<line class="st0" x1="413.5" y1="59.2" x2="433.1" y2="59.2"/>
				<line class="st0" x1="413.5" y1="78.8" x2="433.1" y2="78.8"/>
				<line class="st0" x1="334.7" y1="39.5" x2="334.7" y2="98.5"/>
				<line class="st0" x1="413.5" y1="59.2" x2="413.5" y2="19.8"/>
				<line class="st0" x1="315" y1="78.8" x2="315" y2="118.2"/>
				<line class="st0" x1="196.9" y1="118.2" x2="236.3" y2="78.8"/>
				<line class="st0" x1="78.8" y1="413.5" x2="118.2" y2="413.5"/>
				<line class="st0" x1="59.2" y1="315" x2="19.8" y2="315"/>
				<line class="st0" x1="78.8" y1="413.5" x2="78.8" y2="433.1"/>
				<line class="st0" x1="59.2" y1="413.5" x2="59.2" y2="433.1"/>
				<line class="st0" x1="374.2" y1="413.5" x2="354.5" y2="413.5"/>
				<line class="st0" x1="408.8" y1="378.9" x2="374.2" y2="413.5"/>
				<line class="st0" x1="354.5" y1="413.5" x2="408.8" y2="359.2"/>
				<line class="st0" x1="408.8" y1="359.2" x2="408.8" y2="378.9"/>
				<line class="st0" x1="78.8" y1="452.8" x2="78.8" y2="492.2"/>
				<line class="st0" x1="78.8" y1="492.2" x2="59.2" y2="492.2"/>
				<line class="st0" x1="59.2" y1="452.8" x2="59.2" y2="492.2"/>
				<line class="st0" x1="19.8" y1="452.8" x2="59.2" y2="452.8"/>
				<line class="st0" x1="19.8" y1="452.8" x2="19.8" y2="433.1"/>
				<line class="st0" x1="19.8" y1="433.1" x2="59.2" y2="433.1"/>
				<line class="st0" x1="452.8" y1="59.2" x2="492.2" y2="59.2"/>
				<line class="st0" x1="492.2" y1="59.2" x2="492.2" y2="78.8"/>
				<line class="st0" x1="452.8" y1="78.8" x2="492.2" y2="78.8"/>
				<line class="st0" x1="472.5" y1="216.6" x2="413.5" y2="216.6"/>
				<line class="st0" x1="472.5" y1="275.7" x2="472.5" y2="216.6"/>
				<line class="st0" x1="413.5" y1="275.7" x2="472.5" y2="275.7"/>
				<line class="st0" x1="413.5" y1="216.6" x2="413.5" y2="275.7"/>
				<line class="st0" x1="433.1" y1="78.8" x2="433.1" y2="196.9"/>
				<line class="st0" x1="433.1" y1="196.9" x2="393.8" y2="196.9"/>
				<line class="st0" x1="393.8" y1="196.9" x2="393.8" y2="295.4"/>
				<line class="st0" x1="393.8" y1="295.4" x2="433.1" y2="295.4"/>
				<line class="st0" x1="433.1" y1="295.4" x2="433.1" y2="433.1"/>
				<line class="st0" x1="452.8" y1="78.8" x2="452.8" y2="196.9"/>
				<line class="st0" x1="492.2" y1="196.9" x2="452.8" y2="196.9"/>
				<line class="st0" x1="492.2" y1="295.4" x2="492.2" y2="196.9"/>
				<line class="st0" x1="452.8" y1="295.4" x2="492.2" y2="295.4"/>
				<line class="st0" x1="452.8" y1="295.4" x2="452.8" y2="452.8"/>
				<line class="st0" x1="275.7" y1="413.5" x2="216.6" y2="413.5"/>
				<line class="st0" x1="275.7" y1="472.5" x2="275.7" y2="413.5"/>
				<line class="st0" x1="216.6" y1="472.5" x2="275.7" y2="472.5"/>
				<line class="st0" x1="216.6" y1="413.5" x2="216.6" y2="472.5"/>
				<line class="st0" x1="295.4" y1="433.1" x2="433.1" y2="433.1"/>
				<line class="st0" x1="295.4" y1="433.1" x2="295.4" y2="393.8"/>
				<line class="st0" x1="295.4" y1="393.8" x2="196.9" y2="393.8"/>
				<line class="st0" x1="196.9" y1="393.8" x2="196.9" y2="433.1"/>
				<line class="st0" x1="78.8" y1="433.1" x2="196.9" y2="433.1"/>
				<line class="st0" x1="295.4" y1="452.8" x2="452.8" y2="452.8"/>
				<line class="st0" x1="295.4" y1="492.2" x2="295.4" y2="452.8"/>
				<line class="st0" x1="196.9" y1="492.2" x2="295.4" y2="492.2"/>
				<line class="st0" x1="196.9" y1="452.8" x2="196.9" y2="492.2"/>
				<line class="st0" x1="78.8" y1="452.8" x2="196.9" y2="452.8"/>
				<line class="st0" x1="315" y1="393.8" x2="393.8" y2="315"/>
				<line class="st0" x1="315" y1="413.5" x2="315" y2="393.8"/>
				<line class="st0" x1="393.8" y1="315" x2="413.5" y2="315"/>
				<line class="st0" x1="413.5" y1="315" x2="315" y2="413.5"/>
				<line class="st0" x1="137.9" y1="393.8" x2="137.9" y2="413.5"/>
				<line class="st0" x1="137.9" y1="413.5" x2="413.5" y2="137.9"/>
				<line class="st0" x1="393.8" y1="137.9" x2="413.5" y2="137.9"/>
				<line class="st0" x1="433.1" y1="19.8" x2="433.1" y2="59.2"/>
				<line class="st0" x1="433.1" y1="19.8" x2="452.8" y2="19.8"/>
				<line class="st0" x1="452.8" y1="19.8" x2="452.8" y2="59.2"/>
				<line class="st0" x1="78.8" y1="208.5" x2="98.5" y2="188.8"/>
				<line class="st0" x1="228.2" y1="59.2" x2="267.5" y2="19.8"/>
				<line class="st0" x1="19.8" y1="267.5" x2="59.2" y2="228.2"/>
				<line class="st0" x1="188.8" y1="98.5" x2="208.5" y2="78.8"/>
			</g>
		</g>
	</g>
</g>
</svg>
