<?xml version="1.0" encoding="utf-8"?>
<!-- Generator: Adobe Illustrator 19.0.0, SVG Export Plug-In . SVG Version: 6.00 Build 0)  -->
<svg version="1.1" xmlns="http://www.w3.org/2000/svg" xmlns:xlink="http://www.w3.org/1999/xlink" x="0px" y="0px"
	 viewBox="0 0 1024 1024" style="enable-background:new 0 0 1024 1024;" xml:space="preserve">
<style type="text/css">
	.st0{fill:#FFFFFF;}
</style>
<g id="_x30_">
</g>
<g id="_x33_">
	<g id="LINE_12_">
		<g id="XMLID_1_">
			<g>
				<path class="st0" d="M493.9,262.8c14.1-4,27.8-8.1,41.1-12.3c26.3-8.3,51-17.2,74.3-26.5c21.3-8.6,41.3-17.5,60.1-26.9
					c105-52.5,164-78.7,177.2-78.7c13.1,0,26.2,13.1,39.4,39.4c13.1,26.3,19.7,45.9,19.7,59.1s-13.1,32.8-39.4,59
					c-26.3,26.3-59,52.5-98.4,78.7c-39.4,26.3-45.9,39.4-19.7,39.4c26.2,0,59,0,98.4,0c39.4,0,65.6,6.6,78.7,19.7
					c13.1,13.1,13.1,39.4,0,78.7c-13.1,39.4-26.3,59-39.4,59s-52.5-6.6-118.1-19.7c-11.3-2.3-23.5-3.1-36.8-2.7
					c-25.5,0.9-54.7,6.9-87.5,17.9c-5.3,2-10.6,4-15.9,6.1c-51.2,20.1-102.9,45.8-155.1,77.2c-13.9,8.3-27.1,16.2-39.8,23.6
					c-40.4,23.7-74.8,42.9-103.3,57.6c-47.4,24.6-78.4,36.8-93.1,36.8c-6.3,0-13.1-1.2-20.2-3.5c-22.3-7.2-48.4-25.8-78.2-55.6
					c-39.4-39.4-19.7-78.7,59.1-118.1c78.7-39.4,105-59,78.7-59c-26.2,0-52.5,0-78.7,0c-26.3,0-45.9-6.6-59.1-19.7
					c-13.1-13.1-19.7-45.9-19.7-98.4s39.4-78.7,118.1-78.7c58.2-8.3,112.5-18,162.8-28.9C432.5,279,464,271.2,493.9,262.8
					L493.9,262.8z"/>
				<path d="M216.2,744.7c7.1,2.3,13.9,3.5,20.2,3.5c14.7,0,45.7-12.3,93.1-36.8l-71,194.3H152L216.2,744.7z"/>
				<path d="M731.1,529l150.4,376.7H775l-92.3-252H432.8c12.7-7.4,26-15.3,39.8-23.6c52.2-31.3,103.9-57,155.1-77.2h18.1l-2.2-6.1
					C676.4,535.8,705.6,529.9,731.1,529z"/>
				<path d="M516.7,200.4c-7.1,19.6-14.7,40.4-22.8,62.4v0c-29.8,8.4-61.4,16.2-94.6,23.5l74.6-186.8h85.8L609.3,224
					c-23.3,9.3-48,18.2-74.3,26.5L516.7,200.4z"/>
			</g>
			<g>
			</g>
		</g>
	</g>
</g>
<g id="_x36_">
</g>
</svg>
