<?xml version="1.0" encoding="utf-8"?>
<!-- Generator: Adobe Illustrator 19.0.0, SVG Export Plug-In . SVG Version: 6.00 Build 0)  -->
<svg version="1.1" xmlns="http://www.w3.org/2000/svg" xmlns:xlink="http://www.w3.org/1999/xlink" x="0px" y="0px"
	 viewBox="0 0 1024 1024" style="enable-background:new 0 0 1024 1024;" xml:space="preserve">
<g id="_x30_">
</g>
<g id="_x33_">
	<g id="LINE_47_">
		<g id="XMLID_1_">
			<g>
				<polygon points="315.2,787.6 315.2,826.9 236.4,826.9 236.4,905.7 197.1,905.7 197.1,826.9 118.3,826.9 118.3,787.6 
					197.1,787.6 197.1,708.8 236.4,708.8 236.4,787.6 				"/>
				<polygon points="512,590.7 512,630.1 433.3,630.1 433.3,708.8 393.9,708.8 393.9,630.1 315.2,630.1 315.2,590.7 393.9,590.7 
					393.9,512 433.3,512 433.3,590.7 				"/>
				<polygon points="708.8,393.9 708.8,433.3 630.1,433.3 630.1,512 590.7,512 590.7,433.3 512,433.3 512,393.9 590.7,393.9 
					590.7,315.2 630.1,315.2 630.1,393.9 				"/>
				<polygon points="905.7,197.1 905.7,236.4 826.9,236.4 826.9,315.2 787.6,315.2 787.6,236.4 708.8,236.4 708.8,197.1 
					787.6,197.1 787.6,118.3 826.9,118.3 826.9,197.1 				"/>
			</g>
			<g>
			</g>
		</g>
	</g>
</g>
<g id="_x36_">
</g>
</svg>
