<?xml version="1.0" encoding="utf-8"?>
<!-- Generator: Adobe Illustrator 19.0.0, SVG Export Plug-In . SVG Version: 6.00 Build 0)  -->
<svg version="1.1" xmlns="http://www.w3.org/2000/svg" xmlns:xlink="http://www.w3.org/1999/xlink" x="0px" y="0px"
	 viewBox="0 0 1024 1024" style="enable-background:new 0 0 1024 1024;" xml:space="preserve">
<g id="_x30_">
</g>
<g id="_x33_">
	<g id="LINE_59_">
		<g id="XMLID_1_">
			<g>
				<polygon points="905.7,197.1 905.7,236.4 826.9,236.4 826.9,315.2 787.6,315.2 787.6,236.4 708.8,236.4 708.8,197.1 
					787.6,197.1 787.6,118.3 826.9,118.3 826.9,197.1 				"/>
				<polygon points="905.7,787.6 905.7,826.9 826.9,826.9 826.9,905.7 787.6,905.7 787.6,826.9 708.8,826.9 708.8,787.6 
					787.6,787.6 787.6,708.8 826.9,708.8 826.9,787.6 				"/>
				<polygon points="393.9,787.6 393.9,826.9 315.2,826.9 315.2,905.7 275.8,905.7 275.8,826.9 197.1,826.9 197.1,787.6 
					275.8,787.6 275.8,708.8 315.2,708.8 315.2,787.6 				"/>
				<polygon points="551.4,512 551.4,551.4 472.6,551.4 472.6,630.1 433.3,630.1 433.3,551.4 354.5,551.4 354.5,512 433.3,512 
					433.3,433.3 472.6,433.3 472.6,512 				"/>
				<polygon points="275.8,275.8 275.8,315.2 197.1,315.2 197.1,393.9 157.7,393.9 157.7,315.2 79,315.2 79,275.8 157.7,275.8 
					157.7,197.1 197.1,197.1 197.1,275.8 				"/>
			</g>
			<g>
			</g>
		</g>
	</g>
</g>
<g id="_x36_">
</g>
</svg>
