<?xml version="1.0" encoding="utf-8"?>
<!-- Generator: Adobe Illustrator 15.1.0, SVG Export Plug-In . SVG Version: 6.00 Build 0)  -->
<!DOCTYPE svg PUBLIC "-//W3C//DTD SVG 1.1//EN" "http://www.w3.org/Graphics/SVG/1.1/DTD/svg11.dtd">
<svg version="1.1" id="Layer_1" xmlns="http://www.w3.org/2000/svg" xmlns:xlink="http://www.w3.org/1999/xlink" x="0px" y="0px"
	 width="128px" height="128px" viewBox="0 0 128 128" enable-background="new 0 0 128 128" xml:space="preserve">
<g id="LINE_13_">
	<g id="XMLID_1_">
		<g>
			<rect x="67.62" y="107.37" fill="#FFFFFF" width="33.189" height="11.07"/>
			<polygon fill="#FFFFFF" points="100.81,7.81 100.81,101.84 62.09,101.84 62.09,118.44 23.37,118.44 23.37,7.81 			"/>
			<path d="M106.35,2.27v121.7H17.84V2.27H106.35z M100.81,118.44v-11.07H67.62v11.07H100.81z M100.81,101.84V7.81H23.37v110.63
				h38.72V101.84H100.81z"/>
		</g>
		<g>
			
				<line fill="none" stroke="#808080" stroke-width="0.3685" stroke-linecap="round" stroke-linejoin="round" stroke-miterlimit="10" x1="62.09" y1="101.84" x2="100.81" y2="101.84"/>
			
				<line fill="none" stroke="#808080" stroke-width="0.3685" stroke-linecap="round" stroke-linejoin="round" stroke-miterlimit="10" x1="62.09" y1="118.44" x2="62.09" y2="101.84"/>
			
				<line fill="none" stroke="#808080" stroke-width="0.3685" stroke-linecap="round" stroke-linejoin="round" stroke-miterlimit="10" x1="23.37" y1="118.44" x2="62.09" y2="118.44"/>
			
				<line fill="none" stroke="#808080" stroke-width="0.3685" stroke-linecap="round" stroke-linejoin="round" stroke-miterlimit="10" x1="67.62" y1="118.44" x2="100.81" y2="118.44"/>
			
				<line fill="none" stroke="#808080" stroke-width="0.3685" stroke-linecap="round" stroke-linejoin="round" stroke-miterlimit="10" x1="100.81" y1="107.37" x2="67.62" y2="107.37"/>
			
				<line fill="none" stroke="#808080" stroke-width="0.3685" stroke-linecap="round" stroke-linejoin="round" stroke-miterlimit="10" x1="67.62" y1="107.37" x2="67.62" y2="118.44"/>
			
				<line fill="none" stroke="#808080" stroke-width="0.3685" stroke-linecap="round" stroke-linejoin="round" stroke-miterlimit="10" x1="106.35" y1="123.97" x2="106.35" y2="2.27"/>
			
				<line fill="none" stroke="#808080" stroke-width="0.3685" stroke-linecap="round" stroke-linejoin="round" stroke-miterlimit="10" x1="17.84" y1="123.97" x2="17.84" y2="2.27"/>
			
				<line fill="none" stroke="#808080" stroke-width="0.3685" stroke-linecap="round" stroke-linejoin="round" stroke-miterlimit="10" x1="17.84" y1="123.97" x2="106.35" y2="123.97"/>
			
				<line fill="none" stroke="#808080" stroke-width="0.3685" stroke-linecap="round" stroke-linejoin="round" stroke-miterlimit="10" x1="100.81" y1="118.44" x2="100.81" y2="107.37"/>
			
				<line fill="none" stroke="#808080" stroke-width="0.3685" stroke-linecap="round" stroke-linejoin="round" stroke-miterlimit="10" x1="23.37" y1="118.44" x2="23.37" y2="7.81"/>
			
				<line fill="none" stroke="#808080" stroke-width="0.3685" stroke-linecap="round" stroke-linejoin="round" stroke-miterlimit="10" x1="100.81" y1="101.84" x2="100.81" y2="7.81"/>
			
				<line fill="none" stroke="#808080" stroke-width="0.3685" stroke-linecap="round" stroke-linejoin="round" stroke-miterlimit="10" x1="17.84" y1="2.27" x2="106.35" y2="2.27"/>
			
				<line fill="none" stroke="#808080" stroke-width="0.3685" stroke-linecap="round" stroke-linejoin="round" stroke-miterlimit="10" x1="23.37" y1="7.81" x2="100.81" y2="7.81"/>
		</g>
	</g>
</g>
</svg>
