<?xml version="1.0" encoding="utf-8"?>
<!-- Generator: Adobe Illustrator 19.0.0, SVG Export Plug-In . SVG Version: 6.00 Build 0)  -->
<svg version="1.1" xmlns="http://www.w3.org/2000/svg" xmlns:xlink="http://www.w3.org/1999/xlink" x="0px" y="0px"
	 viewBox="0 0 1024 1024" style="enable-background:new 0 0 1024 1024;" xml:space="preserve">
<style type="text/css">
	.st0{fill:#FFFFFF;}
</style>
<g id="_x30_">
</g>
<g id="_x33_">
	<g id="LINE_29_">
		<g id="XMLID_1_">
			<g>
				<path class="st0" d="M725.2,298.8c117.8,117.8,117.8,308.7,0,426.4L704.6,744c-119.8,99.5-295.7,91.4-405.8-18.8
					c-117.7-117.8-117.7-308.7,0-426.4S607.5,181.1,725.2,298.8z M656.3,551.4v-78.7h-105v-105h-78.7v105h-105v78.7h105v105h78.7
					v-105H656.3z"/>
				<path d="M945,866.3L866.3,945L748.2,826.9v-39.4l-15.7-15.7c-127.2,108-313.9,108-441.1,0C147.9,650.1,130.3,435,252.1,291.5
					S589,130.3,732.5,252.1S893.7,589,771.9,732.5l15.7,15.7h39.4L945,866.3z M725.2,725.2c117.8-117.8,117.8-308.7,0-426.4
					s-308.7-117.7-426.4,0s-117.7,308.7,0,426.4c110.1,110.1,286,118.3,405.8,18.8L725.2,725.2z"/>
				<polygon points="656.3,472.6 656.3,551.4 551.4,551.4 551.4,656.3 472.6,656.3 472.6,551.4 367.7,551.4 367.7,472.6 
					472.6,472.6 472.6,367.7 551.4,367.7 551.4,472.6 				"/>
				<polygon points="945,79 945,787.6 905.7,787.6 905.7,118.3 118.3,118.3 118.3,905.7 787.6,905.7 787.6,945 79,945 79,79 				"/>
			</g>
			<g>
			</g>
		</g>
	</g>
</g>
<g id="_x36_">
</g>
</svg>
