<?xml version="1.0" encoding="utf-8"?>
<!-- Generator: Adobe Illustrator 19.0.0, SVG Export Plug-In . SVG Version: 6.00 Build 0)  -->
<svg version="1.1" xmlns="http://www.w3.org/2000/svg" xmlns:xlink="http://www.w3.org/1999/xlink" x="0px" y="0px"
	 viewBox="0 0 1024 1024" style="enable-background:new 0 0 1024 1024;" xml:space="preserve">
<style type="text/css">
	.st0{fill:#FFFFFF;}
	.st1{fill:#FF0000;}
	.st2{fill:#3300FF;}
	.st3{fill:#006600;}
	.st4{fill:none;stroke:#000000;stroke-width:5;stroke-linecap:round;stroke-linejoin:round;stroke-miterlimit:10;}
</style>
<g id="_x30_">
</g>
<g id="_x33_">
	<g id="LINE_36_">
		<g id="XMLID_1_">
			<g>
				<rect x="590.7" y="787.6" class="st0" width="314.9" height="78.7"/>
				<rect x="630.1" y="512" class="st0" width="118.1" height="78.7"/>
				<path class="st0" d="M905.7,197.1v551.1H551.4v118.1h-433V197.1H905.7z M866.3,472.6V315.2H417.5l196.8,157.5h-63L354.5,315.2
					L157.7,472.6h39.4v196.8h118.1V512h78.7v157.5H512V472.6h39.4v196.8h275.6V472.6H866.3z"/>
				<polygon class="st1" points="551.4,472.6 512,472.6 512,669.5 393.9,669.5 393.9,512 315.2,512 315.2,669.5 197.1,669.5 
					197.1,472.6 157.7,472.6 354.5,315.2 				"/>
				<path class="st2" d="M945,157.7v748H79v-748H945z M905.7,866.3v-78.7H590.7v78.7H905.7z M905.7,748.2V197.1H118.3v669.2h433
					V748.2H905.7z"/>
				<path class="st3" d="M866.3,315.2v157.5h-39.4v196.8H551.4V472.6h63L417.5,315.2H866.3z M748.2,590.7V512H630.1v78.7H748.2z"/>
			</g>
			<g>
				<line class="st4" x1="630.1" y1="590.7" x2="630.1" y2="512"/>
				<line class="st4" x1="748.2" y1="590.7" x2="630.1" y2="590.7"/>
				<line class="st4" x1="748.2" y1="512" x2="748.2" y2="590.7"/>
				<line class="st4" x1="630.1" y1="512" x2="748.2" y2="512"/>
				<line class="st4" x1="417.5" y1="315.2" x2="614.4" y2="472.6"/>
				<line class="st4" x1="551.4" y1="472.6" x2="614.4" y2="472.6"/>
				<line class="st4" x1="551.4" y1="669.5" x2="551.4" y2="472.6"/>
				<line class="st4" x1="826.9" y1="669.5" x2="551.4" y2="669.5"/>
				<line class="st4" x1="826.9" y1="472.6" x2="826.9" y2="669.5"/>
				<line class="st4" x1="866.3" y1="472.6" x2="826.9" y2="472.6"/>
				<line class="st4" x1="866.3" y1="315.2" x2="866.3" y2="472.6"/>
				<line class="st4" x1="417.5" y1="315.2" x2="866.3" y2="315.2"/>
				<line class="st4" x1="157.7" y1="472.6" x2="197.1" y2="472.6"/>
				<line class="st4" x1="157.7" y1="472.6" x2="354.5" y2="315.2"/>
				<line class="st4" x1="354.5" y1="315.2" x2="551.4" y2="472.6"/>
				<line class="st4" x1="551.4" y1="472.6" x2="512" y2="472.6"/>
				<line class="st4" x1="512" y1="669.5" x2="512" y2="472.6"/>
				<line class="st4" x1="393.9" y1="669.5" x2="512" y2="669.5"/>
				<line class="st4" x1="393.9" y1="669.5" x2="393.9" y2="512"/>
				<line class="st4" x1="393.9" y1="512" x2="315.2" y2="512"/>
				<line class="st4" x1="315.2" y1="512" x2="315.2" y2="669.5"/>
				<line class="st4" x1="197.1" y1="669.5" x2="315.2" y2="669.5"/>
				<line class="st4" x1="197.1" y1="472.6" x2="197.1" y2="669.5"/>
				<line class="st4" x1="118.3" y1="866.3" x2="551.4" y2="866.3"/>
				<line class="st4" x1="551.4" y1="866.3" x2="551.4" y2="748.2"/>
				<line class="st4" x1="551.4" y1="748.2" x2="905.7" y2="748.2"/>
				<line class="st4" x1="905.7" y1="748.2" x2="905.7" y2="197.1"/>
				<line class="st4" x1="118.3" y1="197.1" x2="905.7" y2="197.1"/>
				<line class="st4" x1="118.3" y1="866.3" x2="118.3" y2="197.1"/>
				<line class="st4" x1="590.7" y1="866.3" x2="905.7" y2="866.3"/>
				<line class="st4" x1="590.7" y1="787.6" x2="590.7" y2="866.3"/>
				<line class="st4" x1="905.7" y1="787.6" x2="590.7" y2="787.6"/>
				<line class="st4" x1="905.7" y1="866.3" x2="905.7" y2="787.6"/>
				<line class="st4" x1="79" y1="905.7" x2="945" y2="905.7"/>
				<line class="st4" x1="79" y1="905.7" x2="79" y2="157.7"/>
				<line class="st4" x1="79" y1="157.7" x2="945" y2="157.7"/>
				<line class="st4" x1="945" y1="905.7" x2="945" y2="157.7"/>
			</g>
		</g>
	</g>
</g>
<g id="_x36_">
</g>
</svg>
