<?xml version="1.0" encoding="utf-8"?>
<!-- Generator: Adobe Illustrator 19.0.0, SVG Export Plug-In . SVG Version: 6.00 Build 0)  -->
<svg version="1.1" xmlns="http://www.w3.org/2000/svg" xmlns:xlink="http://www.w3.org/1999/xlink" x="0px" y="0px"
	 viewBox="0 0 1024 1024" style="enable-background:new 0 0 1024 1024;" xml:space="preserve">
<style type="text/css">
	.st0{fill:#FFFFFF;}
</style>
<g id="_x30_">
</g>
<g id="_x33_">
	<g id="SPLINE_15_">
		<g id="XMLID_1_">
			<g>
				<path class="st0" d="M866.3,472.6c21.7,0,39.4,17.6,39.4,39.4s-17.6,39.4-39.4,39.4s-39.4-17.6-39.4-39.4
					S844.6,472.6,866.3,472.6z"/>
				<path class="st0" d="M866.3,354.5c21.7,0,39.4,17.6,39.4,39.4c0,21.7-17.6,39.4-39.4,39.4s-39.4-17.6-39.4-39.4
					C826.9,372.2,844.6,354.5,866.3,354.5z"/>
				<path class="st0" d="M748.2,118.3v787.3H275.8V118.3H748.2z M672.7,402c16.3-25.1,24.4-52.4,24.4-81.9
					c0-40.8-16.2-75.5-48.5-104.3c-32.3-28.8-79.4-43.1-141.3-43.1c-58.3,0-103.7,14.9-136.2,44.6c-32.5,29.7-48.7,64.3-48.7,103.7
					c0,21.7,6.7,39.1,20.1,52.4c13.4,13.2,30.1,19.8,50,19.8c17.7,0,32.5-5.6,44.4-16.7c11.9-11.1,17.8-24.9,17.8-41.3
					c0-18.3-6.8-40.3-20.5-66.1c-6.1-11.5-9.1-19.9-9.1-25.3c0-8,4.5-15.8,13.4-23.3c11.6-9.8,24.2-14.6,37.9-14.6
					c17.9,0,33.5,9.8,46.7,29.4c13.2,19.6,19.8,50,19.8,91.2c0,26.8-2.3,49.2-6.8,67.3c-4.5,18.1-14,42.2-28.3,72.2
					c-14.4,30-23.3,53.5-26.8,70.5s-4.9,42.8-4.2,77.3h22c2.2-33,8.2-57.4,18.1-73.5c9.9-16,30.4-34.3,61.7-54.8
					C625,454.8,656.4,427.1,672.7,402z M584.4,767.7c0-21.4-7.5-39.5-22.6-54.5c-15-15-33.2-22.5-54.6-22.5
					c-21.4,0-39.6,7.5-54.6,22.5c-15,15-22.6,33.1-22.6,54.5c0,21.2,7.5,39.4,22.6,54.6c15,15.2,33.2,22.7,54.6,22.7
					c21.4,0,39.6-7.6,54.6-22.7C576.9,807.2,584.4,789,584.4,767.7z"/>
				<path d="M561.9,713.2c15,15,22.6,33.1,22.6,54.5c0,21.2-7.5,39.4-22.6,54.6c-15,15.2-33.2,22.7-54.6,22.7
					c-21.4,0-39.6-7.6-54.6-22.7c-15-15.2-22.6-33.4-22.6-54.6c0-21.4,7.5-39.5,22.6-54.5c15-15,33.2-22.5,54.6-22.5
					C528.6,690.7,546.8,698.2,561.9,713.2z"/>
				<path d="M697,320.1c0,29.5-8.1,56.8-24.4,81.9c-16.2,25.1-47.7,52.8-94.3,83.3c-31.2,20.5-51.8,38.8-61.7,54.8
					c-9.9,16-15.9,40.5-18.1,73.5h-22c-0.7-34.5,0.7-60.2,4.2-77.3s12.4-40.6,26.8-70.5c14.3-30,23.8-54,28.3-72.2
					c4.5-18.1,6.8-40.6,6.8-67.3c0-41.2-6.6-71.6-19.8-91.2c-13.2-19.6-28.8-29.4-46.7-29.4c-13.7,0-26.3,4.9-37.9,14.6
					c-9,7.5-13.4,15.2-13.4,23.3c0,5.4,3,13.8,9.1,25.3c13.7,25.8,20.5,47.9,20.5,66.1c0,16.4-5.9,30.2-17.8,41.3
					c-11.9,11.1-26.7,16.7-44.4,16.7c-19.9,0-36.5-6.6-50-19.8c-13.4-13.2-20.1-30.7-20.1-52.4c0-39.4,16.3-73.9,48.7-103.7
					c32.5-29.7,77.9-44.6,136.2-44.6c61.9,0,109,14.4,141.3,43.1C680.9,244.6,697,279.3,697,320.1z"/>
				<path d="M945,315.2v393.7H787.6V945H236.4V708.8H79V315.2h157.5V79h551.1v236.2H945z M905.7,393.9c0-21.7-17.6-39.4-39.4-39.4
					s-39.4,17.6-39.4,39.4c0,21.7,17.6,39.4,39.4,39.4S905.7,415.6,905.7,393.9z M905.7,512c0-21.7-17.6-39.4-39.4-39.4
					s-39.4,17.6-39.4,39.4s17.6,39.4,39.4,39.4S905.7,533.7,905.7,512z M748.2,905.7V118.3H275.8v787.3H748.2z"/>
			</g>
			<g>
			</g>
		</g>
	</g>
</g>
<g id="_x36_">
</g>
</svg>
