<?xml version="1.0" encoding="utf-8"?>
<!-- Generator: Adobe Illustrator 19.0.0, SVG Export Plug-In . SVG Version: 6.00 Build 0)  -->
<svg version="1.1" xmlns="http://www.w3.org/2000/svg" xmlns:xlink="http://www.w3.org/1999/xlink" x="0px" y="0px"
	 viewBox="0 0 1024 1024" style="enable-background:new 0 0 1024 1024;" xml:space="preserve">
<style type="text/css">
	.st0{fill:#FFFFFF;}
</style>
<g id="_x30_">
</g>
<g id="_x33_">
	<g id="ARC_1_">
		<g id="XMLID_1_">
			<g>
				<path class="st0" d="M512,210.5c166.5,0,301.5,135,301.5,301.5S678.5,813.5,512,813.5S210.5,678.5,210.5,512
					S345.5,210.5,512,210.5z M656.3,551.4v-78.7H367.7v78.7H656.3z"/>
				<rect x="367.7" y="472.6" width="288.7" height="78.7"/>
				<path d="M945,866.3L866.3,945L748.2,826.9v-39.4l-15.7-15.7c-21.1,17.9-44.3,33.2-69.1,45.5C494.8,901,290.3,832.1,206.6,663.5
					C123,494.8,191.9,290.3,360.5,206.6c122-60.5,268.2-42.6,372,45.5C876.1,373.9,893.7,589,771.9,732.5l15.7,15.7h39.4L945,866.3z
					 M813.5,512c0-166.5-135-301.5-301.5-301.5S210.5,345.5,210.5,512s135,301.5,301.5,301.5S813.5,678.5,813.5,512z"/>
				<polygon points="945,79 945,787.6 905.7,787.6 905.7,118.3 118.3,118.3 118.3,905.7 787.6,905.7 787.6,945 79,945 79,79 				"/>
			</g>
			<g>
			</g>
		</g>
	</g>
</g>
<g id="_x36_">
</g>
</svg>
