<?xml version="1.0" encoding="utf-8"?>
<!-- Generator: Adobe Illustrator 19.0.0, SVG Export Plug-In . SVG Version: 6.00 Build 0)  -->
<svg version="1.1" xmlns="http://www.w3.org/2000/svg" xmlns:xlink="http://www.w3.org/1999/xlink" x="0px" y="0px"
	 viewBox="0 0 1024 1024" style="enable-background:new 0 0 1024 1024;" xml:space="preserve">
<style type="text/css">
	.st0{fill:#FFFFFF;}
</style>
<g id="_x30_">
</g>
<g id="_x33_">
	<g id="LINE_36_">
		<g id="XMLID_1_">
			<g>
				<rect x="630.1" y="512" class="st0" width="118.1" height="78.7"/>
				<rect x="590.7" y="787.6" class="st0" width="314.9" height="78.7"/>
				<path class="st0" d="M905.7,197.1v551.1H551.4v118.1h-433V197.1H905.7z M866.3,472.6V315.2H417.5l196.8,157.5h-63L354.5,315.2
					L157.7,472.6h39.4v196.8h118.1V512h78.7v157.5H512V472.6h39.4v196.8h275.6V472.6H866.3z"/>
				<path d="M945,157.7v748H79v-748H945z M905.7,866.3v-78.7H590.7v78.7H905.7z M905.7,748.2V197.1H118.3v669.2h433V748.2H905.7z"/>
				<path d="M866.3,315.2v157.5h-39.4v196.8H551.4V472.6h63L417.5,315.2H866.3z M748.2,590.7V512H630.1v78.7H748.2z"/>
				<polygon points="551.4,472.6 512,472.6 512,669.5 393.9,669.5 393.9,512 315.2,512 315.2,669.5 197.1,669.5 197.1,472.6 
					157.7,472.6 354.5,315.2 				"/>
			</g>
			<g>
			</g>
		</g>
	</g>
</g>
<g id="_x36_">
</g>
</svg>
