<?xml version="1.0" encoding="utf-8"?>
<!-- Generator: Adobe Illustrator 15.1.0, SVG Export Plug-In . SVG Version: 6.00 Build 0)  -->
<!DOCTYPE svg PUBLIC "-//W3C//DTD SVG 1.1//EN" "http://www.w3.org/Graphics/SVG/1.1/DTD/svg11.dtd">
<svg version="1.1" id="Layer_1" xmlns="http://www.w3.org/2000/svg" xmlns:xlink="http://www.w3.org/1999/xlink" x="0px" y="0px"
	 width="128px" height="128px" viewBox="0 0 128 128" enable-background="new 0 0 128 128" xml:space="preserve">
<g id="LINE_134_">
	<g id="XMLID_1_">
		<g>
			<polygon points="69.25,57.61 63.83,57.61 63.83,84.69 47.59,84.69 47.59,63.03 36.76,63.03 36.76,84.69 20.52,84.69 20.52,57.61 
				15.1,57.61 42.18,35.96 			"/>
			<rect x="116.99" y="37.09" width="5.42" height="10.83"/>
			<path d="M112.56,35.96v21.65h-5.409V84.69h-37.9V57.61h8.67L50.84,35.96H112.56z M96.32,73.86V63.03H80.08V73.86H96.32z"/>
			<rect x="116.99" y="53.34" width="5.42" height="10.83"/>
			<rect x="116.99" y="69.58" width="5.42" height="10.83"/>
			<rect x="116.99" y="85.82" width="5.42" height="10.83"/>
			<rect x="116.99" y="102.07" width="5.42" height="10.83"/>
			<rect x="96.32" y="118.31" width="10.83" height="5.421"/>
			<rect x="112.56" y="118.31" width="10.83" height="5.421"/>
			<rect x="80.08" y="118.31" width="10.83" height="5.421"/>
			<rect x="63.83" y="118.31" width="10.83" height="5.421"/>
			<rect x="47.59" y="118.31" width="10.83" height="5.421"/>
			<rect x="31.35" y="118.31" width="10.83" height="5.421"/>
			<rect x="15.1" y="118.31" width="10.83" height="5.421"/>
			<rect x="4.27" y="112.9" width="5.42" height="10.83"/>
			<rect x="4.27" y="96.65" width="5.42" height="10.83"/>
			<rect x="4.27" y="80.41" width="5.42" height="10.83"/>
			<rect x="4.27" y="64.17" width="5.42" height="10.83"/>
			<rect x="4.27" y="47.92" width="5.42" height="10.83"/>
			<rect x="4.27" y="31.68" width="5.42" height="10.83"/>
			<rect x="4.27" y="15.44" width="5.42" height="10.83"/>
			<rect x="4.27" y="4.61" width="10.83" height="5.41"/>
			<rect x="20.52" y="4.61" width="10.83" height="5.41"/>
			<rect x="36.76" y="4.61" width="10.83" height="5.41"/>
			<rect x="69.25" y="4.61" width="10.83" height="5.41"/>
			<rect x="53" y="4.61" width="10.83" height="5.41"/>
			<rect x="85.49" y="4.61" width="10.83" height="5.41"/>
			<rect x="100.75" y="4.61" width="10.83" height="5.41"/>
			<rect x="116.99" y="4.61" width="5.42" height="10.83"/>
			<rect x="116.99" y="20.85" width="5.42" height="10.83"/>
		</g>
		<g>
		</g>
	</g>
</g>
</svg>
