<?xml version="1.0" encoding="utf-8"?>
<!-- Generator: Adobe Illustrator 19.0.0, SVG Export Plug-In . SVG Version: 6.00 Build 0)  -->
<svg version="1.1" xmlns="http://www.w3.org/2000/svg" xmlns:xlink="http://www.w3.org/1999/xlink" x="0px" y="0px"
	 viewBox="0 0 1024 1024" style="enable-background:new 0 0 1024 1024;" xml:space="preserve">
<style type="text/css">
	.st0{fill:#FFFFFF;}
</style>
<g id="_x30_">
</g>
<g id="_x33_">
	<g id="LINE_23_">
		<g id="XMLID_1_">
			<g>
				<path class="st0" d="M905.7,118.3v787.3H118.3V118.3H905.7z M841.4,590.7c12.4-51.8,12.4-105.7,0-157.5h-65.3
					c-5.4-18.1-12.7-35.7-21.7-52.3l46.2-46.2c-27.9-45.4-66-83.5-111.4-111.4l-46.2,46.2c-16.7-9-34.2-16.3-52.3-21.7v-65.3
					c-51.8-12.4-105.7-12.4-157.5,0v65.3c-18.1,5.4-35.7,12.7-52.3,21.7l-46.2-46.2c-45.4,27.9-83.5,66-111.4,111.4l46.2,46.2
					c-9,16.6-16.3,34.2-21.7,52.3h-65.3c-12.4,51.8-12.4,105.7,0,157.5h65.3c5.4,18.1,12.7,35.7,21.7,52.3l-46.2,46.2
					c27.9,45.4,66,83.5,111.4,111.4l46.2-46.2c16.6,9,34.2,16.3,52.3,21.7v65.3c51.8,12.4,105.7,12.4,157.5,0v-65.3
					c18.1-5.4,35.7-12.7,52.3-21.7l46.2,46.2c45.4-27.9,83.5-66,111.4-111.4l-46.2-46.2c9-16.7,16.3-34.2,21.7-52.3H841.4z"/>
				<path class="st0" d="M512,393.9c65.2,0,118.1,52.9,118.1,118.1S577.2,630.1,512,630.1S393.9,577.2,393.9,512
					S446.8,393.9,512,393.9z"/>
				<path d="M945,79V945H79V79H945z M905.7,905.7V118.3H118.3v787.3H905.7z"/>
				<path d="M841.4,433.3c12.4,51.8,12.4,105.7,0,157.5h-65.3c-5.4,18.1-12.7,35.7-21.7,52.3l46.2,46.2
					c-27.9,45.4-66,83.5-111.4,111.4l-46.2-46.2c-16.7,9-34.2,16.3-52.3,21.7v65.3c-51.8,12.4-105.7,12.4-157.5,0v-65.3
					c-18.1-5.4-35.7-12.7-52.3-21.7l-46.2,46.2c-45.4-27.9-83.5-66-111.4-111.4l46.2-46.2c-9-16.7-16.3-34.2-21.7-52.3h-65.3
					c-12.4-51.8-12.4-105.7,0-157.5h65.3c5.4-18.1,12.7-35.7,21.7-52.3l-46.2-46.2c27.9-45.4,66-83.5,111.4-111.4l46.2,46.2
					c16.6-9,34.2-16.3,52.3-21.7v-65.3c51.8-12.4,105.7-12.4,157.5,0v65.3c18.1,5.4,35.7,12.7,52.3,21.7l46.2-46.2
					c45.4,27.9,83.5,66,111.4,111.4l-46.2,46.2c9,16.6,16.3,34.2,21.7,52.3H841.4z M630.1,512c0-65.2-52.9-118.1-118.1-118.1
					S393.9,446.8,393.9,512S446.8,630.1,512,630.1S630.1,577.2,630.1,512z"/>
			</g>
			<g>
			</g>
		</g>
	</g>
</g>
<g id="_x36_">
</g>
</svg>
