<?xml version="1.0" encoding="utf-8"?>
<!-- Generator: Adobe Illustrator 15.1.0, SVG Export Plug-In . SVG Version: 6.00 Build 0)  -->
<!DOCTYPE svg PUBLIC "-//W3C//DTD SVG 1.1//EN" "http://www.w3.org/Graphics/SVG/1.1/DTD/svg11.dtd">
<svg version="1.1" id="Layer_1" xmlns="http://www.w3.org/2000/svg" xmlns:xlink="http://www.w3.org/1999/xlink" x="0px" y="0px"
	 width="128px" height="128px" viewBox="0 0 128 128" enable-background="new 0 0 128 128" xml:space="preserve">
<g id="LINE_19_">
	<g id="XMLID_1_">
		<g>
			<path d="M124.32,35.96v55.48h-22.19v33.29H24.47V91.44H2.27V35.96h22.2V2.68h77.66v33.28H124.32z M118.78,47.06
				c0-3.07-2.49-5.55-5.55-5.55c-3.061,0-5.551,2.48-5.551,5.55c0,3.06,2.49,5.55,5.551,5.55
				C116.29,52.61,118.78,50.12,118.78,47.06z M118.78,63.7c0-3.06-2.49-5.55-5.55-5.55c-3.061,0-5.551,2.49-5.551,5.55
				c0,3.06,2.49,5.55,5.551,5.55C116.29,69.25,118.78,66.76,118.78,63.7z M96.59,119.18V69.25H30.01v49.93H96.59z M96.59,35.96V8.22
				H30.01v27.74H96.59z"/>
		</g>
		<g>
		</g>
	</g>
</g>
</svg>
