<?xml version="1.0" encoding="utf-8"?>
<!-- Generator: Adobe Illustrator 19.0.0, SVG Export Plug-In . SVG Version: 6.00 Build 0)  -->
<svg version="1.1" xmlns="http://www.w3.org/2000/svg" xmlns:xlink="http://www.w3.org/1999/xlink" x="0px" y="0px"
	 viewBox="0 0 1024 1024" style="enable-background:new 0 0 1024 1024;" xml:space="preserve">
<style type="text/css">
	.st0{fill:#FFFFFF;}
</style>
<g id="_x30_">
</g>
<g id="_x33_">
	<g id="LINE_21_">
		<g id="XMLID_1_">
			<g>
				<path class="st0" d="M866.3,118.3v787.3H157.7V118.3H866.3z M706.8,634.9L846,495.7L706.8,356.5V476H567.7v39.4h139.2V634.9z
					 M456.3,515.4V476H317.1V356.5L178,495.7l139.2,139.2V515.4H456.3z"/>
				<path d="M905.7,79V945H118.3V79H905.7z M866.3,905.7V118.3H157.7v787.3H866.3z"/>
				<polygon points="456.3,476 456.3,515.4 317.1,515.4 317.1,634.9 178,495.7 317.1,356.5 317.1,476 				"/>
				<polygon points="846,495.7 706.8,634.9 706.8,515.4 567.7,515.4 567.7,476 706.8,476 706.8,356.5 				"/>
			</g>
			<g>
			</g>
		</g>
	</g>
</g>
<g id="_x36_">
</g>
</svg>
