<?xml version="1.0" encoding="utf-8"?>
<!-- Generator: Adobe Illustrator 19.0.0, SVG Export Plug-In . SVG Version: 6.00 Build 0)  -->
<svg version="1.1" xmlns="http://www.w3.org/2000/svg" xmlns:xlink="http://www.w3.org/1999/xlink" x="0px" y="0px"
	 viewBox="0 0 1024 1024" style="enable-background:new 0 0 1024 1024;" xml:space="preserve">
<style type="text/css">
	.st0{fill:#FFFFFF;}
</style>
<g id="_x30_">
</g>
<g id="_x33_">
	<g id="LINE_35_">
		<g id="XMLID_1_">
			<g>
				<path class="st0" d="M905.7,118.3v787.3H118.3V118.3H905.7z M826.9,826.9V630.1l-84.5,84.5l-59-59l-27.8,27.8l59,59l-84.5,84.5
					H826.9z M826.9,393.9V197.1H630.1l84.5,84.5L616.2,380l27.8,27.8l98.4-98.4L826.9,393.9z M380,407.8l27.8-27.8l-98.4-98.4
					l84.5-84.5H197.1v196.8l84.5-84.5L380,407.8z M309.4,742.4l98.4-98.4L380,616.2l-98.4,98.4l-84.5-84.5v196.8h196.8L309.4,742.4z
					"/>
				<polygon points="826.9,197.1 826.9,393.9 742.4,309.4 644,407.8 616.2,380 714.6,281.6 630.1,197.1 				"/>
				<polygon points="826.9,630.1 826.9,826.9 630.1,826.9 714.6,742.4 655.5,683.4 683.4,655.5 742.4,714.6 				"/>
				<polygon points="407.8,644 309.4,742.4 393.9,826.9 197.1,826.9 197.1,630.1 281.6,714.6 380,616.2 				"/>
				<path d="M945,79V945H79V79H945z M905.7,905.7V118.3H118.3v787.3H905.7z"/>
				<polygon points="407.8,380 380,407.8 281.6,309.4 197.1,393.9 197.1,197.1 393.9,197.1 309.4,281.6 				"/>
			</g>
			<g>
			</g>
		</g>
	</g>
</g>
<g id="_x36_">
</g>
</svg>
