<?xml version="1.0" encoding="utf-8"?>
<!-- Generator: Adobe Illustrator 19.0.0, SVG Export Plug-In . SVG Version: 6.00 Build 0)  -->
<svg version="1.1" xmlns="http://www.w3.org/2000/svg" xmlns:xlink="http://www.w3.org/1999/xlink" x="0px" y="0px"
	 viewBox="0 0 1024 1024" style="enable-background:new 0 0 1024 1024;" xml:space="preserve">
<g id="_x30_">
</g>
<g id="_x33_">
	<g id="LINE_5_">
		<g id="XMLID_1_">
			<g>
				<polygon points="513.9,855.2 512.2,912.5 472.9,951.9 433.5,912.5 394.1,951.9 354.7,912.5 315.3,951.9 275.9,912.5 
					236.5,951.9 197.2,912.5 157.8,951.9 118.4,912.5 79,951.9 80.7,894.5 118.4,856.8 157.8,896.2 197.2,856.8 236.5,896.2 
					275.9,856.8 315.3,896.2 354.7,856.8 394.1,896.2 433.5,856.8 472.9,896.2 				"/>
				<rect x="374.4" y="676.2" width="19.7" height="39.4"/>
				<rect x="433.5" y="676.2" width="78.8" height="39.4"/>
				<rect x="472.9" y="774.7" width="39.4" height="39.4"/>
				<rect x="394.1" y="774.7" width="39.4" height="39.4"/>
				<rect x="315.3" y="774.7" width="39.4" height="39.4"/>
				<rect x="236.5" y="774.7" width="39.4" height="39.4"/>
				<rect x="157.8" y="774.7" width="39.4" height="39.4"/>
				<rect x="79" y="774.7" width="39.4" height="39.4"/>
				<rect x="79" y="676.2" width="78.8" height="39.4"/>
				<rect x="197.2" y="676.2" width="19.7" height="39.4"/>
				<rect x="256.2" y="676.2" width="78.8" height="39.4"/>
				<rect x="79" y="577.8" width="433.2" height="39.4"/>
				<path d="M761.3,559c109.3,0,197.9,88.6,197.9,197.9s-88.6,197.9-197.9,197.9S563.4,866.3,563.4,757S652,559,761.3,559z
					 M893.5,892.2c46.2-45.2,66.2-110.8,52.9-174.1c-1.4-2.3-2.8-4.6-4.3-6.8l2.5-1.2c-11.9-46.7-41.2-87-81.9-112.8
					c-13.3-8.4-27.5-15.2-42.5-20c-2.5,0-5.1,0.1-7.6,0.3l-0.3-2.7c-62.2-17.5-129.1-1.9-177.2,41.3c-1.3,2.2-2.4,4.5-3.5,6.7
					l-2.5-1.2C583,666.9,563,732.6,576.3,795.8c1.4,2.3,2.8,4.6,4.3,6.8l-2.5,1.2c16,62.6,62.9,112.7,124.3,132.9
					c2.5,0,5.1-0.1,7.6-0.3l0.3,2.7c62.2,17.4,129.1,1.9,177.2-41.3c1.3-2.2,2.4-4.5,3.5-6.7L893.5,892.2z"/>
				<path d="M792.5,668.4c53.5-30.4,121.6-11.7,152,41.8l-2.5,1.2c-27.7-39.4-81.4-51.8-123.9-27.1c-16.5,9.6-29.7,24.1-37.8,41.4
					c25.3-3.9,51.2,1.1,73.3,14c53.1,31.1,71,99.4,39.8,152.5L891,891c20.6-43.8,4.4-96.8-38.3-121.2c-16.6-9.5-35.7-13.7-54.8-12
					c16,20,24.7,44.9,24.5,70.5c-0.4,61.6-50.6,111.1-112.2,110.8l-0.3-2.7c48.2-4,86-44.5,85.8-93.8c-0.1-19.1-6-37.8-17-53.5
					c-9.3,23.9-26.5,43.8-48.8,56.5c-53.5,30.4-121.6,11.7-152-41.8l2.5-1.2c27.7,39.5,81.4,51.8,123.8,27.1
					c16.5-9.6,29.7-24.1,37.8-41.4c-25.3,3.9-51.2-1.1-73.3-14c-53.1-31.1-71-99.4-39.8-152.5l2.5,1.2
					c-20.6,43.8-4.4,96.7,38.3,121.2c16.6,9.5,35.7,13.7,54.8,12c-16-20-24.7-44.9-24.5-70.5c0.4-61.6,50.6-111.1,112.2-110.8
					l0.3,2.7c-48.2,4-86,44.5-85.9,93.8c0.1,19.1,6,37.8,17,53.5C753,701,770.3,681,792.5,668.4z"/>
				<rect x="541.8" y="75.6" width="433.2" height="19.7"/>
				<rect x="541.8" y="154.4" width="433.2" height="39.4"/>
				<rect x="541.8" y="252.9" width="433.2" height="78.8"/>
				<rect x="541.8" y="390.7" width="433.2" height="118.2"/>
				<polygon points="468.8,311.9 301.4,479.3 39.6,479.3 98.7,420.2 309.5,420.2 417.9,311.9 				"/>
				<polygon points="468.8,193.8 301.4,361.1 39.6,361.1 98.7,302.1 309.5,302.1 417.9,193.8 				"/>
				<polygon points="468.8,75.6 301.4,243 39.6,243 207,75.6 				"/>
			</g>
			<g>
			</g>
		</g>
	</g>
</g>
<g id="_x36_">
</g>
</svg>
