<?xml version="1.0" encoding="utf-8"?>
<!-- Generator: Adobe Illustrator 19.0.0, SVG Export Plug-In . SVG Version: 6.00 Build 0)  -->
<svg version="1.1" xmlns="http://www.w3.org/2000/svg" xmlns:xlink="http://www.w3.org/1999/xlink" x="0px" y="0px"
	 viewBox="0 0 1024 1024" style="enable-background:new 0 0 1024 1024;" xml:space="preserve">
<g id="_x30_">
</g>
<g id="_x33_">
	<g id="LINE_9_">
		<g id="XMLID_1_">
			<g>
				<path d="M459,410.6c-1.1-1.8-2.3-3.7-3.4-5.5c-23.5-38.8-17.5-88.6,14.5-120.7l19.1-19.1c24.3-24.3,58.3-36.5,92.5-33.2
					c24.3-17.8,48.4-36.5,72.5-56.2c24.1-19.8,49.4-39.7,76-59.8c23.6-23.6,55.5-36.8,88.8-36.8c69.4,0,125.6,56.2,125.6,125.6
					c0,33.3-13.2,65.3-36.8,88.8c0,0,0,0,0,0c-20.1,26.6-40,51.9-59.8,76c-19.7,24.1-38.5,48.3-56.2,72.5
					c3.3,34.3-8.8,68.2-33.2,92.5l-19.1,19.1c-32.1,32.1-81.9,38.1-120.7,14.5c-1.8-1.1-3.7-2.3-5.5-3.4L294.5,883.9
					c-16.8,16.8-40.8,24.5-64.3,20.5c-12.3-2.1-24.8,1.4-34.3,9.3l-40.5,34.1c-16.4,13.8-39.2,17-58.8,8.5l-27.2-25.2
					c-10.8-20.3-8.1-45,6.6-62.6l34.1-40.5c8-9.5,11.4-22,9.3-34.3c-4-23.5,3.7-47.4,20.5-64.3L459,410.6z M447.7,669.5L577.2,540
					C542,513.3,510.7,482,484,446.8L261.3,669.5H447.7z"/>
			</g>
			<g>
			</g>
		</g>
	</g>
</g>
<g id="_x36_">
</g>
</svg>
