<?xml version="1.0" encoding="utf-8"?>
<!-- Generator: Adobe Illustrator 19.0.0, SVG Export Plug-In . SVG Version: 6.00 Build 0)  -->
<svg version="1.1" xmlns="http://www.w3.org/2000/svg" xmlns:xlink="http://www.w3.org/1999/xlink" x="0px" y="0px"
	 viewBox="0 0 1024 1024" style="enable-background:new 0 0 1024 1024;" xml:space="preserve">
<g id="_x30_">
</g>
<g id="_x33_">
	<g id="ARC_18_">
		<g id="XMLID_1_">
			<g>
				<path d="M512,72.4c242.8,0,439.6,196.8,439.6,439.6S754.8,951.6,512,951.6S72.4,754.8,72.4,512S269.2,72.4,512,72.4z
					 M805.5,812.3C908.2,712,952.5,566.2,923,425.6c-57.9-99.4-185.3-133.1-284.7-75.2c-36.7,21.4-66,53.5-84,92
					c56.2-8.6,113.7,2.3,162.8,31.1C835,542.7,874.6,694.4,805.5,812.3z M918.9,408C892.4,304.4,827.3,214.7,737,157.4
					c-29.5-18.7-61.2-33.7-94.3-44.5c-115,0.4-207.9,94-207.5,209c0.2,42.5,13.3,83.9,37.7,118.7c20.6-53,58.9-97.3,108.3-125.4
					C700.1,247.6,851.3,289.1,918.9,408z M792.3,824.7c57.1-99.8,22.6-227-77.2-284.2c-36.9-21.1-79.3-30.5-121.7-26.7
					c35.6,44.4,54.8,99.6,54.5,156.5c-0.9,136.8-112.4,246.9-249.2,246C536.9,955.1,685.3,920.6,792.3,824.7z M376.2,353.6
					c0.9-136.8,112.4-246.9,249.2-246c-138.3-38.8-286.7-4.2-393.6,91.6c-57.1,99.8-22.6,227,77.2,284.2
					c36.9,21.1,79.3,30.5,121.7,26.7C395,465.8,375.8,410.5,376.2,353.6z M381.3,911.1c115-0.4,207.9-94,207.5-209
					c-0.2-42.5-13.3-83.9-37.7-118.7c-20.6,53-58.9,97.3-108.3,125.4c-118.9,67.6-270,26.1-337.6-92.8
					C140.7,755.1,244.9,866.4,381.3,911.1z M385.8,673.6c36.7-21.4,66-53.5,84-92c-56.2,8.6-113.7-2.3-162.8-31.1
					c-118-69.1-157.6-220.8-88.5-338.8C115.8,312,71.5,457.8,101,598.3C158.9,697.7,286.4,731.4,385.8,673.6z"/>
			</g>
			<g>
			</g>
		</g>
	</g>
</g>
<g id="_x36_">
</g>
</svg>
