<?xml version="1.0" encoding="utf-8"?>
<!-- Generator: Adobe Illustrator 19.0.0, SVG Export Plug-In . SVG Version: 6.00 Build 0)  -->
<svg version="1.1" xmlns="http://www.w3.org/2000/svg" xmlns:xlink="http://www.w3.org/1999/xlink" x="0px" y="0px"
	 viewBox="0 0 1024 1024" style="enable-background:new 0 0 1024 1024;" xml:space="preserve">
<g id="_x30_">
</g>
<g id="_x33_">
	<g id="ARC_1_">
		<g id="XMLID_1_">
			<g>
				<path d="M908.2,826.9h-78.7c-1.5-105.7-88.3-190.1-194-188.7s-190.1,88.3-188.7,194c0.3,24.1,5.2,47.9,14.4,70.2L388,931.6
					c-12.9-31.6-19.7-65.3-20-99.4C366.5,683.1,486.3,561,635.4,559.5C784.6,558,906.7,677.8,908.2,826.9z"/>
				<polygon points="413.6,374.2 413.6,453 295.5,453 295.5,571 216.8,571 216.8,453 98.7,453 98.7,374.2 216.8,374.2 216.8,256.1 
					295.5,256.1 295.5,374.2 				"/>
				<polygon points="946.2,444.5 905.7,512 315.2,157.7 355.7,90.2 				"/>
			</g>
			<g>
			</g>
		</g>
	</g>
</g>
<g id="_x36_">
</g>
</svg>
