<?xml version="1.0" encoding="utf-8"?>
<!-- Generator: Adobe Illustrator 19.0.0, SVG Export Plug-In . SVG Version: 6.00 Build 0)  -->
<svg version="1.1" xmlns="http://www.w3.org/2000/svg" xmlns:xlink="http://www.w3.org/1999/xlink" x="0px" y="0px"
	 viewBox="0 0 1024 1024" style="enable-background:new 0 0 1024 1024;" xml:space="preserve">
<g id="_x30_">
</g>
<g id="_x33_">
	<g id="LINE_71_">
		<g id="XMLID_1_">
			<g>
				<rect x="79" y="118.3" width="866.1" height="78.7"/>
				<polygon points="948.4,712.2 945,826.9 866.3,905.7 787.6,826.9 708.8,905.7 630.1,826.9 551.4,905.7 472.6,826.9 393.9,905.7 
					315.2,826.9 236.4,905.7 157.7,826.9 79,905.7 82.3,790.9 157.7,715.6 236.4,794.3 315.2,715.6 393.9,794.3 472.6,715.6 
					551.4,794.3 630.1,715.6 708.8,794.3 787.6,715.6 866.3,794.3 				"/>
				<rect x="708.8" y="512" width="78.7" height="78.7"/>
				<rect x="866.3" y="512" width="78.7" height="78.7"/>
				<rect x="551.4" y="512" width="78.7" height="78.7"/>
				<rect x="393.9" y="512" width="78.7" height="78.7"/>
				<rect x="236.4" y="512" width="78.7" height="78.7"/>
				<rect x="79" y="512" width="78.7" height="78.7"/>
				<rect x="79" y="315.2" width="157.5" height="78.7"/>
				<rect x="315.2" y="315.2" width="39.4" height="78.7"/>
				<rect x="433.3" y="315.2" width="157.5" height="78.7"/>
				<rect x="669.5" y="315.2" width="39.4" height="78.7"/>
				<rect x="787.6" y="315.2" width="157.5" height="78.7"/>
			</g>
			<g>
			</g>
		</g>
	</g>
</g>
<g id="_x36_">
</g>
</svg>
