<?xml version="1.0" encoding="utf-8"?>
<!-- Generator: Adobe Illustrator 19.0.0, SVG Export Plug-In . SVG Version: 6.00 Build 0)  -->
<svg version="1.1" xmlns="http://www.w3.org/2000/svg" xmlns:xlink="http://www.w3.org/1999/xlink" x="0px" y="0px"
	 viewBox="0 0 1024 1024" style="enable-background:new 0 0 1024 1024;" xml:space="preserve">
<g id="_x30_">
</g>
<g id="_x33_">
	<g id="LINE_85_">
		<g id="XMLID_1_">
			<g>
				<path d="M984.4,669.5v39.4H945v78.7h-78.7v-78.7h-78.7v78.7h-78.7v-78.7h-78.7v78.7h-78.7v-78.7h-78.7v78.7h-78.7v-78.7h-78.7
					v78.7h-78.7v-78.7h-78.7v78.7H79v-78.7H39.6v-39.4H79V433.3H39.6v-39.4H79V275.8l39.4-39.4l39.4,39.4v118.1h78.7V275.8
					l39.4-39.4l39.4,39.4v118.1h78.7V275.8l39.4-39.4l39.4,39.4v118.1h78.7V275.8l39.4-39.4l39.4,39.4v118.1h78.7V275.8l39.4-39.4
					l39.4,39.4v118.1h78.7V275.8l39.4-39.4l39.4,39.4v118.1h39.4v39.4H945v236.2H984.4z M866.3,669.5V433.3h-78.7v236.2H866.3z
					 M708.8,669.5V433.3h-78.7v236.2H708.8z M551.4,669.5V433.3h-78.7v236.2H551.4z M393.9,669.5V433.3h-78.7v236.2H393.9z
					 M236.4,669.5V433.3h-78.7v236.2H236.4z"/>
			</g>
			<g>
			</g>
		</g>
	</g>
</g>
<g id="_x36_">
</g>
</svg>
