<?xml version="1.0" encoding="utf-8"?>
<!-- Generator: Adobe Illustrator 19.0.0, SVG Export Plug-In . SVG Version: 6.00 Build 0)  -->
<svg version="1.1" xmlns="http://www.w3.org/2000/svg" xmlns:xlink="http://www.w3.org/1999/xlink" x="0px" y="0px"
	 viewBox="0 0 1024 1024" style="enable-background:new 0 0 1024 1024;" xml:space="preserve">
<g id="_x30_">
</g>
<g id="_x33_">
	<g id="SPLINE_9_">
		<g id="XMLID_1_">
			<g>
				<path d="M879.9,153.1c48.3,41.8,72.5,92.9,72.5,153.6c0,122.6-76.9,247.8-230.8,375.4c-107,88.6-176.9,163.1-209.7,223.6
					c-32.8-60.5-102.7-135-209.7-223.6C148.5,554.5,71.6,429.4,71.6,306.7c0-60.6,24.2-111.8,72.5-153.6
					c46-39.9,99.6-59.8,160.9-59.8c91.3,0,160.4,47.7,207.1,143.1C558.7,141,627.8,93.3,719.1,93.3
					C780.3,93.3,834,113.2,879.9,153.1z"/>
			</g>
			<g>
			</g>
		</g>
	</g>
</g>
<g id="_x36_">
</g>
</svg>
