<?xml version="1.0" encoding="utf-8"?>
<!-- Generator: Adobe Illustrator 19.0.0, SVG Export Plug-In . SVG Version: 6.00 Build 0)  -->
<svg version="1.1" xmlns="http://www.w3.org/2000/svg" xmlns:xlink="http://www.w3.org/1999/xlink" x="0px" y="0px"
	 viewBox="0 0 1024 1024" style="enable-background:new 0 0 1024 1024;" xml:space="preserve">
<g id="_x30_">
</g>
<g id="_x33_">
	<g id="LINE_15_">
		<g id="XMLID_1_">
			<g>
				<path d="M898.9,294.5L874,369.2l-47.1-14.7L197.1,157.7L222,83l224.3,70.1c19.5-62.3,85.7-97,148-77.5
					c62.3,19.5,97,85.7,77.5,148L898.9,294.5z M634.2,211.8c13-41.5-10.2-85.7-51.7-98.6c-41.5-13-85.7,10.2-98.6,51.7L634.2,211.8z
					"/>
				<path d="M826.9,354.5v472.4c0,65.2-52.9,118.1-118.1,118.1H354.5c-65.2,0-118.1-52.9-118.1-118.1V354.5H826.9z M748.2,826.9
					V433.3c0-21.7-17.6-39.4-39.4-39.4s-39.4,17.6-39.4,39.4v393.7c0,21.7,17.6,39.4,39.4,39.4S748.2,848.7,748.2,826.9z M571,826.9
					V433.3c0-21.7-17.6-39.4-39.4-39.4s-39.4,17.6-39.4,39.4v393.7c0,21.7,17.6,39.4,39.4,39.4S571,848.7,571,826.9z M393.9,826.9
					V433.3c0-21.7-17.6-39.4-39.4-39.4c-21.7,0-39.4,17.6-39.4,39.4v393.7c0,21.7,17.6,39.4,39.4,39.4
					C376.3,866.3,393.9,848.7,393.9,826.9z"/>
			</g>
			<g>
			</g>
		</g>
	</g>
</g>
<g id="_x36_">
</g>
</svg>
