<?xml version="1.0" encoding="utf-8"?>
<!-- Generator: Adobe Illustrator 19.0.0, SVG Export Plug-In . SVG Version: 6.00 Build 0)  -->
<svg version="1.1" xmlns="http://www.w3.org/2000/svg" xmlns:xlink="http://www.w3.org/1999/xlink" x="0px" y="0px"
	 viewBox="0 0 1024 1024" style="enable-background:new 0 0 1024 1024;" xml:space="preserve">
<g id="_x30_">
</g>
<g id="_x33_">
	<g id="LINE_63_">
		<g id="XMLID_1_">
			<g>
				<rect x="79" y="823" width="124" height="124"/>
				<rect x="327" y="823" width="124" height="124"/>
				<rect x="575" y="823" width="124" height="124"/>
				<rect x="823" y="823" width="124" height="124"/>
				<rect x="823" y="575" width="124" height="124"/>
				<rect x="575" y="575" width="124" height="124"/>
				<rect x="327" y="575" width="124" height="124"/>
				<rect x="79" y="575" width="124" height="124"/>
				<rect x="79" y="79" width="124" height="124"/>
				<rect x="79" y="327" width="124" height="124"/>
				<rect x="327" y="327" width="124" height="124"/>
				<rect x="327" y="79" width="124" height="124"/>
				<rect x="575" y="79" width="124" height="124"/>
				<rect x="575" y="327" width="124" height="124"/>
				<rect x="823" y="327" width="124" height="124"/>
				<rect x="823" y="79" width="124" height="124"/>
			</g>
			<g>
			</g>
		</g>
	</g>
</g>
<g id="_x36_">
</g>
</svg>
