<?xml version="1.0" encoding="utf-8"?>
<!-- Generator: Adobe Illustrator 19.0.0, SVG Export Plug-In . SVG Version: 6.00 Build 0)  -->
<svg version="1.1" xmlns="http://www.w3.org/2000/svg" xmlns:xlink="http://www.w3.org/1999/xlink" x="0px" y="0px"
	 viewBox="0 0 1024 1024" style="enable-background:new 0 0 1024 1024;" xml:space="preserve">
<g id="_x30_">
</g>
<g id="_x33_">
	<g id="LINE_19_">
		<g id="XMLID_1_">
			<g>
				<path d="M945,315.2v393.7H787.6V945H236.4V708.8H79V315.2h157.5V79h551.1v236.2H945z M905.7,393.9c0-21.7-17.6-39.4-39.4-39.4
					s-39.4,17.6-39.4,39.4c0,21.7,17.6,39.4,39.4,39.4S905.7,415.6,905.7,393.9z M905.7,512c0-21.7-17.6-39.4-39.4-39.4
					s-39.4,17.6-39.4,39.4s17.6,39.4,39.4,39.4S905.7,533.7,905.7,512z M748.2,905.7V551.4H275.8v354.3H748.2z M748.2,315.2V118.3
					H275.8v196.8H748.2z"/>
			</g>
			<g>
			</g>
		</g>
	</g>
</g>
<g id="_x36_">
</g>
</svg>
