<?xml version="1.0" encoding="utf-8"?>
<!-- Generator: Adobe Illustrator 19.0.0, SVG Export Plug-In . SVG Version: 6.00 Build 0)  -->
<svg version="1.1" xmlns="http://www.w3.org/2000/svg" xmlns:xlink="http://www.w3.org/1999/xlink" x="0px" y="0px"
	 viewBox="0 0 1024 1024" style="enable-background:new 0 0 1024 1024;" xml:space="preserve">
<g id="_x30_">
</g>
<g id="_x33_">
	<g id="SPLINE_17_">
		<g id="XMLID_1_">
			<g>
				<path d="M754.8,470.1c10,11.4,15,25.2,15,41.3c0,16.1-5.1,29.9-15.3,41.3c-10.2,11.4-22.4,17.1-36.4,17.1
					c-14.4,0-26.6-5.7-36.8-17.1c-10.2-11.4-15.3-25.2-15.3-41.3c0-16.1,5.1-29.9,15.3-41.3c10.2-11.4,22.5-17.1,36.8-17.1
					C732.5,452.9,744.8,458.6,754.8,470.1z"/>
				<path d="M813.2,212.7c83.6,82.3,125.4,181.9,125.4,298.7s-41.8,216.3-125.4,298.7C729.6,892.4,628.5,933.6,510,933.6
					s-219.6-41.2-303.3-123.5C123.1,727.7,81.3,628.2,81.3,511.4S123.1,295,206.7,212.7S391.4,89.2,510,89.2
					S729.6,130.4,813.2,212.7z M854.9,641.9c38.5-38.6,57.8-86.3,57.8-143.1c0-104.5-39.6-194.5-118.8-270.2
					C714.8,153,620.7,115.2,511.6,115.2c-111.9,0-205.1,36.5-279.6,109.4c-74.5,72.9-115,167.4-121.7,283.4
					c8.5-64.8,29.8-114,63.8-147.6c34-33.6,79.7-50.3,137.1-50.3c54.5,0,100.8,18,138.7,53.9c38,35.9,58.5,80.8,61.6,134.5L512,512
					c2.7,53.7,23.1,98.5,61.3,134.2c38.2,35.7,84.5,53.6,139,53.6C768.9,699.8,816.4,680.5,854.9,641.9z M367.1,504.9
					c0-14.4-5-26.6-15-36.7c-10-10.1-22.3-15.2-36.7-15.2c-14.4,0-26.6,5.1-36.8,15.2c-10.2,10.1-15.3,22.4-15.3,36.7
					c0,14.3,5.1,26.6,15.3,36.7c10.2,10.1,22.5,15.2,36.8,15.2c14.1,0,26.2-5.2,36.4-15.5C362,531,367.1,518.8,367.1,504.9z"/>
			</g>
			<g>
			</g>
		</g>
	</g>
</g>
<g id="_x36_">
</g>
</svg>
