<?xml version="1.0" encoding="utf-8"?>
<!-- Generator: Adobe Illustrator 19.0.0, SVG Export Plug-In . SVG Version: 6.00 Build 0)  -->
<svg version="1.1" xmlns="http://www.w3.org/2000/svg" xmlns:xlink="http://www.w3.org/1999/xlink" x="0px" y="0px"
	 viewBox="0 0 1024 1024" style="enable-background:new 0 0 1024 1024;" xml:space="preserve">
<g id="_x30_">
</g>
<g id="_x33_">
	<g id="LINE_59_">
		<g id="XMLID_1_">
			<g>
				<rect x="551.4" y="866.3" width="157.5" height="78.7"/>
				<rect x="787.6" y="866.3" width="157.5" height="78.7"/>
				<rect x="866.3" y="630.1" width="78.7" height="157.5"/>
				<rect x="866.3" y="393.9" width="78.7" height="157.5"/>
				<polygon points="945,157.7 945,315.2 866.3,315.2 866.3,157.7 787.6,157.7 787.6,79 945,79 				"/>
				<rect x="551.4" y="79" width="157.5" height="78.7"/>
				<rect x="315.2" y="79" width="157.5" height="78.7"/>
				<rect x="79" y="79" width="157.5" height="78.7"/>
				<rect x="79" y="236.4" width="78.7" height="157.5"/>
				<rect x="79" y="472.6" width="78.7" height="157.5"/>
				<polygon points="236.4,866.3 236.4,945 79,945 79,866.3 79,708.8 157.7,708.8 157.7,866.3 				"/>
				<rect x="315.2" y="866.3" width="157.5" height="78.7"/>
				<polygon points="619.1,332.3 475.9,504.1 619.1,676 547.5,735.7 354.5,504.1 547.5,272.6 				"/>
			</g>
			<g>
			</g>
		</g>
	</g>
</g>
<g id="_x36_">
</g>
</svg>
