<?xml version="1.0" encoding="utf-8"?>
<!-- Generator: Adobe Illustrator 19.0.0, SVG Export Plug-In . SVG Version: 6.00 Build 0)  -->
<svg version="1.1" xmlns="http://www.w3.org/2000/svg" xmlns:xlink="http://www.w3.org/1999/xlink" x="0px" y="0px"
	 viewBox="0 0 1024 1024" style="enable-background:new 0 0 1024 1024;" xml:space="preserve">
<g id="_x30_">
</g>
<g id="_x33_">
	<g id="ARC_20_">
		<g id="XMLID_1_">
			<g>
				<path d="M561.5,655.1c23.8,83.4-24.5,170.3-107.8,194.1l-174,50C196.2,923,109.3,874.7,85.5,791.3
					C61.6,708,109.9,621,193.3,597.2l109.2-31.3c-2.2,26.7,1.8,53.6,11.5,78.6l-99.1,28.4c-41.6,11.9-65.6,55.2-53.8,96.8
					c11.9,41.6,55.2,65.6,96.8,53.8l174-50c41.6-11.9,65.6-55.2,53.8-96.8c-6.2-21.6-21.3-39.5-41.6-49.1c-1-0.7-1.9-1.4-2.8-2.2
					c-25-20.6-28.5-57.5-8-82.5C494.4,551.9,544.5,595.8,561.5,655.1z"/>
				<path d="M482.2,415.2l-71.6,126.3c-21.4,37.6-8.2,85.4,29.3,106.7c1.6,0.9,3.3,1.8,5,2.6c1,0.7,1.9,1.4,2.8,2.2
					c25,20.6,28.5,57.5,8,82.5c-19.3-2.8-37.8-9.2-54.7-18.9c-75.4-42.9-101.7-138.7-58.8-214.1l87.5-154.2
					C441.4,374.6,459.5,397.5,482.2,415.2z"/>
				<path d="M645.6,286.2c75.4,42.9,101.7,138.7,58.9,214.1l-89.3,157.5c-7.5,13.3-17,25.3-28,35.9c-0.9-33.4-11.2-65.9-29.8-93.6
					L636,461.4c21.3-37.4,8.4-84.9-28.9-106.5c-31.6-21.8-57.2-51-74.7-85.2C570.9,260.8,611.3,266.7,645.6,286.2z"/>
				<path d="M915.8,182.7c23.8,83.4-24.5,170.3-107.8,194.1l-65.4,18.8c-4.1-26.4-14.1-51.5-29.3-73.5l73.1-21
					c41.6-11.9,65.6-55.2,53.8-96.8c-11.9-41.6-55.2-65.6-96.8-53.8l-174.1,50c-41.6,11.9-65.6,55.2-53.8,96.8
					c6,21.1,20.6,38.7,40.3,48.5c31.7,19.5,56.4,48.5,70.5,82.9c-81.5,18.9-163.5-29.4-186.5-109.8
					c-23.8-83.4,24.5-170.3,107.8-194.1l174.1-50C805,51,891.9,99.3,915.8,182.7z"/>
			</g>
			<g>
			</g>
		</g>
	</g>
</g>
<g id="_x36_">
</g>
</svg>
