<?xml version="1.0" encoding="utf-8"?>
<!-- Generator: Adobe Illustrator 19.0.0, SVG Export Plug-In . SVG Version: 6.00 Build 0)  -->
<svg version="1.1" xmlns="http://www.w3.org/2000/svg" xmlns:xlink="http://www.w3.org/1999/xlink" x="0px" y="0px"
	 viewBox="0 0 1024 1024" style="enable-background:new 0 0 1024 1024;" xml:space="preserve">
<style type="text/css">
	.st0{fill:none;stroke:#000000;stroke-width:10;stroke-linecap:round;stroke-linejoin:round;stroke-miterlimit:10;}
</style>
<g id="_x30_">
</g>
<g id="_x33_">
	<g id="LINE_107_">
		<g id="XMLID_1_">
			<g>
				<rect x="236.4" y="374.2" width="78.7" height="39.4"/>
				<polygon points="236.4,374.2 236.4,413.6 177.4,413.6 177.4,472.6 138,472.6 138,413.6 79,413.6 79,374.2 138,374.2 138,315.2 
					177.4,315.2 177.4,374.2 				"/>
				<rect x="138" y="472.6" width="39.4" height="78.7"/>
				<rect x="374.2" y="472.6" width="39.4" height="78.7"/>
				<rect x="610.4" y="472.6" width="39.4" height="78.7"/>
				<rect x="610.4" y="236.4" width="39.4" height="78.7"/>
				<rect x="708.8" y="374.2" width="78.7" height="39.4"/>
				<polygon points="708.8,374.2 708.8,413.6 649.8,413.6 649.8,472.6 610.4,472.6 610.4,413.6 551.4,413.6 551.4,374.2 
					610.4,374.2 610.4,315.2 649.8,315.2 649.8,374.2 				"/>
				<rect x="472.6" y="374.2" width="78.7" height="39.4"/>
				<rect x="472.6" y="610.4" width="78.7" height="39.4"/>
				<rect x="708.8" y="610.4" width="78.7" height="39.4"/>
				<polygon points="708.8,610.4 708.8,649.8 649.8,649.8 649.8,708.8 610.4,708.8 610.4,649.8 551.4,649.8 551.4,610.4 
					610.4,610.4 610.4,551.4 649.8,551.4 649.8,610.4 				"/>
				<rect x="610.4" y="708.8" width="39.4" height="78.7"/>
				<rect x="374.2" y="708.8" width="39.4" height="78.7"/>
				<polygon points="472.6,610.4 472.6,649.8 413.6,649.8 413.6,708.8 374.2,708.8 374.2,649.8 315.2,649.8 315.2,610.4 
					374.2,610.4 374.2,551.4 413.6,551.4 413.6,610.4 				"/>
				<rect x="236.4" y="610.4" width="78.7" height="39.4"/>
				<polygon points="236.4,610.4 236.4,649.8 177.4,649.8 177.4,708.8 138,708.8 138,649.8 79,649.8 79,610.4 138,610.4 138,551.4 
					177.4,551.4 177.4,610.4 				"/>
				<rect x="138" y="708.8" width="39.4" height="78.7"/>
				<polygon points="236.4,846.6 236.4,886 177.4,886 177.4,945 138,945 138,886 79,886 79,846.6 138,846.6 138,787.6 177.4,787.6 
					177.4,846.6 				"/>
				<rect x="236.4" y="846.6" width="78.7" height="39.4"/>
				<polygon points="472.6,846.6 472.6,886 413.6,886 413.6,945 374.2,945 374.2,886 315.2,886 315.2,846.6 374.2,846.6 
					374.2,787.6 413.6,787.6 413.6,846.6 				"/>
				<rect x="472.6" y="846.6" width="78.7" height="39.4"/>
				<polygon points="708.8,846.6 708.8,886 649.8,886 649.8,945 610.4,945 610.4,886 551.4,886 551.4,846.6 610.4,846.6 
					610.4,787.6 649.8,787.6 649.8,846.6 				"/>
				<rect x="708.8" y="846.6" width="78.7" height="39.4"/>
				<polygon points="945,846.6 945,886 886,886 886,945 846.6,945 846.6,886 787.6,886 787.6,846.6 846.6,846.6 846.6,787.6 
					886,787.6 886,846.6 				"/>
				<rect x="846.6" y="708.8" width="39.4" height="78.7"/>
				<polygon points="945,610.4 945,649.8 886,649.8 886,708.8 846.6,708.8 846.6,649.8 787.6,649.8 787.6,610.4 846.6,610.4 
					846.6,551.4 886,551.4 886,610.4 				"/>
				<rect x="846.6" y="472.6" width="39.4" height="78.7"/>
				<polygon points="945,374.2 945,413.6 886,413.6 886,472.6 846.6,472.6 846.6,413.6 787.6,413.6 787.6,374.2 846.6,374.2 
					846.6,315.2 886,315.2 886,374.2 				"/>
				<rect x="846.6" y="236.4" width="39.4" height="78.7"/>
				<polygon points="945,138 945,177.4 886,177.4 886,236.4 846.6,236.4 846.6,177.4 787.6,177.4 787.6,138 846.6,138 846.6,79 
					886,79 886,138 				"/>
				<rect x="708.8" y="138" width="78.7" height="39.4"/>
				<polygon points="708.8,138 708.8,177.4 649.8,177.4 649.8,236.4 610.4,236.4 610.4,177.4 551.4,177.4 551.4,138 610.4,138 
					610.4,79 649.8,79 649.8,138 				"/>
				<rect x="472.6" y="138" width="78.7" height="39.4"/>
				<rect x="236.4" y="138" width="78.7" height="39.4"/>
				<polygon points="236.4,138 236.4,177.4 177.4,177.4 177.4,236.4 138,236.4 138,177.4 79,177.4 79,138 138,138 138,79 177.4,79 
					177.4,138 				"/>
				<rect x="138" y="236.4" width="39.4" height="78.7"/>
				<rect x="374.2" y="236.4" width="39.4" height="78.7"/>
				<polygon points="472.6,138 472.6,177.4 413.6,177.4 413.6,236.4 374.2,236.4 374.2,177.4 315.2,177.4 315.2,138 374.2,138 
					374.2,79 413.6,79 413.6,138 				"/>
				<polygon points="472.6,374.2 472.6,413.6 413.6,413.6 413.6,472.6 374.2,472.6 374.2,413.6 315.2,413.6 315.2,374.2 
					374.2,374.2 374.2,315.2 413.6,315.2 413.6,374.2 				"/>
			</g>
			<g>
				<polyline class="st0" points="79,787.6 138,787.6 177.4,787.6 236.4,787.6 315.2,787.6 374.2,787.6 413.6,787.6 472.6,787.6 
					551.4,787.6 610.4,787.6 649.8,787.6 708.8,787.6 787.6,787.6 846.6,787.6 886,787.6 945,787.6 				"/>
				<polyline class="st0" points="79,708.8 138,708.8 177.4,708.8 236.4,708.8 315.2,708.8 374.2,708.8 413.6,708.8 472.6,708.8 
					551.4,708.8 610.4,708.8 649.8,708.8 708.8,708.8 787.6,708.8 846.6,708.8 886,708.8 945,708.8 				"/>
				<polyline class="st0" points="79,551.4 138,551.4 177.4,551.4 236.4,551.4 315.2,551.4 374.2,551.4 413.6,551.4 472.6,551.4 
					551.4,551.4 610.4,551.4 649.8,551.4 708.8,551.4 787.6,551.4 846.6,551.4 886,551.4 945,551.4 				"/>
				<polyline class="st0" points="79,472.6 138,472.6 177.4,472.6 236.4,472.6 315.2,472.6 374.2,472.6 413.6,472.6 472.6,472.6 
					551.4,472.6 610.4,472.6 649.8,472.6 708.8,472.6 787.6,472.6 846.6,472.6 886,472.6 945,472.6 				"/>
				<polyline class="st0" points="787.6,79 787.6,138 787.6,177.4 787.6,236.4 787.6,315.2 787.6,374.2 787.6,413.6 787.6,472.6 
					787.6,551.4 787.6,610.4 787.6,649.8 787.6,708.8 787.6,787.6 787.6,846.6 787.6,886 787.6,945 				"/>
				<polyline class="st0" points="708.8,79 708.8,138 708.8,177.4 708.8,236.4 708.8,315.2 708.8,374.2 708.8,413.6 708.8,472.6 
					708.8,551.4 708.8,610.4 708.8,649.8 708.8,708.8 708.8,787.6 708.8,846.6 708.8,886 708.8,945 				"/>
				<polyline class="st0" points="551.4,79 551.4,138 551.4,177.4 551.4,236.4 551.4,315.2 551.4,374.2 551.4,413.6 551.4,472.6 
					551.4,551.4 551.4,610.4 551.4,649.8 551.4,708.8 551.4,787.6 551.4,846.6 551.4,886 551.4,945 				"/>
				<polyline class="st0" points="472.6,79 472.6,138 472.6,177.4 472.6,236.4 472.6,315.2 472.6,374.2 472.6,413.6 472.6,472.6 
					472.6,551.4 472.6,610.4 472.6,649.8 472.6,708.8 472.6,787.6 472.6,846.6 472.6,886 472.6,945 				"/>
				<polyline class="st0" points="315.2,79 315.2,138 315.2,177.4 315.2,236.4 315.2,315.2 315.2,374.2 315.2,413.6 315.2,472.6 
					315.2,551.4 315.2,610.4 315.2,649.8 315.2,708.8 315.2,787.6 315.2,846.6 315.2,886 315.2,945 				"/>
				<polyline class="st0" points="236.4,79 236.4,138 236.4,177.4 236.4,236.4 236.4,315.2 236.4,374.2 236.4,413.6 236.4,472.6 
					236.4,551.4 236.4,610.4 236.4,649.8 236.4,708.8 236.4,787.6 236.4,846.6 236.4,886 236.4,945 				"/>
				<polyline class="st0" points="79,315.2 138,315.2 177.4,315.2 236.4,315.2 315.2,315.2 374.2,315.2 413.6,315.2 472.6,315.2 
					551.4,315.2 610.4,315.2 649.8,315.2 708.8,315.2 787.6,315.2 846.6,315.2 886,315.2 945,315.2 				"/>
				<polyline class="st0" points="79,236.4 138,236.4 177.4,236.4 236.4,236.4 315.2,236.4 374.2,236.4 413.6,236.4 472.6,236.4 
					551.4,236.4 610.4,236.4 649.8,236.4 708.8,236.4 787.6,236.4 846.6,236.4 886,236.4 945,236.4 				"/>
			</g>
		</g>
	</g>
</g>
<g id="_x36_">
</g>
</svg>
