<?xml version="1.0" encoding="utf-8"?>
<!-- Generator: Adobe Illustrator 16.0.0, SVG Export Plug-In . SVG Version: 6.00 Build 0)  -->
<!DOCTYPE svg PUBLIC "-//W3C//DTD SVG 1.1//EN" "http://www.w3.org/Graphics/SVG/1.1/DTD/svg11.dtd">
<svg version="1.1" id="Layer_1" xmlns="http://www.w3.org/2000/svg" xmlns:xlink="http://www.w3.org/1999/xlink" x="0px" y="0px"
	 width="64px" height="64px" viewBox="0 0 64 64" enable-background="new 0 0 64 64" xml:space="preserve">
<g id="LINE_45_">
	<g id="XMLID_1_">
		<g>
			<path d="M53.049805,18.890137c0.299805,1.02002,0.459961,2.089844,0.459961,3.159668h-2.490234
				c0-0.839844-0.119141-1.659668-0.349609-2.459961L53.049805,18.890137z"/>
			<path d="M49.639648,13.580078c0.810547,0.699707,1.510742,1.509766,2.09082,2.410156l-2.100586,1.339844
				C49.19043,16.640137,48.639648,16,48.009766,15.459961L49.639648,13.580078z"/>
			<path d="M43.889648,10.959961c1.060547,0.149902,2.09082,0.450195,3.070313,0.899902l-1.040039,2.260254
				c-0.75-0.340332-1.549805-0.580078-2.379883-0.700195L43.889648,10.959961z"/>
			<path d="M41.05957,13.419922c-0.819336,0.120117-1.619141,0.359863-2.379883,0.700195l-1.029297-2.260254
				c0.969727-0.439941,2-0.75,3.05957-0.899902L41.05957,13.419922z"/>
			<path d="M34.969727,13.589844l1.629883,1.880371c-0.629883,0.539551-1.179688,1.169922-1.629883,1.869629L32.879883,16
				C33.459961,15.100098,34.160156,14.290039,34.969727,13.589844z"/>
			<path d="M11.200195,22.049805c0-1.069824,0.149902-2.139648,0.449707-3.159668l2.390137,0.699707
				c-0.22998,0.800293-0.350098,1.620117-0.350098,2.459961H11.200195z"/>
			<path d="M12.97998,15.990234c0.580078-0.900391,1.279785-1.710449,2.089844-2.410156l1.630371,1.879883
				C16.069824,16,15.52002,16.640137,15.069824,17.330078L12.97998,15.990234z"/>
			<path d="M21.160156,13.419922c-0.820313,0.120117-1.620117,0.359863-2.380371,0.700195L17.75,11.859863
				c0.970215-0.449707,2-0.75,3.060059-0.899902L21.160156,13.419922z"/>
			<path d="M24,10.959961c1.060059,0.149902,2.089844,0.459961,3.060059,0.899902l-1.040039,2.260254
				c-0.75-0.340332-1.549805-0.580078-2.379883-0.700195L24,10.959961z"/>
			<path d="M29.740234,13.589844C30.549805,14.290039,31.25,15.100098,31.830078,16l-2.100098,1.339844
				c-0.450195-0.699707-0.989746-1.330078-1.620117-1.869629L29.740234,13.589844z"/>
			<polygon points="33.599609,39.469727 33.599609,41.959961 32.350098,41.959961 31.109863,41.959961 31.109863,39.469727 			"/>
			<rect x="31.109863" y="34.490234" width="2.489746" height="2.490234"/>
			<rect x="31.109863" y="29.509766" width="2.489746" height="2.490234"/>
			<path d="M58.69043,32.540039c-7.420898-5.02002-16.130859-7.810059-25.09082-8.049805v2.529785h-2.489746v-2.529785
				c-7.709961,0.209961-15.239746,2.299805-21.929688,6.089844c-1.080078,0.609863-2.140137,1.259766-3.17041,1.959961
				l12.040039,15.919922c1.430176-0.889648,2.94043-1.639648,4.510254-2.25L9.959961,32l16.330078,13.070313
				c2-0.459961,4.040039-0.69043,6.060059-0.69043c5.02002,0,9.97998,1.389648,14.310059,4.080078L58.69043,32.540039z
				 M33.599609,22c10.350586,0.259766,20.360352,3.759766,28.620117,10L47.209961,51.849609
				c-5.240234-3.959961-11.849609-5.65918-18.359863-4.729492l4.169434,3.330078
				c0.600586,0.479492,0.950195,1.209961,0.950195,1.979492c0,0.720703-0.30957,1.410156-0.849609,1.890625
				c-1.050293,0.919922-2.640137,0.830078-3.570313-0.220703l-5.219727-5.889648
				C21.870117,49.05957,19.569824,50.290039,17.5,51.849609L2.490234,32C10.75,25.759766,20.759766,22.259766,31.109863,22
				v-2.439941h2.489746V22z"/>
		</g>
		<g>
		</g>
	</g>
</g>
</svg>
