<?xml version="1.0" encoding="utf-8"?>
<!-- Generator: Adobe Illustrator 19.0.0, SVG Export Plug-In . SVG Version: 6.00 Build 0)  -->
<svg version="1.1" xmlns="http://www.w3.org/2000/svg" xmlns:xlink="http://www.w3.org/1999/xlink" x="0px" y="0px"
	 viewBox="0 0 1024 1024" style="enable-background:new 0 0 1024 1024;" xml:space="preserve">
<g id="_x30_">
</g>
<g id="_x33_">
	<g id="LINE_5_">
		<g id="XMLID_1_">
			<g>
				<path d="M943.7,872c3.8,25-2.7,46.9-19.6,65.8c-18.9,16.9-40.8,23.5-65.8,19.6c-25-3.8-48.6-11.3-70.9-22.5
					c-22.3-11.2-44.6-27.9-67-50.2c-22.3-22.3-43.4-51.6-63.3-88c-19.9-36.3-38.5-64.5-55.9-84.7c-17.4-20.1-50.2-21.8-98.5-5.2
					s-81.7,25.7-100.4,27.2c-55.8-55.8-97.6-97.7-125.5-125.6s-55.8-55.8-83.7-83.7c-27.9-27.9-79-32.2-153.4-12.8
					c26.3-78.7,64-143.7,113.1-194.9c49.2-51.2,87-90.1,113.5-116.6c26.5-26.5,66.3-66.3,119.3-119.3L720.3,416
					c-1.5,18.6-10.5,52.1-27.2,100.3c-16.6,48.3-14.9,81.1,5.2,98.5c20.1,17.4,48.3,36,84.6,55.9c36.3,19.9,65.7,41,88,63.3
					s39.1,44.6,50.2,67C932.4,823.3,939.9,847,943.7,872z M887.2,853.7c0-26.1-21.2-47.3-47.3-47.3c-26.1,0-47.3,21.2-47.3,47.3
					c0,26.1,21.2,47.3,47.3,47.3C866.1,900.9,887.2,879.8,887.2,853.7z M673,416l-63.8-63.8L338.5,622.9l63.8,63.8L673,416z
					 M513.2,303.4c8.7-6.3,10.2-16.2,4.4-29.7c-4.4-10.3-12.1-22.4-23.1-36.3l-109-109c-45.1,45.1-87.8,87.5-128.1,127.2
					c-40.3,39.6-73.5,72.6-99.8,98.8c-26.2,26.3-39.4,65.6-39.4,118.1c26.3,0,39.4,0,39.4,0s6.3,1.2,18.8,3.6
					c12.6,2.4,27.8,12.5,45.7,30.4c38.2,22.8,62.7,30,73.5,21.8c10.9-8.3,11.8-21.4,2.9-39.3c-8.9-17.9-19.3-34-31.1-48.5
					c-11.8-14.4-18.5-30.1-20.1-47c-1.6-16.9,6.1-23.1,23-18.6c16.9,4.5,32.5,12.5,46.8,24.1c14.3,11.6,32.8,19,55.5,22.2
					c22.7,3.2,39.8-1.6,51.1-14.3c11.4-12.7,15.6-26.6,12.7-42c-2.9-15.3-9.9-29.9-21-43.9c-11.1-14-12.6-25.7-4.4-35.2
					c8.2-9.5,18.2-9.1,30.1,1.2c11.9,10.3,24.7,17.1,38.4,20.6C493.3,311.2,504.5,309.7,513.2,303.4z"/>
			</g>
			<g>
			</g>
		</g>
	</g>
</g>
<g id="_x36_">
</g>
</svg>
