<?xml version="1.0" encoding="utf-8"?>
<!-- Generator: Adobe Illustrator 19.0.0, SVG Export Plug-In . SVG Version: 6.00 Build 0)  -->
<svg version="1.1" xmlns="http://www.w3.org/2000/svg" xmlns:xlink="http://www.w3.org/1999/xlink" x="0px" y="0px"
	 viewBox="0 0 1024 1024" style="enable-background:new 0 0 1024 1024;" xml:space="preserve">
<g id="_x30_">
</g>
<g id="_x33_">
	<g id="LINE_22_">
		<g id="XMLID_1_">
			<g>
				<path d="M899.6,227.6c20,8.6,29.2,31.7,20.7,51.7L817.7,518.7L607.3,709.9L428.8,872.3c-26.1,23.7-64.8,27.2-94.7,8.5
					l-234-146.3c-17.2-10.8-23.4-32.8-14.3-51l102.1-204.2l247.5,141.5c16.3,9.3,23.8,28.8,17.8,46.6l-59.8,179.4
					c12.1,8,27.6,8.8,40.3,1.9l65.8-202c2.1-6.5,5.9-12.3,10.9-16.9l202.6-184.2l-13.5-5.6l-186,138c-10.9,7.2-24.6,8.6-36.7,3.6
					L219.6,455.5L424,302.2l218-163.5c11.3-8.5,26.2-10.2,39.1-4.7L899.6,227.6z M801.3,507l99.4-231.8L746.1,416.1l-88.7,221.7
					L801.3,507z M675,427.7l189.1-172.4l-198.5-85.1L463.4,321.9L675,427.7z"/>
			</g>
			<g>
			</g>
		</g>
	</g>
</g>
<g id="_x36_">
</g>
</svg>
