<?xml version="1.0" encoding="utf-8"?>
<!-- Generator: Adobe Illustrator 19.0.0, SVG Export Plug-In . SVG Version: 6.00 Build 0)  -->
<svg version="1.1" xmlns="http://www.w3.org/2000/svg" xmlns:xlink="http://www.w3.org/1999/xlink" x="0px" y="0px"
	 viewBox="0 0 1024 1024" style="enable-background:new 0 0 1024 1024;" xml:space="preserve">
<g id="_x30_">
</g>
<g id="_x33_">
	<g id="LINE_41_">
		<g id="XMLID_1_">
			<g>
				<path d="M945,945H79V79l126.3,126.3l-54.1,54.1l36.1,36.1l54.1-54.1l36.1,36.1l-54.1,54.1l36.1,36.1l54.1-54.1l36.1,36.1
					l-90.2,90.2l36.1,36.1l90.2-90.2l36.1,36.1l-54.1,54.1l36.1,36.1l54.1-54.1L494,494l-90.2,90.2l36.1,36.1L530,530l36.1,36.1
					L512,620.3l36.1,36.1l54.1-54.1l36.1,36.1l-90.2,90.2l36.1,36.1l90.2-90.2l36.1,36.1l-54.1,54.1l36.1,36.1l54.1-54.1l36.1,36.1
					l-54.1,54.1l36.1,36.1l54.1-54.1L945,945z M259.4,764.6h250l-250-250V764.6z"/>
			</g>
			<g>
			</g>
		</g>
	</g>
</g>
<g id="_x36_">
</g>
</svg>
