<?xml version="1.0" encoding="utf-8"?>
<!-- Generator: Adobe Illustrator 16.0.0, SVG Export Plug-In . SVG Version: 6.00 Build 0)  -->
<!DOCTYPE svg PUBLIC "-//W3C//DTD SVG 1.1//EN" "http://www.w3.org/Graphics/SVG/1.1/DTD/svg11.dtd">
<svg version="1.1" id="Layer_1" xmlns="http://www.w3.org/2000/svg" xmlns:xlink="http://www.w3.org/1999/xlink" x="0px" y="0px"
	 width="64px" height="64px" viewBox="0 0 64 64" enable-background="new 0 0 64 64" xml:space="preserve">
<g id="CIRCLE">
	<g id="XMLID_1_">
		<g>
			<path d="M58.339844,29.049805v4.980469h-9.959961c0.240234-1.650391,0.240234-3.330078,0-4.980469H58.339844z"/>
			<path d="M55.299805,18.759766l1.910156,4.600098l-9.200195,3.810059c-0.419922-1.620117-1.05957-3.160156-1.910156-4.600098
				L55.299805,18.759766z"/>
			<path d="M57.209961,39.709961l-1.910156,4.599609L46.099609,40.5c0.850586-1.429688,1.490234-2.980469,1.910156-4.589844
				L57.209961,39.709961z"/>
			<path d="M52.080078,13.939941l-7.040039,7.040039c-1-1.330078-2.19043-2.52002-3.520508-3.52002l7.040039-7.040039
				L52.080078,13.939941z"/>
			<path d="M52.080078,49.129883l-3.520508,3.520508l-7.040039-7.030273c1.330078-1,2.520508-2.19043,3.520508-3.520508
				L52.080078,49.129883z"/>
			<path d="M30.959961,16.609863c8.25,0,14.929688,6.680176,14.929688,14.930176c0,8.240234-6.679688,14.929688-14.929688,14.929688
				s-14.930176-6.689453-14.930176-14.929688C16.029785,23.290039,22.709961,16.609863,30.959961,16.609863z"/>
			<path d="M43.740234,7.200195l-3.810547,9.199707c-1.439453-0.850098-2.989258-1.5-4.599609-1.909668l3.80957-9.200195
				L43.740234,7.200195z"/>
			<path d="M39.929688,46.679688l3.810547,9.200195l-4.600586,1.900391l-3.80957-9.200195
				C36.94043,48.169922,38.490234,47.530273,39.929688,46.679688z"/>
			<path d="M33.450195,48.959961v9.950195h-4.97998v-9.950195C30.120117,49.19043,31.799805,49.19043,33.450195,48.959961z"/>
			<path d="M33.450195,4.160156v9.959961c-1.650391-0.240234-3.330078-0.240234-4.97998,0V4.160156H33.450195z"/>
			<path d="M22.779785,5.290039l3.810059,9.200195c-1.609863,0.409668-3.159668,1.05957-4.599609,1.909668l-3.800293-9.199707
				L22.779785,5.290039z"/>
			<path d="M26.589844,48.580078l-3.810059,9.200195l-4.589844-1.900391l3.800293-9.200195
				C23.430176,47.530273,24.97998,48.169922,26.589844,48.580078z"/>
			<path d="M13.359863,10.419922l7.040039,7.040039c-1.330078,1-2.52002,2.189941-3.52002,3.52002l-7.040039-7.040039
				L13.359863,10.419922z"/>
			<path d="M20.399902,45.620117l-7.040039,7.030273l-3.52002-3.520508l7.040039-7.030273
				C17.879883,43.429688,19.069824,44.620117,20.399902,45.620117z"/>
			<path d="M6.620117,18.759766l9.199707,3.810059c-0.849609,1.439941-1.489746,2.97998-1.909668,4.600098l-9.189941-3.810059
				L6.620117,18.759766z"/>
			<path d="M15.819824,40.5l-9.199707,3.80957l-1.899902-4.599609l9.189941-3.799805
				C14.330078,37.519531,14.970215,39.070313,15.819824,40.5z"/>
			<path d="M13.540039,29.049805c-0.240234,1.650391-0.240234,3.330078,0,4.980469H3.580078v-4.980469H13.540039z"/>
		</g>
		<g>
		</g>
	</g>
</g>
</svg>
