<?xml version="1.0" encoding="utf-8"?>
<!-- Generator: Adobe Illustrator 16.0.0, SVG Export Plug-In . SVG Version: 6.00 Build 0)  -->
<!DOCTYPE svg PUBLIC "-//W3C//DTD SVG 1.1//EN" "http://www.w3.org/Graphics/SVG/1.1/DTD/svg11.dtd">
<svg version="1.1" id="Layer_1" xmlns="http://www.w3.org/2000/svg" xmlns:xlink="http://www.w3.org/1999/xlink" x="0px" y="0px"
	 width="64px" height="64px" viewBox="0 0 64 64" enable-background="new 0 0 64 64" xml:space="preserve">
<g id="ELLIPSE_1_">
	<g id="XMLID_1_">
		<g>
			<path d="M22.049805,12.089844c1.680176,0.840332,1.930176,3.75,0.550293,6.5c-1.370117,2.75-3.850098,4.300293-5.530273,3.459961
				c-1.689941-0.849609-1.939941-3.759766-0.560059-6.509766C17.879883,12.790039,20.359863,11.25,22.049805,12.089844z"/>
			<path d="M51.219727,38.610352c4.459961,2.779297,6.410156,5.839844,5.850586,9.169922
				c-0.560547,3.339844-2.780273,5.620117-6.660156,6.830078c-3.879883,1.219727-8.540039,1.629883-13.990234,1.25
				C31.390137,55.509766,25.830078,53.780273,19.75,50.660156c10.890137,5.219727,24.120117,1.200195,30.19043-9.44043
				C50.419922,40.370117,50.849609,39.5,51.219727,38.610352z"/>
			<path d="M28.450195,4.169922c12.399414,0,22.459961,10.060059,22.459961,22.459961
				c0,12.410156-10.060547,22.459961-22.459961,22.459961c-12.400391,0-22.459961-10.049805-22.459961-22.459961
				C5.990234,14.22998,16.049805,4.169922,28.450195,4.169922z M28.359863,25.870117
				C32.47998,21.740234,33,15.580078,29.509766,12.089844c-3.47998-3.47998-9.649902-2.969727-13.769531,1.160156
				c-4.130371,4.120117-4.650391,10.290039-1.160156,13.77002C18.060059,30.509766,24.22998,29.990234,28.359863,25.870117z"/>
		</g>
		<g>
		</g>
	</g>
</g>
</svg>
