<?xml version="1.0" encoding="utf-8"?>
<!-- Generator: Adobe Illustrator 15.1.0, SVG Export Plug-In . SVG Version: 6.00 Build 0)  -->
<!DOCTYPE svg PUBLIC "-//W3C//DTD SVG 1.1//EN" "http://www.w3.org/Graphics/SVG/1.1/DTD/svg11.dtd">
<svg version="1.1" id="Layer_1" xmlns="http://www.w3.org/2000/svg" xmlns:xlink="http://www.w3.org/1999/xlink" x="0px" y="0px"
	 width="128px" height="128px" viewBox="0 0 128 128" enable-background="new 0 0 128 128" xml:space="preserve">
<g id="LINE_85_">
	<g id="XMLID_1_">
		<g>
			<path d="M122.73,86.55v4.98h-4.98v4.979h-9.97V91.53h-9.96v4.979h-9.96V91.53H77.9v4.979h-9.96V91.53L65.64,90l2.301-3.45V41.72
				l-2.301-1.53l2.301-3.45V21.8l4.979-4.98l4.98,4.98v14.94h9.96V21.8l4.979-4.98l4.98,4.98v14.94h9.96V21.8l4.979-4.98l4.99,4.98
				v14.94h4.98v4.98h-4.98v44.83H122.73z M107.78,86.55V41.72h-9.96v44.83H107.78z M87.86,86.55V41.72H77.9v44.83H87.86z"/>
			<path d="M67.94,91.53l-9.96,14.939v4.98h-9.96v-4.98h-9.96v4.98h-9.97v-4.98h-9.96v4.98H8.17v-4.98H3.19v-4.979h4.98V56.66H3.19
				v-4.98h4.98V36.74l4.98-4.98l4.98,4.98v14.94h9.96V36.74l4.99-4.98l4.98,4.98v14.94h9.96V36.74L53,31.76l4.98,4.98v14.94
				l7.66-11.49l2.301,1.53l-9.96,14.94v44.83L65.64,90L67.94,91.53z M48.02,101.49V56.66h-9.96v44.83H48.02z M28.09,101.49V56.66
				h-9.96v44.83H28.09z"/>
		</g>
		<g>
		</g>
	</g>
</g>
</svg>
