<?xml version="1.0" encoding="utf-8"?>
<!-- Generator: Adobe Illustrator 15.1.0, SVG Export Plug-In . SVG Version: 6.00 Build 0)  -->
<!DOCTYPE svg PUBLIC "-//W3C//DTD SVG 1.1//EN" "http://www.w3.org/Graphics/SVG/1.1/DTD/svg11.dtd">
<svg version="1.1" id="Layer_1" xmlns="http://www.w3.org/2000/svg" xmlns:xlink="http://www.w3.org/1999/xlink" x="0px" y="0px"
	 width="128px" height="128px" viewBox="0 0 128 128" enable-background="new 0 0 128 128" xml:space="preserve">
<g id="SPLINE_56_">
	<g id="XMLID_1_">
		<g>
			<path d="M48.53,85.05l6.05-1.87l-0.09-0.29l13.46-4.17c1.56-0.489,3.53-0.6,5.91-0.319l1.319,4.359
				c0.311,1.08,0.44,2.061,0.4,2.95c-2.55-0.85-5.07-0.88-7.54-0.1l-10.91,3.55l-27.24,8.87c-4.36,1.41-7.02,3.83-8,7.27
				c-0.37,1.26-0.42,2.63-0.17,4.09c0.65,4.221,2.81,6.86,6.48,7.91c3.5,1,7.49,0.681,11.96-0.97l35.31-13.01
				c3.21-1.17,5.33-3.79,6.36-7.84c0.05-0.2,0.04-1.33-0.04-3.391c0.63-1.57,1.03-2.87,1.2-3.88c0.2-0.93,0.24-2.09,0.14-3.479
				c-0.02-0.33-0.05-0.65-0.09-0.971c-0.07-0.67-0.18-1.38-0.31-2.14c5.659,3.689,7.5,8.88,5.529,15.59
				c-1.92,6.32-5.67,10.55-11.26,12.69L41.71,123.22c-4.86,1.851-10,2.011-15.42,0.46c-6.47-1.85-10.22-6.25-11.24-13.189
				c-0.36-2.4-0.24-4.65,0.36-6.771c1.8-6.3,6.64-10.71,14.52-13.22l18.51-5.74L48.53,85.05z"/>
			<path d="M54.49,82.89l-6.05,1.87l-9.57-30.94c-1.21-3.97-1.82-7.88-1.82-11.74c0.58,0.9,1.67,2.25,3.28,4.05
				c0.75,0.66,1.97,1.37,3.65,2.12c-0.01,0.85,0.15,2.24,0.48,4.17L54.49,82.89z"/>
			<path d="M83.13,84.73c0.101,1.619-0.09,3.3-0.59,5.029c-1.8,6.3-6.15,9.71-13.04,10.23c-2.63,0.189-5.18-0.07-7.65-0.78
				c-5-1.43-8.58-3.85-10.75-7.26l6.27-2.05c1.5,2.319,3.7,3.899,6.6,4.72c1.549,0.45,3.06,0.54,4.53,0.27
				c4.18-0.77,6.74-2.77,7.66-6.01c0.59-2.03,0.43-4.42-0.46-7.16l-1.13-3.55H74.56L63.94,44.98l-0.79-2.48
				c-1.18-3.83-4.11-6.42-8.8-7.76c-0.86-0.25-1.74-0.38-2.61-0.4c-3.23-0.2-5.39,0.83-6.48,3.08c-0.41-0.52-0.78-1.77-1.1-3.75
				c0.07-0.97,0.19-2.18,0.39-3.62c0.75-0.66,2.93-1.4,6.56-2.24c1.72-0.12,3.47,0.07,5.27,0.59c3.56,1.01,6.83,3.11,9.84,6.29
				c1.38,1.39,2.521,2.76,3.4,4.12c0.88,1.35,1.5,2.69,1.87,4.02l11.18,39.18c0.17,0.57,0.29,1.16,0.37,1.75
				C83.08,84.08,83.11,84.4,83.13,84.73z"/>
			<path d="M69.61,38.72l27.55-10.44c2.88-1.07,4.899-3.62,6.05-7.66c1.46-5.1-0.68-8.47-6.44-10.12
				c-2.409-0.69-4.779-0.69-7.09,0.01L51.23,22.49c-4.17,1.31-6.76,3.78-7.8,7.4c-0.35,1.22-0.48,2.49-0.41,3.8
				c0.23,4.38,2.29,7.12,6.17,8.23c3.29,0.94,7.28,0.71,11.99-0.68c0.28,0.35,0.68,1.05,1.21,2.1c0.19,0.44,0.42,1.08,0.69,1.92
				c0.16,0.5,0.33,1.08,0.52,1.73c-6.51,2.12-12.14,2.51-16.89,1.15c-0.81-0.23-1.57-0.51-2.28-0.83
				c-4.79-2.14-7.48-6.25-8.07-12.35c-0.22-2.27-0.03-4.45,0.57-6.55c1.99-6.95,6.75-11.52,14.3-13.69l38.2-11.08
				C91.94,2.92,95.03,3.08,98.7,4.13c4.12,1.17,7.22,3.11,9.3,5.79c2.57,3.32,3.16,7.34,1.75,12.08
				c-1.93,6.36-5.7,10.57-11.33,12.65l-26.26,9.91c-0.17-0.71-0.54-1.82-1.11-3.32c-0.3-0.63-0.78-1.45-1.399-2.45
				C69.64,38.77,69.63,38.74,69.61,38.72z"/>
		</g>
		<g>
		</g>
	</g>
</g>
</svg>
