<?xml version="1.0" encoding="utf-8"?>
<!-- Generator: Adobe Illustrator 15.1.0, SVG Export Plug-In . SVG Version: 6.00 Build 0)  -->
<!DOCTYPE svg PUBLIC "-//W3C//DTD SVG 1.1//EN" "http://www.w3.org/Graphics/SVG/1.1/DTD/svg11.dtd">
<svg version="1.1" id="Layer_1" xmlns="http://www.w3.org/2000/svg" xmlns:xlink="http://www.w3.org/1999/xlink" x="0px" y="0px"
	 width="128px" height="128px" viewBox="0 0 128 128" enable-background="new 0 0 128 128" xml:space="preserve">
<g id="LINE_32_">
	<g id="XMLID_1_">
		<g>
			<path d="M120.7,121.71l-4.021,4.021C107.3,114.84,101.19,101.52,99.05,87.31h-26.6V75.97H32.78v11.34H4.45V58.98h11.33V30.64
				H4.45V2.31h28.33v28.33H21.45v28.34h11.33v11.33h39.67V58.98h27.68c2.771-12.11,8.45-23.35,16.55-32.76l4.021,4.02
				c-4.66,5.48-8.45,11.63-11.25,18.24c2.87,2.09,5.399,4.62,7.49,7.49c11.04,15.18,7.689,36.45-7.49,47.5
				C112.25,110.08,116.04,116.23,120.7,121.71z M95.11,81.64v-17h-17v17H95.11z M27.11,81.64v-17h-17v17H27.11z M27.11,24.98v-17
				h-17v17H27.11z"/>
		</g>
		<g>
		</g>
	</g>
</g>
</svg>
