<?xml version="1.0" encoding="utf-8"?>
<!-- Generator: Adobe Illustrator 15.1.0, SVG Export Plug-In . SVG Version: 6.00 Build 0)  -->
<!DOCTYPE svg PUBLIC "-//W3C//DTD SVG 1.1//EN" "http://www.w3.org/Graphics/SVG/1.1/DTD/svg11.dtd">
<svg version="1.1" id="Layer_1" xmlns="http://www.w3.org/2000/svg" xmlns:xlink="http://www.w3.org/1999/xlink" x="0px" y="0px"
	 width="128px" height="128px" viewBox="0 0 128 128" enable-background="new 0 0 128 128" xml:space="preserve">
<g id="SPLINE_15_">
	<g id="XMLID_1_">
		<g>
			<polygon points="32.04,15.85 34.28,18.18 22.44,30.3 20.2,27.94 			"/>
			<path d="M73.23,19.86c-2.921-1.16-5.921-1.75-9.03-1.75c-4.67,0-8.51,1.48-11.51,4.44L26.74,48.5l2.71,2.71l-9.86,9.9L3,44.56
				l9.85-9.25l3.05,2.98l25.82-26.27c3.57-3.58,7.38-5.37,11.44-5.37C60.01,6.65,66.7,11.05,73.23,19.86z"/>
			<path d="M121.95,28.97c0,1.63,0,3.26,0,4.89c0,4.79-1.62,8.86-4.87,12.2c-3.24,3.34-7.19,5.02-11.83,5.02
				c-1.7,0-3.39-0.33-5.06-0.99L83.3,66.78l37.22,36.54l-15.109,15.12L69.78,80.21L55.22,96.13c0.54,1.7,0.81,3.41,0.81,5.13
				c0,4.811-1.62,8.87-4.85,12.19c-3.23,3.33-7.2,4.99-11.9,4.99c-1.59,0-3.17-0.24-4.75-0.7l12.9-13.17L33.92,91.63L20.2,104.1
				c0-1.58,0-3.159,0-4.739c0-4.66,1.65-8.62,4.95-11.87c3.3-3.26,7.32-4.88,12.07-4.88c1.61,0,3.21,0.279,4.81,0.85l15.56-16.19
				L34.48,42.12L46.4,30.21L70.49,54.3l15.63-17.04c0-1.57,0-3.16,0-4.77c0-4.85,1.74-8.94,5.2-12.26s7.66-4.98,12.609-4.98
				c1.73,0,3.44,0.23,5.12,0.69L96,29.2l12.43,13.03L121.95,28.97z"/>
		</g>
		<g>
		</g>
	</g>
</g>
</svg>
