<?xml version="1.0" encoding="utf-8"?>
<!-- Generator: Adobe Illustrator 15.1.0, SVG Export Plug-In . SVG Version: 6.00 Build 0)  -->
<!DOCTYPE svg PUBLIC "-//W3C//DTD SVG 1.1//EN" "http://www.w3.org/Graphics/SVG/1.1/DTD/svg11.dtd">
<svg version="1.1" id="Layer_1" xmlns="http://www.w3.org/2000/svg" xmlns:xlink="http://www.w3.org/1999/xlink" x="0px" y="0px"
	 width="128px" height="128px" viewBox="0 0 128 128" enable-background="new 0 0 128 128" xml:space="preserve">
<g id="LINE_5_">
	<g id="XMLID_1_">
		<g>
			<path d="M125.39,43.54v8.78l-2.1,1.32c0.06,9.36-0.771,15.81-2.5,19.34C116.42,81.84,109.46,86.27,99.9,86.27
				c-12.261,0-20.54-3.859-24.841-11.579c-2.55-4.61-4.02-12.15-4.409-22.63l1.84-3.16c-2.101-1.76-4.82-2.63-8.16-2.63
				c-3.33,0-6.05,0.87-8.16,2.63l1.85,3.16c-0.4,10.48-1.87,18.02-4.41,22.63c-4.3,7.72-12.58,11.579-24.84,11.579
				c-9.56,0-16.52-4.43-20.89-13.289C6.15,69.45,5.31,63,5.38,53.64l-2.11-1.32v-8.78c11.37-3.8,20.55-5.7,27.57-5.7
				c7,0,14.86,1.56,23.59,4.68c3.55-1.71,6.85-2.57,9.9-2.57c3.05,0,6.35,0.86,9.91,2.57c8.72-3.12,16.59-4.68,23.58-4.68
				C104.84,37.84,114.03,39.74,125.39,43.54z M91.7,44.49c-2.61-0.13-4.83,0.08-6.67,0.63c-2.13,0.65-3.44,1.09-3.92,1.31
				c-1.141,0.62-2.091,1.56-2.86,2.83c-0.86,1.49-1.28,4.92-1.28,10.3c0,3.99,0.88,7.82,2.66,11.48c1.19-6.43,2.63-11.66,4.33-15.71
				C85.66,51.28,88.24,47.67,91.7,44.49z M26.43,44.49c-2.61-0.13-4.83,0.08-6.67,0.63c-2.13,0.65-3.44,1.09-3.92,1.31
				c-1.14,0.62-2.09,1.56-2.86,2.83c-0.86,1.49-1.28,4.92-1.28,10.3c0,3.99,0.88,7.82,2.66,11.48c1.19-6.43,2.63-11.66,4.33-15.71
				C20.39,51.28,22.97,47.67,26.43,44.49z"/>
		</g>
		<g>
		</g>
	</g>
</g>
</svg>
