<?xml version="1.0" encoding="utf-8"?>
<!-- Generator: Adobe Illustrator 15.1.0, SVG Export Plug-In . SVG Version: 6.00 Build 0)  -->
<!DOCTYPE svg PUBLIC "-//W3C//DTD SVG 1.1//EN" "http://www.w3.org/Graphics/SVG/1.1/DTD/svg11.dtd">
<svg version="1.1" id="Layer_1" xmlns="http://www.w3.org/2000/svg" xmlns:xlink="http://www.w3.org/1999/xlink" x="0px" y="0px"
	 width="128px" height="128px" viewBox="0 0 128 128" enable-background="new 0 0 128 128" xml:space="preserve">
<g id="LINE_55_">
	<g id="XMLID_1_">
		<g>
			<path d="M79.15,74.11v5.72l3.979,1.56l3.14-4.489L79.15,74.11z M91.95,84.85l4.189-4.08L89.82,78.29l-3.141,4.49L91.95,84.85z
				 M98.97,80.56l-22.3,25.82V58.71L114.2,29.8L98.97,80.56z"/>
			<path d="M35.33,83.06l9.96-5.14l-5.91-2.939l-9.61,4.96L35.33,83.06z M57.81,71.46l-6.85-2.45l-4.88,2.51l6.33,2.73L57.81,71.46z
				 M53.72,52.84l1.23,14.11l5.33-0.15L59.3,55.59L53.72,52.84z M68.34,69.87l-3.09-1.19l-5.72,3.46l8.81,3.45V69.87z M70.82,58.71
				v50.09L27.23,80.56L12,29.8L70.82,58.71z"/>
			<path d="M50.55,16.53l0.72,8.32l5.51,1.83l-0.73-8.32L50.55,16.53z M73.75,53.64L18.92,27.13l33.53-13.25l54.83,13.25
				L73.75,53.64z M58.26,43.61l-0.92-10.48l-5.57-2.56l0.91,10.34L58.26,43.61z"/>
			<path d="M104.09,83.89l17.57-58.56L52.45,7.76L4.54,25.33l17.57,58.56l51.64,35.13L104.09,83.89z M52.31,4.98L125,23.44
				L106.47,85.2l-32.26,37.35L19.83,85.56L1.27,23.7L52.31,4.98z"/>
		</g>
		<g>
		</g>
	</g>
</g>
</svg>
