<?xml version="1.0" encoding="utf-8"?>
<!-- Generator: Adobe Illustrator 19.0.0, SVG Export Plug-In . SVG Version: 6.00 Build 0)  -->
<svg version="1.1" id="Layer_1" xmlns="http://www.w3.org/2000/svg" xmlns:xlink="http://www.w3.org/1999/xlink" x="0px" y="0px"
	 viewBox="0 0 512 512" style="enable-background:new 0 0 512 512;" xml:space="preserve">
<style type="text/css">
	.st0{fill:none;stroke:#000000;stroke-width:3;stroke-linecap:round;stroke-linejoin:round;stroke-miterlimit:10;}
</style>
<g id="LINE_29_">
	<g id="XMLID_1_">
		<g id="XMLID_4_">
			<path id="XMLID_6_" d="M371.6,65.6l115.1,172.7l-82,65.6l43.6,30.4l-57.6,19.2V411l-191.9,76.7l-38.4-95.9l-76.8-19.2l-57.6-211
				l95.9,38.4L103,84.8l191.9-57.6v134.3L371.6,65.6z M461,234.3L370.2,98.1l-63.8,79.7l81.9,114.6L461,234.3z M218.1,395.3
				l197.3-71.6l-36.7-23.4l-190.7,70.3L218.1,395.3z M275.6,167.9V53l-151,45.3l18.9,113.6L275.6,167.9z M174.7,375.5l-52-154.7
				l-67.9-27.1l44.5,163L174.7,375.5z"/>
		</g>
		<g id="XMLID_5_">
			<line id="XMLID_95_" class="st0" x1="83.8" y1="372.6" x2="26.2" y2="161.5"/>
			<line id="XMLID_94_" class="st0" x1="26.2" y1="161.5" x2="122.2" y2="199.9"/>
			<line id="XMLID_93_" class="st0" x1="122.2" y1="199.9" x2="103" y2="84.8"/>
			<line id="XMLID_92_" class="st0" x1="103" y1="84.8" x2="294.8" y2="27.2"/>
			<line id="XMLID_91_" class="st0" x1="294.8" y1="27.2" x2="294.8" y2="161.5"/>
			<line id="XMLID_90_" class="st0" x1="294.8" y1="161.5" x2="371.6" y2="65.6"/>
			<line id="XMLID_89_" class="st0" x1="371.6" y1="65.6" x2="486.7" y2="238.3"/>
			<line id="XMLID_88_" class="st0" x1="486.7" y1="238.3" x2="404.7" y2="303.8"/>
			<line id="XMLID_87_" class="st0" x1="404.7" y1="303.8" x2="448.3" y2="334.2"/>
			<line id="XMLID_86_" class="st0" x1="448.3" y1="334.2" x2="390.8" y2="353.4"/>
			<line id="XMLID_85_" class="st0" x1="390.8" y1="353.4" x2="390.8" y2="411"/>
			<line id="XMLID_84_" class="st0" x1="390.8" y1="411" x2="198.9" y2="487.7"/>
			<line id="XMLID_83_" class="st0" x1="198.9" y1="487.7" x2="160.5" y2="391.8"/>
			<line id="XMLID_82_" class="st0" x1="160.5" y1="391.8" x2="83.8" y2="372.6"/>
			<line id="XMLID_81_" class="st0" x1="54.9" y1="193.6" x2="99.3" y2="356.7"/>
			<line id="XMLID_80_" class="st0" x1="99.3" y1="356.7" x2="174.7" y2="375.5"/>
			<line id="XMLID_79_" class="st0" x1="122.7" y1="220.8" x2="174.7" y2="375.5"/>
			<line id="XMLID_78_" class="st0" x1="122.7" y1="220.8" x2="54.9" y2="193.6"/>
			<line id="XMLID_77_" class="st0" x1="124.7" y1="98.3" x2="143.6" y2="211.9"/>
			<line id="XMLID_76_" class="st0" x1="275.6" y1="167.9" x2="143.6" y2="211.9"/>
			<line id="XMLID_75_" class="st0" x1="275.6" y1="167.9" x2="275.6" y2="53"/>
			<line id="XMLID_74_" class="st0" x1="275.6" y1="53" x2="124.7" y2="98.3"/>
			<line id="XMLID_73_" class="st0" x1="370.2" y1="98.1" x2="306.4" y2="177.8"/>
			<line id="XMLID_72_" class="st0" x1="388.3" y1="292.4" x2="306.4" y2="177.8"/>
			<line id="XMLID_71_" class="st0" x1="388.3" y1="292.4" x2="461" y2="234.3"/>
			<line id="XMLID_70_" class="st0" x1="461" y1="234.3" x2="370.2" y2="98.1"/>
			<line id="XMLID_69_" class="st0" x1="415.4" y1="323.7" x2="378.6" y2="300.3"/>
			<line id="XMLID_68_" class="st0" x1="187.9" y1="370.6" x2="378.6" y2="300.3"/>
			<line id="XMLID_67_" class="st0" x1="218.1" y1="395.3" x2="187.9" y2="370.6"/>
			<line id="XMLID_66_" class="st0" x1="415.4" y1="323.7" x2="218.1" y2="395.3"/>
		</g>
	</g>
</g>
</svg>
