<?xml version="1.0" encoding="utf-8"?>
<!-- Generator: Adobe Illustrator 19.0.0, SVG Export Plug-In . SVG Version: 6.00 Build 0)  -->
<svg version="1.1" xmlns="http://www.w3.org/2000/svg" xmlns:xlink="http://www.w3.org/1999/xlink" x="0px" y="0px"
	 viewBox="0 0 1024 1024" style="enable-background:new 0 0 1024 1024;" xml:space="preserve">
<g id="_x30_">
</g>
<g id="_x33_">
	<g id="LINE_55_">
		<g id="XMLID_1_">
			<g>
				<path d="M866.3,630.1v196.8H669.5V630.1H866.3z M826.9,787.6V669.5H708.8v118.1H826.9z"/>
				<path d="M512,708.8v196.8H315.2V725.1l-27.8-27.8l55.7-55.7l67.2,67.2H512z M472.6,866.3V748.2H354.5v118.1H472.6z"/>
				<polygon points="338.2,469.8 254.7,553.3 303.6,602.3 248,657.9 199.1,609 115.5,692.5 115.5,469.8 				"/>
				<polygon points="657.9,562.9 602.3,618.6 523.5,539.8 579.2,484.2 				"/>
				<polygon points="456.3,194.3 372.8,277.8 421.7,326.7 366.1,382.4 317.1,333.5 233.6,417 233.6,194.3 				"/>
				<polygon points="539.8,444.8 484.2,500.5 405.4,421.7 461.1,366.1 				"/>
				<polygon points="731.9,76.2 648.4,159.7 697.3,208.6 641.6,264.3 592.7,215.4 509.2,298.9 509.2,76.2 				"/>
				<path d="M905.7,275.8v196.8H708.8V275.8H905.7z M866.3,433.3V315.2H748.2v118.1H866.3z"/>
			</g>
			<g>
			</g>
		</g>
	</g>
</g>
<g id="_x36_">
</g>
</svg>
