<?xml version="1.0" encoding="utf-8"?>
<!-- Generator: Adobe Illustrator 19.0.0, SVG Export Plug-In . SVG Version: 6.00 Build 0)  -->
<svg version="1.1" xmlns="http://www.w3.org/2000/svg" xmlns:xlink="http://www.w3.org/1999/xlink" x="0px" y="0px"
	 viewBox="0 0 1024 1024" style="enable-background:new 0 0 1024 1024;" xml:space="preserve">
<g id="_x30_">
</g>
<g id="_x33_">
	<g id="LINE_15_">
		<g id="XMLID_1_">
			<g>
				<path d="M945.5,280L978,450.4l-60.1,315.5l-51.5-270.6l-58.5,307.1c-6.2,32.5-31.6,58-64.2,64.2c-43.8,8.3-86-20.4-94.4-64.2
					l-58.5-307.1l-58.5,307.1c-6.2,32.5-31.6,58-64.2,64.2c-43.8,8.3-86-20.4-94.4-64.2l-58.5-307.1l-58.5,307.1
					c-6.2,32.5-31.6,58-64.2,64.2c-43.8,8.3-86-20.4-94.4-64.2l-43.6-229l60.1-315.5l62.8,329.6L236,280
					c6.2-32.5,31.6-57.9,64.1-64.1c43.7-8.3,86,20.4,94.3,64.1L453,587.4L511.5,280c6.2-32.5,31.6-57.9,64.1-64.1
					c43.7-8.3,86,20.4,94.3,64.1l58.6,307.5L787.1,280c6.2-32.5,31.6-57.9,64.1-64.1C895,207.5,937.2,236.2,945.5,280z"/>
			</g>
			<g>
			</g>
		</g>
	</g>
</g>
<g id="_x36_">
</g>
</svg>
