<?xml version="1.0" encoding="utf-8"?>
<!-- Generator: Adobe Illustrator 16.0.0, SVG Export Plug-In . SVG Version: 6.00 Build 0)  -->
<!DOCTYPE svg PUBLIC "-//W3C//DTD SVG 1.1//EN" "http://www.w3.org/Graphics/SVG/1.1/DTD/svg11.dtd">
<svg version="1.1" id="Layer_1" xmlns="http://www.w3.org/2000/svg" xmlns:xlink="http://www.w3.org/1999/xlink" x="0px" y="0px"
	 width="64px" height="64px" viewBox="0 0 64 64" enable-background="new 0 0 64 64" xml:space="preserve">
<g id="SPLINE_2_">
	<g id="XMLID_1_">
		<g>
			<path d="M54.400391,12.089844c0-1.659668-0.020508-2.259766-0.060547-1.810059
				c-0.030273,0.450195-2.5,1.050293-7.410156,1.810059C47.339844,15.560059,46.19043,19.330078,43.5,23.399902
				c-2.69043,4.080078-3.620117,5.700195-2.790039,4.870117s2.070313-1.660156,3.730469-2.490234
				c1.65918-0.82959,3.319336-2.07959,4.979492-3.72998c1.660156-1.659668,2.900391-3.319824,3.730469-4.97998
				C53.980469,15.410156,54.400391,13.75,54.400391,12.089844z M32,3.629883c13.75,0,24.889648,1.560059,24.889648,3.47998
				C58.549805,13.75,58.200195,18.629883,55.860352,21.75c-2.629883,3.52002-5.610352,6.52002-8.930664,9.009766
				c-3.319336,2.480469-5.80957,4.560547-7.459961,6.220703c-1.660156,1.65918-2.910156,3.729492-3.739258,6.219727
				C34.900391,45.69043,35.530273,48.5,37.620117,51.620117c1.229492,1.849609,5.160156,3.610352,11.799805,5.269531
				c0,1.520508-7.799805,2.75-17.419922,2.75s-17.419922-1.229492-17.419922-2.75
				c6.640137-1.65918,10.569824-3.419922,11.799805-5.269531C28.470215,48.5,29.100098,45.69043,28.27002,43.200195
				s-2.080078-4.560547-3.740234-6.219727c-1.649902-1.660156-4.139648-3.740234-7.459961-6.220703
				C13.75,28.27002,10.77002,25.27002,8.140137,21.75c-2.340332-3.120117-2.689941-8-1.030273-14.640137
				C7.109863,5.189941,18.259766,3.629883,32,3.629883z M55.25,8.359863c-4.910156-1.799805-19.299805-2.699707-32.140137-2.009766
				C16.47998,6.700195,11.240234,7.439941,8.72998,8.370117h0.060059c4.969727,1.799805,19.379883,2.689941,32.200195,1.989746
				C47.549805,10.009766,52.730469,9.279785,55.25,8.359863z"/>
		</g>
		<g>
		</g>
	</g>
</g>
</svg>
