<?xml version="1.0" encoding="utf-8"?>
<!-- Generator: Adobe Illustrator 19.0.0, SVG Export Plug-In . SVG Version: 6.00 Build 0)  -->
<svg version="1.1" xmlns="http://www.w3.org/2000/svg" xmlns:xlink="http://www.w3.org/1999/xlink" x="0px" y="0px"
	 viewBox="0 0 1024 1024" style="enable-background:new 0 0 1024 1024;" xml:space="preserve">
<g id="_x30_">
</g>
<g id="_x33_">
	<g id="LINE_7_">
		<g id="XMLID_1_">
			<g>
				<path d="M891.8,711.9L616.3,908.7c-147.2,11.5-291.4-46.2-390.1-156C50.9,557.6,66.9,257.4,262,82.1l590.5,196.8
					c-32,27.8-57,62.7-72.8,102L220.6,246.3c-3.5,12.6-6.6,25.4-9.2,38.3l556.3,133.9c-4.7,19.5-7.2,39.6-7.4,59.7l-536.1,73.4
					c3.9,12.8,8.3,25.5,13.1,37.9l525.5-71.9c4.2,30.9,13.8,60.8,28.3,88.4L397.8,812.6c11.1,9.2,22.7,18,34.5,26.3l379.5-199.5
					C833.3,668.7,860.5,693.4,891.8,711.9z"/>
			</g>
			<g>
			</g>
		</g>
	</g>
</g>
<g id="_x36_">
</g>
</svg>
