<?xml version="1.0" encoding="utf-8"?>
<!-- Generator: Adobe Illustrator 16.0.0, SVG Export Plug-In . SVG Version: 6.00 Build 0)  -->
<!DOCTYPE svg PUBLIC "-//W3C//DTD SVG 1.1//EN" "http://www.w3.org/Graphics/SVG/1.1/DTD/svg11.dtd">
<svg version="1.1" id="Layer_1" xmlns="http://www.w3.org/2000/svg" xmlns:xlink="http://www.w3.org/1999/xlink" x="0px" y="0px"
	 width="64px" height="64px" viewBox="0 0 64 64" enable-background="new 0 0 64 64" xml:space="preserve">
<g id="LINE_38_">
	<g id="XMLID_1_">
		<g>
			<polygon points="55.230469,50.669922 46.929688,56.889648 46.929688,51.910156 44.44043,51.910156 44.44043,49.419922 
				46.929688,49.419922 46.929688,44.44043 			"/>
			<rect x="39.469727" y="49.419922" width="2.490234" height="2.490234"/>
			<rect x="34.490234" y="49.419922" width="2.490234" height="2.490234"/>
			<rect x="29.509766" y="49.419922" width="2.490234" height="2.490234"/>
			<rect x="24.529785" y="49.419922" width="2.490234" height="2.490234"/>
			<rect x="19.560059" y="49.419922" width="2.489746" height="2.490234"/>
			<rect x="9.600098" y="49.419922" width="2.489746" height="2.490234"/>
			<rect x="14.580078" y="49.419922" width="2.489746" height="2.490234"/>
			<path d="M50.400391,16.319824l1.759766,0.090332C51.230469,34.969727,40.570313,44.429688,20.189941,44.75l-0.029785-2.219727
				C32.589844,42.25,37.959961,37.080078,36.269531,27.02002h0.010742C45.200195,28.140137,49.900391,24.569824,50.400391,16.319824
				z"/>
			<path d="M51.910156,7.109863c0.320313,3.320313,0.410156,6.419922,0.25,9.300293l-1.759766-0.090332
				c0.089844-1.569824,0.029297-3.310059-0.180664-5.219727h-0.299805c-10.620117,3.97998-21.239746,4.640137-31.859863,1.989746
				c2.660156,7.630371,1.989746,17.419922-1.990234,29.360352v0.009766c1.439941,0.080078,2.800293,0.099609,4.090332,0.070313
				L20.189941,44.75c-2.549805,0.049805-5.25-0.049805-8.100098-0.290039V44.44043
				c5.310059-13.270508,5.310059-25.710449,0-37.330566C26.689941,12.419922,39.959961,12.419922,51.910156,7.109863z"/>
		</g>
		<g>
		</g>
	</g>
</g>
</svg>
