<?xml version="1.0" encoding="utf-8"?>
<!-- Generator: Adobe Illustrator 19.0.0, SVG Export Plug-In . SVG Version: 6.00 Build 0)  -->
<svg version="1.1" xmlns="http://www.w3.org/2000/svg" xmlns:xlink="http://www.w3.org/1999/xlink" x="0px" y="0px"
	 viewBox="0 0 1024 1024" style="enable-background:new 0 0 1024 1024;" xml:space="preserve">
<g id="_x30_">
</g>
<g id="_x33_">
	<g id="SPLINE_2_">
		<g id="XMLID_1_">
			<g>
				<path d="M905.7,118.3c26.2,105,20.8,182.2-16.2,231.6c-41.7,55.6-88.8,103-141.2,142.4c-52.5,39.4-91.9,72.2-118.1,98.4
					c-26.2,26.3-45.9,59.1-59,98.4s-3.2,83.8,29.8,133.3c19.5,29.3,81.8,57,186.7,83.3c0,24.1-123.4,43.6-275.6,43.6
					c-152.2,0-275.6-19.5-275.6-43.6c105-26.3,167.2-54,186.7-83.3c33-49.5,42.9-93.9,29.8-133.3c-13.1-39.4-32.8-72.2-59.1-98.4
					c-26.2-26.2-65.6-59-118.1-98.4c-52.5-39.4-99.6-86.8-141.2-142.4c-37.1-49.4-42.5-126.6-16.2-231.6
					c0-30.4,176.3-55.1,393.7-55.1C729.4,63.2,905.6,87.9,905.7,118.3L905.7,118.3z M866.3,197.1c0-26.3-0.3-35.8-0.9-28.7
					c-0.6,7.1-39.7,16.7-117.2,28.7c6.4,54.9-11.7,114.5-54.3,178.9s-57.3,90.1-44.2,76.9c13.1-13.1,32.8-26.2,59-39.4
					c26.3-13.1,52.5-32.8,78.7-59c26.2-26.2,45.9-52.5,59-78.7C859.7,249.6,866.3,223.3,866.3,197.1z M654.2,169.7
					C758,164.1,840,152.6,879.7,138c-77.6-28.4-305.2-42.7-508.3-31.8c-105,5.6-187.8,17.3-227.6,32l1.1,0.1
					C223.4,166.6,451.4,180.7,654.2,169.7z"/>
			</g>
			<g>
			</g>
		</g>
	</g>
</g>
<g id="_x36_">
</g>
</svg>
