<?xml version="1.0" encoding="utf-8"?>
<!-- Generator: Adobe Illustrator 19.0.0, SVG Export Plug-In . SVG Version: 6.00 Build 0)  -->
<svg version="1.1" xmlns="http://www.w3.org/2000/svg" xmlns:xlink="http://www.w3.org/1999/xlink" x="0px" y="0px"
	 viewBox="0 0 1024 1024" style="enable-background:new 0 0 1024 1024;" xml:space="preserve">
<g id="_x30_">
</g>
<g id="_x33_">
	<g id="ELLIPSE_5_">
		<g id="XMLID_1_">
			<g>
				<path d="M391.6,846.6c-29.2-27.1-111.7-40.2-184.3-29.3c-35.9,5.4-64.3,16-78.7,29.3c29.2,27.1,111.7,40.2,184.3,29.3
					C348.7,870.6,377.1,860,391.6,846.6L391.6,846.6z M846.6,128.6c-27.1,29.2-40.2,111.7-29.3,184.3c5.4,35.9,16,64.3,29.3,78.7
					c27.1-29.2,40.2-111.7,29.3-184.3C870.6,171.4,860,143,846.6,128.6L846.6,128.6z M870.3,118.7c29.1,5.8,50.9,73.9,48.7,151.9
					c-2.2,78.1-27.5,136.6-56.6,130.7c-237.2-17.4-443.6,160.8-461,398c-1.6,22.6-1.5,45.2,0.4,67.8c-1.3,28.8-64.4,51.9-141.7,51.9
					c-78.3,0-141.7-23.6-141.7-52.8c-0.2-10.8-0.2-21.7,0-32.5c9.3-404.4,344.6-724.7,749-715.4
					C868.3,118.4,869.3,118.5,870.3,118.7z"/>
			</g>
			<g>
			</g>
		</g>
	</g>
</g>
<g id="_x36_">
</g>
</svg>
