<?xml version="1.0" encoding="utf-8"?>
<!-- Generator: Adobe Illustrator 19.0.0, SVG Export Plug-In . SVG Version: 6.00 Build 0)  -->
<svg version="1.1" xmlns="http://www.w3.org/2000/svg" xmlns:xlink="http://www.w3.org/1999/xlink" x="0px" y="0px"
	 viewBox="0 0 1024 1024" style="enable-background:new 0 0 1024 1024;" xml:space="preserve">
<g id="_x30_">
</g>
<g id="_x33_">
	<g id="LINE_103_">
		<g id="XMLID_1_">
			<g>
				<path d="M945,748.2V945H748.2v-37.9c-39.5-7.1-78.8-12.5-118.1-16V945H433.3v-56.4c-52.7,3.4-105.2,10.1-157.5,20.2V945H79
					V748.2h36.2c10-52.3,16.8-104.8,20.2-157.5H79V393.9h53.9c-3.5-39.3-8.9-78.6-16-118.1H79V79h196.8v53.7
					c39.4,9,78.7,15.7,118.1,20.1V79h196.8v76.4c52.5-4.5,105-13.1,157.5-25.8V79H945v196.8h-50.6c-12.7,52.5-21.3,105-25.8,157.5
					H945v196.8h-73.9c4.4,39.4,11.1,78.7,20.1,118.1H945z M905.7,905.7V787.6H787.6v118.1H905.7z M905.7,590.7V472.6H787.6v118.1
					H905.7z M905.7,236.4V118.3H787.6v118.1H905.7z M855.1,275.8H748.2V168.9c-52.5,12.7-105,21.4-157.5,25.8v81h-77.7l39.4,118.1
					h77.7v77.7l118.1,39.4v-77.7h81C833.7,380.8,842.3,328.3,855.1,275.8z M748.2,748.2h103.7c-9-39.4-15.7-78.7-20.1-118.1h-83.6
					v-77.7l-118.1-39.4v77.7h-78.7v157.5h78.7v103.6c39.3,3.5,78.6,8.9,118.1,16V748.2z M590.7,905.7V787.6H472.6v118.1H590.7z
					 M590.7,551.4V433.3H472.6v118.1H590.7z M551.4,236.4V118.3H433.3v118.1H551.4z M512,748.2V590.7h-78.7V512H275.8v78.7H174.7
					c-3.4,52.7-10.1,105.2-20.2,157.5h121.2v121.2c52.3-10,104.8-16.8,157.5-20.2V748.2H512z M510.9,393.9l-39.4-118.1h-77.7v-83.6
					c-39.4-4.4-78.7-11.1-118.1-20.1v103.7H156.2c7.1,39.5,12.5,78.8,16,118.1h103.6v78.7h157.5v-78.7H510.9z M236.4,905.7V787.6
					H118.3v118.1H236.4z M236.4,551.4V433.3H118.3v118.1H236.4z M236.4,236.4V118.3H118.3v118.1H236.4z"/>
			</g>
			<g>
			</g>
		</g>
	</g>
</g>
<g id="_x36_">
</g>
</svg>
