<?xml version="1.0" encoding="utf-8"?>
<!-- Generator: Adobe Illustrator 19.0.0, SVG Export Plug-In . SVG Version: 6.00 Build 0)  -->
<svg version="1.1" xmlns="http://www.w3.org/2000/svg" xmlns:xlink="http://www.w3.org/1999/xlink" x="0px" y="0px"
	 viewBox="0 0 1024 1024" style="enable-background:new 0 0 1024 1024;" xml:space="preserve">
<g id="_x30_">
</g>
<g id="_x33_">
	<g id="LINE_26_">
		<g id="XMLID_1_">
			<g>
				<path d="M909.5,311.5v584.6h-65.2c-12-26.3-20.3-41.8-29.4-57.4c-9.1-15.6-19-31.4-29.5-45.9c-10.6-14.5-21.8-27.8-35.1-40.5
					c-13.3-12.7-28.7-24.7-45.9-28.7c-17.2-4-36.3,0-51.9,9.2c-15.5,9.2-27.4,23.6-38.5,38c-11.1,14.5-21.4,29-33.2,42.5
					c-11.8,13.6-25.1,26.2-40,36.6s-31.3,18.4-49,22.3c-17.6,3.8-36.4,3.5-53.9-0.8c-17.5-4.3-33.7-12.6-48.8-22.6
					c-15.1-10-29.3-21.8-41.7-34.8c-12.4-13-23.1-27.1-34.9-41.2c-11.7-14.1-24.5-28.1-40.8-34.8s-36-6-53.8-1.9
					c-17.8,4.1-33.7,11.8-49.5,20.6c-15.8,8.8-31.6,18.8-78.1,48.3l77.3-618.7c43.5,19.4,65.1,28.6,87.1,36.7
					c22,8.1,44.5,15.2,67.3,20.7c22.8,5.5,46,9.4,69.4,11.3c23.4,1.9,47.1,1.7,70.4-1.2c23.3-2.9,46.2-8.7,68.2-16.9
					c22-8.2,43.1-18.9,62.3-32.4c19.2-13.5,36.5-29.8,54.5-44.8c18-15,36.6-28.7,57.2-40.4c20.5-11.7,43-21.4,66.3-22.8
					c23.3-1.4,47.5,5.6,66,19.7s31.2,35.3,40.8,57c9.6,21.6,16.1,43.7,21.1,66.6C903.3,262.8,906.8,286.7,909.5,311.5z M856.4,804.4
					V626c-0.3-0.6-0.5-1.2-0.8-1.8c-7.1-15.8-14.8-31.7-23.4-46.6c-8.6-14.9-18.1-28.9-29.3-42.3c-11.1-13.5-23.8-26.5-39.4-33.6
					c-2.6-1.2-5.3-2.2-8-3.1l-29.7,176.5c4.7,1.6,9.4,3.4,13.9,5.5c18.1,8.4,34,20.7,48.4,34.5c14.4,13.8,27.2,29,39,45.1
					C837.6,774.3,847.3,789.2,856.4,804.4z M856.4,549.1V430.4c-3.9-11.6-8.3-23.3-13-34.3c-6.6-15.5-14.2-29.9-23.6-44.3
					c-9-13.8-19.8-27.6-33.7-35.2l-24.6,146.5c10.9,3.2,21.4,8.2,30.9,14.5c15.3,10,28.3,23.1,39.8,37.3
					C841,525.7,849,537.2,856.4,549.1z M856.4,343.3v-31.8c-0.2-19.3-6.4-39.4-11.2-60.9c-4.8-21.5-8.1-44.5-19-64.1
					c-4-7.3-9.1-14.1-14.9-19.9l-19.1,113.9c8.7,3.6,16.8,8.5,24.2,14.2c14.1,11,25.3,25.2,35,40.3
					C853,337.8,854.7,340.6,856.4,343.3z M757.3,273.8l20.9-124.2c-0.6-0.1-1.2-0.1-1.8-0.1c-20.5-1.1-43.2,12.9-62,26.2
					c-18.9,13.3-34,25.8-50.5,39.6c-13.2,11-27.3,22.9-42,33.4l-15.8,111.9c7.8-4.5,15.4-9.3,22.7-14.4
					c14.6-10.2,28.2-21.9,42.1-33.1c13.9-11.2,28.2-22,44.4-29.4C728.5,277.8,743,274,757.3,273.8z M726.1,459.5l25.1-149.4
					c-5.6,0.5-11.1,1.8-16.3,3.6c-15.9,5.6-29.3,17-42.5,28c-13.2,10.9-26.1,21.4-39.9,31.1c-13.8,9.7-28.4,18.8-43.4,26.6
					c-3,1.6-6.1,3.1-9.2,4.6l-21.4,151.8c8.4-5.6,16.5-11.6,24.1-18.1c14-11.8,26.7-25,40.4-37.1c13.7-12.1,28.3-23.1,45-30.8
					C700,464.4,713,460.7,726.1,459.5z M691,668.6l29-172.4c-2.3,0.4-4.6,1-6.9,1.6c-16.5,4.8-30.9,15.7-44,27.3
					c-13.2,11.5-25,23.6-38,34.9c-13,11.3-27.1,21.8-41.8,31c-5.6,3.5-11.3,6.7-17,9.8l-23.6,167.8c11-14,21-28.1,32.5-41.5
					c12.8-15,27.5-29.2,44.6-39.7c17-10.5,36.4-17.3,56.1-18.5C684.9,668.6,687.9,668.6,691,668.6z M567.6,379.6l15.1-107.4
					c-10.2,5-20.5,9.4-31.2,13.4c-20.5,7.8-42.1,14.2-63.8,18.2s-43.8,5.6-65.9,5.6c-4.2,0-8.4-0.1-12.6-0.2l-13,84.3
					c9.9,2.2,19.8,4.2,29.8,5.5c17.7,2.3,35.7,2.6,53.5,1.4c17.9-1.2,35.6-4,52.8-8.6C544.3,388.6,556.1,384.4,567.6,379.6z
					 M539.8,576.9L562,419.7c-15.8,5.4-32.1,9.7-48.6,12.5c-16.7,2.8-33.6,4.1-50.5,4.3c-17,0.1-34-0.9-50.7-3.6
					c-7.1-1.1-14.2-2.6-21.2-4.2L371.1,557c9.5,5.7,18.8,11.6,28.6,16.5c16.3,8.1,34,13.5,52.2,16c18.1,2.5,36.6,2,54.5-1.7
					C517.9,585.3,529,581.6,539.8,576.9z M507,809.4l27.1-192.5c-13.6,4.4-27.6,7.5-41.8,8.8c-17.2,1.6-34.4,0.6-51.5-2.2
					c-17.1-2.8-34.1-7.5-49.7-14.8c-8.9-4.1-17.3-9.1-25.8-14.2l-20.7,134.9c3,3.5,6,7,9,10.5c12.8,15.2,25,29.8,39.3,43.9
					c14.3,14.1,30.8,27.8,49.5,33.8c18.7,6,39.8,4.3,57.5-4.3C502.4,812.1,504.7,810.8,507,809.4z M361.7,385.2l12-78.4
					c-6-0.6-12-1.4-18-2.3c-21.9-3.2-43.5-8-64.8-13.9c-21.3-5.9-42.3-12.9-62.9-20.8c-5.5-2.1-10.9-4.3-16.4-6.5l-12.8,102.1
					c5.3,0.2,10.6,0.3,15.9,0.6c17.8,0.8,35.6,2.2,53.4,3.8c17.8,1.6,35.6,3.5,53.2,6.6C334.9,378.8,348.3,381.9,361.7,385.2z
					 M337.9,540.3l18.5-120.1c-14.4-3.5-28.8-6.8-43.4-9.3c-16.7-2.8-33.6-4.6-50.5-6.1c-16.9-1.5-33.8-2.8-50.7-3.5
					c-5.8-0.3-11.5-0.4-17.3-0.6l-16.3,130.1c4.2-0.5,8.4-1,12.6-1.4c18.2-1.9,36.4-2.9,54.7-3c18.3,0,36.6,0.9,54.6,3.9
					C312.9,532.6,325.7,535.8,337.9,540.3z M313.3,699.9l18.9-123.2c-11.2-4.9-22.8-8.7-34.8-11c-16.9-3.3-34.5-3.7-51.9-3.6
					c-17.3,0.1-34.4,0.8-51.6,2.5c-6.8,0.7-13.6,1.6-20.3,2.5l-16.9,135.6c12.5-6.2,25.4-11.6,38.8-15.5c19.1-5.6,38.9-8.3,58.8-6.8
					c19.9,1.5,39.9,7.2,56.6,17.9C311.7,698.8,312.5,699.4,313.3,699.9z"/>
			</g>
			<g>
			</g>
		</g>
	</g>
</g>
<g id="_x36_">
</g>
</svg>
