<?xml version="1.0" encoding="utf-8"?>
<!-- Generator: Adobe Illustrator 19.0.0, SVG Export Plug-In . SVG Version: 6.00 Build 0)  -->
<svg version="1.1" xmlns="http://www.w3.org/2000/svg" xmlns:xlink="http://www.w3.org/1999/xlink" x="0px" y="0px"
	 viewBox="0 0 1024 1024" style="enable-background:new 0 0 1024 1024;" xml:space="preserve">
<g id="_x30_">
</g>
<g id="_x33_">
	<g id="SPLINE_6_">
		<g id="XMLID_1_">
			<g>
				<path d="M945,79v196.8h-33c-6.4,417.8-218.5,629.9-636.3,636.3v33H79V748.2h36.2c29.9-155.9,30.4-313.3,1.7-472.4H79V79h196.8
					v53.7c157.5,36.1,314.9,35.1,472.4-3.1V79H945z M905.7,236.4V118.3H787.6v118.1H905.7z M708.8,558.3
					c131.2-4.7,183.7-98.8,157.5-282.5H748.2V168.9c-157.5,38.2-314.9,39.3-472.4,3.1v103.7H156.2c28.8,159.1,28.2,316.5-1.7,472.4
					h121.2v118.1C522,884.8,633.1,806,609.3,630.1H512V433.3h196.8V558.3z M669.5,590.7V472.6H551.4v118.1H669.5z M236.4,905.7
					V787.6H118.3v118.1H236.4z M236.4,236.4V118.3H118.3v118.1H236.4z"/>
			</g>
			<g>
			</g>
		</g>
	</g>
</g>
<g id="_x36_">
</g>
</svg>
