<?xml version="1.0" encoding="utf-8"?>
<!-- Generator: Adobe Illustrator 19.0.0, SVG Export Plug-In . SVG Version: 6.00 Build 0)  -->
<svg version="1.1" xmlns="http://www.w3.org/2000/svg" xmlns:xlink="http://www.w3.org/1999/xlink" x="0px" y="0px"
	 viewBox="0 0 1024 1024" style="enable-background:new 0 0 1024 1024;" xml:space="preserve">
<g id="_x30_">
</g>
<g id="_x33_">
</g>
<g id="_x31_">
	<g id="ARC_4_">
		<g id="XMLID_1_">
			<g>
				<path d="M336.2,389.9c10.4-155.4,139.5-276.2,295.2-276.2c163.4,0,295.9,132.5,295.9,295.9c0,155.8-120.8,284.9-276.2,295.3
					C488,715.7,347,592.3,336.2,429.3H159v356.8c34.8,9,59.1,40.3,59.1,76.2c0,35.9-24.3,67.3-59.1,76.2
					C116.9,949.4,74,924.1,63.1,882c-10.9-42.1,14.5-85,56.6-95.9V389.9H336.2z M888,409.6c0-141.7-114.9-256.5-256.5-256.5
					c-141.7,0-256.5,114.8-256.5,256.5c0,141.7,114.9,256.5,256.5,256.5C773.1,666.1,888,551.3,888,409.6z"/>
				<path d="M784,526.5v5.3H662.2v-5.3c12.3-0.7,20.6-3,25-6.8c4.3-3.9,6.5-8.7,6.5-14.2c0-7.5-3-19.3-9.1-35.4l-15.6-39.2H548.7
					L528.8,477c-5.2,12.8-7.7,22.4-7.7,28.7c0,5,2.3,9.5,6.7,13.3c4.5,3.8,14.2,6.3,29.1,7.5v5.3h-98v-5.3
					c12.9-2.5,21.3-5.7,25.1-9.6c7.8-7.9,16.4-24,25.8-48.3l108-250.4h11.5l101.5,254.4c8.7,22,16.6,36.2,23.7,42.8
					C761.5,522,771.4,525.7,784,526.5z M662.5,414.9l-51.3-125.1l-55.6,125.1H662.5z"/>
			</g>
			<g>
			</g>
		</g>
	</g>
</g>
<g id="_x36_">
</g>
</svg>
