<?xml version="1.0" encoding="utf-8"?>
<!-- Generator: Adobe Illustrator 19.0.0, SVG Export Plug-In . SVG Version: 6.00 Build 0)  -->
<svg version="1.1" xmlns="http://www.w3.org/2000/svg" xmlns:xlink="http://www.w3.org/1999/xlink" x="0px" y="0px"
	 viewBox="0 0 1024 1024" style="enable-background:new 0 0 1024 1024;" xml:space="preserve">
<g id="_x30_">
</g>
<g id="_x33_">
	<g id="LINE_14_">
		<g id="XMLID_1_">
			<g>
				<path d="M941.4,363.6L730.8,574.1l-9.2-9.2c20.1-22.4,30.5-40.7,31.3-55c0.8-14.3-3.7-26.2-13.3-35.9
					c-12.9-12.9-38.6-28-76.9-45.3L567.9,388L360.1,595.8l45.5,114.1c13.3,31.1,25.4,52.1,36.3,63c8.7,8.7,20.2,12.5,34.6,11.3
					c14.4-1.2,35.4-13.6,63.2-37.3l9.2,9.2L379.5,925.5l-9.2-9.2c18.1-26.7,27-46.7,26.7-60c-0.2-27.2-13.1-69.8-38.8-128
					l-246-619.5L132,89l615.2,264.4c53,23,91.3,34,114.8,33c23.5-1,46.9-11.6,70.2-32L941.4,363.6z M344.4,556.3l184.9-184.9
					l-305-127.6L344.4,556.3z"/>
			</g>
			<g>
			</g>
		</g>
	</g>
</g>
<g id="_x36_">
</g>
</svg>
