<?xml version="1.0" encoding="utf-8"?>
<!-- Generator: Adobe Illustrator 19.0.0, SVG Export Plug-In . SVG Version: 6.00 Build 0)  -->
<svg version="1.1" xmlns="http://www.w3.org/2000/svg" xmlns:xlink="http://www.w3.org/1999/xlink" x="0px" y="0px"
	 viewBox="0 0 1024 1024" style="enable-background:new 0 0 1024 1024;" xml:space="preserve">
<g id="_x30_">
</g>
<g id="_x33_">
	<g id="LINE_16_">
		<g id="XMLID_1_">
			<g>
				<path d="M918.6,718.4c14.6,20.4,21.9,44.3,21.9,71.8c0,39.4-12.6,73.5-37.8,102.3c-32.8,37.6-80.3,56.3-142.6,56.3
					c-30.8,0-51.7-3.5-62.8-10.4s-16.7-14.4-16.7-22.3c0-5.9,2.6-11.1,7.8-15.6c5.2-4.5,11.4-6.8,18.6-6.8c5.4,0,11,0.7,16.7,2.1
					c3.7,0.8,12.1,3.9,25.3,9.2c13.2,5.3,22.2,8.5,27.3,9.5c8.1,1.9,16.8,2.8,26,2.8c22.4,0,41.8-8.8,58.4-26.5
					c16.5-17.7,24.8-38.6,24.8-62.8c0-17.6-3.6-34.9-10.8-51.7c-5.3-12.5-11.1-22-17.5-28.5c-8.9-8.9-21-17-36.3-24.3
					c-15.4-7.3-31.1-10.9-47.1-10.9h-9.8v-7.9c18-2.2,36-8.5,54.1-18.9c18.1-10.4,31.2-22.9,39.4-37.5c8.2-14.6,12.3-30.7,12.3-48.2
					c0-22.8-7.5-41.2-22.6-55.3c-15-14.1-33.8-21.1-56.3-21.1c-36.2,0-66.4,17.5-90.7,52.7l-11.6-5.4c13.4-30.2,30.3-53.5,50.7-69.9
					c20.4-16.4,45.8-24.6,76.3-24.6c37.6,0,66.4,11.8,86.4,35.5c15.3,17.7,22.9,36.6,22.9,56.7c0,33.1-23.6,67.4-70.9,102.7
					C882.5,682.4,904,698,918.6,718.4z"/>
				<path d="M247.7,697v7.9H82.3V697c20.3-0.5,33.3-2.4,39.2-5.8c5.9-3.4,10-7.9,12.4-13.7c2.3-5.7,3.5-22.9,3.5-51.4V374.1
					c0-31.6-1.2-51.9-3.6-60.9c-1.6-6.9-4.7-12-9.1-15.4c-4.4-3.4-9.8-5-16-5c-8.8,0-21,3.5-36.8,10.5l-5.4-7.9l114.9-55.1h11.1
					v385.8c0,26.7,1,43.3,3.1,49.8c2.1,6.6,6.3,11.6,12.7,15.1C214.8,694.5,227.9,696.5,247.7,697z"/>
				<path d="M657.1,455l-31.7,92.4H357.9v-13.5c80.9-72.3,137.9-131.4,170.9-177.2c33-45.8,49.5-87.8,49.5-125.9
					c0-27.1-9.3-49.3-27.9-66.7c-18.6-17.4-40.8-26.1-66.7-26.1c-23.5,0-44.7,6.7-63.4,20.1c-18.7,13.4-32.6,32.9-41.5,58.7h-13
					c5.7-43.1,20.6-76.2,44.5-99.3s53.7-34.6,89.5-34.6c38.1,0,70,11.7,95.5,35c25.5,23.3,38.3,50.9,38.3,82.6
					c0,22.6-5.5,45.6-16.6,68.9c-17,36.5-44.6,75.2-82.8,116c-57.3,59.9-92.2,95.5-104.6,106.9h116.3c23.6,0,40.2-0.9,49.8-2.7
					c9.5-1.8,18.2-5.5,25.8-11c7.7-5.5,14.3-13.4,20-23.6H657.1z"/>
			</g>
			<g>
			</g>
		</g>
	</g>
</g>
<g id="_x36_">
</g>
</svg>
