<?xml version="1.0" encoding="utf-8"?>
<!-- Generator: Adobe Illustrator 19.0.0, SVG Export Plug-In . SVG Version: 6.00 Build 0)  -->
<svg version="1.1" xmlns="http://www.w3.org/2000/svg" xmlns:xlink="http://www.w3.org/1999/xlink" x="0px" y="0px"
	 viewBox="0 0 1024 1024" style="enable-background:new 0 0 1024 1024;" xml:space="preserve">
<g id="_x30_">
</g>
<g id="_x33_">
	<g id="SPLINE_22_">
		<g id="XMLID_1_">
			<g>
				<path d="M945,905.7V945c-3.3,0-6.5,0-9.8,0c-14.2,0-28.4,0.1-42.6-0.1c-14.2-0.3-28.4-0.9-42.6-1.9c-14.2-1-28.3-2.5-42.4-4.4
					c-14.1-1.8-28.1-4.1-42.1-6.7c-14-2.6-27.9-5.6-41.7-9c-13.8-3.4-27.5-7.1-41.1-11.2c-13.6-4-27.2-8.3-40.5-13.4
					c-13.3-5-26.3-10.7-39-17.3S578.6,867.3,567,859c-11.6-8.2-22.6-17.3-32.7-27.3c-10.1-9.9-19.4-20.8-27.8-32.2
					c-8.4-11.5-15.8-23.7-22.1-36.4c-6.3-12.8-11.3-26.1-16.8-39.2c-5.5-13.1-11.6-25.9-17.9-38.6c-6.4-12.7-13.1-25.3-20.9-37.1
					c-7.8-11.9-16.6-23.1-26.8-33c-10.1-9.9-21.5-18.6-33.3-26.6c-11.7-8-23.8-15.4-36.1-22.6c-12.3-7.2-24.7-14.2-37.7-19.9
					c-13-5.7-26.5-10.2-40.3-13.6c-13.8-3.4-27.8-5.8-41.9-8c-14-2.1-28.1-4-42.2-5.4c-14.1-1.5-28.3-2.5-42.5-3.4
					c-14.2-0.9-28.4-1.6-42.6-2.2c-2.2-0.1-4.3-0.2-6.5-0.2v-40.6c105,0,183.7,13.1,236.2,39.4s91.8,52.5,118.1,78.7
					c26.2,26.3,52.5,72.2,78.7,137.8c26.2,65.6,78.7,111.5,157.5,137.8c78.7,26.2,157.5,39.4,236.2,39.4
					C925.3,905.7,938.5,905.7,945,905.7z"/>
				<path d="M391.2,388.8v5.1H273.9v-5.1c11.8-0.6,19.8-2.8,24-6.6c4.2-3.8,6.3-8.3,6.3-13.7c0-7.2-2.9-18.5-8.8-34.1l-15-37.7
					H164.6l-19.1,44.4c-5,12.4-7.4,21.6-7.4,27.7c0,4.9,2.2,9.1,6.5,12.8c4.3,3.7,13.7,6.1,28,7.2v5.1H78.2v-5.1
					c12.5-2.4,20.5-5.5,24.2-9.3c7.5-7.6,15.8-23.1,24.9-46.5L231.2,92h11L340,337c8.4,21.2,16,34.9,22.8,41.2
					C369.6,384.4,379.1,388,391.2,388.8z M274.2,281.3l-49.4-120.5l-53.6,120.5H274.2z"/>
				<path d="M942.4,782.5v5.1H825v-5.1c11.8-0.6,19.8-2.8,24-6.6c4.2-3.8,6.3-8.3,6.3-13.7c0-7.2-2.9-18.5-8.8-34.1l-15-37.7H715.7
					l-19.1,44.5c-5,12.4-7.4,21.6-7.4,27.7c0,4.8,2.2,9.1,6.5,12.8s13.7,6.1,28,7.2v5.1h-94.4v-5.1c12.5-2.4,20.5-5.5,24.2-9.3
					c7.5-7.6,15.8-23.1,24.9-46.5l104-241.1h11l97.7,245c8.4,21.2,16,34.9,22.8,41.2S930.2,781.7,942.4,782.5z M825.4,675L776,554.5
					L722.4,675H825.4z"/>
				<path d="M722.9,335.2L618.7,577.6c-9,20.9-13.4,36-13,45.2c0.4,9.3,4.6,18.5,12.6,27.7l-3.6,3.6l-83-83l3.6-3.6
					c8.8,7.9,16,12,21.7,12.3c5.6,0.3,10.3-1.5,14.1-5.3c5.1-5.1,11.1-15.2,17.9-30.3l16.1-37.3l-81.9-81.9l-45,17.9
					c-12.3,5.2-20.5,10-24.8,14.3c-3.4,3.4-4.9,8-4.5,13.6c0.5,5.7,5.4,13.9,14.7,24.9l-3.6,3.6l-66.7-66.7l3.6-3.6
					c10.5,7.1,18.4,10.6,23.6,10.5c10.7-0.1,27.5-5.2,50.4-15.3l244-96.9L722.9,335.2z M611.6,491.7l50.3-120.2l-123.1,47.3
					L611.6,491.7z"/>
			</g>
			<g>
			</g>
		</g>
	</g>
</g>
<g id="_x36_">
</g>
</svg>
