<?xml version="1.0" encoding="utf-8"?>
<!-- Generator: Adobe Illustrator 19.0.0, SVG Export Plug-In . SVG Version: 6.00 Build 0)  -->
<svg version="1.1" xmlns="http://www.w3.org/2000/svg" xmlns:xlink="http://www.w3.org/1999/xlink" x="0px" y="0px"
	 viewBox="0 0 1024 1024" style="enable-background:new 0 0 1024 1024;" xml:space="preserve">
<g id="_x30_">
</g>
<g id="_x33_">
	<g id="LINE_14_">
		<g id="XMLID_1_">
			<g>
				<path d="M951.2,891.9v13.8H635.3v-13.8c31.9-1.7,53.4-7.7,64.7-17.8c11.3-10.1,16.9-22.4,16.9-36.9c0-19.4-7.9-49.9-23.7-91.7
					l-40.5-101.6H341l-51.5,119.7c-13.3,33.3-20,58.1-20,74.5c0,13.1,5.8,24.5,17.4,34.4c11.6,9.9,36.7,16.4,75.4,19.4v13.8h-254
					v-13.8c33.6-6.5,55.3-14.8,65-25c20.2-20.5,42.6-62.2,66.9-125.1L520.4,92.8h29.7l263.1,659.6c22.5,57,43,93.9,61.4,110.9
					C892.9,880.2,918.4,889.7,951.2,891.9z M636.2,602.5l-133-324.4L358.9,602.5H636.2z"/>
			</g>
			<g>
			</g>
		</g>
	</g>
</g>
<g id="_x36_">
</g>
</svg>
