<?xml version="1.0" encoding="utf-8"?>
<!-- Generator: Adobe Illustrator 19.0.0, SVG Export Plug-In . SVG Version: 6.00 Build 0)  -->
<svg version="1.1" xmlns="http://www.w3.org/2000/svg" xmlns:xlink="http://www.w3.org/1999/xlink" x="0px" y="0px"
	 viewBox="0 0 1024 1024" style="enable-background:new 0 0 1024 1024;" xml:space="preserve">
<g id="_x30_">
</g>
<g id="_x33_">
	<g id="LINE_13_">
		<g id="XMLID_1_">
			<g>
				<path d="M870.2,110.1v234.2h-27.6c-12.3-52.5-26-90.2-40.9-113.1c-14.9-22.9-35.5-41.2-61.6-54.8c-14.6-7.5-40.2-11.2-76.6-11.2
					h-55.1v620c0,39.2,2.2,63.7,6.6,73.5c4.4,9.8,13,18.4,25.7,25.7s30.2,11,52.3,11h25.6V923H305.3v-27.6h25.8
					c22.5,0,40.7-3.9,54.5-11.8c10-5.3,17.9-14.3,23.7-27.1c4.2-9,6.2-32.8,6.2-71.3v-620h-55.1c-53,0-91.4,12-115.4,35.9
					c-33.6,33.4-54.8,81.2-63.7,143.2h-27.6V110.1H870.2z"/>
			</g>
			<g>
			</g>
		</g>
	</g>
</g>
<g id="_x36_">
</g>
</svg>
