<?xml version="1.0" encoding="utf-8"?>
<!-- Generator: Adobe Illustrator 19.0.0, SVG Export Plug-In . SVG Version: 6.00 Build 0)  -->
<svg version="1.1" xmlns="http://www.w3.org/2000/svg" xmlns:xlink="http://www.w3.org/1999/xlink" x="0px" y="0px"
	 viewBox="0 0 1024 1024" style="enable-background:new 0 0 1024 1024;" xml:space="preserve">
<g id="_x30_">
</g>
<g id="_x33_">
	<g id="LINE_27_">
		<g id="XMLID_1_">
			<g>
				<path d="M443.5,818.9c0,15.7-3.7,31-11.1,45.8c-7.4,14.8-17.5,26.7-30.2,35.6c-12.8,8.9-28.5,14.3-47.2,16.4
					c-11.7,1.3-40,2-84.9,2.3H151.4V571.8h142.5c28.2,0,49.2,1.1,63.1,3.4c13.9,2.3,26.3,7.1,37.2,14.4c10.9,7.3,20,17,27.3,29.2
					c7.3,12.1,10.9,25.8,10.9,40.9c0,16.3-4.4,31.3-13.1,45c-8.7,13.7-20.5,23.9-35.4,30.7c19.1,6.1,33.8,16.6,44.1,31.3
					C438.4,781.5,443.5,798.9,443.5,818.9z M377.4,815.2c0-9.9-2.7-18.3-8.2-25.2c-5.5-6.9-13.3-11.9-23.6-15.1
					c-10.3-3.2-32.6-4.7-67-4.7h-61.1v88.2h69.9c27.3,0,44.6-0.7,51.8-2.1c11.3-1.8,20.4-6.2,27.5-13.1
					C373.8,836.3,377.4,826.9,377.4,815.2z M366.3,670.4c0-10.3-3.3-18.7-9.8-25.1c-6.5-6.5-16.2-10.4-29-11.8
					c-7.6-0.8-29.6-1.1-65.8-1.1h-44.3v77.2H268c30,0,48.7-0.4,56-1.1c13.1-1.4,23.5-5.4,31-12C362.6,689.9,366.3,681.2,366.3,670.4
					z"/>
				<path d="M934.6,445.1c32.5,188.4-93.8,367.5-282.2,400v105.2L484.1,781.9l168.4-168.4v116c145-25.9,257.9-140.3,281.9-285.6
					C934.5,444.2,934.6,444.6,934.6,445.1z"/>
				<path d="M539.9,242.1L371.5,410.5v-116c-145,25.9-257.9,140.3-281.9,285.6c-0.1-0.4-0.1-0.8-0.2-1.3
					c-32.6-188.4,93.8-367.5,282.2-400V73.7L539.9,242.1z"/>
				<path d="M748.6,99.4l128,347.2H807l-27.2-77.2H648.7l-26.9,77.2h-70.4L678.1,99.4H748.6z M758.6,308.9L714,182.1l-44.1,126.8
					H758.6z"/>
			</g>
			<g>
			</g>
		</g>
	</g>
</g>
<g id="_x36_">
</g>
</svg>
