<?xml version="1.0" encoding="utf-8"?>
<!-- Generator: Adobe Illustrator 19.0.0, SVG Export Plug-In . SVG Version: 6.00 Build 0)  -->
<svg version="1.1" xmlns="http://www.w3.org/2000/svg" xmlns:xlink="http://www.w3.org/1999/xlink" x="0px" y="0px"
	 viewBox="0 0 1024 1024" style="enable-background:new 0 0 1024 1024;" xml:space="preserve">
<g id="_x30_">
</g>
<g id="_x33_">
	<g id="LINE_30_">
		<g id="XMLID_1_">
			<g>
				<path d="M655.4,776.5v9.5H438.9v-9.5c21.9-1.2,36.6-5.2,44.4-12.2c7.7-6.9,11.6-15.4,11.6-25.3c0-13.3-5.4-34.3-16.2-62.9
					l-27.8-69.7H237.1l-35.3,82.1c-9.1,22.8-13.7,39.9-13.7,51.1c0,9,4,16.8,12,23.6c8,6.8,25.2,11.2,51.7,13.3v9.5H77.5v-9.5
					c23-4.4,37.9-10.1,44.6-17.1c13.9-14.1,29.2-42.7,45.9-85.8L360,228.6h20.4l180.4,452.3c15.5,39.1,29.5,64.4,42.1,76
					C615.5,768.5,633,775.1,655.4,776.5z M439.5,578.1l-91.2-222.5l-98.9,222.5H439.5z"/>
				<path d="M882,842.7V882h-15.8c-65.2,0-118.1-52.9-118.1-118.1c0,65.2-52.9,118.1-118.1,118.1h-15.8v-39.4h15.8
					c43.5,0,78.7-35.3,78.7-78.7V512V260c0-43.5-35.3-78.7-78.7-78.7h-15.8v-39.4h15.8c65.2,0,118.1,52.9,118.1,118.1
					c0-65.2,52.9-118.1,118.1-118.1H882v39.4h-15.8c-43.5,0-78.7,35.3-78.7,78.7v252v252c0,43.5,35.3,78.7,78.7,78.7H882z"/>
			</g>
			<g>
			</g>
		</g>
	</g>
</g>
<g id="_x36_">
</g>
</svg>
