<?xml version="1.0" encoding="utf-8"?>
<!-- Generator: Adobe Illustrator 19.0.0, SVG Export Plug-In . SVG Version: 6.00 Build 0)  -->
<svg version="1.1" xmlns="http://www.w3.org/2000/svg" xmlns:xlink="http://www.w3.org/1999/xlink" x="0px" y="0px"
	 viewBox="0 0 1024 1024" style="enable-background:new 0 0 1024 1024;" xml:space="preserve">
<g id="_x30_">
</g>
<g id="_x33_">
	<g id="LINE_10_">
		<g id="XMLID_1_">
			<g>
				<polygon points="945.9,477.6 945.9,792.6 749.1,792.6 				"/>
				<path d="M945.9,871.3v39.4c-19.6,0-39.1-0.4-58.7-1.3c-19.5-0.9-39.1-2.2-58.6-4.1c-19.5-1.9-38.9-4.4-58.2-7.6
					c-19.3-3.2-38.5-7.1-57.5-11.9c-19-4.8-37.7-10.5-56.1-17.2c-18.4-6.7-36.4-14.4-53.7-23.6c-17.3-9.2-33.8-19.7-49.8-31
					c-16-11.3-31.5-23.3-46.6-35.7s-29.8-25.5-43.8-39.1c-14-13.7-27.3-28-40.3-42.7c-13-14.7-25.7-29.6-37.1-45.5
					c-11.4-15.9-21.6-32.8-34.3-47.7c-12.6-14.9-27.7-27.8-44.3-38.1c-16.6-10.3-34.8-18.2-53.3-24.4c-18.6-6.3-37.6-11-56.8-14.5
					s-38.8-5.7-58.3-7.2c-19.5-1.5-39.1-2.1-58.7-2.1v-39.4c157.5,0,262.4,39.4,314.9,118.1c52.5,78.7,118.1,144.4,196.8,196.8
					C670.3,845,788.4,871.3,945.9,871.3z"/>
				<polygon points="276.7,84 276.7,398.9 79.8,398.9 				"/>
				<polygon points="754.8,433.5 512.9,635.1 386.9,483.9 				"/>
			</g>
			<g>
			</g>
		</g>
	</g>
</g>
<g id="_x36_">
</g>
</svg>
