<?xml version="1.0" encoding="utf-8"?>
<!-- Generator: Adobe Illustrator 19.0.0, SVG Export Plug-In . SVG Version: 6.00 Build 0)  -->
<svg version="1.1" xmlns="http://www.w3.org/2000/svg" xmlns:xlink="http://www.w3.org/1999/xlink" x="0px" y="0px"
	 viewBox="0 0 1024 1024" style="enable-background:new 0 0 1024 1024;" xml:space="preserve">
<g id="_x30_">
</g>
<g id="_x33_">
	<g id="ARC_7_">
		<g id="XMLID_1_">
			<g>
				<path d="M585.8,502.2c0.2,6.6,0.2,13.1,0,19.7h-63.9v63.9c-6.6-0.2-13.1-0.2-19.7,0v-63.9h-63.9c0.2-6.6,0.2-13.1,0-19.7h63.9
					v-63.9c6.6-0.2,13.1-0.2,19.7,0v63.9H585.8z"/>
				<path d="M753.6,599.4l112.3,2.5c-17.5,68.8-54.6,131-106.9,179C610.5,917.3,379.5,907.5,243.1,759l-94.4,94.4l5.9-267.3
					l255.8,5.6l-90.6,90.6c94.1,106.2,256.5,116,362.7,21.8C714.5,675.8,739,639.7,753.6,599.4z"/>
				<path d="M875.3,170.6l-5.9,267.3l-255.8-5.6l90.6-90.6c-94.1-106.2-256.5-116-362.7-21.8c-32.1,28.5-56.6,64.5-71.2,104.9
					l-112.3-2.5c17.5-68.8,54.6-131,106.9-179.1C413.5,106.7,644.5,116.4,780.9,265L875.3,170.6z"/>
			</g>
			<g>
			</g>
		</g>
	</g>
</g>
<g id="_x36_">
</g>
</svg>
