<?xml version="1.0" encoding="utf-8"?>
<!-- Generator: Adobe Illustrator 19.0.0, SVG Export Plug-In . SVG Version: 6.00 Build 0)  -->
<svg version="1.1" xmlns="http://www.w3.org/2000/svg" xmlns:xlink="http://www.w3.org/1999/xlink" x="0px" y="0px"
	 viewBox="0 0 1024 1024" style="enable-background:new 0 0 1024 1024;" xml:space="preserve">
<g id="_x30_">
</g>
<g id="_x33_">
	<g id="LINE_29_">
		<g id="XMLID_1_">
			<g>
				<path d="M944.9,189.6v39.4H588v354.3c0,43.5-35.3,78.7-78.7,78.7s-78.7-35.3-78.7-78.7V228.9H78.8v-39.4h391.1v393.7
					c0,21.7,17.6,39.4,39.4,39.4c21.7,0,39.4-17.6,39.4-39.4V189.6H944.9z"/>
				<path d="M944.9,307.7V347H706.1v236.2c0,108.7-88.1,196.8-196.8,196.8S312.4,692,312.4,583.3V347H78.8v-39.4h273v275.6
					c0,87,70.5,157.5,157.5,157.5c87,0,157.5-70.5,157.5-157.5V307.7H944.9z"/>
				<path d="M944.9,425.8v39.4H824.2v118.1c0,173.9-141,314.9-314.9,314.9s-314.9-141-314.9-314.9V465.1H78.8v-39.4h154.9v157.5
					c0,152.2,123.4,275.6,275.6,275.6s275.6-123.4,275.6-275.6V425.8H944.9z"/>
			</g>
			<g>
			</g>
		</g>
	</g>
</g>
<g id="_x36_">
</g>
</svg>
