<?xml version="1.0" encoding="utf-8"?>
<!-- Generator: Adobe Illustrator 19.0.0, SVG Export Plug-In . SVG Version: 6.00 Build 0)  -->
<svg version="1.1" xmlns="http://www.w3.org/2000/svg" xmlns:xlink="http://www.w3.org/1999/xlink" x="0px" y="0px"
	 viewBox="0 0 1024 1024" style="enable-background:new 0 0 1024 1024;" xml:space="preserve">
<g id="_x30_">
</g>
<g id="_x33_">
	<g id="LINE_66_">
		<g id="XMLID_1_">
			<g>
				<path d="M974.8,215.9l-137,456.7L599.2,949L197.1,675.3L59.8,217.9L437.3,79.5L974.8,215.9z M908.2,369.7l25.1-83.8l-31-28.5
					L839,306.1L908.2,369.7z M857.9,537.3l25.1-83.8l-107.3-98.6l-63.3,48.8L857.9,537.3z M137.7,210.3h734.8l-155.1-39.4H245.1
					L137.7,210.3z M785.9,289l49.8-39.4H203.5L285,289H785.9z M820.2,663l12.6-41.9L649.1,452.4l-31.7,24.4v53.5l177,162.6
					L820.2,663z M691.5,812l51.5-59.6L617.4,637.2V744L691.5,812z M686.3,367.8l49.8-39.4H366.4l81.4,39.4H686.3z M617.4,897.8
					l22.5-26.1L617.4,851V897.8z M595.8,439.3l40.7-32.2H529.2L595.8,439.3z M574.1,875.6V787L473,839.3l74,50.4L574.1,875.6z
					 M574.1,698.4v-88.6L325,738.5l74,50.4L574.1,698.4z M574.1,521.1v-44.3l-44-21.6L202.4,624.6l11.5,38.4l37,25.2L574.1,521.1z
					 M352.4,131.6h209.9l-124.1-31.5L352.4,131.6z M179.4,547.9L442.3,412l-87.9-43.2l-198,102.4L179.4,547.9z M133.4,394.4
					l133.1-68.8l-87.9-43.2l-68.3,35.3L133.4,394.4z"/>
			</g>
			<g>
			</g>
		</g>
	</g>
</g>
<g id="_x36_">
</g>
</svg>
