<?xml version="1.0" encoding="utf-8"?>
<!-- Generator: Adobe Illustrator 15.1.0, SVG Export Plug-In . SVG Version: 6.00 Build 0)  -->
<!DOCTYPE svg PUBLIC "-//W3C//DTD SVG 1.1//EN" "http://www.w3.org/Graphics/SVG/1.1/DTD/svg11.dtd">
<svg version="1.1" id="Layer_1" xmlns="http://www.w3.org/2000/svg" xmlns:xlink="http://www.w3.org/1999/xlink" x="0px" y="0px"
	 width="128px" height="128px" viewBox="0 0 128 128" enable-background="new 0 0 128 128" xml:space="preserve">
<g id="LINE_12_">
	<g id="XMLID_1_">
		<g>
			<polygon points="72.94,93.03 73.55,120.95 63.93,120.95 63.31,93.03 			"/>
			<path d="M122.8,55.01c0.95,4.88-0.52,9.75-4.42,14.61c-3.89,4.87-9.06,8.79-15.51,11.77C96.41,84.36,90.16,86.37,84.1,87.41
				c-6.06,1.03-13.89,1.78-23.49,2.229C51,90.09,38.45,87.69,22.95,82.45l-1.82,7.41c-4.61-3.33-8.26-6.591-10.93-9.771
				c-2.68-3.17-4.99-7.399-6.93-12.66c4.62,1.04,8.32,1.63,11.11,1.79c2.79,0.15,6.76,0.021,11.9-0.399l-2.09,8.55
				c10.99,2.87,20.15,4.399,27.47,4.6c7.5,0.2,14.54-0.58,21.109-2.35c6.58-1.76,12.801-4.101,18.66-7.021
				c5.86-2.93,10.061-6.989,12.59-12.189c2.54-5.2,2.24-9.74-0.89-13.61c-3.13-3.88-11.2-7.41-24.21-10.59v-4.23
				c7.8,0.07,14.74,1,20.82,2.79c6.08,1.8,11.21,4.4,15.38,7.81C119.3,45.99,121.86,50.14,122.8,55.01z"/>
			<path d="M58.65,31.98v4.23c-12.66,2.21-20.86,5.49-24.6,9.86c-3.75,4.36-4.35,9.14-1.82,14.34c0.49,1.01,1.04,1.97,1.65,2.89
				l-18.97-1.9c-0.51-2.13-0.56-4.26-0.15-6.39c0.94-4.87,3.5-9.02,7.68-12.43s9.31-6.01,15.39-7.81
				C43.91,32.98,50.85,32.05,58.65,31.98z"/>
			<rect x="63.31" y="6.38" width="9.63" height="67.39"/>
		</g>
		<g>
		</g>
	</g>
</g>
</svg>
