<?xml version="1.0" encoding="utf-8"?>
<!-- Generator: Adobe Illustrator 19.0.0, SVG Export Plug-In . SVG Version: 6.00 Build 0)  -->
<svg version="1.1" xmlns="http://www.w3.org/2000/svg" xmlns:xlink="http://www.w3.org/1999/xlink" x="0px" y="0px"
	 viewBox="0 0 1024 1024" style="enable-background:new 0 0 1024 1024;" xml:space="preserve">
<g id="_x30_">
</g>
<g id="_x33_">
	<g id="LINE_31_">
		<g id="XMLID_1_">
			<g>
				<path d="M974.8,215.9l-137,456.7L599.2,949L197.1,675.3L59.8,217.9L437.3,79.5L974.8,215.9z M595.8,439.3l286.5-226.5
					l-444-112.7L128.8,213.5L595.8,439.3z M574.1,875.6V787L473,839.3l74,50.4L574.1,875.6z M574.1,698.4v-88.6L325,738.5l74,50.4
					L574.1,698.4z M574.1,521.1v-44.3l-44-21.6L202.4,624.6l11.5,38.4l37,25.2L574.1,521.1z M179.4,547.9L442.3,412l-87.9-43.2
					l-198,102.4L179.4,547.9z M133.4,394.4l133.1-68.8l-87.9-43.2l-68.3,35.3L133.4,394.4z"/>
			</g>
			<g>
			</g>
		</g>
	</g>
</g>
<g id="_x36_">
</g>
</svg>
