<?xml version="1.0" encoding="utf-8"?>
<!-- Generator: Adobe Illustrator 19.0.0, SVG Export Plug-In . SVG Version: 6.00 Build 0)  -->
<svg version="1.1" xmlns="http://www.w3.org/2000/svg" xmlns:xlink="http://www.w3.org/1999/xlink" x="0px" y="0px"
	 viewBox="0 0 1024 1024" style="enable-background:new 0 0 1024 1024;" xml:space="preserve">
<g id="_x30_">
</g>
<g id="_x33_">
	<g id="LINE_49_">
		<g id="XMLID_1_">
			<g>
				<polygon points="758.3,655.6 727.3,685.8 688.3,670.5 711.5,637.3 				"/>
				<polygon points="685.3,627 662.1,660.2 632.7,648.7 632.7,606.4 				"/>
				<polygon points="552.7,575 552.7,617.3 487.6,591.8 529.9,566.2 				"/>
				<polygon points="382.3,634.6 308.6,672.5 267.5,649.5 338.5,612.8 				"/>
				<polygon points="474.9,586.8 434.9,607.4 388.1,587.3 424.2,568.6 				"/>
				<polygon points="485.9,469.4 493.1,552.3 453.7,553.4 444.6,449.1 				"/>
				<polygon points="471.4,303.3 478.2,380.8 436.9,360.9 430.2,284.4 				"/>
				<polygon points="461.8,194.1 467.2,255.6 426.5,242.1 421.1,180.5 				"/>
				<path d="M947,245.6l-129.9,433L592.7,938.5L210.9,678.7l-129.9-433l354.3-129.9L947,245.6z M779.3,654.1l112.6-375.3
					L614.3,492.5V845L779.3,654.1z M592.7,455l248-196l-405.4-98l-248,98L592.7,455z M571,862.9V492.5l-435-213.8l112.6,375.3
					L571,862.9z"/>
			</g>
			<g>
			</g>
		</g>
	</g>
</g>
<g id="_x36_">
</g>
</svg>
