<?xml version="1.0" encoding="utf-8"?>
<!-- Generator: Adobe Illustrator 16.0.0, SVG Export Plug-In . SVG Version: 6.00 Build 0)  -->
<!DOCTYPE svg PUBLIC "-//W3C//DTD SVG 1.1//EN" "http://www.w3.org/Graphics/SVG/1.1/DTD/svg11.dtd">
<svg version="1.1" id="Layer_1" xmlns="http://www.w3.org/2000/svg" xmlns:xlink="http://www.w3.org/1999/xlink" x="0px" y="0px"
	 width="64px" height="64px" viewBox="0 0 64 64" enable-background="new 0 0 64 64" xml:space="preserve">
<g id="CIRCLE_1_">
	<g id="XMLID_1_">
		<g>
			<path d="M50.049805,10.310059c0-2.060059-1.679688-3.72998-3.740234-3.72998c-2.05957,0-3.729492,1.669922-3.729492,3.72998
				s1.669922,3.72998,3.729492,3.72998C48.370117,14.040039,50.049805,12.370117,50.049805,10.310059z M41.330078,10.310059
				c0-2.75,2.229492-4.97998,4.979492-4.97998s4.980469,2.22998,4.980469,4.97998s-2.230469,4.97998-4.980469,4.97998
				S41.330078,13.060059,41.330078,10.310059z"/>
			<path d="M15,7.439941c3.040039,2.220215,4.600098,5.260254,3.47998,6.790039c-1.109863,1.529785-4.47998,0.970215-7.52002-1.25
				c-3.040039-2.209961-4.600098-5.25-3.47998-6.779785C8.589844,4.669922,11.959961,5.220215,15,7.439941z"/>
			<path d="M51.75,58.910156H40.360352L24.109863,34.870117c0.570313,1.139648,0.5,2.169922-0.179688,2.629883
				c-0.939941,0.639648-2.740234-0.030273-4.010254-1.480469l-8.259766-12.209473
				c-0.550293-0.819824-0.850098-1.790039-0.850098-2.780273c0-2.75,2.22998-4.97998,4.97998-4.97998h5.489746
				c4,0,7.740234,1.97998,9.97998,5.300293l4.640625,6.859863v-7.180176c0-2.75,2.229492-4.97998,4.979492-4.97998H51.75
				c2.75,0,4.980469,2.22998,4.980469,4.97998v12.960449c0,1.370117-1.120117,2.479492-2.490234,2.479492
				c-1.379883,0-2.490234-1.109375-2.490234-2.479492V58.910156z M40.879883,42.099609v-8.080078
				c0,0.830078-0.410156,1.600586-1.089844,2.060547c-1.139648,0.769531-2.69043,0.479492-3.459961-0.660156L40.879883,42.099609z
				 M42.120117,34.019531v23.650391h8.389648V33.990234c0-0.69043,0.549805-1.25,1.240234-1.25s1.25,0.55957,1.25,1.25
				c0,0.679688,0.549805,1.240234,1.240234,1.240234c0.689453,0,1.240234-0.560547,1.240234-1.240234V21.029785
				c0-2.069824-1.670898-3.739746-3.730469-3.739746H40.879883c-2.070313,0-3.740234,1.669922-3.740234,3.739746v12.989746
				c0,0.69043,0.560547,1.25,1.25,1.25c0.680664,0,1.240234-0.55957,1.240234-1.25c0-0.679688,0.560547-1.239746,1.25-1.239746
				C41.55957,32.779785,42.120117,33.339844,42.120117,34.019531z"/>
		</g>
		<g>
		</g>
	</g>
</g>
</svg>
