<?xml version="1.0" encoding="utf-8"?>
<!-- Generator: Adobe Illustrator 19.0.0, SVG Export Plug-In . SVG Version: 6.00 Build 0)  -->
<svg version="1.1" xmlns="http://www.w3.org/2000/svg" xmlns:xlink="http://www.w3.org/1999/xlink" x="0px" y="0px"
	 viewBox="0 0 1024 1024" style="enable-background:new 0 0 1024 1024;" xml:space="preserve">
<g id="_x30_">
</g>
<g id="_x33_">
	<g id="LINE_55_">
		<g id="XMLID_1_">
			<g>
				<path d="M842.4,253.3l-248,196L189,253.3l248-98L842.4,253.3z M479.9,375.2l-6.8-77.5L432,278.8l6.7,76.4L479.9,375.2z M469,250
					l-5.4-61.6l-40.7-13.6l5.4,61.6L469,250z"/>
				<path d="M893.6,273.1L781,648.4l-164.9,191V486.8L893.6,273.1z M729.1,680.1l31-30.1l-46.8-18.3l-23.2,33.2L729.1,680.1z
					 M663.8,654.6l23.2-33.2l-52.6-20.6V643L663.8,654.6z"/>
				<path d="M572.8,486.8v370.4L250.4,648.4L137.8,273.1L572.8,486.8z M554.5,611.7v-42.3l-22.9-8.8l-42.3,25.6L554.5,611.7z
					 M494.9,546.7l-7.2-82.9l-41.3-20.3l9.1,104.3L494.9,546.7z M436.6,601.8l40-20.6L425.9,563l-36.1,18.6L436.6,601.8z
					 M310.4,666.9l73.6-38l-43.7-21.7l-71,36.6L310.4,666.9z"/>
				<path d="M973.5,226l-137,456.7L597.9,959L195.7,685.4L58.5,227.9L435.9,89.5L973.5,226z M818.8,673l129.9-433L437,110.1
					L82.7,240l129.9,433l381.9,259.8L818.8,673z"/>
			</g>
			<g>
			</g>
		</g>
	</g>
</g>
<g id="_x36_">
</g>
</svg>
