<?xml version="1.0" encoding="utf-8"?>
<!-- Generator: Adobe Illustrator 19.0.0, SVG Export Plug-In . SVG Version: 6.00 Build 0)  -->
<svg version="1.1" xmlns="http://www.w3.org/2000/svg" xmlns:xlink="http://www.w3.org/1999/xlink" x="0px" y="0px"
	 viewBox="0 0 1024 1024" style="enable-background:new 0 0 1024 1024;" xml:space="preserve">
<g id="_x30_">
</g>
<g id="_x33_">
	<g id="LINE_31_">
		<g id="XMLID_1_">
			<g>
				<path d="M947,225.7l-129.9,433L592.7,918.6L210.9,658.8l-129.9-433L435.2,95.8L947,225.7z M776.6,642.9l115.2-384.1L614.3,472.5
					v352.5L745.7,673l-113-44.3v-42.3L776.6,642.9z M592.7,435l248-196l-381.2-92.1l18.7,214l-41.3-20L420,147.1l-232.7,92
					L592.7,435z M571,843V472.5l-435-213.8L250,638.6l203.7-105.1l-9.1-104.3l41.3,20.3l7.2,82.3l59.6,23.4v42.3l-77.9-30.5
					l-183.7,94.8L571,843z"/>
			</g>
			<g>
			</g>
		</g>
	</g>
</g>
<g id="_x36_">
</g>
</svg>
