<?xml version="1.0" encoding="utf-8"?>
<!-- Generator: Adobe Illustrator 15.1.0, SVG Export Plug-In . SVG Version: 6.00 Build 0)  -->
<!DOCTYPE svg PUBLIC "-//W3C//DTD SVG 1.1//EN" "http://www.w3.org/Graphics/SVG/1.1/DTD/svg11.dtd">
<svg version="1.1" id="Layer_1" xmlns="http://www.w3.org/2000/svg" xmlns:xlink="http://www.w3.org/1999/xlink" x="0px" y="0px"
	 width="128px" height="128px" viewBox="0 0 128 128" enable-background="new 0 0 128 128" xml:space="preserve">
<g id="ARC_29_">
	<g id="XMLID_1_">
		<g>
			<path d="M106.05,44.16H101c0-1.69-0.24-3.36-0.72-4.98l4.85-1.43C105.74,39.83,106.05,41.99,106.05,44.16z"/>
			<path d="M102.44,31.87l-4.25,2.73c-0.91-1.42-2.021-2.7-3.301-3.8l3.311-3.82C99.84,28.4,101.27,30.05,102.44,31.87z"/>
			<path d="M92.75,23.48l-2.09,4.6c-1.54-0.7-3.16-1.18-4.83-1.42l0.71-5C88.69,21.97,90.78,22.58,92.75,23.48z"/>
			<path d="M80.07,21.67l0.729,5c-1.67,0.24-3.3,0.72-4.83,1.42l-2.1-4.59C75.84,22.59,77.93,21.98,80.07,21.67z"/>
			<path d="M68.43,27l3.311,3.81c-1.28,1.11-2.391,2.39-3.3,3.81l-4.25-2.73C65.36,30.07,66.79,28.42,68.43,27z"/>
			<path d="M62.05,31.89l-4.25,2.73c-0.91-1.42-2.02-2.7-3.29-3.81L57.82,27C59.46,28.42,60.88,30.07,62.05,31.89z"/>
			<path d="M52.38,23.5l-2.1,4.59c-1.54-0.7-3.16-1.18-4.83-1.42l0.72-5C48.32,21.98,50.41,22.59,52.38,23.5z"/>
			<path d="M39.7,21.66l0.72,5c-1.67,0.24-3.3,0.72-4.83,1.42l-2.1-4.6C35.46,22.58,37.55,21.97,39.7,21.66z"/>
			<path d="M28.04,26.98l3.31,3.82c-1.27,1.1-2.38,2.38-3.3,3.8l-4.24-2.73C24.98,30.05,26.41,28.4,28.04,26.98z"/>
			<path d="M21.12,37.75l4.84,1.43c-0.47,1.62-0.71,3.29-0.71,4.98H20.2C20.2,41.99,20.51,39.83,21.12,37.75z"/>
			<rect x="60.6" y="59.31" width="5.05" height="5.05"/>
			<rect x="60.6" y="69.41" width="5.05" height="5.05"/>
			<rect x="60.6" y="79.51" width="5.05" height="5.05"/>
			<path d="M123.73,64.36L93.27,104.65c-10.64-8.04-24.05-11.5-37.25-9.61l8.46,6.77c1.21,0.971,1.92,2.44,1.92,4
				c0,1.471-0.631,2.86-1.72,3.841c-2.12,1.869-5.36,1.68-7.24-0.44l-10.6-11.95c-4.98,1.721-9.66,4.21-13.87,7.391L2.52,64.36
				c16.76-12.67,37.07-19.77,58.08-20.3v-4.95h5.05v4.95C86.65,44.59,106.96,51.69,123.73,64.36z M92.15,97.76l24.42-32.31
				C101.5,55.27,83.83,49.6,65.65,49.12v5.14H60.6v-5.14C42.41,49.6,24.75,55.27,9.67,65.45L34.1,97.76c2.9-1.8,5.96-3.33,9.14-4.56
				L17.67,64.36l33.15,26.52C64.96,87.63,79.82,90.11,92.15,97.76z"/>
		</g>
		<g>
		</g>
	</g>
</g>
</svg>
