<?xml version="1.0" encoding="utf-8"?>
<!-- Generator: Adobe Illustrator 19.0.0, SVG Export Plug-In . SVG Version: 6.00 Build 0)  -->
<svg version="1.1" xmlns="http://www.w3.org/2000/svg" xmlns:xlink="http://www.w3.org/1999/xlink" x="0px" y="0px"
	 viewBox="0 0 1024 1024" style="enable-background:new 0 0 1024 1024;" xml:space="preserve">
<g id="_x30_">
</g>
<g id="_x33_">
	<g id="LINE_13_">
		<g id="XMLID_1_">
			<g>
				<path d="M798.9,238.4l165.1,220.1l-137-25.2l-64.7-161.6c-21.1-52.8-76.1-83.8-132.2-74.5l-39.4-39.4
					C669.8,142.7,750.6,174,798.9,238.4z"/>
				<path d="M433.3,157.7l-39.4,39.4c-56.1-9.2-111.1,21.8-132.2,74.5l-64.7,161.6l-137,25.2l165.1-220.1
					C273.4,174,354.2,142.7,433.3,157.7z"/>
				<path d="M956.6,514v64.7l-15.5,9.7c0.5,69-5.7,116.5-18.4,142.5c-32.1,65.3-83.4,97.9-153.9,97.9c-90.3,0-151.3-28.4-183-85.3
					c-18.7-33.9-29.6-89.5-32.5-166.7l13.6-23.3c-15.5-12.9-35.5-19.4-60.1-19.4s-44.6,6.5-60.1,19.4l13.6,23.3
					c-2.9,77.2-13.7,132.8-32.5,166.7c-31.7,56.9-92.6,85.3-183,85.3c-70.4,0-121.7-32.6-153.9-97.9c-12.8-26-18.9-73.5-18.4-142.5
					l-15.5-9.7V514c83.7-28,151.4-41.9,203.1-41.9c51.5,0,109.4,11.5,173.7,34.4c26.2-12.6,50.5-18.9,72.9-18.9
					c22.5,0,46.8,6.3,72.9,18.9C644.1,483.5,702,472,753.5,472C805.2,472,872.9,486,956.6,514z M708.5,521
					c-19.2-1-35.6,0.6-49.2,4.6c-15.7,4.8-25.3,8.1-28.8,9.7c-8.4,4.5-15.4,11.5-21.1,20.8c-6.3,11-9.5,36.3-9.5,75.8
					c0,29.4,6.5,57.6,19.6,84.6c8.7-47.3,19.3-85.9,31.9-115.7C663.9,571,683,544.4,708.5,521z M227.7,521
					c-19.2-1-35.6,0.6-49.2,4.6c-15.7,4.8-25.3,8.1-28.8,9.7c-8.4,4.5-15.4,11.5-21.1,20.8c-6.3,11-9.4,36.3-9.4,75.8
					c0,29.4,6.5,57.6,19.6,84.6c8.7-47.3,19.3-85.9,31.9-115.7C183.2,571,202.2,544.4,227.7,521z"/>
			</g>
			<g>
			</g>
		</g>
	</g>
</g>
<g id="_x36_">
</g>
</svg>
