<?xml version="1.0" encoding="utf-8"?>
<!-- Generator: Adobe Illustrator 15.1.0, SVG Export Plug-In . SVG Version: 6.00 Build 0)  -->
<!DOCTYPE svg PUBLIC "-//W3C//DTD SVG 1.1//EN" "http://www.w3.org/Graphics/SVG/1.1/DTD/svg11.dtd">
<svg version="1.1" id="Layer_1" xmlns="http://www.w3.org/2000/svg" xmlns:xlink="http://www.w3.org/1999/xlink" x="0px" y="0px"
	 width="128px" height="128px" viewBox="0 0 128 128" enable-background="new 0 0 128 128" xml:space="preserve">
<g id="LINE_14_">
	<g id="XMLID_1_">
		<g>
			<path d="M100.79,93.97c-0.38-1.38-0.771-2.75-1.17-4.12c-0.04-0.13-0.08-0.25-0.12-0.38l5.15-2.739
				c0.43,1.859,0.84,3.77,1.229,5.75l7.36-2.141c-0.58,5.69-1.58,10.5-3,14.42c-1.42,3.931-3.94,8.061-7.54,12.391
				c-1.42-4.53-2.76-8.051-4.03-10.561c-1.27-2.51-3.38-5.899-6.33-10.16L100.79,93.97z"/>
			<path d="M61.51,21.31l-6.67,7.09l-4.45,4.73c-0.87-0.1-1.73-0.15-2.6-0.15c-1.42-0.01-2.85,0.1-4.25,0.38
				c-1.4,0.28-2.77,0.73-4.02,1.43c-1.24,0.7-2.34,1.65-3.22,2.78c-0.87,1.12-1.51,2.42-1.95,3.78c-0.43,1.36-0.67,2.78-0.78,4.2
				c-0.12,1.42-0.11,2.85-0.04,4.27c0.08,1.43,0.23,2.85,0.43,4.26s0.46,2.82,0.74,4.22c0.13,0.63,0.27,1.26,0.41,1.89l-3.63,4.66
				c-2.57-5.11-4.46-10.19-5.68-15.25c-1.49-6.19-1.8-11.96-0.93-17.31s3.19-9.66,6.96-12.93c3.76-3.27,8.74-4.44,14.93-3.5
				C51.8,16.63,56.71,18.45,61.51,21.31z"/>
			<path d="M99.49,69.07l-5.351,5.26c-0.08-0.2-0.17-0.4-0.25-0.6c-0.569-1.301-1.17-2.601-1.81-3.881
				c-0.63-1.27-1.311-2.529-2.021-3.77s-1.449-2.46-2.22-3.66c-0.77-1.2-1.57-2.38-2.41-3.53s-1.71-2.29-2.609-3.39
				c-0.91-1.1-1.851-2.18-2.82-3.22c-0.97-1.04-1.98-2.05-3-3.05c-1.03-0.99-2.08-1.95-3.15-2.9c-1.06-0.95-2.149-1.87-3.25-2.77
				c-1.109-0.9-2.239-1.78-3.38-2.63c-1.14-0.86-2.3-1.69-3.49-2.48c-1.14-0.77-2.3-1.51-3.51-2.17l8.49-9.9
				c4.14,3.28,7.73,6.74,10.76,10.39c0.49,0.59,1,1.21,1.511,1.86c3.59,4.53,7.67,10.35,12.239,17.46
				C95.5,59.65,97.59,63.98,99.49,69.07z"/>
			<path d="M81.81,37.09c0.7,0.03,1.391,0.06,2.08,0.11c1.53,0.1,3.07,0.25,4.591,0.44c1.529,0.19,3.05,0.43,4.56,0.72
				s3.01,0.63,4.5,1.03c1.49,0.39,2.96,0.84,4.41,1.35c1.45,0.51,2.88,1.08,4.28,1.73c1.39,0.64,2.76,1.36,4.069,2.15
				c1.32,0.8,2.601,1.66,3.811,2.61s2.359,1.99,3.39,3.13c1.03,1.14,1.94,2.39,2.7,3.73c0.75,1.34,1.35,2.77,1.79,4.24
				c0.43,1.48,0.71,3.01,0.74,4.55c0.02,1.53-0.2,3.08-0.631,4.55c-0.43,1.48-1.06,2.891-1.83,4.23c-0.77,1.33-1.67,2.58-2.649,3.77
				c-0.98,1.19-2.04,2.311-3.16,3.36c-1.12,1.06-2.3,2.05-3.53,2.97c-1.229,0.92-2.51,1.78-3.84,2.561
				c-1.32,0.79-2.68,1.51-4.07,2.17c-1.38,0.67-2.8,1.279-4.22,1.859c-1.42,0.591-2.859,1.141-4.31,1.641
				c-1.46,0.5-2.931,0.96-4.41,1.38c-1.48,0.41-2.98,0.78-4.48,1.08c-1.51,0.31-3.029,0.569-4.55,0.79
				c-1.52,0.22-3.05,0.42-4.58,0.59c-1.529,0.18-3.06,0.33-4.59,0.47c-1.53,0.141-3.07,0.26-4.6,0.37c-1.53,0.1-3.07,0.19-4.61,0.28
				c-1.53,0.09-3.07,0.18-4.61,0.189c-1.54,0.021-3.07-0.029-4.61-0.14c-1.53-0.1-3.07-0.26-4.59-0.46
				c-1.53-0.2-3.05-0.44-4.56-0.71c-0.76-0.13-1.52-0.28-2.27-0.43c-0.75-0.16-1.51-0.32-2.26-0.48c-1.5-0.33-2.99-0.689-4.48-1.08
				c-1.49-0.38-2.98-0.78-4.46-1.21c-1.47-0.43-2.95-0.87-4.41-1.33c-1.47-0.46-2.93-0.939-4.38-1.479l-1.82,7.449
				c-4.64-3.35-8.3-6.619-10.99-9.819c-2.69-3.19-5.01-7.431-6.96-12.73c4.64,1.05,8.36,1.65,11.16,1.8
				c2.81,0.16,6.8,0.021,11.97-0.399l-2.11,8.59c1.4,0.32,2.78,0.67,4.17,1c1.38,0.33,2.77,0.65,4.17,0.95
				c1.39,0.3,2.79,0.59,4.19,0.85c1.4,0.26,2.81,0.51,4.22,0.721c0.61,0.1,1.22,0.189,1.84,0.27c0.8,0.11,1.6,0.21,2.4,0.3
				c1.42,0.17,2.84,0.3,4.26,0.38c1.43,0.09,2.85,0.13,4.28,0.141c1.43,0,2.85-0.03,4.28-0.101c1.42-0.06,2.85-0.17,4.26-0.319
				c1.42-0.15,2.84-0.33,4.24-0.57c1.41-0.23,2.811-0.5,4.2-0.82c1.391-0.319,2.771-0.689,4.141-1.08
				c1.369-0.399,2.739-0.819,4.09-1.27c1.35-0.45,2.7-0.93,4.029-1.44c1.33-0.5,2.65-1.04,3.971-1.609c1.3-0.561,2.6-1.15,3.89-1.78
				c1.28-0.62,2.55-1.28,3.76-2.03c0.301-0.189,0.601-0.38,0.9-0.58c0.88-0.6,1.74-1.25,2.55-1.939c1.09-0.92,2.11-1.931,3.03-3.021
				s1.74-2.26,2.46-3.5c0.72-1.229,1.34-2.52,1.8-3.87s0.75-2.77,0.771-4.19c0.01-1.43-0.261-2.86-0.801-4.18
				c-0.529-1.32-1.34-2.52-2.3-3.58s-2.07-1.97-3.24-2.78c-1.18-0.81-2.42-1.52-3.689-2.17c-1.271-0.64-2.58-1.22-3.9-1.75
				c-1.31-0.53-2.64-1.01-3.979-1.46l-5.07-5.74L81.81,37.09z"/>
			<path d="M81.18,94.2l1.221-0.17c-3.44,5.52-7.271,10.29-11.49,14.31c-4.62,4.391-9.46,7.54-14.53,9.46
				c-5.07,1.92-9.96,2.07-14.68,0.44c-4.71-1.62-8.21-5.36-10.49-11.19c-1.82-4.649-2.71-9.72-2.66-15.189l13.26,2.649l2.35,0.471
				c0.62,1.47,1.38,2.869,2.28,4.199c3.25,4.82,7.35,6.84,12.3,6.07c4.57-0.72,10.16-4.15,16.77-10.28L81.18,94.2z"/>
			<path d="M42.17,82.1c-0.06,0.971-0.08,1.92-0.06,2.851l-12.72-2.46c0.77-5.11,1.96-9.851,3.57-14.21
				c0.86-2.32,1.9-4.87,3.13-7.65c1.83-4.14,4.08-8.78,6.73-13.92c2.78-5.37,7.09-11.18,12.95-17.43c3.52-3.76,7.6-7.67,12.23-11.74
				l-5.53-5.3C67.68,9.9,72.35,8.37,76.46,7.63c4.11-0.73,8.94-0.62,14.5,0.34c-3.22,3.49-5.6,6.41-7.14,8.77
				c-1.53,2.35-3.41,5.87-5.63,10.56L71.8,21.18c-1.43,1.45-2.8,2.87-4.09,4.26C61.73,31.85,57.15,37.62,54,42.77
				c-3.95,6.43-6.81,12.95-8.58,19.56C43.65,68.94,42.57,75.53,42.17,82.1z"/>
		</g>
		<g>
		</g>
	</g>
</g>
</svg>
