<?xml version="1.0" encoding="utf-8"?>
<!-- Generator: Adobe Illustrator 19.0.0, SVG Export Plug-In . SVG Version: 6.00 Build 0)  -->
<svg version="1.1" xmlns="http://www.w3.org/2000/svg" xmlns:xlink="http://www.w3.org/1999/xlink" x="0px" y="0px"
	 viewBox="0 0 1024 1024" style="enable-background:new 0 0 1024 1024;" xml:space="preserve">
<g id="_x30_">
</g>
<g id="_x33_">
	<g id="LINE_60_">
		<g id="XMLID_1_">
			<g>
				<polygon points="559.3,140.7 349.3,140.7 435.2,109.2 				"/>
				<polygon points="869.5,219.4 134.6,219.4 242,180.1 714.4,180.1 				"/>
				<polygon points="633.4,416.3 592.7,448.5 526.2,416.3 				"/>
				<polygon points="733,337.5 683.2,376.9 444.7,376.9 363.3,337.5 				"/>
				<polygon points="832.6,258.8 782.8,298.2 281.9,298.2 200.5,258.8 				"/>
				<polygon points="263.4,334.8 130.3,403.6 107.3,326.9 175.5,291.6 				"/>
				<polygon points="439.2,421.2 176.3,557.1 153.3,480.3 351.3,378 				"/>
				<polygon points="571,486 571,530.3 247.9,697.3 210.9,672.2 199.3,633.8 527.1,464.4 				"/>
				<polygon points="571,618.9 571,707.5 395.9,798.1 321.9,747.7 				"/>
				<polygon points="571,796.2 571,884.8 544,898.8 469.9,848.4 				"/>
				<polygon points="636.9,880.8 614.3,906.9 614.3,860.1 				"/>
				<polygon points="739.9,761.6 688.4,821.2 614.3,753.2 614.3,646.3 				"/>
				<polygon points="880,462.6 854.8,546.5 709.3,412.8 772.6,364.1 				"/>
				<polygon points="829.7,630.3 817.1,672.2 791.3,702 614.3,539.4 614.3,486 646,461.6 				"/>
				<polygon points="930.2,295 905.1,378.8 835.9,315.3 899.2,266.5 				"/>
			</g>
			<g>
			</g>
		</g>
	</g>
</g>
<g id="_x36_">
</g>
</svg>
