<?xml version="1.0" encoding="utf-8"?>
<!-- Generator: Adobe Illustrator 15.1.0, SVG Export Plug-In . SVG Version: 6.00 Build 0)  -->
<!DOCTYPE svg PUBLIC "-//W3C//DTD SVG 1.1//EN" "http://www.w3.org/Graphics/SVG/1.1/DTD/svg11.dtd">
<svg version="1.1" id="Layer_1" xmlns="http://www.w3.org/2000/svg" xmlns:xlink="http://www.w3.org/1999/xlink" x="0px" y="0px"
	 width="128px" height="128px" viewBox="0 0 128 128" enable-background="new 0 0 128 128" xml:space="preserve">
<g id="LINE_71_">
	<g id="XMLID_1_">
		<g>
			<rect x="2.83" y="5.64" width="120.43" height="10.95"/>
			<rect x="2.83" y="33.01" width="21.89" height="10.95"/>
			<rect x="35.67" y="33.01" width="5.48" height="10.95"/>
			<rect x="52.09" y="33.01" width="21.9" height="10.95"/>
			<rect x="84.94" y="33.01" width="5.47" height="10.95"/>
			<rect x="101.36" y="33.01" width="21.899" height="10.95"/>
			<rect x="112.31" y="60.38" width="10.95" height="10.95"/>
			<rect x="90.41" y="60.38" width="10.95" height="10.95"/>
			<rect x="68.52" y="60.38" width="10.94" height="10.95"/>
			<rect x="46.62" y="60.38" width="10.95" height="10.95"/>
			<rect x="24.72" y="60.38" width="10.95" height="10.95"/>
			<rect x="2.83" y="60.38" width="10.95" height="10.95"/>
			<polygon points="123.73,93.69 123.26,109.64 112.31,120.59 101.36,109.64 90.41,120.59 79.46,109.64 68.52,120.59 57.57,109.64 
				46.62,120.59 35.67,109.64 24.72,120.59 13.78,109.64 2.83,120.59 3.3,104.64 13.78,94.16 24.72,105.11 35.67,94.16 
				46.62,105.11 57.57,94.16 68.52,105.11 79.46,94.16 90.41,105.11 101.36,94.16 112.31,105.11 			"/>
		</g>
		<g>
		</g>
	</g>
</g>
</svg>
