<?xml version="1.0" encoding="utf-8"?>
<!-- Generator: Adobe Illustrator 15.1.0, SVG Export Plug-In . SVG Version: 6.00 Build 0)  -->
<!DOCTYPE svg PUBLIC "-//W3C//DTD SVG 1.1//EN" "http://www.w3.org/Graphics/SVG/1.1/DTD/svg11.dtd">
<svg version="1.1" id="Layer_1" xmlns="http://www.w3.org/2000/svg" xmlns:xlink="http://www.w3.org/1999/xlink" x="0px" y="0px"
	 width="128px" height="128px" viewBox="0 0 128 128" enable-background="new 0 0 128 128" xml:space="preserve">
<g id="SPLINE_7_">
	<g id="XMLID_1_">
		<g>
			<path d="M68.25,113.86c0,2.199-0.37,4-1.11,5.409c-0.729,1.41-1.8,2.5-3.189,3.28c-1.4,0.78-3.14,1.181-5.22,1.181
				c-2.11,0-3.86-0.341-5.25-1.021c-1.39-0.67-2.51-1.74-3.37-3.21c-0.87-1.46-1.3-3.29-1.3-5.48c0-3.069,0.86-5.46,2.56-7.17
				c1.71-1.71,4.08-2.56,7.13-2.56c3.12,0,5.53,0.84,7.22,2.52C67.41,108.49,68.25,110.84,68.25,113.86z M61.38,118.11
				c0.67-0.811,1-2.25,1-4.341c0-1.77-0.35-3.05-1.05-3.859c-0.69-0.82-1.64-1.22-2.84-1.22c-1.15,0-2.07,0.409-2.77,1.239
				c-0.69,0.82-1.04,2.19-1.04,4.09c0,1.891,0.35,3.24,1.04,4.07c0.69,0.82,1.63,1.24,2.82,1.24
				C59.76,119.33,60.71,118.92,61.38,118.11z"/>
			<polygon points="89.15,104.66 89.15,123.36 83.65,123.36 76.69,113.09 76.69,123.36 71.19,123.36 71.19,104.66 76.65,104.66 
				83.65,114.99 83.65,104.66 			"/>
			<path d="M110.58,13.34V102.4H42.47h-5.23V50.01L16.28,29.05L32,2.86h36.67l10.48,10.48H110.58z M105.34,97.16V23.82
				c-4.08,3.65-7.7,7.8-10.78,12.34L65.89,7.49L52.95,29.05L84.39,60.49c-2.46,12.26-1.42,24.97,3,36.67H105.34z M103.39,18.58h-19
				l9.591,9.59C96.81,24.68,99.96,21.47,103.39,18.58z M49.99,23.82L59.42,8.1H34.96l-9.43,15.72H49.99z M42.47,97.16h8.25
				c-4.42-11.7-5.46-24.41-3.01-36.67l-5.24-5.24V97.16z"/>
		</g>
		<g>
		</g>
	</g>
</g>
</svg>
