<?xml version="1.0" encoding="utf-8"?>
<!-- Generator: Adobe Illustrator 15.1.0, SVG Export Plug-In . SVG Version: 6.00 Build 0)  -->
<!DOCTYPE svg PUBLIC "-//W3C//DTD SVG 1.1//EN" "http://www.w3.org/Graphics/SVG/1.1/DTD/svg11.dtd">
<svg version="1.1" id="Layer_1" xmlns="http://www.w3.org/2000/svg" xmlns:xlink="http://www.w3.org/1999/xlink" x="0px" y="0px"
	 width="128px" height="128px" viewBox="0 0 128 128" enable-background="new 0 0 128 128" xml:space="preserve">
<g id="ARC_18_">
	<g id="XMLID_1_">
		<g>
			<path d="M104.48,105.43C118.71,91.53,124.84,71.32,120.75,51.85c-0.39-0.67-0.8-1.32-1.24-1.95l0.681-0.49
				c-3.671-14.36-12.69-26.78-25.2-34.72c-4.08-2.59-8.471-4.66-13.07-6.17c-0.79,0-1.56,0.04-2.33,0.11l-0.07-0.84
				C60.37,2.42,39.8,7.21,24.99,20.49c-0.49,0.85-0.92,1.71-1.31,2.58l-0.77-0.44c0.07-0.15,0.16-0.29,0.24-0.43
				C8.93,36.11,2.79,56.31,6.88,75.78c0.39,0.68,0.81,1.33,1.25,1.96l-0.68,0.49c4.92,19.27,19.35,34.689,38.26,40.88
				c0.79,0,1.56-0.04,2.33-0.11l0.07,0.84c19.15,5.37,39.72,0.58,54.541-12.7c0.479-0.85,0.92-1.71,1.31-2.58l0.771,0.431
				C104.65,105.14,104.57,105.28,104.48,105.43z M63.82,2.91c33.64,0,60.911,27.27,60.911,60.91
				c0,33.64-27.271,60.911-60.911,60.911c-33.64,0-60.91-27.271-60.91-60.911C2.91,30.18,30.18,2.91,63.82,2.91z"/>
			<path d="M92.23,58.49c16.189,9.49,21.729,30.22,12.5,46.5l-0.771-0.431c5.98-13.359,0.96-29.359-12.01-36.79
				c-5.11-2.919-11-4.22-16.86-3.7c4.93,6.15,7.601,13.8,7.55,21.69c-0.13,18.94-15.58,34.2-34.53,34.08L48.04,119
				c14.84-1.24,26.47-13.7,26.41-28.84c-0.021-5.891-1.84-11.63-5.22-16.45c-2.851,7.34-8.15,13.48-15,17.37
				c-16.47,9.37-37.42,3.61-46.78-12.85l0.68-0.49c8.48,12.24,25.1,16.08,38.2,8.46c5.08-2.96,9.14-7.41,11.63-12.75
				c-7.79,1.2-15.75-0.32-22.55-4.311C19.2,59.65,13.67,38.91,22.91,22.63l0.77,0.44c-5.99,13.37-0.97,29.36,12.01,36.79
				c5.11,2.93,10.99,4.22,16.85,3.7c-4.93-6.14-7.59-13.8-7.54-21.68C45.12,22.93,60.58,7.67,79.52,7.79l0.07,0.84
				c-14.84,1.24-26.47,13.7-26.41,28.85c0.02,5.88,1.84,11.62,5.22,16.45c2.86-7.35,8.16-13.48,15.01-17.38
				c16.47-9.37,37.41-3.61,46.78,12.86l-0.681,0.49c-8.49-12.24-25.1-16.09-38.2-8.47c-5.09,2.97-9.149,7.41-11.64,12.75
				C77.46,52.98,85.43,54.5,92.23,58.49z"/>
		</g>
		<g>
		</g>
	</g>
</g>
</svg>
