<?xml version="1.0" encoding="utf-8"?>
<!-- Generator: Adobe Illustrator 19.0.0, SVG Export Plug-In . SVG Version: 6.00 Build 0)  -->
<svg version="1.1" xmlns="http://www.w3.org/2000/svg" xmlns:xlink="http://www.w3.org/1999/xlink" x="0px" y="0px"
	 viewBox="0 0 1024 1024" style="enable-background:new 0 0 1024 1024;" xml:space="preserve">
<style type="text/css">
	.st0{fill:#FFFFFF;}
	.st1{fill:none;stroke:#FFFFFF;stroke-width:0.1417;stroke-linecap:round;stroke-linejoin:round;stroke-miterlimit:10;}
</style>
<g id="_x36_">
</g>
<g id="_x30_">
</g>
<g id="_x33_">
	<g id="LINE_27_">
		<g id="XMLID_1_">
			<g>
				<rect x="512" y="748.2" width="433" height="118.1"/>
				<rect x="512" y="354.5" width="433" height="275.6"/>
				<rect x="512" y="118.3" width="433" height="118.1"/>
				<rect x="79" y="748.2" class="st0" width="433" height="118.1"/>
				<rect x="79" y="354.5" class="st0" width="433" height="275.6"/>
				<rect x="79" y="118.3" class="st0" width="433" height="118.1"/>
			</g>
			<g>
				<line class="st1" x1="79" y1="866.3" x2="512" y2="866.3"/>
				<line class="st1" x1="512" y1="118.3" x2="79" y2="118.3"/>
				<line class="st1" x1="512" y1="866.3" x2="945" y2="866.3"/>
				<line class="st1" x1="945" y1="118.3" x2="512" y2="118.3"/>
				<line class="st1" x1="512" y1="236.4" x2="945" y2="236.4"/>
				<line class="st1" x1="945" y1="236.4" x2="945" y2="118.3"/>
				<line class="st1" x1="79" y1="236.4" x2="512" y2="236.4"/>
				<line class="st1" x1="512" y1="236.4" x2="512" y2="118.3"/>
				<line class="st1" x1="79" y1="118.3" x2="79" y2="236.4"/>
				<line class="st1" x1="945" y1="866.3" x2="945" y2="748.2"/>
				<line class="st1" x1="945" y1="748.2" x2="512" y2="748.2"/>
				<line class="st1" x1="512" y1="866.3" x2="512" y2="748.2"/>
				<line class="st1" x1="512" y1="748.2" x2="79" y2="748.2"/>
				<line class="st1" x1="79" y1="748.2" x2="79" y2="866.3"/>
				<line class="st1" x1="512" y1="354.5" x2="79" y2="354.5"/>
				<line class="st1" x1="945" y1="354.5" x2="512" y2="354.5"/>
				<line class="st1" x1="512" y1="630.1" x2="945" y2="630.1"/>
				<line class="st1" x1="945" y1="630.1" x2="945" y2="354.5"/>
				<line class="st1" x1="79" y1="630.1" x2="512" y2="630.1"/>
				<line class="st1" x1="512" y1="630.1" x2="512" y2="354.5"/>
				<line class="st1" x1="79" y1="354.5" x2="79" y2="630.1"/>
			</g>
		</g>
	</g>
</g>
</svg>
