<?xml version="1.0" encoding="utf-8"?>
<!-- Generator: Adobe Illustrator 19.0.0, SVG Export Plug-In . SVG Version: 6.00 Build 0)  -->
<svg version="1.1" xmlns="http://www.w3.org/2000/svg" xmlns:xlink="http://www.w3.org/1999/xlink" x="0px" y="0px"
	 viewBox="0 0 1024 1024" style="enable-background:new 0 0 1024 1024;" xml:space="preserve">
<g id="_x30_">
</g>
<g id="_x33_">
	<g id="LINE_17_">
		<g id="XMLID_1_">
			<g>
				<path d="M748.2,669.5v196.8l-61.5-61.5c-42.8,30.2-93,48-145.2,51.6c-157.6,10.9-294.2-108.1-305.1-265.7l99.7,78.7
					c0,82.6,67,149.6,149.6,149.6c56.3,0,107.9-31.6,133.4-81.8l-67.8-67.8H748.2z"/>
				<path d="M787.7,514.4l-99.9-81.1c0-82.6-67-149.6-149.6-149.6c-56.3,0-107.9,31.6-133.4,81.8l67.8,67.8H275.8V236.4l61.5,61.5
					c43.4-30.6,94.5-48.6,147.6-51.8C642.6,236.6,778.2,356.7,787.7,514.4z"/>
				<path d="M945,79V945H79V79H945z M905.7,905.7V197.1H118.3v708.6H905.7z"/>
			</g>
			<g>
			</g>
		</g>
	</g>
</g>
<g id="_x36_">
</g>
</svg>
