<?xml version="1.0" encoding="utf-8"?>
<!-- Generator: Adobe Illustrator 19.0.0, SVG Export Plug-In . SVG Version: 6.00 Build 0)  -->
<svg version="1.1" xmlns="http://www.w3.org/2000/svg" xmlns:xlink="http://www.w3.org/1999/xlink" x="0px" y="0px"
	 viewBox="0 0 1024 1024" style="enable-background:new 0 0 1024 1024;" xml:space="preserve">
<g id="_x30_">
</g>
<g id="_x33_">
	<g id="LINE_11_">
		<g id="XMLID_1_">
			<g>
				<path d="M713.5,333.1c55.3,45.1,82.6,114.5,81.9,208.2c-0.7,93.7-40.8,184-120.3,271.1c37-85.6,56-157.3,57-215
					c1.1-57.7-13-107.5-42.2-149.3c-29.2-41.8-69.4-60.2-120.8-55c-51.3,5.2-99.9,37.2-145.7,96.1l93.5,93.5H236.4V302.3l93.5,93.5
					c61.1-68.7,126.4-107.6,196.1-116.7C595.7,270,658.2,288,713.5,333.1z"/>
				<path d="M945,79V945H79V79H945z M905.7,905.7V197.1H118.3v708.6H905.7z"/>
			</g>
			<g>
			</g>
		</g>
	</g>
</g>
<g id="_x36_">
</g>
</svg>
