<?xml version="1.0" encoding="utf-8"?>
<!-- Generator: Adobe Illustrator 16.0.0, SVG Export Plug-In . SVG Version: 6.00 Build 0)  -->
<!DOCTYPE svg PUBLIC "-//W3C//DTD SVG 1.1//EN" "http://www.w3.org/Graphics/SVG/1.1/DTD/svg11.dtd">
<svg version="1.1" id="Layer_1" xmlns="http://www.w3.org/2000/svg" xmlns:xlink="http://www.w3.org/1999/xlink" x="0px" y="0px"
	 width="64px" height="64px" viewBox="0 0 64 64" enable-background="new 0 0 64 64" xml:space="preserve">
<g id="LINE_27_">
	<g id="XMLID_1_">
		<g>
			<polygon points="44.799805,4.620117 44.799805,14.580078 42.30957,14.580078 42.30957,12.089844 7.470215,12.089844 
				7.470215,36.980469 12.439941,36.980469 12.439941,39.469727 4.97998,39.469727 4.97998,4.620117 			"/>
			<polygon points="52.259766,14.580078 52.259766,24.529785 49.769531,24.529785 49.769531,22.049805 14.930176,22.049805 
				14.930176,46.929688 19.910156,46.929688 19.910156,49.419922 12.439941,49.419922 12.439941,39.469727 12.439941,36.980469 
				12.439941,14.580078 42.30957,14.580078 44.799805,14.580078 			"/>
			<path d="M22.399902,32v24.889648h34.840332V32H22.399902z M59.730469,24.529785v34.850098H19.910156v-9.959961v-2.490234
				V24.529785h29.859375h2.490234H59.730469z"/>
		</g>
		<g>
		</g>
	</g>
</g>
</svg>
