<?xml version="1.0" encoding="utf-8"?>
<!-- Generator: Adobe Illustrator 19.0.0, SVG Export Plug-In . SVG Version: 6.00 Build 0)  -->
<svg version="1.1" xmlns="http://www.w3.org/2000/svg" xmlns:xlink="http://www.w3.org/1999/xlink" x="0px" y="0px"
	 viewBox="0 0 1024 1024" style="enable-background:new 0 0 1024 1024;" xml:space="preserve">
<g id="_x30_">
</g>
<g id="_x33_">
	<g id="LINE_45_">
		<g id="XMLID_1_">
			<g>
				<path d="M945,551.4v354.3H79V551.4h39.4v118.1h354.3v-39.4H512v39.4h236.2v-39.4h39.4v39.4h118.1V551.4H945z M905.7,866.3V708.8
					H787.6v157.5H905.7z M748.2,866.3V708.8H512v157.5H748.2z M472.6,866.3V708.8H118.3v157.5H472.6z"/>
				<path d="M327,143.5V512h-99.2V266.4c-16.5,12.9-32.6,23.4-48.1,31.3s-34.9,15.6-58.2,22.9v-85c34.2-10.5,60.9-23.1,79.8-37.8
					s33.8-32.8,44.5-54.4H327z"/>
				<rect x="440.4" y="412.8" width="99.2" height="99.2"/>
				<rect x="440.4" y="249.8" width="99.2" height="99.2"/>
				<path d="M830.1,143.5V512h-99.2V266.4c-16.5,12.9-32.5,23.4-48,31.3s-34.9,15.6-58.2,22.9v-85c34.3-10.5,60.9-23.1,79.8-37.8
					c19-14.7,33.8-32.8,44.5-54.4H830.1z"/>
			</g>
			<g>
			</g>
		</g>
	</g>
</g>
<g id="_x36_">
</g>
</svg>
