<?xml version="1.0" encoding="utf-8"?>
<!-- Generator: Adobe Illustrator 15.1.0, SVG Export Plug-In . SVG Version: 6.00 Build 0)  -->
<!DOCTYPE svg PUBLIC "-//W3C//DTD SVG 1.1//EN" "http://www.w3.org/Graphics/SVG/1.1/DTD/svg11.dtd">
<svg version="1.1" id="Layer_1" xmlns="http://www.w3.org/2000/svg" xmlns:xlink="http://www.w3.org/1999/xlink" x="0px" y="0px"
	 width="128px" height="128px" viewBox="0 0 128 128" enable-background="new 0 0 128 128" xml:space="preserve">
<g id="LINE_31_">
	<g id="XMLID_1_">
		<g>
			<path d="M126.23,22.58l-18.75,62.47l-32.37,37.49L20.02,85.05L1.27,22.58L52.39,3.84L126.23,22.58z M101.65,82.77L118.27,27.35
				L78.23,58.19v22.53v28.33L97.18,87.12l-16.3-6.4v-6.1L101.65,82.77z M75.11,52.78l35.77-28.28L55.89,11.2l2.69,30.88l-5.95-2.88
				l-2.44-27.97L16.62,24.5l40.9,19.77L75.11,52.78z M71.99,111.63V70.1V58.19l-11.22-5.51L9.23,27.35l16.44,54.79L55.06,66.98
				l-1.32-15.05l5.96,2.93l1.04,11.871l8.6,3.369V76.2l-11.23-4.4L31.6,85.47L71.99,111.63z"/>
		</g>
		<g>
		</g>
	</g>
</g>
</svg>
