<?xml version="1.0" encoding="utf-8"?>
<!-- Generator: Adobe Illustrator 19.0.0, SVG Export Plug-In . SVG Version: 6.00 Build 0)  -->
<svg version="1.1" xmlns="http://www.w3.org/2000/svg" xmlns:xlink="http://www.w3.org/1999/xlink" x="0px" y="0px"
	 viewBox="0 0 1024 1024" style="enable-background:new 0 0 1024 1024;" xml:space="preserve">
<g id="_x30_">
</g>
<g id="_x33_">
	<g id="SPLINE_14_">
		<g id="XMLID_1_">
			<g>
				<polygon points="669.5,608.9 826.9,766.4 669.5,923.8 669.5,805.7 197.1,805.7 197.1,333.3 79,333.3 236.4,175.9 393.9,333.3 
					275.8,333.3 275.8,727 669.5,727 				"/>
				<path d="M897.6,531.6c17.7,0,34.3-2.1,49.6-6.3c-19.7,33.9-36.1,56-49.3,66.4c-13.2,10.4-31.1,15.6-53.9,15.6
					c-49.6,0-114.2-39.7-193.6-119.2l-27.8-27.4l-14.8,16.9C534.2,564,476.9,607.2,436.1,607.2c-30.7,0-62-25.2-93.9-75.6
					c11,0,19.5,0,25.4,0c51.6,0,110.2-37.6,175.9-112.9l23-25.8l-16.5-20.7c-79.7-95.7-119.5-162.9-119.5-201.5
					c0-27.7,21.7-62.9,65.2-105.6c18.1,83.4,55.9,162.2,113.5,236.3l13,16.9l24.8-31.7c81-105.7,145.5-158.6,193.4-158.6
					c23.6,0,43.1,12.2,58.5,36.6c2.8,4.2,6.7,10.1,11.8,17.5c-61.1,29-129.3,87.7-204.8,175.9l-24.2,28.6l17.7,20.5
					C770.9,490.2,837,531.6,897.6,531.6z"/>
			</g>
			<g>
			</g>
		</g>
	</g>
</g>
<g id="_x36_">
</g>
</svg>
