<?xml version="1.0" encoding="utf-8"?>
<!-- Generator: Adobe Illustrator 19.0.0, SVG Export Plug-In . SVG Version: 6.00 Build 0)  -->
<svg version="1.1" xmlns="http://www.w3.org/2000/svg" xmlns:xlink="http://www.w3.org/1999/xlink" x="0px" y="0px"
	 viewBox="0 0 1024 1024" style="enable-background:new 0 0 1024 1024;" xml:space="preserve">
<g id="_x30_">
</g>
<g id="_x33_">
	<g id="LINE_10_">
		<g id="XMLID_1_">
			<g>
				<path d="M507.6,213.1c67.1,37.5,112.6,104.5,122.5,180.8c-31-61.9-82.4-111.2-145.4-139.6L507.6,213.1z"/>
				<path d="M472.6,197.1l-22.1,44.2c-84.9-26.5-177.1-14.2-252,33.6C263.5,192.4,374,161,472.6,197.1z"/>
				<path d="M945,866.3l-27.8,27.8l-23.1,23.1L866.3,945L630.1,708.8v-39.4l-43.6-43.6c-18,15-37.7,27.8-58.7,38.1
					c-149.2,74-330.1,13-404.1-136.2c-74-149.2-13-330.1,136.2-404.1c106.8-53,234.8-38,326.6,38.1
					c128.1,106.4,145.7,296.5,39.4,424.6l43.6,43.6h39.4L945,866.3z M656,393.9c0-144.8-117.4-262.1-262.1-262.1
					S131.8,249.1,131.8,393.9S249.1,656,393.9,656S656,538.7,656,393.9z"/>
			</g>
			<g>
			</g>
		</g>
	</g>
</g>
<g id="_x36_">
</g>
</svg>
