<?xml version="1.0" encoding="utf-8"?>
<!-- Generator: Adobe Illustrator 19.0.0, SVG Export Plug-In . SVG Version: 6.00 Build 0)  -->
<svg version="1.1" xmlns="http://www.w3.org/2000/svg" xmlns:xlink="http://www.w3.org/1999/xlink" x="0px" y="0px"
	 viewBox="0 0 1024 1024" style="enable-background:new 0 0 1024 1024;" xml:space="preserve">
<g id="_x30_">
</g>
<g id="_x33_">
	<g id="ARC_1_">
		<g id="XMLID_1_">
			<g>
				<path d="M945,866.3l-27.8,27.8l-23.1,23.1L866.3,945L669.5,748.2v-39.4l-15.6-15.6c-127.2,108-313.9,108-441.1,0
					C69.2,571.4,51.5,356.3,173.4,212.7C295.2,69.2,510.3,51.5,653.8,173.4S815,510.3,693.2,653.8l15.6,15.6h39.4L945,866.3z
					 M646.5,646.5c117.8-117.8,117.8-308.7,0-426.4s-308.7-117.8-426.4,0s-117.8,308.7,0,426.4c110.1,110.1,286,118.3,405.8,18.8
					L646.5,646.5z"/>
				<polygon points="598,518.2 598,603.2 257.8,603.2 257.8,521.2 456.7,326.9 279.1,326.9 279.1,241.9 590.9,241.9 590.9,321.5 
					389.7,518.2 				"/>
			</g>
			<g>
			</g>
		</g>
	</g>
</g>
<g id="_x36_">
</g>
</svg>
