<?xml version="1.0" encoding="utf-8"?>
<!-- Generator: Adobe Illustrator 19.0.0, SVG Export Plug-In . SVG Version: 6.00 Build 0)  -->
<svg version="1.1" xmlns="http://www.w3.org/2000/svg" xmlns:xlink="http://www.w3.org/1999/xlink" x="0px" y="0px"
	 viewBox="0 0 1024 1024" style="enable-background:new 0 0 1024 1024;" xml:space="preserve">
<g id="_x30_">
</g>
<g id="_x33_">
</g>
<g id="_x31_">
	<g id="CIRCLE_1_">
		<g id="XMLID_1_">
			<g>
				<polygon points="945,748.2 945,945 748.2,945 818.8,874.5 720.4,776 776,720.4 874.5,818.8 				"/>
				<polygon points="303.6,776 205.2,874.5 275.8,945 79,945 79,748.2 149.6,818.8 248,720.4 				"/>
				<polygon points="303.6,248 248,303.6 149.6,205.2 79,275.8 79,79 275.8,79 205.2,149.6 				"/>
				<path d="M597.9,349.9c66.9,35.5,105.2,108.4,96.3,183.6c-22.9-58.6-67.7-106-124.9-132.2L597.9,349.9z"/>
				<path d="M561,335.3l-26.6,53.2c-56.2-16-116.2-11.2-169.2,13.5C410.6,341.5,488.3,315.1,561,335.3z"/>
				<path d="M512,233.6c153.7,0,278.4,124.6,278.4,278.4S665.7,790.4,512,790.4S233.6,665.7,233.6,512S358.3,233.6,512,233.6z
					 M748.2,512c0-130.5-105.8-236.2-236.2-236.2S275.8,381.5,275.8,512S381.5,748.2,512,748.2S748.2,642.5,748.2,512z"/>
				<polygon points="945,79 945,275.8 874.5,205.2 776,303.6 720.4,248 818.8,149.6 748.2,79 				"/>
			</g>
			<g>
			</g>
		</g>
	</g>
</g>
<g id="_x36_">
</g>
</svg>
