<?xml version="1.0" encoding="utf-8"?>
<!-- Generator: Adobe Illustrator 19.0.0, SVG Export Plug-In . SVG Version: 6.00 Build 0)  -->
<svg version="1.1" xmlns="http://www.w3.org/2000/svg" xmlns:xlink="http://www.w3.org/1999/xlink" x="0px" y="0px"
	 viewBox="0 0 1024 1024" style="enable-background:new 0 0 1024 1024;" xml:space="preserve">
<g id="_x30_">
</g>
<g id="_x33_">
	<g id="LINE_14_">
		<g id="XMLID_1_">
			<g>
				<path d="M549.5,494.7c0,29.7-8.6,56.3-25.8,79.6c-23.4,31.9-55.9,47.8-97.5,47.8c-33.2,0-60.3-10-81.2-30s-33.5-46.9-37.6-80.6
					l65-7.5c2,16.4,8.1,29.3,18.1,38.8c10,9.5,21.6,14.3,34.7,14.3c14.9,0,27.6-5.1,38-15.2c10.4-10.1,15.6-25.3,15.6-45.7
					c0-19.1-4.8-33.4-14.4-42.9c-9.6-9.5-22.2-14.3-37.6-14.3c-19.3,0-36.6,9.8-51.9,29.5l-61.4-9.1l41.3-209.4h177.1V321H412
					l-14.3,67.6c14.9-9.6,30.1-14.5,45.7-14.5c29.6,0,54.7,11.2,75.3,33.5C539.2,430,549.5,459,549.5,494.7z"/>
				<path d="M945,866.3L866.3,945L669.5,748.2v-39.4l-15.6-15.6c-127.2,108-313.9,108-441.1,0C69.2,571.4,51.5,356.3,173.4,212.7
					C295.2,69.2,510.3,51.5,653.8,173.4S815,510.3,693.2,653.8l15.6,15.6h39.4L945,866.3z M646.5,646.5
					c117.8-117.8,117.8-308.7,0-426.4s-308.7-117.8-426.4,0s-117.8,308.7,0,426.4c110.1,110.1,286,118.3,405.8,18.8L646.5,646.5z"/>
			</g>
			<g>
			</g>
		</g>
	</g>
</g>
<g id="_x36_">
</g>
</svg>
