<?xml version="1.0" encoding="utf-8"?>
<!-- Generator: Adobe Illustrator 19.0.0, SVG Export Plug-In . SVG Version: 6.00 Build 0)  -->
<svg version="1.1" xmlns="http://www.w3.org/2000/svg" xmlns:xlink="http://www.w3.org/1999/xlink" x="0px" y="0px"
	 viewBox="0 0 1024 1024" style="enable-background:new 0 0 1024 1024;" xml:space="preserve">
<g id="_x30_">
</g>
<g id="_x33_">
	<g id="LINE_16_">
		<g id="XMLID_1_">
			<g>
				<path d="M427.5,833.1v85H87.4v-82l198.8-194.3H108.6v-85h193.6c7.4,25.7,10.7,30.7,14.2,35.7c3.4,4.9,7,9.8,10.7,14.5
					c3.7,4.7,7.5,9.3,11.5,13.8c4,4.5,8.2,8.8,12.6,12.9c4.4,4.1,8.9,8,13.7,11.6s9.8,7,15,9.9c4.6,2.6,9.4,5,14.3,7l-174.9,171
					H427.5z"/>
				<path d="M880.8,556.4c17.3,0,33.4-2,48.4-6.1c-19.2,33-35.2,54.6-48.1,64.7c-12.8,10.1-30.3,15.2-52.5,15.2
					c-48.4,0-111.3-38.7-188.7-116.1l-27.1-26.7l-14.4,16.5c-71.8,84.2-114.4,126.3-128,126.3c-29.9,0-60.4-24.6-91.5-73.7
					c10.8,0,19,0,24.8,0c24,0,68-36.7,132-110l22.4-25.1l-16.1-20.1c-77.7-93.3-116.5-158.7-116.5-196.3c0-27,21.2-61.3,63.5-102.9
					c17.7,81.2,54.5,158,110.5,230.3l12.7,16.5l24.2-30.9c78.9-103,141.8-154.5,188.5-154.5c23,0,42,11.9,57,35.7
					c2.7,4.1,6.5,9.8,11.5,17.1c-59.5,28.3-126,85.4-199.6,171.4l-23.6,27.8l17.3,20C757.4,516,821.8,556.4,880.8,556.4z"/>
			</g>
			<g>
			</g>
		</g>
	</g>
</g>
<g id="_x36_">
</g>
</svg>
