<?xml version="1.0" encoding="utf-8"?>
<!-- Generator: Adobe Illustrator 19.0.0, SVG Export Plug-In . SVG Version: 6.00 Build 0)  -->
<svg version="1.1" xmlns="http://www.w3.org/2000/svg" xmlns:xlink="http://www.w3.org/1999/xlink" x="0px" y="0px"
	 viewBox="0 0 1024 1024" style="enable-background:new 0 0 1024 1024;" xml:space="preserve">
<g id="_x30_">
</g>
<g id="_x33_">
	<g id="LINE_73_">
		<g id="XMLID_1_">
			<g>
				<rect x="793.9" y="321.5" width="39.4" height="78.7"/>
				<rect x="793.9" y="203.4" width="39.4" height="78.7"/>
				<rect x="793.9" y="85.3" width="39.4" height="78.7"/>
				<rect x="675.8" y="85.3" width="78.7" height="39.4"/>
				<rect x="557.7" y="85.3" width="78.7" height="39.4"/>
				<rect x="321.5" y="85.3" width="78.7" height="39.4"/>
				<rect x="439.6" y="85.3" width="78.7" height="39.4"/>
				<rect x="203.4" y="85.3" width="78.7" height="39.4"/>
				<rect x="85.3" y="85.3" width="78.7" height="39.4"/>
				<rect x="85.3" y="164.1" width="39.4" height="78.7"/>
				<rect x="85.3" y="282.2" width="39.4" height="78.7"/>
				<rect x="85.3" y="400.3" width="39.4" height="78.7"/>
				<rect x="85.3" y="518.4" width="39.4" height="78.7"/>
				<rect x="85.3" y="636.5" width="39.4" height="78.7"/>
				<rect x="164.1" y="675.8" width="78.7" height="39.4"/>
				<path d="M683,435c66.9,35.5,105.2,108.4,96.3,183.6c-22.9-58.6-67.7-106-124.9-132.2L683,435z"/>
				<path d="M872.7,793.9l78.7,78.7l-78.7,78.7l-78.7-78.7v-39.4l-32.2-32.2c-14.4,11.6-30,21.7-46.5,30
					c-129.3,65.2-286.9,13.3-352.1-115.9h-80.9v-39.4H347C308.3,552.7,365,419.6,480.6,362.2c113.1-56.1,250.2-23.6,326.1,77.4h26.6
					v43.8c43.9,91.2,31.4,199.6-32.2,278.4l32.2,32.2H872.7z M819.9,597.1c0-123-99.7-222.8-222.8-222.8s-222.8,99.7-222.8,222.8
					s99.7,222.8,222.8,222.8S819.9,720.1,819.9,597.1z"/>
				<path d="M646.1,420.4l-26.6,53.2c-56.2-16-116.2-11.2-169.2,13.5C495.7,426.6,573.3,400.2,646.1,420.4z"/>
			</g>
			<g>
			</g>
		</g>
	</g>
</g>
<g id="_x36_">
</g>
</svg>
