<?xml version="1.0" encoding="utf-8"?>
<!-- Generator: Adobe Illustrator 19.0.0, SVG Export Plug-In . SVG Version: 6.00 Build 0)  -->
<svg version="1.1" xmlns="http://www.w3.org/2000/svg" xmlns:xlink="http://www.w3.org/1999/xlink" x="0px" y="0px"
	 viewBox="0 0 1024 1024" style="enable-background:new 0 0 1024 1024;" xml:space="preserve">
<g id="_x30_">
</g>
<g id="_x33_">
	<g id="LINE_11_">
		<g id="XMLID_1_">
			<g>
				<path d="M763.7,704l-39.4,118.1l-68.9-68.9v-39.4l-15.6-15.6c-117,99.3-285.9,108.1-412.6,21.7
					C71.7,613.8,31.6,401.8,137.6,246.2C243.7,90.7,455.8,50.6,611.3,156.6c-0.8,0.1-1.6,0.2-2.5,0.3c-18.5,2.5-36.8,6.4-54.8,11.6
					c-148.9-74.5-330-14.1-404.5,134.8c-74.5,149-14.1,330.1,134.8,404.5c108,54,237.8,38.3,329.9-39.8l34.8-34.8
					c47.8-56.3,73.2-128.2,71.5-202c3.6,1.4,7.1,3,10.4,4.9c8.9,5.2,16.4,12.7,22.9,20.7c1.8,2.2,3.5,4.5,5.2,6.8
					c-5.4,71.8-33.4,140.1-80,195l15.6,15.6h39.4L763.7,704z"/>
				<path d="M847.3,281.4c67.9,55.4,101.4,140.5,100.5,255.5s-50,225.9-147.6,332.8c45.4-105.1,68.7-193,70-263.8
					c1.3-70.8-16-131.9-51.8-183.2s-85.2-73.8-148.2-67.5c-63,6.3-122.6,45.7-178.8,118l114.8,114.8H261.8V243.5l114.8,114.8
					c75-84.3,155.2-132.1,240.7-143.2S779.4,226,847.3,281.4z"/>
			</g>
			<g>
			</g>
		</g>
	</g>
</g>
<g id="_x36_">
</g>
</svg>
